<?xml version="1.0" encoding="iso-8859-1"?>
<!-- Generator: Adobe Illustrator 19.1.1, SVG Export Plug-In . SVG Version: 6.00 Build 0)  -->
<svg version="1.1" id="Layer_1" xmlns="http://www.w3.org/2000/svg" xmlns:xlink="http://www.w3.org/1999/xlink" x="0px" y="0px"
	 viewBox="0 0 48 48" style="enable-background:new 0 0 48 48;" xml:space="preserve">
<path style="fill:#37474F;" d="M34,12H23H12c3.1-2.5,3.8-5.4,4-6.9c0.1-0.7,0.6-1.2,1.2-1.4C18.5,3.4,20.6,3,23,3s4.5,0.4,5.8,0.7
	C29.5,3.8,30,4.4,30,5.1C30.2,6.6,30.9,9.5,34,12z M34,36H23H12c3.1,2.5,3.8,5.4,4,6.9c0.1,0.7,0.6,1.2,1.2,1.4
	c1.3,0.3,3.4,0.7,5.8,0.7s4.5-0.4,5.8-0.7c0.7-0.2,1.1-0.7,1.2-1.4C30.2,41.4,30.9,38.5,34,36z"/>
<path style="fill:#C5CAE9;" d="M30,38H16c-2.8,0-5-2.3-5-5V15c0-2.8,2.3-5,5-5h14c2.8,0,5,2.3,5,5v18C35,35.8,32.8,38,30,38z"/>
<path style="fill:#263238;" d="M29.7,36H16.3c-1.8,0-3.3-1.5-3.3-3.3V15.3c0-1.8,1.5-3.3,3.3-3.3h13.4c1.8,0,3.3,1.5,3.3,3.3v17.4
	C33,34.5,31.5,36,29.7,36z"/>
<circle style="fill:#FFFFFF;" cx="23" cy="24" r="2.5"/>
<path style="fill:#FFAB00;" d="M17,22c1.1,0,2,0.9,2,2s-0.9,2-2,2s-2-0.9-2-2S15.9,22,17,22z M27,24c0,1.1,0.9,2,2,2s2-0.9,2-2
	s-0.9-2-2-2S27,22.9,27,24z"/>
<circle style="fill:#76FF03;" cx="26" cy="29" r="2"/>
<circle style="fill:#00E5FF;" cx="20" cy="29" r="2"/>
<circle style="fill:#64B5F6;" cx="26" cy="19" r="2"/>
<circle style="fill:#FF1744;" cx="20" cy="19" r="2"/>
<circle style="fill:#FFD740;" cx="15" cy="29" r="1"/>
<path style="fill:#FFFFFF;" d="M15,18c0.6,0,1,0.4,1,1s-0.4,1-1,1s-1-0.4-1-1S14.4,18,15,18z M30,29c0,0.6,0.4,1,1,1s1-0.4,1-1
	s-0.4-1-1-1S30,28.4,30,29z"/>
<path style="fill:#455A64;" d="M13.3,14c0.3,0.6,1,1,1.7,1h16c0.7,0,1.4-0.4,1.7-1c-0.5-1.2-1.7-2-3-2H16.3C15,12,13.8,12.8,13.3,14
	z"/>
<path style="fill:#9FA8DA;" d="M34.999,22L34.999,22c1.063,0,1-1,1-1v-4c0,0,0.063-1-1-1l0,0c-0.825,0-1,2.031-1,3
	S34.174,22,34.999,22z"/>
</svg>
