<svg width="20" height="20" viewBox="0 0 20 20" fill="none" xmlns="http://www.w3.org/2000/svg">
<path d="M8 12H10V5H8V12ZM11 10.5H13V6H11V10.5ZM5 10H7V6H5V10ZM3 20V15.7C2.05 14.8333 1.31267 13.8207 0.788 12.662C0.263333 11.5033 0.000666667 10.2827 0 9C0 6.5 0.875 4.375 2.625 2.625C4.375 0.875 6.5 0 9 0C11.0833 0 12.9293 0.612667 14.538 1.838C16.1467 3.06333 17.1923 4.659 17.675 6.625L18.975 11.75C19.0583 12.0667 19 12.3543 18.8 12.613C18.6 12.8717 18.3333 13.0007 18 13H16V16C16 16.55 15.804 17.021 15.412 17.413C15.02 17.805 14.5493 18.0007 14 18H12V20H10V16H14V11H16.7L15.75 7.125C15.3667 5.60833 14.55 4.375 13.3 3.425C12.05 2.475 10.6167 2 9 2C7.06667 2 5.41667 2.675 4.05 4.025C2.68333 5.375 2 7.01667 2 8.95C2 9.95 2.20433 10.9 2.613 11.8C3.02167 12.7 3.60067 13.5 4.35 14.2L5 14.8V20H3Z" fill="#F8C2C2"/>
</svg>
