<svg width="32" height="31" viewBox="0 0 32 31" fill="none" xmlns="http://www.w3.org/2000/svg">
<g filter="url(#filter0_d_1118_520)">
<path d="M10.1992 10.4717C10.7959 11.1347 11.521 11.5241 12.304 11.5241C13.087 11.5241 13.8121 11.1347 14.4088 10.4717M17.5659 10.4717C18.1626 11.1347 18.8877 11.5241 19.6707 11.5241C20.4537 11.5241 21.1787 11.1347 21.7754 10.4717" stroke="#D7BCE7" stroke-width="1.5" stroke-linecap="round"/>
<path d="M17.0403 15.7335C17.0403 16.0126 16.9294 16.2803 16.7321 16.4777C16.5347 16.675 16.267 16.7859 15.9879 16.7859C15.7088 16.7859 15.4411 16.675 15.2438 16.4777C15.0464 16.2803 14.9355 16.0126 14.9355 15.7335C14.9355 15.4544 15.0464 15.1867 15.2438 14.9894C15.4411 14.792 15.7088 14.6812 15.9879 14.6812C16.267 14.6812 16.5347 14.792 16.7321 14.9894C16.9294 15.1867 17.0403 15.4544 17.0403 15.7335Z" fill="#D7BCE7"/>
<path d="M5.46387 11.5238C5.46387 6.5629 5.46387 4.08243 7.00456 2.54069C8.54735 1 11.0268 1 15.9877 1M26.5116 11.5238C26.5116 16.4848 26.5116 18.9653 24.9698 20.5059C23.4302 22.0477 20.9487 22.0477 15.9877 22.0477C11.0268 22.0477 8.5463 22.0477 7.00456 20.5059C5.98059 19.482 5.63646 18.0413 5.52175 15.7334" stroke="#D7BCE7" stroke-width="1.5" stroke-linecap="round"/>
<path d="M21.2498 3.10477L24.8953 1L23.3546 6.75023L27.0001 4.64546M18.1432 4.68335L19.9659 5.73573L17.0908 6.50608L18.9135 7.55846" stroke="#D7BCE7" stroke-width="1.5" stroke-linecap="round" stroke-linejoin="round"/>
</g>
<defs>
<filter id="filter0_d_1118_520" x="0.713867" y="0.25" width="31.0361" height="30.5479" filterUnits="userSpaceOnUse" color-interpolation-filters="sRGB">
<feFlood flood-opacity="0" result="BackgroundImageFix"/>
<feColorMatrix in="SourceAlpha" type="matrix" values="0 0 0 0 0 0 0 0 0 0 0 0 0 0 0 0 0 0 127 0" result="hardAlpha"/>
<feOffset dy="4"/>
<feGaussianBlur stdDeviation="2"/>
<feComposite in2="hardAlpha" operator="out"/>
<feColorMatrix type="matrix" values="0 0 0 0 0 0 0 0 0 0 0 0 0 0 0 0 0 0 0.25 0"/>
<feBlend mode="normal" in2="BackgroundImageFix" result="effect1_dropShadow_1118_520"/>
<feBlend mode="normal" in="SourceGraphic" in2="effect1_dropShadow_1118_520" result="shape"/>
</filter>
</defs>
</svg>
