<svg width="20" height="20" viewBox="0 0 20 20" fill="none" xmlns="http://www.w3.org/2000/svg">
<path id="Vector" d="M9.81883 0.696777C10.0279 0.696777 10.2285 0.791709 10.3763 0.960688C10.5242 1.12967 10.6072 1.35885 10.6072 1.59783V3.39992C10.6072 3.6389 10.5242 3.86808 10.3763 4.03706C10.2285 4.20604 10.0279 4.30097 9.81883 4.30097C9.60973 4.30097 9.40919 4.20604 9.26133 4.03706C9.11347 3.86808 9.03041 3.6389 9.03041 3.39992V1.59783C9.03041 1.35885 9.11347 1.12967 9.26133 0.960688C9.40919 0.791709 9.60973 0.696777 9.81883 0.696777ZM0.357819 11.5094C0.357819 11.2704 0.440884 11.0412 0.588741 10.8722C0.736598 10.7032 0.937135 10.6083 1.14624 10.6083H2.72307C2.93217 10.6083 3.13271 10.7032 3.28057 10.8722C3.42842 11.0412 3.51149 11.2704 3.51149 11.5094C3.51149 11.7483 3.42842 11.9775 3.28057 12.1465C3.13271 12.3155 2.93217 12.4104 2.72307 12.4104H1.14624C0.937135 12.4104 0.736598 12.3155 0.588741 12.1465C0.440884 11.9775 0.357819 11.7483 0.357819 11.5094ZM16.1262 11.5094C16.1262 11.2704 16.2092 11.0412 16.3571 10.8722C16.5049 10.7032 16.7055 10.6083 16.9146 10.6083H18.4914C18.7005 10.6083 18.9011 10.7032 19.0489 10.8722C19.1968 11.0412 19.2798 11.2704 19.2798 11.5094C19.2798 11.7483 19.1968 11.9775 19.0489 12.1465C18.9011 12.3155 18.7005 12.4104 18.4914 12.4104H16.9146C16.7055 12.4104 16.5049 12.3155 16.3571 12.1465C16.2092 11.9775 16.1262 11.7483 16.1262 11.5094ZM16.5085 3.86396C16.6564 4.03293 16.7394 4.26208 16.7394 4.501C16.7394 4.73993 16.6564 4.96907 16.5085 5.13805L15.3937 6.41213C15.245 6.57626 15.0459 6.66708 14.8392 6.66503C14.6324 6.66298 14.4347 6.56821 14.2885 6.40115C14.1423 6.23409 14.0594 6.0081 14.0576 5.77184C14.0558 5.53559 14.1353 5.30799 14.2789 5.13805L15.3937 3.86396C15.5416 3.69504 15.7421 3.60015 15.9511 3.60015C16.1602 3.60015 16.3607 3.69504 16.5085 3.86396ZM3.12911 3.86396C3.27696 3.69504 3.47746 3.60015 3.68652 3.60015C3.89558 3.60015 4.09608 3.69504 4.24393 3.86396L5.35875 5.13805C5.43581 5.22063 5.49757 5.32008 5.54034 5.43047C5.58312 5.54087 5.60604 5.65997 5.60776 5.78069C5.60948 5.90141 5.58994 6.02129 5.55033 6.13321C5.51071 6.24514 5.45181 6.34682 5.37714 6.43223C5.30246 6.51763 5.21353 6.58501 5.11562 6.63037C5.01772 6.67572 4.91283 6.69813 4.8072 6.69626C4.70157 6.69438 4.59735 6.66826 4.50072 6.61945C4.40409 6.57064 4.31703 6.50014 4.24472 6.41213L3.12911 5.13895C2.9813 4.96997 2.89827 4.74083 2.89827 4.5019C2.89827 4.26298 2.9813 4.03293 3.12911 3.86396ZM5.87674 18.7177C5.87674 18.4788 5.95981 18.2496 6.10766 18.0806C6.25552 17.9116 6.45606 17.8167 6.66516 17.8167H12.9725C13.1816 17.8167 13.3821 17.9116 13.53 18.0806C13.6778 18.2496 13.7609 18.4788 13.7609 18.7177C13.7609 18.9567 13.6778 19.1859 13.53 19.3549C13.3821 19.5239 13.1816 19.6188 12.9725 19.6188H6.66516C6.45606 19.6188 6.25552 19.5239 6.10766 19.3549C5.95981 19.1859 5.87674 18.9567 5.87674 18.7177ZM16.1262 15.1136H14.3467C14.9934 14.0571 15.3394 12.7986 15.3377 11.5094C15.3377 8.02951 12.8637 5.20202 9.81883 5.20202C6.77396 5.20202 4.29991 8.02951 4.29991 11.5094C4.29991 12.8456 4.66179 14.0909 5.28306 15.1136H3.51149C3.30239 15.1136 3.10185 15.2085 2.95399 15.3775C2.80614 15.5464 2.72307 15.7756 2.72307 16.0146C2.72307 16.2536 2.80614 16.4828 2.95399 16.6517C3.10185 16.8207 3.30239 16.9156 3.51149 16.9156H16.1262C16.3353 16.9156 16.5358 16.8207 16.6837 16.6517C16.8315 16.4828 16.9146 16.2536 16.9146 16.0146C16.9146 15.7756 16.8315 15.5464 16.6837 15.3775C16.5358 15.2085 16.3353 15.1136 16.1262 15.1136Z" fill="#FBD136"/>
</svg>
