<svg width="25" height="20" viewBox="0 0 25 20" fill="none" xmlns="http://www.w3.org/2000/svg">
<path d="M8.17555 0.323126H2.81974C2.41665 0.285351 2.01124 0.364918 1.65233 0.552245C1.40733 0.711836 1.20888 0.933364 1.0771 1.19437C0.945318 1.45538 0.884885 1.74659 0.90193 2.03849V7.59675C0.90193 7.75751 0.96579 7.91168 1.07946 8.02535C1.19314 8.13903 1.34731 8.20289 1.50807 8.20289C1.66882 8.20289 1.82299 8.13903 1.93667 8.02535C2.05034 7.91168 2.1142 7.75751 2.1142 7.59675V2.40823C2.08944 2.19919 2.09516 1.98767 2.13117 1.78028C2.22452 1.49418 2.51789 1.53782 2.75428 1.53782H8.17555C8.33631 1.53782 8.49048 1.47396 8.60416 1.36029C8.71783 1.24662 8.78169 1.09244 8.78169 0.931685C8.78169 0.770928 8.71783 0.616756 8.60416 0.503083C8.49048 0.389411 8.33631 0.32555 8.17555 0.32555V0.323126ZM0.898293 12.2907V17.6465C0.860587 18.0496 0.940151 18.455 1.12741 18.8139C1.2872 19.059 1.50894 19.2575 1.77016 19.3893C2.03138 19.521 2.32279 19.5814 2.61487 19.5643H8.17192C8.33267 19.5643 8.48685 19.5004 8.60052 19.3868C8.71419 19.2731 8.77805 19.1189 8.77805 18.9582C8.77805 18.7974 8.71419 18.6432 8.60052 18.5295C8.48685 18.4159 8.33267 18.352 8.17192 18.352H2.9834C2.77433 18.3762 2.5629 18.3704 2.35544 18.335C2.06935 18.2417 2.11299 17.9483 2.11299 17.7119V12.2907C2.11299 12.1299 2.04913 11.9757 1.93546 11.8621C1.82178 11.7484 1.66761 11.6845 1.50685 11.6845C1.3461 11.6845 1.19192 11.7484 1.07825 11.8621C0.964578 11.9757 0.900718 12.1299 0.900718 12.2907H0.898293ZM17.7137 19.5619H23.0695C23.4726 19.5996 23.878 19.5201 24.2369 19.3327C24.4819 19.1732 24.6804 18.9516 24.8122 18.6906C24.9439 18.4296 25.0044 18.1384 24.9873 17.8465V12.2882C24.9873 12.1275 24.9235 11.9733 24.8098 11.8596C24.6961 11.746 24.5419 11.6821 24.3812 11.6821C24.2204 11.6821 24.0663 11.746 23.9526 11.8596C23.8389 11.9733 23.7751 12.1275 23.7751 12.2882V17.4768C23.7998 17.6858 23.7941 17.8973 23.7581 18.1047C23.6647 18.3908 23.3714 18.3472 23.135 18.3472H17.7137C17.5529 18.3472 17.3988 18.411 17.2851 18.5247C17.1714 18.6384 17.1076 18.7925 17.1076 18.9533C17.1076 19.1141 17.1714 19.2682 17.2851 19.3819C17.3988 19.4956 17.5529 19.5594 17.7137 19.5594V19.5619ZM24.991 7.59433V2.23851C25.0287 1.83543 24.9491 1.43003 24.7618 1.0711C24.6021 0.826003 24.3803 0.627507 24.1191 0.495726C23.8579 0.363945 23.5665 0.303564 23.2744 0.320701H17.7173C17.5566 0.320701 17.4024 0.384561 17.2887 0.498234C17.1751 0.611906 17.1112 0.76608 17.1112 0.926837C17.1112 1.08759 17.1751 1.24177 17.2887 1.35544C17.4024 1.46911 17.5566 1.53297 17.7173 1.53297H22.9059C23.1149 1.50883 23.3264 1.51455 23.5338 1.54994C23.8199 1.64329 23.7763 1.93666 23.7763 2.17305V7.59433C23.7763 7.75508 23.8401 7.90926 23.9538 8.02293C24.0675 8.1366 24.2216 8.20046 24.3824 8.20046C24.5432 8.20046 24.6973 8.1366 24.811 8.02293C24.9247 7.90926 24.9885 7.75508 24.9885 7.59433H24.991Z" fill="#C4C4C4"/>
<path d="M12.9432 5.26678C12.9432 4.93202 12.6719 4.66064 12.3371 4.66064C12.0023 4.66064 11.731 4.93202 11.731 5.26678V14.6122C11.731 14.9469 12.0023 15.2183 12.3371 15.2183C12.6719 15.2183 12.9432 14.9469 12.9432 14.6122V5.26678Z" fill="#C4C4C4"/>
<path d="M16.8832 5.26678C16.8832 4.93202 16.6118 4.66064 16.277 4.66064C15.9423 4.66064 15.6709 4.93202 15.6709 5.26678V14.6122C15.6709 14.9469 15.9423 15.2183 16.277 15.2183C16.6118 15.2183 16.8832 14.9469 16.8832 14.6122V5.26678Z" fill="#C4C4C4"/>
<path d="M19.6107 5.26678C19.6107 4.93202 19.3393 4.66064 19.0046 4.66064C18.6698 4.66064 18.3984 4.93202 18.3984 5.26678V14.6122C18.3984 14.9469 18.6698 15.2183 19.0046 15.2183C19.3393 15.2183 19.6107 14.9469 19.6107 14.6122V5.26678Z" fill="#C4C4C4"/>
<path d="M7.48791 5.26678C7.48791 4.93202 7.21653 4.66064 6.88177 4.66064C6.54701 4.66064 6.27563 4.93202 6.27563 5.26678V14.6122C6.27563 14.9469 6.54701 15.2183 6.88177 15.2183C7.21653 15.2183 7.48791 14.9469 7.48791 14.6122V5.26678Z" fill="#C4C4C4"/>
<path d="M10.5186 5.56985C10.5186 5.06771 10.1115 4.66064 9.6094 4.66064C9.10726 4.66064 8.7002 5.06771 8.7002 5.56985V14.3091C8.7002 14.8112 9.10726 15.2183 9.6094 15.2183C10.1115 15.2183 10.5186 14.8112 10.5186 14.3091V5.56985Z" fill="#C4C4C4"/>
</svg>
