<svg width="195" height="33" viewBox="0 0 195 33" fill="none" xmlns="http://www.w3.org/2000/svg">
<path fill-rule="evenodd" clip-rule="evenodd" d="M0 24.96L11.0559 19.3012C16.4436 16.5436 22.7321 16.1377 28.4296 18.1798L29.4089 18.5308C35.4305 20.6891 42.1229 19.8178 47.3911 16.1895L50.5889 13.9872C55.3651 10.6978 61.6645 10.6542 66.4858 13.8772V13.8772C72.8852 18.1552 81.5302 16.5356 85.9471 10.2312L87.5857 7.89249C93.0421 0.104348 103.81 -1.72561 111.533 3.82268L112.148 4.26444C115.296 6.52663 119.097 7.70032 122.973 7.60753L129.209 7.45824C133.89 7.34618 138.435 9.03733 141.904 12.182L142.701 12.9049C149.955 19.4802 161.224 18.6925 167.493 11.1721V11.1721C172.268 5.44334 180.188 3.43972 187.112 6.20869L195 9.36263V32.7646H0V24.96Z" fill="url(#paint0_linear_69_384)"/>
<defs>
<linearGradient id="paint0_linear_69_384" x1="0" y1="-6.25854" x2="0" y2="32.7646" gradientUnits="userSpaceOnUse">
<stop stop-color="#4E91AF"/>
<stop offset="1" stop-color="#F2F8FB"/>
</linearGradient>
</defs>
</svg>
