<svg width="362" height="193" viewBox="0 0 362 193" fill="none" xmlns="http://www.w3.org/2000/svg">
<g clip-path="url(#clip0_6111_1051)">
<path d="M85.8426 15.8038C31.8561 24.051 3.04257 68.0665 44.894 74.6071C86.7468 81.1477 122.315 10.2316 85.8412 15.8038H85.8426Z" fill="#F3EAF9"/>
<g style="mix-blend-mode:multiply">
<path d="M52.6108 149.243C52.7334 149.272 52.8644 149.217 52.9257 149.1C71.6327 113.549 86.8357 105.29 91.8304 102.576L92.254 102.346C92.3905 102.271 92.4393 102.1 92.364 101.964C92.2888 101.828 92.1174 101.78 91.9809 101.855L91.5601 102.084C86.5278 104.817 71.2133 113.138 52.4255 148.841C52.3531 148.978 52.406 149.147 52.5439 149.22C52.5648 149.231 52.5871 149.239 52.6094 149.245L52.6108 149.243Z" fill="#DEDEDE"/>
</g>
<g style="mix-blend-mode:multiply">
<path d="M46.8849 152.767C46.7066 152.749 46.5547 152.613 46.5268 152.428C37.9891 95.7443 21.3594 77.5196 15.8951 71.5298L15.4326 71.0219C15.2835 70.8568 15.2974 70.6043 15.4618 70.4558C15.6276 70.3074 15.8812 70.3213 16.0303 70.485L16.4901 70.99C21.9961 77.0242 38.7498 95.3849 47.3224 152.308C47.3558 152.527 47.2039 152.731 46.9838 152.765C46.9504 152.77 46.9169 152.77 46.8835 152.767H46.8849Z" fill="#DEDEDE"/>
</g>
<g style="mix-blend-mode:multiply">
<path d="M39.3516 151.169C39.2485 151.194 39.1384 151.147 39.0869 151.048C23.3558 121.153 10.5729 114.209 6.3723 111.927L6.01702 111.732C5.90278 111.67 5.86098 111.526 5.92368 111.412C5.98637 111.298 6.13127 111.256 6.24551 111.319L6.5994 111.512C10.8307 113.811 23.7097 120.806 39.5062 150.829C39.5676 150.944 39.5216 151.087 39.4059 151.148C39.3878 151.158 39.3697 151.165 39.3502 151.169H39.3516Z" fill="#DEDEDE"/>
</g>
<g style="mix-blend-mode:multiply">
<path d="M277.259 183.106C277.098 183.145 276.924 183.07 276.843 182.918C252.056 135.812 231.914 124.87 225.294 121.274L224.734 120.969C224.553 120.87 224.488 120.643 224.588 120.464C224.688 120.283 224.915 120.218 225.095 120.318L225.652 120.622C232.32 124.245 252.612 135.268 277.505 182.573C277.601 182.755 277.53 182.98 277.347 183.076C277.319 183.091 277.29 183.101 277.261 183.108L277.259 183.106Z" fill="#DEDEDE"/>
</g>
<g style="mix-blend-mode:multiply">
<path d="M289.465 186.285C289.702 186.262 289.903 186.081 289.939 185.836C301.251 110.733 323.285 86.5841 330.525 78.649L331.138 77.9761C331.335 77.7582 331.318 77.4225 331.099 77.2254C330.881 77.0298 330.543 77.0464 330.346 77.2643L329.737 77.9344C322.442 85.9292 300.243 110.256 288.884 185.677C288.841 185.967 289.042 186.238 289.333 186.281C289.378 186.288 289.422 186.289 289.465 186.284V186.285Z" fill="#DEDEDE"/>
</g>
<g style="mix-blend-mode:multiply">
<path d="M309.92 185.061C310.056 185.093 310.202 185.032 310.271 184.902C331.114 145.292 348.051 136.09 353.617 133.066L354.088 132.81C354.24 132.726 354.296 132.536 354.212 132.385C354.128 132.234 353.938 132.178 353.786 132.262L353.318 132.517C347.711 135.562 330.647 144.832 309.716 184.61C309.635 184.763 309.695 184.952 309.849 185.032C309.872 185.045 309.897 185.053 309.922 185.06L309.92 185.061Z" fill="#DEDEDE"/>
</g>
<path d="M331.435 192.733H14.4658C14.4658 187.173 18.9911 182.667 24.5738 182.667H321.329C326.912 182.667 331.437 187.173 331.437 192.733H331.435Z" fill="#C8B5D1"/>
<path d="M170.08 78.4935V59.2476C170.08 58.1529 169.19 57.2663 168.091 57.2663C167.545 57.2663 167.017 57.4841 166.648 57.8851C165.3 59.3545 163.288 60.2078 161.083 59.9636C158.093 59.632 155.679 57.2344 155.341 54.2568C154.896 50.3247 157.972 46.9947 161.831 46.9947C163.744 46.9947 165.462 47.8161 166.656 49.1217C167.021 49.5213 167.55 49.7336 168.092 49.7336C169.192 49.7336 170.082 48.8456 170.082 47.7523V28.5063H132.679C125.614 28.5063 119.888 34.2103 119.888 41.2449V78.4935H139.213C140.313 78.4935 141.203 79.3801 141.203 80.4749C141.203 81.0188 140.984 81.546 140.581 81.9123C139.106 83.254 138.249 85.2576 138.494 87.454C138.827 90.4315 141.235 92.8361 144.225 93.1718C148.173 93.6158 151.517 90.5522 151.517 86.7089C151.517 84.8039 150.692 83.0931 149.381 81.904C148.98 81.5405 148.767 81.0132 148.767 80.4735C148.767 79.3788 149.657 78.4921 150.756 78.4921H170.082L170.08 78.4935Z" fill="#CDC6F2"/>
<path d="M169.763 78.4936V97.7395C169.763 98.8343 170.654 99.7209 171.752 99.7209C172.298 99.7209 172.826 99.503 173.196 99.102C174.543 97.6327 176.555 96.7794 178.76 97.0236C181.75 97.3552 184.165 99.7528 184.502 102.73C184.947 106.662 181.871 109.992 178.012 109.992C176.099 109.992 174.381 109.171 173.187 107.865C172.822 107.466 172.293 107.254 171.751 107.254C170.652 107.254 169.761 108.14 169.761 109.235V128.481H207.164C214.229 128.481 219.955 122.777 219.955 115.742V78.4936H200.63C199.531 78.4936 198.64 77.6056 198.64 76.5123C198.64 75.9684 198.859 75.4411 199.262 75.0748C200.737 73.7331 201.594 71.7296 201.349 69.5332C201.016 66.5556 198.608 64.1511 195.618 63.8153C191.67 63.3713 188.326 66.4349 188.326 70.2783C188.326 72.1833 189.151 73.8941 190.462 75.0832C190.863 75.4467 191.076 75.9739 191.076 76.5137C191.076 77.6084 190.185 78.495 189.087 78.495H169.761L169.763 78.4936Z" fill="#ACB0F0"/>
<path d="M187.099 61.3746H206.425C207.524 61.3746 208.414 60.4866 208.414 59.3933C208.414 58.8494 208.195 58.3222 207.793 57.9559C206.317 56.6142 205.46 54.6106 205.706 52.4142C206.039 49.4367 208.446 47.0321 211.436 46.6964C215.384 46.2524 218.728 49.3159 218.728 53.1593C218.728 55.0643 217.903 56.7751 216.592 57.9642C216.191 58.3277 215.978 58.855 215.978 59.3947C215.978 60.4894 216.87 61.376 217.968 61.376H237.293V24.126C237.293 17.09 231.566 11.3875 224.502 11.3875H187.099V30.6334C187.099 31.7281 186.209 32.6147 185.109 32.6147C184.563 32.6147 184.035 32.3969 183.666 31.9959C182.319 30.5265 180.307 29.6732 178.101 29.9174C175.112 30.249 172.697 32.6466 172.36 35.6242C171.914 39.5563 174.99 42.8863 178.85 42.8863C180.763 42.8863 182.48 42.0649 183.674 40.7593C184.039 40.3597 184.569 40.1474 185.111 40.1474C186.21 40.1474 187.1 41.034 187.1 42.1287V61.3746H187.099Z" fill="#FCB4CA"/>
<path d="M170.043 78.5087H150.717C149.618 78.5087 148.728 79.3953 148.728 80.49C148.728 81.0339 148.946 81.5612 149.349 81.9275C150.824 83.2692 151.681 85.2727 151.436 87.4691C151.103 90.4467 148.696 92.8512 145.706 93.187C141.757 93.631 138.414 90.5674 138.414 86.724C138.414 84.819 139.238 83.1082 140.549 81.9192C140.951 81.5556 141.164 81.0284 141.164 80.4887C141.164 79.3939 140.273 78.5073 139.174 78.5073H119.849V115.756C119.849 122.792 125.576 128.495 132.64 128.495H170.043V109.249C170.043 108.154 170.934 107.267 172.032 107.267C172.578 107.267 173.107 107.485 173.476 107.886C174.823 109.355 176.835 110.209 179.04 109.965C182.03 109.633 184.445 107.235 184.782 104.258C185.228 100.326 182.151 96.9957 178.292 96.9957C176.379 96.9957 174.661 97.817 173.467 99.1227C173.102 99.5223 172.573 99.7346 172.031 99.7346C170.932 99.7346 170.041 98.848 170.041 97.7532V78.5073L170.043 78.5087Z" fill="#E4FCFE"/>
<path d="M85.3631 182.637H78.1392L88.1078 168.825H106.408L85.3631 182.637Z" fill="#6875A2"/>
<path d="M186.686 182.637H193.91L183.942 168.825H165.642L186.686 182.637Z" fill="#6875A2"/>
<path d="M188.661 170.672H89.4037C83.449 170.672 77.812 167.533 74.6925 162.483L49.036 120.93C46.9532 117.557 48.0106 113.141 51.3976 111.066C54.7859 108.992 59.2192 110.045 61.3021 113.418L86.9585 154.971C87.4768 155.81 88.4131 156.332 89.4037 156.332H188.661C192.637 156.332 195.859 159.543 195.859 163.501C195.859 167.46 192.636 170.67 188.661 170.67V170.672Z" fill="#ED90AD"/>
<path d="M182.574 159.003C181.438 158.438 179.275 157.835 176.161 157.98C174.997 158.14 173.527 158.34 171.846 158.562C171.008 158.673 170.12 158.789 169.188 158.91L170.68 153.358C171.683 153.453 172.625 153.542 173.484 153.623C175.318 153.797 177.167 153.74 178.978 153.414C179.524 153.315 179.991 153.203 180.239 153.081C181.136 152.64 184.239 149.453 186.915 147.997C187.24 147.861 187.762 144.569 188.521 145.063C188.687 145.362 189.14 151.104 188.519 151.746C187.897 152.389 186.351 153.916 186.004 155.627C186.023 155.734 188.803 155.734 188.803 155.734L188.814 158.22C188.814 158.22 186.345 158.509 185.601 158.618C184.857 158.728 183.722 159.574 182.574 159.003Z" fill="#FF8762"/>
<path d="M186.946 147.978C187.067 149.017 187.295 150.157 187.12 150.556C186.883 151.094 182.465 154.639 181.375 158.535C181.853 158.682 182.253 158.844 182.572 159.003C183.722 159.574 184.856 158.728 185.6 158.618C186.345 158.509 188.813 158.22 188.813 158.22L188.801 155.734C188.801 155.734 186.022 155.734 186.002 155.627C186.349 153.917 187.897 152.39 188.517 151.746C189.139 151.104 188.686 145.362 188.52 145.062C187.783 144.582 187.293 147.674 186.944 147.976L186.946 147.978Z" fill="#2B1710"/>
<path d="M100.243 117.173C100.532 113.576 100.098 112.28 101.833 110.123C103.566 107.965 103.856 106.814 103.856 106.814C105.012 107.532 103.567 109.836 103.567 110.554C103.567 111.273 104.579 111.417 106.312 109.979C108.045 108.54 110.357 105.951 111.08 106.094C111.801 106.238 107.468 111.022 108.335 110.697C109.202 110.374 111.694 106.921 112.236 106.921C112.778 106.921 112.778 108.107 112.778 108.107C112.778 109.618 112.127 112.855 110.286 114.474C108.444 116.093 104.109 119.006 103.243 120.085C102.376 121.165 100.245 117.171 100.245 117.171L100.243 117.173Z" fill="#FF8762"/>
<path d="M82.329 110.482C87.53 111.705 92.0092 114.871 93.7424 118.611C95.4756 122.352 103.133 137.315 103.133 137.315C103.133 137.315 93.8873 137.459 93.4526 137.459C93.0179 137.459 82.3276 110.482 82.3276 110.482H82.329Z" fill="#88D3D9"/>
<path d="M99.4491 134.654L106.601 134.006C106.601 134.006 131.521 122.136 136.722 122.136C141.923 122.136 165.544 146.091 165.544 146.091L148.858 147.385C148.858 147.385 138.889 137.674 138.238 137.674C137.588 137.674 122.635 145.228 122.635 145.228C122.635 145.228 104.431 146.522 102.698 146.522C100.965 146.522 94.6801 146.091 94.0295 145.443C93.3788 144.795 89.9125 138.321 89.9125 137.673C89.9125 137.025 89.0459 135.515 90.779 135.299C92.5122 135.082 99.4478 134.651 99.4478 134.651L99.4491 134.654Z" fill="#666BCC"/>
<path d="M81.2451 143.718C83.8463 152.566 86.4461 156.236 93.8149 157.314C101.182 158.394 176.814 159.688 176.814 159.688V146.524L103.133 140.913C95.7654 136.596 95.1148 136.381 95.1148 136.381L81.2451 143.718Z" fill="#7F84DB"/>
<path d="M99.4488 134.654L80.3782 146.739C79.2943 141.559 75.1772 135.3 68.4591 127.532C61.7409 119.762 63.6914 111.13 68.5134 109.888L78.7523 109.78C81.4607 110.482 82.3273 110.482 82.3273 110.482C85.1445 111.777 92.2959 118.684 92.5133 121.921C92.7306 125.158 96.4144 132.065 99.4474 134.654H99.4488Z" fill="#A8DFE2"/>
<path d="M84.1106 100.857C84.9215 99.5252 84.0688 97.9504 82.2883 97.4745C80.5077 96.9972 78.8581 96.2202 79.4419 94.0474L69.7004 89.5547C66.5503 89.9238 63.6523 93.7796 64.1678 96.6656C64.6833 99.5516 63.8641 100.462 62.946 101.398C62.0278 102.335 62.3079 103.957 63.5437 105.376C64.7809 106.794 63.853 109.272 63.853 109.272L85.2573 103.52C84.2068 103.377 83.2984 102.189 84.1092 100.857H84.1106Z" fill="#2B1710"/>
<path d="M72.6442 103.958C69.1361 105.587 66.0709 102.751 66.4137 99.7776C64.6234 94.3581 65.5109 88.31 74.5711 89.0315C78.819 88.439 81.8702 93.4271 78.8706 95.7442C75.4502 100.917 72.6456 103.958 72.6456 103.958H72.6442Z" fill="#2B1710"/>
<path d="M76.5121 105.182C76.671 106.786 76.299 110.162 78.7538 109.78C82.3554 113.07 82.9447 115.22 81.8956 115.877C79.1774 117.578 68.6905 110.632 68.5136 109.888C68.4787 109.761 70.9364 109.905 71.2903 108.54C71.6442 107.176 71.1509 104.083 69.8023 100.123C71.4881 100.116 71.6957 98.7218 71.1482 96.5712C70.6006 94.4205 70.6995 90.7229 75.0214 90.1443C77.114 91.64 78.2787 92.6307 78.8263 95.1601C79.3738 97.6895 80.1318 99.3836 80.1554 100.657C80.1791 101.917 79.4839 104.451 76.5121 105.181V105.182Z" fill="#FF8762"/>
<path d="M67.945 101.533C68.1359 102.238 68.8646 102.655 69.5723 102.465C70.2801 102.275 70.6994 101.549 70.5086 100.845C70.3177 100.14 69.589 99.722 68.8813 99.9121C68.1735 100.102 67.7541 100.828 67.945 101.533Z" fill="#FF8762"/>
<g style="mix-blend-mode:multiply">
<path d="M69.6812 101.778C69.7132 101.77 69.7397 101.742 69.7439 101.708C69.7508 101.66 69.7174 101.617 69.67 101.61C69.5474 101.592 69.4666 101.541 69.4374 101.459C69.4067 101.376 69.4332 101.268 69.5042 101.189C69.5809 101.103 69.6895 101.068 69.8038 101.094C69.8344 101.101 69.8651 101.092 69.8874 101.069C69.9083 101.047 69.9152 101.014 69.9069 100.985C69.8107 100.685 69.5377 100.492 69.1935 100.481C68.8369 100.469 68.529 100.657 68.4091 100.96C68.391 101.004 68.4133 101.054 68.4579 101.072C68.5025 101.09 68.5526 101.068 68.5708 101.024C68.6836 100.739 68.9734 100.646 69.1894 100.653C69.3649 100.659 69.5739 100.734 69.6881 100.917C69.5697 100.928 69.4596 100.983 69.3774 101.075C69.2646 101.203 69.2256 101.376 69.2785 101.519C69.3092 101.601 69.3969 101.744 69.6491 101.781C69.6617 101.783 69.6728 101.781 69.684 101.78L69.6812 101.778Z" fill="#E0B3A8"/>
</g>
<g style="mix-blend-mode:multiply">
<path d="M76.2541 105.248C76.2471 105.25 76.2388 105.251 76.2304 105.251C73.9413 105.221 71.7567 103.897 70.6631 101.881C70.6408 101.839 70.6561 101.788 70.6979 101.766C70.7383 101.744 70.7912 101.759 70.8135 101.8C71.878 103.764 74.0068 105.053 76.2346 105.082C76.282 105.082 76.3196 105.121 76.3182 105.168C76.3182 105.207 76.2917 105.239 76.2555 105.248H76.2541Z" fill="#E0B3A8"/>
</g>
<path d="M71.6888 96.6183C71.661 96.6266 71.6289 96.6183 71.6066 96.5961C71.5732 96.5628 71.5732 96.5087 71.6066 96.4768C72.5108 95.5805 73.7731 95.1906 74.3402 95.2086C74.3875 95.21 74.4237 95.2488 74.4224 95.296C74.421 95.3432 74.382 95.3793 74.3346 95.3779C73.8692 95.3626 72.6265 95.7053 71.7264 96.5975C71.7153 96.6086 71.7027 96.6155 71.6888 96.6197V96.6183Z" fill="#2B1710"/>
<path d="M78.4123 94.9021C78.3872 94.909 78.3594 94.9035 78.3371 94.8868C78.319 94.8729 77.8731 94.5386 76.8519 94.9548C76.8087 94.9728 76.7585 94.952 76.7404 94.909C76.7223 94.866 76.7432 94.8161 76.7864 94.798C77.8787 94.354 78.3858 94.712 78.4402 94.7536C78.4778 94.7828 78.4834 94.8355 78.4541 94.8729C78.443 94.8882 78.4262 94.8979 78.4095 94.9021H78.4123Z" fill="#2B1710"/>
<path d="M77.6851 99.7639C77.6614 99.7708 77.6335 99.7666 77.6126 99.75C77.575 99.7222 77.5666 99.6695 77.5945 99.6321C77.9275 99.1811 78.2897 98.6414 78.3524 98.4693C78.2758 98.4735 78.117 98.5123 77.9957 98.5429C77.6976 98.6164 77.3604 98.701 77.1319 98.6428C76.6262 98.5151 76.5496 96.5532 76.7014 95.582C76.7084 95.5362 76.7516 95.5043 76.799 95.5112C76.8449 95.5181 76.877 95.5612 76.87 95.6083C76.6931 96.7391 76.87 98.4014 77.1737 98.479C77.3604 98.5262 77.6906 98.4444 77.9553 98.3791C78.2869 98.2973 78.4876 98.2473 78.5294 98.3972C78.5712 98.5526 78.1197 99.2089 77.7324 99.732C77.7199 99.7486 77.7046 99.7583 77.6865 99.7639H77.6851Z" fill="#2B1710"/>
<path d="M74.4486 97.6923C74.5796 98.1779 74.4639 98.6316 74.1895 98.7051C73.915 98.7787 73.5848 98.4457 73.4538 97.9601C73.3229 97.4744 73.4385 97.0207 73.713 96.9472C73.9874 96.8736 74.3176 97.2066 74.4486 97.6923Z" fill="#2B1710"/>
<g style="mix-blend-mode:multiply">
<path d="M74.1562 99.0339C73.9848 99.0797 73.5877 99.1075 73.2965 98.5192C73.2868 98.4984 73.2951 98.4734 73.316 98.4623C73.3369 98.4526 73.362 98.4609 73.3732 98.4817C73.656 99.0547 74.0266 98.9937 74.1743 98.941C74.1966 98.9326 74.2203 98.9437 74.2286 98.9659C74.237 98.9881 74.2258 99.0117 74.2035 99.0201C74.191 99.0242 74.1757 99.0298 74.1576 99.0353L74.1562 99.0339Z" fill="#E0B3A8"/>
</g>
<path d="M78.2455 96.7863C78.3765 97.2719 78.2608 97.7256 77.9863 97.7991C77.7119 97.8727 77.3817 97.5397 77.2507 97.054C77.1197 96.5684 77.2354 96.1147 77.5099 96.0412C77.7843 95.9676 78.1145 96.3006 78.2455 96.7863Z" fill="#2B1710"/>
<g style="mix-blend-mode:multiply">
<path d="M77.9525 98.1279C77.7812 98.1737 77.3841 98.2015 77.0929 97.6132C77.0832 97.5924 77.0915 97.5674 77.1124 97.5563C77.1333 97.5466 77.1584 97.5549 77.1695 97.5757C77.4524 98.1487 77.823 98.0877 77.9707 98.035C77.993 98.0266 78.0166 98.0377 78.025 98.0599C78.0334 98.0821 78.0222 98.1057 77.9999 98.1141C77.9874 98.1182 77.9721 98.1238 77.9539 98.1293L77.9525 98.1279Z" fill="#E0B3A8"/>
</g>
<path d="M73.8106 99.9705C73.6852 100.285 73.6197 100.555 73.6615 100.571C73.7033 100.588 73.8398 100.346 73.9652 100.032C74.0906 99.7166 74.1561 99.4474 74.1143 99.4307C74.0711 99.4141 73.936 99.6555 73.8106 99.9705Z" fill="#FF7E57"/>
<path d="M74.3316 99.8997C74.2062 100.215 74.1407 100.484 74.1825 100.5C74.2257 100.517 74.3608 100.276 74.4862 99.9607C74.6116 99.6458 74.6771 99.3766 74.6353 99.3599C74.5921 99.3433 74.457 99.5847 74.3316 99.8997Z" fill="#FF7E57"/>
<path d="M74.9029 99.804C74.7775 100.119 74.712 100.388 74.7538 100.405C74.797 100.421 74.9321 100.18 75.0575 99.865C75.1829 99.5501 75.2484 99.2809 75.2066 99.2642C75.1634 99.2476 75.0283 99.489 74.9029 99.804Z" fill="#FF7E57"/>
<path d="M70.5825 102.705C70.6716 103.035 70.4752 103.374 70.145 103.463C69.8134 103.551 69.4735 103.356 69.3843 103.027C69.2951 102.697 69.4916 102.358 69.8218 102.269C70.1534 102.181 70.4933 102.376 70.5825 102.705Z" fill="white"/>
<g style="mix-blend-mode:multiply">
<path d="M75.2222 101.563C76.9094 100.245 78.7526 99.7804 78.7763 100.494C79.3294 102.096 77.7565 104.367 75.2222 101.563Z" fill="#E0B3A8"/>
</g>
<g style="mix-blend-mode:multiply">
<path d="M77.8427 103.561C78.0419 103.507 78.2858 103.414 78.5142 103.251C78.5449 103.228 78.5519 103.187 78.5296 103.156C78.5073 103.126 78.4655 103.119 78.4348 103.141C77.9611 103.478 77.408 103.498 77.4024 103.498C77.3648 103.498 77.3356 103.529 77.337 103.567C77.337 103.604 77.369 103.633 77.4066 103.632C77.4206 103.632 77.5989 103.625 77.8413 103.56L77.8427 103.561Z" fill="#E0B3A8"/>
</g>
<path d="M75.2222 101.563L78.7763 100.494C79.2096 102.095 77.0696 103.473 75.2222 101.563Z" fill="#2B1710"/>
<path d="M78.4462 101.889C77.783 101.337 77.0139 101.233 77.0139 101.233L75.8687 101.369L75.2236 101.563C76.458 102.838 77.8053 102.635 78.4462 101.889Z" fill="#7D2727"/>
<path d="M78.7778 100.494L75.2236 101.563C76.2142 101.914 78.4629 101.483 78.7778 100.494Z" fill="white"/>
<path d="M75.0214 90.1456C75.725 93.6851 70.9879 95.4985 70.0503 95.5471C69.1126 95.5957 70.0364 89.8528 75.0214 90.1456Z" fill="#2B1710"/>
<path d="M86.6812 103.169C86.6673 103.173 86.652 103.174 86.6366 103.176C86.241 103.19 85.5875 102.833 85.281 102.299C85.0748 101.939 84.9299 101.354 85.4106 100.61C85.8091 99.9928 85.8829 99.2865 85.6112 98.6719C85.2378 97.8269 84.2542 97.2261 82.8401 96.9805C79.5047 96.4019 79.1424 94.2874 79.2483 92.0882C79.2539 91.98 79.3472 91.8953 79.4545 91.9009C79.5632 91.9064 79.6468 91.998 79.6412 92.1062C79.5256 94.5066 80.0313 96.0939 82.9069 96.5934C84.4562 96.8612 85.5443 97.5438 85.9721 98.5137C86.2967 99.2504 86.2131 100.091 85.7422 100.822C85.4426 101.287 85.4022 101.719 85.6238 102.105C85.8829 102.558 86.4193 102.791 86.6227 102.784C86.7314 102.78 86.8233 102.865 86.8275 102.973C86.8303 103.066 86.769 103.147 86.6812 103.17V103.169Z" fill="#2B1710"/>
<path d="M86.7998 99.4766C86.7552 99.4891 86.7065 99.4849 86.6619 99.4641C86.5643 99.4169 86.5225 99.299 86.5713 99.2019C86.8249 98.6843 86.8207 98.1793 86.5602 97.7006C86.0795 96.814 84.7768 96.1161 83.2415 95.9218C80.7448 95.6069 80.0161 94.6592 79.6009 93.1302C79.5731 93.0261 79.6344 92.9179 79.7403 92.8888C79.8462 92.861 79.9534 92.9221 79.9827 93.0275C80.3714 94.4608 80.9886 95.2406 83.2916 95.5319C84.9482 95.7414 86.3679 96.5184 86.9071 97.5133C87.2275 98.1016 87.2331 98.7454 86.9252 99.3739C86.8987 99.4266 86.8527 99.4627 86.7998 99.478V99.4766Z" fill="#2B1710"/>
<path d="M62.3092 109.519C62.2033 109.547 62.096 109.486 62.0668 109.38C62.0389 109.276 62.1002 109.168 62.2061 109.139C62.6812 109.011 63.0365 108.535 63.1577 107.864C63.3082 107.029 63.0574 105.901 62.1587 105.267C61.2907 104.653 60.7864 103.835 60.7376 102.965C60.6944 102.185 61.026 101.44 61.6725 100.868C61.8912 100.674 62.1309 100.484 62.3775 100.288C63.5812 99.3323 64.8268 98.3444 64.4158 96.3616C64.3935 96.2562 64.452 96.1535 64.569 96.1299C64.6749 96.1077 64.7794 96.1757 64.8017 96.2826C65.2629 98.5025 63.8599 99.6153 62.6241 100.596C62.3844 100.786 62.149 100.972 61.9358 101.162C61.3813 101.654 61.0971 102.286 61.1333 102.944C61.1751 103.693 61.6209 104.405 62.3886 104.947C63.428 105.683 63.7192 106.977 63.5478 107.935C63.4001 108.759 62.9376 109.351 62.312 109.519H62.3092Z" fill="#2B1710"/>
<path d="M61.0597 105.2C61.0249 105.21 60.9886 105.21 60.951 105.199C60.0398 104.925 59.3934 104.119 59.2624 103.095C59.1315 102.073 59.5216 100.66 61.0068 99.761C63.4045 98.3111 64.1304 97.2608 64.3854 94.8771C64.3965 94.7688 64.4926 94.6911 64.6027 94.7022C64.7114 94.7133 64.7894 94.8105 64.7782 94.9187C64.5107 97.4245 63.711 98.5872 61.213 100.097C59.888 100.897 59.5397 102.145 59.6539 103.045C59.7668 103.926 60.2934 104.589 61.0653 104.823C61.1698 104.855 61.2283 104.964 61.1976 105.067C61.1767 105.135 61.1238 105.182 61.0597 105.2Z" fill="#2B1710"/>
<path d="M71.5257 100.428C71.176 100.523 70.6075 100.448 69.7131 99.8151C69.6239 99.7526 69.603 99.6292 69.6671 99.5417C69.7298 99.4529 69.8538 99.4321 69.9415 99.496C70.7148 100.043 71.3376 100.211 71.6051 99.9497C72.0063 99.557 71.736 98.1751 70.4417 96.295C70.3804 96.2062 70.4027 96.0827 70.4933 96.0217C70.5838 95.9606 70.7064 95.9828 70.7677 96.073C72.0774 97.978 72.5162 99.6083 71.8823 100.229C71.8043 100.305 71.6887 100.385 71.5271 100.428H71.5257Z" fill="#2B1710"/>
<path d="M73.603 94.193C72.9663 94.3637 72.2391 94.3789 71.4616 94.2263C71.3543 94.2055 71.2861 94.1014 71.307 93.996C71.3279 93.8891 71.4338 93.8211 71.5383 93.842C72.9844 94.1264 74.2314 93.7837 74.9559 92.9012C75.5577 92.1686 75.7138 91.1391 75.3543 90.2803C75.3125 90.1804 75.3599 90.0652 75.4602 90.0236C75.5563 89.9833 75.6762 90.0291 75.718 90.129C76.1387 91.1364 75.9632 92.2935 75.261 93.1496C74.8402 93.6616 74.2718 94.014 73.6016 94.1944L73.603 94.193Z" fill="#2B1710"/>
<path d="M66.0753 111.778C72.3602 112.641 84.062 129.691 85.7952 132.713C93.5973 122.354 99.0142 115.232 99.0142 115.232L105.009 119.62C104.792 120.483 91.2121 145.014 86.2285 146.742C81.2449 148.468 53.2882 117.39 66.0739 111.779L66.0753 111.778Z" fill="#88D3D9"/>
<path d="M90.021 164.245C89.4735 164.245 88.997 163.839 88.9245 163.284C88.8451 162.681 89.2728 162.127 89.8803 162.048C90.5072 161.966 91.8754 161.375 93.0262 159.673C94.2119 157.919 95.332 154.713 93.936 149.393C93.7814 148.803 94.1352 148.201 94.7274 148.047C95.3223 147.893 95.9242 148.247 96.0788 148.835C97.6852 154.953 96.3045 158.775 94.8639 160.905C93.3773 163.104 91.463 164.067 90.1673 164.235C90.1185 164.242 90.0712 164.245 90.0224 164.245H90.021Z" fill="#6875A2"/>
<path d="M107.432 144.798H76.1524C74.9359 144.798 73.9497 145.78 73.9497 146.991V148.215C73.9497 149.427 74.9359 150.409 76.1524 150.409H107.432C108.648 150.409 109.635 149.427 109.635 148.215V146.991C109.635 145.78 108.648 144.798 107.432 144.798Z" fill="#FCB4CA"/>
<path d="M269.214 153.712H264.772L260.498 182.415H264.941L269.214 153.712Z" fill="#6875A2"/>
<path d="M288.188 153.712H292.631L296.904 182.415H292.462L288.188 153.712Z" fill="#6875A2"/>
<path d="M264.063 156.127H244.707L246.571 147.025L271.951 134.887L283.709 106.898L300.924 106.686L294.033 145.168L291.022 152.308L264.063 156.127Z" fill="#D97392"/>
<path d="M264.063 156.127C264.089 156.127 264.115 156.127 264.143 156.127L288.758 155.405C292.727 155.289 296.076 152.373 296.723 148.472L303.137 109.762C303.378 108.304 302.388 106.926 300.923 106.686C299.459 106.446 298.076 107.433 297.835 108.891L291.42 147.6C291.192 148.982 290.005 150.015 288.6 150.056L263.986 150.778C262.502 150.821 261.335 152.054 261.379 153.532C261.422 154.982 262.616 156.129 264.064 156.129L264.063 156.127Z" fill="#ED90AD"/>
<path d="M229.604 168.253L226.625 176.76C222.203 178.156 217.208 180.175 215.967 182.107C228.624 180.557 233.168 182.554 233.168 182.554C233.724 180.791 233.467 178.547 233.204 177.437C232.941 176.327 232.758 168.995 232.758 168.995L229.605 168.253H229.604Z" fill="#FF8762"/>
<path d="M227.135 179.486C225.736 178.881 226.144 177.802 225.807 177.025C221.605 178.404 217.131 180.295 215.965 182.109C226.43 182.517 233.166 182.555 233.166 182.555C233.63 181.087 233.528 179.286 233.329 178.084C232.282 178.966 228.927 180.261 227.134 179.485L227.135 179.486Z" fill="#2B1710"/>
<path d="M224.779 179.495C224.739 179.488 224.708 179.453 224.708 179.411C224.708 179.393 224.693 177.587 223.842 177.347C223.796 177.334 223.769 177.287 223.783 177.241C223.796 177.196 223.843 177.169 223.889 177.183C224.864 177.458 224.879 179.331 224.881 179.41C224.881 179.457 224.843 179.495 224.796 179.495C224.79 179.495 224.786 179.495 224.781 179.495H224.779Z" fill="#4F3025"/>
<path d="M222.527 180.283C222.487 180.276 222.456 180.241 222.456 180.2C222.456 180.181 222.441 178.375 221.59 178.135C221.544 178.122 221.517 178.075 221.531 178.03C221.544 177.984 221.591 177.957 221.637 177.971C222.612 178.246 222.628 180.119 222.629 180.198C222.629 180.245 222.591 180.283 222.544 180.283C222.538 180.283 222.534 180.283 222.529 180.283H222.527Z" fill="#4F3025"/>
<path d="M217.183 181.54C217.142 181.533 217.112 181.498 217.112 181.455C217.112 181.408 217.151 181.371 217.198 181.371L232.325 181.476C232.372 181.476 232.41 181.515 232.41 181.562C232.41 181.609 232.371 181.647 232.323 181.647L217.197 181.541C217.197 181.541 217.187 181.541 217.183 181.541V181.54Z" fill="#4F3025"/>
<path d="M283.613 144.835C283.326 145.501 282.083 150.262 277.782 151.594C273.48 152.927 247.479 151.689 247.383 152.165C247.287 156.258 233.809 176.727 233.809 176.727C228.647 177.203 225.779 174.823 225.779 174.823L231.515 159.115C231.515 159.115 230.75 139.219 232.758 137.029C234.766 134.84 260.001 133.888 260.001 133.888L283.613 144.835Z" fill="#3A477C"/>
<path d="M231.635 102.078C233.236 104.184 235.208 104.72 235.256 104.72C235.305 104.72 235.638 102.601 235.567 102.317C235.496 102.031 233.632 100.068 233.632 100.068L231.637 102.078H231.635Z" fill="#D67152"/>
<path d="M231.252 98.1877C231.181 98.2585 229.603 100.234 229.746 100.473C229.89 100.712 230.558 102.496 231.036 102.735C231.514 102.973 231.825 102.329 231.825 102.329C232.78 102.615 233.426 101.924 233.426 101.924C233.426 101.924 235.768 102.353 235.958 101.901C236.149 101.448 236.293 100.164 236.078 99.664C235.864 99.1645 234.429 97.974 234.167 97.8311C233.903 97.6882 232.853 97.5217 232.613 97.5217C232.374 97.5217 231.251 98.1877 231.251 98.1877H231.252Z" fill="#EB7C5A"/>
<path d="M243.56 107.803C243.56 107.803 239.306 103.281 238.828 102.424C238.35 101.566 237.251 97.9976 236.868 97.5203C236.485 97.043 233.523 96.0454 233.523 96.0454L230.369 97.1401L228.313 98.9494C228.6 99.5683 230.416 98.8065 230.846 98.5693C231.277 98.3306 232.233 98.1891 232.949 98.1891C233.665 98.1891 235.243 100.046 235.004 100.807C234.764 101.569 233.905 100.331 232.518 100.093C231.132 99.8541 230.845 100.902 231.85 101.33C232.853 101.759 233.81 102.472 234.048 103.806C234.286 105.139 235.004 106.234 235.865 106.567C236.726 106.9 239.115 112.422 239.115 112.422C239.115 112.422 242.27 112.136 242.413 111.47C242.557 110.804 243.56 107.804 243.56 107.804V107.803Z" fill="#FF8762"/>
<path d="M280.077 98.6636C285.048 98.4735 287.628 99.3296 290.687 107.517C293.747 115.705 294.99 130.937 293.46 132.459C291.93 133.982 289.158 134.172 289.158 134.172C288.871 138.075 286.29 145.787 284.187 146.643C275.487 146.643 259.811 134.458 259.524 134.172C259.237 133.315 259.237 127.508 259.237 127.508L251.78 128.746C251.78 128.746 248.435 129.032 246.331 126.652C244.229 124.273 238.302 111.516 238.302 111.516C241.169 110.564 243.56 107.803 243.56 107.803C243.56 107.803 250.826 116.275 253.597 116.466C256.369 116.657 260.192 108.375 263.061 105.519C265.928 102.664 270.04 101.687 270.04 101.687L274.055 101.235C274.055 101.235 279.217 98.3791 280.078 98.6636H280.077Z" fill="white"/>
<path d="M246.045 117.037C252.975 124.224 251.685 130.032 251.685 130.032C251.685 130.032 265.45 132.126 265.45 131.984C265.307 128.557 260.288 113.658 254.409 113.278C250.107 114.23 246.044 117.038 246.044 117.038L246.045 117.037Z" fill="#F0E2C9"/>
<path d="M281.056 88.0728C282.657 85.6211 283.207 81.6474 280.244 80.7899C278.069 78.8141 274.126 78.9098 272.309 79.1957C270.492 79.4815 270.207 79.0056 270.014 79.5051C269.824 80.0046 270.014 80.6706 270.014 80.6706C268.533 82.2412 269.011 84.9551 269.273 85.7405C269.535 86.5258 269.537 89.2147 269.226 90.4524C268.915 91.69 268.986 96.5449 269.369 96.9264C269.752 97.308 271.902 97.4023 271.902 97.4023C271.902 97.4023 275.105 97.9976 275.607 97.9504C276.108 97.9032 278.236 96.4755 278.236 96.4755L279.097 93.7865L279.378 91.8648C279.378 91.8648 280.054 89.8599 280.101 89.6934C280.149 89.5269 280.962 88.0756 280.962 88.0756H281.059L281.056 88.0728Z" fill="#2B1710"/>
<path d="M279.599 88.7152C280.745 86.6922 282.228 88.4765 281.844 90.3094C281.463 92.1423 279.431 91.9758 279.431 91.9758C279.097 94.8798 279.646 98.4249 280.076 98.6635C277.734 99.7818 276.993 101.092 275.321 103.518C273.648 105.946 270.398 106.374 270.159 105.898C269.921 105.422 269.371 103.47 270.04 101.685C272.095 100.471 272.095 99.8054 272.071 99.4724C272.047 99.1394 271.904 97.4023 271.904 97.4023C271.904 97.4023 275.656 96.9028 276.97 96.284C278.283 95.6651 278.905 93.262 279.097 92.0951C279.289 90.9282 279.599 88.7152 279.599 88.7152Z" fill="#FF8762"/>
<path d="M271.043 80.9092C271.808 81.9082 275.584 81.4808 276.014 81.5752C276.445 81.6709 276.635 82.2412 276.492 82.3841C276.11 82.86 276.11 84.3363 277.257 84.3835C277.4 84.9551 278.118 84.8122 277.926 85.2881C277.735 85.764 276.635 87.6676 276.683 87.9535C276.73 88.2393 277.639 89.5713 277.639 89.5713C277.639 90.7132 276.061 93.0941 274.819 93.4271C273.576 93.7601 272.716 93.6658 272.573 93.8559C271.855 94.7605 269.513 94.5219 269.275 93.5229C269.037 92.5239 268.941 90.8575 268.988 90.2387C269.035 89.6199 269.131 87.1446 268.988 86.0027C268.844 84.8608 269.179 81.0993 271.043 80.9092Z" fill="#FF8762"/>
<path d="M270.935 92.3559C271.64 91.7843 272.309 91.5831 273.123 92.4988C273.935 93.4146 275.345 92.6292 275.345 92.6292C275.105 93.1052 273.326 94.902 272.549 94.4621C271.773 94.0223 270.948 92.9872 270.912 93.0108C270.47 93.7601 269.394 94.3192 268.844 93.9987C268.294 93.6768 267.721 92.4641 267.721 92.4641C267.721 92.4641 268.557 93.2134 268.653 93.0233C268.749 92.8332 269.525 91.3222 270.935 92.3573V92.3559Z" fill="#2B1710"/>
<g style="mix-blend-mode:multiply">
<path d="M271.241 94.0058C271.352 94.0058 271.469 93.9975 271.585 93.9753C271.631 93.967 271.661 93.9212 271.652 93.8754C271.643 93.8296 271.597 93.7991 271.551 93.8088C271.09 93.899 270.583 93.7408 270.577 93.7394C270.533 93.7256 270.484 93.7505 270.47 93.7949C270.456 93.8393 270.481 93.8879 270.526 93.9018C270.543 93.9073 270.863 94.0072 271.241 94.0072V94.0058Z" fill="#E0B3A8"/>
</g>
<path d="M271.235 91.6193C269.441 90.9367 269.41 90.8132 269.399 90.7674C269.376 90.6814 269.478 90.5065 270.07 89.6005C270.371 89.1399 270.713 88.6196 270.754 88.4836C270.812 88.3018 270.667 87.6899 270.58 87.325C270.525 87.0905 270.495 86.9657 270.495 86.9074C270.495 86.8602 270.533 86.8228 270.58 86.8228C270.628 86.8228 270.665 86.8602 270.665 86.9074C270.665 86.949 270.706 87.1197 270.746 87.2862C270.878 87.8453 270.983 88.3254 270.917 88.5363C270.871 88.682 270.608 89.0899 270.214 89.6949C269.953 90.0931 269.633 90.5829 269.576 90.723C269.73 90.834 270.548 91.1767 271.298 91.4611C271.342 91.4778 271.365 91.5277 271.347 91.5707C271.334 91.604 271.301 91.6249 271.267 91.6249C271.257 91.6249 271.246 91.6235 271.236 91.6193H271.235Z" fill="#2B1710"/>
<g style="mix-blend-mode:multiply">
<path d="M273.283 89.6851C273.362 89.6851 273.47 89.6698 273.58 89.6074C273.758 89.5061 273.886 89.3146 273.96 89.0399C273.973 88.9941 273.945 88.9484 273.9 88.9359C273.854 88.9234 273.808 88.9511 273.796 88.9955C273.734 89.2258 273.633 89.3813 273.495 89.459C273.346 89.5436 273.201 89.5061 273.199 89.5061C273.153 89.4936 273.107 89.52 273.093 89.5644C273.081 89.6102 273.107 89.6574 273.152 89.6698C273.156 89.6698 273.206 89.6851 273.28 89.6851H273.283Z" fill="#E0B3A8"/>
</g>
<g style="mix-blend-mode:multiply">
<path d="M279.965 91.3071C279.965 91.3071 279.966 91.3071 279.968 91.3071C280.529 91.2905 280.79 90.9339 280.801 90.5884C280.812 90.1957 280.512 89.7531 279.934 89.6588C280.001 89.5256 280.168 89.2703 280.418 89.1204C280.614 89.0025 280.825 88.9747 281.042 89.0358C281.088 89.0483 281.135 89.0219 281.148 88.9775C281.16 88.9317 281.134 88.8845 281.089 88.872C280.326 88.657 279.881 89.3993 279.799 89.5505C279.721 89.6948 279.713 89.7545 279.763 89.7975C279.78 89.8114 279.802 89.8183 279.824 89.8169C280.361 89.8669 280.641 90.2484 280.631 90.5842C280.624 90.8423 280.444 91.124 279.963 91.1378C279.916 91.1392 279.879 91.1781 279.88 91.2252C279.88 91.271 279.919 91.3085 279.965 91.3085V91.3071Z" fill="#E0B3A8"/>
</g>
<g style="mix-blend-mode:multiply">
<path d="M278.787 106.936C278.827 106.936 278.863 106.907 278.87 106.865C278.88 106.804 279.972 100.739 285.053 100.415C285.101 100.412 285.135 100.372 285.133 100.324C285.13 100.277 285.088 100.242 285.042 100.245C279.824 100.578 278.713 106.775 278.702 106.837C278.693 106.883 278.725 106.927 278.771 106.936C278.775 106.936 278.781 106.936 278.785 106.936H278.787Z" fill="#CCCCCC"/>
</g>
<g style="mix-blend-mode:multiply">
<path d="M283.996 123.738C284.022 123.738 284.047 123.726 284.062 123.706C284.079 123.684 284.085 123.656 284.078 123.63C284.057 123.562 281.999 116.719 280.06 112.244C280.042 112.201 279.99 112.182 279.947 112.2C279.904 112.218 279.884 112.269 279.902 112.312C281.698 116.458 283.599 122.642 283.879 123.563L275.731 123.142C275.684 123.139 275.643 123.175 275.642 123.222C275.639 123.269 275.675 123.309 275.723 123.311L283.991 123.74C283.991 123.74 283.994 123.74 283.996 123.74V123.738Z" fill="#CCCCCC"/>
</g>
<g style="mix-blend-mode:multiply">
<path d="M284.617 125.975C284.625 125.975 284.634 125.975 284.642 125.971C284.686 125.957 284.712 125.908 284.698 125.864C284.693 125.849 284.256 124.453 284.182 124.062C284.42 124.155 285.242 124.825 286.181 125.76C286.215 125.793 286.269 125.793 286.303 125.76C286.336 125.727 286.336 125.673 286.303 125.639C285.984 125.322 284.376 123.744 284.073 123.895C284.048 123.908 283.993 123.947 284.007 124.046C284.055 124.382 284.515 125.854 284.536 125.917C284.547 125.953 284.581 125.976 284.618 125.976L284.617 125.975Z" fill="#CCCCCC"/>
</g>
<g style="mix-blend-mode:multiply">
<path d="M286.162 133.956C286.566 133.956 286.976 133.946 287.392 133.925C287.44 133.922 287.476 133.882 287.473 133.836C287.47 133.789 287.431 133.753 287.384 133.756C280.936 134.085 276.004 131.694 275.955 131.671C275.913 131.65 275.862 131.666 275.841 131.709C275.82 131.751 275.837 131.802 275.88 131.823C275.926 131.845 280.281 133.957 286.163 133.957L286.162 133.956Z" fill="#CCCCCC"/>
</g>
<g style="mix-blend-mode:multiply">
<path d="M264.304 118.408C264.304 118.408 264.314 118.408 264.319 118.406C264.365 118.398 264.396 118.354 264.388 118.308C264.383 118.284 263.964 115.931 264.34 111.38C264.344 111.333 264.309 111.293 264.262 111.288C264.215 111.284 264.174 111.319 264.17 111.366C263.791 115.942 264.215 118.315 264.219 118.338C264.226 118.38 264.262 118.408 264.303 118.408H264.304Z" fill="#CCCCCC"/>
</g>
<g style="mix-blend-mode:multiply">
<path d="M232.025 158.692C232.064 158.692 232.099 158.666 232.109 158.625C232.146 158.46 235.873 142.059 236.499 140.875C236.736 140.426 240.738 139.564 258.46 138.01C259.487 137.92 259.905 137.882 259.955 137.873C260.001 137.863 260.032 137.819 260.022 137.773C260.012 137.727 259.968 137.696 259.922 137.706C259.872 137.716 259.274 137.767 258.445 137.841C243.753 139.13 236.731 140.069 236.347 140.796C235.712 141.998 232.096 157.911 231.941 158.588C231.932 158.634 231.96 158.679 232.005 158.689C232.012 158.691 232.018 158.692 232.025 158.692Z" fill="#B3B3B3"/>
</g>
<g style="mix-blend-mode:multiply">
<path d="M245.772 151.963C244.602 151.703 243.959 150.635 243.933 150.59C243.909 150.55 243.923 150.497 243.964 150.474C244.004 150.45 244.057 150.464 244.081 150.504C244.086 150.515 244.715 151.555 245.81 151.797C246.002 151.84 246.067 151.832 246.087 151.825C246.084 151.757 245.942 151.549 245.817 151.365C245.47 150.855 244.947 150.087 244.815 149.099C244.809 149.052 244.841 149.01 244.889 149.003C244.935 148.998 244.978 149.029 244.985 149.077C245.112 150.024 245.622 150.774 245.959 151.27C246.198 151.621 246.318 151.797 246.232 151.924C246.194 151.979 246.127 152.001 246.038 152.001C245.964 152.001 245.875 151.986 245.773 151.964L245.772 151.963Z" fill="#CCCCCC"/>
</g>
<g style="mix-blend-mode:multiply">
<path d="M272.174 146.569C272.189 146.569 272.206 146.565 272.22 146.556C272.26 146.531 272.272 146.478 272.247 146.438C272.234 146.417 270.963 144.38 272.428 142.861C272.46 142.827 272.46 142.773 272.425 142.74C272.391 142.708 272.337 142.708 272.304 142.743C270.746 144.359 272.088 146.507 272.102 146.528C272.118 146.553 272.146 146.567 272.174 146.567V146.569Z" fill="#CCCCCC"/>
</g>
<g style="mix-blend-mode:multiply">
<path d="M232.216 173.416C232.244 173.416 232.272 173.402 232.287 173.377C236.14 167.56 242.243 150.134 242.243 148.96C242.243 148.33 242.352 148.3 242.613 148.225C242.83 148.164 243.127 148.079 243.495 147.685C244.007 147.134 243.88 146.872 243.664 146.671C243.655 146.661 243.642 146.65 243.632 146.64C243.639 146.636 243.649 146.631 243.66 146.625C244.064 146.499 255.39 146.592 262.886 146.651C266.018 146.676 268.491 146.697 269.559 146.697C270.22 146.697 270.838 146.711 271.437 146.724C274.225 146.785 276.241 146.829 277.527 145.335C277.558 145.299 277.554 145.246 277.517 145.214C277.481 145.183 277.428 145.188 277.396 145.224C276.162 146.657 274.182 146.614 271.44 146.553C270.841 146.54 270.221 146.527 269.559 146.527C268.491 146.527 266.018 146.507 262.887 146.481C252.486 146.396 243.854 146.338 243.584 146.472C243.527 146.502 243.46 146.543 243.449 146.615C243.437 146.692 243.493 146.744 243.547 146.794C243.67 146.91 243.837 147.066 243.369 147.569C243.035 147.928 242.774 148.001 242.565 148.061C242.241 148.153 242.072 148.235 242.072 148.96C242.072 150.128 235.985 167.482 232.144 173.284C232.117 173.323 232.129 173.376 232.168 173.402C232.181 173.412 232.198 173.416 232.215 173.416H232.216Z" fill="#CCCCCC"/>
</g>
<path d="M275.806 86.8906C272.875 86.176 271.87 86.4619 271.87 86.4619C273.336 85.1451 275.136 85.5419 275.806 86.8906Z" fill="#2B1710"/>
<g style="mix-blend-mode:multiply">
<path d="M271.506 86.6743C271.522 86.6743 271.54 86.6687 271.556 86.659C271.595 86.6313 271.603 86.5785 271.575 86.5397C271.526 86.4481 271.529 85.6128 272.259 85.037C272.297 85.0079 272.302 84.9538 272.273 84.9177C272.244 84.8802 272.19 84.8747 272.153 84.9038C271.356 85.5324 271.322 86.4786 271.436 86.6382C271.453 86.6618 271.479 86.6743 271.506 86.6743Z" fill="#E0B3A8"/>
</g>
<path d="M273.218 89.1912C273.425 89.1912 273.592 88.8893 273.592 88.5168C273.592 88.1444 273.425 87.8425 273.218 87.8425C273.011 87.8425 272.843 88.1444 272.843 88.5168C272.843 88.8893 273.011 89.1912 273.218 89.1912Z" fill="#2B1710"/>
<path d="M269.561 88.4529C269.561 88.8247 269.728 89.1272 269.935 89.1272C270.143 89.1272 270.31 88.8247 270.31 88.4529C270.31 88.081 270.143 87.7786 269.935 87.7786C269.728 87.7786 269.561 88.081 269.561 88.4529Z" fill="#2B1710"/>
<path d="M270.342 86.5258C269.594 86.24 269.02 86.684 269.02 86.684C269.371 85.5254 270.087 85.8903 270.342 86.5258Z" fill="#2B1710"/>
<path d="M275.026 123.383C275.887 130.094 275.377 131.507 275.377 131.507C275.377 131.507 263.826 126.889 262.632 126.938C261.437 126.985 259.684 126.588 259.27 126.366C258.856 126.144 257.294 125.256 257.294 125.256C257.327 125.066 257.676 124.876 258.314 125.098C257.646 124.304 256.913 123.48 257.007 123.067C256.307 122.241 256.562 121.511 256.562 121.511C255.797 120.75 255.255 119.83 255.733 119.83C256.211 119.83 257.676 120.75 259.365 121.035C261.053 121.321 262.551 121.162 262.487 120.781C262.423 120.401 262.36 119.785 261.244 119.512C259.882 119.179 259.524 117.798 259.811 117.64C260.098 117.482 260.417 118.02 260.895 118.02C261.372 118.02 262.806 118.179 263.571 118.878C264.336 119.576 265.483 122.019 265.705 122.433C265.928 122.845 275.026 123.384 275.026 123.384V123.383Z" fill="#FF8762"/>
<path d="M270.589 122.963C271.067 124.772 270.218 128.818 269.98 129.448L268.343 128.842C268.94 126.819 268.917 123.07 268.844 122.82C269.956 122.903 270.589 122.963 270.589 122.963Z" fill="#474259"/>
<path d="M268.272 126.64C268.206 127.17 268.715 127.669 269.409 127.755C270.103 127.841 270.72 127.48 270.785 126.949C270.851 126.419 270.342 125.92 269.648 125.833C268.954 125.747 268.337 126.108 268.272 126.64Z" fill="#585073"/>
<path d="M268.446 126.662C268.389 127.118 268.828 127.55 269.427 127.623C270.024 127.697 270.555 127.386 270.612 126.93C270.67 126.473 270.231 126.042 269.632 125.968C269.034 125.895 268.503 126.205 268.446 126.662Z" fill="#8E88A6"/>
<g style="mix-blend-mode:multiply">
<path d="M259.907 122.882C259.95 122.882 259.987 122.849 259.992 122.805C259.996 122.757 259.961 122.716 259.915 122.712C259.905 122.712 258.853 122.601 256.892 121.438C256.851 121.414 256.798 121.427 256.775 121.467C256.751 121.507 256.763 121.56 256.804 121.584C258.805 122.77 259.855 122.877 259.898 122.881C259.901 122.881 259.904 122.881 259.907 122.881V122.882Z" fill="#E0B3A8"/>
</g>
<g style="mix-blend-mode:multiply">
<path d="M260.145 124.929C260.177 124.929 260.209 124.909 260.223 124.879C260.242 124.836 260.223 124.786 260.18 124.767C260.166 124.761 258.789 124.134 257.291 122.549C257.259 122.515 257.205 122.513 257.17 122.545C257.135 122.577 257.134 122.631 257.166 122.666C258.69 124.278 260.095 124.916 260.109 124.922C260.12 124.927 260.132 124.929 260.143 124.929H260.145Z" fill="#E0B3A8"/>
</g>
<path d="M254.409 113.277C252.114 115.133 254.027 119.226 253.213 119.798L240.5 117.846C240.5 117.846 241.025 117.084 241.025 116.512C241.025 115.941 240.882 113.085 241.503 112.371L254.409 113.275V113.277Z" fill="#FEF5E4"/>
<g style="mix-blend-mode:multiply">
<path d="M232.782 99.9388C232.79 99.9388 232.799 99.9388 232.807 99.9346C232.852 99.9207 232.877 99.8722 232.863 99.8278L232.755 99.4878L233.257 98.7844C233.285 98.7455 233.275 98.6928 233.236 98.665C233.197 98.6373 233.144 98.647 233.116 98.6859L232.591 99.424C232.576 99.4462 232.571 99.4739 232.578 99.4989L232.698 99.8791C232.709 99.9152 232.743 99.9388 232.78 99.9388H232.782Z" fill="#E0B3A8"/>
</g>
<g style="mix-blend-mode:multiply">
<path d="M231.372 101.866C231.384 101.866 231.398 101.863 231.41 101.858C231.451 101.837 231.469 101.785 231.447 101.744C231.291 101.432 230.889 100.562 230.907 100.288C230.925 100.015 231.23 99.3254 231.345 99.066C231.378 98.9924 231.4 98.9439 231.404 98.9286C231.419 98.8842 231.394 98.837 231.35 98.8218C231.305 98.8065 231.256 98.8301 231.241 98.8745C231.237 98.8884 231.216 98.9328 231.188 98.9966C230.973 99.4795 230.753 100.009 230.735 100.276C230.71 100.645 231.234 101.699 231.294 101.819C231.309 101.849 231.339 101.866 231.371 101.866H231.372Z" fill="#E0B3A8"/>
</g>
<path d="M298.622 137.315H267.363V134.797C267.363 134.347 267.73 133.984 268.18 133.984H298.622V137.315Z" fill="#6B484B"/>
<path d="M296.304 135.6C296.304 136.112 296.722 136.528 297.236 136.528C297.75 136.528 298.168 136.112 298.168 135.6C298.168 135.088 297.75 134.672 297.236 134.672C296.722 134.672 296.304 135.087 296.304 135.6Z" fill="#4D3436"/>
<path d="M44.3352 182.446C35.8211 182.446 28.9204 175.572 28.9204 167.095V151.406H59.7499V167.095C59.7499 175.574 52.8479 182.446 44.3352 182.446Z" fill="#6875A2"/>
</g>
<defs>
<clipPath id="clip0_6111_1051">
<rect width="361.63" height="192.17" fill="white" transform="translate(0.185059 0.562256)"/>
</clipPath>
</defs>
</svg>
