<svg width="390" height="379" viewBox="0 0 390 379" fill="none" xmlns="http://www.w3.org/2000/svg">
<path d="M385.056 78.1208C385.057 78.6352 384.959 79.1453 384.768 79.6256H367.967C367.956 79.6145 367.95 79.6034 367.938 79.5923C367.937 79.6041 367.933 79.6155 367.927 79.6256C367.927 79.6256 367.476 79.6256 366.661 79.6367C358.345 79.6812 311.856 79.9311 311.856 79.5368C311.856 74.9832 315.48 71.296 319.947 71.296C320.963 71.2944 321.969 71.4869 322.906 71.8624C323.771 71.1465 324.874 70.7525 326.015 70.7518C326.834 70.7601 327.638 70.9652 328.354 71.3483C329.07 71.7314 329.674 72.2804 330.113 72.9453C330.124 72.9231 330.136 72.8953 330.147 72.8731C331.014 71.1016 332.702 69.6079 334.886 68.6305C336.778 67.7954 338.838 67.3689 340.92 67.3811C341.548 67.3815 342.175 67.4186 342.798 67.4921C345.162 63.0885 349.762 60.0898 355.039 60.0898C361.795 60.0898 367.435 64.9988 368.69 71.507C369.464 71.0149 370.373 70.7522 371.302 70.7518C373.226 70.7518 374.896 71.8624 375.723 73.4839C376.596 73.1837 377.517 73.0315 378.445 73.0341C381.057 73.0341 383.311 74.2003 384.386 75.8884C384.82 76.5585 385.052 77.3314 385.056 78.1208Z" fill="#DEE5F8"/>
<path opacity="0.4" d="M381.779 75.3855C379.705 74.8478 377.487 74.8693 375.318 74.8962L360.805 75.0575C355.01 75.122 349.846 71.9339 343.922 72.45C341.083 72.7027 338.194 73.8156 335.467 73.9715C333.304 74.0952 330.672 73.7242 329.336 72.4661C330.175 70.7511 331.807 69.3049 333.919 68.3586C335.749 67.5501 337.74 67.1372 339.753 67.149C340.36 67.1493 340.967 67.1852 341.57 67.2565C343.85 62.9931 348.298 60.0898 353.4 60.0898C359.933 60.0898 365.388 64.8425 366.6 71.1436C367.35 70.6671 368.228 70.4128 369.126 70.4124C370.987 70.4124 372.602 71.4876 373.401 73.0575C374.246 72.7668 375.137 72.6195 376.034 72.622C378.56 72.622 380.739 73.7511 381.779 75.3855Z" fill="white"/>
<path opacity="0.3" d="M538.809 282.162C538.373 279.149 538.542 276.079 539.306 273.132C540.069 270.186 541.412 267.421 543.255 265C552.581 252.728 557.126 238.175 554.961 223.358C549.955 189.007 510.876 166.277 467.681 172.578C438.696 176.814 415.227 193.049 404.428 213.65C400.175 221.769 391.622 226.707 382.497 225.916C379.019 225.617 375.519 225.723 372.065 226.23C363.267 227.517 355.521 231.226 349.616 236.433C346.843 238.862 343.524 240.584 339.942 241.452C336.361 242.319 332.623 242.307 329.047 241.417C319.128 238.995 307.428 238.434 295.162 240.227C281.39 242.239 269.152 246.888 259.894 253.018C253.47 257.272 245.375 258.234 238.292 255.203C231.881 252.459 224.757 251.853 217.976 253.476C211.194 255.099 205.115 258.865 200.638 264.216C196.765 268.805 191.423 271.973 185.459 272.645C185.17 272.678 184.878 272.721 184.587 272.758C183.934 272.181 183.303 271.574 182.695 270.937C178.182 266.167 172.36 262.841 165.962 261.377C159.564 259.914 152.876 260.379 146.742 262.714C137.928 266.069 128.054 265.018 119.839 260.388C110.567 255.164 98.906 251.343 86.0009 249.819C74.6524 248.473 63.8214 249.063 54.4238 251.199C45.3323 253.255 35.6925 251.452 28.1904 245.913C22.3006 241.563 14.9854 238.57 6.85912 237.605C4.43422 237.316 1.99042 237.218 -0.449829 237.311C-11.8312 237.753 -22.424 231.966 -28.5705 222.371C-40.8432 203.166 -64.3042 188.655 -92.5296 185.296C-136.934 180.025 -176.329 204.379 -180.521 239.694C-182.227 254.085 -177.808 268.077 -168.971 279.962C-164.085 286.541 -161.783 294.676 -162.754 302.811L-168.476 351.103C-168.964 355.227 -168.636 359.407 -167.511 363.404C-166.385 367.401 -164.485 371.137 -161.917 374.398C-159.349 377.66 -156.164 380.383 -152.545 382.412C-148.926 384.441 -144.943 385.737 -140.823 386.225L183.901 424.779C189.417 425.435 195.009 424.622 200.111 422.423C205.214 420.223 209.646 416.714 212.96 412.251L527.991 366.222C530.959 365.789 533.812 364.775 536.389 363.238C538.965 361.701 541.214 359.671 543.006 357.264C544.799 354.856 546.1 352.119 546.836 349.209C547.572 346.298 547.728 343.271 547.295 340.3L538.809 282.162Z" fill="#DEE5F8"/>
<path opacity="0.8" d="M583.831 285.211C582.259 258.499 554.268 238.482 521.311 240.5C493.374 242.21 470.835 259.202 465.582 280.605C460.14 276.971 453.225 274.989 445.816 275.443C435.475 276.071 426.643 281.29 421.725 288.679C413.273 283.303 400.745 280.306 386.962 281.143C371.526 282.087 358.222 287.62 350.732 295.225C345.787 289.175 338.3 285.527 330.142 286.027C321.372 286.563 313.932 291.761 309.886 299.186C303.004 298.368 295.25 298.949 287.354 301.177C265.399 307.373 250.716 323.896 254.563 338.083C257.163 347.671 267.562 353.731 280.807 354.745L284.039 409.704L571.575 392.103L567.412 321.296C578.27 311.805 584.639 298.966 583.831 285.211Z" fill="#DEE5F8"/>
<path opacity="0.8" d="M-192.898 312.082C-192.647 285.425 -165.836 264.078 -133.011 264.399C-105.18 264.683 -81.9853 280.426 -75.7062 301.455C-70.4819 297.559 -63.7153 295.233 -56.3266 295.306C-46.0288 295.407 -37.004 300.143 -31.7572 307.244C-23.6279 301.463 -11.3351 297.845 2.39183 297.978C17.765 298.13 31.2472 302.954 39.0562 310.139C43.6685 303.865 50.9247 299.853 59.0478 299.932C67.7809 300.018 75.4165 304.81 79.8065 311.991C86.5996 310.823 94.327 311.006 102.277 312.825C124.382 317.868 139.769 333.557 136.646 347.862C134.535 357.534 124.504 364.095 111.404 365.78L110.889 420.629L-175.487 417.822L-174.824 347.159C-186.072 338.26 -193.025 325.809 -192.898 312.082Z" fill="#DEE5F8"/>
<path d="M82.4216 115.447C82.4211 115.905 82.3256 116.359 82.1402 116.785H66.348C66.3332 116.779 66.3214 116.768 66.3149 116.755C66.3149 116.77 66.3149 116.777 66.3149 116.785C66.3149 116.792 13.5913 117.093 13.5913 116.702C13.5913 112.658 16.9931 109.373 21.1977 109.373C22.1522 109.373 23.0974 109.544 23.9788 109.877C24.7909 109.246 25.8233 108.897 26.8922 108.892C27.6642 108.898 28.4222 109.08 29.0973 109.42C29.7723 109.76 30.3431 110.248 30.7575 110.839C31.8997 108.554 34.6559 106.788 38.0991 106.164C39.0272 105.987 39.9732 105.899 40.9215 105.901C41.5136 105.899 42.1052 105.931 42.6927 105.998C44.9027 102.082 49.2232 99.4214 54.1893 99.4214C60.5459 99.4214 65.8431 103.788 67.0184 109.569C67.7472 109.13 68.6025 108.898 69.4767 108.9C70.3526 108.909 71.208 109.142 71.9444 109.573C72.6809 110.004 73.2685 110.615 73.6399 111.335C74.4629 111.066 75.331 110.929 76.2057 110.929C79.6323 110.922 82.4216 112.951 82.4216 115.447Z" fill="#DEE5F8"/>
<path opacity="0.4" d="M82.4213 115.555C82.4207 116.016 82.3243 116.473 82.137 116.902H72.8888C72.3202 116.1 71.9188 115.199 71.2164 114.472C68.0557 111.201 61.4749 113.821 57.6619 111.186C56.9679 110.709 56.4076 110.081 55.6885 109.642C53.4726 108.317 50.5293 109.142 47.9538 109.778C45.3282 110.429 42.3681 110.785 40.0101 109.551C39.363 109.191 38.8132 108.704 38.4009 108.126C37.9885 107.548 37.7241 106.894 37.627 106.212C38.5646 106.034 39.5203 105.945 40.4783 105.947C41.0765 105.945 41.6742 105.978 42.2678 106.046C44.5004 102.101 48.8653 99.4214 53.8824 99.4214C60.3042 99.4214 65.6558 103.82 66.8432 109.642C67.5794 109.2 68.4435 108.966 69.3267 108.968C70.2136 108.974 71.0806 109.206 71.8278 109.639C72.575 110.072 73.1718 110.687 73.5494 111.413C74.3808 111.142 75.2579 111.004 76.1416 111.005C79.6034 110.997 82.4213 113.041 82.4213 115.555Z" fill="white"/>
<path d="M105.365 28.2139C105.365 28.5959 50.9682 28.2903 50.9682 28.2903C50.9655 28.282 50.9655 28.2731 50.9682 28.2648C50.9567 28.275 50.9451 28.2801 50.9335 28.2903H34.6388C34.4495 27.8651 34.3515 27.4126 34.3496 26.9559C34.3496 24.4551 37.2187 22.433 40.7587 22.433C41.6593 22.4305 42.5536 22.5649 43.4022 22.8303C44.2063 21.3889 45.8259 20.411 47.6943 20.411C48.5927 20.4116 49.4714 20.6435 50.2221 21.0782C51.4484 15.2872 56.9204 10.9274 63.4742 10.9274C63.5223 10.9246 63.5706 10.9246 63.6188 10.9274C68.6801 10.9681 73.0821 13.6217 75.3438 17.5079C75.95 17.44 76.5606 17.406 77.1717 17.406C82.0306 17.406 86.1665 19.4688 87.653 22.3465C88.08 21.7576 88.667 21.2718 89.3608 20.933C90.0547 20.5941 90.8336 20.413 91.6269 20.4059C92.7353 20.4062 93.8068 20.7569 94.6464 21.394C95.5549 21.0583 96.5302 20.8852 97.5155 20.8847C100.656 20.8847 103.364 22.6062 104.619 25.0866C105.116 26.0708 105.37 27.1367 105.365 28.2139Z" fill="#DEE5F8"/>
<path opacity="0.4" d="M102.087 26.3294C99.7419 27.1162 97.0972 27.2159 94.5911 27.2713C88.7306 27.3988 82.4986 27.432 77.5141 24.3623C75.7842 23.2984 74.2594 21.8855 72.3965 21.082C69.2805 19.7355 65.2774 20.0957 62.9819 17.6022C61.496 15.9898 61.2299 13.3744 62.3665 11.496C62.4885 11.2943 62.6277 11.1033 62.7823 10.9253C67.6338 10.9696 71.8531 13.8565 74.021 18.0843C74.6021 18.0105 75.1873 17.9735 75.7731 17.9735C80.4305 17.9735 84.3948 20.2176 85.8197 23.3483C86.2277 22.7056 86.7897 22.1749 87.4549 21.8043C88.1201 21.4337 88.8673 21.235 89.6288 21.2261C90.6912 21.2264 91.7182 21.6079 92.523 22.301C93.3938 21.9358 94.3287 21.7475 95.2731 21.7469C98.2893 21.7525 100.884 23.6253 102.087 26.3294Z" fill="white"/>
<path d="M381.486 392.319L77.721 393.89L8.12842 394.246L38.9938 332.542L70.8233 304.581L114.228 291.084L134.321 263.771H225.633L261.41 293.572L314.933 310.927L346.203 340.256L346.945 341.354L380.542 390.931L381.486 392.319Z" fill="#1F3C88"/>
<path d="M135.609 309.404L90.5965 335.755L77.721 393.89L8.12842 394.246L38.9938 332.542L70.8233 304.581L114.228 291.084L134.321 263.771L135.609 309.404Z" fill="#102048"/>
<path d="M207.935 253.55L208.018 246.048L197.149 246.816L196.837 253.015C200.49 253.74 204.23 253.92 207.935 253.55Z" fill="#F9B384"/>
<path d="M219.702 263.726C216.754 258.898 212.722 257.288 207.91 256.685L207.934 253.554C204.227 253.924 200.486 253.744 196.831 253.019L196.29 263.73L219.702 263.726Z" fill="#102048"/>
<path d="M153.961 254.28L152.967 256.552C148.155 257.155 143.847 259.753 139.884 263.726H162.709L165.136 254.308C161.438 254.952 157.656 254.942 153.961 254.28Z" fill="#102048"/>
<path d="M165.137 254.309L167.067 246.817L157.454 246.304L153.962 254.281C157.657 254.943 161.439 254.952 165.137 254.309Z" fill="#F9B384"/>
<path d="M212.951 137.023C218.676 174.26 217.053 211.329 209.107 248.738H195.435C197.067 224.457 198.315 195.594 194.495 176.481L168.413 249.058H153.481L178.089 145.726L186.542 129.156L206.366 126.764L212.951 137.023Z" fill="#102048"/>
<path d="M231.152 57.5902L234.826 46.5732L244.769 48.8949C245.517 52.5847 241.049 58.1817 237.724 62.3745L231.152 57.5902Z" fill="#F9B384"/>
<path d="M197.612 96.916L186.159 97.0508L185.02 82.0544L184.887 80.2618L196.392 80.1592L196.801 85.8487L197.612 96.916Z" fill="#F9B384"/>
<path d="M196.738 84.8146C192.988 87.4904 188.083 85.8206 185.02 82.0564L184.887 80.2618L196.392 80.1592L196.738 84.8146Z" fill="#102048"/>
<path d="M194.064 83.5593C188.251 84.8871 181.762 81.1611 179.202 76.2119L178.855 67.3275L182.108 62.7163L195.948 63.9073C195.883 63.9234 195.891 64.1085 195.948 64.4465C196.109 65.3076 196.64 67.1424 197.131 69.3555C198.339 74.7392 199.305 82.3522 194.064 83.5593Z" fill="#F9B384"/>
<path d="M184.326 91.243C184.326 91.243 192.872 98.0834 200.305 88.3379L214.404 135.144C205.772 141.24 194.859 143.346 181.764 141.634L184.326 91.243Z" fill="white"/>
<g opacity="0.3">
<path d="M186.16 97.0509C187.322 97.4655 188.531 97.7397 189.758 97.8678C190.958 98.0019 192.172 97.9537 193.357 97.7249C194.543 97.509 195.687 97.1085 196.749 96.5379C197.31 96.2925 197.795 95.9183 198.327 95.6044C198.858 95.2905 199.309 94.854 199.84 94.5039C199.449 95.0004 199.032 95.4765 198.592 95.9303C198.105 96.3327 197.65 96.7995 197.087 97.1153C196.007 97.8361 194.791 98.329 193.514 98.5639C190.959 99.0504 188.315 98.5065 186.16 97.0509Z" fill="#1F3C88"/>
</g>
<path d="M230.768 55.54C223.037 68.589 215.497 80.0567 208.68 85.5169C207.659 86.3147 206.379 86.7086 205.085 86.6234C202.523 86.4927 199.876 86.8045 196.93 87.5026C197.548 110.921 199.77 132.609 207.734 145.905C212.532 144.521 218.357 142.296 221.576 139.584C218.959 130.687 215.851 117.932 213.543 106.79L239.093 61.1813L230.768 55.54Z" fill="#1F3C88"/>
<path d="M197.131 69.3557C188.336 74.3613 181.029 65.2415 181.029 65.2415L195.956 64.4468C196.109 65.3079 196.64 67.1427 197.131 69.3557Z" fill="#E28B6D"/>
<path d="M181.166 74.506C182.243 73.1118 182.736 70.77 181.77 66.0562C184.974 69.6776 189.738 70.5266 196.722 67.4222C196.722 67.4222 201.265 65.6458 200.226 61.0165C199.286 56.8318 195.782 54.6107 193.049 58.0288C186.844 56.2181 180.743 55.8922 178.01 61.5295C178.01 61.5295 169.295 66.0562 176.728 73.3995L181.166 74.506Z" fill="#102048"/>
<path d="M162.367 149.088C162.111 149.444 161.171 156.667 161.171 156.667C161.171 156.667 156.985 160.592 159.803 163C162.62 165.408 166.042 165.318 167.664 163.533C168.23 161.791 168.268 159.751 167.58 157.296L169.202 149.269L162.367 149.088Z" fill="#F9B384"/>
<path d="M251.316 54.3956L237.068 63.0306L236.43 58.023L247.17 51.5146L251.316 54.3956Z" fill="#6F3428"/>
<path d="M243.627 53.6613L239.974 55.8764L231.301 43.5537L236.707 40.2764L243.627 53.6613Z" fill="#BB9132"/>
<path d="M237.44 39.8417L230.577 44.0002C229.833 44.4507 228.952 44.6189 228.095 44.4741C227.238 44.3293 226.461 43.8812 225.907 43.2116L214.435 29.3297L231.909 18.7412L238.909 35.3391C239.246 36.1409 239.283 37.0371 239.013 37.8638C238.743 38.6905 238.185 39.3926 237.44 39.8417Z" fill="#FBC343"/>
<path d="M236.599 31.0839L235.653 30.6916C238.29 24.3462 237.829 19.1898 235.892 18.0531C234.886 17.4616 233.477 18.1597 232.068 19.9663L231.263 19.3326C233.783 16.1317 235.711 16.7534 236.412 17.1678C238.771 18.554 239.485 24.1369 236.599 31.0839Z" fill="#FBC343"/>
<path d="M222.924 39.3805C215.426 38.7266 210.805 35.5096 210.668 32.7775C210.628 31.9587 210.964 29.9609 214.972 29.2104L215.161 30.2164C212.899 30.6449 211.635 31.5583 211.693 32.7252C211.806 34.9684 216.165 37.7549 223.013 38.3584L222.924 39.3805Z" fill="#FBC343"/>
<path d="M244.769 48.6354C245.018 50.4099 243.895 51.9973 241.526 51.9973C240.047 51.9973 237.974 49.9673 237.537 47.5571C237.177 45.5694 237.94 44.2657 239.348 43.6883C240.782 43.0948 244.294 45.2857 244.769 48.6354Z" fill="#F9B384"/>
<path d="M199.451 16.3443L198.967 17.8794L211.443 21.809L211.927 20.2739L199.451 16.3443Z" fill="#FBC343"/>
<path d="M226.111 -9.49538e-05L223.837 12.874L225.423 13.1538L227.696 0.279668L226.111 -9.49538e-05Z" fill="#FBC343"/>
<path d="M210.463 3.42486L209.106 4.29248L216.157 15.3035L217.513 14.4359L210.463 3.42486Z" fill="#FBC343"/>
<path d="M177.141 120.453L175.092 151.372C186.54 150.859 194.231 147.1 194.231 147.1C195.225 128.648 192.854 107.998 185.548 89.4282C166.989 96.3209 161.753 119.162 159 153.104L169.869 154.365L177.141 120.453Z" fill="#1F3C88"/>
<path d="M181.337 77.5762C177.845 78.8215 175.613 78.5398 175.427 75.2042C175.321 73.2909 177.293 71.7659 179.032 72.5746C179.787 72.9247 180.492 73.5806 181.166 74.502L181.337 77.5762Z" fill="#F9B384"/>
<path d="M211.224 96.2339C211.685 97.7026 212.088 99.1833 212.476 100.66C212.865 102.137 213.227 103.636 213.577 105.128C213.927 106.621 214.249 108.12 214.541 109.625C214.833 111.13 215.117 112.643 215.326 114.164L214.936 114.254C214.461 112.79 214.062 111.307 213.668 109.828C213.273 108.349 212.923 106.855 212.583 105.36C212.243 103.865 211.917 102.366 211.633 100.857C211.349 99.3483 211.055 97.8394 210.828 96.3224L211.224 96.2339Z" fill="#102048"/>
<path d="M177.692 110.041C177.742 111.528 177.734 113.011 177.71 114.494C177.686 115.977 177.636 117.459 177.573 118.94C177.511 120.421 177.42 121.899 177.298 123.378C177.175 124.857 177.044 126.334 176.837 127.804L176.434 127.786C176.37 126.299 176.384 124.815 176.402 123.332C176.42 121.849 176.478 120.368 176.553 118.888C176.627 117.407 176.714 115.928 176.843 114.452C176.972 112.975 177.094 111.496 177.29 110.025L177.692 110.041Z" fill="#102048"/>
<path d="M191.999 182.906C192.459 181.214 192.979 179.544 193.51 177.876C194.041 176.208 194.617 174.558 195.169 172.897C195.751 171.247 196.347 169.603 196.956 167.964C197.584 166.33 198.216 164.698 198.92 163.091L199.299 163.224C198.85 164.92 198.329 166.589 197.801 168.253C197.274 169.917 196.7 171.573 196.129 173.227C195.525 174.868 194.959 176.524 194.327 178.156C193.695 179.787 193.069 181.421 192.377 183.032L191.999 182.906Z" fill="#708CD5"/>
<path d="M179.244 75.7251C179.065 75.4736 178.898 75.2161 178.72 74.9767C178.561 74.7437 178.375 74.5297 178.167 74.3389C178.099 74.2562 178.011 74.1928 177.911 74.1554C177.811 74.1179 177.703 74.1077 177.597 74.1257C177.384 74.1518 177.173 74.3792 176.937 74.5683L176.736 74.4436C176.867 74.1458 177.02 73.8118 177.418 73.6388C177.817 73.4658 178.308 73.6609 178.553 73.8983C179.03 74.3725 179.346 74.9839 179.457 75.6467L179.244 75.7251Z" fill="#102048"/>
<path d="M237.39 49.1562C237.762 47.7479 237.571 46.4664 236.959 46.3054C236.347 46.1445 235.409 46.8064 235.037 48.2187C234.664 49.631 234.232 51.667 235.198 52.1217C236.905 52.9365 237.015 50.5786 237.39 49.1562Z" fill="#F9B384"/>
</svg>
