<svg width="17" height="17" viewBox="0 0 17 17" fill="none" xmlns="http://www.w3.org/2000/svg">
<g id="chat-bubble 1" clip-path="url(#clip0_1519_994)">
<g id="Layer 2">
<path id="Vector" d="M8.3725 16.8009C7.01582 16.8096 5.67925 16.4729 4.48865 15.8224C4.4648 15.8125 4.43922 15.8074 4.41338 15.8074C4.38754 15.8074 4.36196 15.8125 4.33811 15.8224L1.68114 16.5751C1.51852 16.6269 1.34483 16.633 1.17896 16.5929C1.01308 16.5529 0.861364 16.4681 0.740309 16.3478C0.619254 16.2275 0.533492 16.0764 0.492349 15.9107C0.451207 15.7451 0.456258 15.5714 0.506954 15.4085L1.3048 12.7364C1.32213 12.6903 1.32213 12.6395 1.3048 12.5934C0.488817 11.1021 0.16329 9.39157 0.374421 7.70474C0.585552 6.0179 1.32261 4.44042 2.481 3.19618C3.63938 1.95193 5.16023 1.10415 6.82769 0.773148C8.49515 0.442148 10.2245 0.644748 11.7703 1.35219C13.3161 2.05964 14.5998 3.23599 15.4392 4.71428C16.2787 6.19258 16.6312 7.89771 16.4467 9.58766C16.2622 11.2776 15.5502 12.8665 14.4116 14.1289C13.273 15.3913 11.7657 16.263 10.1037 16.6203C9.53417 16.7387 8.95417 16.7992 8.3725 16.8009ZM4.3908 14.6407C4.61426 14.6438 4.8337 14.7006 5.03058 14.8063C6.00464 15.3405 7.09238 15.6338 8.20294 15.6618C9.31351 15.6898 10.4146 15.4517 11.4144 14.9673C12.4141 14.4828 13.2834 13.7662 13.9497 12.8772C14.6159 11.9883 15.0598 10.9528 15.2442 9.8573C15.4286 8.7618 15.3481 7.63807 15.0096 6.57999C14.671 5.52192 14.0842 4.56021 13.2981 3.77522C12.512 2.99022 11.5495 2.40473 10.491 2.06764C9.43245 1.73056 8.30862 1.65167 7.21336 1.83757C6.11599 2.01988 5.07845 2.46305 4.18799 3.12979C3.29754 3.79654 2.58021 4.66737 2.09635 5.66903C1.61248 6.6707 1.37622 7.77391 1.40744 8.88588C1.43866 9.99786 1.73645 11.0861 2.27576 12.059C2.36056 12.2126 2.41419 12.3814 2.43356 12.5558C2.45294 12.7302 2.43768 12.9067 2.38866 13.0751L1.68867 15.4009L4.01446 14.7009C4.13627 14.6625 4.26308 14.6422 4.3908 14.6407Z" fill="#838383"/>
</g>
</g>
<defs>
<clipPath id="clip0_1519_994">
<rect width="16.1828" height="16.1828" fill="white" transform="translate(0.311768 0.618286)"/>
</clipPath>
</defs>
</svg>
