<svg width="24" height="24" viewBox="0 0 24 24" fill="none" xmlns="http://www.w3.org/2000/svg">
<g id="lets-icons:calories-light">
<g id="Group">
<path id="Vector" d="M14.5 9.99996C14.5 9.20896 15.553 8.99896 15.832 9.73996C16.508 11.53 17 13.134 17 14C17 15.326 16.4732 16.5978 15.5355 17.5355C14.5979 18.4732 13.3261 19 12 19C10.6739 19 9.40215 18.4732 8.46447 17.5355C7.52678 16.5978 7 15.326 7 14C7 13.07 7.568 11.289 8.322 9.33696C9.297 6.80896 9.785 5.54496 10.388 5.47696C10.58 5.45496 10.791 5.49396 10.963 5.58396C11.5 5.86396 11.5 7.24296 11.5 9.99996C11.5 10.3978 11.658 10.7793 11.9393 11.0606C12.2206 11.3419 12.6022 11.5 13 11.5C13.3978 11.5 13.7794 11.3419 14.0607 11.0606C14.342 10.7793 14.5 10.3978 14.5 9.99996Z" stroke="black"/>
<path id="Vector_2" d="M10.9998 18.9999L10.7368 18.3429C10.513 17.7834 10.4416 17.1746 10.53 16.5785C10.6184 15.9824 10.8633 15.4204 11.2398 14.9499C11.3309 14.8359 11.4466 14.7438 11.5781 14.6806C11.7097 14.6173 11.8538 14.5845 11.9998 14.5845C12.1458 14.5845 12.2899 14.6173 12.4214 14.6806C12.553 14.7438 12.6686 14.8359 12.7598 14.9499C13.5258 15.9079 13.7178 17.2039 13.2628 18.3429L12.9998 18.9999" stroke="black"/>
</g>
</g>
</svg>
