<svg width="346" height="259" viewBox="0 0 346 259" fill="none" xmlns="http://www.w3.org/2000/svg">
<g clip-path="url(#clip0_11043_1222)">
<path d="M346 226.978H0V227.151H346V226.978Z" fill="#EBEBEB"/>
<path d="M311.331 238.111H288.412V238.284H311.331V238.111Z" fill="#EBEBEB"/>
<path d="M229.204 239.994H223.191V240.167H229.204V239.994Z" fill="#EBEBEB"/>
<path d="M287.72 231.69H274.44V231.863H287.72V231.69Z" fill="#EBEBEB"/>
<path d="M66.1898 232.853H36.3023V233.026H66.1898V232.853Z" fill="#EBEBEB"/>
<path d="M76.7359 232.853H72.3555V233.026H76.7359V232.853Z" fill="#EBEBEB"/>
<path d="M155.804 235.772H90.9772V235.945H155.804V235.772Z" fill="#EBEBEB"/>
<path d="M164.011 196.114H30.3857C28.2059 196.114 26.4344 194.343 26.4344 192.163V4.33316C26.4344 2.15336 28.2059 0.381836 30.3857 0.381836H164.011C166.191 0.381836 167.962 2.15336 167.962 4.33316V192.163C167.962 194.343 166.191 196.114 164.011 196.114ZM30.3857 0.554836C28.3028 0.554836 26.6074 2.25024 26.6074 4.33316V192.163C26.6074 194.246 28.3028 195.941 30.3857 195.941H164.011C166.094 195.941 167.789 194.246 167.789 192.163V4.33316C167.789 2.25024 166.094 0.554836 164.011 0.554836H30.3857Z" fill="#EBEBEB"/>
<path d="M313.69 196.114H180.065C177.885 196.114 176.114 194.343 176.114 192.163V4.33316C176.114 2.15336 177.885 0.381836 180.065 0.381836H313.69C315.87 0.381836 317.642 2.15336 317.642 4.33316V192.163C317.642 194.343 315.87 196.114 313.69 196.114ZM180.065 0.554836C177.982 0.554836 176.287 2.25024 176.287 4.33316V192.163C176.287 194.246 177.982 195.941 180.065 195.941H313.69C315.773 195.941 317.469 194.246 317.469 192.163V4.33316C317.469 2.25024 315.773 0.554836 313.69 0.554836H180.065Z" fill="#EBEBEB"/>
<path d="M52.3567 163.445H101.627C106.409 163.445 110.291 167.327 110.291 172.109V216.369C110.291 221.151 106.409 225.033 101.627 225.033H52.3567V163.445Z" fill="#F0F0F0"/>
<path d="M52.765 163.445H51.9484C47.1635 163.445 43.2846 167.324 43.2846 172.109V216.369C43.2846 221.154 47.1635 225.033 51.9484 225.033H52.765C57.5499 225.033 61.4288 221.154 61.4288 216.369V172.109C61.4288 167.324 57.5499 163.445 52.765 163.445Z" fill="#F5F5F5"/>
<path d="M58.9515 225.026H123.259V186.157H58.9515V225.026Z" fill="#F0F0F0"/>
<path d="M53.6715 226.978H169.575C170.557 226.978 171.353 226.182 171.353 225.199V225.033H101.655L51.8931 225.199C51.8931 226.182 52.6889 226.978 53.6715 226.978Z" fill="#E0E0E0"/>
<path d="M104.437 137.889H164.274C170.945 137.889 175.886 143.301 175.297 149.971L171.353 194.945H87.3511L91.2955 149.971C91.8837 143.301 97.7657 137.889 104.437 137.889Z" fill="#E0E0E0"/>
<path d="M94.9839 137.889H155.984C162.336 137.889 167.035 143.038 166.474 149.39L162.482 194.945H78.4797L82.4725 149.39C83.0261 143.038 88.6313 137.889 94.9839 137.889Z" fill="#F5F5F5"/>
<path d="M64.1069 182.613H115.045C118.055 182.613 120.498 185.056 120.498 188.066V192.986C120.498 195.997 118.055 198.439 115.045 198.439H64.1069C59.7335 198.439 56.1904 194.896 56.1904 190.523C56.1904 186.149 59.7335 182.606 64.1069 182.606V182.613Z" fill="#E0E0E0"/>
<path d="M123.543 163.445H172.813C177.595 163.445 181.477 167.327 181.477 172.109V216.369C181.477 221.151 177.595 225.033 172.813 225.033H123.543V163.445Z" fill="#F0F0F0"/>
<path d="M123.951 163.445H123.134C118.35 163.445 114.471 167.324 114.471 172.109V216.369C114.471 221.154 118.35 225.033 123.134 225.033H123.951C128.736 225.033 132.615 221.154 132.615 216.369V172.109C132.615 167.324 128.736 163.445 123.951 163.445Z" fill="#F5F5F5"/>
<path d="M259.507 129.585H212.139V226.971H259.507V129.585Z" fill="#F0F0F0"/>
<path d="M219.219 219.393V137.177H218.125V219.393H219.219Z" fill="#E6E6E6"/>
<path d="M252.525 137.177H218.132V138.561H252.525V137.177Z" fill="#E6E6E6"/>
<path d="M307.968 129.585H260.6V226.971H307.968V129.585Z" fill="#F0F0F0"/>
<path d="M307.975 226.978H314.244V129.592H307.975V226.978Z" fill="#E0E0E0"/>
<path d="M267.686 219.386V137.17H266.593V219.386H267.686Z" fill="#E6E6E6"/>
<path d="M260.6 226.978V130.7H259.507V226.978H260.6Z" fill="#E6E6E6"/>
<path d="M300.985 137.177H266.593V138.561H300.985V137.177Z" fill="#E6E6E6"/>
<path d="M257.431 151.134H255.078V172.655H257.431V151.134Z" fill="#E0E0E0"/>
<path d="M265.029 151.134H262.676V172.655H265.029V151.134Z" fill="#E0E0E0"/>
<path d="M294.868 28.041H53.3463V114.188H294.868V28.041Z" fill="#E0E0E0"/>
<path d="M292.654 28.041H51.1319V114.188H292.654V28.041Z" fill="#F0F0F0"/>
<path d="M285.408 106.943V35.2866L58.3771 35.2866V106.943L285.408 106.943Z" fill="#FAFAFA"/>
<path d="M95.233 106.936L110.277 35.2866H143.486L128.442 106.936H95.233Z" fill="white"/>
<path d="M142.455 106.936L157.499 35.2866H174.107L159.063 106.936H142.455Z" fill="white"/>
<path d="M243.84 106.936L258.891 35.2866H275.492L260.448 106.936H243.84Z" fill="white"/>
<path d="M173 258.228C247.101 258.228 307.172 254.721 307.172 250.394C307.172 246.068 247.101 242.561 173 242.561C98.8989 242.561 38.8281 246.068 38.8281 250.394C38.8281 254.721 98.8989 258.228 173 258.228Z" fill="#F5F5F5"/>
<path d="M114.879 42.3797C116.623 38.3799 101.177 34.7469 96.5063 47.0645C92.2713 58.2334 85.2405 61.0775 88.5483 68.8072C92.1259 77.1804 112.374 78.1838 121.162 68.9041C128.29 61.382 120.546 58.2196 121.55 51.1404C122.546 44.0682 120.45 41.7569 114.886 42.3728L114.879 42.3797Z" fill="#263238"/>
<path d="M86.7353 66.3292C85.9325 61.9696 87.5518 60.1704 89.5932 57.8937C91.4616 55.8177 93.7867 53.2296 95.06 47.6798C96.0911 43.1749 99.1705 40.227 103.731 39.3827C108.298 38.5385 113.135 40.0263 114.408 41.9293C114.83 42.5521 114.851 43.2164 114.478 43.8046L113.896 43.4309C114.118 43.078 114.097 42.7182 113.834 42.3168C112.699 40.6283 108.09 39.2789 103.855 40.0678C100.831 40.6283 96.9699 42.4344 95.7313 47.839C94.4165 53.5687 92.0291 56.226 90.1053 58.3643C88.1124 60.5856 86.6661 62.1841 87.4134 66.2116L86.7353 66.3361V66.3292Z" fill="#263238"/>
<path d="M77.2203 63.0217L76.7912 61.6446C76.5006 60.7035 75.9608 59.8593 75.2411 59.188L73.8779 57.9286C72.9783 57.0913 71.6081 57.0221 70.6255 57.7556L69.1377 58.8628C68.0028 59.7139 67.7745 61.3263 68.6395 62.4543L69.5944 63.6999C69.5944 63.6999 71.8296 67.4851 75.0751 68.8068L75.8224 68.1702C75.8224 68.1702 75.8501 68.1494 75.857 68.1356C77.3033 66.8831 77.7877 64.8417 77.2133 63.0148L77.2203 63.0217Z" fill="#FFC3BD"/>
<path d="M104.118 87.041L103.675 87.38L103.316 87.643L102.617 88.1274C102.153 88.4319 101.689 88.7225 101.219 88.9924C100.278 89.5391 99.3089 90.0235 98.3124 90.4664C96.3126 91.3314 94.1743 92.0095 91.9114 92.3694C89.6555 92.7569 87.2543 92.7846 84.8738 92.4109C83.6835 92.2171 82.5071 91.9265 81.3723 91.5044C81.0885 91.4075 80.8048 91.2968 80.528 91.1791L80.1128 91.0061L79.9052 90.9162L79.6769 90.8124L79.3932 90.674C78.6666 90.3003 78.1268 89.8712 77.7323 89.5045C77.3171 89.117 77.0265 88.771 76.7566 88.4388C75.7601 87.124 75.3173 86.0514 74.8744 85.0134C74.4592 83.9823 74.1409 83.0066 73.8572 82.0447C73.3243 80.114 72.916 78.2526 72.6046 76.3911C71.9749 72.6612 71.6151 69.0144 71.5459 65.2499C71.5182 63.7067 72.7499 62.4265 74.2931 62.3988C75.5179 62.3781 76.5767 63.1462 76.9781 64.2396L77.0057 64.3157C78.2098 67.6304 79.3655 71.0212 80.5903 74.2528C81.2131 75.8582 81.829 77.4568 82.521 78.91C82.8531 79.6366 83.1992 80.3355 83.5452 80.9306C83.8773 81.5188 84.2925 82.0447 84.424 82.1278C84.4447 82.1347 84.4517 82.1278 84.3825 82.0378C84.3202 81.9755 84.1541 81.8094 83.8289 81.6364L83.6974 81.5672C83.6628 81.5465 83.5728 81.5188 83.6213 81.5326L83.732 81.5603L83.9534 81.6157C84.0987 81.6572 84.2441 81.6987 84.3894 81.7195C84.9707 81.8579 85.5658 81.8856 86.1609 81.934C87.3512 81.9963 88.5898 81.844 89.8631 81.5465C91.1295 81.2351 92.4373 80.7853 93.7245 80.1763C94.368 79.8857 95.0047 79.5466 95.6275 79.2075C95.9389 79.0345 96.2433 78.8546 96.534 78.6747L97.2537 78.2249L97.7934 77.8927C100.409 76.2665 103.842 77.0762 105.468 79.6919C106.99 82.1416 106.353 85.3317 104.125 87.0548L104.118 87.041Z" fill="#FFC3BD"/>
<path d="M116.284 247.371C120.664 245.931 124.359 242.969 123.612 237.773C123.294 235.544 130.435 234.672 130.435 234.672C129.619 241.752 130.511 242.942 131.362 244.575C132.22 246.215 132.165 248.125 130.684 248.305C128.913 248.512 128.518 248.319 126.318 248.609C123.75 248.948 122.083 250.298 116.934 250.298C114.118 250.298 114.872 247.834 116.284 247.371Z" fill="#146C94"/>
<path d="M129.577 171.763C130.082 136.305 126.795 116.977 126.795 116.977L100.561 118.285C100.561 118.285 104.444 150.726 111.329 174.621C113.17 187.443 117.315 209.131 120.187 223.697C124.719 223.241 129.266 222.459 132.76 221.317C133.777 208.522 133.964 190.011 129.577 171.763Z" fill="#146C94"/>
<path d="M130.144 238.146C130.144 238.146 131.169 231.448 131.861 221.317C128.871 222.459 124.982 223.241 121.1 223.697C122.595 232.548 123.66 238.174 123.66 238.174C124.961 238.811 128.269 239.032 130.144 238.146Z" fill="#FFC3BD"/>
<path d="M118.775 219.455C119.01 220.673 119.64 223.725 120.27 224.797C120.346 224.922 120.47 225.012 120.623 225.026C125.515 225.642 130.4 224.659 132.421 223.773C132.532 223.725 132.622 223.635 132.663 223.517C133.21 222.057 133.418 218.964 133.48 217.663C133.494 217.358 133.224 217.123 132.926 217.185C131.321 217.504 126.435 218.383 119.204 218.902C118.927 218.922 118.72 219.178 118.775 219.448V219.455Z" fill="#263238"/>
<path d="M100.921 76.5918C97.0322 77.3115 91.1018 80.5708 91.1018 80.5708C91.1018 80.5708 87.9808 88.0444 91.7176 93.4282C95.3991 94.2932 97.2744 93.5873 97.2744 93.5873L100.921 76.5918Z" fill="#263238"/>
<path opacity="0.2" d="M91.7177 93.4283C95.3991 94.2933 97.2745 93.5874 97.2745 93.5874L97.143 83.498C94.6241 86.8681 92.5412 90.1966 91.7177 93.4213V93.4283Z" fill="black"/>
<path opacity="0.2" d="M129.439 150.843C126.505 143.667 123.349 137.757 122.138 132.36C120.076 147.037 121.695 160.538 129.591 170.212C129.681 163.071 129.605 156.608 129.439 150.843Z" fill="black"/>
<path d="M169.519 207.117L159.049 214.563C150.503 203.429 137.687 186.42 134.587 179.015C126.712 160.227 110.879 118.832 110.879 118.832L131.432 114.057C131.432 114.057 144.4 126.098 152.766 171.535C159.79 181.465 165.686 196.108 169.519 207.117Z" fill="#146C94"/>
<path d="M168.938 242.409C171.547 237.309 171.581 231.69 168.765 227.261C167.554 225.365 173.706 221.622 173.706 221.622C175.879 228.41 177.65 228.805 179.159 229.849C180.716 230.929 180.82 233.171 179.546 233.939C178.017 234.86 177.429 235.462 176.079 237.219C174.502 239.275 173.616 242.146 171.353 243.925C169.907 245.06 167.782 244.638 168.931 242.409H168.938Z" fill="#146C94"/>
<path d="M174.848 224.728C174.848 224.728 173.041 218.376 169.491 208.861C167.242 211.131 164.018 213.442 160.668 215.463C165.672 222.908 169.332 228.258 169.332 228.258C171.554 227.552 173.505 226.306 174.848 224.728Z" fill="#FFC3BD"/>
<path d="M156.807 212.563C157.52 213.573 159.354 216.099 160.371 216.812C160.495 216.895 160.648 216.923 160.786 216.881C165.499 215.428 169.54 212.515 171.021 210.875C171.104 210.785 171.145 210.667 171.138 210.542C171.035 208.985 169.948 206.086 169.464 204.875C169.353 204.591 169.007 204.487 168.765 204.667C167.436 205.615 163.347 208.432 156.973 211.885C156.731 212.016 156.648 212.335 156.807 212.563Z" fill="#263238"/>
<path d="M94.9839 86.9443C95.925 93.0616 92.2713 97.8156 97.8834 100.639C96.9492 105.289 98.3332 114.597 100.561 118.285C103.675 119.98 118.948 117.475 131.425 114.057C131.245 108.728 126.857 98.2446 128.075 80.7924C128.359 76.7442 125.072 73.3465 121.017 73.4918C119.931 73.5333 118.789 73.5956 117.626 73.6994C113.094 74.1008 109.384 74.4606 105.475 75.3671C104.181 75.6647 102.845 76.0176 101.572 76.3774C96.9838 77.6715 94.2573 82.2318 94.9839 86.9443Z" fill="#263238"/>
<path d="M103.807 82.2597C103.807 82.2597 107.71 80.8272 109.765 84.3426C113.17 82.4257 117.972 74.3224 117.626 73.7065C111.917 75.2705 103.8 82.2666 103.8 82.2666L103.807 82.2597Z" fill="white"/>
<path d="M103.807 82.2592C103.807 82.2592 100.838 81.9063 100.001 84.529C100.029 79.339 103.502 76.0797 105.032 75.4707C104.52 76.8201 103.807 82.2592 103.807 82.2592Z" fill="white"/>
<path d="M116.131 59.9634C115.695 64.0047 115.626 70.5164 117.633 73.6996C117.633 73.6996 110.056 78.9173 103.807 82.2596C101.849 77.727 105.032 75.4711 105.032 75.4711C108 74.3293 107.973 70.5371 107.571 67.6238L116.124 59.9634H116.131Z" fill="#FFC3BD"/>
<path opacity="0.2" d="M107.571 67.6238L112.436 63.2642C112.616 63.9216 112.54 64.8834 112.284 65.7069C111.523 68.1012 109.516 70.025 107.731 71.0699C107.82 69.9212 107.717 68.7102 107.571 67.6238Z" fill="black"/>
<path d="M117.695 52.4411C117.038 59.0082 116.9 61.8039 113.509 65.0563C108.402 69.9487 100.638 67.7066 99.3504 61.0704C98.1948 55.0984 99.4611 45.362 105.883 42.9884C112.208 40.6494 118.353 45.874 117.695 52.4411Z" fill="#FFC3BD"/>
<path d="M116.228 57.2501C113.862 55.1395 114.27 51.4996 116 49.7419C117.73 47.9912 120.166 51.6103 120.166 51.6103L116.235 57.2432L116.228 57.2501Z" fill="#263238"/>
<path d="M108.236 54.261C108.215 54.7938 107.91 55.2228 107.564 55.209C107.212 55.1952 106.949 54.7523 106.969 54.2125C106.99 53.6797 107.295 53.2506 107.641 53.2645C107.994 53.2783 108.256 53.7212 108.236 54.261Z" fill="#263238"/>
<path d="M101.634 54.0954C101.613 54.6283 101.309 55.0573 100.963 55.0435C100.61 55.0296 100.347 54.5868 100.368 54.047C100.388 53.5142 100.693 53.0851 101.039 53.099C101.392 53.1128 101.655 53.5557 101.634 54.0954Z" fill="#263238"/>
<path d="M101.191 53.1399L99.9178 52.7178C99.9178 52.7178 100.541 53.7489 101.191 53.1399Z" fill="#263238"/>
<path d="M103.26 54.3091C103.26 54.3091 102.257 56.5788 101.212 57.6584C101.897 58.3434 103.108 58.0943 103.108 58.0943L103.253 54.316L103.26 54.3091Z" fill="#ED847E"/>
<path d="M106.118 60.1917C105.841 60.2332 105.537 60.247 105.219 60.2332C105.129 60.2332 105.066 60.1571 105.066 60.0671C105.066 59.9841 105.142 59.9149 105.232 59.9149C107.585 60.0117 108.748 58.4063 108.762 58.3925C108.81 58.3233 108.914 58.3025 108.983 58.3579C109.052 58.4063 109.073 58.5101 109.018 58.5793C108.976 58.6416 108.035 59.9356 106.125 60.1917H106.118Z" fill="#263238"/>
<path d="M118.789 57.9494C118.166 59.195 117.114 59.9562 116.131 60.2053C114.657 60.572 113.972 58.9528 114.429 57.3335C114.837 55.8734 116.097 53.9289 117.557 54.2887C118.996 54.6416 119.501 56.5308 118.789 57.9563V57.9494Z" fill="#FFC3BD"/>
<path d="M114.291 43.0853C109.073 46.3723 103.509 47.9847 98.9698 48.566C98.9283 43.8396 108.208 38.532 114.291 43.0853Z" fill="#263238"/>
<path d="M110.727 43.666C109.647 47.818 120.373 55.4093 118.36 62.7514C121.875 57.2708 119.342 44.9601 119.342 44.9601C119.342 44.9601 110.249 39.2234 110.734 43.666H110.727Z" fill="#263238"/>
<path d="M109.613 50.7313C109.53 50.7175 109.454 50.669 109.405 50.5998C108.616 49.4373 107.454 49.4442 107.44 49.4442C107.267 49.4442 107.122 49.3058 107.122 49.1328C107.122 48.9598 107.26 48.8145 107.433 48.8145C107.495 48.8145 108.948 48.8006 109.931 50.2469C110.028 50.3922 109.993 50.586 109.848 50.6829C109.779 50.7313 109.696 50.7451 109.62 50.7313H109.613Z" fill="#263238"/>
<path d="M98.7138 50.4967C98.6377 50.4967 98.5546 50.4621 98.4993 50.4067C98.3747 50.2821 98.3747 50.0815 98.4993 49.9638C99.731 48.7321 101.157 49.0158 101.219 49.0227C101.392 49.0573 101.496 49.2234 101.461 49.3964C101.426 49.5694 101.26 49.6732 101.087 49.6386C101.032 49.6247 99.9248 49.4241 98.9422 50.4067C98.8799 50.469 98.7968 50.5036 98.7138 50.4967Z" fill="#263238"/>
<path d="M107.793 53.2991L106.52 52.877C106.52 52.877 107.142 53.908 107.793 53.2991Z" fill="#263238"/>
<path opacity="0.2" d="M127.916 84.1697C127.785 88.2663 127.958 91.9478 128.283 95.2278C124.802 91.5741 120.477 84.6748 120.193 81.2148L127.916 84.1697Z" fill="black"/>
<path d="M150.51 71.153L151.271 66.7588L158.094 69.3953C158.094 69.3953 156.517 73.485 153.603 75.2912L152.794 74.7791C151.472 73.9418 150.635 72.6131 150.51 71.153Z" fill="#FFC3BD"/>
<path d="M155.527 64.3087L157.769 65.5267C158.793 66.0803 159.174 67.3605 158.627 68.3846L158.094 69.388L151.271 66.7515L152.891 64.807C153.541 64.0319 154.641 63.8174 155.534 64.3018L155.527 64.3087Z" fill="#FFC3BD"/>
<path d="M126.698 76.1697L127.563 77.0693L128.511 78.0312C129.155 78.6609 129.798 79.3044 130.463 79.9134C131.778 81.1521 133.141 82.3008 134.497 83.3734C135.86 84.4183 137.251 85.3594 138.58 86.0722C139.915 86.778 141.175 87.214 142.102 87.3316L140.241 87.6776C139.784 87.8991 139.812 87.996 139.909 87.9198C140.012 87.8576 140.206 87.6984 140.421 87.4839C140.85 87.0548 141.341 86.4459 141.805 85.7885C142.746 84.4529 143.701 82.9374 144.593 81.3666C145.514 79.8027 146.4 78.1765 147.285 76.5434L149.949 71.6163L149.97 71.5748C150.704 70.2116 152.406 69.7064 153.769 70.4399C154.842 71.0212 155.389 72.2114 155.202 73.3532C154.883 75.3462 154.447 77.2284 153.963 79.1453C153.472 81.0552 152.897 82.9444 152.247 84.8474C151.562 86.7365 150.842 88.6464 149.839 90.584C149.334 91.5598 148.78 92.5424 148.019 93.6012C147.638 94.134 147.195 94.6807 146.6 95.262C145.998 95.8294 145.251 96.5006 143.908 97.0819C143.403 97.3034 142.877 97.4141 142.351 97.421H142.047C138.981 97.4833 136.366 96.7152 134.11 95.7602C132.975 95.2758 131.902 94.743 130.885 94.1755C129.881 93.5942 128.913 92.9784 127.985 92.3417C126.131 91.0684 124.435 89.6775 122.823 88.2243C122.027 87.4908 121.238 86.7504 120.484 85.9753C120.104 85.5878 119.73 85.1934 119.363 84.792C118.982 84.3699 118.657 84.0031 118.221 83.491C116.228 81.1382 116.519 77.609 118.872 75.6161C121.128 73.7062 124.463 73.893 126.491 75.9898L126.684 76.1904L126.698 76.1697Z" fill="#FFC3BD"/>
<path d="M121.328 73.5054C126.401 73.6576 131.445 79.7541 131.445 79.7541C131.445 79.7541 129.487 87.8159 123.93 91.2898C120.809 88.8539 118.152 86.9025 118.152 86.9025C113.73 80.4046 115.204 76.0935 121.321 73.5123L121.328 73.5054Z" fill="#263238"/>
<path d="M99.5511 117.801C99.9248 119.973 100.375 121.669 100.52 122.195C100.548 122.306 100.624 122.395 100.728 122.451C101.468 122.866 104.845 124.499 111.038 124.167C117.993 123.786 128.11 120.029 133.383 115.988C133.542 115.87 133.598 115.655 133.521 115.469C133.079 114.431 132.414 113.358 132.103 112.867C131.999 112.701 131.798 112.631 131.612 112.687C129.342 113.372 115.052 117.468 100.001 117.289C99.7311 117.289 99.5166 117.531 99.565 117.801H99.5511Z" fill="#146C94"/>
<path opacity="0.3" d="M99.5511 117.801C99.9248 119.973 100.375 121.669 100.52 122.195C100.548 122.306 100.624 122.395 100.728 122.451C101.468 122.866 104.845 124.499 111.038 124.167C117.993 123.786 128.11 120.029 133.383 115.988C133.542 115.87 133.598 115.655 133.521 115.469C133.079 114.431 132.414 113.358 132.103 112.867C131.999 112.701 131.798 112.631 131.612 112.687C129.342 113.372 115.052 117.468 100.001 117.289C99.7311 117.289 99.5166 117.531 99.565 117.801H99.5511Z" fill="white"/>
<path d="M238.235 229.752H147.126C139.943 229.752 134.407 223.877 134.829 216.687L145.936 27.3145C146.358 20.1315 152.579 14.2495 159.762 14.2495H250.871C258.054 14.2495 263.59 20.1246 263.168 27.3145L252.061 216.687C251.639 223.87 245.418 229.752 238.235 229.752Z" fill="#146C94"/>
<path opacity="0.8" d="M238.235 229.752H147.126C139.943 229.752 134.407 223.877 134.829 216.687L145.936 27.3145C146.358 20.1315 152.579 14.2495 159.762 14.2495H250.871C258.054 14.2495 263.59 20.1246 263.168 27.3145L252.061 216.687C251.639 223.87 245.418 229.752 238.235 229.752Z" fill="white"/>
<path d="M237.695 225.96H149.126C144.074 225.96 140.185 221.829 140.483 216.777L151.541 28.2351C151.839 23.1835 156.212 19.0522 161.257 19.0522H249.826C254.877 19.0522 258.766 23.1835 258.469 28.2351L247.411 216.777C247.113 221.829 242.74 225.96 237.695 225.96Z" fill="#146C94"/>
<path d="M236.74 224.95H148.171C143.119 224.95 139.23 220.819 139.528 215.767L150.586 27.2248C150.884 22.1732 155.257 18.042 160.302 18.042H248.871C253.923 18.042 257.812 22.1732 257.514 27.2248L246.456 215.767C246.158 220.819 241.785 224.95 236.74 224.95Z" fill="white"/>
<path opacity="0.1" d="M234.152 217.939H151.576C148.455 217.939 146.054 215.386 146.233 212.265L150.849 133.619C151.029 130.498 153.735 127.945 156.856 127.945H239.432C242.553 127.945 244.954 130.498 244.774 133.619L240.159 212.265C239.979 215.386 237.273 217.939 234.152 217.939Z" fill="#146C94"/>
<path opacity="0.1" d="M215.807 32.027H191.739C190.625 32.027 189.76 31.1135 189.83 29.9925C189.892 28.8714 190.861 27.958 191.982 27.958H216.049C217.163 27.958 218.028 28.8714 217.959 29.9925C217.897 31.1066 216.928 32.027 215.807 32.027Z" fill="#146C94"/>
<path opacity="0.1" d="M237.142 82.6191C235.965 102.687 218.741 118.956 198.673 118.956C178.605 118.956 163.291 102.687 164.468 82.6191C165.644 62.5511 182.868 46.2822 202.936 46.2822C223.004 46.2822 238.318 62.5511 237.142 82.6191Z" fill="#146C94"/>
<path d="M175.353 106.687C169.249 100.217 166.184 91.6154 166.717 82.4741L167.409 82.5156C166.883 91.4632 169.886 99.8779 175.858 106.21L175.353 106.687Z" fill="#146C94"/>
<path d="M234.879 82.7573L234.187 82.7158C234.367 79.6226 234.131 76.5639 233.474 73.6229L234.152 73.4707C234.816 76.474 235.065 79.5949 234.879 82.7504V82.7573Z" fill="#146C94"/>
<path d="M231.488 67.6095C230.069 64.454 228.139 61.5614 225.744 59.0218C222.43 55.5064 218.458 52.8768 213.946 51.2091L214.188 50.5586C218.804 52.2609 222.859 54.9528 226.249 58.5443C228.699 61.1393 230.671 64.0941 232.125 67.3258L231.495 67.6095H231.488Z" fill="#146C94"/>
<path d="M232.464 82.619C231.439 100.106 216.43 114.278 198.943 114.278C181.456 114.278 168.115 100.106 169.139 82.619C170.163 65.1321 185.172 50.96 202.659 50.96C220.146 50.96 233.488 65.1321 232.464 82.619Z" fill="#146C94"/>
<path d="M197.282 86.9095C197.282 86.9095 197.296 86.9095 197.303 86.9095C198.825 86.5773 199.538 85.2694 199.857 83.7885C199.891 83.6363 199.919 83.4841 199.946 83.3249C199.953 83.2765 199.96 83.2349 199.967 83.1865C200.057 82.5637 200.099 81.9201 200.106 81.325C197.22 81.0067 194.798 78.7646 194.667 75.4153C194.563 72.8826 195.144 69.5887 196.514 66.9522C196.237 66.9868 195.912 67.0975 195.58 67.3397C195.525 67.3812 195.455 67.3951 195.393 67.3812C195.338 67.3674 195.282 67.3397 195.241 67.2843C195.165 67.1805 195.186 67.0283 195.289 66.9522C195.843 66.5439 196.383 66.4539 196.784 66.4539C196.881 66.2879 196.978 66.1149 197.082 65.9557C196.646 65.9626 196.217 65.9695 195.801 65.9557C196.258 62.7587 202.41 60.0737 206.604 62.5234C208.472 62.8971 211.551 65.5613 211.551 65.5613C211.551 65.5613 211.669 67.8725 211.406 70.6682C211.129 73.5539 210.444 76.9585 208.783 78.8477C209.219 77.865 209.33 76.8339 209.226 75.7752C208.783 76.2042 208.278 76.4672 207.787 76.5917C207.586 77.0277 207.365 77.4291 207.109 77.8097C206.458 80.7783 205.995 84.7366 206.984 87.0063C207.877 87.0617 208.742 87.1447 209.565 87.2347C209.634 87.2416 209.697 87.2555 209.766 87.2693C210.306 86.951 210.832 86.5981 211.33 86.2036C217.551 81.3527 210.942 75.6783 212.506 70.4675C214.063 65.2568 212.748 63.2777 208.493 63.1047C210.264 60.2951 199.047 55.7902 194.12 64.5371C189.656 72.4605 188.217 76.4118 189.823 82.6121C190.328 84.5774 191.726 86.2036 193.635 87.38C193.947 87.297 194.265 87.2278 194.59 87.1863C195.469 87.0755 196.383 86.9787 197.275 86.9025L197.282 86.9095Z" fill="#263238"/>
<path d="M187.601 99.0958C187.297 98.5768 187.055 98.1063 186.882 97.7188C186.411 99.1166 185.947 100.514 185.491 101.892C185.069 103.137 184.653 104.383 184.224 105.573L183.581 107.255L183.297 107.919C183.2 108.106 183.297 108.002 183.283 108.05C183.159 108.237 182.73 108.632 182.307 108.998C182.224 109.068 182.134 109.137 182.051 109.213C183.947 110.486 185.996 111.559 188.189 112.375C188.238 109.213 188.625 105.926 189.041 105.047C186.598 103.317 186.972 101.428 187.594 99.1027L187.601 99.0958Z" fill="#FFC3BD"/>
<path d="M190.023 89.7607C189.961 89.8369 189.906 89.9199 189.843 90.0029C189.899 89.9199 189.961 89.8438 190.023 89.7677V89.7607Z" fill="#263238"/>
<path d="M188.425 94.3975C188.425 92.8197 188.909 91.3458 189.746 90.1348C187.989 92.5775 186.494 96.771 186.494 96.771C186.494 96.771 186.619 97.1447 186.881 97.7122C187.054 98.0928 187.297 98.5702 187.601 99.0892C187.975 97.6983 188.432 96.1552 188.425 94.3906V94.3975Z" fill="#263238"/>
<path d="M212.548 104.438C211.814 103.386 211.053 102.058 210.368 100.653C210.16 100.764 209.946 100.874 209.724 100.971C207.648 98.7775 205.877 97.006 205.877 97.006C203.289 91.6084 204.887 88.5289 209.794 87.2833C210.541 87.4217 211.261 87.7331 211.939 88.1483C211.309 87.7055 210.576 87.401 209.766 87.2764C209.697 87.2626 209.634 87.2487 209.565 87.2418C208.742 87.1449 207.877 87.0688 206.984 87.0135C207.171 87.5186 202.735 93.8989 199.946 94.9507C198.805 92.072 195.601 91.8782 195.601 91.8782C195.601 91.8782 192.611 91.2623 191.684 93.1446C192.293 89.2555 196.037 87.2072 197.282 86.9097C196.39 86.9858 195.476 87.0827 194.597 87.1934C194.265 87.2349 193.954 87.3041 193.642 87.3871C192.182 87.7816 190.944 88.6327 190.037 89.7676C189.975 89.8437 189.912 89.9199 189.857 90.0029C189.822 90.0444 189.788 90.0929 189.76 90.1344C188.916 91.3454 188.432 92.8193 188.438 94.3971C188.438 96.1617 187.982 97.7049 187.615 99.0958C186.992 101.421 186.619 103.31 189.061 105.04C188.653 105.919 188.259 109.206 188.21 112.368C191.525 113.607 195.144 114.278 198.957 114.278C203.759 114.278 208.368 113.206 212.562 111.289C212.465 109.074 212.437 106.493 212.624 103.559C212.603 103.85 212.582 104.147 212.569 104.431L212.548 104.438Z" fill="#263238"/>
<path d="M195.601 91.8779C195.601 91.8779 198.805 92.0786 199.946 94.9504C202.728 93.8986 207.171 87.5183 206.984 87.0132C206.984 87.0132 200.68 90.0787 195.601 91.8779Z" fill="white"/>
<path d="M197.296 86.9023C197.296 86.9023 197.282 86.9023 197.275 86.9023C196.037 87.1999 192.293 89.2482 191.677 93.1373C192.604 91.255 195.594 91.8709 195.594 91.8709C194.632 88.231 197.289 86.9023 197.289 86.9023H197.296Z" fill="white"/>
<path d="M199.946 83.3189C199.953 83.2702 199.96 83.2284 199.967 83.1797C199.967 83.2284 199.953 83.2702 199.946 83.3189Z" fill="#FFC3BD"/>
<path d="M207.109 77.8164C206.562 78.626 205.863 79.3319 204.867 80.0308C204.486 80.3007 204.092 80.5152 203.69 80.702C202.797 82.2521 201.199 83.3593 199.829 83.906C199.836 83.8645 199.843 83.823 199.85 83.7884C199.524 85.2692 198.812 86.5771 197.296 86.9093C197.296 86.9093 194.639 88.2448 195.601 91.8778C200.687 90.0786 206.984 87.0131 206.984 87.0131C205.995 84.7433 206.451 80.7851 207.109 77.8164Z" fill="#FFC3BD"/>
<path d="M200.106 81.3184C200.099 81.9204 200.057 82.557 199.967 83.1798C200.064 82.5501 200.099 81.9135 200.106 81.3184Z" fill="#263238"/>
<path opacity="0.2" d="M200.106 81.3184C200.099 81.9204 200.057 82.557 199.967 83.1798C200.064 82.5501 200.099 81.9135 200.106 81.3184Z" fill="black"/>
<path d="M203.69 80.7021C202.5 81.2627 201.268 81.4495 200.106 81.3249C200.099 81.9201 200.057 82.5636 199.967 83.1864C199.967 83.2349 199.953 83.2764 199.946 83.3248C199.919 83.4771 199.891 83.6362 199.857 83.7885C199.85 83.83 199.843 83.8715 199.836 83.9061C201.206 83.3594 202.798 82.2522 203.697 80.7021H203.69Z" fill="#FFC3BD"/>
<path opacity="0.2" d="M203.69 80.7021C202.5 81.2627 201.268 81.4495 200.106 81.3249C200.099 81.9201 200.057 82.5636 199.967 83.1864C199.967 83.2349 199.953 83.2764 199.946 83.3248C199.919 83.4771 199.891 83.6362 199.857 83.7885C199.85 83.83 199.843 83.8715 199.836 83.9061C201.206 83.3594 202.798 82.2522 203.697 80.7021H203.69Z" fill="black"/>
<path d="M203.69 80.7023C204.085 80.5155 204.479 80.301 204.867 80.0311C205.856 79.3322 206.562 78.6263 207.109 77.8167C207.365 77.4361 207.586 77.0347 207.787 76.5988C207.655 76.6334 207.524 76.668 207.399 76.6818C206.244 76.7925 205.918 75.4916 206.444 74.3221C206.603 73.9692 206.846 73.5817 207.136 73.2426C206.811 72.2392 206.936 71.1527 207.344 70.2531C206.292 68.0941 205.178 66.115 205.074 64.6479C202.258 65.5199 199.504 65.9005 197.088 65.9558C196.985 66.115 196.888 66.288 196.791 66.4541C197.172 66.4541 197.428 66.5509 197.448 66.5579C197.573 66.6063 197.635 66.7447 197.587 66.8693C197.538 66.9938 197.4 67.0561 197.275 67.0077C197.248 67.0007 196.936 66.8969 196.507 66.9523C195.13 69.5957 194.556 72.8827 194.66 75.4155C194.798 78.7647 197.213 81.0068 200.099 81.3251C201.261 81.4497 202.493 81.2629 203.683 80.7023H203.69ZM202.147 67.1045C202.195 67.1045 203.289 67.2706 203.863 68.4678C203.919 68.5854 203.863 68.7307 203.752 68.7861C203.697 68.8138 203.635 68.8138 203.573 68.7999C203.51 68.7792 203.462 68.7377 203.427 68.6754C202.964 67.7066 202.092 67.582 202.085 67.582C201.953 67.5613 201.863 67.4436 201.877 67.3121C201.898 67.1807 202.016 67.0907 202.147 67.1045ZM201.905 70.5299C201.905 70.5299 201.898 70.5299 201.891 70.5299C202.092 70.6476 202.195 70.9521 202.133 71.2981C202.057 71.6994 201.78 71.9831 201.517 71.9347C201.254 71.8863 201.102 71.5195 201.185 71.1181C201.227 70.8898 201.344 70.7029 201.476 70.5922C201.178 70.4815 200.998 70.0663 200.998 70.0663L201.912 70.5299H201.905ZM196.23 70.2393C196.272 70.0109 196.39 69.8241 196.521 69.7134C196.223 69.6027 196.044 69.1875 196.044 69.1875L196.957 69.6511C196.957 69.6511 196.95 69.6511 196.943 69.6511C197.144 69.7687 197.248 70.0732 197.185 70.4192C197.109 70.8206 196.832 71.1043 196.569 71.0559C196.307 71.0074 196.154 70.6407 196.237 70.2393H196.23ZM197.836 73.5955C197.836 73.5955 196.895 73.6509 196.459 73.0488C197.365 72.3568 198.383 70.7652 198.383 70.7652L197.843 73.5955H197.836ZM199.171 75.4501C199.109 75.4362 199.061 75.3739 199.075 75.3117C199.088 75.2494 199.151 75.2079 199.213 75.2148C200.971 75.5539 202.029 74.4813 202.043 74.4674C202.092 74.419 202.168 74.419 202.216 74.4674C202.265 74.5159 202.265 74.592 202.216 74.6404C202.175 74.6819 201.324 75.5469 199.85 75.5262C199.635 75.5262 199.407 75.4985 199.164 75.457L199.171 75.4501Z" fill="#FFC3BD"/>
<path d="M208.306 72.3709C208.015 71.6513 207.683 70.9454 207.351 70.2534C206.943 71.153 206.818 72.2395 207.143 73.2429C207.482 72.8415 207.891 72.5163 208.313 72.3779L208.306 72.3709Z" fill="#263238"/>
<path d="M201.476 70.5926C201.337 70.7033 201.227 70.8901 201.185 71.1185C201.109 71.5198 201.261 71.8866 201.517 71.935C201.78 71.9835 202.057 71.6998 202.133 71.2984C202.202 70.9524 202.092 70.6479 201.891 70.5303C201.732 70.6341 201.593 70.6341 201.469 70.5926H201.476Z" fill="#263238"/>
<path d="M197.185 70.4263C197.255 70.0803 197.144 69.7758 196.943 69.6582C196.784 69.762 196.646 69.762 196.521 69.7205C196.383 69.8312 196.272 70.018 196.23 70.2464C196.154 70.6478 196.307 71.0145 196.563 71.063C196.826 71.1114 197.102 70.8277 197.179 70.4263H197.185Z" fill="#263238"/>
<path d="M196.943 69.658C196.943 69.658 196.95 69.658 196.957 69.658L196.044 69.1943C196.044 69.1943 196.224 69.6095 196.521 69.7203C196.639 69.7687 196.784 69.7618 196.943 69.658Z" fill="#263238"/>
<path d="M196.459 73.0561C196.895 73.6512 197.836 73.6027 197.836 73.6027L198.376 70.7725C198.376 70.7725 197.365 72.371 196.452 73.0561H196.459Z" fill="#ED847E"/>
<path d="M202.223 74.4674C202.175 74.4189 202.099 74.4259 202.05 74.4674C202.036 74.4812 200.978 75.5538 199.22 75.2147C199.151 75.2009 199.088 75.2424 199.081 75.3116C199.068 75.3739 199.109 75.4431 199.178 75.45C199.421 75.4985 199.649 75.5192 199.863 75.5192C201.337 75.54 202.189 74.675 202.23 74.6335C202.278 74.585 202.272 74.5089 202.23 74.4605L202.223 74.4674Z" fill="#263238"/>
<path d="M208.306 72.3707C207.884 72.5091 207.475 72.8413 207.136 73.2357C206.846 73.5748 206.604 73.9623 206.444 74.3152C205.918 75.4847 206.244 76.7857 207.399 76.6749C207.524 76.6611 207.655 76.6265 207.787 76.5919C208.278 76.4673 208.783 76.2044 209.226 75.7753C209.115 74.6474 208.763 73.4986 208.306 72.3638V72.3707Z" fill="#FFC3BD"/>
<path d="M205.219 63.61C205.261 62.6135 205.828 62.3713 206.603 62.5304C202.41 60.0808 196.258 62.7657 195.801 65.9628C196.217 65.9697 196.646 65.9697 197.082 65.9628C199.504 65.9074 202.258 65.5268 205.067 64.6549C205.04 64.2743 205.081 63.9214 205.213 63.6169L205.219 63.61Z" fill="#263238"/>
<path d="M205.22 63.6102C205.088 63.9146 205.047 64.2676 205.074 64.6482C205.178 66.1152 206.292 68.0874 207.344 70.2534C207.683 70.9454 208.015 71.6581 208.299 72.3709C208.756 73.4988 209.109 74.6545 209.219 75.7824C209.323 76.8412 209.219 77.8723 208.776 78.8549C210.444 76.9658 211.129 73.5611 211.399 70.6755C211.662 67.8867 211.544 65.5685 211.544 65.5685C211.544 65.5685 208.458 62.9043 206.597 62.5306C205.822 62.3784 205.254 62.6137 205.213 63.6102H205.22Z" fill="#263238"/>
<path d="M202.085 67.5819C202.085 67.5819 202.971 67.7065 203.427 68.6753C203.455 68.7376 203.51 68.7791 203.573 68.7998C203.628 68.8206 203.69 68.8137 203.753 68.786C203.87 68.7306 203.926 68.5853 203.863 68.4677C203.289 67.2705 202.196 67.1114 202.147 67.1044C202.016 67.0906 201.898 67.1806 201.877 67.312C201.863 67.4435 201.953 67.5612 202.085 67.5819Z" fill="#263238"/>
<path d="M197.282 67.0077C197.407 67.0561 197.545 66.9939 197.594 66.8693C197.642 66.7447 197.58 66.6063 197.455 66.5579C197.434 66.551 197.178 66.461 196.798 66.4541C196.396 66.4541 195.857 66.5441 195.303 66.9523C195.199 67.0285 195.172 67.1807 195.255 67.2845C195.296 67.3329 195.345 67.3675 195.407 67.3814C195.469 67.3952 195.538 67.3814 195.594 67.3399C195.926 67.0977 196.251 66.9869 196.528 66.9523C196.957 66.897 197.268 67.0008 197.296 67.0077H197.282Z" fill="#263238"/>
<path d="M201.476 70.5923C201.593 70.6408 201.739 70.6339 201.898 70.5301C201.898 70.5301 201.905 70.5301 201.912 70.5301L200.998 70.0664C200.998 70.0664 201.178 70.4816 201.476 70.5923Z" fill="#263238"/>
<path d="M212.548 104.438C212.562 104.154 212.589 103.857 212.603 103.566C212.216 102.95 211.814 102.328 211.413 101.705C211.15 101.31 210.88 100.916 210.617 100.521C210.534 100.57 210.451 100.605 210.368 100.653C211.053 102.058 211.814 103.393 212.548 104.438Z" fill="#263238"/>
<path opacity="0.2" d="M212.548 104.438C212.562 104.154 212.589 103.857 212.603 103.566C212.216 102.95 211.814 102.328 211.413 101.705C211.15 101.31 210.88 100.916 210.617 100.521C210.534 100.57 210.451 100.605 210.368 100.653C211.053 102.058 211.814 103.393 212.548 104.438Z" fill="black"/>
<path d="M214.603 110.168L214.582 110.278C217.343 108.784 219.89 106.922 222.139 104.742C221.744 103.573 221.295 102.507 220.81 101.469C220.125 99.9814 219.371 98.5974 218.568 97.2411C217.883 96.0508 217.143 94.916 216.388 93.7949C215.683 95.2412 213.731 98.722 210.61 100.514C210.88 100.909 211.143 101.303 211.406 101.698C211.814 102.32 212.209 102.936 212.596 103.559C212.935 104.106 213.267 104.645 213.579 105.185C214.105 106.119 214.61 107.061 214.991 107.919L214.921 108.389C214.831 108.964 214.721 109.559 214.603 110.161V110.168Z" fill="#FFC3BD"/>
<path d="M205.877 97.0058C205.877 97.0058 207.649 98.7773 209.725 100.971C209.946 100.874 210.154 100.763 210.368 100.653C210.451 100.611 210.534 100.57 210.617 100.521C213.738 98.7289 215.69 95.2481 216.395 93.8018C216.596 93.3936 216.7 93.1444 216.7 93.1444C216.7 93.1444 214.7 89.8228 211.946 88.1482C211.268 87.7399 210.548 87.4216 209.801 87.2832C204.894 88.5288 203.296 91.6082 205.884 97.0058H205.877Z" fill="#263238"/>
<path d="M239.058 27.5914H248.809C249.355 27.5914 249.826 27.1485 249.853 26.6019C249.888 26.0552 249.466 25.6123 248.926 25.6123H239.176C238.629 25.6123 238.159 26.0552 238.131 26.6019C238.096 27.1485 238.519 27.5914 239.065 27.5914H239.058Z" fill="#146C94"/>
<path d="M238.858 30.9821H248.608C249.155 30.9821 249.625 30.5392 249.653 29.9925C249.687 29.4458 249.265 29.0029 248.719 29.0029H238.968C238.422 29.0029 237.951 29.4458 237.923 29.9925C237.889 30.5392 238.311 30.9821 238.851 30.9821H238.858Z" fill="#146C94"/>
<path d="M159.977 30.9821H169.727C170.273 30.9821 170.744 30.5392 170.772 29.9925C170.806 29.4458 170.384 29.0029 169.838 29.0029H160.087C159.541 29.0029 159.07 29.4458 159.042 29.9925C159.008 30.5392 159.43 30.9821 159.977 30.9821Z" fill="#146C94"/>
<path d="M238.657 34.38H248.407C248.954 34.38 249.424 33.9371 249.452 33.3904C249.487 32.8438 249.065 32.4009 248.518 32.4009H238.768C238.221 32.4009 237.75 32.8438 237.723 33.3904C237.688 33.9371 238.11 34.38 238.657 34.38Z" fill="#146C94"/>
<path d="M225.841 158.532H166.855C162.156 158.532 158.537 154.691 158.814 149.992C159.091 145.294 163.16 141.453 167.858 141.453H226.844C231.543 141.453 235.162 145.294 234.886 149.992C234.609 154.691 230.54 158.532 225.841 158.532Z" fill="white"/>
<path d="M224.499 181.485H165.513C160.814 181.485 157.195 177.645 157.471 172.946C157.748 168.247 161.817 164.407 166.516 164.407H225.502C230.201 164.407 233.82 168.254 233.543 172.946C233.266 177.645 229.197 181.485 224.499 181.485Z" fill="white"/>
<path d="M223.149 204.432H164.163C159.465 204.432 155.845 200.591 156.122 195.892C156.399 191.194 160.468 187.353 165.167 187.353H224.153C228.851 187.353 232.471 191.194 232.194 195.892C231.917 200.591 227.848 204.432 223.149 204.432Z" fill="white"/>
<path d="M172.862 149.992C172.716 152.421 170.633 154.394 168.204 154.394C165.776 154.394 163.921 152.421 164.066 149.992C164.212 147.564 166.295 145.591 168.723 145.591C171.152 145.591 173.007 147.564 172.862 149.992Z" fill="#146C94"/>
<path d="M167.941 168.773L168.523 170.967C168.592 171.216 168.813 171.389 169.076 171.389H171.381C171.969 171.389 172.17 172.143 171.671 172.489L169.727 173.846C169.505 173.998 169.402 174.275 169.464 174.531L170.045 176.725C170.197 177.285 169.526 177.756 169.069 177.41L167.284 176.053C167.076 175.901 166.793 175.901 166.564 176.053L164.62 177.41C164.122 177.756 163.506 177.292 163.72 176.725L164.565 174.531C164.661 174.282 164.585 174.005 164.385 173.846L162.599 172.489C162.143 172.143 162.433 171.389 163.021 171.389H165.326C165.589 171.389 165.831 171.216 165.928 170.967L166.772 168.773C166.987 168.213 167.782 168.213 167.935 168.773H167.941Z" fill="#146C94"/>
<path d="M169.561 193.568L169.201 199.726C169.173 200.252 168.716 200.688 168.184 200.688H162.793C162.267 200.688 161.859 200.259 161.893 199.726L162.343 192.059C162.371 191.526 162.827 191.097 163.36 191.097H167.236L169.561 193.568Z" fill="#146C94"/>
<path d="M167.229 191.097L169.554 193.567H168.038C167.505 193.567 167.104 193.138 167.139 192.605L167.229 191.09M166.613 189.401L166.516 191.055L166.426 192.571C166.398 193.027 166.557 193.456 166.862 193.782C167.166 194.107 167.588 194.287 168.045 194.287H171.215L170.08 193.083L167.755 190.612L166.62 189.401H166.613Z" fill="white"/>
<path opacity="0.2" d="M223.862 149.086H179.726C178.958 149.086 178.37 148.463 178.418 147.695C178.46 146.927 179.124 146.304 179.892 146.304H224.028C224.796 146.304 225.384 146.927 225.336 147.695C225.294 148.463 224.63 149.086 223.862 149.086Z" fill="#146C94"/>
<path opacity="0.2" d="M215.496 153.673H179.456C178.688 153.673 178.1 153.051 178.149 152.283C178.19 151.514 178.854 150.892 179.623 150.892H215.662C216.43 150.892 217.018 151.514 216.97 152.283C216.928 153.051 216.264 153.673 215.496 153.673Z" fill="#146C94"/>
<path opacity="0.2" d="M222.409 173.846H210.23C209.461 173.846 208.804 174.468 208.756 175.237C208.714 176.005 209.302 176.628 210.064 176.628H222.243C223.011 176.628 223.668 176.005 223.717 175.237C223.758 174.468 223.17 173.846 222.409 173.846Z" fill="#146C94"/>
<path opacity="0.2" d="M203.109 173.846H178.266C177.498 173.846 176.841 174.468 176.792 175.237C176.751 176.005 177.339 176.628 178.1 176.628H202.943C203.711 176.628 204.368 176.005 204.417 175.237C204.458 174.468 203.87 173.846 203.109 173.846Z" fill="#146C94"/>
<path opacity="0.2" d="M214.582 169.25H178.543C177.775 169.25 177.117 169.873 177.069 170.641C177.027 171.41 177.616 172.032 178.377 172.032H214.416C215.184 172.032 215.842 171.41 215.89 170.641C215.932 169.873 215.343 169.25 214.582 169.25Z" fill="#146C94"/>
<path opacity="0.2" d="M221.059 196.792H176.924C176.155 196.792 175.498 197.415 175.45 198.183C175.408 198.952 175.996 199.574 176.758 199.574H220.893C221.661 199.574 222.319 198.952 222.367 198.183C222.409 197.415 221.821 196.792 221.059 196.792Z" fill="#146C94"/>
<path opacity="0.2" d="M213.233 192.205H177.194C176.425 192.205 175.768 192.827 175.72 193.595C175.678 194.364 176.266 194.986 177.027 194.986H213.067C213.835 194.986 214.492 194.364 214.541 193.595C214.582 192.827 213.994 192.205 213.233 192.205Z" fill="#146C94"/>
</g>
<defs>
<clipPath id="clip0_11043_1222">
<rect width="346" height="257.846" fill="white" transform="translate(0 0.381836)"/>
</clipPath>
</defs>
</svg>
