<svg width="20" height="20" viewBox="0 0 20 20" fill="none" xmlns="http://www.w3.org/2000/svg">
<path d="M18.1524 12.4425L18.8724 11.7225C18.9651 11.63 19.0387 11.5201 19.0889 11.3991C19.1391 11.2782 19.1649 11.1485 19.1649 11.0175C19.1649 10.8865 19.1391 10.7568 19.0889 10.6359C19.0387 10.5149 18.9651 10.405 18.8724 10.3125L18.8524 10.2925C18.7599 10.1998 18.65 10.1262 18.5291 10.0761C18.4081 10.0259 18.2784 10.0001 18.1474 10.0001C18.0165 10.0001 17.8868 10.0259 17.7658 10.0761C17.6448 10.1262 17.535 10.1998 17.4424 10.2925L14.5824 13.1525L6.01244 4.5825L8.87244 1.7225C8.96515 1.62999 9.0387 1.5201 9.08888 1.39912C9.13906 1.27815 9.16489 1.14847 9.16489 1.0175C9.16489 0.886531 9.13906 0.756849 9.08888 0.635876C9.0387 0.514902 8.96515 0.405014 8.87244 0.3125L8.85244 0.2925C8.75993 0.199796 8.65004 0.126249 8.52907 0.0760674C8.4081 0.025886 8.27841 5.59986e-05 8.14744 5.59986e-05C8.01648 5.59986e-05 7.88679 0.025886 7.76582 0.0760674C7.64485 0.126249 7.53496 0.199796 7.44244 0.2925L6.72244 1.0125L6.00244 0.2925C5.61244 -0.0975 4.97244 -0.0975 4.58244 0.2925L3.15244 1.7225L2.43244 1.0025C2.24169 0.815007 1.98492 0.709944 1.71744 0.709944C1.44997 0.709944 1.1932 0.815007 1.00244 1.0025C0.814951 1.19326 0.709888 1.45003 0.709888 1.7175C0.709888 1.98497 0.814951 2.24174 1.00244 2.4325L1.72244 3.1525L0.292444 4.5825C0.19974 4.67501 0.126193 4.7849 0.0760114 4.90588C0.02583 5.02685 0 5.15653 0 5.2875C0 5.41847 0.02583 5.54815 0.0760114 5.66912C0.126193 5.7901 0.19974 5.89999 0.292444 5.9925L1.01244 6.7125L0.292444 7.4425C0.19974 7.53501 0.126193 7.6449 0.0760114 7.76588C0.02583 7.88685 0 8.01653 0 8.1475C0 8.27847 0.02583 8.40815 0.0760114 8.52912C0.126193 8.6501 0.19974 8.75999 0.292444 8.8525L0.312444 8.8725C0.702444 9.2625 1.33244 9.2625 1.72244 8.8725L4.58244 6.0125L13.1524 14.5825L10.2924 17.4425C10.1997 17.535 10.1262 17.6449 10.076 17.7659C10.0258 17.8869 10 18.0165 10 18.1475C10 18.2785 10.0258 18.4082 10.076 18.5291C10.1262 18.6501 10.1997 18.76 10.2924 18.8525L10.3124 18.8725C10.7024 19.2625 11.3324 19.2625 11.7224 18.8725L12.4424 18.1525L13.1624 18.8725C13.5524 19.2625 14.1824 19.2625 14.5724 18.8725L16.0024 17.4425L16.7224 18.1625C17.1124 18.5525 17.7624 18.5525 18.1524 18.1625C18.5424 17.7725 18.5424 17.1225 18.1524 16.7325L17.4324 16.0125L18.8724 14.5825C18.9651 14.49 19.0387 14.3801 19.0889 14.2591C19.1391 14.1382 19.1649 14.0085 19.1649 13.8775C19.1649 13.7465 19.1391 13.6168 19.0889 13.4959C19.0387 13.3749 18.9651 13.265 18.8724 13.1725L18.1524 12.4425Z" fill="#8C8F90"/>
</svg>
