<svg width="16" height="20" viewBox="0 0 16 20" fill="none" xmlns="http://www.w3.org/2000/svg">
<path id="Vector" fill-rule="evenodd" clip-rule="evenodd" d="M13.7651 4.68092e-09C14.0464 -1.92342e-05 14.3244 0.0592667 14.5812 0.173988C14.8379 0.288709 15.0676 0.456287 15.2552 0.665783C15.4428 0.875278 15.5841 1.12198 15.6699 1.38979C15.7557 1.6576 15.7841 1.94049 15.7531 2.22L13.9751 18.22C13.921 18.7094 13.6882 19.1616 13.3214 19.49C12.9546 19.8184 12.4795 20 11.9871 20H3.77714C3.28477 20 2.8097 19.8184 2.44288 19.49C2.07607 19.1616 1.8433 18.7094 1.78914 18.22L0.012137 2.22C-0.0187876 1.94057 0.00954494 1.65777 0.0952865 1.39003C0.181028 1.12229 0.322252 0.875635 0.509746 0.666155C0.697239 0.456676 0.92679 0.289077 1.18342 0.174294C1.44006 0.0595107 1.718 0.000121335 1.99914 4.68092e-09H13.7651ZM8.88214 13C8.61692 13 8.36257 13.1054 8.17503 13.2929C7.98749 13.4804 7.88214 13.7348 7.88214 14C7.88214 14.2652 7.98749 14.5196 8.17503 14.7071C8.36257 14.8946 8.61692 15 8.88214 15C9.14735 15 9.40171 14.8946 9.58924 14.7071C9.77678 14.5196 9.88214 14.2652 9.88214 14C9.88214 13.7348 9.77678 13.4804 9.58924 13.2929C9.40171 13.1054 9.14735 13 8.88214 13ZM5.88214 10C5.61692 10 5.36257 10.1054 5.17503 10.2929C4.98749 10.4804 4.88214 10.7348 4.88214 11C4.88214 11.2652 4.98749 11.5196 5.17503 11.7071C5.36257 11.8946 5.61692 12 5.88214 12C6.14735 12 6.40171 11.8946 6.58924 11.7071C6.77678 11.5196 6.88214 11.2652 6.88214 11C6.88214 10.7348 6.77678 10.4804 6.58924 10.2929C6.40171 10.1054 6.14735 10 5.88214 10ZM13.7651 2H1.99914L2.42414 5.823L2.61114 5.79C2.87114 5.746 3.17214 5.71 3.51114 5.69C4.63914 5.623 6.17414 5.747 7.94114 6.443L8.27614 6.581C9.76814 7.221 11.0411 7.353 11.9571 7.322L13.1811 7.254L13.7651 2Z" fill="#8C8F91"/>
</svg>
