<svg width="22" height="22" viewBox="0 0 22 22" fill="none" xmlns="http://www.w3.org/2000/svg">
<g id="Group">
<path id="Vector" d="M21.3591 9.38433C21.3591 8.4894 20.9552 7.65071 20.2669 7.09248C20.2969 6.94957 20.3117 6.81226 20.3117 6.67715C20.3117 5.56238 19.4874 4.63654 18.4165 4.47708C18.4411 4.34902 18.4527 4.2234 18.4527 4.09826C18.4527 2.91144 17.5174 1.94177 16.3457 1.88018C16.3264 1.87701 16.307 1.87433 16.2868 1.87433C16.277 1.87433 16.2675 1.87555 16.2575 1.87579C16.2478 1.87555 16.2383 1.87433 16.2283 1.87433C16.1168 1.87433 16.0046 1.88432 15.886 1.90501C15.6801 0.813128 14.7289 0 13.5886 0C12.2956 0 11.2437 1.05195 11.2437 2.34517V18.393C11.2437 20.0297 12.5751 21.3609 14.2116 21.3609C15.2974 21.3609 16.2829 20.7735 16.8034 19.8403C16.92 19.8657 17.032 19.8812 17.1444 19.8885C17.8512 19.9336 18.5394 19.7021 19.074 19.2329C19.6086 18.7638 19.9285 18.1145 19.9748 17.4046C19.994 17.1088 19.9609 16.812 19.8767 16.5189C20.8008 15.8638 21.344 14.8264 21.344 13.6898C21.344 12.8657 21.0472 12.0745 20.5053 11.4442C21.0506 10.892 21.3591 10.1534 21.3591 9.38433ZM20.6141 13.6903C20.6141 14.5384 20.229 15.3165 19.5685 15.8373C19.0796 15.0592 18.2125 14.5623 17.2735 14.5623C17.0719 14.5623 16.9083 14.7259 16.9083 14.9275C16.9083 15.1291 17.0719 15.2927 17.2735 15.2927C18.0868 15.2927 18.8277 15.8022 19.1193 16.5606C19.2191 16.8254 19.2634 17.0935 19.2461 17.3576C19.2126 17.8728 18.9805 18.3438 18.5925 18.6842C18.2044 19.0248 17.7061 19.194 17.1921 19.1599C17.0475 19.1504 16.8981 19.1192 16.7216 19.062C16.5414 19.0031 16.3464 19.0922 16.2721 19.2665C15.9204 20.0952 15.1114 20.6308 14.2113 20.6308C12.9775 20.6308 11.9738 19.6271 11.9738 18.3933V2.34541C11.9738 1.45511 12.698 0.730598 13.5883 0.730598C14.4156 0.730598 15.0963 1.35432 15.1849 2.16891C14.5152 2.55259 14.0621 3.27296 14.0621 4.09851C14.0621 4.30033 14.2257 4.46369 14.4273 4.46369C14.6288 4.46369 14.7924 4.30033 14.7924 4.09851C14.7924 3.28465 15.4471 2.62197 16.2571 2.60615C17.067 2.62197 17.7217 3.28465 17.7217 4.09826C17.7217 4.24969 17.6932 4.40647 17.6343 4.57811C17.6204 4.61852 17.6138 4.66088 17.6145 4.70348C17.6148 4.71347 17.6153 4.72272 17.6162 4.73148C17.6148 4.73659 17.6138 4.74 17.6138 4.74C17.5851 4.85321 17.6123 4.97347 17.6871 5.06331C17.7618 5.15314 17.8733 5.20183 17.9916 5.19428C18.017 5.19258 18.0423 5.18941 18.0871 5.18308C18.9107 5.18308 19.5809 5.85331 19.5809 6.6769C19.5809 6.81616 19.5558 6.95906 19.5025 7.12705C19.4531 7.28164 19.5118 7.45035 19.6464 7.54091C20.2389 7.93993 20.598 8.59482 20.6236 9.30399C20.6236 9.30496 20.6234 9.30594 20.6234 9.30691C20.6234 10.5315 19.6271 11.5279 18.4026 11.5279C17.178 11.5279 16.1816 10.5315 16.1816 9.30691C16.1816 9.10509 16.018 8.94173 15.8164 8.94173C15.6148 8.94173 15.4512 9.10509 15.4512 9.30691C15.4512 10.9344 16.7751 12.2583 18.4026 12.2583C18.945 12.2583 19.4519 12.1086 19.8891 11.8522C20.3565 12.361 20.6141 13.0118 20.6141 13.6903Z" fill="#8C8F90"/>
<path id="Vector_2" d="M7.77 0.000244141C6.62967 0.000244141 5.67875 0.813372 5.47303 1.90525C5.35423 1.88456 5.242 1.87458 5.1305 1.87458C5.12076 1.87458 5.11127 1.8758 5.10128 1.87604C5.09155 1.8758 5.08205 1.87458 5.07207 1.87458C5.05186 1.87458 5.03239 1.87726 5.01315 1.88042C3.84142 1.94201 2.90632 2.91168 2.90632 4.09851C2.90632 4.22364 2.91825 4.34926 2.9426 4.47732C1.87166 4.63678 1.04733 5.56263 1.04733 6.67739C1.04733 6.81226 1.06218 6.94957 1.09212 7.09272C0.403886 7.65095 0 8.48965 0 9.38457C0 10.1536 0.30821 10.8923 0.853298 11.4449C0.311131 12.0752 0.0143636 12.8664 0.0143636 13.6905C0.0143636 14.8272 0.557504 15.8643 1.48165 16.5197C1.39717 16.8128 1.3643 17.1095 1.38378 17.4056C1.43003 18.1152 1.74969 18.7645 2.28431 19.2337C2.81893 19.703 3.50522 19.9345 4.2139 19.8893C4.32467 19.882 4.43764 19.8659 4.55474 19.8408C5.07523 20.7742 6.06073 21.3617 7.14652 21.3617C8.783 21.3617 10.1144 20.0302 10.1144 18.3937V2.34541C10.1149 1.0522 9.06297 0.000244141 7.77 0.000244141ZM9.38457 18.3933C9.38457 19.6271 8.38082 20.6308 7.14701 20.6308C6.24697 20.6308 5.43798 20.0952 5.08643 19.2665C5.02776 19.1285 4.89338 19.044 4.75023 19.044C4.71274 19.044 4.67451 19.0496 4.63702 19.062C4.46076 19.1192 4.31128 19.1504 4.16643 19.1599C3.65056 19.1937 3.15416 19.0245 2.76634 18.6842C2.37828 18.3438 2.14627 17.8728 2.11267 17.3576C2.09417 17.0752 2.1431 16.7889 2.25826 16.5068C2.25996 16.5026 2.25947 16.498 2.26094 16.4938C2.58765 15.7499 3.28952 15.288 4.11044 15.288C4.31226 15.288 4.47561 15.1244 4.47561 14.9229C4.47561 14.7213 4.31226 14.5577 4.11044 14.5577C3.15172 14.5577 2.28431 15.0463 1.78596 15.8331C1.1284 15.3124 0.744718 14.5363 0.744718 13.6903C0.744718 13.0118 1.00278 12.361 1.46972 11.8524C1.90696 12.1088 2.41407 12.2585 2.95648 12.2585C4.58395 12.2585 5.90784 10.9346 5.90784 9.30716C5.90784 9.10533 5.74448 8.94198 5.54266 8.94198C5.34084 8.94198 5.17748 9.10533 5.17748 9.30716C5.17748 10.5317 4.18128 11.5282 2.95648 11.5282C1.73167 11.5282 0.735467 10.5317 0.735467 9.30716C0.735467 9.30667 0.735224 9.30618 0.735224 9.30569C0.760299 8.59603 1.11939 7.94066 1.71219 7.54116C1.84682 7.45059 1.90525 7.28212 1.85607 7.12753C1.80252 6.95931 1.77768 6.8164 1.77768 6.67715C1.77768 5.85526 2.44498 5.18601 3.28587 5.18601C3.28757 5.18601 3.28952 5.18601 3.29122 5.18601C3.3163 5.18941 3.34137 5.19258 3.36694 5.19428C3.48501 5.20159 3.59773 5.15265 3.67222 5.06233C3.74696 4.97177 3.77374 4.85102 3.7438 4.73757C3.7438 4.73733 3.74307 4.73416 3.74185 4.73002C3.74258 4.7215 3.74331 4.71371 3.74355 4.70689C3.74477 4.66307 3.7382 4.61949 3.72384 4.57811C3.66492 4.40599 3.63644 4.24896 3.63644 4.09802C3.63644 3.28441 4.29083 2.62149 5.10104 2.60591C5.91125 2.62173 6.56565 3.28441 6.56565 4.09826C6.56565 4.30009 6.729 4.46344 6.93082 4.46344C7.13264 4.46344 7.296 4.30009 7.296 4.09826C7.296 3.27272 6.84294 2.55235 6.1732 2.16867C6.26182 1.35408 6.94251 0.730356 7.76976 0.730356C8.66006 0.730356 9.38433 1.45487 9.38433 2.34517L9.38457 18.3933Z" fill="#8C8F90"/>
</g>
</svg>
