<svg width="20" height="20" viewBox="0 0 20 20" fill="none" xmlns="http://www.w3.org/2000/svg">
<g id="Group">
<g id="Group_2">
<path id="Vector" fill-rule="evenodd" clip-rule="evenodd" d="M9.5984 19.6187H1.44721C1.00352 19.6187 0.604556 19.2816 0.426844 18.7591C0.249133 18.2367 0.327985 17.6281 0.624563 17.2078L7.13398 7.90445H1.40131C0.785798 7.90445 0.238541 7.31925 0.238541 6.52536C0.238541 5.73001 0.738722 5.08789 1.35306 5.08789H9.62194C10.0621 5.08789 10.4646 5.42354 10.6411 5.94745C10.8177 6.47136 10.7412 7.07699 10.4434 7.49875L3.9799 16.8197H9.59722C10.2127 16.8197 10.7117 17.3873 10.7117 18.1812C10.7129 18.9751 10.2151 19.6187 9.5984 19.6187Z" fill="#A953E9"/>
<path id="Vector_2" fill-rule="evenodd" clip-rule="evenodd" d="M18.7806 12.2272H11.6556C11.3567 12.2272 11.0884 12.0053 10.966 11.6565C10.8436 11.3107 10.893 10.9021 11.0919 10.6189L17.1129 2.05398H11.2284C10.8118 2.05398 10.8542 0.696777 11.2696 0.696777H18.4463C18.7441 0.696777 18.9712 0.867522 19.0936 1.21339C19.2172 1.55926 19.1666 1.96788 18.9677 2.25245L13.0432 10.8087H18.7806C19.1972 10.8101 19.1972 12.2272 18.7806 12.2272Z" fill="#A953E9"/>
</g>
</g>
</svg>
