<svg width="26" height="30" viewBox="0 0 26 30" fill="none" xmlns="http://www.w3.org/2000/svg">
<path d="M19.4189 10.1623C19.9886 9.29598 20.5261 7.8653 19.1997 6.51448C17.8666 5.15831 18.7528 3.18273 18.7528 3.18273C18.7528 3.18273 15.9527 5.79427 17.7212 7.59504C18.7485 8.64053 19.0037 9.48735 19.0037 10.0717C17.6114 9.78001 16.063 9.59351 14.4131 9.5341C15.0844 8.32937 15.5448 6.54029 13.9271 4.84276C12.15 2.9782 13.3328 0.260986 13.3328 0.260986C13.3328 0.260986 9.59893 3.8518 11.9573 6.32749C13.211 7.64325 13.6001 8.72673 13.6569 9.51706C13.5322 9.5156 13.4084 9.51316 13.2827 9.51316C11.7835 9.51316 10.3536 9.61834 9.0316 9.81118C9.49731 8.93855 9.76364 7.69584 8.60345 6.51448C7.27036 5.1588 8.157 3.18273 8.157 3.18273C8.157 3.18273 5.35695 5.79427 7.12492 7.59504C8.06261 8.54947 8.35494 9.3364 8.39925 9.91149C3.87071 10.6901 0.760023 12.5342 0.760987 14.7489C0.762431 14.8648 0.773027 14.9802 0.787475 15.0664C0.916063 16.3695 1.5513 20.8933 4.32631 24.731L3.83507 26.0945L7.2275 27.3426C7.24725 27.3543 7.26892 27.365 7.28867 27.3762C7.57474 27.7482 8.00337 28.1626 8.64872 28.5449C9.296 28.9276 10.8362 29.4784 13.2818 29.4784C15.7283 29.4784 17.2695 28.9276 17.9158 28.5454C18.5602 28.1636 18.9883 27.7492 19.2739 27.3786C20.5434 26.6311 21.5264 25.7103 22.1809 24.8158C25.004 20.9625 25.6475 16.3792 25.7741 15.0912C25.7915 14.9783 25.8021 14.8638 25.8045 14.727C25.8045 12.7383 23.2577 11.0437 19.4189 10.1623ZM7.91668 22.753V22.4906C8.04891 22.5509 8.15386 22.6593 8.2107 22.7943C8.26753 22.9292 8.27209 23.0808 8.22346 23.219C8.16643 23.36 8.05762 23.4732 7.91986 23.5348C7.7821 23.5964 7.6261 23.6017 7.48457 23.5495C7.34304 23.4974 7.22698 23.3919 7.16074 23.2551C7.09449 23.1183 7.08321 22.9609 7.12925 22.8158C7.15564 22.7425 7.1963 22.6752 7.24883 22.618C7.30135 22.5608 7.36468 22.5148 7.43507 22.4828V22.753H7.91668ZM24.8403 14.7387C24.8384 14.816 24.8313 14.8931 24.8191 14.9695C24.6953 16.219 24.0842 20.5827 21.4069 24.2358C20.0782 26.0517 17.2463 27.9917 13.2827 27.9917C11.6246 27.9917 10.1672 27.6494 8.93238 27.1215L9.74533 24.8615L8.09824 21.8448L7.91668 21.9155V18.0729C9.49056 18.4133 11.3226 18.6105 13.2818 18.6105C18.3916 18.6105 22.6562 17.2811 23.6551 15.511C22.6562 13.7419 18.3916 12.4115 13.2818 12.4115C8.17193 12.4115 3.90828 13.7419 2.90702 15.511C3.48446 16.5317 5.1513 17.4043 7.43507 17.9614V22.1039L4.91772 23.0856L4.72749 23.6135C2.41386 20.0996 1.86194 16.1479 1.7425 14.9427C1.731 14.8714 1.72456 14.7993 1.72323 14.727C1.72323 13.2384 4.18665 11.6772 8.18445 10.9336C8.16904 10.9584 8.157 10.974 8.157 10.974L8.20179 10.9302C9.69862 10.6536 11.4035 10.4871 13.2827 10.4871C20.1967 10.4871 24.8413 12.6789 24.8427 14.6885L24.8403 14.7387Z" fill="#146C94"/>
</svg>
