<svg width="43" height="35" viewBox="0 0 43 35" fill="none" xmlns="http://www.w3.org/2000/svg">
<path id="Vector" d="M14.3812 10.6784C10.3864 12.4251 7.20494 15.5598 5.43002 19.5016C5.16211 20.0964 5.4348 20.7904 6.03761 21.0548C6.19548 21.1256 6.35814 21.1586 6.52081 21.1586C6.98008 21.1586 7.41544 20.899 7.61159 20.4599C9.14731 17.0515 11.8934 14.3418 15.3476 12.8311C15.9504 12.5668 16.2231 11.8728 15.9552 11.278C15.692 10.6832 14.984 10.4141 14.3812 10.6784ZM24.648 5.55638C24.9924 4.99933 25.2029 4.35258 25.2029 3.6539C25.2029 1.6334 23.5428 0 21.5 0C19.4524 0 17.7971 1.63812 17.7971 3.6539C17.7971 4.35258 18.0076 5.00405 18.352 5.55638C7.98476 7.06231 0.00478408 15.8949 0.00478408 26.5356V29.0896C0.00478408 29.741 0.54061 30.2698 1.20082 30.2698H41.804C42.4642 30.2698 43 29.741 43 29.0896V26.5356C42.9952 15.8949 35.0105 7.06704 24.648 5.55638ZM40.6079 27.9094H2.39208V26.5356C2.39208 16.1404 10.9653 7.68546 21.5 7.68546C32.0347 7.68546 40.6079 16.1404 40.6079 26.5356V27.9094ZM41.7992 32.6396H1.19604C0.535825 32.6396 0 33.1683 0 33.8198C0 34.4713 0.535825 35 1.19604 35H41.7992C42.4594 35 42.9952 34.4713 42.9952 33.8198C42.9952 33.1683 42.4594 32.6396 41.7992 32.6396Z" fill="#6F60B3"/>
</svg>
