<svg width="25" height="21" viewBox="0 0 25 21" fill="none" xmlns="http://www.w3.org/2000/svg">
<path d="M12.8994 1.31348C8.3268 1.31348 4.62 5.02028 4.62 9.59286C4.62 14.1654 8.3268 17.8722 12.8994 17.8722C17.472 17.8722 21.1788 14.1654 21.1788 9.59286C21.1788 5.02028 17.472 1.31348 12.8994 1.31348ZM12.8993 15.8751C9.43535 15.8751 6.61717 13.0569 6.61717 9.59291C6.61717 6.12893 9.43535 3.31075 12.8993 3.31075C16.3633 3.31075 19.1815 6.12893 19.1815 9.59291C19.1815 13.0569 16.3634 15.8751 12.8993 15.8751Z" fill="#146C94"/>
<path d="M12.8992 4.99463C10.3637 4.99463 8.30099 7.05738 8.30099 9.59284C8.30099 12.1283 10.3637 14.1911 12.8992 14.1911C15.4347 14.1911 17.4974 12.1283 17.4974 9.59284C17.4974 7.05738 15.4347 4.99463 12.8992 4.99463Z" fill="#146C94"/>
<path d="M24.4785 10.2871V0.226164C24.4785 0.129093 24.4166 0.0428133 24.3245 0.0118073C24.2325 -0.0191499 24.131 0.0121491 24.0722 0.0894931C22.8169 1.74492 22.1375 3.76544 22.1375 5.84294V9.52352C22.1375 9.94564 22.4797 10.2879 22.9019 10.2879H23.2206C22.9064 13.5322 22.6989 18.0696 22.6989 18.6009C22.6989 19.438 23.2141 20.1165 23.8496 20.1165C24.4851 20.1165 25.0002 19.4379 25.0002 18.6009C25.0002 18.0696 24.7927 13.5314 24.4785 10.2871Z" fill="#146C94"/>
<path d="M3.34069 8.29285C3.97751 7.90711 4.40314 7.20769 4.40314 6.40876L4.08771 1.25147C4.07565 1.05488 3.91271 0.901611 3.71574 0.901611C3.5027 0.901611 3.33297 1.08008 3.34357 1.29273L3.5487 5.42893C3.5487 5.66145 3.36017 5.84987 3.12775 5.84987C2.89528 5.84987 2.7068 5.66135 2.7068 5.42893L2.60431 1.29444C2.59889 1.07593 2.42022 0.90166 2.20162 0.90166C1.98302 0.90166 1.8044 1.07598 1.79893 1.29444L1.69644 5.42893C1.69644 5.66145 1.50792 5.84987 1.27549 5.84987C1.04302 5.84987 0.854545 5.66135 0.854545 5.42893L1.05967 1.29273C1.07022 1.07998 0.900394 0.901611 0.687503 0.901611C0.490529 0.901611 0.327589 1.05488 0.315577 1.25147L0 6.40881C0 7.20774 0.425588 7.90711 1.06246 8.2929C1.47691 8.54393 1.70797 9.01327 1.65455 9.49491C1.29502 12.7351 1.05088 18.0249 1.05088 18.6011C1.05088 19.4381 1.56607 20.1166 2.20157 20.1166C2.83707 20.1166 3.35226 19.4381 3.35226 18.6011C3.35226 18.0249 3.10807 12.7351 2.7486 9.49491C2.69513 9.01351 2.92643 8.54378 3.34069 8.29285Z" fill="#146C94"/>
</svg>
