<svg width="34" height="31" viewBox="0 0 34 31" fill="none" xmlns="http://www.w3.org/2000/svg">
<path id="Vector" fill-rule="evenodd" clip-rule="evenodd" d="M5.71419 0.808586C6.86084 0.276686 8.09688 0 9.35003 0C10.6032 0 11.8392 0.276686 12.9859 0.808586C14.1319 1.34021 15.1614 2.11392 16.0206 3.07619C16.5447 3.66315 17.4553 3.66315 17.9794 3.07619C19.7164 1.13087 22.1116 1.72291e-05 24.65 1.72291e-05C27.1884 1.72291e-05 29.5836 1.13087 31.3206 3.07619C33.0526 5.01574 34 7.61227 34 10.2877C34 12.9632 33.0526 15.5597 31.3206 17.4991L20.7837 29.2992C18.7588 31.5669 15.2412 31.5669 13.2163 29.2992L2.67942 17.4991C1.82046 16.5373 1.14706 15.4045 0.690234 14.1695C0.233427 12.9344 0 11.6158 0 10.2877C0 8.95953 0.233427 7.64098 0.690234 6.40597C1.14706 5.17087 1.82046 4.03809 2.67942 3.07619C3.53867 2.11392 4.56817 1.34021 5.71419 0.808586Z" fill="#146C94"/>
</svg>
