<svg width="26" height="35" viewBox="0 0 26 35" fill="none" xmlns="http://www.w3.org/2000/svg">
<g id="Group">
<path id="Vector" d="M4.97663 14.3464C4.42419 14.3464 3.97241 14.7982 3.97241 15.3507C3.97241 15.9031 4.42419 16.3537 4.97663 16.3537H20.4379C20.9904 16.3537 21.4421 15.9031 21.4421 15.3507C21.4421 14.7982 20.9904 14.3464 20.4379 14.3464H4.97663Z" fill="#146C94"/>
<path id="Vector_2" d="M0.910591 34.6345C0.440507 34.6345 0.0424805 34.2433 0.0424805 33.7812V1.18874C0.0424805 0.710654 0.431357 0.321777 0.910591 0.321777H17.7284C17.9571 0.321777 18.1802 0.417853 18.354 0.591704L25.7301 7.98151C25.9017 8.1302 26 8.35209 26 8.59228V33.7801C26 34.2421 25.6008 34.6333 25.1319 34.6333L0.910591 34.6345ZM1.7787 32.9142H24.2787V9.45924H17.7284C17.2514 9.45924 16.8614 9.07037 16.8614 8.59342V2.04199H1.7787V32.9142ZM18.5976 7.73903H23.0583L18.5976 3.26123V7.73903Z" fill="#146C94"/>
<path id="Vector_3" d="M4.97663 18.8094C4.42419 18.8094 3.97241 19.2612 3.97241 19.8137C3.97241 20.3661 4.42419 20.8179 4.97663 20.8179H20.4379C20.9904 20.8179 21.4421 20.3661 21.4421 19.8137C21.4421 19.2612 20.9904 18.8094 20.4379 18.8094H4.97663Z" fill="#146C94"/>
<path id="Vector_4" d="M4.97663 23.2712C4.42419 23.2712 3.97241 23.723 3.97241 24.2755C3.97241 24.829 4.42419 25.2785 4.97663 25.2785H20.4379C20.9904 25.2785 21.4421 24.829 21.4421 24.2755C21.4421 23.723 20.9904 23.2712 20.4379 23.2712H4.97663Z" fill="#146C94"/>
</g>
</svg>
