<svg width="22" height="22" viewBox="0 0 22 22" fill="none" xmlns="http://www.w3.org/2000/svg">
<path id="icon" fill-rule="evenodd" clip-rule="evenodd" d="M22.0002 11.0001C22.0002 4.92475 17.0754 0 10.9999 0C4.9249 0 0.00012207 4.92475 0.00012207 11.0001C0.00012207 17.075 4.9249 21.9998 10.9999 21.9998C17.0754 21.9998 22.0002 17.075 22.0002 11.0001ZM19.8347 10.983C19.8347 6.11328 15.8791 2.16526 10.9999 2.16526C6.12067 2.16526 2.16562 6.11328 2.16562 10.983C2.16562 15.8526 6.12067 19.7998 10.9999 19.7998C15.8791 19.7998 19.8347 15.8526 19.8347 10.983ZM9.35627 8.79965H11.2002C11.6968 8.79965 12.1002 9.2029 12.1002 9.70006V10.0997C12.1002 10.1608 12.0941 10.2204 12.0825 10.2781H12.1002V13.9565H13.7783C14.275 13.9565 14.6783 14.3593 14.6783 14.856V15.2561C14.6783 15.7533 14.275 16.1561 13.7783 16.1561H12.1002H9.90012H8.22195C7.72477 16.1561 7.32195 15.7533 7.32195 15.2561V14.856C7.32195 14.3593 7.72477 13.9565 8.22195 13.9565H9.90012V11.0001H9.35627C8.8591 11.0001 8.45627 10.5969 8.45627 10.0997V9.70006C8.45627 9.2029 8.8591 8.79965 9.35627 8.79965ZM12.1002 6.05006C12.1002 5.34742 11.5305 4.77845 10.8281 4.77845C10.1257 4.77845 9.55605 5.34742 9.55605 6.05006C9.55605 6.75269 10.1257 7.32211 10.8281 7.32211C11.5305 7.32211 12.1002 6.75269 12.1002 6.05006Z" fill="#146C94"/>
</svg>
