<svg width="36" height="36" viewBox="0 0 36 36" fill="none" xmlns="http://www.w3.org/2000/svg">
<g id="Group 47402">
<path id="Vector" d="M34 0H2C1.46957 0 0.960859 0.210714 0.585786 0.585786C0.210714 0.960859 0 1.46957 0 2V34C0 34.5304 0.210714 35.0391 0.585786 35.4142C0.960859 35.7893 1.46957 36 2 36H34C34.5304 36 35.0391 35.7893 35.4142 35.4142C35.7893 35.0391 36 34.5304 36 34V2C36 1.46957 35.7893 0.960859 35.4142 0.585786C35.0391 0.210714 34.5304 0 34 0ZM32 32H4V4H32V32Z" fill="#146C94"/>
<path id="Vector_2" d="M18 28C23.5228 28 28 23.5228 28 18C28 12.4772 23.5228 8 18 8C12.4772 8 8 12.4772 8 18C8 23.5228 12.4772 28 18 28Z" fill="#146C94"/>
</g>
</svg>
