<svg width="46" height="43" viewBox="0 0 46 43" fill="none" xmlns="http://www.w3.org/2000/svg">
<g id="Group 122">
<g id="Group">
<g id="Group_2">
<path id="Vector" d="M41.7328 29.737C39.3462 26.3857 36.0503 23.8726 32.2014 22.4692C32.2014 22.4692 32.2012 22.4692 32.2011 22.4691C29.9896 21.6628 27.6648 21.2539 25.2912 21.2539C22.9176 21.2539 20.5927 21.6627 18.3812 22.4691C18.3811 22.4691 18.381 22.4692 18.3808 22.4692C17.3387 22.8493 16.3292 23.3181 15.3626 23.8656V16.9627C15.3626 16.4664 14.9604 16.0642 14.4641 16.0642H1.43574C0.939455 16.0642 0.537231 16.4665 0.537231 16.9627V35.3822C0.537231 35.8785 0.939455 36.2807 1.43574 36.2807H5.78237C5.3425 37.9527 5.11963 39.6783 5.11963 41.4254C5.11963 41.9217 5.52185 42.3239 6.01814 42.3239H44.5642C45.0605 42.3239 45.4627 41.9217 45.4627 41.4254C45.4627 37.2052 44.173 33.1634 41.7328 29.737ZM6.75125 17.8612H9.14862V18.7597H6.75125V17.8612ZM2.33425 34.4837V17.8612H4.95423V19.6582C4.95423 20.1545 5.35645 20.5568 5.85274 20.5568H10.0472C10.5435 20.5568 10.9457 20.1545 10.9457 19.6582V17.8612H13.5656V34.4837H2.33425ZM24.3927 40.5269H6.93823C7.00782 39.0826 7.24578 37.6599 7.64721 36.2807H14.4641C14.9604 36.2807 15.3626 35.8785 15.3626 35.3822V25.9619C16.2725 25.3767 17.232 24.8728 18.228 24.4576C18.8244 25.584 19.6815 26.5512 20.7415 27.2868C21.8342 28.045 23.082 28.5115 24.3927 28.658L24.3927 40.5269ZM19.9404 23.8422C21.6679 23.3168 23.4634 23.051 25.2912 23.051C27.1189 23.051 28.9144 23.3168 30.642 23.8422C29.5434 25.7328 27.5317 26.9112 25.2912 26.9112C23.0507 26.9112 21.039 25.7327 19.9404 23.8422ZM26.1897 40.5268V28.658C27.5003 28.5115 28.7481 28.045 29.8408 27.2868C30.9009 26.5511 31.7579 25.5839 32.3544 24.4576C38.8781 27.1762 43.2963 33.469 43.6436 40.5268H26.1897Z" fill="#146C94"/>
</g>
</g>
<g id="Group_3">
<g id="Group_4">
<path id="Vector_2" d="M34.5868 10.2868C34.5868 10.2867 34.5868 10.2866 34.5868 10.2864C34.5599 4.94562 30.1932 0.60083 24.8521 0.60083C19.8119 0.60083 15.6402 4.46986 15.1633 9.39368H8.49726C8.00098 9.39368 7.59875 9.7959 7.59875 10.2922C7.59875 10.7885 8.00098 11.1908 8.49726 11.1908H15.1546C15.5888 16.1601 19.7718 20.0716 24.8519 20.0716C30.22 20.0716 34.5872 15.7043 34.5872 10.3362L34.5868 10.2868ZM24.852 2.39785C28.9025 2.39785 32.2655 5.46173 32.734 9.39368H16.9699C17.4384 5.46173 20.8016 2.39785 24.852 2.39785ZM24.852 18.2744C23.3967 18.2744 22.0327 17.8792 20.8587 17.1925H22.0234C22.5197 17.1925 22.9219 16.7902 22.9219 16.2939C22.9219 15.7977 22.5197 15.3954 22.0234 15.3954H18.7423C18.3457 14.9171 18.0048 14.3915 17.7277 13.8285H18.2572C18.7535 13.8285 19.1557 13.4263 19.1557 12.93C19.1557 12.4337 18.7535 12.0315 18.2572 12.0315H17.0988C17.0385 11.756 16.9908 11.476 16.96 11.1906H32.7445C32.3172 15.1677 28.9406 18.2744 24.852 18.2744Z" fill="#146C94"/>
</g>
</g>
</g>
</svg>
