<svg width="48" height="48" viewBox="0 0 48 48" fill="none" xmlns="http://www.w3.org/2000/svg">
<g id="arcticons:30-day-fitness-challenge">
<path id="Vector" d="M24 45.5C35.8741 45.5 45.5 35.8741 45.5 24C45.5 12.1259 35.8741 2.5 24 2.5C12.1259 2.5 2.5 12.1259 2.5 24C2.5 35.8741 12.1259 45.5 24 45.5Z" stroke="#146C94" stroke-linecap="round" stroke-linejoin="round"/>
<path id="Vector_2" d="M12.014 15.578C12.8425 15.578 13.514 14.9064 13.514 14.078C13.514 13.2496 12.8425 12.578 12.014 12.578C11.1856 12.578 10.514 13.2496 10.514 14.078C10.514 14.9064 11.1856 15.578 12.014 15.578Z" stroke="#146C94" stroke-linecap="round" stroke-linejoin="round"/>
<path id="Vector_3" d="M13.0679 13.011C15.8879 10.2094 19.6777 8.60029 23.6519 8.51718C27.6261 8.43407 31.4798 9.88336 34.4144 12.5646C37.349 15.2459 39.1394 18.9536 39.4144 22.9191C39.6894 26.8846 38.428 30.8039 35.8916 33.8646C33.3552 36.9253 29.7383 38.8927 25.7907 39.359C21.8431 39.8252 17.8675 38.7546 14.6878 36.3691C11.5082 33.9835 9.36835 30.4659 8.71192 26.5455C8.05549 22.625 8.93278 18.6022 11.1619 15.311" stroke="#146C94" stroke-linecap="round" stroke-linejoin="round"/>
<path id="Vector_4" d="M19.278 17.6071C20.1259 17.6071 20.939 17.9439 21.5386 18.5434C22.1381 19.143 22.475 19.9562 22.475 20.8041C22.4751 21.224 22.3925 21.6398 22.2319 22.0278C22.0713 22.4158 21.8358 22.7683 21.539 23.0653C21.2421 23.3623 20.8896 23.5979 20.5016 23.7586C20.1137 23.9193 19.6979 24.0021 19.278 24.0021C20.1259 24.0021 20.939 24.3389 21.5386 24.9384C22.1381 25.538 22.475 26.3512 22.475 27.1991C22.475 28.047 22.1381 28.8601 21.5386 29.4597C20.939 30.0592 20.1259 30.3961 19.278 30.3961L17.979 30.3971C15.838 30.3971 14.885 30.0571 14.001 29.3171M25.525 26.1591C25.5421 27.2716 25.996 28.3329 26.7889 29.1136C27.5817 29.8943 28.6498 30.332 29.7625 30.332C30.8752 30.332 31.9433 29.8943 32.7361 29.1136C33.5289 28.3329 33.9829 27.2716 34 26.1591V21.8401C33.9829 20.7275 33.5289 19.6662 32.7361 18.8855C31.9433 18.1048 30.8752 17.6672 29.7625 17.6672C28.6498 17.6672 27.5817 18.1048 26.7889 18.8855C25.996 19.6662 25.5421 20.7275 25.525 21.8401V26.1591Z" stroke="#146C94" stroke-linecap="round" stroke-linejoin="round"/>
<path id="Vector_5" d="M14 18.672C14.885 17.934 15.84 17.598 17.98 17.604L19.28 17.607M16.02 24.002H19.278" stroke="#146C94" stroke-linecap="round" stroke-linejoin="round"/>
</g>
</svg>
