<svg width="49" height="37" viewBox="0 0 49 37" fill="none" xmlns="http://www.w3.org/2000/svg">
<path id="Vector" d="M8.96779 5.61431C8.96779 2.83902 11.1985 0.60083 14.0045 0.60083C16.7926 0.60083 19.0412 2.83902 19.0412 5.61431C19.0233 8.4076 16.7747 10.6278 14.0045 10.6278C11.2163 10.6278 8.96779 8.3896 8.96779 5.61431ZM36.75 27.117H27.6111V18.9879C27.6111 15.0277 24.1343 11.8266 20.2222 11.8266H7.97224C3.67735 11.8266 -0.00192815 15.5312 1.62984e-05 19.1815V34.0847C-0.00503926 35.7362 1.16688 36.5987 2.33335 36.6008C3.50274 36.603 4.66668 35.7405 4.66668 34.0847V19.5686H6.22224V36.6008H21.3889V19.5686H22.9445L22.9602 29.3176C22.9499 31.0071 23.9989 31.7265 25.0833 31.7621H36.75C39.9317 31.7621 39.9317 27.117 36.75 27.117ZM49 15.6513C49 20.8655 44.7382 25.1077 39.4998 25.1077C34.2615 25.1077 29.9997 20.8655 29.9997 15.6513C29.9997 10.808 33.677 6.80406 38.3983 6.25883V5.06193H37.0848V2.79567H42.0756V5.06173H40.6747V6.26715C41.7307 6.39741 42.7334 6.7007 43.6534 7.1478L44.4531 5.88509L46.3789 7.09341L45.5649 8.37838C47.6624 10.1145 49 12.7303 49 15.6513ZM46.7252 15.6513C46.7252 11.6857 43.484 8.45928 39.4998 8.45928C35.5157 8.45928 32.2745 11.6855 32.2745 15.6513C32.2745 19.6172 35.5157 22.8434 39.4998 22.8434C43.484 22.8434 46.7252 19.617 46.7252 15.6513ZM39.5366 9.76825V15.6076H45.403C45.3682 12.3937 42.7698 9.78354 39.5366 9.76825Z" fill="#146C94"/>
</svg>
