<svg width="48" height="48" viewBox="0 0 48 48" fill="none" xmlns="http://www.w3.org/2000/svg">
<g id="arcticons:enrecipes">
<path id="Vector" d="M33.752 40.6451V34.4681C33.7513 34.184 33.8073 33.9027 33.9169 33.6406C34.0265 33.3786 34.1873 33.1411 34.39 32.9421C35.35 31.9991 37.281 30.0941 39.378 27.9711L39.369 27.9661C40.7122 26.7025 41.6776 25.0904 42.1576 23.3099C42.6375 21.5294 42.6131 19.6505 42.0869 17.883C41.5608 16.1156 40.5537 14.5292 39.1781 13.301C37.8025 12.0729 36.1125 11.2513 34.297 10.9281C33.4135 10.7718 32.6273 10.2734 32.109 9.54106C31.1894 8.24699 29.9734 7.19181 28.5627 6.46367C27.152 5.73553 25.5875 5.35559 24 5.35559C22.4125 5.35559 20.848 5.73553 19.4373 6.46367C18.0266 7.19181 16.8106 8.24699 15.891 9.54106C15.3727 10.2734 14.5865 10.7718 13.703 10.9281C11.8874 11.2512 10.1973 12.0726 8.82161 13.3007C7.44588 14.5288 6.43864 16.1152 5.91239 17.8827C5.38613 19.6501 5.36158 21.5291 5.84148 23.3097C6.32138 25.0903 7.28683 26.7024 8.63001 27.9661L8.62 27.9711C10.2707 29.6407 11.9337 31.2981 13.609 32.9431C13.8116 33.1419 13.9723 33.3793 14.0819 33.6412C14.1915 33.9031 14.2476 34.1842 14.247 34.4681V40.6451C14.247 41.1755 14.4577 41.6842 14.8328 42.0593C15.2079 42.4343 15.7166 42.6451 16.247 42.6451H31.751C32.2814 42.6451 32.7901 42.4343 33.1652 42.0593C33.5403 41.6842 33.752 41.1755 33.752 40.6451Z" stroke="#146C94" stroke-linecap="round" stroke-linejoin="round"/>
<path id="Vector_2" d="M28.281 42.645V21.242C28.2807 20.1068 27.8296 19.0182 27.0268 18.2156C26.224 17.4129 25.1352 16.962 24 16.962C22.8648 16.962 21.776 17.4129 20.9732 18.2156C20.1704 19.0182 19.7193 20.1068 19.719 21.242V42.645" stroke="#146C94" stroke-linecap="round" stroke-linejoin="round"/>
</g>
</svg>
