<svg width="23" height="34" viewBox="0 0 23 34" fill="none" xmlns="http://www.w3.org/2000/svg">
<g id="Group">
<g id="Group_2">
<g id="Group_3">
<path id="Vector" d="M17.0506 18.4224C15.7481 17.6875 14.2882 17.2004 12.7351 17.0253C12.4902 16.9978 12.2767 17.1925 12.2767 17.439V22.3252C12.2767 22.7681 11.9425 23.1548 11.5005 23.1834C11.0163 23.2147 10.6138 22.8313 10.6138 22.3537V17.439C10.6138 17.1924 10.4002 16.9977 10.1553 17.0253C8.60218 17.2004 7.14225 17.6875 5.83978 18.4224C5.62483 18.5436 5.55883 18.8219 5.69999 19.0243L11.1042 26.7685C11.2697 27.0057 11.6207 27.0057 11.7862 26.7685L17.1904 19.0243C17.3316 18.8219 17.2656 18.5436 17.0506 18.4224Z" fill="#146C94"/>
<path id="Vector_2" d="M19.1475 19.9402C18.9631 19.7723 18.6719 19.8076 18.5291 20.0122L12.3516 28.8644C12.3028 28.9341 12.2767 29.0172 12.2767 29.1023V33.1851C12.2767 33.4147 12.4629 33.6008 12.6925 33.6008H21.6434C22.3322 33.6008 22.8906 33.0424 22.8906 32.3536V28.3979C22.8905 25.0506 21.4458 22.0349 19.1475 19.9402Z" fill="#146C94"/>
<path id="Vector_3" d="M4.36147 20.0122C4.21871 19.8076 3.92744 19.7722 3.74304 19.9403C1.44478 22.035 0 25.0507 0 28.398V32.3537C0 33.0425 0.55842 33.6009 1.24723 33.6009H10.198C10.4276 33.6009 10.6137 33.4148 10.6137 33.1852V29.1024C10.6138 29.0172 10.5877 28.9341 10.539 28.8644L4.36147 20.0122Z" fill="#146C94"/>
<path id="Vector_4" d="M18.2616 5.62713C18.4474 5.5222 18.5239 5.29055 18.435 5.09655C16.5579 0.998242 11.5958 -0.603544 7.70306 1.5769C7.51782 1.68067 7.441 1.91064 7.52788 2.10438C9.3499 6.16499 14.3341 7.84534 18.2616 5.62713Z" fill="#146C94"/>
<path id="Vector_5" d="M4.42712 9.62661C5.95408 8.88295 7.27794 7.76154 8.26691 6.3778C8.38963 6.20609 8.36294 5.97026 8.20709 5.8282C7.43746 5.12586 6.79132 4.29564 6.29477 3.36546C6.15781 3.10893 5.80512 3.06511 5.61563 3.28573C4.16847 4.97066 3.54051 7.15787 3.83022 9.31273C3.86799 9.59336 4.17253 9.75068 4.42712 9.62661Z" fill="#146C94"/>
<path id="Vector_6" d="M10.1667 7.19789C9.98256 7.1018 9.75646 7.15523 9.63607 7.32448C8.41655 9.03841 6.75508 10.4086 4.83683 11.2729C4.61614 11.3723 4.52701 11.6355 4.6396 11.8497C8.2656 18.745 18.6608 16.4488 19.1151 8.74457C19.1355 8.39769 19.1326 8.05544 19.1079 7.71913C19.0863 7.42509 18.7796 7.24308 18.5137 7.3705C15.8462 8.64867 12.7804 8.56211 10.1667 7.19789Z" fill="#146C94"/>
</g>
</g>
</g>
</svg>
