<svg width="36" height="35" viewBox="0 0 36 35" fill="none" xmlns="http://www.w3.org/2000/svg">
<g id="Group 120">
<path id="Vector" fill-rule="evenodd" clip-rule="evenodd" d="M2.95313 3.24208C2.18947 2.59188 1.05447 2.69729 0.418079 3.47755C-0.21833 4.2578 -0.115139 5.4174 0.648544 6.06762L2.31264 7.48452C1.24917 8.24199 0.468063 9.37985 0.15219 10.7113C-0.00136416 11.3586 -0.000680084 12.0896 0.000111895 12.9377L0.000237848 25.0049C0.00014785 26.6351 5.77945e-05 28.04 0.148086 29.1647C0.306716 30.3702 0.664456 31.5258 1.58182 32.4631C2.49918 33.4003 3.63018 33.7659 4.81009 33.9279C5.91105 34.0791 7.2859 34.0791 8.88154 34.0789H27.1179C28.7135 34.0791 30.0885 34.0791 31.1894 33.9279C31.7673 33.8485 32.3334 33.7203 32.8684 33.5001L33.0476 33.6526C33.8114 34.3029 34.9464 34.1975 35.5827 33.4172C36.2192 32.6369 36.116 31.4774 35.3523 30.8272L2.95313 3.24208ZM22.7561 24.8901C21.4876 26.031 19.8232 26.723 18.0004 26.723C14.0241 26.723 10.8006 23.4296 10.8006 19.367C10.8006 17.9832 11.1746 16.6887 11.8249 15.5831L14.659 17.996C14.4923 18.4196 14.4005 18.8823 14.4005 19.3668C14.4005 21.3982 16.0122 23.0449 18.0004 23.0449C18.7071 23.0449 19.3662 22.8369 19.9222 22.4775L22.7561 24.8901Z" fill="#146C94"/>
<path id="Vector_2" fill-rule="evenodd" clip-rule="evenodd" d="M35.9998 12.8044C35.9998 12.8656 35.9998 12.9275 35.9998 12.99V24.6729C35.9998 25.682 35.1947 26.5 34.2014 26.5C33.2082 26.5 32.4031 25.682 32.4031 24.6729V12.99C32.4031 11.8549 32.3903 11.6119 32.3524 11.4532C32.1937 10.7883 31.6828 10.2692 31.0282 10.108C30.8721 10.0695 30.6329 10.0566 29.5156 10.0566C29.4829 10.0566 29.4502 10.0566 29.418 10.0566C28.9472 10.0569 28.5344 10.0572 28.133 9.99603C26.9024 9.80861 25.7732 9.19471 24.937 8.2583C24.6643 7.95289 24.4356 7.60389 24.1746 7.20583C24.1568 7.17852 24.1389 7.15097 24.1205 7.1232L23.7132 6.50246C22.9291 5.30745 22.7557 5.08695 22.5696 4.94424C22.4209 4.83016 22.2556 4.74029 22.0795 4.6778C21.8596 4.59964 21.5828 4.57549 20.1691 4.57549H14.242C13.8306 4.57549 13.4463 4.78439 13.2181 5.13218L12.7685 5.81732C12.2176 6.6569 11.101 6.88376 10.2746 6.32405C9.44823 5.76434 9.22493 4.62999 9.77586 3.79041L10.2255 3.10527C11.1207 1.74091 12.628 0.921415 14.242 0.921415H20.1691C20.2434 0.921415 20.317 0.921324 20.39 0.921215C21.4546 0.919771 22.3937 0.91851 23.2663 1.22836C23.7943 1.41579 24.2901 1.68545 24.7365 2.02769C25.4743 2.59343 25.9942 3.38797 26.5836 4.28877C26.624 4.35054 26.6647 4.41283 26.7058 4.47555L27.1132 5.09628C27.4586 5.62269 27.5322 5.72604 27.6009 5.80309C27.8796 6.11522 28.256 6.31987 28.6662 6.38233C28.7675 6.39775 28.8928 6.40252 29.5156 6.40252C29.5771 6.40252 29.6381 6.40247 29.6983 6.40239C30.5276 6.40159 31.2426 6.4009 31.8756 6.55676C33.8391 7.04027 35.372 8.59772 35.8478 10.5925C36.0014 11.2356 36.0007 11.9619 35.9998 12.8044Z" fill="#146C94"/>
</g>
</svg>
