<svg width="18" height="21" viewBox="0 0 18 21" fill="none" xmlns="http://www.w3.org/2000/svg">
<path id="icon" fill-rule="evenodd" clip-rule="evenodd" d="M15.1875 6.18735C15.1875 2.77035 12.4172 0 8.99998 0C5.58274 0 2.8125 2.77035 2.8125 6.18735C2.8125 8.11344 3.69247 9.83397 5.07227 10.9688C2.06981 12.3364 0 15.2229 0 18.5625C0 18.6996 0.00348588 18.8359 0.010379 18.9713C0.00353539 19.0215 0 19.0727 0 19.1247C0 19.7465 0.503778 20.25 1.12499 20.25C1.74621 20.25 2.25001 19.7465 2.25001 19.1247H2.41733C2.39956 18.9395 2.39048 18.752 2.39048 18.5625C2.39048 15.4788 4.79554 12.9217 7.94178 12.4522C7.89865 12.5639 7.87499 12.6853 7.87499 12.8123V17.5627C7.87499 18.1145 8.3228 18.5625 8.87487 18.5625H9.12512C9.67718 18.5625 10.125 18.1145 10.125 17.5627V12.8123C10.125 12.6871 10.102 12.5672 10.0599 12.4568C13.1918 12.938 15.5815 15.4886 15.5815 18.5625C15.5815 18.752 15.5724 18.9395 15.5546 19.1247H15.75C15.75 19.7465 16.2538 20.25 16.875 20.25C17.4962 20.25 18 19.7465 18 19.1247C18 19.0727 17.9964 19.0215 17.9896 18.9713C17.9965 18.8359 18 18.6996 18 18.5625C18 15.2229 15.9304 12.3363 12.9278 10.9688C14.3076 9.8339 15.1875 8.1134 15.1875 6.18735ZM8.99998 2.25015C11.1748 2.25015 12.9375 4.01307 12.9375 6.18735C12.9375 8.36208 11.1748 10.125 8.99998 10.125C6.82517 10.125 5.06249 8.36208 5.06249 6.18735C5.06249 4.01307 6.82517 2.25015 8.99998 2.25015Z" fill="#146C94"/>
</svg>
