<svg width="20" height="19" viewBox="0 0 20 19" fill="none" xmlns="http://www.w3.org/2000/svg">
<path fill-rule="evenodd" clip-rule="evenodd" d="M16.4 18.9317C16.9357 18.9317 17.4512 18.7266 17.8404 18.3584C18.2296 17.9902 18.463 17.487 18.4928 16.9521L19.3081 2.28082C19.3239 1.99622 19.2815 1.71138 19.1835 1.44373C19.0854 1.17607 18.9338 0.931227 18.738 0.724159C18.5421 0.517092 18.306 0.352156 18.0442 0.239439C17.7824 0.126722 17.5003 0.0685917 17.2153 0.0686035H2.78296C2.49796 0.068663 2.21597 0.126845 1.95423 0.239594C1.69248 0.352343 1.45648 0.51729 1.26065 0.724349C1.06482 0.931409 0.913281 1.17623 0.815289 1.44385C0.717296 1.71147 0.674913 1.99627 0.690731 2.28082L1.50551 16.9521C1.53524 17.487 1.76869 17.9902 2.1579 18.3584C2.54711 18.7266 3.06252 18.9317 3.59826 18.9317H16.4ZM3.59826 17.8837H16.4C16.668 17.8837 16.9257 17.7811 17.1204 17.5969C17.315 17.4127 17.4316 17.161 17.4464 16.8934L18.2617 2.22214C18.2695 2.07988 18.2483 1.93752 18.1992 1.80375C18.1502 1.66999 18.0744 1.54763 17.9764 1.44415C17.8785 1.34067 17.7605 1.25825 17.6296 1.20193C17.4988 1.1456 17.3578 1.11655 17.2153 1.11655H2.78296C2.64049 1.11655 2.49951 1.1456 2.36864 1.20193C2.23778 1.25825 2.11977 1.34067 2.02183 1.44415C1.9239 1.54763 1.84809 1.66999 1.79905 1.80375C1.75 1.93752 1.72875 2.07988 1.73658 2.22214L2.55189 16.8934C2.56662 17.161 2.68329 17.4127 2.87791 17.5969C3.07253 17.7811 3.33031 17.8837 3.59826 17.8837Z" fill="#146C94"/>
<path d="M4.8877 7.00571C6.30415 5.30171 8.00815 4.44971 9.99971 4.44971C11.9913 4.44971 13.6953 5.30171 15.1117 7.00571" stroke="#146C94" stroke-width="0.998242" stroke-linecap="round"/>
<path d="M9.30183 10.4735C9.34945 10.713 9.49025 10.9237 9.69326 11.0594C9.89627 11.1951 10.1449 11.2445 10.3843 11.1969C10.6238 11.1493 10.8346 11.0085 10.9702 10.8055C11.1059 10.6025 11.1554 10.3539 11.1078 10.1144C11.0601 9.87491 10.9193 9.66415 10.7163 9.52849C10.5133 9.39282 10.2647 9.34335 10.0253 9.39097C9.78577 9.43859 9.57502 9.57939 9.43935 9.7824C9.30368 9.98541 9.25421 10.234 9.30183 10.4735Z" fill="#AFD3E2"/>
<path d="M12.7139 7.62329L10.2052 10.2973" stroke="#AFD3E2" stroke-width="0.998242" stroke-linecap="round"/>
</svg>
