<svg width="304" height="284" viewBox="0 0 304 284" fill="none" xmlns="http://www.w3.org/2000/svg">
<g clip-path="url(#clip0_2180_928)">
<path d="M300.892 192.364C305.236 189.264 305.205 181.222 299.687 179.499C303.497 175.677 302.342 167.446 296.825 166.937C298.175 163.56 297.509 158.933 293.178 158.084C294.553 153.94 290.724 151.073 286.889 152.557C286.719 148.193 280.549 147.942 279.162 151.016C279.237 149.325 276.707 146.194 275.088 146.187C277.887 143.993 277.115 139.598 274.711 139.013C277.975 136.53 276.23 130.871 272.326 130.921C274.943 126.79 269.363 122.477 265.898 123.747C267.863 119.107 258.686 115.41 256.703 120.333C256.778 120.138 255.93 119.333 255.792 119.195C255.435 118.855 255.033 118.56 254.606 118.321C253.727 117.83 252.736 117.554 251.737 117.459C249.666 117.258 247.494 117.774 245.737 118.887C244.808 119.478 243.985 120.257 243.42 121.207C243.144 121.666 242.937 122.162 242.799 122.684C242.611 123.414 242.805 124.118 242.611 124.822C241.443 124.52 240.163 124.69 239.121 125.287C238.079 125.885 237.282 126.903 236.949 128.06C236.629 126.96 236.265 125.853 235.65 124.879C235.135 124.055 234.444 123.363 233.578 122.911C232.655 122.427 231.865 121.835 230.747 121.905C234.074 117.623 227.32 112.643 223.736 116.038C222.066 112.108 216.103 112.932 216.492 117.547C215.168 115.145 212.569 115.315 210.435 116.598C207.491 118.371 207.887 121.527 209.506 124.08C208.282 122.621 204.553 121.81 203.989 124.231C203.135 122.942 200.944 122.621 199.783 123.753C198.32 118.49 190.895 122.628 192.175 124.615C190.675 122.288 186.94 121.873 184.963 123.81C185.961 121.094 183.57 117.742 180.682 117.799C180.87 115.73 180.117 113.498 178.429 112.285C176.74 111.077 174.104 111.209 172.817 112.838C171.788 110.864 169.158 109.902 167.099 110.744C165.04 111.593 163.841 114.121 164.488 116.252C163.552 114.171 160.376 113.586 158.763 115.196C157.96 113.328 156.522 111.631 154.589 111.027C152.649 110.43 150.233 111.235 149.448 113.108C149.115 111.184 146.397 110.184 144.903 111.448C145.261 109.285 143.623 107.085 141.514 106.506C139.405 105.928 137.057 106.821 135.588 108.449C134.126 110.078 133.473 112.329 133.486 114.517C132.469 112.825 129.845 112.417 128.364 113.712C129.186 112.989 126.518 111.058 126.029 110.914C124.541 110.486 122.689 111.165 121.61 112.197C120.398 113.347 119.827 115.139 120.141 116.78C118.81 116.321 117.291 116.441 116.054 117.113C114.818 117.78 113.876 118.981 113.531 120.345C112.326 119.1 110.506 118.484 108.792 118.742C107.078 118.993 105.515 120.113 104.725 121.653C105.082 120.961 102.389 120.289 102.038 120.308C100.983 120.377 99.8599 120.936 99.3138 121.861C99.1506 120.597 98.2969 119.446 97.1357 118.931C95.9744 118.415 94.5496 118.541 93.5013 119.264C93.6833 118.176 93.2314 117.013 92.3652 116.327C90.7269 115.032 88.4672 115.824 87.5193 117.547C87.9148 112.938 81.9454 112.108 80.2757 116.038C76.6853 112.643 69.9313 117.616 73.2643 121.905C72.147 121.835 71.3624 122.427 70.4334 122.911C69.5672 123.363 68.8767 124.055 68.362 124.879C67.7532 125.853 67.3891 126.96 67.0627 128.06C66.73 126.903 65.9328 125.885 64.8909 125.287C63.8489 124.69 62.5684 124.52 61.4009 124.822C61.2 124.112 61.4009 123.407 61.2126 122.684C61.0745 122.162 60.8673 121.666 60.5911 121.207C60.0262 120.257 59.2039 119.478 58.2749 118.887C56.5174 117.767 54.3455 117.252 52.2741 117.459C51.2761 117.56 50.2843 117.83 49.4056 118.321C48.9787 118.56 48.577 118.855 48.2192 119.195C48.0811 119.327 47.2337 120.138 47.3091 120.333C45.3255 115.416 36.1486 119.107 38.1133 123.747C34.6484 122.477 29.0682 126.79 31.6857 130.921C27.7877 130.865 26.0364 136.53 29.3004 139.013C26.9026 139.598 26.1243 143.993 28.9238 146.187C27.3044 146.194 24.7747 149.325 24.8501 151.016C23.4628 147.942 17.2863 148.193 17.1231 152.557C13.2879 151.067 9.45892 153.94 10.8336 158.084C6.50247 158.939 5.83711 163.56 7.18666 166.937C1.66292 167.446 0.514237 175.677 4.32436 179.499C-1.1931 181.222 -1.22448 189.264 3.11918 192.364C0.244328 193.741 -0.0444128 200.425 4.64448 202.267C4.52522 202.374 4.40596 202.487 4.29925 202.606C1.53738 205.555 3.84731 210.416 7.8834 210.416H296.141C300.177 210.416 302.481 205.555 299.725 202.606C299.612 202.487 299.499 202.374 299.38 202.267C304.069 200.425 303.78 193.741 300.905 192.364H300.892Z" fill="#EBEBEB"/>
<path d="M43.6878 133.48C45.3072 131.651 48.1005 131.487 49.9271 133.109C50.2598 133.405 50.5234 133.738 50.7431 134.097C51.6595 133.336 52.871 132.94 54.1389 133.109C56.0785 133.361 57.5473 134.826 57.8988 136.637C57.0766 135.662 55.909 134.971 54.5469 134.795C52.2559 134.493 50.1217 135.719 49.155 137.681C49.1362 137.435 49.1487 137.184 49.1801 136.926C49.2617 136.304 49.4689 135.725 49.7764 135.216C49.6384 135.046 49.4877 134.889 49.3182 134.738C47.5921 133.204 45.1378 133.009 43.2358 134.097C43.3551 133.883 43.512 133.682 43.6815 133.487L43.6878 133.48Z" fill="#E0E0E0"/>
<path d="M89.6666 125.847C88.4175 124.439 86.2582 124.307 84.8522 125.558C84.5948 125.784 84.394 126.042 84.2245 126.319C83.5215 125.734 82.5862 125.426 81.607 125.558C80.1131 125.753 78.9769 126.884 78.707 128.28C79.341 127.532 80.2386 126.998 81.2931 126.859C83.0632 126.627 84.7078 127.57 85.4485 129.085C85.4611 128.896 85.4485 128.702 85.4297 128.5C85.3669 128.016 85.2037 127.576 84.9714 127.18C85.0782 127.048 85.1974 126.928 85.323 126.809C86.6537 125.621 88.5493 125.476 90.0119 126.312C89.9177 126.149 89.7984 125.992 89.6666 125.841V125.847Z" fill="#E0E0E0"/>
<path d="M37.5174 150.658C37.0152 149.966 34.7744 150.243 34.0525 150.381C32.7783 150.62 31.5982 151.413 30.8889 152.507C30.0917 153.733 29.8972 155.336 30.3679 156.719C28.918 156.386 27.2922 156.965 26.3883 158.147C25.4782 159.329 25.3338 161.052 26.0305 162.366C23.1808 161.724 18.812 162.221 16.5837 164.384C15.3597 165.566 14.8952 167.603 15.8179 169.037C15.6484 168.773 13.4076 168.741 11.5621 169.892C10.4323 170.596 9.72297 171.929 9.6602 173.268C9.58488 174.765 10.2816 176.796 10.9721 177.519C10.8277 177.236 9.10155 178.437 8.94463 178.581C8.39853 179.084 7.94659 179.764 7.73317 180.48C7.344 181.807 8.3797 183.398 9.7983 183.442C8.68099 183.939 7.61391 184.655 6.94855 185.686C6.28319 186.718 6.06977 188.095 6.6347 189.189C7.37538 190.629 9.12666 191.157 10.6959 191.547C9.74808 192.615 9.22081 194.131 9.5786 195.52C9.93639 196.904 11.3236 198.035 12.7359 197.853C11.2232 198.809 10.4385 200.783 10.8842 202.518C11.3299 204.254 12.9619 205.606 14.7445 205.713C13.9537 205.662 13.3573 207.316 13.1565 207.838C12.7924 208.787 12.2965 209.46 11.8258 210.422H7.87754C3.84145 210.422 1.5378 205.562 4.29339 202.613C4.40638 202.493 4.51936 202.38 4.63863 202.273C-0.0502724 200.431 0.238468 193.747 3.11332 192.37C-1.23034 189.27 -1.19896 181.229 4.3185 179.506C0.508378 175.683 1.66334 167.452 7.1808 166.943C5.83125 163.567 6.49661 158.939 10.8277 158.09C9.45306 153.946 13.282 151.079 17.1172 152.563C17.2867 148.2 23.457 147.948 24.8442 151.023C24.7689 149.331 27.2985 146.2 28.918 146.194C26.1184 143.999 26.8905 139.604 29.2946 139.02C26.0305 136.536 27.7755 130.877 31.6798 130.927C29.6021 127.645 32.6904 124.256 35.7912 123.634C34.6677 124.885 33.6445 126.558 34.4605 128.287C35.1949 129.833 37.1784 130.104 38.4966 130.751C35.3707 131.808 33.9333 134.958 36.262 137.712C33.0733 138.114 32.6653 142.358 33.9395 144.081C34.7242 143.396 36.3499 143.245 37.5362 143.471C39.1369 143.773 39.9968 144.584 41.4342 146.194C38.597 143.999 35.7159 148.2 37.5174 150.671V150.658Z" fill="#E0E0E0"/>
<path d="M260.312 133.48C258.693 131.651 255.899 131.487 254.073 133.109C253.74 133.405 253.477 133.738 253.257 134.097C252.34 133.336 251.129 132.94 249.861 133.109C247.921 133.361 246.453 134.826 246.101 136.637C246.923 135.662 248.091 134.971 249.453 134.795C251.744 134.493 253.878 135.719 254.845 137.681C254.864 137.435 254.851 137.184 254.82 136.926C254.738 136.304 254.531 135.725 254.223 135.216C254.362 135.046 254.512 134.889 254.682 134.738C256.408 133.204 258.862 133.009 260.764 134.097C260.645 133.883 260.488 133.682 260.318 133.487L260.312 133.48Z" fill="#E0E0E0"/>
<path d="M214.334 125.847C215.583 124.439 217.742 124.307 219.148 125.558C219.405 125.784 219.606 126.042 219.776 126.319C220.479 125.734 221.414 125.426 222.393 125.558C223.887 125.753 225.023 126.884 225.293 128.28C224.659 127.532 223.762 126.998 222.707 126.859C220.937 126.627 219.292 127.57 218.552 129.085C218.539 128.896 218.552 128.702 218.57 128.5C218.633 128.016 218.796 127.576 219.029 127.18C218.922 127.048 218.809 126.928 218.677 126.809C217.346 125.621 215.451 125.476 213.988 126.312C214.082 126.149 214.202 125.992 214.334 125.841V125.847Z" fill="#E0E0E0"/>
<path d="M266.483 150.658C266.985 149.966 269.226 150.243 269.948 150.381C271.222 150.62 272.402 151.413 273.111 152.507C273.908 153.733 274.103 155.336 273.632 156.719C275.082 156.386 276.708 156.965 277.612 158.147C278.522 159.329 278.666 161.052 277.97 162.366C280.819 161.724 285.188 162.221 287.416 164.384C288.64 165.566 289.105 167.603 288.182 169.037C288.352 168.773 290.593 168.741 292.438 169.892C293.568 170.596 294.277 171.929 294.34 173.268C294.415 174.765 293.719 176.796 293.028 177.519C293.172 177.236 294.899 178.437 295.056 178.581C295.602 179.084 296.054 179.764 296.267 180.48C296.656 181.807 295.62 183.398 294.202 183.442C295.319 183.939 296.386 184.655 297.052 185.686C297.717 186.718 297.93 188.095 297.365 189.189C296.625 190.629 294.873 191.157 293.304 191.547C294.252 192.615 294.779 194.131 294.422 195.52C294.064 196.904 292.677 198.035 291.264 197.853C292.777 198.809 293.562 200.783 293.116 202.518C292.67 204.254 291.038 205.606 289.256 205.713C290.047 205.662 290.643 207.316 290.844 207.838C291.208 208.787 291.704 209.46 292.174 210.422H296.123C300.159 210.422 302.462 205.562 299.707 202.613C299.594 202.493 299.481 202.38 299.362 202.273C304.05 200.431 303.762 193.747 300.887 192.37C305.231 189.27 305.199 181.229 299.682 179.506C303.492 175.683 302.337 167.452 296.819 166.943C298.169 163.567 297.504 158.939 293.172 158.09C294.547 153.946 290.718 151.079 286.883 152.563C286.713 148.2 280.543 147.948 279.156 151.023C279.231 149.331 276.702 146.2 275.082 146.194C277.882 143.999 277.11 139.604 274.706 139.02C277.97 136.536 276.225 130.877 272.32 130.927C274.398 127.645 271.31 124.256 268.209 123.634C269.333 124.885 270.356 126.558 269.54 128.287C268.805 129.833 266.822 130.104 265.504 130.751C268.629 131.808 270.067 134.958 267.738 137.712C270.927 138.114 271.335 142.358 270.061 144.081C269.276 143.396 267.65 143.245 266.464 143.471C264.863 143.773 264.003 144.584 262.566 146.194C265.403 143.999 268.284 148.2 266.483 150.671V150.658Z" fill="#E0E0E0"/>
<path d="M49.0734 149.312C-7.57002 180.128 -7.57002 230.083 49.0734 260.899C105.723 291.715 197.561 291.715 254.211 260.899C310.854 230.083 310.854 180.128 254.211 149.312C197.561 118.497 105.723 118.497 49.0734 149.312Z" fill="#FAFAFA"/>
<path d="M152.606 24.1133C151.991 23.8366 151.262 23.8115 150.735 23.7675C150.126 23.7172 149.938 23.5977 149.819 23.4657C148.344 21.353 145.908 21.2713 144.452 21.8749C144.094 20.4225 142.337 19.1586 140.403 19.5799C140.472 17.6873 138.062 15.6564 135.896 15.1974C133.819 14.7573 132.011 14.9396 130.825 16.3103C129.557 13.833 124.585 13.1288 121.899 14.4429C120.355 15.1974 119.043 15.9708 118.396 17.3918C117.976 18.3287 117.819 18.9511 117.812 20.215C116.764 19.2907 114.668 19.0392 113.268 19.5799C111.761 20.1647 111.642 21.3027 111.567 22.4659C110.086 22.095 109.1 22.3339 108.818 22.4156C107.863 22.6986 107.317 23.4468 107.449 24.0504C106.696 24.0064 104.907 24.6163 105.108 25.4148C105.34 26.3077 107.386 26.2197 108.152 26.1882C108.786 26.1631 109.602 25.9933 110.293 25.8487C110.5 25.9493 111.058 26.0625 111.404 26.0625C112.709 26.0562 113.262 25.4966 113.469 25.0061C114.103 26.3454 116.369 27.3703 117.969 27.779C120.982 28.5524 125.244 28.0808 127.102 25.8235C127.297 26.2322 127.623 26.6095 128 26.9176C128.734 27.5275 129.732 27.9488 130.787 28.0494C132.024 28.1625 135.344 28.326 136.279 26.3517C136.945 27.6595 139.901 28.2568 142.148 27.9362C142.989 27.8167 143.931 27.5212 144.665 27.1754C145.255 26.8924 145.594 26.6221 146.115 26.3077C146.561 26.0436 146.756 26.0436 147.352 26.2259C148.896 26.6912 150.685 26.8799 152.261 26.2259C153.516 25.6978 153.78 24.6415 152.599 24.107L152.606 24.1133Z" fill="#F0F0F0"/>
<path d="M188.014 41.9388C187.543 41.725 186.979 41.7062 186.571 41.6747C186.106 41.637 185.955 41.5427 185.868 41.4421C184.731 39.8136 182.855 39.7507 181.737 40.2223C181.461 39.1031 180.112 38.1285 178.624 38.4555C178.674 37.003 176.822 35.4374 175.153 35.0853C173.552 34.7458 172.165 34.8904 171.248 35.9404C170.276 34.029 166.447 33.4945 164.375 34.5005C163.183 35.079 162.172 35.6763 161.682 36.7704C161.356 37.4935 161.243 37.9713 161.237 38.9459C160.427 38.2354 158.814 38.0405 157.734 38.4555C156.573 38.9082 156.485 39.7822 156.429 40.675C155.292 40.3858 154.527 40.5744 154.313 40.6373C153.579 40.8573 153.158 41.4295 153.259 41.8948C152.681 41.8634 151.3 42.3287 151.457 42.9448C151.633 43.6302 153.208 43.561 153.798 43.5422C154.288 43.5233 154.916 43.3913 155.443 43.2844C155.606 43.3661 156.033 43.4479 156.297 43.4479C157.301 43.4416 157.722 43.0077 157.885 42.6367C158.374 43.6679 160.119 44.4539 161.35 44.7745C163.672 45.3719 166.949 45.0072 168.38 43.2718C168.531 43.5862 168.782 43.8754 169.07 44.1143C169.635 44.5796 170.401 44.9066 171.217 44.9883C172.171 45.0764 174.726 45.2021 175.448 43.6805C175.956 44.6865 178.235 45.1518 179.967 44.9003C180.614 44.806 181.342 44.5859 181.907 44.3155C182.359 44.1018 182.622 43.888 183.018 43.6491C183.357 43.4416 183.514 43.4479 183.966 43.5862C185.152 43.9446 186.533 44.0892 187.744 43.5862C188.711 43.1775 188.912 42.3664 188.008 41.9577L188.014 41.9388Z" fill="#F5F5F5"/>
<path d="M294.628 58.3558C294.158 58.142 293.593 58.1232 293.185 58.0917C292.72 58.054 292.57 57.9597 292.482 57.8591C291.346 56.2306 289.469 56.1677 288.352 56.6393C288.075 55.5201 286.726 54.5455 285.238 54.8725C285.288 53.42 283.437 51.8544 281.767 51.5023C280.166 51.1628 278.779 51.3074 277.863 52.3574C276.89 50.446 273.061 49.9115 270.989 50.9175C269.797 51.496 268.786 52.0933 268.297 53.1874C267.97 53.9104 267.857 54.3883 267.851 55.3629C267.041 54.6524 265.428 54.4575 264.348 54.8725C263.187 55.3252 263.099 56.1992 263.043 57.092C261.907 56.8028 261.141 56.9914 260.927 57.0543C260.193 57.2743 259.772 57.8465 259.873 58.3118C259.295 58.2804 257.914 58.7456 258.071 59.3618C258.247 60.0472 259.823 59.978 260.413 59.9592C260.902 59.9403 261.53 59.8083 262.057 59.7014C262.22 59.7831 262.647 59.8648 262.911 59.8648C263.915 59.8586 264.336 59.4247 264.499 59.0537C264.989 60.0849 266.734 60.8709 267.964 61.1915C270.286 61.7889 273.563 61.4242 274.994 59.6888C275.145 60.0032 275.396 60.2924 275.685 60.5313C276.25 60.9966 277.015 61.3236 277.831 61.4053C278.785 61.4933 281.34 61.6191 282.062 60.0975C282.57 61.1035 284.849 61.5688 286.581 61.3173C287.228 61.223 287.956 61.0029 288.521 60.7325C288.973 60.5188 289.237 60.305 289.632 60.066C289.971 59.8586 290.128 59.8648 290.58 60.0032C291.766 60.3616 293.147 60.5062 294.359 60.0032C295.325 59.5945 295.526 58.7834 294.622 58.3747L294.628 58.3558Z" fill="#F5F5F5"/>
<path d="M45.232 82.0038C44.7612 81.79 44.1963 81.7711 43.7883 81.7397C43.3238 81.702 43.1732 81.6076 43.0853 81.507C41.9492 79.8785 40.0723 79.8157 38.955 80.2872C38.6789 79.168 37.3293 78.1935 35.8417 78.5204C35.8919 77.068 34.0402 75.5023 32.3705 75.1502C30.7699 74.8107 29.3827 74.9553 28.4662 76.0054C27.4933 74.0939 23.6643 73.5595 21.5929 74.5655C20.4003 75.1439 19.3897 75.7413 18.9001 76.8353C18.5737 77.5584 18.4607 78.0363 18.4545 79.0108C17.6447 78.3003 16.0315 78.1054 14.9519 78.5204C13.7907 78.9731 13.7028 79.8471 13.6463 80.7399C12.5102 80.4507 11.7444 80.6393 11.531 80.7022C10.7966 80.9223 10.376 81.4945 10.4764 81.9598C9.89895 81.9283 8.51801 82.3936 8.67494 83.0098C8.85069 83.6951 10.4262 83.626 11.0162 83.6071C11.5059 83.5882 12.1335 83.4562 12.6608 83.3493C12.824 83.4311 13.2509 83.5128 13.5145 83.5128C14.5188 83.5065 14.9394 83.0727 15.1026 82.7017C15.5922 83.7329 17.3372 84.5188 18.5674 84.8395C20.8899 85.4368 24.1665 85.0721 25.5977 83.3367C25.7483 83.6511 25.9994 83.9404 26.2881 84.1793C26.853 84.6446 27.6188 84.9715 28.4348 85.0533C29.3889 85.1413 31.9437 85.267 32.6655 83.7454C33.174 84.7515 35.4525 85.2167 37.1849 84.9652C37.8315 84.8709 38.5596 84.6509 39.1245 84.3805C39.5765 84.1667 39.8401 83.9529 40.2355 83.714C40.5745 83.5065 40.7314 83.5128 41.1834 83.6511C42.3697 84.0095 43.7507 84.1541 44.9621 83.6511C45.9288 83.2424 46.1296 82.4313 45.2257 82.0226L45.232 82.0038Z" fill="#F5F5F5"/>
<path d="M59.1418 216.697C59.0727 216.659 59.0162 216.59 59.0037 216.508C56.7691 205.31 46.2991 198.142 41.8236 195.08C41.1017 194.583 40.5305 194.194 40.1602 193.904C38.5031 192.59 37.6431 190.729 37.8691 188.918C38.07 187.29 39.1559 185.919 40.8507 185.165C44.9872 183.31 52.2747 187.919 57.4344 195.652C64.6655 206.492 62.7322 215.251 62.7134 215.339C62.6945 215.433 62.6255 215.509 62.5376 215.54L59.3803 216.722C59.3426 216.735 59.305 216.741 59.2673 216.741C59.2234 216.741 59.1794 216.728 59.1418 216.703V216.697ZM56.9636 195.96C51.9546 188.453 44.9746 183.932 41.0829 185.674C39.5513 186.359 38.6098 187.535 38.434 188.987C38.2332 190.597 39.0115 192.27 40.5117 193.458C40.8695 193.741 41.4281 194.124 42.1437 194.615C46.6317 197.683 57.0766 204.832 59.487 216.075L62.1924 215.062C62.4058 213.893 63.5419 205.826 56.9636 195.96Z" fill="#146C94"/>
<path d="M61.0624 216.062C61.0624 216.062 61.0875 216.062 61.1001 216.062C61.257 216.049 61.37 215.911 61.3574 215.754C60.2024 202.519 49.7262 190.754 43.3111 188.786C43.1605 188.742 43.0035 188.824 42.9596 188.975C42.9157 189.126 42.9973 189.283 43.1479 189.327C49.4939 191.276 59.7066 203.254 60.7988 215.804C60.8113 215.949 60.9243 216.056 61.0687 216.062H61.0624Z" fill="#146C94"/>
<path d="M62.4247 215.553C62.4624 215.553 62.5063 215.553 62.544 215.534L64.6718 214.635C64.7597 214.597 64.8225 214.521 64.8413 214.433C64.8664 214.301 67.4149 201.267 62.7574 184.567C60.3847 176.06 54.4529 168.144 48.653 165.748C45.8598 164.598 43.2485 164.692 40.8884 166.031C39.5514 166.792 38.7731 167.779 38.5659 168.98C37.9947 172.294 41.8362 176.727 45.9037 181.423C48.7472 184.712 51.6911 188.107 53.1975 191.22C53.2666 191.358 53.4361 191.414 53.5742 191.352C53.7123 191.282 53.775 191.113 53.706 190.974C52.1681 187.793 49.1991 184.366 46.3305 181.052C42.3572 176.462 38.5973 172.124 39.1246 169.074C39.3003 168.037 39.972 167.201 41.1709 166.522C43.3741 165.27 45.8221 165.182 48.4396 166.27C54.0951 168.609 59.8888 176.368 62.2176 184.718C66.5738 200.343 64.5777 212.704 64.3141 214.176L62.3243 215.018C62.1799 215.081 62.1108 215.245 62.1736 215.389C62.2176 215.49 62.318 215.559 62.4184 215.559L62.4247 215.553Z" fill="#146C94"/>
<path d="M62.1233 207.454C62.1233 207.454 62.1359 207.454 62.1421 207.454C62.2991 207.454 62.4183 207.322 62.4183 207.165C61.9162 186.554 48.8098 171.395 45.1441 168.943C45.0123 168.854 44.8365 168.892 44.7549 169.018C44.667 169.15 44.7047 169.326 44.8302 169.408C48.4395 171.822 61.3638 186.787 61.8534 207.178C61.8534 207.329 61.9727 207.448 62.1233 207.454Z" fill="#146C94"/>
<path d="M247.394 216.735C247.356 216.735 247.319 216.735 247.281 216.716L244.124 215.534C244.036 215.502 243.967 215.427 243.948 215.333C243.929 215.245 241.996 206.48 249.227 195.646C254.387 187.912 261.674 183.303 265.811 185.158C267.499 185.913 268.585 187.283 268.792 188.912C269.018 190.723 268.158 192.584 266.501 193.898C266.131 194.194 265.56 194.583 264.838 195.074C260.369 198.136 249.892 205.304 247.658 216.502C247.639 216.584 247.589 216.653 247.52 216.691C247.482 216.71 247.438 216.722 247.394 216.728V216.735ZM244.469 215.062L247.174 216.075C249.585 204.832 260.036 197.683 264.518 194.615C265.233 194.124 265.798 193.741 266.15 193.458C267.656 192.27 268.428 190.597 268.227 188.987C268.045 187.535 267.104 186.359 265.578 185.674C261.687 183.932 254.707 188.453 249.698 195.96C243.119 205.819 244.256 213.886 244.469 215.062Z" fill="#146C94"/>
<path d="M245.599 216.062C245.599 216.062 245.574 216.062 245.561 216.062C245.404 216.049 245.291 215.911 245.304 215.754C246.459 202.519 256.935 190.754 263.35 188.786C263.501 188.742 263.658 188.824 263.701 188.975C263.745 189.126 263.664 189.283 263.513 189.327C257.167 191.276 246.955 203.254 245.862 215.804C245.85 215.949 245.731 216.056 245.592 216.062H245.599Z" fill="#146C94"/>
<path d="M244.237 215.553C244.199 215.553 244.155 215.553 244.118 215.534L241.99 214.635C241.902 214.597 241.839 214.521 241.82 214.433C241.795 214.301 239.247 201.267 243.904 184.567C246.277 176.06 252.209 168.144 258.009 165.748C260.802 164.598 263.413 164.692 265.773 166.031C267.11 166.792 267.888 167.779 268.096 168.98C268.667 172.294 264.825 176.727 260.758 181.423C257.914 184.712 254.97 188.107 253.464 191.22C253.395 191.358 253.225 191.414 253.087 191.352C252.949 191.282 252.887 191.113 252.956 190.974C254.493 187.793 257.462 184.366 260.331 181.052C264.304 176.462 268.064 172.124 267.537 169.074C267.361 168.037 266.69 167.201 265.491 166.522C263.287 165.27 260.839 165.182 258.222 166.27C252.566 168.609 246.773 176.368 244.444 184.718C240.088 200.343 242.084 212.704 242.347 214.176L244.337 215.018C244.482 215.081 244.551 215.245 244.488 215.389C244.444 215.49 244.344 215.559 244.243 215.559L244.237 215.553Z" fill="#146C94"/>
<path d="M244.538 207.454C244.538 207.454 244.526 207.454 244.519 207.454C244.362 207.454 244.243 207.322 244.243 207.165C244.745 186.554 257.852 171.395 261.517 168.943C261.649 168.854 261.825 168.892 261.907 169.018C261.994 169.15 261.957 169.326 261.831 169.408C258.222 171.822 245.298 186.787 244.808 207.178C244.808 207.329 244.689 207.448 244.538 207.454Z" fill="#146C94"/>
<path d="M211.346 262.188C239.471 262.188 262.271 249.002 262.271 232.737C262.271 216.471 239.471 203.286 211.346 203.286C183.221 203.286 160.421 216.471 160.421 232.737C160.421 249.002 183.221 262.188 211.346 262.188Z" fill="#E0E0E0"/>
<path d="M95.2092 262.188C123.334 262.188 146.134 249.002 146.134 232.737C146.134 216.471 123.334 203.286 95.2092 203.286C67.0841 203.286 44.2842 216.471 44.2842 232.737C44.2842 249.002 67.0841 262.188 95.2092 262.188Z" fill="#E0E0E0"/>
<path d="M242.278 218.646C241.908 211.133 241.657 193.911 241.494 190.635C240.935 179.619 239.485 176.444 238.632 172.652C237.784 168.861 237.885 156.216 237.069 137.435C236.391 121.917 235.932 116.516 235.543 111.819H192.276C190.594 126.595 188.541 147.363 187.882 162.636C187.292 176.236 190.142 196.212 188.931 203.833C188.397 207.203 186.037 209.768 183.965 211.573C182.045 213.251 179.948 214.735 177.87 216.213C176.797 216.974 175.642 217.678 174.625 218.514C173.728 219.244 172.585 219.797 171.863 220.727C171.242 221.52 170.978 222.683 171.499 223.544C171.951 224.286 172.843 224.62 173.677 224.858C177.82 226.028 182.515 225.978 186.175 223.708C188.679 222.155 190.519 219.703 192.992 218.112C194.894 216.886 197.141 216.194 198.848 214.71C199.369 214.258 199.834 213.729 200.154 213.126C201.24 211.089 200.543 208.649 200.625 206.467C200.637 206.065 200.85 203.613 200.819 203.436C200.907 201.544 205.194 183.329 206.318 176.947C207.642 169.402 207.171 163.969 207.171 163.969L212.896 142.541C212.896 142.541 218.15 167.264 220.077 176.833C221.495 183.863 229.844 214.484 230.974 219.898C231.175 222.696 233.196 234.629 233.56 237.61C235.192 250.801 246.133 244.162 245.241 239.144C243.854 231.31 242.335 220.262 242.253 218.646H242.278Z" fill="#FFA8A7"/>
<path d="M169.61 223.858C169.409 223.865 169.196 226.172 170.326 227.096C171.631 228.165 175.397 229.844 180.256 228.97C185.114 228.103 187.7 226.417 189.59 224.644C191.479 222.865 194.128 220.362 196.319 219.759C198.352 219.199 201.648 217.854 202.275 217.168C202.909 216.483 202.702 213.572 202.702 213.572L169.616 223.865L169.61 223.858Z" fill="#263238"/>
<path d="M200.838 203.436C200.838 203.436 201.51 203.726 201.661 204.392C201.843 205.191 201.887 206.215 202.263 207.523C202.784 209.334 202.859 213.075 202.646 214.578C202.433 216.081 198.026 217.552 195.923 218.489C193.77 219.445 191.316 221.331 189.169 223.318C186.947 225.374 182.196 227.556 179.02 227.744C174.161 228.034 170.966 226.814 169.924 225.047C168.637 222.865 169.146 220.526 174.626 217.602C175.661 217.049 179.289 214.609 180.52 213.729C181.825 212.799 183.068 211.774 184.204 210.636C184.782 210.057 185.328 209.454 185.843 208.819C186.59 207.888 187.267 206.932 187.562 205.75C187.675 205.304 187.732 204.845 187.883 204.411C188.033 203.977 188.303 203.562 188.711 203.355C189.144 203.135 189.665 203.185 190.149 203.241C191.73 203.424 193.344 203.625 194.837 204.21C196.168 204.738 196.545 205.807 196.652 207.177C196.677 207.511 196.683 207.857 196.702 208.19C196.708 208.334 196.658 208.592 196.852 208.529C197.034 208.466 197.223 207.951 197.286 207.775C197.424 207.391 197.511 206.983 197.662 206.605C197.838 206.171 197.976 205.668 198.309 205.354C199.206 204.505 200.48 204.625 200.738 204.342C200.738 204.342 200.813 203.726 200.832 203.443L200.838 203.436Z" fill="#37474F"/>
<path d="M174.318 217.766C181.373 217.954 183.564 223.67 183.966 226.436C182.246 227.153 180.463 227.656 179.013 227.744C174.155 228.033 170.759 226.82 169.717 225.059C168.499 223.003 169.403 219.941 174.318 217.766Z" fill="#FAFAFA"/>
<path d="M184.669 218.697C184.744 218.697 184.819 218.665 184.882 218.609C185.027 218.477 185.039 218.257 184.914 218.106C183.884 216.911 180.614 214.39 178.065 214.792C177.877 214.824 177.745 215.006 177.777 215.194C177.802 215.389 177.977 215.521 178.166 215.49C180.545 215.119 183.583 217.628 184.399 218.577C184.468 218.659 184.568 218.703 184.669 218.697Z" fill="#F0F0F0"/>
<path d="M187.632 216.741C187.707 216.741 187.782 216.709 187.845 216.653C187.989 216.521 188.002 216.294 187.876 216.15C186.847 214.955 183.577 212.428 181.028 212.836C180.84 212.868 180.708 213.05 180.739 213.239C180.765 213.434 180.934 213.566 181.129 213.534C183.508 213.163 186.546 215.672 187.362 216.621C187.431 216.703 187.531 216.747 187.632 216.741Z" fill="#F0F0F0"/>
<path d="M190.356 214.528C190.431 214.528 190.506 214.496 190.569 214.44C190.714 214.308 190.726 214.087 190.601 213.937C189.571 212.742 186.288 210.214 183.752 210.617C183.564 210.648 183.432 210.83 183.464 211.019C183.489 211.214 183.658 211.346 183.853 211.315C186.225 210.944 189.27 213.452 190.086 214.402C190.155 214.484 190.255 214.528 190.356 214.521V214.528Z" fill="#F0F0F0"/>
<path d="M193.024 212.321C193.099 212.321 193.174 212.289 193.237 212.233C193.381 212.107 193.4 211.881 193.275 211.73C191.862 210.032 188.385 208.001 185.843 208.404C185.654 208.435 185.523 208.617 185.554 208.806C185.579 209.001 185.749 209.127 185.943 209.102C188.234 208.743 191.498 210.686 192.754 212.189C192.823 212.277 192.929 212.315 193.03 212.315L193.024 212.321Z" fill="#F0F0F0"/>
<path d="M232.982 243.57C233.346 246.941 233.968 249.148 235.23 251.065C236.491 252.983 238.713 253.48 240.898 252.775C243.082 252.071 245.838 250.361 246.327 247.406C246.811 244.457 247.08 242.439 246.415 239.333L232.982 243.57Z" fill="#263238"/>
<path d="M242.278 218.646C243.195 218.671 243.182 223.161 243.942 227.675C244.758 232.51 245.536 234.403 246.245 238.37C247.055 242.897 246.434 244.979 245.028 247.821C243.628 250.669 238.293 253.681 235.393 249.883C233.026 246.789 232.75 243.218 232.719 238.653C232.681 233.931 232.078 230.794 231.52 227.26C230.949 223.601 230.214 220.319 230.992 219.897C231.174 220.878 231.589 222.808 231.802 223.506C231.878 223.764 232.292 224.368 232.386 223.412C232.411 223.129 232.298 222.481 232.304 222.199C232.329 221.406 232.788 221.249 233.076 221.06C233.704 220.652 235.135 220.067 236.918 219.96C238.701 219.847 240.238 219.702 241.262 220.174C241.877 220.457 241.889 221.048 241.983 221.62C242.096 222.299 242.128 222.727 242.285 222.582C242.599 222.287 242.203 219.149 242.278 218.659V218.646Z" fill="#37474F"/>
<path d="M246.635 240.999C246.936 243.822 246.384 245.802 245.285 248.028C243.879 250.876 238.111 253.92 235.211 250.122C233.767 248.229 233.29 245.928 232.982 243.57C234.439 240.433 243.955 238.553 246.635 240.999Z" fill="#FAFAFA"/>
<path d="M234.715 238.496C234.752 238.496 234.79 238.477 234.828 238.458C234.865 238.44 238.996 236.396 243.157 237.144C243.339 237.176 243.515 237.05 243.553 236.861C243.584 236.673 243.458 236.49 243.276 236.459C238.876 235.667 234.664 237.76 234.507 237.849C234.344 237.943 234.282 238.157 234.369 238.326C234.438 238.458 234.583 238.528 234.721 238.502L234.715 238.496Z" fill="#F0F0F0"/>
<path d="M242.774 233.755C242.9 233.736 243.013 233.642 243.051 233.504C243.101 233.315 242.994 233.12 242.818 233.07C238.65 231.869 234.219 234.277 234.056 234.378C233.892 234.478 233.842 234.692 233.936 234.855C234.031 235.019 234.244 235.069 234.401 234.975C234.439 234.95 238.757 232.617 242.636 233.742C242.686 233.755 242.73 233.761 242.781 233.749L242.774 233.755Z" fill="#F0F0F0"/>
<path d="M242.467 230.554C242.592 230.536 242.699 230.441 242.737 230.309C242.793 230.121 242.686 229.926 242.511 229.875C237.922 228.461 233.735 231.057 233.579 231.164C233.422 231.271 233.384 231.491 233.491 231.649C233.597 231.806 233.811 231.85 233.961 231.743C233.993 231.718 238.048 229.234 242.316 230.548C242.366 230.561 242.417 230.567 242.467 230.561V230.554Z" fill="#F0F0F0"/>
<path d="M242.077 227.411C242.203 227.392 242.31 227.304 242.347 227.172C242.404 226.99 242.303 226.788 242.128 226.732C237.828 225.336 233.309 228.008 233.139 228.121C232.982 228.228 232.938 228.442 233.039 228.605C233.139 228.769 233.353 228.819 233.509 228.706C233.547 228.681 237.928 226.103 241.921 227.398C241.971 227.417 242.027 227.417 242.077 227.411Z" fill="#EBEBEB"/>
<path d="M235.675 111.819L190.833 105.418C188.636 117.805 186.583 140.434 185.773 155.217C188.19 161.724 203.631 164.252 209.13 161.844L212.319 148.074C212.319 148.074 213.769 155.927 214.798 163.284C216.167 164.34 218.558 166.717 227.628 165.88C237.91 164.937 238.845 161.995 239.529 160.97C239.184 154.456 238.224 140.019 237.897 135.348C237.15 124.696 236.341 115.969 235.675 111.826V111.819Z" fill="#37474F"/>
<path d="M212.319 148.068L209.683 124.696C209.683 124.696 203.098 122.772 198.924 118.107C199.181 121.54 204.987 126.036 207.737 126.765L210.618 147.728L209.13 161.837L212.319 148.068Z" fill="#263238"/>
<path d="M260.256 6.99164C261.041 8.12341 262.811 7.37519 263.815 8.07311C264.506 8.55097 264.368 9.37465 263.715 9.77078C263.006 10.2046 262.133 10.0852 261.342 10.2046C260.413 10.3492 259.578 10.7454 258.794 11.2484C257.155 12.2921 255.04 13.1975 253.138 12.2041C253.232 12.2544 254.161 11.4559 254.249 11.3867C256.252 9.92168 258.26 8.46295 260.25 6.98535L260.256 6.99164Z" fill="#F28F8F"/>
<path d="M275.02 1.98684C274.951 1.84852 274.762 1.82337 274.612 1.86109C274.392 1.91139 274.21 1.92397 273.996 1.94912C273.909 1.96169 273.331 2.01828 273.3 2.08116C273.35 1.94912 273.388 1.81079 273.381 1.67246C273.381 1.53413 273.381 1.23233 273.275 1.1443C273.124 1.02484 272.804 0.999686 272.609 0.974535C271.737 0.873933 271.272 0.817344 270.488 0.716742C269.257 0.559551 268.077 0.207443 266.929 0.370922C265.78 0.5344 264.681 0.565839 262.98 0.679016C261.279 0.792194 260.124 0.679016 257.978 1.15059C256.741 1.42096 252.259 2.57788 249.83 3.17521C242.404 5.00491 225.934 8.56371 221.753 10.5883C217.573 12.6067 216.029 13.0657 213.355 20.0261C210.643 27.0934 208.195 34.6134 205.05 47.5974C202.646 57.5067 202.47 58.7516 200.311 66.5986C200.782 69.4595 206.5 62.3167 211.315 58.5064C217.843 53.3317 222.299 48.3393 222.506 46.4782C222.877 43.1394 222.557 41.9951 223.065 38.8638C223.712 34.8712 227.635 23.195 227.635 23.195C227.635 23.195 235.23 19.215 239.912 16.549C245.48 13.38 249.692 10.2425 251.751 11.6635C253.477 12.7701 254.852 12.1477 256.145 11.2422C257.438 10.3368 258.492 8.7209 259.428 7.76518C260.808 6.35046 261.543 6.50137 262.623 6.23729C263.702 5.97949 264.788 5.50163 265.378 5.09294C265.422 5.0615 265.767 5.16839 265.836 5.17468C265.987 5.19354 266.144 5.20612 266.301 5.2124C266.621 5.23127 266.941 5.22498 267.261 5.23755C267.506 5.24384 267.757 5.25013 268.008 5.25013C268.385 5.25013 268.768 5.21869 269.132 5.1621C269.471 5.10551 269.803 5.00491 270.149 4.9609C270.714 4.88545 271.291 4.90431 271.85 4.75969C272.157 4.67795 272.459 4.51447 272.622 4.24411C272.672 4.15608 272.71 4.06176 272.785 3.9926C272.841 3.9423 272.91 3.90457 272.986 3.87942C273.463 3.67822 273.984 3.53989 274.392 3.21922C274.693 2.98029 274.919 2.64076 275.026 2.26979C275.051 2.18176 275.07 2.08116 275.026 1.99942L275.02 1.98684Z" fill="#FFA8A7"/>
<path d="M269.948 4.94189C268.504 5.25627 266.998 5.24369 265.573 4.99848C265.529 5.00476 265.429 4.96075 265.265 5.04249C264.581 5.5455 263.483 5.9542 262.918 6.08624C262.353 6.21828 261.6 6.38804 261.085 6.49493C261.148 6.45721 261.21 6.41948 261.267 6.38804C261.493 6.26229 261.713 6.12396 261.932 6.0045C262.378 5.75299 262.842 5.55179 263.332 5.35687C262.805 5.36316 262.29 5.53921 261.826 5.79072C261.43 6.01079 261.072 6.28744 260.752 6.60182C260.319 6.78417 259.943 7.07968 259.641 7.35634C258.919 8.07313 258.172 9.03514 257.363 9.91541C256.547 10.343 255.668 10.6825 254.795 10.5819C254.343 10.5379 253.904 10.4499 253.465 10.2801C253.032 10.1103 252.58 9.73307 252.14 9.49414C252.448 9.88397 252.837 10.2172 253.276 10.4687C253.716 10.7202 254.212 10.8774 254.72 10.9277C255.63 11.022 256.522 10.6008 257.237 10.0412C255.718 11.6571 253.979 12.9146 251.757 11.6445C253.465 13.0026 255.637 12.0218 257.049 10.6951C258.461 9.49414 259.352 7.54497 261.079 6.79045C261.474 6.67728 262.07 6.58296 262.999 6.35661C263.928 6.12396 264.763 5.80958 265.454 5.26885C265.498 5.27513 265.548 5.28771 265.598 5.30028C267.061 5.48263 268.542 5.46376 269.961 5.0865C270.82 4.84757 272.07 5.09908 272.628 4.2251C271.975 5.02992 270.858 4.74697 269.954 4.9356L269.948 4.94189Z" fill="#F28F8F"/>
<path d="M266.86 3.23799C267.023 3.14368 267.192 3.04307 267.381 3.02421C267.525 3.01164 267.663 3.04307 267.801 3.06194C268.404 3.15625 269.025 3.06823 269.584 2.82929C269.716 2.77271 269.847 2.70354 269.985 2.69097C270.13 2.6721 270.274 2.70983 270.419 2.73498C270.94 2.81672 271.473 2.70983 271.994 2.60923C272.126 2.58408 272.258 2.55893 272.377 2.50863C272.446 2.47719 272.515 2.43946 272.572 2.38916C272.145 2.54006 271.693 2.61552 271.241 2.61552C270.802 2.61552 270.412 2.50863 269.985 2.42689L269.929 2.41431L269.854 2.44575C269.672 2.52749 269.452 2.60294 269.245 2.66582C269.038 2.72869 268.824 2.76013 268.611 2.79157C268.178 2.84816 267.745 2.83558 267.318 2.75384L267.186 2.72869L267.117 2.79157C267.004 2.89217 266.86 3.00535 266.715 3.09338C266.571 3.18769 266.42 3.27572 266.263 3.35117C266.106 3.42662 265.949 3.50836 265.786 3.56495C265.623 3.62782 265.447 3.67184 265.271 3.71585C265.855 3.76615 266.37 3.5398 266.866 3.24428L266.86 3.23799Z" fill="#F28F8F"/>
<path d="M272.371 3.99882C272.477 3.97996 272.578 3.92966 272.678 3.91708C272.339 3.9611 271.975 3.89193 271.636 3.8605C271.561 3.85421 271.492 3.84792 271.416 3.85421C271.341 3.85421 271.259 3.87307 271.184 3.88565C270.795 3.9611 270.418 4.05541 270.023 4.03655C269.602 4.02397 269.188 3.92966 268.805 3.77247L268.686 3.72217L268.592 3.81019C268.435 3.94852 268.221 4.09314 268.021 4.20632C267.813 4.32578 267.594 4.43267 267.368 4.5207C267.142 4.60872 266.91 4.69046 266.671 4.75963C266.432 4.83508 266.188 4.87281 265.943 4.92939C266.79 4.94197 267.525 4.6716 267.813 4.52699C267.995 4.43267 268.171 4.33207 268.347 4.23147C268.466 4.1623 268.655 3.99254 268.805 4.01769C268.83 4.01769 268.855 4.03655 268.88 4.04913C269.276 4.25033 269.734 4.33207 270.18 4.27548C270.6 4.21889 270.996 4.04913 271.423 4.02397C271.63 4.0114 271.837 4.03655 272.044 4.03655C272.157 4.03655 272.27 4.03026 272.377 4.0114L272.371 3.99882Z" fill="#F28F8F"/>
<path d="M225.275 52.577C225.275 52.577 226.36 53.4258 231.928 55.9031C236.755 58.0535 247.564 63.8507 247.564 63.8507C247.564 63.8507 253.358 73.3136 246.095 82.3678C245.317 83.3361 237.985 89.7495 236.95 95.4021C235.864 101.306 235.738 106.135 236.09 113.372C236.09 113.372 226.379 121.251 208.207 117.786C194.147 115.108 190.462 105.638 190.462 105.638C190.462 105.638 192.502 89.1396 195.804 79.1234C198.484 70.9935 201.347 63.2219 203.933 59.3676C209.927 50.4392 222.519 46.4717 222.519 46.4717C222.814 49.0999 223.743 51.2943 225.275 52.5833V52.577Z" fill="#146C94"/>
<path d="M236.95 26.3392C236.95 26.3392 234.991 25.4841 232.499 27.2069C231.244 28.0746 229.65 30.0174 228.049 37.1476C227.02 41.7376 227.409 44.1835 227.402 45.6108C227.402 47.0381 228.432 47.9875 228.432 47.9875L230.842 43.1334L232.43 39.7004C232.43 39.7004 236.41 38.6818 237.91 36.4057C239.843 33.4756 239.561 31.0926 239.561 31.0926L236.95 26.3392Z" fill="#263238"/>
<path d="M236.347 25.7229C238.236 23.277 243.346 21.8749 250.106 25.0124C255.649 27.5841 257.639 31.124 258.028 35.255C258.461 39.8324 254.845 42.819 254.845 42.819L238.5 32.7273L236.341 25.7229H236.347Z" fill="#263238"/>
<path d="M225.865 41.7814C227.704 44.3027 229.876 42.9383 229.876 42.9383L225.024 53.0111C217.736 56.5825 230.039 63.7504 237.64 58.8083L238.82 56.5511C238.82 56.5511 239.649 56.9912 241.08 57.4816C243.459 58.299 245.738 58.5254 248.173 55.5765C251.211 51.9045 253.854 46.8115 255.699 40.1152C256.057 38.8199 256.226 37.292 255.442 36.2043C253.496 33.5006 250.069 34.0916 245.643 33.576C243.811 33.3622 239.988 31.6709 239.26 30.6963C239.793 32.7901 237.891 36.6884 235.048 37.5058C234.929 37.6567 234.125 39.128 233.052 39.128C231.847 39.128 232.098 36.9273 231.796 35.8584C231.489 34.7958 229.292 32.8215 226.976 34.5695C224.622 36.3489 224.164 39.4487 225.865 41.7877V41.7814Z" fill="#FFA8A7"/>
<path d="M238.814 56.5512C235.946 55.0044 233.579 53.2942 232.261 51.6782C230.943 50.0623 230.654 46.9562 231.37 44.416C230.397 46.252 229.48 49.9366 231.338 52.6591C233.196 55.3817 236.159 57.0416 238.017 58.0853L238.814 56.5574V56.5512Z" fill="#F28F8F"/>
<path d="M243.597 36.9338L240.628 37.2859C240.553 36.4434 241.161 35.6826 241.977 35.582C242.8 35.4877 243.522 36.0913 243.597 36.9338Z" fill="#263238"/>
<path d="M253.157 41.9452L251.205 39.6502C251.82 39.0843 252.761 39.1346 253.301 39.7697C253.841 40.4047 253.778 41.3793 253.157 41.9452Z" fill="#263238"/>
<path d="M241.105 39.8448C240.81 40.4484 241.067 41.1778 241.67 41.4733C242.272 41.7688 243.001 41.511 243.296 40.9074C243.591 40.3038 243.333 39.5744 242.731 39.2789C242.128 38.9834 241.4 39.2412 241.105 39.8448Z" fill="#263238"/>
<path d="M249.384 43.171C249.089 43.7746 249.347 44.504 249.949 44.7995C250.552 45.095 251.28 44.8372 251.575 44.2336C251.87 43.63 251.613 42.9006 251.01 42.6051C250.313 42.2656 249.723 42.4731 249.384 43.171Z" fill="#263238"/>
<path d="M247.005 40.1973L244.262 47.5286L248.587 48.1134C248.581 45.0136 248.053 42.3728 247.005 40.2036V40.1973Z" fill="#F28F8F"/>
<path d="M240.026 46.7612L243.101 49.9742C242.216 50.8733 240.804 50.8796 239.957 49.9931C239.109 49.1065 239.141 47.6541 240.026 46.7612Z" fill="#B16668"/>
<path d="M240.057 47.6481C239.913 47.5286 239.762 47.4343 239.605 47.3525C239.159 48.2139 239.266 49.2891 239.95 49.9996C240.12 50.1757 240.321 50.314 240.528 50.4146C241.143 49.6224 240.942 48.3963 240.057 47.6418V47.6481Z" fill="#F28F8F"/>
<path d="M239.843 124.891C240.979 124.294 242.304 123.885 243.076 122.804C243.471 122.244 243.672 121.502 243.446 120.854C243.396 120.716 243.333 120.584 243.346 120.439C243.358 120.32 243.421 120.213 243.484 120.113C243.735 119.685 243.936 119.201 243.886 118.71C243.848 118.295 243.616 117.899 243.277 117.654C243.735 117.063 243.992 116.321 244.005 115.573C244.017 114.686 243.434 113.768 242.58 114.46C242.166 114.793 241.808 115.202 241.469 115.617C240.634 116.654 239.937 117.811 239.366 119.012C238.764 120.27 237.132 123.841 239.084 124.746C239.234 124.816 239.68 124.985 239.837 124.904L239.843 124.891Z" fill="#F28F8F"/>
<path d="M247.564 63.8447C253.558 66.9067 254.958 68.2649 259.227 78.2308C262.478 85.82 266.998 95.6853 267.324 99.3069C267.732 103.79 267.581 105.4 262.007 108.009C259.139 109.355 255.285 110.801 251.261 112.561C248.091 113.945 244.382 115.29 241.262 116.78C240.433 117.176 239.9 117.667 239.787 118.641C239.718 119.207 239.768 119.792 239.636 120.345C239.467 121.062 239.008 121.672 238.732 122.351C238.45 123.03 238.387 123.904 238.908 124.42C239.159 124.671 239.511 124.797 239.85 124.891C239.109 125.099 238.349 125.275 237.584 125.243C236.818 125.212 236.033 124.96 235.493 124.413C234.972 123.879 234.715 123.112 234.112 122.666C233.786 122.427 233.391 122.307 233.064 122.074C232.725 121.842 232.462 121.49 232.33 121.1C232.123 120.477 232.211 119.729 231.777 119.239C231.57 119.006 231.269 118.874 231.037 118.66C230.56 118.233 230.409 117.529 230.497 116.893C230.585 116.258 230.88 115.674 231.187 115.108C231.934 113.718 232.75 112.366 233.635 111.059C233.974 110.556 234.677 109.864 235.173 109.512C235.726 109.122 236.265 108.701 236.837 108.342C240.728 105.903 253.251 97.5967 253.251 97.5967L244.438 83.1477C243.861 82.2046 243.515 81.142 243.415 80.0416C243.076 76.3445 242.888 67.8436 247.577 63.8384L247.564 63.8447Z" fill="#FFA8A7"/>
<path d="M239.843 124.891C238.13 125.426 235.87 125.432 234.985 123.583C234.74 123.194 234.476 122.772 234.056 122.502C233.221 122.087 232.424 121.641 232.342 120.616C232.267 120.176 232.254 119.666 231.947 119.226C231.614 118.792 231.137 118.667 230.924 118.302C230.685 117.956 230.597 117.503 230.635 117.069C231.081 114.925 232.719 112.907 233.861 111.033C234.621 109.87 235.926 109.273 237.006 108.437L239.335 106.902C243.842 103.935 248.807 100.621 253.238 97.5967C248.694 100.439 243.672 103.677 239.153 106.613L236.818 108.135C235.713 108.971 234.32 109.612 233.56 110.826C232.775 111.989 232.047 113.184 231.369 114.41C230.943 115.221 230.403 116.045 230.315 117.044C230.283 117.535 230.378 118.05 230.673 118.478C230.968 118.924 231.495 119.069 231.721 119.396C231.972 119.723 232.003 120.201 232.091 120.66C232.16 121.131 232.374 121.622 232.738 121.955C233.096 122.313 233.579 122.445 233.949 122.678C234.728 123.175 234.979 124.225 235.776 124.74C236.987 125.564 238.544 125.294 239.85 124.891H239.843Z" fill="#F28F8F"/>
<path d="M253.238 97.6094C254.763 100.772 258.36 102.281 259.735 102.683C254.28 102.91 252.102 98.3576 252.102 98.3576L253.232 97.6094H253.238Z" fill="#F28F8F"/>
<path d="M64.4266 217.785C65.1359 210.466 66.1779 193.659 66.4918 190.471C67.5463 179.745 69.1155 176.708 70.1199 173.048C71.1242 169.389 69.8186 159.442 70.0885 141.069C70.2642 129.217 73.4655 123.873 76.3403 115.749H116.846C118.591 130.764 120.191 150.689 120.128 165.641C120.072 178.946 116.362 198.325 117.191 205.819C117.555 209.133 119.739 211.749 121.679 213.61C123.48 215.339 125.451 216.886 127.41 218.426C128.42 219.218 129.519 219.96 130.473 220.822C131.314 221.576 132.406 222.174 133.072 223.11C133.643 223.915 133.844 225.066 133.291 225.877C132.814 226.581 131.935 226.864 131.107 227.059C127.002 228.008 122.426 227.744 118.955 225.355C116.582 223.727 114.9 221.243 112.558 219.57C110.757 218.288 108.591 217.508 106.997 215.974C106.514 215.509 106.081 214.974 105.792 214.364C104.825 212.327 105.616 209.976 105.641 207.844C105.641 207.448 105.553 205.046 105.591 204.876C105.591 203.028 102.252 185.039 101.455 178.751C100.513 171.319 101.222 166.044 101.222 166.044L96.6275 144.855C96.6275 144.855 90.3505 168.754 88.0218 178.003C86.3144 184.8 76.7358 214.314 75.38 219.545C75.0536 222.268 72.5302 233.825 72.0281 236.717C69.8248 249.519 59.449 242.527 60.5475 237.673C62.2674 230.083 64.2634 219.369 64.4141 217.797L64.4266 217.785Z" fill="#FFA8A7"/>
<path d="M135.137 226.267C135.331 226.286 135.438 228.543 134.289 229.392C132.965 230.373 129.211 231.838 124.51 230.762C119.808 229.687 117.36 227.927 115.597 226.103C113.833 224.28 111.366 221.708 109.257 221.017C107.298 220.375 104.141 218.91 103.557 218.212C102.974 217.514 103.306 214.679 103.306 214.679L135.137 226.267Z" fill="#263238"/>
<path d="M105.597 204.87C105.597 204.87 104.926 205.122 104.75 205.763C104.537 206.53 104.442 207.536 104.016 208.794C103.426 210.542 103.181 214.188 103.313 215.666C103.451 217.144 107.681 218.785 109.696 219.803C111.749 220.841 114.065 222.79 116.067 224.833C118.139 226.946 122.677 229.298 125.778 229.631C130.504 230.14 133.687 229.096 134.785 227.424C136.147 225.355 135.758 223.041 130.542 219.935C129.557 219.344 126.129 216.798 124.962 215.88C123.732 214.911 122.564 213.855 121.503 212.686C120.97 212.095 120.461 211.478 119.991 210.831C119.306 209.888 118.685 208.919 118.453 207.756C118.365 207.316 118.327 206.863 118.202 206.436C118.07 206.008 117.831 205.587 117.442 205.367C117.028 205.134 116.519 205.153 116.049 205.184C114.492 205.291 112.91 205.411 111.422 205.914C110.098 206.367 109.684 207.398 109.508 208.724C109.464 209.051 109.445 209.385 109.414 209.712C109.401 209.85 109.439 210.108 109.251 210.032C109.075 209.963 108.918 209.448 108.861 209.278C108.742 208.894 108.679 208.492 108.548 208.115C108.397 207.681 108.284 207.184 107.976 206.863C107.142 205.996 105.886 206.052 105.648 205.757C105.648 205.757 105.604 205.153 105.597 204.87Z" fill="#37474F"/>
<path d="M130.824 220.099C123.926 219.954 121.522 225.437 121.001 228.116C122.646 228.895 124.359 229.474 125.778 229.625C130.504 230.134 133.881 229.109 134.98 227.437C136.26 225.488 135.52 222.457 130.824 220.099Z" fill="#FAFAFA"/>
<path d="M120.675 220.526C120.599 220.52 120.53 220.488 120.468 220.426C120.336 220.294 120.336 220.073 120.468 219.935C121.528 218.816 124.836 216.502 127.303 217.018C127.485 217.055 127.604 217.238 127.567 217.426C127.529 217.615 127.36 217.734 127.171 217.697C124.868 217.225 121.786 219.533 120.945 220.419C120.869 220.495 120.775 220.532 120.675 220.52V220.526Z" fill="#F0F0F0"/>
<path d="M117.875 218.47C117.8 218.464 117.73 218.432 117.668 218.369C117.536 218.237 117.536 218.017 117.668 217.879C118.729 216.76 122.043 214.446 124.503 214.962C124.685 214.999 124.805 215.182 124.767 215.37C124.729 215.559 124.56 215.678 124.372 215.641C122.068 215.169 118.986 217.477 118.145 218.363C118.069 218.439 117.969 218.476 117.875 218.464V218.47Z" fill="#F0F0F0"/>
<path d="M115.314 216.188C115.238 216.182 115.169 216.15 115.107 216.087C114.975 215.955 114.975 215.735 115.107 215.597C116.167 214.478 119.488 212.164 121.942 212.679C122.124 212.717 122.244 212.899 122.206 213.088C122.168 213.277 121.999 213.396 121.81 213.358C119.513 212.887 116.425 215.194 115.584 216.081C115.508 216.156 115.414 216.194 115.314 216.182V216.188Z" fill="#F0F0F0"/>
<path d="M112.809 213.912C112.734 213.905 112.665 213.874 112.609 213.817C112.471 213.685 112.471 213.465 112.596 213.327C114.059 211.736 117.542 209.913 120.009 210.422C120.191 210.46 120.31 210.642 120.273 210.831C120.235 211.019 120.066 211.139 119.877 211.101C117.655 210.642 114.379 212.39 113.086 213.798C113.01 213.88 112.91 213.912 112.809 213.905V213.912Z" fill="#F0F0F0"/>
<path d="M72.3482 242.559C71.8335 245.828 71.1242 247.96 69.8061 249.777C68.4879 251.588 66.2972 251.971 64.1944 251.185C62.0917 250.393 59.4804 248.595 59.1415 245.69C58.8025 242.785 58.6393 240.804 59.4302 237.799L72.3482 242.559Z" fill="#263238"/>
<path d="M64.4266 217.785C63.529 217.766 63.3344 222.149 62.3803 226.525C61.3571 231.209 60.5098 233.02 59.631 236.862C58.6267 241.244 59.1414 243.307 60.3779 246.149C61.6145 248.991 66.68 252.185 69.693 248.607C72.1473 245.696 72.5804 242.225 72.8252 237.767C73.0763 233.158 73.8169 230.128 74.52 226.695C75.2481 223.148 76.1143 219.98 75.3799 219.527C75.1539 220.476 74.6643 222.344 74.4258 223.01C74.3379 223.262 73.9048 223.828 73.8609 222.891C73.8483 222.614 73.9927 221.985 73.999 221.709C74.0115 220.935 73.5721 220.759 73.2959 220.564C72.6996 220.137 71.3313 219.502 69.5925 219.307C67.8538 219.118 66.3599 218.898 65.343 219.307C64.7279 219.552 64.6902 220.13 64.571 220.684C64.4266 221.344 64.3764 221.759 64.232 221.608C63.9433 221.306 64.4705 218.263 64.4203 217.779L64.4266 217.785Z" fill="#37474F"/>
<path d="M59.1289 239.408C58.702 242.15 59.1477 244.105 60.1206 246.331C61.3572 249.173 66.8558 252.417 69.8625 248.846C71.3564 247.067 71.9339 244.841 72.3419 242.552C71.0614 239.421 61.8593 237.145 59.1289 239.408Z" fill="#FAFAFA"/>
<path d="M70.8858 237.522C70.8481 237.516 70.8105 237.503 70.7791 237.478C70.7477 237.459 66.8058 235.271 62.7069 235.812C62.5249 235.831 62.3617 235.705 62.3366 235.516C62.3115 235.328 62.4433 235.158 62.6253 235.133C66.9627 234.567 70.9737 236.805 71.1243 236.893C71.2812 236.994 71.3315 237.201 71.2373 237.365C71.162 237.49 71.0176 237.553 70.8858 237.522Z" fill="#F0F0F0"/>
<path d="M63.2341 232.517C63.1086 232.492 63.0082 232.391 62.9768 232.259C62.9391 232.077 63.0458 231.888 63.2278 231.85C67.3518 230.87 71.5637 233.429 71.7269 233.536C71.8775 233.642 71.9214 233.85 71.821 234.007C71.7206 234.164 71.5134 234.202 71.3628 234.101C71.3251 234.076 67.22 231.599 63.3785 232.517C63.3283 232.53 63.2843 232.53 63.2404 232.517H63.2341Z" fill="#F0F0F0"/>
<path d="M63.6862 229.411C63.5669 229.386 63.4602 229.292 63.4288 229.16C63.3849 228.977 63.4916 228.789 63.6736 228.745C68.2181 227.581 72.1915 230.304 72.3358 230.423C72.4802 230.536 72.5116 230.75 72.3986 230.901C72.2856 231.052 72.0785 231.084 71.9341 230.97C71.9027 230.945 68.0612 228.33 63.8305 229.411C63.7803 229.424 63.7301 229.424 63.6862 229.411Z" fill="#F0F0F0"/>
<path d="M64.2135 226.362C64.0942 226.336 63.9938 226.242 63.9624 226.116C63.9185 225.934 64.0189 225.745 64.2009 225.695C68.4693 224.532 72.7502 227.355 72.9134 227.474C73.064 227.581 73.0954 227.795 72.9887 227.952C72.882 228.109 72.6748 228.147 72.5242 228.028C72.4865 228.003 68.3312 225.28 64.3704 226.355C64.3202 226.368 64.27 226.368 64.2198 226.355L64.2135 226.362Z" fill="#EBEBEB"/>
<path d="M74.4133 115.925C73.6726 117.774 71.6828 120.289 70.1136 130.399C68.8393 138.598 69.7683 171.52 69.7683 171.52C69.7683 171.52 66.6236 179.141 65.8766 188.428C65.1359 197.715 64.979 211.126 64.979 211.126C64.979 211.126 66.7679 213.761 70.8166 214.66C74.8652 215.559 76.9743 214.094 76.9743 214.094C76.9743 214.094 87.0488 187.604 89.3337 178.104C91.6185 168.603 96.4329 147.433 96.4329 147.433L100.174 165.623C100.174 165.623 99.2324 171.596 100.061 177.877C100.89 184.165 104.825 199.463 104.825 199.463C104.825 199.463 108.252 201.462 112.219 201.091C116.187 200.72 117.304 198.086 117.304 198.086C117.304 198.086 120.555 175.633 120.85 167.169C121.145 158.706 122.231 128.431 117.116 110.851L74.407 115.913L74.4133 115.925Z" fill="#37474F"/>
<path d="M96.4453 147.439L100.174 129.67C100.174 129.67 106.696 128.098 110.983 123.734C110.575 127.073 104.693 131.192 101.975 131.776L98.9561 147.055L100.186 165.635L96.4453 147.445V147.439Z" fill="#263238"/>
<path d="M105.943 68.2461C103.005 65.7122 95.1901 55.784 92.5915 50.6344C89.9928 45.4848 81.4373 30.0298 79.1022 26.4522C76.7609 22.8745 75.8571 21.3277 67.3706 14.4553C63.0583 10.9657 53.7307 3.58401 51.3455 1.80461C48.9665 0.031495 47.0144 -0.402352 44.9555 0.352165C42.8967 1.10668 40.8127 2.69745 39.7582 3.20046C37.9253 4.06816 37.2662 4.9107 38.0257 5.66522C38.0257 5.66522 36.2933 6.6398 33.9143 7.18054C31.5354 7.72128 29.2568 7.72128 29.0434 8.58897C28.83 9.45666 30.0352 10.1546 30.0352 10.1546C30.0352 10.1546 29.4012 10.7205 31.278 11.607C33.1548 12.4936 36.6197 12.3867 40.8441 11.2989C45.0685 10.2112 46.2549 8.26201 47.2341 8.80275C48.207 9.34349 62.3867 25.836 64.0061 28.0052C65.6319 30.1744 81.77 64.134 81.77 64.134L105.943 68.2335V68.2461Z" fill="#F28F8F"/>
<path d="M44.2087 4.10592C44.0392 4.04934 43.8509 4.07449 43.6752 4.10592C42.7964 4.29455 42.0306 4.79756 41.2271 5.20626C40.9447 5.35088 40.6497 5.48292 40.3484 5.58981C40.0722 5.68412 39.8085 5.79101 39.5072 5.82245C39.0302 5.86646 38.5406 5.83502 38.0698 5.71556C38.4213 6.01737 38.9737 6.03623 39.4131 6.00479C40.0408 5.96078 40.7313 5.67783 41.315 5.44519C41.9302 5.19997 42.5076 4.87302 43.1165 4.60265C43.5057 4.42659 43.9137 4.28198 44.3217 4.15623C44.284 4.13107 44.2464 4.11221 44.2024 4.09964L44.2087 4.10592Z" fill="#B16668"/>
<path d="M73.836 64.6181C73.0451 65.1965 71.5324 65.184 70.8545 64.6307C70.8545 64.6307 64.6716 69.0823 64.1067 74.5274C63.5418 79.9725 65.5128 84.5625 67.6658 87.0587C69.8188 89.5549 75.9388 99.4327 76.6418 102.878C77.5771 107.475 76.5665 110.291 74.4135 115.925C74.4135 115.925 83.0255 120.257 95.4853 119.792C115.101 119.056 117.122 110.864 117.122 110.864C117.122 110.864 115.986 104.532 114.31 97.2132C112.81 90.6552 111.423 85.9206 111.423 85.9206C111.423 85.9206 115.27 79.0356 111.328 72.1067C105.999 62.7381 86.4025 60.9272 86.4025 60.9272L73.836 64.6244V64.6181Z" fill="#146C94"/>
<path d="M49.9832 39.4801C50.0899 39.9579 50.297 40.3981 50.6234 40.7313C51.4206 41.555 52.8517 41.6933 53.0024 43.1332C53.1028 44.1078 51.8851 44.7114 50.9561 44.6737C51.4143 46.4342 53.7933 45.5791 54.7411 44.9126C55.237 46.0632 55.5697 46.4971 56.9506 46.5097C59.0408 46.5348 59.8882 45.5854 60.7984 43.9191C61.6144 42.4164 63.5038 42.7119 64.9663 42.1146C66.6234 41.4418 67.3202 39.8573 67.113 38.0842C66.9938 37.0593 65.7133 36.1288 65.8074 35.1982C66.002 33.2364 69.3916 33.9281 70.3457 32.6643C71.6638 30.9226 70.1699 28.0177 68.1173 27.6719C67.4834 27.565 66.7992 27.9108 66.1903 27.8102C65.5438 27.7033 65.255 27.1626 64.8659 26.6973C63.5477 25.1002 61.7399 24.2263 59.6371 24.5721C58.8462 24.6978 58.0616 24.9431 57.4277 25.4586C56.7058 26.0434 56.461 26.9677 55.7956 27.5839C54.5277 28.7596 52.4563 28.6025 51.5461 30.3504C51.157 31.0986 51.1005 31.9412 51.3578 32.746C51.5399 33.3119 52.1173 33.7457 52.1236 34.3305C52.1236 35.4183 50.6862 36.2042 50.2405 37.0971C49.9078 37.7573 49.8011 38.6753 49.9832 39.4926V39.4801Z" fill="#37474F"/>
<path d="M73.7731 63.9391C73.6789 63.8322 74.7084 62.0025 74.7774 61.8516C76.7107 57.8464 78.644 53.8348 80.5773 49.8296C81.6444 47.6164 82.7115 45.4031 83.7786 43.1962C84.3624 41.9826 84.7704 40.4988 86.0697 39.8763C87.0301 39.4173 87.8837 39.4927 88.8943 39.6122C90.1685 39.7631 91.4302 39.5682 92.3404 38.4993C92.8112 37.9523 92.9555 37.2984 92.7672 36.6444C92.6982 36.4055 92.5287 36.0723 92.4596 35.9088C92.5601 36.9777 91.5934 37.3549 90.9783 37.2606C90.2439 37.1537 89.9865 36.6004 89.6538 35.9654C89.3086 35.3115 89.114 34.406 88.4801 33.9408C87.9465 33.5509 87.2121 33.4943 86.6723 33.8653C86.7602 33.0353 87.0866 32.2368 87.0677 31.4006C87.0489 30.602 86.8229 29.7972 86.4275 29.0993C85.737 27.8732 84.4251 27.4393 83.1195 27.1941C81.5565 26.8986 80.3074 27.4016 78.8574 27.9361C77.8406 28.307 76.8928 28.8541 75.8445 29.1307C74.9532 29.3634 73.9928 29.4388 73.0826 29.6086C70.7225 30.0361 68.5067 31.0422 66.4667 32.2808C55.9402 38.6942 57.5785 50.1251 61.2443 54.954C66.3035 61.6189 69.9881 59.8207 73.7668 63.9391H73.7731Z" fill="#37474F"/>
<path d="M90.9969 43.6866C94.8196 52.3132 92.8737 55.3376 91.7752 56.6014C90.6768 57.8589 88.9569 58.6826 86.1573 59.4748L87.4002 63.3795C92.8612 66.517 83.0754 72.8738 73.867 64.5741L71.8898 57.0478C71.8898 57.0478 71.4818 58.9593 68.6383 58.67C65.9141 58.3934 64.0185 54.9792 64.4579 52.942C64.8596 51.0809 67.2825 50.188 68.7199 51.3072C69.2848 51.7473 69.4041 51.98 69.8435 52.7094C70.0444 53.0426 70.2138 53.5267 70.5465 53.5519C72.0655 53.6462 72.348 51.4015 71.8019 49.9868C72.6807 48.4903 72.8941 47.0065 71.7517 44.6989C73.2519 44.8687 75.1099 43.2527 75.8757 41.9638C77.2001 39.7442 76.7105 38.2792 76.654 36.3426C76.6038 34.4501 78.2797 33.4377 80.0185 33.2491C80.9663 33.1485 83.1821 33.3749 85.0652 34.865C85.9502 35.5693 86.6156 36.525 87.2935 37.4304C88.8376 39.5116 89.9486 41.3162 90.9969 43.6866Z" fill="#FFA8A7"/>
<path d="M86.1509 59.4686C83.6715 59.9905 80.8845 60.3363 78.6374 59.8836C76.8484 59.5252 75.4298 58.5192 74.5762 57.7144C74.5762 57.7144 76.3839 60.877 78.7504 61.5247C81.1168 62.1786 86.7033 61.1663 86.7033 61.1663L86.1572 59.4623L86.1509 59.4686Z" fill="#F28F8F"/>
<path d="M80.0813 46.5284C80.4391 47.132 79.5415 46.629 78.964 46.9685C78.3802 47.308 78.33 48.3643 77.9785 47.7607C77.627 47.1571 77.809 46.39 78.3928 46.0505C78.9766 45.711 79.7361 45.9247 80.0876 46.5284H80.0813Z" fill="#263238"/>
<path d="M87.3752 42.9444C87.5258 43.6298 86.8353 42.869 86.1763 43.0136C85.5172 43.1582 85.1406 44.1454 84.9899 43.46C84.8393 42.7746 85.2536 42.1019 85.9126 41.9635C86.5717 41.8189 87.2245 42.2591 87.3752 42.9444Z" fill="#263238"/>
<path d="M81.8955 43.6235L86.6283 50.4142L89.4341 47.1509L81.8955 43.6235Z" fill="#F28F8F"/>
<path d="M77.5957 43.737L75.6498 46.3275C74.9342 45.7553 74.7898 44.7116 75.3297 43.9948C75.8695 43.278 76.8801 43.1648 77.5957 43.737Z" fill="#263238"/>
<path d="M86.6658 39.631L83.4331 39.172C83.5273 38.2666 84.3244 37.6378 85.2158 37.7636C86.1071 37.8893 86.7536 38.7256 86.6595 39.631H86.6658Z" fill="#263238"/>
<path d="M86.4836 52.8351C86.402 52.7408 86.2828 52.6968 86.1698 52.7471C85.6488 52.9798 85.109 53.1684 84.5378 53.2187C84.0419 53.2627 83.5586 53.1307 83.0941 52.9546C83.0627 52.942 83.0627 53.0049 83.0752 53.0238C83.4518 53.4639 84.0105 53.6085 84.5754 53.6148C85.2408 53.6148 85.881 53.3885 86.4836 53.1181C86.5966 53.0678 86.5401 52.9043 86.4836 52.8414V52.8351Z" fill="#B16668"/>
<path d="M70.8479 64.637C67.1822 61.185 53.9001 46.5349 51.6027 43.2716C49.3053 40.0083 41.9048 18.9321 41.4152 17.4734C40.9319 16.0147 39.7392 14.9143 42.3881 13.7448C42.5388 13.6819 42.6831 13.6065 42.8338 13.5373C44.4972 12.7137 45.9597 11.4938 47.2277 10.1483C47.824 9.51953 48.3763 8.84676 48.8848 8.14883C49.1108 7.84073 49.3305 7.52006 49.5313 7.19311C49.7447 6.841 49.8389 6.53919 49.9644 6.14307C50.0711 5.81611 50.3285 5.5709 50.4854 5.26909C50.6737 4.89812 50.7051 4.4517 50.567 4.06186C50.5042 3.8921 50.4164 3.72862 50.4038 3.55257C50.3724 3.13129 50.7867 2.73517 50.6674 2.32648C50.5984 2.09383 50.3724 1.94293 50.1339 1.89892C49.2112 1.71029 48.2822 2.28875 47.5352 2.76032C46.2422 3.56514 45.2002 4.25049 44.2398 4.86039C43.1665 4.53972 40.7749 7.01077 38.4022 8.02936C34.8432 9.55097 31.9181 9.20515 31.0268 12.3301C30.782 13.1789 31.3344 15.0338 32.6274 21.8433C33.9205 28.6528 36.1676 41.838 38.0696 48.2074C39.1241 51.7221 39.6011 53.1997 43.8758 58.4688C49.2614 65.1085 64.822 83.066 67.6718 87.0775C70.5215 91.089 74.8714 88.3288 75.6121 82.8145C76.3528 77.3003 75.6937 69.2018 70.8605 64.6495L70.8479 64.637Z" fill="#FFA8A7"/>
<path d="M40.4423 10.0349C40.4674 9.85884 40.5741 9.70165 40.6871 9.55703C41.2458 8.85282 42.0367 8.38753 42.7585 7.85308C43.0159 7.66445 43.267 7.45696 43.4929 7.23061C43.7001 7.02311 43.9135 6.83448 44.0767 6.58298C44.334 6.17428 44.5161 5.72157 44.6165 5.25C44.7358 5.69642 44.4972 6.20572 44.2775 6.58298C43.9574 7.13 43.3988 7.62044 42.928 8.04171C42.4384 8.48813 41.886 8.8591 41.3713 9.28038C41.0386 9.55703 40.7311 9.85255 40.436 10.1669C40.436 10.1229 40.436 10.0789 40.436 10.0349H40.4423Z" fill="#F28F8F"/>
<path opacity="0.1" d="M100.168 87.0903C99.791 91.6237 88.4862 96.8991 79.6294 89.4168C80.7341 92.6863 85.2536 95.6981 90.3442 95.5346C94.6062 95.4026 100.237 92.3719 100.161 87.0903H100.168Z" fill="black"/>
</g>
<defs>
<clipPath id="clip0_2180_928">
<rect width="304" height="284" fill="white"/>
</clipPath>
</defs>
</svg>
