<svg width="22" height="23" viewBox="0 0 22 23" fill="none" xmlns="http://www.w3.org/2000/svg">
<path fill-rule="evenodd" clip-rule="evenodd" d="M17.1676 3.74625L18.6935 2.22038L20.2193 3.74625L18.6935 5.27212L17.1676 3.74625ZM19.8281 10.1659H21.9863V8.00764H19.8281V10.1659ZM6.48668 3.74625L8.01255 2.22038L9.53841 3.74625L8.01255 5.27212L6.48668 3.74625ZM12.2738 2.61209H14.432V0.453857H12.2738V2.61209ZM14.4327 19.8779H5.79975C4.01273 19.8779 2.5624 18.4276 2.5624 16.6406C2.5624 14.8525 4.01273 13.4033 5.79975 13.4033H6.87886V12.3241C6.87886 10.5371 8.32919 9.0868 10.1162 9.0868C11.9032 9.0868 13.3536 10.5371 13.3536 12.3241V13.4033H14.4327C16.2197 13.4033 17.67 14.8525 17.67 16.6406C17.67 18.4276 16.2197 19.8779 14.4327 19.8779ZM17.6696 12.3241C18.3775 11.3961 18.7574 10.2544 18.7487 9.0868C18.7487 6.10628 16.3337 3.69122 13.3532 3.69122C11.0816 3.69122 9.05397 5.11565 8.2824 7.25338C6.48244 7.89761 5.15836 9.4537 4.80441 11.3292C2.05159 11.831 0.138321 14.3518 0.39515 17.1381C0.65198 19.9244 3.00013 22.0524 5.79936 22.0362H14.4323C17.4128 22.0362 19.8279 19.62 19.8279 16.6406C19.8365 14.9421 19.0347 13.3353 17.6696 12.3241Z" fill="#146C94"/>
</svg>
