<svg width="207" height="281" viewBox="0 0 207 281" fill="none" xmlns="http://www.w3.org/2000/svg">
<path d="M129.029 165.18C129.029 165.18 104.866 197.712 102.984 200.068C101.101 202.423 99.6571 203.129 99.1916 203.305C97.6999 203.5 96.1878 203.482 94.7013 203.251C93.4213 203 87.9453 177.601 87.7673 176.42C87.5893 175.239 87.7673 174.866 89.2732 173.027C90.7791 171.187 94.7835 163.463 95.9745 158.495C97.1655 153.526 98.0964 143.352 98.6646 140.848C99.2327 138.343 102.546 129.92 102.546 129.92L129.029 165.18Z" fill="#3D3D3D"/>
<path d="M52.3311 186.58L29.5098 179.487L32.2752 167.989L52.2831 172.856L52.3311 186.58Z" fill="#F5D3BA"/>
<path d="M56.3077 188.595C56.3077 188.595 51.5162 187.55 50.9823 187.462C50.6163 187.373 50.2979 187.15 50.0909 186.838C49.884 186.525 49.8038 186.147 49.8665 185.779C49.9624 184.754 50.332 173.982 50.5852 172.883C50.8385 171.783 51.2697 171.05 52.1938 171.288C53.1179 171.525 57.3687 172.849 57.3687 172.849L56.3077 188.595Z" fill="#363636"/>
<path d="M95.1051 203.304C95.1051 203.304 91.354 202.971 84.1051 199.645C76.8563 196.319 67.4717 193.116 65.9864 192.641C64.501 192.165 58.7512 193.102 58.2378 192.797C57.7244 192.491 55.1097 189.294 55.007 188.093C54.9043 186.892 55.0686 173.839 56.2049 172.482C57.3411 171.124 60.3119 168.104 61.5782 168.511C62.8445 168.919 66.0069 170.934 67.992 171.118C69.977 171.301 78.944 172.38 82.0037 173.188C85.0634 173.996 92.5108 179.717 96.0018 183.688C99.4927 187.659 100.273 199.306 95.1051 203.304Z" fill="#3D3D3D"/>
<path d="M32.2751 179.616C32.5283 180.329 30.7213 180.892 29.7014 180.336C24.8619 181.564 21.4052 182.772 13.643 185.806C8.46128 187.843 5.01139 191.406 4.05993 191.583C1.68471 192.01 -0.259258 188.63 0.0282288 186.913C0.49369 184.137 2.47874 181.069 8.34492 174.662C14.2111 168.254 14.745 168.159 16.1003 167.657C17.4556 167.155 19.427 166.897 20.0499 165.784C20.6728 164.67 20.6386 162.946 22.74 160.931C24.8414 158.915 30.1737 155.589 31.44 154.666C33.5277 153.139 35.3006 154.951 35.7592 156.519C36.4514 158.764 37.4657 160.899 38.771 162.858C40.2084 164.894 44.0622 166.931 41.6391 169.713C38.8052 168.668 36.8475 169.388 34.4997 171.675C32.1519 173.962 31.6864 177.94 32.2751 179.616Z" fill="white"/>
<path d="M33.623 180.669C33.8763 181.381 32.0692 181.945 31.0493 181.388C26.2099 182.617 22.7532 183.825 14.9909 186.859C9.80925 188.895 5.26417 191.4 4.28533 191.61C3.3065 191.82 1.39672 189.431 1.34196 187.979C1.2872 186.526 3.79932 182.142 9.6655 175.727C15.5317 169.313 16.0588 169.232 17.4209 168.73C18.7831 168.227 20.7476 167.969 21.3705 166.849C21.9934 165.73 21.9591 164.019 24.0606 162.003C26.162 159.987 31.4463 156.573 32.7606 155.732C34.0748 154.89 35.5602 155.643 36.0188 157.211C36.4774 158.779 38.8595 161.745 40.0916 163.931C42.3915 168.003 44.8831 168.472 43.2814 170.718C40.1669 170.101 38.1271 170.488 35.8135 172.755C33.4998 175.022 33.0275 178.992 33.623 180.669Z" fill="#B01949"/>
<path d="M29.6053 176.059C29.7044 176.339 29.6881 176.647 29.56 176.915C29.4318 177.183 29.2021 177.39 28.9208 177.491L17.5444 181.333C17.262 181.429 16.9527 181.412 16.6828 181.285C16.4128 181.159 16.2037 180.932 16.1001 180.654L13.1431 172.048C15.8811 169.251 16.4218 169.109 17.4486 168.735C18.8176 168.233 20.7753 167.975 21.3982 166.855C22.0211 165.735 21.9868 164.025 24.0883 162.009C24.2525 161.853 24.4374 161.683 24.6359 161.514L29.6053 176.059Z" fill="#424242"/>
<path d="M20.2621 184.828L18.0854 178.475" stroke="white" stroke-width="2" stroke-miterlimit="10" stroke-linecap="round"/>
<path d="M24.8823 183.309L22.6714 176.901" stroke="white" stroke-width="2" stroke-miterlimit="10" stroke-linecap="round"/>
<path d="M29.5099 181.788L27.2579 175.333" stroke="white" stroke-width="2" stroke-miterlimit="10" stroke-linecap="round"/>
<path d="M183.612 81.8368C183.612 81.8368 182.243 85.8549 181.99 86.4997C181.99 86.4997 181.264 89.9613 180.299 90.6265C179.334 91.2916 174.474 92.7984 172.626 92.303L173.865 75.4566L179.765 68.1398L183.612 81.8368Z" fill="#F7AF92"/>
<path d="M139.776 98.6288C139.776 98.6288 168.716 86.0857 168.901 84.9589C169.086 83.8322 168.956 78.7281 169.107 77.5607C169.11 76.59 169.411 75.6434 169.969 74.8457C170.654 73.8479 171.687 71.5742 172.228 70.6443C172.769 69.7144 174.644 68.0176 174.966 67.2913C175.288 66.5651 177.019 68.3298 176.698 69.9384C176.376 71.547 174.747 73.6851 174.678 74.9475C174.61 76.21 175.055 78.1783 176.047 81.5517C177.04 84.925 176.732 89.3165 173.624 92.2554C170.517 95.1944 142.466 115.815 141.946 116.011C141.425 116.208 139.098 106.95 139.776 98.6288Z" fill="#FFD8BD"/>
<path d="M168.532 84.8836C168.532 84.8836 172.639 91.671 173.543 93.4222C173.974 94.291 173.255 95.0647 172.317 95.6892C171.38 96.3136 162.96 101.554 162.96 101.554L157.436 90.4425C157.436 90.4425 167.218 84.8429 167.464 84.6393C167.644 84.5523 167.847 84.5291 168.042 84.5736C168.236 84.6181 168.409 84.7276 168.532 84.8836Z" fill="#7A1133"/>
<path d="M158.216 90.0013L163.597 101.133C163.597 101.133 162.974 105.497 161.988 106.379C161.002 107.262 157.196 107.357 154.15 109.359C151.104 111.361 143.883 115.644 143.883 115.644L146.279 93.0488C146.279 93.0488 152.439 89.1596 153.178 89.1664C153.918 89.1732 158.216 90.0013 158.216 90.0013Z" fill="#91143D"/>
<path d="M183.625 80.5953C183.924 80.5333 184.23 80.5128 184.535 80.5342C185.018 80.8914 185.432 81.3303 185.761 81.8306C186.055 82.2854 185.802 82.713 185.61 83.4325C185.418 84.1519 184.795 86.3307 184.665 87.0298C184.535 87.7289 184.556 88.4687 184.289 88.4891C184.022 88.5094 182.728 88.3058 182.708 87.1859C182.687 86.066 183.625 80.5953 183.625 80.5953Z" fill="#FFD8BD"/>
<path d="M183.803 77.378C184.136 77.3092 184.477 77.2864 184.816 77.3101C185.352 77.7024 185.816 78.1848 186.185 78.7354C186.513 79.2377 186.226 79.7128 186.02 80.5137C185.815 81.3147 185.117 83.731 184.966 84.5115C184.816 85.2921 184.843 86.1066 184.549 86.1337C184.254 86.1609 182.81 85.9233 182.79 84.6812C182.769 83.4391 183.803 77.378 183.803 77.378Z" fill="#FFD8BD"/>
<path d="M182.687 72.3003C183.074 72.2218 183.471 72.1966 183.865 72.2257C184.485 72.6832 185.018 73.2462 185.439 73.8886C185.822 74.4791 185.494 75.0289 185.254 75.9248C185.015 76.8208 184.2 79.6579 184.029 80.5538C183.858 81.4498 183.892 82.4068 183.55 82.4407C183.207 82.4747 181.537 82.1964 181.496 80.7575C181.455 79.3185 182.687 72.3003 182.687 72.3003Z" fill="#FFD8BD"/>
<path d="M179.737 68.14C179.812 67.7599 181.106 67.054 181.955 67.1287C182.392 67.1811 182.795 67.3888 183.089 67.7132C183.384 68.0377 183.55 68.4569 183.556 68.8934C183.7 69.9726 183.07 72.5179 182.872 74.4251C182.673 76.3324 182.222 78.4976 182.139 79.3731C182.057 80.2487 182.208 81.3076 181.537 81.2465C180.866 81.1854 179.682 80.9885 179.675 78.389C179.668 75.7894 179.792 74.0382 179.764 72.6197C179.737 71.2011 179.443 69.6536 179.737 68.14Z" fill="#FFD8BD"/>
<path d="M153.959 60.5714C154.033 60.725 154.163 60.8452 154.323 60.9081C154.483 60.971 154.661 60.9719 154.821 60.9108C154.978 60.8381 155.1 60.7096 155.165 60.551C155.23 60.3925 155.232 60.2155 155.17 60.0556L153.425 56.0374C153.352 55.8826 153.222 55.7609 153.062 55.6967C152.902 55.6325 152.724 55.6306 152.562 55.6912C152.408 55.7651 152.286 55.8941 152.223 56.0526C152.16 56.211 152.159 56.3873 152.22 56.5465L153.959 60.5714Z" fill="#91143C"/>
<path d="M153.692 49.0393L150.249 56.3018L130.966 47.4035L136.73 33.7065H153.692V49.0393Z" fill="#F5D3BA"/>
<path d="M166.027 18.6794C166.557 20.1809 166.984 21.7161 167.307 23.2745C165.755 22.7683 164.248 22.1349 162.802 21.3808L161.55 16.6296C161.55 16.6296 165.027 17.7496 166.027 18.6794Z" fill="#613A28"/>
<path d="M141.98 49.0665C139.682 45.0653 138.325 40.6013 138.01 36.0075C137.425 35.5831 136.872 35.1181 136.353 34.6161L136.73 33.7338H153.692V49.0394L151.371 53.9399C147.401 52.0666 142.288 49.5484 141.98 49.0665Z" fill="#EAAA8E"/>
<path d="M163.802 16.3858C163.802 16.3858 166.027 25.8204 166.061 26.567C166.095 27.3136 165.554 30.8227 165.554 31.9969C165.554 33.1711 167.937 38.6689 167.937 38.859C167.937 39.049 167.813 39.7278 167.526 39.8839C167.238 40.04 165.65 40.7255 165.185 40.9223C164.719 41.1192 164.446 41.2278 164.398 41.6011C164.35 41.9744 164.398 43.1215 164.398 43.3726C164.398 43.6237 163.029 44.4586 162.926 44.5061C162.823 44.5536 163.07 45.979 162.926 46.2912C162.782 46.6034 161.831 47.031 161.694 47.6487C161.557 48.2663 161.009 51.0424 160.955 51.375C160.9 51.7076 160.27 52.1962 158.901 52.2302C157.756 52.3135 156.604 52.2405 155.479 52.013C154.835 51.7754 141.96 45.7957 141.467 45.0016C139.145 40.9928 137.771 36.5137 137.449 31.9019C137.449 31.9019 128.906 26.0104 131.439 16.3858C133.972 6.7613 144.821 3.97167 152.426 6.72057C160.031 9.46947 163.001 12.9311 163.802 16.3858Z" fill="#F5D3BA"/>
<path d="M141.234 27.0009L141.549 35.1458L143.425 36.1368C143.425 36.1368 145.184 25.4466 145.245 25.114C145.307 24.7814 149.058 22.6162 149.455 22.2022C149.852 21.7882 151.064 17.6478 151.064 17.6478C153.073 18.9599 155.381 19.751 157.779 19.9488C157.396 18.947 156.865 18.0069 156.204 17.1591C158.618 18.9009 161.296 20.2503 164.138 21.1569C164.008 20.1756 163.724 19.2206 163.296 18.3266C163.296 18.3266 166.157 21.3063 169.682 22.2633C169.209 20.7813 168.517 19.3769 167.629 18.0958C169.522 18.5236 171.507 18.2836 173.242 17.4171C172.199 16.6926 171.108 16.0395 169.977 15.4623C171.248 15.3346 172.467 14.8937 173.522 14.1795C171.847 13.1427 170.07 12.2785 168.217 11.6003C169.4 11.2657 170.496 10.6849 171.434 9.89661C168.977 9.29932 161.804 4.18839 154.103 2.03678C146.402 -0.114826 145.026 -0.0944639 143.993 0.0616467C142.959 0.217757 134.225 2.71553 133.226 4.07301C132.226 5.43049 131.425 9.80837 131.425 9.80837C131.425 9.80837 125.792 16.8537 125.703 18.0619C125.614 19.27 126.449 26.2068 127.168 27.9647C127.887 29.7226 132.644 37.3653 133.712 41.0305L137.668 35.9739L138.667 26.8108L141.234 27.0009Z" fill="#7D4B33"/>
<path d="M141.234 27.0006C141.234 27.0006 140.803 25.4802 137.682 23.125L139.256 27.2925L141.234 27.0006Z" fill="#613A28"/>
<path d="M141.234 27.0017C141.234 27.0017 139.386 25.2912 138.921 25.4813C137.814 26.247 136.786 27.1201 135.854 28.0877C135.744 30.2492 135.744 32.4149 135.854 34.5764C136.011 35.0719 139.044 38.0516 139.044 38.0516L141.234 27.0017Z" fill="#F5D3BA"/>
<path d="M163.419 27.7337C163.838 28.6398 164.177 29.5799 164.432 30.5437C164.432 30.5437 163.104 29.96 161.544 29.1862C160.112 28.4688 158.739 27.6428 157.437 26.7156C157.097 26.317 156.792 25.8901 156.526 25.4396C158.892 25.9852 161.2 26.7534 163.419 27.7337Z" fill="#613A28"/>
<path d="M162.837 30.9924C162.682 31.8358 162.478 32.6697 162.227 33.4901C162.036 33.8702 162.036 34.1689 161.961 34.1689C160.7 33.7576 159.483 33.2257 158.326 32.5806C157.388 32.0444 156.84 30.3408 156.84 30.3408C156.84 30.3408 159.975 29.7231 160.639 29.9403C161.392 30.2472 162.126 30.5985 162.837 30.9924Z" fill="white"/>
<path d="M162.974 31.0541C162.83 31.8286 162.643 32.5946 162.412 33.3483C162.159 34.027 161.728 34.0949 161.283 33.8913C160.838 33.6877 160.297 30.9727 160.927 30.0903L162.974 31.0541Z" fill="#7D4B33"/>
<path d="M163.692 31.8276C162.796 31.1376 161.793 30.5966 160.721 30.2257C159.373 30.105 158.014 30.2013 156.697 30.5108L155.725 29.3909L156.806 29.7167C158.111 29.5806 159.425 29.5443 160.735 29.6081C161.632 29.7778 163.425 31.1149 163.425 31.1149C163.528 31.347 163.617 31.585 163.692 31.8276Z" fill="#613A28"/>
<path d="M163.46 40.5143C163.46 40.5143 163.953 39.8356 163.816 39.7473C163.24 39.837 162.678 40.0013 162.146 40.236L163.46 40.5143Z" fill="#EAAA8E"/>
<path d="M162.912 44.4932H162.022C161.879 44.4932 160.489 44.0724 159.832 43.9027C159.175 43.733 157.607 43.1085 157.607 43.1085L157.717 42.9864C157.717 42.9864 157.217 42.8778 157.108 42.9864C156.998 43.095 157.327 43.3597 157.58 43.4479C157.833 43.5362 161.742 44.8801 161.865 44.8801H162.912V44.4932Z" fill="#EAAA8E"/>
<path d="M159.962 30.5448C159.962 30.5448 161.639 31.0539 161.55 31.3593C161.461 31.6647 159.839 31.4475 159.839 31.4475L159.962 30.5448Z" fill="white"/>
<path d="M145.971 130.781C145.971 130.781 173.098 180.207 174.227 182.067C175.357 183.927 176.048 186.309 175.48 190.51C174.912 194.712 165.096 201.126 158.956 198.194C152.816 195.262 123.615 166.232 116.928 159.071C110.24 151.91 104.771 147.533 103.628 143.962C102.485 140.392 101.095 132.919 102.163 129.566H145.971V130.781Z" fill="#424242"/>
<path d="M132.034 41.0306C132.034 41.0306 152.001 51.6393 152.987 52.2027C153.973 52.7661 154.493 53.4109 153.672 54.714C152.936 55.7875 152.094 56.7856 151.159 57.6937C151.159 57.6937 156.889 69.3341 156.841 76.4134C156.793 83.4927 147.121 107.14 145.245 123.342C145.245 123.342 148.716 126.6 148.716 127.719C148.716 128.839 146.936 132.654 146.662 132.837C146.388 133.02 110.61 135.26 107.317 134.425C104.025 133.591 98.4939 130.048 98.6787 128.928C98.8635 127.808 102.06 124.74 102.437 123.158C102.813 121.577 107.789 86.7506 110.794 72.9654C113.799 59.1802 116.366 54.5647 118.885 52.5149C121.404 50.4651 128.968 46.9289 128.968 46.9289C128.968 46.9289 129.652 42.3677 130.001 41.4039C130.351 40.4401 131.425 40.7252 132.034 41.0306Z" fill="#B01949"/>
<path d="M118.885 52.5154C119.513 52.0224 120.171 51.5691 120.856 51.1579C123.367 50.9844 125.888 51.3003 128.276 52.0878L117.817 53.5471C118.144 53.1747 118.501 52.8296 118.885 52.5154Z" fill="#91143C"/>
<path d="M145.245 123.343C145.245 123.343 134.348 113.935 126.647 104.63C126.647 104.63 136.648 113.148 145.971 118.571L145.245 123.343Z" fill="#91143C"/>
<path d="M102.162 123.803C102.162 123.803 108.432 116.452 109.747 114.464L103.162 118.536L102.162 123.803Z" fill="#91143C"/>
<path d="M151.159 57.6949L135.1 49.2242L152.186 56.6293L151.159 57.6949Z" fill="#91143C"/>
<path d="M130.583 73.8544C130.583 73.8544 127.592 77.1463 124.08 78.6056C120.569 80.0649 108.337 85.9224 108.337 85.9224L109.644 78.6056L130.583 73.8544Z" fill="#91143C"/>
<path d="M117.872 110.025C117.872 110.025 124.238 110.975 124.505 111.111C124.984 111.504 125.406 111.961 125.758 112.469C125.758 112.591 126.21 117.525 126.23 117.858C126.251 118.19 125.306 118.584 124.444 117.403C123.581 116.222 117.872 110.025 117.872 110.025Z" fill="#EAAA8E"/>
<path d="M111.951 108.396C111.951 108.396 123.642 111.05 123.895 111.314C124.43 112.141 124.856 113.033 125.162 113.968C125.162 114.246 125.25 122.907 125.162 123.145C124.368 123.832 123.518 124.454 122.622 125.004C122.233 125.039 121.841 125.039 121.452 125.004C121.244 125.221 121.014 125.417 120.767 125.588C120.651 125.588 118.713 126.192 118.536 126.192H117.947C117.947 126.192 115.346 127.285 115.086 127.353C114.532 127.331 113.981 127.254 113.443 127.122C113.029 127.165 112.613 127.18 112.197 127.17C112.053 127.122 110.534 126.213 109.569 125.724C108.603 125.235 107.125 124.651 107.056 124.536C107.116 124.197 107.244 123.874 107.432 123.584C107.62 123.295 107.865 123.047 108.152 122.853C108.836 122.432 109.603 122.595 110.499 122.805L110.404 122.507C110.404 122.507 108.22 121.76 106.413 120.918C104.606 120.077 103.675 119.093 103.388 117.884C103.197 116.882 103.101 115.864 103.1 114.844L111.951 108.396Z" fill="#F5D3BA"/>
<path d="M105.612 97.4065L112.375 108.599C112.375 108.599 110.499 111.809 107.871 113.438C105.242 115.067 103.456 115.251 102.984 115.162C102.511 115.074 94.879 105.334 94.879 105.334C94.879 105.334 98.8081 98.6214 105.612 97.4065Z" fill="#91143C"/>
<path d="M135.101 56.3361C136.607 60.8022 136.367 71.6078 127.75 75.7006C119.132 79.7934 109.795 80.9133 102.163 84.7346C102.163 84.7346 103.457 90.694 103.922 91.1555C104.388 91.6171 106.783 94.3456 107.262 94.9429C107.742 95.5402 105.804 97.9226 105.804 97.9226C105.804 97.9226 98.8568 100.638 95.1468 105.558C95.1468 105.558 91.6695 105.606 90.6359 105.233C89.6023 104.859 88.8562 99.409 85.5227 94.8954C82.1892 90.3818 78.3354 85.3048 77.9932 82.8342C77.6509 80.3636 77.5688 73.5694 77.9932 72.8703C79.2506 71.4305 80.6519 70.1206 82.1755 68.9607C82.9695 68.4516 109.172 54.4289 120.186 52.2026C131.199 49.9763 135.101 56.3361 135.101 56.3361Z" fill="#B01949"/>
<path d="M102.162 84.7008C102.162 84.7008 99.7599 80.9405 99.2328 80.1396C98.7058 79.3387 86.768 70.5897 86.768 70.5897C86.768 70.5897 95.6666 75.212 101.047 79.1554L102.984 84.3139L102.162 84.7008Z" fill="#91143C"/>
<path d="M83.6403 85.9575L86.9327 97.1703C86.5045 96.3819 86.0243 95.6223 85.4953 94.8965L84.2495 93.2133L83.6403 85.9575Z" fill="#91143C"/>
<path d="M121.487 125.018C121.487 125.018 123.02 118.516 123.458 117.151L122.575 125.032C122.212 125.051 121.849 125.046 121.487 125.018Z" fill="#EAAA8E"/>
<path d="M118.009 126.207C118.009 126.207 119.453 121.666 120.199 119.942C120.199 119.942 119.166 124.523 118.598 126.207H118.009Z" fill="#EAAA8E"/>
<path d="M113.505 127.136L114.251 126.79C114.251 126.79 116.12 122.907 116.928 121.665C116.928 121.665 115.805 124.787 115.559 125.561C115.312 126.335 114.956 127.374 114.956 127.374C114.464 127.355 113.977 127.275 113.505 127.136Z" fill="#EAAA8E"/>
<path d="M169.223 236.971L170.346 264.066L155.006 265.559L153.884 241.036L169.223 236.971Z" fill="#F5D3BA"/>
<path d="M170.311 232.008C170.311 232.008 170.551 237.594 170.599 238.198C170.608 238.622 170.456 239.035 170.174 239.354C169.891 239.674 169.498 239.876 169.072 239.922C167.902 240.105 155.738 242.854 154.424 242.901C153.11 242.949 152.172 242.664 152.172 241.598C152.172 240.533 152.405 235.449 152.405 235.449L170.311 232.008Z" fill="#363636"/>
<path d="M175.411 185.032C175.411 185.032 176.136 189.254 174.548 198.193C172.96 207.132 172.105 218.406 172.009 220.17C171.913 221.935 174.644 227.996 174.453 228.648C174.261 229.299 171.448 233.114 170.133 233.582C168.819 234.051 154.171 237.655 152.295 236.84C150.42 236.026 146.19 233.582 146.285 232.089C146.381 230.596 147.654 226.503 147.312 224.27C146.97 222.037 145.532 211.883 145.532 208.252C145.532 204.62 149.756 194.799 153.178 189.797C156.601 184.794 169.428 180.545 175.411 185.032Z" fill="#424242"/>
<path d="M170.373 256.457C170.606 255.622 172.68 256.26 173.276 257.448C178.656 259.43 182.701 260.529 192.017 262.674C198.239 264.127 203.846 262.993 204.886 263.461C207.405 264.602 207.008 269.047 205.605 270.48C203.339 272.794 199.444 274.396 189.683 276.636C179.922 278.876 179.368 278.618 177.759 278.21C176.151 277.803 174.118 276.765 172.797 277.416C171.475 278.068 170.373 279.704 167.067 280.24C163.761 280.776 156.533 280.457 154.746 280.505C151.775 280.593 151.324 277.729 151.899 275.957C152.732 273.392 153.193 270.723 153.268 268.029C153.268 265.165 150.947 260.787 155.082 259.708C157.067 262.538 159.421 263.149 163.111 262.491C166.8 261.832 169.826 258.418 170.373 256.457Z" fill="white"/>
<path d="M169.798 254.59C170.024 253.762 172.105 254.4 172.693 255.588C178.067 257.563 182.126 258.669 191.442 260.841C197.657 262.287 203.605 262.877 204.653 263.325C205.7 263.773 205.933 267.248 205.029 268.647C204.126 270.045 198.869 272.563 189.108 274.803C179.347 277.043 178.792 276.785 177.184 276.371C175.575 275.957 173.542 274.932 172.221 275.577C170.9 276.221 169.798 277.864 166.485 278.407C163.172 278.95 155.957 278.712 154.164 278.672C152.371 278.631 151.467 276.941 152.069 275.169C152.672 273.398 152.651 269.061 152.658 266.196C152.665 263.332 150.344 258.954 154.479 257.875C156.45 260.699 158.805 261.316 162.487 260.638C166.17 259.959 169.25 256.565 169.798 254.59Z" fill="#B01949"/>
<path d="M170.544 261.541C170.59 261.376 170.668 261.222 170.774 261.087C170.88 260.953 171.012 260.84 171.162 260.756C171.312 260.672 171.478 260.619 171.649 260.599C171.82 260.578 171.994 260.592 172.159 260.638L185.411 264.398C185.577 264.445 185.731 264.523 185.867 264.628C186.002 264.734 186.114 264.865 186.198 265.013C186.282 265.162 186.336 265.326 186.356 265.495C186.376 265.665 186.362 265.836 186.315 266L183.447 276.039C179.039 276.901 178.423 276.684 177.211 276.371C175.602 275.964 173.569 274.932 172.248 275.577C170.927 276.222 169.825 277.865 166.512 278.408C166.259 278.448 165.971 278.482 165.67 278.516L170.544 261.541Z" fill="#424242"/>
<path d="M185.138 259.328L182.995 266.739" stroke="white" stroke-width="2" stroke-miterlimit="10" stroke-linecap="round"/>
<path d="M179.771 257.766L177.636 265.239" stroke="white" stroke-width="2" stroke-miterlimit="10" stroke-linecap="round"/>
<path d="M174.412 256.205L172.276 263.746" stroke="white" stroke-width="2" stroke-miterlimit="10" stroke-linecap="round"/>
<path d="M151.501 192.499C153.085 189.676 154.819 186.939 156.697 184.3C156.697 184.3 151.905 188.202 149.934 191.128L151.501 192.499Z" fill="#2B2B2B"/>
<path d="M87.8083 176.474C87.8083 176.474 93.1269 190.402 93.5992 191.474C94.0715 192.547 95.1462 190.219 95.4747 184.402C95.4747 184.402 94.1605 187.66 93.6403 186.866C93.1201 186.072 87.8083 176.474 87.8083 176.474Z" fill="#2B2B2B"/>
</svg>
