<svg width="189" height="256" viewBox="0 0 189 256" fill="none" xmlns="http://www.w3.org/2000/svg">
<path d="M117.48 150.396C117.48 150.396 95.4798 180.016 93.766 182.16C92.0521 184.305 90.737 184.947 90.3132 185.108C88.9551 185.285 87.5783 185.269 86.2248 185.059C85.0594 184.83 80.0735 161.705 79.9115 160.629C79.7494 159.554 79.9115 159.214 81.2826 157.539C82.6537 155.865 86.2996 148.832 87.3841 144.308C88.4685 139.785 89.3161 130.521 89.8334 128.241C90.3506 125.96 93.3671 118.291 93.3671 118.291L117.48 150.396Z" fill="#3D3D3D"/>
<path d="M47.6472 169.879L26.8686 163.421L29.3865 152.953L47.6036 157.384L47.6472 169.879Z" fill="#F5D3BA"/>
<path d="M51.2679 171.715C51.2679 171.715 46.9052 170.763 46.4191 170.683C46.0859 170.602 45.796 170.399 45.6076 170.114C45.4191 169.83 45.3462 169.486 45.4033 169.15C45.4905 168.217 45.827 158.409 46.0576 157.408C46.2882 156.407 46.6809 155.74 47.5222 155.956C48.3636 156.172 52.2339 157.377 52.2339 157.377L51.2679 171.715Z" fill="#363636"/>
<path d="M86.5925 185.106C86.5925 185.106 83.1771 184.804 76.5771 181.775C69.9771 178.747 61.4325 175.83 60.0801 175.398C58.7277 174.965 53.4925 175.818 53.0251 175.54C52.5577 175.262 50.1769 172.351 50.0835 171.257C49.99 170.163 50.1395 158.28 51.1741 157.044C52.2087 155.808 54.9135 153.058 56.0665 153.428C57.2195 153.799 60.0988 155.635 61.9062 155.801C63.7136 155.968 71.8779 156.951 74.6638 157.686C77.4496 158.422 84.2304 163.631 87.4089 167.247C90.5874 170.862 91.2979 181.466 86.5925 185.106Z" fill="#3D3D3D"/>
<path d="M29.3863 163.539C29.6169 164.188 27.9716 164.701 27.043 164.194C22.6367 165.313 19.4894 166.413 12.4219 169.175C7.70402 171.029 4.56293 174.274 3.69664 174.434C1.53402 174.824 -0.235958 171.746 0.0258026 170.183C0.4496 167.655 2.25697 164.862 7.59808 159.028C12.9392 153.194 13.4253 153.108 14.6593 152.65C15.8933 152.193 17.6882 151.958 18.2554 150.945C18.8225 149.931 18.7913 148.361 20.7047 146.526C22.618 144.691 27.473 141.662 28.626 140.822C30.5268 139.432 32.141 141.082 32.5586 142.509C33.1888 144.554 34.1123 146.497 35.3008 148.281C36.6096 150.135 40.1184 151.989 37.9121 154.523C35.332 153.571 33.5495 154.226 31.4118 156.309C29.2741 158.391 28.8503 162.013 29.3863 163.539Z" fill="white"/>
<path d="M30.6136 164.497C30.8442 165.146 29.1989 165.659 28.2702 165.153C23.864 166.271 20.7167 167.371 13.6492 170.133C8.93133 171.987 4.79307 174.268 3.90184 174.459C3.01062 174.651 1.27179 172.476 1.22193 171.153C1.17207 169.831 3.45934 165.838 8.80045 159.998C14.1416 154.158 14.6215 154.084 15.8617 153.627C17.1019 153.17 18.8906 152.935 19.4577 151.915C20.0249 150.896 19.9937 149.338 21.907 147.503C23.8204 145.667 28.6317 142.559 29.8283 141.793C31.025 141.026 32.3774 141.712 32.7949 143.14C33.2125 144.567 35.3814 147.268 36.5032 149.258C38.5972 152.966 40.8658 153.392 39.4074 155.438C36.5717 154.875 34.7145 155.228 32.608 157.292C30.5014 159.356 30.0714 162.971 30.6136 164.497Z" fill="#B01949"/>
<path d="M26.9556 160.3C27.0458 160.555 27.0309 160.835 26.9142 161.079C26.7975 161.324 26.5884 161.512 26.3323 161.604L15.9742 165.102C15.717 165.19 15.4354 165.174 15.1897 165.059C14.9439 164.943 14.7535 164.737 14.6592 164.484L11.9668 156.648C14.4597 154.102 14.9521 153.972 15.8869 153.632C17.1334 153.175 18.9159 152.94 19.483 151.92C20.0501 150.901 20.019 149.343 21.9323 147.508C22.0819 147.366 22.2501 147.211 22.4309 147.057L26.9556 160.3Z" fill="#424242"/>
<path d="M18.4485 168.285L16.4666 162.5" stroke="white" stroke-width="2" stroke-miterlimit="10" stroke-linecap="round"/>
<path d="M22.6553 166.901L20.6422 161.067" stroke="white" stroke-width="2" stroke-miterlimit="10" stroke-linecap="round"/>
<path d="M26.8687 165.517L24.8182 159.639" stroke="white" stroke-width="2" stroke-miterlimit="10" stroke-linecap="round"/>
<path d="M167.177 74.5118C167.177 74.5118 165.931 78.1703 165.7 78.7574C165.7 78.7574 165.04 81.9091 164.161 82.5147C163.282 83.1204 158.857 84.4923 157.174 84.0412L158.302 68.7027L163.675 62.0408L167.177 74.5118Z" fill="#F7AF92"/>
<path d="M127.265 89.8007C127.265 89.8007 153.615 78.3803 153.783 77.3545C153.952 76.3286 153.833 71.6813 153.97 70.6184C153.974 69.7346 154.248 68.8727 154.755 68.1464C155.379 67.238 156.32 65.1677 156.812 64.3211C157.305 63.4744 159.012 61.9295 159.305 61.2682C159.598 60.607 161.175 62.2137 160.882 63.6784C160.589 65.143 159.106 67.0897 159.043 68.2391C158.981 69.3886 159.386 71.1807 160.29 74.2521C161.193 77.3236 160.913 81.3219 158.084 83.9978C155.254 86.6737 129.714 105.448 129.24 105.627C128.767 105.807 126.648 97.3773 127.265 89.8007Z" fill="#FFD8BD"/>
<path d="M153.447 77.2859C153.447 77.2859 157.187 83.4658 158.009 85.0602C158.402 85.8512 157.748 86.5557 156.894 87.1243C156.04 87.6928 148.374 92.4637 148.374 92.4637L143.345 82.3472C143.345 82.3472 152.251 77.2488 152.475 77.0634C152.638 76.9842 152.824 76.9631 153.001 77.0036C153.178 77.0441 153.336 77.1438 153.447 77.2859Z" fill="#7A1133"/>
<path d="M144.055 81.9454L148.954 92.0805C148.954 92.0805 148.386 96.0541 147.489 96.8575C146.592 97.6609 143.126 97.7474 140.353 99.5705C137.58 101.394 131.004 105.293 131.004 105.293L133.186 84.7202C133.186 84.7202 138.795 81.1791 139.468 81.1853C140.141 81.1915 144.055 81.9454 144.055 81.9454Z" fill="#91143D"/>
<path d="M167.189 73.3815C167.462 73.325 167.741 73.3063 168.018 73.3259C168.457 73.651 168.835 74.0506 169.134 74.5062C169.402 74.9203 169.171 75.3096 168.997 75.9647C168.822 76.6197 168.255 78.6035 168.137 79.24C168.018 79.8765 168.037 80.5501 167.794 80.5687C167.551 80.5872 166.373 80.4018 166.354 79.3821C166.335 78.3625 167.189 73.3815 167.189 73.3815Z" fill="#FFD8BD"/>
<path d="M167.351 70.452C167.654 70.3894 167.965 70.3686 168.274 70.3902C168.762 70.7474 169.184 71.1866 169.52 71.688C169.819 72.1453 169.557 72.5779 169.37 73.3071C169.183 74.0363 168.548 76.2364 168.411 76.9471C168.274 77.6578 168.298 78.3993 168.03 78.4241C167.762 78.4488 166.447 78.2325 166.429 77.1016C166.41 75.9706 167.351 70.452 167.351 70.452Z" fill="#FFD8BD"/>
<path d="M166.335 65.8289C166.688 65.7573 167.049 65.7344 167.407 65.7609C167.972 66.1774 168.457 66.6901 168.841 67.275C169.19 67.8126 168.891 68.3132 168.672 69.1289C168.454 69.9447 167.713 72.5279 167.557 73.3436C167.401 74.1594 167.432 75.0307 167.121 75.0616C166.809 75.0925 165.288 74.8392 165.251 73.529C165.214 72.2189 166.335 65.8289 166.335 65.8289Z" fill="#FFD8BD"/>
<path d="M163.649 62.0409C163.718 61.6948 164.896 61.0521 165.668 61.1201C166.066 61.1679 166.433 61.357 166.701 61.6524C166.97 61.9478 167.121 62.3295 167.127 62.7269C167.258 63.7095 166.684 66.0269 166.504 67.7635C166.323 69.5 165.911 71.4714 165.837 72.2686C165.762 73.0658 165.899 74.0299 165.288 73.9743C164.677 73.9187 163.599 73.7394 163.593 71.3725C163.587 69.0056 163.699 67.4112 163.674 66.1196C163.649 64.828 163.381 63.419 163.649 62.0409Z" fill="#FFD8BD"/>
<path d="M140.179 55.1498C140.246 55.2897 140.365 55.3991 140.51 55.4564C140.656 55.5136 140.818 55.5145 140.964 55.4588C141.106 55.3926 141.218 55.2756 141.277 55.1312C141.336 54.9869 141.337 54.8258 141.282 54.6801L139.692 51.0216C139.626 50.8806 139.508 50.7698 139.362 50.7114C139.217 50.653 139.054 50.6512 138.907 50.7065C138.766 50.7737 138.656 50.8912 138.598 51.0354C138.54 51.1797 138.539 51.3402 138.596 51.4851L140.179 55.1498Z" fill="#91143C"/>
<path d="M139.935 44.6499L136.8 51.2624L119.244 43.1606L124.491 30.6895H139.935V44.6499Z" fill="#F5D3BA"/>
<path d="M151.166 17.0075C151.649 18.3746 152.038 19.7724 152.331 21.1913C150.918 20.7304 149.547 20.1537 148.23 19.4671L147.09 15.1412C147.09 15.1412 150.256 16.1609 151.166 17.0075Z" fill="#613A28"/>
<path d="M129.272 44.6747C127.18 41.0316 125.944 36.9672 125.657 32.7846C125.125 32.3981 124.62 31.9748 124.149 31.5177L124.491 30.7143H139.935V44.65L137.822 49.1119C134.208 47.4062 129.552 45.1135 129.272 44.6747Z" fill="#EAAA8E"/>
<path d="M149.141 14.9192C149.141 14.9192 151.166 23.5092 151.197 24.189C151.229 24.8688 150.736 28.0638 150.736 29.1329C150.736 30.202 152.905 35.2078 152.905 35.3808C152.905 35.5538 152.793 36.1718 152.531 36.314C152.269 36.4561 150.823 37.0803 150.4 37.2595C149.976 37.4387 149.727 37.5376 149.683 37.8775C149.639 38.2174 149.683 39.2618 149.683 39.4904C149.683 39.7191 148.436 40.4792 148.343 40.5225C148.249 40.5657 148.474 41.8635 148.343 42.1478C148.212 42.432 147.346 42.8214 147.221 43.3838C147.096 43.9461 146.598 46.4737 146.548 46.7765C146.498 47.0793 145.925 47.5243 144.678 47.5552C143.635 47.6311 142.587 47.5645 141.562 47.3574C140.976 47.1411 129.253 41.6966 128.805 40.9736C126.691 37.3236 125.44 33.2454 125.146 29.0464C125.146 29.0464 117.368 23.6823 119.674 14.9192C121.98 6.1561 131.858 3.61617 138.783 6.11902C145.707 8.62188 148.412 11.7736 149.141 14.9192Z" fill="#F5D3BA"/>
<path d="M128.593 24.5841L128.88 31.9999L130.587 32.9022C130.587 32.9022 132.189 23.1689 132.245 22.8661C132.301 22.5633 135.716 20.5919 136.078 20.2149C136.439 19.8379 137.542 16.0682 137.542 16.0682C139.372 17.2628 141.474 17.9831 143.656 18.1632C143.308 17.251 142.824 16.3951 142.223 15.6232C144.421 17.2091 146.859 18.4378 149.446 19.2632C149.328 18.3697 149.069 17.5001 148.68 16.6862C148.68 16.6862 151.285 19.3991 154.494 20.2705C154.063 18.9211 153.433 17.6425 152.625 16.4761C154.349 16.8656 156.156 16.6471 157.735 15.8581C156.786 15.1985 155.793 14.6039 154.762 14.0783C155.92 13.962 157.03 13.5605 157.991 12.9103C156.466 11.9663 154.847 11.1794 153.161 10.5619C154.237 10.2573 155.236 9.72847 156.09 9.01076C153.852 8.46693 147.321 3.81347 140.31 1.85445C133.298 -0.104579 132.046 -0.0860391 131.104 0.0560983C130.163 0.198236 122.211 2.47243 121.301 3.70841C120.391 4.94439 119.662 8.93042 119.662 8.93042C119.662 8.93042 114.533 15.3451 114.452 16.4452C114.371 17.5452 115.131 23.861 115.785 25.4616C116.44 27.0622 120.771 34.0208 121.743 37.3579L125.346 32.7539L126.256 24.411L128.593 24.5841Z" fill="#7D4B33"/>
<path d="M128.593 24.5838C128.593 24.5838 128.2 23.1995 125.358 21.0551L126.792 24.8495L128.593 24.5838Z" fill="#613A28"/>
<path d="M128.593 24.5848C128.593 24.5848 126.91 23.0275 126.486 23.2006C125.478 23.8977 124.543 24.6927 123.694 25.5736C123.594 27.5417 123.594 29.5135 123.694 31.4816C123.838 31.9327 126.598 34.6457 126.598 34.6457L128.593 24.5848Z" fill="#F5D3BA"/>
<path d="M148.792 25.2514C149.173 26.0763 149.482 26.9323 149.714 27.8098C149.714 27.8098 148.505 27.2784 147.084 26.5739C145.781 25.9207 144.531 25.1686 143.345 24.3244C143.035 23.9615 142.758 23.5728 142.516 23.1626C144.67 23.6594 146.772 24.3588 148.792 25.2514Z" fill="#613A28"/>
<path d="M148.262 28.2183C148.121 28.9862 147.935 29.7455 147.707 30.4925C147.533 30.8386 147.533 31.1105 147.464 31.1105C146.316 30.736 145.208 30.2517 144.155 29.6644C143.301 29.1762 142.802 27.6251 142.802 27.6251C142.802 27.6251 145.657 27.0627 146.261 27.2604C146.947 27.5399 147.615 27.8597 148.262 28.2183Z" fill="white"/>
<path d="M148.386 28.2746C148.256 28.9798 148.085 29.6771 147.875 30.3634C147.645 30.9814 147.252 31.0432 146.847 30.8578C146.442 30.6724 145.95 28.2004 146.523 27.397L148.386 28.2746Z" fill="#7D4B33"/>
<path d="M149.041 28.9788C148.225 28.3505 147.311 27.858 146.336 27.5203C145.108 27.4104 143.871 27.4981 142.671 27.7799L141.786 26.7602L142.771 27.0568C143.959 26.933 145.155 26.8999 146.348 26.9579C147.165 27.1124 148.797 28.3299 148.797 28.3299C148.891 28.5412 148.973 28.7579 149.041 28.9788Z" fill="#613A28"/>
<path d="M148.829 36.888C148.829 36.888 149.278 36.27 149.153 36.1897C148.629 36.2713 148.118 36.4209 147.632 36.6346L148.829 36.888Z" fill="#EAAA8E"/>
<path d="M148.331 40.5107H147.52C147.389 40.5107 146.124 40.1275 145.526 39.973C144.928 39.8186 143.501 39.25 143.501 39.25L143.6 39.1388C143.6 39.1388 143.145 39.0399 143.046 39.1388C142.946 39.2376 143.245 39.4787 143.476 39.559C143.706 39.6393 147.265 40.863 147.377 40.863H148.331V40.5107Z" fill="#EAAA8E"/>
<path d="M145.644 27.8108C145.644 27.8108 147.171 28.2743 147.09 28.5524C147.009 28.8305 145.532 28.6327 145.532 28.6327L145.644 27.8108Z" fill="white"/>
<path d="M132.906 119.075C132.906 119.075 157.604 164.077 158.633 165.771C159.661 167.464 160.291 169.633 159.773 173.458C159.256 177.284 150.319 183.124 144.728 180.454C139.138 177.784 112.551 151.353 106.462 144.833C100.373 138.313 95.3933 134.327 94.3525 131.077C93.3117 127.826 92.0466 121.022 93.0188 117.969H132.906V119.075Z" fill="#424242"/>
<path d="M120.216 37.3581C120.216 37.3581 138.396 47.0173 139.294 47.5302C140.191 48.0432 140.665 48.6302 139.917 49.8168C139.247 50.7941 138.481 51.7029 137.63 52.5297C137.63 52.5297 142.846 63.1283 142.802 69.5739C142.759 76.0195 133.953 97.5502 132.245 112.302C132.245 112.302 135.405 115.268 135.405 116.288C135.405 117.307 133.784 120.78 133.535 120.947C133.286 121.114 100.709 123.154 97.7115 122.393C94.7138 121.633 89.6781 118.407 89.8463 117.388C90.0146 116.368 92.9251 113.575 93.2679 112.135C93.6107 110.695 98.1416 78.9859 100.878 66.4345C103.614 53.8831 105.951 49.6808 108.244 47.8145C110.538 45.9482 117.424 42.7284 117.424 42.7284C117.424 42.7284 118.048 38.5756 118.365 37.698C118.683 36.8205 119.662 37.08 120.216 37.3581Z" fill="#B01949"/>
<path d="M108.244 47.8149C108.816 47.366 109.415 46.9532 110.039 46.5789C112.325 46.4209 114.62 46.7085 116.795 47.4255L107.272 48.7542C107.569 48.4151 107.895 48.1009 108.244 47.8149Z" fill="#91143C"/>
<path d="M132.245 112.303C132.245 112.303 122.323 103.737 115.312 95.2646C115.312 95.2646 124.417 103.02 132.906 107.958L132.245 112.303Z" fill="#91143C"/>
<path d="M93.0182 112.722C93.0182 112.722 98.727 106.029 99.9236 104.218L93.9281 107.926L93.0182 112.722Z" fill="#91143C"/>
<path d="M137.629 52.5308L123.008 44.8183L138.564 51.5605L137.629 52.5308Z" fill="#91143C"/>
<path d="M118.895 67.2438C118.895 67.2438 116.171 70.2411 112.974 71.5698C109.777 72.8984 98.6399 78.2317 98.6399 78.2317L99.8303 71.5698L118.895 67.2438Z" fill="#91143C"/>
<path d="M107.322 100.177C107.322 100.177 113.118 101.042 113.361 101.166C113.797 101.524 114.181 101.939 114.502 102.402C114.502 102.513 114.913 107.006 114.932 107.309C114.95 107.612 114.09 107.97 113.305 106.895C112.52 105.819 107.322 100.177 107.322 100.177Z" fill="#EAAA8E"/>
<path d="M101.93 98.6934C101.93 98.6934 112.575 101.11 112.806 101.351C113.293 102.104 113.68 102.916 113.959 103.767C113.959 104.02 114.04 111.906 113.959 112.122C113.236 112.749 112.463 113.315 111.646 113.816C111.292 113.847 110.935 113.847 110.581 113.816C110.391 114.013 110.183 114.191 109.957 114.347C109.852 114.347 108.088 114.897 107.926 114.897H107.39C107.39 114.897 105.021 115.892 104.785 115.954C104.28 115.934 103.779 115.864 103.289 115.744C102.912 115.782 102.533 115.797 102.155 115.787C102.024 115.744 100.64 114.916 99.7614 114.471C98.8826 114.026 97.5364 113.494 97.4741 113.389C97.5285 113.081 97.6448 112.786 97.8161 112.523C97.9873 112.259 98.2101 112.033 98.4713 111.857C99.0945 111.473 99.7925 111.622 100.609 111.813L100.522 111.541C100.522 111.541 98.5336 110.862 96.8883 110.095C95.2429 109.329 94.3953 108.433 94.1336 107.333C93.9603 106.42 93.8726 105.493 93.8718 104.564L101.93 98.6934Z" fill="#F5D3BA"/>
<path d="M96.1591 88.6879L102.317 98.8786C102.317 98.8786 100.609 101.802 98.2158 103.285C95.8226 104.768 94.1959 104.935 93.7659 104.855C93.3359 104.774 86.3868 95.906 86.3868 95.906C86.3868 95.906 89.9642 89.7941 96.1591 88.6879Z" fill="#91143C"/>
<path d="M123.009 51.2936C124.38 55.36 124.162 65.1984 116.315 68.9249C108.469 72.6513 99.9677 73.671 93.0187 77.1503C93.0187 77.1503 94.1966 82.5762 94.6204 82.9965C95.0442 83.4167 97.2255 85.901 97.6618 86.4448C98.098 86.9887 96.3343 89.1578 96.3343 89.1578C96.3343 89.1578 90.0085 91.6298 86.6305 96.1102C86.6305 96.1102 83.4645 96.1534 82.5234 95.8135C81.5824 95.4736 80.903 90.5112 77.8679 86.4016C74.8327 82.292 71.3239 77.6694 71.0123 75.4199C70.7007 73.1704 70.6259 66.9844 71.0123 66.3478C72.1572 65.0369 73.4331 63.8443 74.8203 62.7882C75.5432 62.3247 99.4006 49.5571 109.428 47.5301C119.456 45.5031 123.009 51.2936 123.009 51.2936Z" fill="#B01949"/>
<path d="M93.0182 77.1194C93.0182 77.1194 90.8307 73.6957 90.3508 72.9665C89.8709 72.2372 79.0017 64.2714 79.0017 64.2714C79.0017 64.2714 87.1037 68.4799 92.0024 72.0704L93.7661 76.7671L93.0182 77.1194Z" fill="#91143C"/>
<path d="M76.1539 78.2636L79.1516 88.4728C78.7617 87.7549 78.3245 87.0634 77.8428 86.4026L76.7085 84.8699L76.1539 78.2636Z" fill="#91143C"/>
<path d="M110.613 113.828C110.613 113.828 112.009 107.908 112.407 106.665L111.603 113.84C111.273 113.858 110.942 113.854 110.613 113.828Z" fill="#EAAA8E"/>
<path d="M107.447 114.91C107.447 114.91 108.762 110.776 109.441 109.206C109.441 109.206 108.5 113.378 107.983 114.91H107.447Z" fill="#EAAA8E"/>
<path d="M103.346 115.756L104.025 115.441C104.025 115.441 105.726 111.906 106.462 110.775C106.462 110.775 105.44 113.618 105.215 114.323C104.991 115.027 104.667 115.973 104.667 115.973C104.219 115.956 103.775 115.883 103.346 115.756Z" fill="#EAAA8E"/>
<path d="M154.077 215.76L155.099 240.43L141.132 241.79L140.11 219.462L154.077 215.76Z" fill="#F5D3BA"/>
<path d="M155.067 211.241C155.067 211.241 155.285 216.327 155.329 216.877C155.337 217.264 155.199 217.64 154.942 217.93C154.685 218.221 154.327 218.405 153.939 218.447C152.873 218.614 141.799 221.117 140.602 221.16C139.405 221.203 138.552 220.944 138.552 219.973C138.552 219.003 138.763 214.374 138.763 214.374L155.067 211.241Z" fill="#363636"/>
<path d="M159.71 168.47C159.71 168.47 160.371 172.314 158.925 180.453C157.479 188.592 156.7 198.857 156.613 200.463C156.526 202.07 159.012 207.589 158.838 208.182C158.663 208.775 156.102 212.249 154.905 212.675C153.709 213.101 140.372 216.383 138.664 215.641C136.956 214.9 133.105 212.675 133.192 211.315C133.279 209.956 134.438 206.229 134.127 204.196C133.815 202.163 132.506 192.918 132.506 189.612C132.506 186.305 136.352 177.363 139.468 172.808C142.584 168.254 154.263 164.385 159.71 168.47Z" fill="#424242"/>
<path d="M155.124 233.502C155.336 232.742 157.224 233.323 157.766 234.404C162.665 236.209 166.348 237.21 174.83 239.163C180.496 240.485 185.6 239.453 186.547 239.88C188.841 240.918 188.479 244.966 187.202 246.27C185.139 248.377 181.592 249.835 172.705 251.875C163.818 253.914 163.313 253.679 161.848 253.308C160.384 252.938 158.533 251.992 157.33 252.585C156.127 253.179 155.124 254.668 152.114 255.156C149.103 255.644 142.522 255.354 140.895 255.397C138.191 255.478 137.779 252.87 138.303 251.257C139.062 248.922 139.481 246.491 139.549 244.039C139.549 241.431 137.436 237.445 141.201 236.462C143.008 239.039 145.152 239.595 148.511 238.996C151.87 238.396 154.625 235.288 155.124 233.502Z" fill="white"/>
<path d="M154.6 231.802C154.806 231.048 156.7 231.629 157.236 232.711C162.129 234.509 165.824 235.516 174.307 237.494C179.965 238.81 185.381 239.348 186.335 239.756C187.288 240.164 187.5 243.328 186.678 244.601C185.855 245.874 181.069 248.167 172.181 250.206C163.294 252.245 162.789 252.01 161.325 251.634C159.86 251.257 158.009 250.323 156.806 250.91C155.603 251.498 154.6 252.993 151.583 253.487C148.567 253.982 141.998 253.766 140.365 253.728C138.732 253.691 137.91 252.153 138.458 250.54C139.007 248.927 138.988 244.978 138.994 242.37C139 239.762 136.888 235.776 140.652 234.793C142.447 237.364 144.591 237.927 147.944 237.309C151.297 236.691 154.101 233.601 154.6 231.802Z" fill="#B01949"/>
<path d="M155.279 238.131C155.321 237.981 155.392 237.841 155.489 237.718C155.585 237.596 155.705 237.493 155.842 237.417C155.979 237.34 156.129 237.291 156.285 237.273C156.441 237.255 156.599 237.267 156.75 237.309L168.816 240.733C168.966 240.775 169.107 240.846 169.23 240.942C169.353 241.038 169.456 241.157 169.532 241.293C169.609 241.428 169.657 241.577 169.675 241.731C169.694 241.886 169.681 242.042 169.638 242.191L167.027 251.331C163.013 252.116 162.452 251.918 161.349 251.634C159.885 251.263 158.034 250.324 156.831 250.911C155.628 251.498 154.625 252.994 151.608 253.488C151.378 253.525 151.116 253.556 150.842 253.587L155.279 238.131Z" fill="#424242"/>
<path d="M168.567 236.116L166.616 242.864" stroke="white" stroke-width="2" stroke-miterlimit="10" stroke-linecap="round"/>
<path d="M163.68 234.694L161.736 241.499" stroke="white" stroke-width="2" stroke-miterlimit="10" stroke-linecap="round"/>
<path d="M158.801 233.273L156.856 240.139" stroke="white" stroke-width="2" stroke-miterlimit="10" stroke-linecap="round"/>
<path d="M137.941 175.269C139.382 172.699 140.961 170.207 142.671 167.803C142.671 167.803 138.309 171.357 136.514 174.02L137.941 175.269Z" fill="#2B2B2B"/>
<path d="M79.949 160.678C79.949 160.678 84.7915 173.359 85.2215 174.336C85.6516 175.312 86.63 173.193 86.9292 167.896C86.9292 167.896 85.7326 170.863 85.2589 170.14C84.7853 169.417 79.949 160.678 79.949 160.678Z" fill="#2B2B2B"/>
</svg>
