<svg width="25" height="32" viewBox="0 0 25 32" fill="none" xmlns="http://www.w3.org/2000/svg">
<path id="Vector" d="M3.49067 29.46C4.79351 30.6387 6.33646 31.4672 7.99304 31.8776C8.15156 31.9336 8.25823 31.7096 8.15156 31.5976C4.6033 27.9416 6.55299 23.9849 7.99304 22.2009C9.01974 20.9273 10.482 18.8297 10.3753 16.0169C10.3753 15.7353 10.642 15.5097 10.8524 15.6793C12.8658 16.8041 14.2421 19.2793 14.6125 21.3033C15.1962 20.6857 15.4081 19.7289 15.4081 18.8857C15.4081 18.6041 15.7251 18.3785 15.9903 18.6041C17.8971 20.4601 21.1801 26.7593 15.8837 31.708C15.7785 31.8216 15.8837 32.0472 15.9903 31.9912C17.5963 31.5365 19.1066 30.7533 20.4394 29.684C29.0723 22.4841 23.4573 9.71619 19.8023 5.49863C19.3267 4.99143 18.4793 5.32903 18.4793 6.06022C18.426 7.58021 18.0023 9.2666 16.8911 10.3914C16.0437 6.56742 13.2199 2.22345 9.19456 0.0858712C8.66566 -0.195727 8.03008 0.25387 8.08341 0.873065C8.18712 6.10502 5.02702 9.4362 2.27285 13.7674C-0.164267 17.6473 -1.75247 24.7913 3.49067 29.46Z" fill="#146C94"/>
</svg>
