<svg width="20" height="20" viewBox="0 0 20 20" fill="none" xmlns="http://www.w3.org/2000/svg">
<g id="Capa 2">
<g id="Outline">
<g id="FriedEgg">
<path id="Vector" d="M8.22805 6.5791C7.47866 6.5792 6.74612 6.80151 6.12306 7.21793C5.50001 7.63434 5.01442 8.22616 4.72771 8.91854C4.441 9.61092 4.36603 10.3728 4.51229 11.1078C4.65855 11.8427 5.01947 12.5179 5.54941 13.0477C6.07935 13.5776 6.75451 13.9384 7.48952 14.0846C8.22452 14.2308 8.98636 14.1557 9.67871 13.8689C10.3711 13.5821 10.9628 13.0964 11.3791 12.4733C11.7955 11.8502 12.0177 11.1176 12.0177 10.3682C12.0165 9.36357 11.6168 8.40041 10.9064 7.69005C10.1959 6.9797 9.23272 6.58016 8.22805 6.5791ZM8.22805 13.3073C7.64678 13.3072 7.07858 13.1348 6.59531 12.8118C6.11205 12.4887 5.73541 12.0297 5.51304 11.4926C5.29066 10.9556 5.23253 10.3646 5.34599 9.79454C5.45945 9.22444 5.73941 8.70079 6.15047 8.2898C6.56153 7.87881 7.08523 7.59893 7.65535 7.48557C8.22546 7.3722 8.81639 7.43044 9.35342 7.6529C9.89044 7.87537 10.3494 8.25209 10.6724 8.73541C10.9953 9.21873 11.1677 9.78695 11.1677 10.3682C11.1667 11.1475 10.8567 11.8946 10.3056 12.4456C9.75452 12.9966 9.00736 13.3065 8.22805 13.3073Z" fill="#146C94"/>
<path id="Vector_2" d="M19.1007 7.81727C19.1007 3.50712 15.593 0 11.2829 0C10.0389 0.000683 8.81304 0.297866 7.70686 0.866912C6.60068 1.43596 5.64607 2.26048 4.92217 3.27211C3.45341 3.94732 2.20906 5.02952 1.33665 6.39042C0.464239 7.75133 0.000356691 9.33385 0 10.9504C0 15.6065 3.78763 19.3942 8.44379 19.3942C9.14396 19.3944 9.84146 19.3079 10.5204 19.1367C11.5128 19.6663 12.6474 19.8682 13.7616 19.7134C14.8758 19.5586 15.9124 19.0551 16.7228 18.275C17.5333 17.4949 18.076 16.4783 18.2732 15.3708C18.4704 14.2633 18.312 13.1218 17.8206 12.1099C18.6598 10.8359 19.1051 9.34285 19.1007 7.81727ZM13.026 18.9107C12.2409 18.9103 11.4697 18.7034 10.7899 18.3106C10.7252 18.2731 10.6517 18.2534 10.5769 18.2536C10.5389 18.2537 10.501 18.2587 10.4644 18.2686C9.80607 18.4494 9.12646 18.5409 8.44379 18.5406C4.25665 18.5416 0.850029 15.1355 0.850029 10.9504C0.850013 9.47813 1.2776 8.03756 2.08083 6.80373C2.88407 5.5699 4.02837 4.59592 5.37469 4.00014C5.44542 3.96816 5.50609 3.91751 5.55019 3.85363C6.19206 2.92715 7.04883 2.16998 8.04719 1.64689C9.04556 1.1238 10.1558 0.850385 11.2829 0.850029C15.1245 0.850029 18.2506 3.97564 18.2506 7.81727C18.2538 9.25519 17.809 10.6584 16.9781 11.8319C16.9322 11.8971 16.9055 11.9738 16.9011 12.0533C16.8967 12.1329 16.9147 12.2121 16.9531 12.2819C17.3266 12.9638 17.5161 13.7312 17.503 14.5085C17.4899 15.2859 17.2746 16.0464 16.8783 16.7153C16.482 17.3842 15.9184 17.9384 15.2429 18.3233C14.5675 18.7082 13.8034 18.9107 13.026 18.9107Z" fill="#146C94"/>
<path id="Vector_3" d="M7.91629 12.433C7.52226 12.3728 7.15363 12.2014 6.85384 11.9387C6.55405 11.676 6.3356 11.3331 6.22423 10.9504C6.2113 10.9058 6.18117 10.8681 6.14048 10.8457C6.09978 10.8233 6.05185 10.818 6.00722 10.8309C5.9626 10.8438 5.92494 10.874 5.90253 10.9146C5.88012 10.9553 5.87479 11.0033 5.88772 11.0479C6.01821 11.4946 6.27355 11.8947 6.62371 12.2012C6.97386 12.5077 7.40427 12.7078 7.86429 12.778C7.87311 12.7785 7.88196 12.7785 7.89079 12.778C7.9372 12.7813 7.98306 12.7661 8.01827 12.7357C8.05348 12.7053 8.07516 12.6621 8.07855 12.6157C8.08193 12.5693 8.06673 12.5234 8.0363 12.4882C8.00587 12.453 7.9627 12.4313 7.91629 12.428V12.433Z" fill="#146C94"/>
</g>
</g>
</g>
</svg>
