<svg width="30" height="30" viewBox="0 0 30 30" fill="none" xmlns="http://www.w3.org/2000/svg">
<g id="google" clip-path="url(#clip0_10827_558)">
<path id="Vector" d="M10.2559 0.968344C7.3144 1.98878 4.77764 3.92561 3.01825 6.49433C1.25886 9.06305 0.369572 12.1283 0.481009 15.2398C0.592446 18.3513 1.69874 21.345 3.63738 23.7813C5.57602 26.2176 8.24483 27.9679 11.2518 28.7753C13.6896 29.4044 16.2438 29.432 18.6946 28.8558C20.9148 28.3571 22.9675 27.2904 24.6516 25.76C26.4044 24.1186 27.6767 22.0305 28.3316 19.7202C29.0433 17.2078 29.1699 14.5658 28.7019 11.9968H15.0123V17.6755H22.9404C22.782 18.5813 22.4424 19.4457 21.9421 20.2171C21.4418 20.9885 20.791 21.6511 20.0286 22.1651C19.0606 22.8058 17.9693 23.2367 16.8247 23.4301C15.6769 23.6436 14.4995 23.6436 13.3517 23.4301C12.1883 23.1899 11.0877 22.7097 10.1202 22.0202C8.56575 20.9199 7.39857 19.3567 6.78521 17.5536C6.16166 15.7168 6.16166 13.7256 6.78521 11.8887C7.22181 10.6012 7.94357 9.42898 8.89661 8.45944C9.98725 7.32956 11.368 6.52192 12.8875 6.12512C14.4069 5.72832 16.0063 5.7577 17.5101 6.21004C18.6849 6.57051 19.7593 7.2006 20.6473 8.05004C21.5412 7.16071 22.4336 6.26908 23.3245 5.37514C23.7845 4.89444 24.2859 4.43674 24.739 3.94454C23.3832 2.68304 21.7919 1.70136 20.0562 1.05574C16.8953 -0.0919788 13.4368 -0.122823 10.2559 0.968344Z" fill="white"/>
<path id="Vector_2" d="M10.256 0.968486C13.4366 -0.123423 16.8952 -0.0933912 20.0563 1.05359C21.7924 1.70359 23.3829 2.68999 24.7368 3.95619C24.2768 4.44839 23.7915 4.90839 23.3223 5.38679C22.4299 6.27765 21.5383 7.16545 20.6474 8.05019C19.7594 7.20075 18.6851 6.57065 17.5102 6.21019C16.0069 5.75626 14.4076 5.72518 12.8877 6.12035C11.3679 6.51553 9.98627 7.32169 8.89444 8.45039C7.94139 9.41992 7.21964 10.5922 6.78304 11.8797L2.01514 8.18818C3.72176 4.80388 6.67666 2.21514 10.256 0.968486Z" fill="#E33629"/>
<path id="Vector_3" d="M0.749549 11.845C1.00563 10.5749 1.4311 9.34487 2.01455 8.18799L6.78245 11.8887C6.15889 13.7255 6.15889 15.7168 6.78245 17.5536C5.19392 18.7803 3.60462 20.0131 2.01455 21.252C0.554395 18.3455 0.109074 15.0339 0.749549 11.845Z" fill="#F8BD00"/>
<path id="Vector_4" d="M15.0123 11.9946H28.7019C29.1699 14.5636 29.0432 17.2056 28.3316 19.718C27.6766 22.0283 26.4043 24.1164 24.6516 25.7578C23.1129 24.5572 21.5673 23.3658 20.0286 22.1652C20.7914 21.6507 21.4425 20.9874 21.9429 20.2151C22.4432 19.4429 22.7825 18.5776 22.9404 17.671H15.0123C15.01 15.7804 15.0123 13.8875 15.0123 11.9946Z" fill="#587DBD"/>
<path id="Vector_5" d="M2.01221 21.2521C3.60227 20.0254 5.19157 18.7926 6.78011 17.5537C7.39468 19.3574 8.56354 20.9207 10.1197 22.0203C11.0902 22.7066 12.1931 23.1828 13.3581 23.4187C14.5059 23.6322 15.6833 23.6322 16.8311 23.4187C17.9756 23.2252 19.067 22.7943 20.035 22.1537C21.5737 23.3543 23.1193 24.5457 24.658 25.7463C22.9742 27.2775 20.9215 28.345 18.701 28.8444C16.2501 29.4206 13.696 29.393 11.2582 28.7639C9.33012 28.2491 7.52916 27.3416 5.96821 26.0982C4.31618 24.7863 2.96679 23.1333 2.01221 21.2521Z" fill="#319F43"/>
</g>
<defs>
<clipPath id="clip0_10827_558">
<rect width="29.44" height="29.44" fill="white"/>
</clipPath>
</defs>
</svg>
