<svg width="19" height="24" viewBox="0 0 19 24" fill="none" xmlns="http://www.w3.org/2000/svg">
<g id="Group 79">
<path id="secondary" d="M1.66787 9.37143C1.83887 9.36968 2.00624 9.36742 2.17016 9.36466L2.11511 8.8655C1.95122 8.86815 1.78383 8.87031 1.61279 8.87196L1.66787 9.37143ZM16.7198 7.66649L16.6646 8.16736C16.8289 8.16486 16.9967 8.16285 17.1683 8.16136L17.2234 7.66089C17.052 7.66225 16.8842 7.66412 16.7198 7.66649ZM15.1763 21.6664C15.1763 21.6664 15.1763 21.6665 15.1763 21.6665L15.6733 21.7214L15.1763 21.6664ZM3.52673 21.6666C3.52672 21.6665 3.52672 21.6665 3.52671 21.6664L3.02975 21.7214L3.52673 21.6666ZM4.24081 22.7992H14.4622H4.24081Z" fill="#AFD3E2" stroke="#146C94"/>
<path id="primary" d="M1.74609 8.87196C9.30315 8.79929 9.72703 7.72144 17.3568 7.66089" stroke="#146C94" stroke-linecap="round" stroke-linejoin="round"/>
<path id="primary_2" d="M16.7512 1.00002C16.9221 0.998985 17.0913 1.03413 17.2477 1.10315C17.404 1.17216 17.544 1.27349 17.6584 1.40046C17.7727 1.52743 17.859 1.67718 17.9114 1.83985C17.9637 2.00252 17.9811 2.17444 17.9623 2.34431L15.8187 21.7214C15.7858 22.019 15.6438 22.2938 15.4201 22.4929C15.1965 22.6919 14.907 22.801 14.6076 22.7992H4.37412C4.07473 22.801 3.78527 22.6919 3.56162 22.4929C3.33797 22.2938 3.19598 22.019 3.16305 21.7214L1.00735 2.34431C0.98855 2.17444 1.00591 2.00252 1.0583 1.83985C1.11068 1.67718 1.1969 1.52743 1.31129 1.40046C1.42568 1.27349 1.56565 1.17216 1.72199 1.10315C1.87834 1.03413 2.04752 0.998985 2.21842 1.00002H16.7512Z" stroke="#146C94" stroke-linecap="round" stroke-linejoin="round"/>
</g>
</svg>
