<svg width="24" height="24" viewBox="0 0 24 24" fill="none" xmlns="http://www.w3.org/2000/svg">
<g id="simple-icons:googlepay" clip-path="url(#clip0_231_934)">
<path id="Vector" d="M3.96299 7.23512C3.22833 7.23517 2.50814 7.43943 1.88285 7.82509C1.25756 8.21075 0.751781 8.76264 0.42199 9.41912C0.144511 9.97127 0 10.5807 0 11.1986C0 11.8166 0.144511 12.426 0.42199 12.9781C0.751781 13.6346 1.25756 14.1865 1.88285 14.5721C2.50814 14.9578 3.22833 15.1621 3.96299 15.1621C5.03299 15.1621 5.93299 14.8101 6.58999 14.2051C7.33799 13.5151 7.76999 12.4951 7.76999 11.2891C7.76976 11.0189 7.74634 10.7493 7.69999 10.4831H3.96399V12.0091H6.10399C6.06043 12.2529 5.96798 12.4853 5.83221 12.6924C5.69644 12.8995 5.52016 13.077 5.31399 13.2141C4.95799 13.4551 4.49999 13.5931 3.96399 13.5931C2.92999 13.5931 2.05299 12.8961 1.73899 11.9571C1.57315 11.465 1.57315 10.9322 1.73899 10.4401C2.05299 9.50012 2.92999 8.80412 3.96399 8.80412C4.52899 8.79488 5.07496 9.00823 5.48399 9.39812L6.61599 8.26812C5.89873 7.59396 4.94728 7.22374 3.96299 7.23512ZM10.464 7.78512V14.6851H11.35V11.8901H12.815C13.418 11.8901 13.925 11.6941 14.337 11.3021C14.5421 11.1183 14.705 10.8923 14.8146 10.6396C14.9242 10.3869 14.9779 10.1135 14.972 9.83812C14.9762 9.56417 14.9216 9.2925 14.8121 9.04137C14.7026 8.79024 14.5406 8.56545 14.337 8.38212C14.1354 8.18687 13.897 8.03349 13.6358 7.93085C13.3746 7.82821 13.0956 7.77834 12.815 7.78412L10.464 7.78512ZM12.891 8.63512C13.0456 8.63782 13.1981 8.67151 13.3395 8.73421C13.4808 8.7969 13.6082 8.88732 13.714 9.00012C13.8267 9.10971 13.9162 9.24077 13.9774 9.38557C14.0385 9.53036 14.07 9.68594 14.07 9.84312C14.07 10.0003 14.0385 10.1559 13.9774 10.3007C13.9162 10.4455 13.8267 10.5765 13.714 10.6861C13.6007 10.8034 13.4642 10.8957 13.3132 10.9572C13.1622 11.0187 13 11.0479 12.837 11.0431H11.35V8.63512H12.837C12.855 8.6347 12.873 8.6347 12.891 8.63512ZM17.015 9.81012C16.173 9.81012 15.538 10.1181 15.108 10.7351L15.889 11.2261C16.177 10.8091 16.569 10.6001 17.064 10.6001C17.3798 10.5962 17.6855 10.7116 17.92 10.9231C18.0354 11.0186 18.1282 11.1386 18.1915 11.2743C18.2548 11.4101 18.2871 11.5583 18.286 11.7081V11.9101C17.946 11.7171 17.512 11.6211 16.986 11.6211C16.369 11.6211 15.876 11.7661 15.507 12.0551C15.137 12.3431 14.953 12.7321 14.953 13.2201C14.949 13.4397 14.994 13.6575 15.0848 13.8575C15.1757 14.0574 15.31 14.2346 15.478 14.3761C15.828 14.6841 16.263 14.8391 16.783 14.8391C17.393 14.8391 17.881 14.5691 18.248 14.0291H18.286V14.6841H19.134V11.7751C19.134 11.1651 18.944 10.6851 18.566 10.3351C18.186 9.98512 17.67 9.81012 17.015 9.81012ZM19.278 9.96412L21.224 14.3861L20.126 16.7661H21.041L24 9.96312H23.035L21.667 13.3541H21.647L20.241 9.96412H19.278ZM17.132 12.3321C17.626 12.3321 18.012 12.4421 18.288 12.6621C18.288 13.0341 18.141 13.3581 17.848 13.6351C17.5835 13.8996 17.225 14.0485 16.851 14.0491C16.6011 14.0539 16.3573 13.9719 16.161 13.8171C16.0697 13.7511 15.9954 13.6641 15.9445 13.5636C15.8935 13.4631 15.8673 13.3518 15.868 13.2391C15.868 12.9821 15.988 12.7691 16.231 12.5921C16.471 12.4191 16.772 12.3321 17.132 12.3321Z" fill="#787878"/>
</g>
<defs>
<clipPath id="clip0_231_934">
<rect width="24" height="24" fill="white"/>
</clipPath>
</defs>
</svg>
