<svg width="756" height="730" viewBox="0 0 756 730" fill="none" xmlns="http://www.w3.org/2000/svg">
<path d="M277.906 156.965C278.18 156.196 277.779 155.351 277.01 155.077L264.481 150.607C263.712 150.333 262.866 150.734 262.592 151.502C262.317 152.271 262.718 153.117 263.487 153.391L274.625 157.364L270.652 168.502C270.378 169.271 270.779 170.117 271.547 170.391C272.316 170.665 273.162 170.264 273.436 169.495L277.906 156.965ZM133.761 409.238C127.988 350.815 148.619 218.745 277.147 157.804L275.881 155.133C145.781 216.819 124.979 350.436 130.819 409.529L133.761 409.238Z" fill="#146C94"/>
<path d="M644.768 413.692C645.279 414.33 646.209 414.433 646.846 413.922L657.23 405.607C657.868 405.097 657.971 404.166 657.46 403.529C656.95 402.892 656.02 402.789 655.383 403.299L646.152 410.691L638.761 401.46C638.251 400.823 637.32 400.72 636.683 401.23C636.046 401.741 635.943 402.671 636.453 403.308L644.768 413.692ZM505.793 158.536C558.541 184.306 660.096 271.225 644.453 412.606L647.391 412.931C663.225 269.822 560.444 181.945 507.09 155.879L505.793 158.536Z" fill="#146C94"/>
<path d="M247.497 602.452C246.695 602.605 246.169 603.379 246.321 604.181L248.808 617.25C248.96 618.052 249.734 618.578 250.536 618.426C251.338 618.273 251.864 617.499 251.712 616.697L249.502 605.08L261.119 602.871C261.921 602.718 262.447 601.944 262.294 601.142C262.142 600.34 261.368 599.814 260.566 599.966L247.497 602.452ZM538.028 599.105C490.561 633.651 366.211 682.695 248.605 602.682L246.942 605.127C365.986 686.118 491.756 636.438 539.768 601.495L538.028 599.105Z" fill="#146C94"/>
<circle cx="388.131" cy="386.863" r="202.066" fill="#F5D36F"/>
<path d="M273.096 370.348V316.461H284.943V338.092H310.014V316.461H321.861V370.348H310.014V347.952H284.943V370.348H273.096ZM326.545 370.348L351.31 316.461H360.864L385.629 370.348H373.705L368.66 358.653H343.513L338.545 370.348H326.545ZM355.972 329.073L347.488 349.404H364.762L356.125 329.073H355.972ZM390.286 370.348V316.461H414.975C420.733 316.461 425.166 317.709 428.275 320.206C431.434 322.703 433.014 326.117 433.014 330.449C433.014 333.302 432.3 335.773 430.873 337.863C429.447 339.901 427.459 341.43 424.911 342.449C427.969 343.315 430.313 344.844 431.943 347.035C433.625 349.226 434.466 351.927 434.466 355.137C434.466 359.927 432.784 363.672 429.421 366.373C426.109 369.023 421.574 370.348 415.816 370.348H390.286ZM401.599 338.627H412.911C418.72 338.627 421.625 336.385 421.625 331.901C421.625 327.468 418.72 325.251 412.911 325.251H401.599V338.627ZM401.599 361.558H414.21C417.268 361.558 419.51 360.972 420.937 359.8C422.364 358.628 423.077 356.844 423.077 354.449C423.077 352.105 422.364 350.347 420.937 349.175C419.51 348.003 417.268 347.417 414.21 347.417H401.599V361.558ZM443.433 370.348V316.461H455.28V370.348H443.433ZM478.891 370.348V326.245H461.081V316.461H508.548V326.245H490.738V370.348H478.891ZM287.091 453.348V399.461H298.939V443.335H323.857V453.348H287.091ZM352.916 454.188C347.616 454.188 342.954 453.042 338.928 450.749C334.953 448.405 331.845 445.169 329.603 441.042C327.412 436.863 326.316 431.971 326.316 426.366C326.316 420.761 327.412 415.894 329.603 411.767C331.845 407.588 334.953 404.353 338.928 402.06C342.903 399.767 347.565 398.62 352.916 398.62C358.266 398.62 362.929 399.767 366.903 402.06C370.929 404.353 374.037 407.588 376.228 411.767C378.471 415.894 379.592 420.735 379.592 426.29C379.592 431.895 378.471 436.787 376.228 440.965C374.037 445.144 370.929 448.405 366.903 450.749C362.929 453.042 358.266 454.188 352.916 454.188ZM352.916 444.099C357.4 444.099 360.89 442.545 363.387 439.436C365.935 436.277 367.209 431.92 367.209 426.366C367.209 420.761 365.961 416.429 363.464 413.372C360.967 410.264 357.451 408.71 352.916 408.71C348.482 408.71 344.992 410.264 342.444 413.372C339.947 416.429 338.699 420.761 338.699 426.366C338.699 431.92 339.947 436.277 342.444 439.436C344.992 442.545 348.482 444.099 352.916 444.099ZM413.75 454.188C408.451 454.188 403.788 453.042 399.763 450.749C395.788 448.405 392.68 445.169 390.438 441.042C388.246 436.863 387.151 431.971 387.151 426.366C387.151 420.761 388.246 415.894 390.438 411.767C392.68 407.588 395.788 404.353 399.763 402.06C403.737 399.767 408.4 398.62 413.75 398.62C419.101 398.62 423.763 399.767 427.738 402.06C431.764 404.353 434.872 407.588 437.063 411.767C439.305 415.894 440.426 420.735 440.426 426.29C440.426 431.895 439.305 436.787 437.063 440.965C434.872 445.144 431.764 448.405 427.738 450.749C423.763 453.042 419.101 454.188 413.75 454.188ZM413.75 444.099C418.235 444.099 421.725 442.545 424.222 439.436C426.77 436.277 428.044 431.92 428.044 426.366C428.044 420.761 426.795 416.429 424.298 413.372C421.802 410.264 418.286 408.71 413.75 408.71C409.317 408.71 405.827 410.264 403.279 413.372C400.782 416.429 399.533 420.761 399.533 426.366C399.533 431.92 400.782 436.277 403.279 439.436C405.827 442.545 409.317 444.099 413.75 444.099ZM449.591 453.348V399.461H474.203C480.216 399.461 484.853 400.99 488.114 404.047C491.375 407.053 493.006 411.257 493.006 416.659C493.006 422.06 491.375 426.29 488.114 429.347C484.853 432.404 480.216 433.933 474.203 433.933H461.438V453.348H449.591ZM461.438 424.761H472.215C478.483 424.761 481.617 422.06 481.617 416.659C481.617 411.359 478.483 408.71 472.215 408.71H461.438V424.761Z" fill="black"/>
<circle cx="377.084" cy="62.3568" r="62.1185" fill="#F2F2F2"/>
<circle cx="98.1952" cy="565.943" r="62.1185" fill="#F2F2F2"/>
<circle cx="671.096" cy="565.943" r="62.1185" fill="#F2F2F2"/>
<path d="M33.3362 476.579C35.4875 480.857 37.7071 485.098 39.7841 489.419C45.0416 500.375 50.9254 511.001 58.9543 520.134C62.9408 524.666 67.845 528.467 72.7181 532.081C74.7765 533.613 75.8057 534.704 75.7933 537.407C75.6817 576.683 75.6879 615.96 75.7561 655.237C75.7623 659.899 76.8039 664.574 81.1624 667.091C87.3872 670.687 97.4372 668.021 97.2698 658.045C96.9227 637.536 97.1644 617.014 97.1644 596.505C97.1644 595.395 97.1644 594.285 97.1644 593.045H100.773C100.773 594.173 100.773 595.277 100.773 596.381C100.773 616.382 100.773 636.383 100.773 656.377C100.773 663.675 103.185 666.725 110.345 668.517C110.482 668.548 110.556 668.827 110.655 668.994H112.509C116.688 667.996 120.185 666.148 121.431 661.616C121.747 660.476 122.094 659.291 122.101 658.132C122.132 618.136 122.144 578.14 122.076 538.145C122.076 535.113 123.31 533.675 125.808 531.945C130.7 528.553 135.406 524.666 139.417 520.27C148.965 509.817 155.047 497.126 161.049 484.472C162.53 481.347 163.653 477.95 164.291 474.558C164.812 471.805 162.028 468.582 159.461 467.974C156.597 467.292 152.573 468.867 151.37 471.371C148.407 477.528 145.822 483.877 142.61 489.891C137.805 498.887 132.43 507.567 125.201 514.883C121.183 518.95 116.694 521.56 110.426 521.182C101.814 520.661 93.1469 521.126 84.5042 521.132C79.9596 521.132 76.5497 518.392 73.9209 515.379C69.0292 509.768 64.2242 503.921 60.4547 497.541C55.4637 489.103 51.4958 480.051 47.0752 471.266C46.9016 470.925 46.6412 470.628 46.4242 470.311C45.364 469.524 44.3038 468.737 43.2437 467.949C38.7053 467.447 35.5309 469.208 33.9438 473.591C33.7454 474.583 33.5408 475.581 33.3424 476.573L33.3362 476.579Z" fill="#146C94"/>
<path d="M43.2373 467.957C44.2975 468.744 45.3576 469.531 46.4178 470.319C46.3558 466.865 46.8642 463.325 44.3409 460.318C44.0185 459.934 44.5765 458.433 45.1158 457.77C46.2814 456.344 47.7508 455.178 49.0032 453.821C50.4354 452.271 50.733 450.46 49.2574 448.836C44.1611 443.231 39.1081 437.571 33.6956 432.276C32.7222 431.321 29.3804 431.179 28.4318 432.059C18.9832 440.85 9.81345 449.933 0.556957 458.936C0.414358 459.072 0.240767 459.171 0.0795688 459.289V461.763C5.06431 466.89 10.0614 471.999 15.0276 477.145C19.1939 481.46 20.1673 481.751 24.1167 477.418C27.2477 473.977 30.112 475.093 33.336 476.587C33.5344 475.595 33.739 474.597 33.9374 473.605C32.9144 473.059 31.8976 472.507 31.4946 472.29C34.545 468.806 37.4837 465.452 40.4659 462.042C42.8901 463.579 43.6527 465.501 43.2373 467.963V467.957Z" fill="#F5D370"/>
<path d="M119.304 496.88C119.261 485.422 111.648 478.274 99.3345 478.51C90.1896 478.689 81.6027 485.949 81.6957 497.475C81.7701 506.973 89.5448 517.017 102.472 516.273C110.296 515.827 120.34 507.699 119.311 496.88H119.304Z" fill="#146C94"/>
<path d="M58.6968 547.497L65.3468 558.287L77.5365 554.815L77.9007 567.485L90.1932 570.573L84.1739 581.727L93.2755 590.548L82.4856 597.198L85.9575 609.387L73.2882 609.752L70.2 622.044L59.046 616.025L50.2253 625.126L43.5753 614.337L31.3855 617.808L31.0214 605.139L18.7289 602.051L24.7481 590.897L15.6466 582.076L26.4364 575.426L22.9646 563.236L35.6339 562.872L38.7221 550.58L49.8761 556.599L58.6968 547.497Z" fill="#F5D36F"/>
<path d="M37.9474 589.374L50.5503 598.934L69.4542 572.146" stroke="#146C94" stroke-width="3.69534" stroke-linecap="round" stroke-linejoin="round"/>
<path d="M713.741 640.555C710.652 635.989 707.502 631.456 704.257 626.733L703.896 626.206L690.435 606.52L690.416 606.492C689.822 605.717 689.29 604.957 688.843 604.187C687.717 602.273 687.075 600.291 687.099 597.825C687.299 577.617 687.194 557.404 687.194 536.683C696.298 549.921 705.15 562.793 714.173 575.921H729.682C728.86 573.997 728.399 572.324 727.496 570.932C724.731 566.656 721.799 562.484 718.915 558.288C710.89 546.609 702.869 534.925 694.801 523.27C693.865 521.911 692.81 520.571 691.575 519.497C689.171 517.411 686.173 516.922 683.094 516.913C675.325 516.894 667.552 516.889 659.783 516.913C654.956 516.927 651.254 518.747 648.408 522.933C643.609 529.998 638.454 536.826 633.275 543.621C630.832 546.828 629.398 550.097 629.564 554.254C629.82 560.616 629.611 566.998 629.649 573.369C629.659 574.98 629.754 576.61 630.02 578.197C630.576 581.442 633.066 584.098 637.917 583.585C640.868 583.276 643.471 580.33 643.476 577.171C643.481 570.371 643.576 563.572 643.424 556.773C643.367 554.368 643.78 552.316 645.4 550.534C645.762 550.14 646.08 549.707 646.398 549.275C648.456 546.5 650.513 543.716 652.846 540.561C652.893 541.649 652.946 542.281 652.946 542.913C652.95 553.898 652.855 564.888 652.998 575.873C653.05 579.964 653.73 584.074 655.816 587.695C657.73 591.021 659.907 594.209 662.064 597.388C666.492 603.907 670.997 610.369 675.449 616.874C683.136 628.116 690.796 639.381 698.498 650.619C701.51 655.018 704.604 659.366 707.659 663.737C707.759 663.832 707.858 663.932 707.953 664.032C709.74 665.728 711.883 666.151 714.316 666.351C720.217 666.84 725.681 659.219 722.231 653.45C719.594 649.041 716.62 644.822 713.741 640.555ZM711.289 575.921H713.617C712.781 575.921 712.025 575.907 711.289 575.921Z" fill="#146C94"/>
<path d="M755.643 590.002C755.615 587.494 754.033 585.584 751.225 585.717C747.186 585.911 743.128 585.769 738.928 585.769C738.928 583.73 738.933 581.863 738.928 579.996C738.928 577.159 737.745 575.952 734.918 575.933C734.091 575.929 733.269 575.924 732.485 575.924C731.444 575.924 730.475 575.929 729.681 575.929L714.173 575.924V575.929C713.983 575.929 713.797 575.929 713.612 575.924H711.284C711.132 575.924 710.975 575.929 710.823 575.938C708.461 576.033 707.24 577.321 707.231 579.682C707.221 581.621 707.231 583.559 707.231 585.769H700.527C698.949 585.769 697.353 585.926 695.799 585.736C692.297 585.313 690.867 588.026 690.843 590.782C690.805 595.638 690.834 600.494 690.834 605.35V607.032C690.696 606.861 690.563 606.69 690.43 606.523L703.891 626.209H705.972C721.029 626.209 736.082 626.142 751.139 626.266C754.037 626.285 755.624 624.455 755.643 621.875C755.738 611.251 755.743 600.627 755.639 590.002H755.643ZM732.319 585.664H713.541V582.595H732.319V585.664Z" fill="#F5D36F"/>
<path d="M636.539 666.277C633.022 666.586 630.537 664.833 628.76 661.935C626.708 658.585 627.045 655.188 629.155 652.042C635.978 641.86 642.882 631.725 649.781 621.59C653.349 616.344 657.046 611.184 660.538 605.891C661.431 604.542 662.078 604.504 663.009 605.549C663.674 606.295 664.206 607.165 664.786 607.982C667.276 611.488 669.77 614.99 672.236 618.511C672.873 619.423 673.02 620.241 672.251 621.357C666.363 629.886 660.581 638.486 654.756 647.058C651.358 652.056 648.023 657.093 644.516 662.011C642.72 664.524 640.535 666.558 636.539 666.273V666.277Z" fill="#146C94"/>
<path d="M670.564 511.991C679.416 511.991 686.591 504.815 686.591 495.964C686.591 487.113 679.416 479.938 670.564 479.938C661.713 479.938 654.538 487.113 654.538 495.964C654.538 504.815 661.713 511.991 670.564 511.991Z" fill="#146C94"/>
<path d="M434.138 60.595V99.0799C433.874 99.8852 433.612 100.69 433.348 101.493C432.673 103.724 431.229 105.403 429.493 106.874C429.25 107.056 429.006 107.24 428.762 107.421C428.762 107.475 428.736 107.498 428.682 107.495C428.486 107.617 428.29 107.742 428.094 107.864C428.094 107.917 428.067 107.941 428.014 107.938C427.033 107.781 426.263 108.024 425.907 109.049C424.463 109.359 423.018 109.935 421.571 109.938C392.001 109.991 362.428 109.986 332.858 109.947C331.696 109.947 330.534 109.507 329.372 109.272C328.932 109.121 328.493 108.969 328.053 108.818C324.968 107.472 322.677 105.32 321.34 102.2C321.287 102.048 321.233 101.897 321.18 101.745C320.871 100.619 320.416 99.5107 320.288 98.3637C320.128 96.9136 320.235 95.4367 320.229 93.9688C320.229 93.0713 320.229 92.1739 320.229 91.2765C320.229 85.8712 320.229 80.463 320.229 75.0577C320.312 73.7234 320.44 72.3892 320.457 71.055C320.469 70.2348 320.309 69.4087 320.226 68.5856C320.226 66.4401 320.226 64.2976 320.226 62.1521C320.481 60.9813 321.153 61.0526 322.113 61.3736C339.086 67.0582 356.072 72.7161 373.057 78.3621C373.521 78.5166 374.041 78.5106 374.534 78.579C375.94 78.6741 377.345 78.7692 378.751 78.8643C378.822 78.9356 378.893 79.0099 378.968 79.0812L379.197 78.6414C379.345 78.6414 379.494 78.6414 379.642 78.6414C379.999 78.6711 380.394 78.8108 380.709 78.7097C382.828 78.0411 384.929 77.322 387.036 76.6207C402.069 71.6106 417.105 66.6035 432.129 61.5667C432.625 61.4003 433.024 60.9427 433.469 60.6218C433.609 60.6069 433.749 60.592 433.888 60.5742C433.972 60.5772 434.055 60.5802 434.135 60.5831L434.138 60.595Z" fill="#166C94"/>
<path d="M320.03 44.3546C320.03 43.169 320.03 41.9833 320.03 40.7976C320.478 39.3743 320.74 37.8528 321.406 36.5423C323.863 31.7195 327.881 29.1104 333.301 29.0362C341.155 28.9292 349.012 29.0094 356.868 29.0094H358.066C358.066 27.5028 357.992 26.1626 358.087 24.8373C358.176 23.616 358.283 22.3501 358.672 21.2001C360 17.2895 363.364 14.8766 367.513 14.7994C373.476 14.6864 379.443 14.7607 385.41 14.7815C386.433 14.7845 387.464 14.8469 388.471 15.0074C390.952 15.4026 392.884 16.6833 394.408 18.6981C395.844 20.5969 396.313 22.7335 396.325 25.0305C396.331 26.3469 396.325 27.6633 396.325 29.0064C404.206 29.0064 411.914 28.9975 419.619 29.0154C420.751 29.0154 421.886 29.1253 423.016 29.2323C427.274 29.6334 431.612 32.9765 433.27 37.104C433.377 37.3684 433.841 37.4933 434.138 37.6805V53.2515C427.318 55.5129 420.499 57.7713 413.679 60.0356C401.92 63.9403 390.168 67.8627 378.391 71.7169C377.634 71.9665 376.71 71.705 375.863 71.6782C375.497 71.4583 375.155 71.1582 374.757 71.0275C357.124 65.1348 339.488 59.2571 321.848 53.3882C321.489 53.2693 321.076 53.3109 320.689 53.2782C320.47 52.9751 320.25 52.6691 320.03 52.363C320.03 52.2144 320.03 52.0658 320.03 51.9173C320.104 51.7301 320.241 51.5458 320.241 51.3586C320.256 49.2102 320.256 47.0587 320.241 44.9103C320.241 44.7231 320.101 44.5389 320.03 44.3516V44.3546ZM386.489 24.6353H367.94V28.95H386.489V24.6353Z" fill="#166C94"/>
<path d="M425.322 52.9688C442.145 52.9688 455.793 66.6173 455.793 83.44C455.793 100.263 442.145 113.911 425.322 113.911C408.5 113.911 394.851 100.263 394.851 83.44C394.851 66.6173 408.5 52.9688 425.322 52.9688Z" fill="#F5D36F"/>
<path d="M425.322 63.125V85.9784H410.087" stroke="#146C94" stroke-width="3.69534" stroke-linecap="round" stroke-linejoin="round"/>
</svg>
