<svg width="34" height="33" viewBox="0 0 34 33" fill="none" xmlns="http://www.w3.org/2000/svg">
<g id="ic:round-apple" clip-path="url(#clip0_10700_1752)">
<path id="Vector" d="M26.3681 31.3915C24.5649 33.1096 22.5961 32.8384 20.701 32.0245C18.6954 31.1926 16.8554 31.1564 14.7394 32.0245C12.0899 33.1458 10.6915 32.8203 9.10914 31.3915C0.130082 22.2945 1.45486 8.44093 11.6483 7.93453C14.1323 8.06113 15.8618 9.27286 17.3154 9.38138C19.4866 8.94732 21.5657 7.69942 23.8841 7.86219C26.6625 8.07922 28.76 9.16435 30.14 11.1176C24.3993 14.4996 25.7609 21.9328 31.0232 24.0126C29.9744 26.7254 28.6128 29.4202 26.3497 31.4096L26.3681 31.3915ZM17.1314 7.82602C16.8554 3.79293 20.1858 0.465189 24.0129 0.139648C24.5465 4.80573 19.7074 8.27816 17.1314 7.82602Z" fill="black"/>
</g>
<defs>
<clipPath id="clip0_10700_1752">
<rect width="32.5581" height="32.5581" fill="white" transform="translate(0.790527 0.139648)"/>
</clipPath>
</defs>
</svg>
