<svg width="16" height="16" viewBox="0 0 16 16" fill="none" xmlns="http://www.w3.org/2000/svg">
<g id="Group 11">
<g id="Group 3">
<mask id="mask0_231_700" style="mask-type:luminance" maskUnits="userSpaceOnUse" x="0" y="4" width="11" height="12">
<path id="Clip 2" fill-rule="evenodd" clip-rule="evenodd" d="M0.418457 4.25269H10.2609V15.2371H0.418457V4.25269Z" fill="white"/>
</mask>
<g mask="url(#mask0_231_700)">
<path id="Fill 1" fill-rule="evenodd" clip-rule="evenodd" d="M3.86874 15.2372C3.21233 15.2372 2.55067 15.0445 1.97189 14.6424L1.84974 14.5575C0.339652 13.5097 -0.0357003 11.4273 1.01296 9.91718L4.1934 5.67301C4.69205 4.95496 5.45462 4.46545 6.33044 4.30654C7.20079 4.14786 8.09898 4.34307 8.82411 4.84948L8.94626 4.93441C9.56866 5.36707 10.0253 5.99928 10.2422 6.72624C10.3134 6.96802 10.1753 7.22214 9.9335 7.29337C9.69172 7.36575 9.4376 7.22716 9.36637 6.98583C9.21111 6.45591 8.87937 5.99676 8.42548 5.68443L8.3031 5.59972C7.77706 5.23145 7.12499 5.08966 6.49255 5.20542C5.86034 5.31798 5.29845 5.67918 4.93361 6.20727L1.75339 10.4514C1.00154 11.5341 1.27438 13.0458 2.37053 13.8075L2.49267 13.8922C3.58882 14.6538 5.1005 14.381 5.86217 13.2849L6.83434 11.8864C6.97863 11.6796 7.26243 11.6286 7.4702 11.7723C7.67705 11.9159 7.72797 12.2003 7.58436 12.4072L6.61219 13.8056C5.96559 14.7376 4.92561 15.2372 3.86874 15.2372Z" fill="#1D1D1B"/>
</g>
</g>
<g id="Group 6">
<mask id="mask1_231_700" style="mask-type:luminance" maskUnits="userSpaceOnUse" x="5" y="0" width="11" height="12">
<path id="Clip 5" fill-rule="evenodd" clip-rule="evenodd" d="M5.5498 0.136475H15.392V11.1212H5.5498V0.136475Z" fill="white"/>
</mask>
<g mask="url(#mask1_231_700)">
<path id="Fill 4" fill-rule="evenodd" clip-rule="evenodd" d="M8.88629 11.1211C8.22988 11.1211 7.56548 10.9284 6.98578 10.5263L6.86363 10.4407C6.24101 10.0071 5.78438 9.37562 5.56862 8.6498C5.49716 8.4071 5.63552 8.1539 5.87708 8.08152C6.11887 8.01029 6.37298 8.14842 6.44444 8.39021C6.59856 8.91899 6.93122 9.37836 7.38442 9.69047L7.50749 9.77609C8.60363 10.5368 10.1153 10.2649 10.877 9.16785L14.0572 4.92345C14.809 3.84078 14.5371 2.32909 13.4401 1.56743L13.3188 1.48455C12.7916 1.11536 12.1398 0.973578 11.5074 1.08865C10.8742 1.20098 10.3133 1.56218 9.94842 2.09096L8.97647 3.4894C8.83286 3.69625 8.54838 3.74716 8.3413 3.60355C8.13444 3.45994 8.08261 3.17546 8.22623 2.96861L9.1984 1.57017C9.70046 0.841612 10.4738 0.344795 11.3453 0.190453C12.2156 0.0308603 13.1138 0.226984 13.8387 0.733618L13.9602 0.816497C15.4709 1.8663 15.8463 3.94877 14.7976 5.45862L11.6172 9.70302C10.9768 10.6243 9.94042 11.1211 8.88629 11.1211Z" fill="#1D1D1B"/>
</g>
</g>
<path id="Fill 7" fill-rule="evenodd" clip-rule="evenodd" d="M11.7326 7.02576C11.6461 7.02576 11.5666 6.97781 11.5276 6.90018C11.4892 6.82256 11.4981 6.72986 11.5497 6.66114L11.6746 6.49424C11.7522 6.3988 11.8913 6.38191 11.9895 6.45497C12.0876 6.52917 12.1098 6.6673 12.0404 6.76822L11.9146 6.93489C11.8716 6.99197 11.8038 7.02576 11.7326 7.02576Z" fill="#1D1D1B"/>
<path id="Fill 9" fill-rule="evenodd" clip-rule="evenodd" d="M12.254 6.32954C12.1675 6.33046 12.0881 6.28137 12.0497 6.20374C12.0116 6.12611 12.0196 6.03342 12.0712 5.96469L13.0826 4.61717C13.3251 4.26579 13.4189 3.8313 13.3413 3.4112C13.2664 2.98768 13.0246 2.61141 12.6705 2.36688L12.592 2.31346C12.4931 2.23948 12.4707 2.10112 12.5404 1.99952C12.6107 1.89861 12.7481 1.87098 12.8515 1.93788L12.931 1.99245C13.3867 2.30889 13.6918 2.78333 13.7906 3.33015C13.8888 3.87605 13.7694 4.42812 13.4527 4.88384L12.4369 6.23844C12.394 6.29644 12.3262 6.32954 12.254 6.32954Z" fill="#1D1D1B"/>
</g>
</svg>
