<svg width="16" height="16" viewBox="0 0 16 16" fill="none" xmlns="http://www.w3.org/2000/svg">
<g id="Group 8">
<g id="Group 3">
<mask id="mask0_231_709" style="mask-type:luminance" maskUnits="userSpaceOnUse" x="0" y="0" width="16" height="16">
<path id="Clip 2" fill-rule="evenodd" clip-rule="evenodd" d="M0.25 0.147217H15.5243V15.4208H0.25V0.147217Z" fill="white"/>
</mask>
<g mask="url(#mask0_231_709)">
<path id="Fill 1" fill-rule="evenodd" clip-rule="evenodd" d="M14.5039 2.27364L11.465 13.6639C11.4008 13.9046 11.202 14.4652 10.7532 14.4652C10.5189 14.4652 10.2418 14.3179 9.97408 14.0501L6.2169 10.292L9.08769 7.42094C9.21189 7.3008 9.26134 7.12333 9.21834 6.95637C9.17463 6.78941 9.04398 6.65876 8.87678 6.61481C8.70982 6.5711 8.53164 6.6215 8.41221 6.74547L5.54143 9.61649L1.62255 5.69881C1.29986 5.37588 1.15415 5.04363 1.22342 4.78806C1.29054 4.53702 1.57597 4.32611 2.00615 4.21146L13.4057 1.16416C13.5504 1.12308 13.7007 1.10158 13.8519 1.09991C14.0346 1.09991 14.2837 1.14004 14.4311 1.33208C14.5871 1.53463 14.6121 1.86854 14.5039 2.27364ZM15.1889 0.751081C14.7719 0.206016 14.0114 0.0130221 13.1577 0.241605L1.75911 3.28795C0.979011 3.4979 0.46022 3.94193 0.300665 4.54098C0.138483 5.14456 0.368739 5.79592 0.947243 6.37442L5.20386 10.6298L9.29877 14.7257C9.75403 15.1812 10.2571 15.4208 10.7543 15.4208C11.5239 15.4208 12.1342 14.8564 12.3891 13.9112L15.4268 2.52099C15.6143 1.82306 15.5295 1.19416 15.1889 0.751081Z" fill="#1D1D1B"/>
</g>
</g>
<path id="Fill 4" fill-rule="evenodd" clip-rule="evenodd" d="M11.7638 9.61644C11.636 9.58372 11.5063 9.66039 11.4726 9.78722L11.4475 9.88133C11.4213 10.0065 11.4979 10.1295 11.6219 10.1622C11.7451 10.194 11.8729 10.124 11.9102 10.0017L11.9355 9.9076C11.968 9.77982 11.8916 9.64916 11.7638 9.61644Z" fill="#1D1D1B"/>
<path id="Fill 6" fill-rule="evenodd" clip-rule="evenodd" d="M11.5849 10.3088C11.5232 10.293 11.458 10.3023 11.4029 10.3339C11.3489 10.3666 11.3087 10.4189 11.2927 10.4805L10.7842 12.4408C10.7508 12.5686 10.8272 12.6992 10.955 12.7327C11.0828 12.7654 11.2134 12.689 11.2462 12.5612L11.7556 10.6C11.7891 10.4729 11.7117 10.3425 11.5849 10.3088Z" fill="#1D1D1B"/>
</g>
</svg>
