<svg width="21" height="21" viewBox="0 0 21 21" fill="none" xmlns="http://www.w3.org/2000/svg">
<g id="nimbus:fire" clip-path="url(#clip0_6841_642)">
<path id="Vector" d="M12.2327 20.5444C12.1108 20.3866 12.0356 20.1978 12.0156 19.9995C11.9957 19.8011 12.0318 19.6011 12.1198 19.4222C12.3508 18.9734 12.4414 18.4602 12.3823 17.9549C12.3339 17.5943 12.2148 17.2468 12.0319 16.9324C11.8513 16.6221 11.6098 16.3515 11.3218 16.137C10.3405 15.3995 9.65192 14.3385 9.37801 13.1419C7.13626 16.0806 7.99595 17.7488 9.06957 19.2188C9.19545 19.3911 9.26176 19.5998 9.25844 19.8131C9.25513 20.0265 9.18237 20.233 9.0512 20.4013C8.91752 20.5717 8.73818 20.7005 8.53407 20.7728C8.33233 20.8436 8.11431 20.8541 7.9067 20.803C6.45638 20.4486 5.09138 19.774 4.16607 18.699C3.64155 18.1019 3.23773 17.4089 2.97695 16.6581C2.71319 15.901 2.59604 15.1005 2.63176 14.2995C2.63176 14.2995 2.4572 11.0668 6.35532 7.89979C6.35532 7.89979 10.9622 3.99116 9.36357 1.10104C9.30467 0.95887 9.28721 0.802934 9.31323 0.651263C9.33924 0.499593 9.40766 0.358385 9.51057 0.243973C9.6106 0.131798 9.74272 0.0531129 9.889 0.0185975C10.0353 -0.015918 10.1886 -0.00459295 10.3283 0.0510358L10.5199 0.127161C12.2551 1.22403 13.6113 2.82766 14.4049 4.72091C15.1661 6.57547 15.1609 8.73716 14.6464 10.6626C15.0729 10.2793 15.4286 9.82129 15.6977 9.30679L15.7358 9.22279C15.9956 8.59672 16.8133 8.79622 17.1204 9.20572C17.2333 9.38554 20.1287 13.5934 18.5734 17.1437C18.0047 18.2194 17.1742 19.1344 16.1584 19.8042C15.3061 20.3698 14.3537 20.7676 13.3523 20.9762C13.1453 21.0198 12.9301 21.0025 12.7328 20.9264C12.5336 20.8489 12.3603 20.717 12.2327 20.5457V20.5444ZM9.91482 10.3581C10.0374 10.2942 10.1794 10.2785 10.3129 10.3139C10.4465 10.3494 10.562 10.4335 10.6367 10.5497C10.6892 10.6272 10.7233 10.7151 10.7351 10.8096L10.7942 11.2677C10.8204 11.9383 10.8126 12.6392 11.0738 13.2837C11.3441 13.9452 11.7641 14.5305 12.297 14.9873C12.9835 15.439 13.5149 16.0904 13.8195 16.8537C14.1083 17.5939 14.1476 18.4155 13.9298 19.1807C14.5963 18.9705 15.2159 18.6331 15.7541 18.1872L15.8893 18.0769C16.3303 17.7133 16.6939 17.2592 16.9564 16.7421C17.2202 16.2263 17.379 15.6593 17.421 15.0765C17.5063 13.7312 17.0483 12.3807 16.3356 11.1758C16.0101 11.6483 15.5612 12.0145 15.0428 12.231C14.7186 12.3688 14.3747 12.4542 14.0243 12.4804C13.8235 12.4933 13.6234 12.4477 13.4481 12.3492C13.27 12.248 13.1241 12.0988 13.0268 11.9187C12.9462 11.7734 12.9002 11.6115 12.8922 11.4456C12.8843 11.2797 12.9146 11.1142 12.9808 10.9618C13.5216 9.6861 13.6896 8.27122 13.4599 6.89704C13.188 5.32484 12.435 3.87572 11.3048 2.74954C11.1 5.6436 8.13244 8.33816 7.52344 8.91829C7.42904 9.00723 7.33096 9.09218 7.22944 9.17291C4.04532 11.752 4.2632 14.1013 4.2632 14.205C4.19996 15.1383 4.40926 16.0699 4.86563 16.8865C5.3447 17.733 6.03376 18.4313 6.86063 18.9077C5.90645 16.8103 5.90645 14.293 9.42788 10.6836L9.91613 10.3555L9.91482 10.3581Z" fill="#146C94"/>
</g>
<defs>
<clipPath id="clip0_6841_642">
<rect width="21" height="21" fill="white"/>
</clipPath>
</defs>
</svg>
