<svg width="27" height="16" viewBox="0 0 27 16" fill="none" xmlns="http://www.w3.org/2000/svg">
<path d="M25.7743 13.2623H24.6331C24.1894 8.18978 20.3811 4.06952 15.4579 3.15146C15.5757 2.87719 15.642 2.57554 15.642 2.25841C15.642 1.01092 14.6307 0 13.3832 0C12.1357 0 11.1252 1.01092 11.1252 2.25841C11.1252 2.57593 11.1915 2.87758 11.3094 3.15146C6.38544 4.06948 2.57632 8.18938 2.13258 13.2623H0.992287C0.444141 13.2623 0 13.7064 0 14.2545C0 14.8027 0.444141 15.2468 0.992287 15.2468H3.07881H23.6877C23.6909 15.2472 23.6941 15.2468 23.6957 15.2468H25.7743C26.3225 15.2468 26.7666 14.8027 26.7666 14.2545C26.7666 13.7064 26.322 13.2623 25.7743 13.2623ZM4.12345 13.2623C4.62038 8.59184 8.58349 4.94188 13.3833 4.94188C18.1831 4.94188 22.1462 8.59184 22.6431 13.2622H4.12345V13.2623Z" fill="#146C94"/>
<path d="M14.9853 7.2507C14.0319 7.97943 13.8485 9.34278 14.5769 10.297C15.3068 11.2503 16.6674 11.4329 17.6219 10.705C18.5741 9.97586 18.7567 8.61291 18.0307 7.65911C17.302 6.70575 15.9386 6.52315 14.9853 7.2507Z" fill="#146C94"/>
<path d="M11.9332 8.66844C11.4434 9.04033 11.3485 9.73928 11.7232 10.2279C12.0955 10.7173 12.7956 10.8109 13.2834 10.4375C13.7724 10.0648 13.8665 9.36464 13.4918 8.87606C13.1191 8.38744 12.4214 8.2938 11.9332 8.66844Z" fill="#146C94"/>
<path d="M11.9711 11.5559C11.698 11.7663 11.6448 12.158 11.8544 12.4323C12.0628 12.7058 12.4541 12.7586 12.7284 12.5494C13.0043 12.3406 13.0567 11.948 12.8471 11.673C12.6371 11.3996 12.245 11.3464 11.9711 11.5559Z" fill="#146C94"/>
</svg>
