<svg width="59" height="59" viewBox="0 0 59 59" fill="none" xmlns="http://www.w3.org/2000/svg">
<g id="solar:meditation-round-linear">
<g id="Group">
<path id="Vector" d="M35.6457 11.0626C35.6457 12.6926 34.9982 14.2558 33.8456 15.4083C32.693 16.5609 31.1298 17.2084 29.4998 17.2084C27.8699 17.2084 26.3066 16.5609 25.1541 15.4083C24.0015 14.2558 23.354 12.6926 23.354 11.0626C23.354 9.43261 24.0015 7.86939 25.1541 6.71682C26.3066 5.56425 27.8699 4.91675 29.4998 4.91675C31.1298 4.91675 32.693 5.56425 33.8456 6.71682C34.9982 7.86939 35.6457 9.43261 35.6457 11.0626Z" stroke="#146C94"/>
<path id="Vector_2" d="M51.625 41.7918L48.7782 40.8331C48.2197 40.645 47.6889 40.3829 47.2 40.0538L46.9517 39.8841C46.1185 39.3203 45.4364 38.5606 44.9653 37.6716C44.4942 36.7827 44.2486 35.7916 44.25 34.7856C44.25 28.7946 39.9627 23.6813 34.1143 22.6955L31.9264 22.3267C30.7292 22.1251 28.2708 22.1251 27.0736 22.3267L24.8832 22.6955C19.0349 23.6813 14.75 28.7946 14.75 34.7856C14.7514 35.7916 14.5058 36.7827 14.0347 37.6716C13.5636 38.5606 12.8815 39.3203 12.0483 39.8841L11.8025 40.0538C11.3108 40.3832 10.7798 40.6438 10.2217 40.8331L7.375 41.7918" stroke="#146C94" stroke-linecap="round" stroke-linejoin="round"/>
<path id="Vector_3" d="M23.3543 39.3335L21.0803 42.3646C20.7189 42.8465 20.5395 43.0898 20.333 43.3012C19.8291 43.828 19.2144 44.2361 18.5335 44.496C18.2581 44.6017 17.968 44.6755 17.378 44.823L12.9703 45.9243C11.991 46.1709 11.1355 46.7667 10.5647 47.5997C9.99383 48.4327 9.74695 49.4456 9.87046 50.4478C9.99397 51.4501 10.4794 52.3727 11.2353 53.0422C11.9913 53.7118 12.9659 54.082 13.9757 54.0835H15.6548C19.8561 54.0835 23.9393 52.7216 27.2999 50.2018L31.9584 46.7085M35.6459 39.3335L37.4331 41.7156C38.2763 42.8415 38.6992 43.4045 39.2474 43.82C39.4121 43.9429 39.5842 44.0609 39.7636 44.1641C40.3585 44.5083 41.042 44.6779 42.4063 45.0196L46.0299 45.9243C47.0092 46.1709 47.8647 46.7667 48.4355 47.5997C49.0064 48.4327 49.2532 49.4456 49.1297 50.4478C49.0062 51.4501 48.5208 52.3727 47.7648 53.0422C47.0088 53.7118 46.0343 54.082 45.0245 54.0835H42.721C41.337 54.0835 40.6462 54.0835 39.9603 54.0442C37.9361 53.9309 35.9338 53.5676 33.9988 52.9625C33.3425 52.7585 32.6959 52.5175 31.4028 52.0308L27.0418 50.396" stroke="#146C94" stroke-linecap="round" stroke-linejoin="round"/>
</g>
</g>
</svg>
