<svg width="217" height="163" viewBox="0 0 217 163" fill="none" xmlns="http://www.w3.org/2000/svg">
<g id="Frame" clip-path="url(#clip0_10253_1002)">
<g id="Background Complete">
<g id="Group">
<path id="Vector" d="M217 142.718H0V142.826H217V142.718Z" fill="#EBEBEB"/>
<path id="Vector_2" d="M195.257 149.701H180.883V149.809H195.257V149.701Z" fill="#EBEBEB"/>
<path id="Vector_3" d="M118.578 148.343H112.983V148.451H118.578V148.343Z" fill="#EBEBEB"/>
<path id="Vector_4" d="M151.757 148.798H139.979V148.907H151.757V148.798Z" fill="#EBEBEB"/>
<path id="Vector_5" d="M180.448 145.673H156.097V145.782H180.448V145.673Z" fill="#EBEBEB"/>
<path id="Vector_6" d="M34.2816 150.695H22.7676V150.803H34.2816V150.695Z" fill="#EBEBEB"/>
<path id="Vector_7" d="M48.1265 150.695H38.1445V150.803H48.1265V150.695Z" fill="#EBEBEB"/>
<path id="Vector_8" d="M83.2451 148.286H56.8535V148.394H83.2451V148.286Z" fill="#EBEBEB"/>
<path id="Vector_9" d="M102.863 123.361H19.0572C17.6901 123.361 16.5791 122.25 16.5791 120.883V3.08263C16.5791 1.71553 17.6901 0.604492 19.0572 0.604492H102.863C104.23 0.604492 105.341 1.71553 105.341 3.08263V120.883C105.341 122.25 104.23 123.361 102.863 123.361ZM19.0572 0.712992C17.7509 0.712992 16.6876 1.77629 16.6876 3.08263V120.883C16.6876 122.19 17.7509 123.253 19.0572 123.253H102.863C104.169 123.253 105.232 122.19 105.232 120.883V3.08263C105.232 1.77629 104.169 0.712992 102.863 0.712992H19.0572Z" fill="#EBEBEB"/>
<path id="Vector_10" d="M196.737 123.361H112.931C111.564 123.361 110.453 122.25 110.453 120.883V3.08263C110.453 1.71553 111.564 0.604492 112.931 0.604492H196.737C198.104 0.604492 199.215 1.71553 199.215 3.08263V120.883C199.215 122.25 198.104 123.361 196.737 123.361ZM112.931 0.712992C111.625 0.712992 110.562 1.77629 110.562 3.08263V120.883C110.562 122.19 111.625 123.253 112.931 123.253H196.737C198.043 123.253 199.106 122.19 199.106 120.883V3.08263C199.106 1.77629 198.043 0.712992 196.737 0.712992H112.931Z" fill="#EBEBEB"/>
</g>
<g id="Group_2">
<path id="Vector_11" d="M28.067 116.938C26.9213 116.938 25.9795 116.001 25.9795 114.851V19.1059C25.9795 17.9601 26.9169 17.0183 28.067 17.0183C29.2128 17.0183 30.1546 17.9558 30.1546 19.1059V114.851C30.1546 115.996 29.2171 116.938 28.067 116.938Z" fill="#F0F0F0"/>
<path id="Vector_12" d="M36.7467 116.938C35.601 116.938 34.6592 116.001 34.6592 114.851V19.1059C34.6592 17.9601 35.5966 17.0183 36.7467 17.0183C37.8925 17.0183 38.8343 17.9558 38.8343 19.1059V114.851C38.8343 115.996 37.8968 116.938 36.7467 116.938Z" fill="#F0F0F0"/>
<path id="Vector_13" d="M180.254 116.938C179.108 116.938 178.166 116.001 178.166 114.851V19.1059C178.166 17.9601 179.103 17.0183 180.254 17.0183C181.399 17.0183 182.341 17.9558 182.341 19.1059V114.851C182.341 115.996 181.404 116.938 180.254 116.938Z" fill="#F0F0F0"/>
<path id="Vector_14" d="M188.933 116.938C187.787 116.938 186.846 116.001 186.846 114.851V19.1059C186.846 17.9601 187.783 17.0183 188.933 17.0183C190.079 17.0183 191.021 17.9558 191.021 19.1059V114.851C191.021 115.996 190.083 116.938 188.933 116.938Z" fill="#F0F0F0"/>
<g id="Group_3">
<path id="Vector_15" d="M35.41 131.286H35.1453C34.8768 131.286 34.6592 131.504 34.6592 131.772V139.046C34.6592 139.315 34.8768 139.532 35.1453 139.532H35.41C35.6785 139.532 35.8961 139.315 35.8961 139.046V131.772C35.8961 131.504 35.6785 131.286 35.41 131.286Z" fill="#F0F0F0"/>
<path id="Vector_16" d="M37.5321 131.286H37.2673C36.9989 131.286 36.7812 131.504 36.7812 131.772V139.046C36.7812 139.315 36.9989 139.532 37.2673 139.532H37.5321C37.8005 139.532 38.0181 139.315 38.0181 139.046V131.772C38.0181 131.504 37.8005 131.286 37.5321 131.286Z" fill="#F0F0F0"/>
<path id="Vector_17" d="M39.6502 131.286H39.3855C39.117 131.286 38.8994 131.504 38.8994 131.772V139.046C38.8994 139.315 39.117 139.532 39.3855 139.532H39.6502C39.9187 139.532 40.1363 139.315 40.1363 139.046V131.772C40.1363 131.504 39.9187 131.286 39.6502 131.286Z" fill="#F0F0F0"/>
<path id="Vector_18" d="M41.7723 131.286H41.5076C41.2391 131.286 41.0215 131.504 41.0215 131.772V139.046C41.0215 139.315 41.2391 139.532 41.5076 139.532H41.7723C42.0408 139.532 42.2584 139.315 42.2584 139.046V131.772C42.2584 131.504 42.0408 131.286 41.7723 131.286Z" fill="#F0F0F0"/>
<path id="Vector_19" d="M43.8944 131.286H43.6296C43.3612 131.286 43.1436 131.504 43.1436 131.772V139.046C43.1436 139.315 43.3612 139.532 43.6296 139.532H43.8944C44.1628 139.532 44.3805 139.315 44.3805 139.046V131.772C44.3805 131.504 44.1628 131.286 43.8944 131.286Z" fill="#F0F0F0"/>
<path id="Vector_20" d="M46.0125 131.286H45.7478C45.4793 131.286 45.2617 131.504 45.2617 131.772V139.046C45.2617 139.315 45.4793 139.532 45.7478 139.532H46.0125C46.281 139.532 46.4986 139.315 46.4986 139.046V131.772C46.4986 131.504 46.281 131.286 46.0125 131.286Z" fill="#F0F0F0"/>
<path id="Vector_21" d="M48.1346 131.286H47.8699C47.6014 131.286 47.3838 131.504 47.3838 131.772V139.046C47.3838 139.315 47.6014 139.532 47.8699 139.532H48.1346C48.4031 139.532 48.6207 139.315 48.6207 139.046V131.772C48.6207 131.504 48.4031 131.286 48.1346 131.286Z" fill="#F0F0F0"/>
</g>
<g id="Group_4">
<path id="Vector_22" d="M93.4227 131.286H93.158C92.8895 131.286 92.6719 131.504 92.6719 131.772V139.046C92.6719 139.315 92.8895 139.532 93.158 139.532H93.4227C93.6911 139.532 93.9088 139.315 93.9088 139.046V131.772C93.9088 131.504 93.6911 131.286 93.4227 131.286Z" fill="#F0F0F0"/>
<path id="Vector_23" d="M95.5448 131.286H95.28C95.0116 131.286 94.7939 131.504 94.7939 131.772V139.046C94.7939 139.315 95.0116 139.532 95.28 139.532H95.5448C95.8132 139.532 96.0308 139.315 96.0308 139.046V131.772C96.0308 131.504 95.8132 131.286 95.5448 131.286Z" fill="#F0F0F0"/>
<path id="Vector_24" d="M97.6668 131.286H97.4021C97.1336 131.286 96.916 131.504 96.916 131.772V139.046C96.916 139.315 97.1336 139.532 97.4021 139.532H97.6668C97.9353 139.532 98.1529 139.315 98.1529 139.046V131.772C98.1529 131.504 97.9353 131.286 97.6668 131.286Z" fill="#F0F0F0"/>
<path id="Vector_25" d="M99.785 131.286H99.5203C99.2518 131.286 99.0342 131.504 99.0342 131.772V139.046C99.0342 139.315 99.2518 139.532 99.5203 139.532H99.785C100.053 139.532 100.271 139.315 100.271 139.046V131.772C100.271 131.504 100.053 131.286 99.785 131.286Z" fill="#F0F0F0"/>
<path id="Vector_26" d="M101.907 131.286H101.642C101.374 131.286 101.156 131.504 101.156 131.772V139.046C101.156 139.315 101.374 139.532 101.642 139.532H101.907C102.176 139.532 102.393 139.315 102.393 139.046V131.772C102.393 131.504 102.176 131.286 101.907 131.286Z" fill="#F0F0F0"/>
<path id="Vector_27" d="M104.03 131.286H103.765C103.497 131.286 103.279 131.504 103.279 131.772V139.046C103.279 139.315 103.497 139.532 103.765 139.532H104.03C104.299 139.532 104.516 139.315 104.516 139.046V131.772C104.516 131.504 104.299 131.286 104.03 131.286Z" fill="#F0F0F0"/>
<path id="Vector_28" d="M106.147 131.286H105.883C105.614 131.286 105.396 131.504 105.396 131.772V139.046C105.396 139.315 105.614 139.532 105.883 139.532H106.147C106.416 139.532 106.633 139.315 106.633 139.046V131.772C106.633 131.504 106.416 131.286 106.147 131.286Z" fill="#F0F0F0"/>
</g>
<g id="Group_5">
<path id="Vector_29" d="M127.328 136.407C127.328 132.922 126.329 130.101 125.093 130.101C123.856 130.101 122.857 132.927 122.857 136.407C122.857 139.888 123.856 142.713 125.093 142.713C126.329 142.713 127.328 139.888 127.328 136.407Z" fill="#EBEBEB"/>
<path id="Vector_30" d="M194.502 130.101H125.093C126.325 130.101 127.328 132.927 127.328 136.407C127.328 139.888 126.33 142.713 125.093 142.713H194.502C195.735 142.713 196.737 139.888 196.737 136.407C196.737 132.927 195.739 130.101 194.502 130.101Z" fill="#F5F5F5"/>
</g>
</g>
</g>
<g id="Shadow">
<path id="&#38;lt;Path&#38;gt;" d="M108.5 162.317C154.974 162.317 192.648 160.118 192.648 157.404C192.648 154.691 154.974 152.491 108.5 152.491C62.026 152.491 24.3516 154.691 24.3516 157.404C24.3516 160.118 62.026 162.317 108.5 162.317Z" fill="#F5F5F5"/>
</g>
<g id="Window">
<g id="Group_6">
<g id="Group_7">
<path id="Vector_31" d="M45.7611 14.8005H45.3271V26.3276H45.7611V14.8005Z" fill="#146C94"/>
<path id="Vector_32" d="M45.7611 29.4133H45.3271V33.1761H45.7611V29.4133Z" fill="#146C94"/>
<path id="Vector_33" d="M166.243 4.87061H52.0537C49.1774 4.87061 46.8457 7.20231 46.8457 10.0786V69.3543C46.8457 72.2306 49.1774 74.5623 52.0537 74.5623H166.243C169.12 74.5623 171.451 72.2306 171.451 69.3543V10.0786C171.451 7.20231 169.12 4.87061 166.243 4.87061Z" fill="#146C94"/>
<path id="Vector_34" d="M48.0658 74.5623H170.241C170.914 74.5623 171.456 75.1091 171.456 75.7775V77.1446C171.456 77.8173 170.909 78.3598 170.241 78.3598H48.0658C47.3931 78.3598 46.8506 77.8129 46.8506 77.1446V75.7775C46.8506 75.1048 47.3974 74.5623 48.0658 74.5623Z" fill="#263238"/>
<g id="Group_8">
<path id="Vector_35" d="M170.154 69.3543V10.0786C170.154 7.92138 168.406 6.17261 166.248 6.17261L52.0586 6.17261C49.9013 6.17261 48.1526 7.92138 48.1526 10.0786V69.3543C48.1526 71.5115 49.9013 73.2603 52.0586 73.2603L166.248 73.2603C168.406 73.2603 170.154 71.5115 170.154 69.3543Z" fill="white"/>
<path id="Vector_36" opacity="0.1" d="M170.154 69.3543V10.0786C170.154 7.92138 168.406 6.17261 166.248 6.17261L52.0586 6.17261C49.9013 6.17261 48.1526 7.92138 48.1526 10.0786V69.3543C48.1526 71.5115 49.9013 73.2603 52.0586 73.2603L166.248 73.2603C168.406 73.2603 170.154 71.5115 170.154 69.3543Z" fill="#146C94"/>
<path id="Vector_37" d="M68.676 26.1148C69.3878 24.752 71.2366 23.5629 73.3372 23.0855C74.765 21.2974 77.6381 19.8739 80.6197 19.6395C81.5007 19.5701 82.3123 19.6178 83.0327 19.7524C85.0942 17.565 88.7312 15.8681 92.5026 15.5773C96.1873 15.2908 98.9822 16.4236 99.9587 18.3028C100.579 18.1509 101.217 18.0381 101.864 17.9903C104.702 17.769 106.829 18.6891 107.441 20.195C108.361 19.7784 109.403 19.5006 110.462 19.4182C113.348 19.1925 115.266 20.5249 114.749 22.3867C114.632 22.8121 114.389 23.2287 114.064 23.6236C118.187 24.0012 121.537 25.0298 119.476 26.2971L62.1487 30.7586C60.6123 28.0721 64.9523 26.8005 68.676 26.1191V26.1148Z" fill="white"/>
<path id="Vector_38" opacity="0.3" d="M142.077 33.5181C142.537 30.6837 140.612 28.013 137.778 27.5529C134.943 27.0928 132.273 29.0176 131.813 31.852C131.352 34.6864 133.277 37.3571 136.112 37.8172C138.946 38.2773 141.617 36.3525 142.077 33.5181Z" fill="#146C94"/>
<path id="Vector_39" d="M133.117 38.7791C133.091 38.6012 133.1 38.4102 133.156 38.2062C133.499 36.9606 135.343 35.8322 137.27 35.6803C137.683 35.65 138.065 35.6673 138.412 35.7237C139.458 34.6257 141.294 33.7751 143.19 33.6275C144.201 33.5494 145.082 33.6839 145.755 33.9704C146.996 32.9895 148.789 32.2734 150.633 32.1302C153.658 31.8959 155.668 33.289 155.129 35.242C155.116 35.2811 155.099 35.3201 155.086 35.3592C155.134 35.3548 155.182 35.3462 155.225 35.3418C156.688 35.229 157.664 35.9017 157.399 36.8478C157.317 37.1516 157.113 37.4467 156.831 37.7115C158.367 37.9588 159.352 38.4059 158.497 38.931L129.428 41.1921C128.595 39.7382 131.164 39.1003 133.117 38.7748V38.7791Z" fill="white"/>
</g>
<path id="Vector_40" opacity="0.6" d="M122.484 73.2603H103.761L123.239 6.17261H141.961L122.484 73.2603Z" fill="white"/>
<path id="Vector_41" opacity="0.6" d="M100.914 73.2603H93.5576L113.036 6.17261H120.392L100.914 73.2603Z" fill="white"/>
<path id="Vector_42" opacity="0.6" d="M66.0506 73.2603H58.6943L78.1679 6.17261H85.5242L66.0506 73.2603Z" fill="white"/>
<path id="Vector_43" d="M170.806 24.5437V21.7488L47.5019 21.7488V24.5437L170.806 24.5437Z" fill="#146C94"/>
<path id="Vector_44" opacity="0.2" d="M170.155 53.5264V69.3501C170.155 71.5027 168.401 73.2561 166.249 73.2561H52.0544C49.9018 73.2561 48.1484 71.5027 48.1484 69.3501V54.9977C56.8762 51.9597 61.4158 64.0379 94.5864 58.7474C122.701 54.2599 130.422 41.3875 146.059 52.1333C154.96 58.2483 170.15 53.5264 170.15 53.5264H170.155Z" fill="#146C94"/>
</g>
<path id="Vector_45" d="M166.218 97.3125H50.778C47.8873 97.3125 45.5439 99.6559 45.5439 102.547V121.59C45.5439 124.481 47.8873 126.824 50.778 126.824H166.218C169.108 126.824 171.452 124.481 171.452 121.59V102.547C171.452 99.6559 169.108 97.3125 166.218 97.3125Z" fill="white"/>
<path id="Vector_46" opacity="0.2" d="M166.218 97.3125H50.778C47.8873 97.3125 45.5439 99.6559 45.5439 102.547V121.59C45.5439 124.481 47.8873 126.824 50.778 126.824H166.218C169.108 126.824 171.452 124.481 171.452 121.59V102.547C171.452 99.6559 169.108 97.3125 166.218 97.3125Z" fill="#146C94"/>
</g>
</g>
<g id="Character">
<g id="Group_9">
<g id="Group_10">
<path id="Vector_47" d="M148.407 156.046H145.655L140.495 117.658H143.242L148.407 156.046Z" fill="#146C94"/>
<path id="Vector_48" d="M98.7266 156.046H101.456L107.007 114.768H104.277L98.7266 156.046Z" fill="#146C94"/>
<g id="Group_11">
<path id="Vector_49" d="M103.253 117.689C104.043 118.301 104.998 118.652 105.996 118.704L139.935 120.484C145.065 120.753 149.426 116.782 149.639 111.652L151.336 71.0513C151.553 65.8997 147.434 61.6074 142.278 61.6074H131.489C127.926 61.6074 125.005 64.4328 124.884 67.9916L123.599 105.793L105.406 108.983C101.213 109.716 99.8852 115.085 103.253 117.689Z" fill="#146C94"/>
<path id="Vector_50" opacity="0.4" d="M103.253 117.689C104.043 118.301 104.998 118.652 105.996 118.704L139.935 120.484C145.065 120.753 149.426 116.782 149.639 111.652L151.336 71.0513C151.553 65.8997 147.434 61.6074 142.278 61.6074H131.489C127.926 61.6074 125.005 64.4328 124.884 67.9916L123.599 105.793L105.406 108.983C101.213 109.716 99.8852 115.085 103.253 117.689Z" fill="white"/>
</g>
</g>
<g id="Group_12">
<path id="Vector_51" d="M101.495 41.6131C98.132 47.0424 96.7302 52.8189 97.6068 59.6501C98.4835 66.4813 106.426 69.6885 113.266 67.8918C120.11 66.095 124.793 61.7897 124.307 55.7137C123.82 49.6377 118.634 46.769 118.578 42.238C118.521 37.7071 113.747 35.8712 111.916 37.03C109.65 34.0398 104.073 37.451 101.5 41.6131H101.495Z" fill="#263238"/>
<path id="Vector_52" d="M114.754 68.443C114.663 68.443 114.58 68.3866 114.55 68.2955C114.511 68.1826 114.572 68.0568 114.684 68.0177C121.785 65.583 125.508 60.8263 124.653 55.2972C124.172 52.2028 122.527 50.0935 120.93 48.0581C119.493 46.2222 118.135 44.4862 117.944 42.2642C117.935 42.147 118.022 42.0385 118.139 42.0298C118.261 42.0168 118.365 42.1079 118.373 42.2294C118.556 44.3213 119.875 46.0052 121.273 47.789C122.826 49.7724 124.584 52.0248 125.083 55.2277C125.977 60.9826 122.141 65.9172 114.828 68.4257C114.806 68.4344 114.78 68.4387 114.758 68.4387L114.754 68.443Z" fill="#263238"/>
<path id="Vector_53" d="M114.902 72.4227C114.164 72.6831 113.513 72.8915 112.818 73.0954C112.133 73.3038 111.443 73.4817 110.753 73.6596C109.364 74.0068 107.962 74.315 106.53 74.5493C105.098 74.788 103.635 74.9703 102.12 75.0398C100.606 75.1135 99.0346 75.0875 97.3116 74.7663L97.1076 74.7273C95.8838 74.5016 94.9941 73.5121 94.8291 72.3446C94.6642 71.1598 94.7684 70.2354 94.9159 69.3891C95.0722 68.5428 95.2935 67.792 95.5366 67.0672C96.0226 65.6176 96.6389 64.3156 97.2812 63.044C97.9366 61.7811 98.6397 60.5745 99.3905 59.3984C100.15 58.2223 100.918 57.0939 101.804 55.9741C102.372 55.2537 103.418 55.1278 104.138 55.6964C104.729 56.1608 104.92 56.942 104.659 57.606L104.642 57.6537C104.169 58.8559 103.665 60.1015 103.201 61.3254C102.737 62.5536 102.285 63.7775 101.895 64.9927C101.491 66.2035 101.148 67.4187 100.905 68.5645C100.784 69.133 100.697 69.6929 100.671 70.1833C100.64 70.665 100.671 71.1034 100.736 71.2466L98.2534 68.8292C99.2342 68.916 100.415 68.8466 101.613 68.7077C102.815 68.5601 104.06 68.3345 105.306 68.0697C106.551 67.7963 107.814 67.4968 109.069 67.1583L110.948 66.6419L112.775 66.1124L112.871 66.0863C114.633 65.5742 116.481 66.5898 116.994 68.3518C117.488 70.0531 116.551 71.8325 114.902 72.4184V72.4227Z" fill="#FFB573"/>
<path id="Vector_54" d="M101.743 50.9005L100.957 52.0984C100.662 52.5497 100.601 53.1139 100.797 53.613L101.708 55.9566C102.073 56.8941 102.867 57.5972 103.843 57.8402L104.446 57.9921C105.883 56.0955 106.039 52.9881 106.039 52.9881L106.182 52.1071C106.308 51.3215 105.822 50.6141 105.067 50.4839L103.327 50.1801C102.724 50.0759 102.094 50.3624 101.738 50.9005H101.743Z" fill="#FFB573"/>
<path id="Vector_55" opacity="0.2" d="M105.072 50.4883L103.331 50.1802C102.936 50.1107 102.529 50.2105 102.194 50.4406C102.711 52.7842 103.831 55.093 105.098 56.8985C105.94 55.0974 106.044 52.9925 106.044 52.9925L106.187 52.1115C106.313 51.3259 105.831 50.6185 105.072 50.4883Z" fill="black"/>
<g id="Group_13">
<path id="Vector_56" d="M75.3597 155.772C79.4045 156.176 81.9521 156.371 84.235 156.519C86.188 156.645 86.6306 156.936 88.1974 157.057C89.5081 157.161 89.5862 155.903 89.3258 154.423C89.1956 153.681 89.0393 152.118 88.8788 150.925L82.9937 149.9C81.9999 151.411 77.8855 153.29 75.5767 153.368C73.3719 153.442 73.7539 155.607 75.364 155.768L75.3597 155.772Z" fill="#263238"/>
<path id="Vector_57" d="M89.1127 101.423C97.3543 94.9429 119.532 93.2113 119.532 93.2113L128.372 91.7791C128.372 91.7791 133.172 101.457 130.134 108.544C127.548 114.586 111.815 112.711 98.7344 112.003C100.696 119.251 88.657 150.677 88.657 150.677C86.7821 151.263 83.8396 150.326 82.8848 149.77C83.4924 139.463 86.2353 125.583 86.2396 108.427C86.2396 105.723 86.9904 103.089 89.117 101.418L89.1127 101.423Z" fill="#263238"/>
<path id="Vector_58" d="M102.528 112.229L99.4815 104.543C98.2359 105.276 95.0243 113.744 98.0233 120.896C98.8435 117.02 99.2081 113.783 98.7263 112.003C99.9763 112.073 101.248 112.151 102.528 112.229Z" fill="black"/>
<path id="Vector_59" d="M82.2863 145.769C82.0476 146.736 82.2777 148.507 81.8176 149.766C81.6527 150.221 81.6961 150.881 82.0173 150.864C84.3392 150.742 87.7808 152.01 89.0177 151.875C89.2564 151.849 89.4734 151.602 89.5645 151.254L90.5627 147.561C90.6973 147.058 90.515 146.55 90.1765 146.506L82.9894 145.092C82.703 145.035 82.3948 145.33 82.2863 145.769Z" fill="#146C94"/>
</g>
<path id="Vector_60" d="M118.443 61.9502C121.377 73.0129 124.975 77.457 106.412 77.036C104.091 75.1525 103.448 68.0001 103.448 68.0001C109.659 65.8084 114.815 62.714 118.443 61.9502Z" fill="#146C94"/>
<path id="Vector_61" d="M112.163 77.11C113.243 78.9806 113.881 80.5169 116.854 84.7354C118.959 87.2917 117.458 92.2783 118.308 95.286C123.325 96.7442 140.377 94.4353 141.232 91.7749C142.343 90.9763 141.08 77.5614 136.701 63.7819C134.917 58.1659 130.816 55.9699 126.819 57.3674C125.994 57.6582 125.209 58.1746 124.384 58.6347C121.164 60.4227 118.538 61.9157 115.913 63.8904C115.045 64.5457 114.164 65.2532 113.326 65.9476C110.318 68.4474 110.227 73.7552 112.167 77.1057L112.163 77.11Z" fill="#146C94"/>
<path id="Vector_62" opacity="0.2" d="M122.223 77.0796C126.94 78.6724 131.528 78.7201 133.025 78.3946C128.95 80.1566 125.708 79.3277 122.223 77.0796Z" fill="black"/>
<path id="Vector_63" d="M117.861 49.4729C118.816 52.6541 121.008 58.2093 123.907 58.9298C123.907 58.9298 121.086 60.145 117.709 66.9371C114.71 65.6481 115.439 64.1898 115.439 64.1898C118.082 61.5424 116.772 59.2336 115.088 57.3457L117.861 49.4729Z" fill="#FFB573"/>
<path id="Vector_64" d="M118.442 65.5352C120.408 64.6715 122.665 67.0455 122.665 67.0455C122.665 67.0455 125.096 61.2863 125.13 58.2744C124.275 58.3351 122.921 58.2527 122.921 58.2527C122.921 58.2527 118.85 63.8383 118.442 65.5352Z" fill="white"/>
<path id="Vector_65" d="M116.547 66.3119C116.547 66.3119 114.954 67.1625 115.088 69.7882C112.38 65.6652 115.088 62.9137 115.088 62.9137C115.088 62.9137 115.831 61.9545 116.863 61.833C116.225 63.8815 116.547 66.3119 116.547 66.3119Z" fill="white"/>
<path id="Vector_66" opacity="0.2" d="M116.733 52.6843L115.088 57.3411C115.487 57.7882 115.865 58.2569 116.169 58.7516C117.236 57.8576 118.135 55.5314 117.596 54.186C117.327 53.5133 116.984 52.9187 116.728 52.6843H116.733Z" fill="black"/>
<path id="Vector_67" d="M115.166 43.1103C117.818 47.6629 119.033 49.5335 118.421 53.344C117.501 59.0771 111.59 61.577 107.692 57.9661C104.186 54.7154 100.44 47.8105 103.361 43.0278C106.239 38.3146 112.514 38.5576 115.166 43.1103Z" fill="#FFB573"/>
<path id="Vector_68" d="M111.039 38.6446C114.441 42.3336 105.527 45.198 102.649 48.6266C102.103 49.2776 101.048 48.9 101.018 48.0537C100.87 43.5097 105.002 37.9111 111.039 38.6446Z" fill="#263238"/>
<path id="Vector_69" d="M110.84 39.0699C108.934 42.1426 111.339 46.1875 116.863 46.4435C118.369 40.7581 113.578 37.4033 110.84 39.0699Z" fill="#263238"/>
<path id="Vector_70" d="M114.733 46.4261C111.807 46.4261 110.679 44.8507 110.301 44.0912C109.611 42.6937 109.854 41.0271 110.887 40.0376L111.187 40.3501C110.301 41.1964 110.093 42.6893 110.688 43.9002C111.078 44.6901 112.393 46.4651 116.16 45.8749L116.226 46.3046C115.679 46.3914 115.18 46.4261 114.728 46.4261H114.733Z" fill="#263238"/>
<path id="Vector_71" d="M109.975 48.9779C110.214 49.3512 110.227 49.7895 110.001 49.9544C109.775 50.1237 109.398 49.9544 109.159 49.5855C108.92 49.2123 108.907 48.774 109.133 48.609C109.359 48.4398 109.736 48.609 109.975 48.9779Z" fill="#263238"/>
<path id="Vector_72" d="M105.479 52.1115C105.718 52.4847 105.731 52.9231 105.505 53.088C105.279 53.2572 104.902 53.088 104.663 52.7191C104.424 52.3458 104.411 51.9075 104.637 51.7426C104.863 51.5733 105.24 51.7426 105.479 52.1115Z" fill="#263238"/>
<path id="Vector_73" d="M104.75 51.6863L103.756 52.0465C103.756 52.0465 104.628 52.4284 104.75 51.6863Z" fill="#263238"/>
<path id="Vector_74" d="M107.346 51.9336C107.346 51.9336 107.788 53.9734 107.641 55.2277C108.392 55.3492 109.034 54.5636 109.034 54.5636L107.35 51.9379L107.346 51.9336Z" fill="#ED893E"/>
<path id="Vector_75" d="M111.391 52.5281C111.577 52.3935 111.781 52.2633 112.016 52.1505C112.076 52.1201 112.15 52.1505 112.181 52.2156C112.207 52.2807 112.181 52.3588 112.116 52.3936C110.423 53.2268 110.145 54.876 110.141 54.8891C110.128 54.9628 110.067 55.0106 109.998 55.0019C109.928 54.9932 109.885 54.9238 109.898 54.85C109.906 54.7849 110.128 53.4612 111.391 52.5281Z" fill="#263238"/>
<path id="Vector_76" d="M118.938 45.6753C119.055 46.9122 118.63 48.0449 118.009 48.7697C117.08 49.859 115.805 49.0822 115.384 47.676C115.006 46.4087 115.032 44.3125 116.291 43.7526C117.532 43.2015 118.799 44.2648 118.934 45.6796L118.938 45.6753Z" fill="#FFB573"/>
<path id="Vector_77" d="M107.91 46.7994C107.966 46.7604 108.035 46.7474 108.105 46.7691C109.164 47.0642 109.854 46.4175 109.863 46.4088C109.967 46.3134 110.123 46.3177 110.21 46.4262C110.301 46.5347 110.288 46.704 110.188 46.7994C110.153 46.8342 109.285 47.6501 107.97 47.2812C107.84 47.2465 107.762 47.0989 107.801 46.9557C107.818 46.8863 107.862 46.8342 107.914 46.7951L107.91 46.7994Z" fill="#263238"/>
<path id="Vector_78" d="M104.19 50.0848C104.247 50.0545 104.312 50.0414 104.373 50.0588C104.503 50.0935 104.581 50.2367 104.542 50.38C104.151 51.7991 103.058 52.2114 103.01 52.2288C102.88 52.2765 102.741 52.2028 102.702 52.0639C102.663 51.925 102.737 51.7774 102.867 51.7297C102.91 51.7123 103.756 51.3825 104.065 50.2541C104.086 50.1803 104.13 50.1239 104.19 50.0892V50.0848Z" fill="#263238"/>
<path id="Vector_79" d="M109.247 48.5527L108.253 48.913C108.253 48.913 109.125 49.2949 109.247 48.5527Z" fill="#263238"/>
<path id="Vector_80" d="M113.578 94.1272L114.476 92.7557C114.815 92.2393 115.379 91.9181 115.995 91.8964L118.873 91.7836C120.023 91.7402 121.125 92.2523 121.828 93.1637L122.262 93.7279C120.93 96.1019 117.74 97.686 117.74 97.686L116.881 98.2371C116.117 98.7276 115.153 98.5409 114.667 97.8075L113.552 96.1192C113.165 95.5377 113.179 94.7434 113.582 94.1272H113.578Z" fill="#FFB573"/>
<path id="Vector_81" d="M137.27 65.7174C137.356 66.1341 137.417 66.4596 137.482 66.8198C137.547 67.1713 137.599 67.5229 137.651 67.8744C137.76 68.5731 137.838 69.2762 137.916 69.975C138.059 71.3768 138.151 72.7829 138.177 74.1934C138.198 74.8965 138.19 75.6083 138.185 76.3157C138.159 77.0275 138.142 77.7349 138.09 78.4466C138.02 79.8658 137.825 81.298 137.604 82.7172L137.578 82.8995C137.556 83.047 137.513 83.2033 137.46 83.3378C137.152 84.1451 136.775 84.6962 136.419 85.1606C136.059 85.625 135.698 86.0113 135.334 86.3628C134.609 87.0615 133.893 87.6344 133.168 88.1726C131.727 89.2446 130.256 90.1299 128.776 90.9762C127.292 91.8095 125.795 92.5777 124.28 93.2938C122.757 94.0055 121.242 94.6782 119.649 95.2815C118.794 95.607 117.835 95.173 117.514 94.318C117.236 93.5889 117.51 92.786 118.126 92.365L118.152 92.3477C119.471 91.4406 120.83 90.5249 122.149 89.6004C123.473 88.676 124.783 87.7429 126.051 86.7881C127.322 85.842 128.55 84.8525 129.657 83.8586C130.208 83.3595 130.725 82.8517 131.133 82.3613C131.337 82.1183 131.515 81.8839 131.641 81.6886C131.771 81.4933 131.814 81.3327 131.788 81.3675L131.645 81.9881C131.714 80.7512 131.762 79.5143 131.745 78.26C131.727 77.0101 131.684 75.7515 131.593 74.4886C131.497 73.23 131.398 71.967 131.246 70.7084C131.176 70.0791 131.089 69.4542 131.011 68.8292L130.881 67.9004L130.751 67.0281L130.729 66.8936C130.456 65.0794 131.706 63.3825 133.52 63.1091C135.273 62.8443 136.914 64.0075 137.27 65.7218V65.7174Z" fill="#FFB573"/>
<path id="Vector_82" d="M129.48 56.9724C134.944 57.2415 136.662 60.9565 139.058 68.3345C134.011 73.5903 130.443 74.2152 130.443 74.2152C130.443 74.2152 126.186 61.5294 129.48 56.9724Z" fill="#146C94"/>
<g id="Group_14">
<path id="Vector_83" d="M102.801 157.057C106.867 157.057 109.419 156.996 111.707 156.918C113.664 156.849 114.133 157.092 115.704 157.057C117.019 157.031 116.967 155.772 116.563 154.323C116.359 153.598 116.047 152.062 115.769 150.885L109.81 150.451C108.972 152.053 105.066 154.336 102.775 154.644C100.587 154.939 101.182 157.053 102.805 157.053L102.801 157.057Z" fill="#263238"/>
<path id="Vector_84" d="M100.718 101.423C106.039 97.408 123.06 94.1704 128.967 93.8145C134.878 93.4586 140.49 92.7816 141.228 91.7791C141.228 91.7791 144.773 101.457 141.735 108.544C139.149 114.586 125.204 113.236 112.106 113.058C115.643 131.312 115.912 150.56 115.912 150.56C114.038 151.146 110.583 151.532 109.632 150.977C110.24 140.669 99.9673 125.449 97.845 108.423C97.5108 105.741 98.5654 103.041 100.722 101.414L100.718 101.423Z" fill="#263238"/>
<path id="Vector_85" d="M108.452 146.745C108.408 147.743 108.985 149.432 108.786 150.755C108.716 151.233 108.912 151.68 109.224 151.766C111.815 152.47 115.079 151.771 116.264 151.393C116.489 151.319 116.654 151.033 116.676 150.677L116.919 146.858C116.954 146.337 116.672 145.877 116.329 145.903L109.003 145.947C108.712 145.947 108.469 146.298 108.447 146.749L108.452 146.745Z" fill="#146C94"/>
</g>
</g>
</g>
</g>
<g id="Bag">
<g id="Group_15">
<path id="Vector_86" d="M137 158.602C146.57 158.602 162.172 159.084 168.248 158.216C174.324 157.348 164.39 146.159 164.486 142.978C164.581 139.797 137.33 140.079 137.673 143.074C138.25 148.091 131.788 158.602 136.996 158.602H137Z" fill="#263238"/>
<path id="Vector_87" d="M161.682 142.956C161.651 142.861 158.704 133.265 152.016 131.681C148.735 130.904 146.288 132.163 144.816 133.356C142.139 135.522 140.463 139.241 140.546 142.822L139.678 142.844C139.591 138.998 141.392 135.01 144.27 132.679C146.6 130.791 149.347 130.158 152.22 130.835C159.399 132.536 162.393 142.292 162.519 142.705L161.686 142.952L161.682 142.956Z" fill="#263238"/>
<path id="Vector_88" d="M155.341 145.443L150.879 145.513C150.241 145.521 149.647 145.013 149.564 144.38C149.482 143.746 149.938 143.221 150.58 143.212L155.041 143.143C155.679 143.134 156.274 143.642 156.356 144.276C156.439 144.909 155.983 145.434 155.341 145.443Z" fill="white"/>
</g>
</g>
</g>
<defs>
<clipPath id="clip0_10253_1002">
<rect width="217" height="161.713" fill="white" transform="translate(0 0.604492)"/>
</clipPath>
</defs>
</svg>
