<svg width="33" height="38" viewBox="0 0 33 38" fill="none" xmlns="http://www.w3.org/2000/svg">
<g id="Group">
<path id="Vector" d="M18.6074 0.784113C13.0455 0.692934 7.92434 3.91457 5.62968 8.99017C4.80907 10.8137 4.38357 12.7589 4.38357 14.7648C4.38357 14.8408 4.38357 15.2663 4.38357 15.9197C4.2772 16.3908 3.86689 16.8619 3.4414 17.2874L2.92472 17.7737C1.98254 18.6703 1.54184 19.111 1.40508 19.2781C1.13154 19.5973 0.964381 19.9164 0.858006 20.2355C0.508488 21.2993 1.34429 21.8159 1.61783 21.9983C1.87617 22.1503 2.1649 22.3022 2.49922 22.4542C2.75756 22.5758 3.04629 22.6973 3.30463 22.8189C3.33502 22.8341 3.38061 22.8493 3.411 22.8645C3.62375 24.2778 4.42916 29.6269 4.44436 29.6725C4.55073 30.5691 4.85466 31.2529 5.35614 31.7088C6.23753 32.5142 7.42285 32.4838 8.38023 32.4534C9.09446 32.4382 9.70232 32.4382 10.3558 32.4382C10.4014 33.0005 10.4469 33.8363 10.4925 34.5657C10.5533 35.3711 10.5989 36.2069 10.6445 36.8452C10.6597 37.1947 10.842 37.5138 11.1156 37.7418C11.3283 37.9089 11.6019 38.0001 11.8602 38.0001C11.9362 38.0001 12.0274 37.9849 12.1033 37.9697L27.6493 34.8849C28.4851 34.7177 29.0929 33.9731 29.0929 33.1221V30.2955C29.0929 26.9675 29.8072 23.6091 31.2356 20.3267C32.0258 18.5031 32.4058 16.5428 32.3754 14.5217C32.2386 6.92346 26.1752 0.905684 18.6074 0.784113ZM29.8983 19.734C28.3939 23.1988 27.6341 26.7548 27.6341 30.2955V33.1221C27.6341 33.274 27.5277 33.4108 27.3757 33.4412L12.1185 36.4805C12.073 35.8878 12.0274 35.1736 11.9818 34.4746C11.7994 31.6632 11.7842 31.6328 11.7538 31.5113L11.6019 30.9794H11.0396H10.9028C10.0518 30.9794 9.26162 30.9642 8.34984 30.9946C7.59002 31.0098 6.7998 31.0402 6.35911 30.6451C6.13116 30.4323 5.9792 30.0524 5.91841 29.5053C5.90321 29.4141 4.83947 22.3478 4.83947 22.3478L4.80907 22.1351L4.6723 21.9679L4.50514 21.7855C4.33798 21.6488 4.15563 21.588 4.01886 21.5272L3.92768 21.4968C3.66934 21.3904 3.411 21.2689 3.13747 21.1473C2.84874 21.0105 2.60559 20.889 2.40804 20.7674C2.34725 20.737 2.31686 20.7066 2.28647 20.6762C2.33206 20.5394 2.42324 20.4027 2.56 20.2203C2.68158 20.0684 3.50218 19.2781 3.95807 18.8526C4.17082 18.6551 4.35318 18.4727 4.47475 18.3512C5.0978 17.7281 5.70566 17.0291 5.84243 16.1173L5.85762 16.0565V15.9957C5.85762 15.2967 5.85762 14.856 5.85762 14.78C5.85762 12.9716 6.23753 11.2392 6.96696 9.61323C9.03367 5.0695 13.623 2.18218 18.5922 2.25816C25.3698 2.36454 30.7949 7.75926 30.9165 14.5369C30.9469 16.3452 30.5974 18.108 29.8983 19.734Z" fill="#524B4B"/>
<path id="Vector_2" d="M20.3396 6.71069H16.5861C14.717 6.71069 12.9694 7.44012 11.6321 8.76221C11.313 9.09653 11.0394 9.41565 10.8115 9.73478C10.0061 10.9049 9.58057 12.2726 9.58057 13.701C9.58057 15.7829 10.5075 17.7433 12.088 19.0654C11.784 19.6732 11.4041 20.2507 10.9482 20.7674C10.6747 21.0713 10.6139 21.512 10.7811 21.8767C10.9482 22.2414 11.313 22.4846 11.7233 22.4846C13.6988 22.4846 15.5528 21.8615 17.1332 20.6914H20.3396C22.2088 20.6914 23.9716 19.962 25.2937 18.6399C26.6157 17.3178 27.3452 15.555 27.3452 13.6858C27.3452 9.85635 24.1995 6.71069 20.3396 6.71069ZM24.2451 17.6217C23.1965 18.6703 21.8137 19.2477 20.3244 19.2477H16.6013L16.4038 19.3997C15.2944 20.2659 14.0179 20.813 12.6502 20.9801C13.0605 20.4027 13.3949 19.7796 13.6684 19.1262L13.8811 18.5791L13.4101 18.2448C11.936 17.2114 11.0546 15.5094 11.0546 13.7162C11.0546 12.5917 11.3889 11.4976 12.0272 10.5706C12.2095 10.3122 12.4223 10.0539 12.6654 9.79556C13.714 8.74701 15.1121 8.16955 16.5861 8.16955H20.3396C23.3941 8.16955 25.8711 10.6466 25.8711 13.701C25.8711 15.2055 25.2937 16.5884 24.2451 17.6217Z" fill="#524B4B"/>
</g>
</svg>
