<svg width="229" height="226" viewBox="0 0 229 226" fill="none" xmlns="http://www.w3.org/2000/svg">
<path d="M207.643 157.565L200.099 165.488L198.663 166.976L198.577 167.069C182.296 157.057 166.589 142.09 162.633 138.236C160.479 136.336 158.646 134.103 157.206 131.621C153.732 125.493 149.037 114.044 145.763 105.663L145.333 107.487L139.439 132.358C142.951 137.746 145.941 143.454 148.369 149.406C149.964 153.331 151.274 157.365 152.289 161.477L118.377 181.342V181.843L117.917 181.599L117.472 181.857V181.356L82.8493 162.814C83.9161 157.688 85.4269 152.663 87.3647 147.797C87.3647 147.725 87.4221 147.647 87.4508 147.575C89.4435 142.604 91.827 137.798 94.5792 133.202L87.6159 108.173L86.6827 104.805L86.173 102.996C82.8636 111.184 76.7689 125.779 72.5335 132.951C71.0463 135.405 69.1643 137.599 66.9628 139.444C62.9428 143.22 46.92 157.887 30.4521 167.619L28.9445 165.982L21.5361 157.944L59.1022 122.783L71.7869 86.6486C79.102 71.0308 84.5793 70.7948 84.5793 70.7948C85.6039 69.919 86.7687 69.2205 88.0251 68.7282C88.4486 68.5637 88.8722 68.3993 89.3029 68.2205C92.0666 67.0967 94.7483 65.7825 97.3287 64.2874C100.764 62.3041 103.904 59.854 106.661 57.0077C107.034 53.9223 107.241 50.819 107.278 47.7114C107.278 46.1811 107.278 45.1371 107.278 45.1371L115.261 45.9523L123.208 44.8296C123.208 44.8296 123.272 46.8962 123.466 49.4849C123.646 51.8161 123.904 54.5835 124.299 56.6788C125.607 57.9448 127.011 59.109 128.499 60.1613C133.085 63.3951 138.126 65.935 143.459 67.6985C144.565 68.086 145.611 68.6251 146.567 69.3003C147.709 69.5792 152.655 71.56 158.771 85.34L170.767 121.703L207.643 157.565Z" fill="#5E4453"/>
<path d="M128.498 60.1613C127.213 61.5915 123.28 64.6807 112.138 67.2336C97.063 70.6804 89.3029 68.2491 89.3029 68.2491C92.0665 67.1252 94.7483 65.811 97.3286 64.316C100.763 62.3327 103.904 59.8826 106.661 57.0363C107.034 53.9509 107.24 50.8476 107.278 47.74L123.495 49.5135C123.674 51.8447 123.933 54.6121 124.328 56.7074C125.628 57.9623 127.022 59.117 128.498 60.1613Z" fill="#3F2935"/>
<path d="M136.976 113.829C131.693 116.161 122.454 111.641 114.601 114.166C106.747 116.69 102.871 123.92 101.349 133.18C99.8268 142.441 103.71 155.892 103.71 155.892C103.71 155.892 96.6969 157.83 87.4507 147.618C89.4434 142.647 91.827 137.841 94.5792 133.244L86.6826 104.848L86.1729 103.039C86.1729 103.039 84.2921 93.3276 89.0444 85.9263C89.0444 85.9263 87.5656 93.8353 90.3366 101.065C93.1075 108.295 99.6043 108.295 106.395 108.13C113.186 107.966 113.093 105.649 120.753 107.293C133.559 110.039 138.563 108.802 141.571 104.619C143.509 101.83 142.26 111.498 136.976 113.829Z" fill="#3F2935"/>
<path d="M100.545 36.5559C100.545 36.5559 98.7213 32.866 96.3308 32.9804C93.9403 33.0948 93.1363 38.2149 96.5103 42.1766C99.8843 46.1382 102.971 44.4434 102.971 44.4434L100.545 36.5559Z" fill="#EA8D78"/>
<path d="M130.559 35.9838C130.559 35.9838 132.231 32.2224 134.629 32.2796C137.027 32.3368 138.025 37.3854 134.809 41.4758C131.593 45.5661 128.499 43.9786 128.499 43.9786L130.559 35.9838Z" fill="#EA8D78"/>
<path d="M131.636 28.3537C131.923 43.1205 123.086 56.3212 116.051 56.4499C107.515 56.6144 99.2669 42.7486 99.0012 28.983C98.8002 18.7928 104.938 10.3904 115.16 10.2188C125.383 10.0471 131.442 18.1707 131.636 28.3537Z" fill="#FFA488"/>
<path d="M102.655 29.7195C104.301 29.2803 105.983 28.9883 107.68 28.8471C110.939 28.6111 112.138 28.9472 112.138 28.9472C112.138 28.9472 111.514 27.1309 108.772 27.1809C106.029 27.231 102.655 29.7195 102.655 29.7195Z" fill="#2F2A00"/>
<path d="M111.944 33.7026C111.944 33.7026 110.02 31.1283 107.551 31.1068C105.082 31.0854 102.885 33.8814 102.885 33.8814C102.885 33.8814 103.56 34.5965 107.07 34.7681C110.58 34.9397 111.944 33.7026 111.944 33.7026Z" fill="#EA8D78"/>
<path d="M107.486 34.5607C105.947 34.5716 104.414 34.3473 102.942 33.8957H102.906C102.515 34.0843 102.091 34.1983 101.657 34.2318C102.26 34.428 102.902 34.4674 103.524 34.3462C104.711 35.102 106.109 35.4602 107.515 35.3688C110.573 35.3688 111.959 33.7169 111.959 33.7169C110.533 34.2709 109.017 34.557 107.486 34.5607Z" fill="#2F2A00"/>
<path d="M127.845 29.2404C126.195 28.8518 124.513 28.6125 122.82 28.5253C119.554 28.4181 118.369 28.7971 118.369 28.7971C118.369 28.7971 118.929 26.9593 121.664 26.9092C124.399 26.8591 127.845 29.2404 127.845 29.2404Z" fill="#2F2A00"/>
<path d="M118.721 33.6097C118.721 33.6097 120.544 30.9638 123.028 30.8422C125.512 30.7207 127.781 33.4023 127.781 33.4023C127.781 33.4023 127.134 34.1674 123.631 34.4535C120.128 34.7395 118.721 33.6097 118.721 33.6097Z" fill="#EA8D78"/>
<path d="M129.03 33.6955C128.597 33.6764 128.171 33.5795 127.773 33.4094H127.738C126.284 33.9151 124.761 34.1972 123.222 34.2461C121.695 34.2826 120.175 34.0403 118.735 33.531C118.735 33.531 120.171 35.0971 123.237 35.0112C124.647 35.0467 126.033 34.6334 127.192 33.8313C127.806 33.9435 128.439 33.8967 129.03 33.6955Z" fill="#2F2A00"/>
<path d="M113.215 42.5555C113.937 42.9952 114.74 43.2847 115.577 43.4065C116.437 43.3291 117.255 43.0035 117.931 42.4697C117.931 42.4697 116.934 42.3625 115.735 42.3339C114.89 42.3338 114.047 42.4079 113.215 42.5555Z" fill="#EA8D78"/>
<path d="M116.173 47.1322C117.657 47.0671 119.116 46.7327 120.48 46.1453C119.289 45.999 118.089 45.944 116.891 45.9809C116.684 46.0453 116.493 46.1526 116.331 46.2955C116.169 46.4385 116.039 46.6139 115.95 46.8104C115.852 46.6174 115.715 46.447 115.547 46.3102C115.378 46.1735 115.183 46.0735 114.974 46.0166C113.771 46.0252 112.572 46.1256 111.385 46.317C112.779 46.8537 114.261 47.1324 115.756 47.1393H116.094L116.173 47.1322Z" fill="#743F3D"/>
<path d="M112.289 47.4397C112.289 47.4397 112.849 48.2335 114.916 48.734C116.984 49.2346 118.506 48.3908 119.726 47.597C119.37 48.2281 118.877 48.7723 118.284 49.1903C117.69 49.6084 117.011 49.8897 116.295 50.0141C113.94 50.3001 112.368 47.7615 112.289 47.4397Z" fill="#EA8D78"/>
<path d="M121.722 18.9716C119.113 17.7598 116.248 17.2002 113.373 17.3411C108.592 17.5843 104.866 21.3099 103.481 23.9487C102.095 26.5874 100.688 27.3382 100.688 27.3382C100.688 27.3382 101.126 33.7312 99.8986 36.4557C99.8986 36.4557 98.2403 33.6955 96.3093 33.009C95.3244 29.0701 95.11 24.9792 95.6775 20.9595C96.6826 14.7525 103.294 8.08776 112.189 7.14383C121.083 6.1999 125.627 10.5477 125.627 10.5477C125.627 10.5477 131.535 13.8658 133.287 19.5007C135.038 25.1357 133.538 32.4512 133.538 32.4512C133.538 32.4512 132.023 33.2164 131.04 35.8622C131.04 35.8622 128.168 31.5716 128.929 26.7948C128.9 26.7948 127.73 19.179 121.722 18.9716Z" fill="#743F3D"/>
<path d="M127.005 13.7228C125.225 14.2877 113.718 8.08062 113.718 8.08062C113.701 7.30699 113.79 6.53472 113.983 5.78515C114.248 4.58302 114.819 3.46869 115.639 2.54855C116.46 1.6284 117.504 0.933153 118.671 0.529172C119.173 0.349427 119.689 0.213055 120.214 0.121565C122.209 -0.184022 124.248 0.20644 125.987 1.22683C127.725 2.24722 129.056 3.83482 129.755 5.72079C130.968 9.25338 128.8 13.1721 127.005 13.7228Z" fill="#743F3D"/>
<path d="M112.11 28.9472C112.925 30.6082 113.512 32.3714 113.854 34.1889C114.237 35.9749 114.271 37.8176 113.955 39.6165C113.955 39.6165 113.344 30.6778 108.779 28.7827C109.892 28.7477 111.006 28.8027 112.11 28.9472Z" fill="#EA8D78"/>
<path d="M121.722 18.9716C121.722 18.9716 116.044 17.0766 111.205 19.1718C106.367 21.2671 106.482 24.3277 103.122 24.5851L102.691 23.7842C102.691 23.7842 103.588 23.9558 105.634 22.354C107.68 20.7522 111.988 14.9599 121.722 18.9716Z" fill="#743F3D"/>
<path d="M98.6137 187.864C98.6137 187.864 93.9691 188.457 92.3538 188.772C92.3538 188.772 85.893 187.842 83.1364 187.957C80.3798 188.071 78.9225 191.303 77.3935 194.815C75.8644 198.326 69.8774 202.058 67.7669 204.24C65.6563 206.421 65.6133 209.631 65.6133 210.311C65.6133 210.99 64.2852 212.921 65.0102 214.501C65.7353 216.082 66.5106 215.56 67.1639 215.381C67.8171 215.202 68.3053 214.079 68.3053 214.079C69.1287 214.133 69.9553 214.053 70.7532 213.843C71.4711 213.522 70.8537 213.357 72.4904 213.25C73.6913 213.218 74.8772 212.976 75.9936 212.535C76.9915 212.127 83.8256 205.062 87.5298 203.174C91.234 201.286 96.9339 201.744 96.9339 201.744L98.6137 187.864Z" fill="#FFA488"/>
<path d="M203.516 192.669C192.482 198.812 174.205 201.25 153.05 202.509C150.475 202.666 147.859 202.809 145.203 202.938L145.562 212.07L141.111 212.02C132.389 211.92 112.045 211.655 90.8606 211.233C56.5681 210.561 29.2819 202.08 21.3997 194.521C19.435 192.605 17.9397 190.265 17.0297 187.68C16.1197 185.096 15.8194 182.337 16.1521 179.619C16.791 175.328 19.3538 171.259 24.5799 168.692C26.6358 167.78 28.7629 167.036 30.9402 166.468C40.1576 163.844 56.8409 160.661 75.2398 160.49L76.0797 160.425C78.5061 156.8 87.4723 147.596 87.4723 147.596C91.9763 151.162 97.0118 154.004 102.397 156.02C106.955 157.679 112.167 158.745 117.429 158.108C132.655 156.278 147.953 147.825 147.953 147.825C151.047 150.893 154.012 158.101 154.012 158.101C169.252 158.244 194.492 162.85 199.955 165.56L200.056 165.624C203.565 166.557 206.671 168.609 208.9 171.467C213.753 177.752 213.43 187.156 203.516 192.669Z" fill="#E9835B"/>
<path d="M21.5361 157.944C19.7556 157.66 17.9605 157.476 16.1593 157.393C14.623 157.393 11.5218 158.402 9.77024 158.695C8.01864 158.988 7.13566 159.052 7.18591 159.317C7.23616 159.582 7.81764 160.218 9.75588 160.49C11.6941 160.761 13.3452 160.247 14.3933 160.225C15.4414 160.204 15.6568 160.819 15.6568 160.819C15.258 161.701 14.645 162.471 13.873 163.059C13.1011 163.647 12.1944 164.035 11.2347 164.187C7.86071 164.773 6.53265 164.273 6.30293 163.801C6.07322 163.329 7.50895 160.054 7.13566 158.831C6.76237 157.608 6.18808 157.715 5.47739 159.653C4.7667 161.591 3.58939 163.457 3.58939 164.723C3.58939 165.989 5.743 167.09 5.743 167.09C5.743 167.09 1.55783 166.604 0.308734 167.762C-0.940357 168.921 1.565 168.971 3.54632 169.15C5.52764 169.328 7.37974 169.908 8.5714 169.75C8.5714 169.75 3.25199 169.679 2.21109 170.53C1.17018 171.381 3.29507 171.96 5.31946 171.917C7.34384 171.874 10.0717 172.31 10.5168 172.303C10.5168 172.303 5.77889 172.875 5.92964 174.055C6.0804 175.235 6.94902 174.427 9.51898 174.684C11.9227 175.01 14.3683 174.83 16.6977 174.155C19.1456 173.44 28.9014 166.003 28.9014 166.003L21.5361 157.944Z" fill="#FFA488"/>
<path d="M185.447 169.479C165.182 172.339 108.441 186.813 108.441 186.813C108.441 186.813 78.5492 173.183 58.5063 169.993C39.4756 166.961 28.3558 168.47 30.9186 166.418C40.136 163.794 56.8193 160.611 75.2183 160.44L76.0582 160.375C78.4846 156.75 87.4507 147.546 87.4507 147.546C91.9547 151.112 96.9903 153.954 102.375 155.97C103.093 159.303 115.024 175.686 123.638 172.99C132.253 170.294 143.567 166.604 148.972 168.456C154.378 170.308 165.354 169.293 172.92 167.598C180.486 165.903 185.447 169.479 185.447 169.479Z" fill="#CC6A4C"/>
<path d="M200.099 165.488C199.774 166.112 199.276 166.629 198.663 166.976L198.548 167.047C182.267 157.036 166.56 142.069 162.604 138.214C160.45 136.315 158.617 134.081 157.177 131.6C153.703 125.471 149.008 114.023 145.734 105.642L147.622 90.0239C147.622 90.0239 154.658 120.244 162.088 129.976C169.517 139.709 200.099 165.488 200.099 165.488Z" fill="#3F2935"/>
<path d="M87.6158 108.195L86.6826 104.826L86.1729 103.017C82.8635 111.205 76.7688 125.8 72.5334 132.973C71.0443 135.419 69.1624 137.605 66.9628 139.444C62.9427 143.22 46.9199 157.887 30.452 167.619L28.9445 165.982C28.9445 165.982 61.3921 138.379 70.9182 127.517C80.4443 116.654 86.295 92.9844 86.295 92.9844L87.6158 108.195Z" fill="#3F2935"/>
<path d="M203.516 192.669C192.482 198.812 174.205 201.25 153.05 202.509C147.78 201.659 142.67 200.017 137.895 197.639V196.595L108.463 186.848C108.714 186.913 113.552 185.554 113.552 185.554C126.955 188.529 159.977 197.496 177.177 193.57C199.295 188.522 200.149 179.268 204.191 174.634C205.423 173.163 207.044 172.066 208.871 171.467C213.753 177.752 213.429 187.156 203.516 192.669Z" fill="#CC6A4C"/>
<path d="M137.903 197.632C137.903 197.632 142.533 198.311 144.148 198.662C144.148 198.662 150.652 197.861 153.373 198.025C156.093 198.19 157.522 201.458 158.994 204.99C160.465 208.523 166.359 212.384 168.426 214.608C170.494 216.832 170.479 220.036 170.422 220.715C170.365 221.395 171.7 223.347 170.946 224.92C170.192 226.493 169.417 225.943 168.749 225.75C168.082 225.557 167.63 224.427 167.63 224.427C166.808 224.467 165.986 224.372 165.196 224.148C164.478 223.812 165.095 223.662 163.466 223.519C162.266 223.468 161.084 223.204 159.977 222.739C158.986 222.31 152.289 215.116 148.628 213.164C144.966 211.212 139.267 211.534 139.267 211.534L137.903 197.632Z" fill="#FFA488"/>
<path d="M207.643 157.572C209.428 157.322 211.226 157.171 213.027 157.122C214.564 157.179 217.651 158.216 219.395 158.552C221.139 158.888 222.015 158.959 221.965 159.217C221.915 159.474 221.312 160.118 219.366 160.347C217.421 160.576 215.777 160.032 214.743 159.996C213.709 159.961 213.465 160.561 213.465 160.561C213.846 161.452 214.444 162.235 215.205 162.838C215.966 163.441 216.866 163.845 217.823 164.015C221.182 164.666 222.518 164.194 222.762 163.722C223.006 163.25 221.628 159.953 222.044 158.716C222.46 157.479 223.006 157.615 223.681 159.567C224.355 161.519 225.554 163.407 225.504 164.68C225.454 165.953 223.264 167.004 223.264 167.004C223.264 167.004 227.457 166.59 228.684 167.777C229.912 168.964 227.406 168.957 225.425 169.1C223.444 169.243 221.57 169.815 220.4 169.607C220.4 169.607 225.719 169.607 226.739 170.508C227.758 171.409 225.633 171.938 223.609 171.838C221.584 171.738 218.849 172.139 218.411 172.117C218.411 172.117 223.135 172.782 222.956 173.955C222.776 175.128 221.929 174.313 219.33 174.52C216.917 174.803 214.471 174.576 212.152 173.855C209.725 173.061 200.142 165.474 200.142 165.474L207.643 157.572Z" fill="#FFA488"/>
<path d="M141.111 212.02C132.389 211.92 112.045 211.655 90.8606 211.233C56.5681 210.561 29.2819 202.08 21.3997 194.521C19.435 192.605 17.9397 190.265 17.0297 187.68C16.1197 185.096 15.8194 182.337 16.1521 179.619C19.0236 181.864 24.6588 185.776 35.3407 191.096C52.8998 199.849 85.3259 204.561 110.997 207.028C136.668 209.496 138.994 208.409 138.994 208.409L141.111 212.02Z" fill="#CC6A4C"/>
<path d="M123.114 9.74679C119.647 8.05915 114.141 7.02941 114.141 7.02941C114.057 6.61854 113.997 6.20306 113.962 5.78514C114.229 4.58061 114.802 3.46467 115.627 2.54432C116.452 1.62397 117.5 0.93007 118.671 0.529158C119.173 0.349413 119.689 0.213041 120.214 0.121552C119.64 0.715084 119.037 1.81634 119.561 3.64699C120.458 6.76482 126.575 11.4416 123.114 9.74679Z" fill="#603030"/>
<path d="M119.884 16.1684C119.884 16.1684 113.495 13.7585 107.386 16.1684C101.277 18.5783 100.423 25.0785 98.9941 25.7436C98.9941 25.7436 100.229 17.0265 106.797 15.1243C113.366 13.2222 119.884 16.1684 119.884 16.1684Z" fill="#603030"/>
<path d="M124.715 12.1567L122.303 17.5843C123.274 17.0974 124.045 16.2903 124.484 15.3005C124.924 14.3108 125.006 13.1997 124.715 12.1567Z" fill="#603030"/>
</svg>
