<svg width="23" height="23" viewBox="0 0 23 23" fill="none" xmlns="http://www.w3.org/2000/svg">
<g id="Icon">
<path id="Fill 1" fill-rule="evenodd" clip-rule="evenodd" d="M18.8889 11.245C18.8889 15.4179 15.508 18.7988 11.3351 18.7988C7.16212 18.7988 3.78125 15.4179 3.78125 11.245C3.78125 7.07203 7.16212 3.69116 11.3351 3.69116C15.508 3.69116 18.8889 7.07203 18.8889 11.245Z" fill="white"/>
<path id="Fill 3" fill-rule="evenodd" clip-rule="evenodd" d="M1.94238 3.37914L3.46825 1.85327L5.62648 4.0115L4.10061 5.53737L1.94238 3.37914Z" fill="white"/>
<path id="Fill 5" fill-rule="evenodd" clip-rule="evenodd" d="M1.94238 19.1109L4.10061 16.9526L5.62648 18.4785L3.46825 20.6367L1.94238 19.1109Z" fill="white"/>
<path id="Fill 7" fill-rule="evenodd" clip-rule="evenodd" d="M17.0503 18.4868L18.5762 16.9609L20.7344 19.1192L19.2085 20.645L17.0503 18.4868Z" fill="white"/>
<path id="Fill 9" fill-rule="evenodd" clip-rule="evenodd" d="M17.0503 4.0032L19.2085 1.84497L20.7344 3.37084L18.5762 5.52907L17.0503 4.0032Z" fill="white"/>
<path id="Fill 11" fill-rule="evenodd" clip-rule="evenodd" d="M10.2559 2.61209H12.4141V0.453857H10.2559V2.61209Z" fill="white"/>
<path id="Fill 13" fill-rule="evenodd" clip-rule="evenodd" d="M0.543457 12.3242H2.70169V10.166H0.543457V12.3242Z" fill="white"/>
<path id="Fill 14" fill-rule="evenodd" clip-rule="evenodd" d="M10.2559 22.0362H12.4141V19.8779H10.2559V22.0362Z" fill="white"/>
<path id="Fill 15" fill-rule="evenodd" clip-rule="evenodd" d="M19.9678 12.3242H22.126V10.166H19.9678V12.3242Z" fill="white"/>
</g>
</svg>
