<svg width="18" height="18" viewBox="0 0 18 18" fill="none" xmlns="http://www.w3.org/2000/svg">
<path id="Vector" d="M2.80123 17.4845L2.55147 15.0246C2.55147 14.799 2.84531 14.9994 3.21627 14.9994C3.58479 14.9994 3.8823 14.799 3.8823 15.0246L3.67417 17.4233C3.67417 17.9477 2.80123 17.7341 2.80123 17.4845ZM1.7324 9.47722C-0.0955076 8.66726 0.052635 7.39291 0.052635 7.39291C-0.177537 7.84289 0.312191 11.7679 2.21846 11.7679C3.07058 11.7691 3.78681 10.382 1.7324 9.47722ZM1.7324 6.70413C-0.0955076 5.89656 0.052635 4.62222 0.052635 4.62222C-0.177537 5.071 0.312191 8.99724 2.21846 8.99724C3.07058 8.99724 3.78681 7.6113 1.7324 6.70413ZM1.7324 4.01384C-0.0955076 3.20987 0.052635 1.93192 0.052635 1.93192C-0.177537 2.38191 0.312191 6.30575 2.21846 6.30575C3.07058 6.30575 3.78681 4.9234 1.7324 4.01384ZM4.26674 11.7691C6.17178 11.7691 6.66028 7.84409 6.43256 7.39411C6.43256 7.39411 6.5807 8.66845 4.75035 9.47842C2.69839 10.382 3.41217 11.7691 4.26674 11.7691ZM1.7324 12.3187C-0.0955076 11.5087 0.052635 10.2344 0.052635 10.2344C-0.177537 10.6844 0.312191 14.6094 2.21846 14.6094C3.07058 14.6094 3.78681 13.2235 1.7324 12.3187ZM4.26674 14.6094C6.17178 14.6094 6.66028 10.6844 6.43256 10.2344C6.43256 10.2344 6.5807 11.5087 4.75035 12.3187C2.69839 13.2235 3.41217 14.6094 4.26674 14.6094ZM4.26674 8.99724C6.17178 8.99724 6.66028 5.071 6.43256 4.62222C6.43256 4.62222 6.5807 5.89656 4.75035 6.70413C2.69839 7.6113 3.41217 8.99724 4.26674 8.99724ZM4.26674 6.30575C6.17178 6.30575 6.66028 2.38191 6.43256 1.93192C6.43256 1.93192 6.5807 3.20867 4.75035 4.01264C2.69839 4.9234 3.41217 6.30575 4.26674 6.30575ZM3.37544 4.22383C5.39679 4.22383 3.26402 0 3.26402 0C3.00692 0.397184 1.35409 4.22383 3.37544 4.22383ZM8.83957 17.8145L10.059 15.723C10.1557 15.5214 9.80066 15.5766 9.46765 15.4266C9.12973 15.273 8.94854 14.9694 8.85304 15.1746L8.02173 17.5061C7.91399 17.7341 8.61307 18.2873 8.83957 17.8145ZM10.4936 9.80481C9.18605 8.31567 9.86677 7.22131 9.86677 7.22131C9.46397 7.5333 8.22374 11.2976 9.9488 12.0835C10.7226 12.4363 11.9689 11.4751 10.4936 9.80481ZM11.6861 7.28731C10.3785 5.80177 11.0593 4.70741 11.0593 4.70741C10.6565 5.0194 9.41378 8.78245 11.1401 9.57082C11.9151 9.9224 13.1602 8.96364 11.6861 7.28731ZM12.8431 4.85021C11.5306 3.36707 12.2162 2.26791 12.2162 2.26791C11.8122 2.5799 10.5708 6.34175 12.2983 7.13012C13.072 7.4805 14.3159 6.52414 12.8431 4.85021ZM11.8098 12.9319C13.5373 13.7155 15.6676 10.3604 15.6529 9.85641C15.6529 9.85641 15.2403 11.0744 13.2324 11.0516C10.9809 11.0276 11.0348 12.5767 11.8098 12.9319ZM9.27421 12.3799C7.96418 10.892 8.6449 9.79881 8.6449 9.79881C8.24333 10.1108 7.00187 13.8738 8.72816 14.6574C9.50438 15.0102 10.7471 14.0514 9.27421 12.3799ZM10.5879 15.5058C12.3142 16.293 14.4457 12.9343 14.4323 12.4315C14.4323 12.4315 14.0184 13.6495 12.0118 13.6267C9.76026 13.6039 9.81413 15.1542 10.5879 15.5058ZM13.001 10.4168C14.7285 11.2028 16.8589 7.84289 16.8442 7.34251C16.8442 7.34251 16.4316 8.55926 14.4249 8.53766C12.1722 8.51366 12.226 10.0664 13.001 10.4168ZM14.158 7.97488C15.8855 8.76325 18.0146 5.40578 17.9999 4.9018C17.9999 4.9018 17.5849 6.12336 15.5807 6.09696C13.3291 6.07416 13.3842 7.6245 14.158 7.97488ZM14.2425 5.71777C16.0753 6.55174 15.9565 1.84193 15.9565 1.84193C15.5537 2.09872 12.4109 4.88261 14.2425 5.71777Z" fill="#5C89C7"/>
</svg>
