<svg width="270" height="208" viewBox="0 0 270 208" fill="none" xmlns="http://www.w3.org/2000/svg">
<g clip-path="url(#clip0_618_506)">
<path d="M135 208C192.824 208 239.701 205.254 239.701 201.866C239.701 198.479 192.824 195.732 135 195.732C77.1754 195.732 30.2993 198.479 30.2993 201.866C30.2993 205.254 77.1754 208 135 208Z" fill="#F5F5F5"/>
<path d="M128.736 153.239H24.4672C23.6499 153.238 22.8664 152.911 22.2885 152.331C21.7105 151.751 21.3852 150.965 21.3838 150.145V3.06695C21.3923 2.25151 21.7208 1.47229 22.2979 0.898191C22.8751 0.324094 23.6545 0.00138083 24.4672 0L128.736 0C129.553 0.00143547 130.336 0.328048 130.913 0.908138C131.49 1.48823 131.814 2.27439 131.814 3.09404V150.145C131.814 150.965 131.49 151.751 130.913 152.331C130.336 152.911 129.553 153.238 128.736 153.239ZM24.4672 0.108373C23.6857 0.109805 22.9366 0.421972 22.3839 0.976503C21.8313 1.53103 21.5202 2.28273 21.5188 3.06695V150.145C21.5202 150.929 21.8313 151.681 22.3839 152.236C22.9366 152.79 23.6857 153.102 24.4672 153.104H128.736C129.517 153.102 130.265 152.79 130.817 152.235C131.369 151.681 131.679 150.929 131.679 150.145V3.06695C131.679 2.28323 131.369 1.53152 130.817 0.976834C130.265 0.422148 129.517 0.109808 128.736 0.108373H24.4672Z" fill="#E6E6E6"/>
<path d="M245.538 153.239H141.264C140.447 153.238 139.664 152.911 139.087 152.331C138.51 151.751 138.186 150.965 138.186 150.145V3.06695C138.193 2.252 138.52 1.47278 139.097 0.89853C139.673 0.324284 140.452 0.00139605 141.264 0L245.538 0C246.35 0.00139605 247.129 0.324284 247.705 0.89853C248.282 1.47278 248.609 2.252 248.616 3.06695V150.145C248.616 150.965 248.292 151.751 247.715 152.331C247.138 152.911 246.355 153.238 245.538 153.239ZM141.264 0.108373C140.483 0.109808 139.734 0.422148 139.183 0.976834C138.631 1.53152 138.321 2.28323 138.321 3.06695V150.145C138.321 150.929 138.631 151.681 139.183 152.235C139.734 152.79 140.483 153.102 141.264 153.104H245.538C246.32 153.102 247.07 152.79 247.623 152.236C248.177 151.682 248.489 150.93 248.492 150.145V3.06695C248.489 2.28223 248.177 1.53055 247.623 0.97617C247.07 0.421792 246.32 0.1098 245.538 0.108373H141.264Z" fill="#E6E6E6"/>
<path d="M46.4077 180.701H24.1543V180.836H46.4077V180.701Z" fill="#E0E0E0"/>
<path d="M91.7674 179.617H69.4492V179.753H91.7674V179.617Z" fill="#E0E0E0"/>
<path d="M120.809 179.617H115.409V179.753H120.809V179.617Z" fill="#E0E0E0"/>
<path d="M66.8358 184.245H41.8608V184.38H66.8358V184.245Z" fill="#E0E0E0"/>
<path d="M153.22 180.63H141.556V180.766H153.22V180.63Z" fill="#E0E0E0"/>
<path d="M173.108 180.63H158.025V180.766H173.108V180.63Z" fill="#E0E0E0"/>
<path d="M245.846 182.922H212.128V183.058H245.846V182.922Z" fill="#E0E0E0"/>
<path d="M270 175.385H0V175.521H270V175.385Z" fill="#EBEBEB"/>
<path opacity="0.8" d="M180.808 11.2437L179.464 29.8025C179.43 30.4328 179.174 31.0304 178.74 31.4877C178.49 31.7565 178.189 31.9715 177.854 32.1196C177.519 32.2677 177.157 32.3458 176.791 32.3493H161.919C161.593 32.3528 161.27 32.2879 160.971 32.1586C160.672 32.0293 160.403 31.8385 160.182 31.5986C159.96 31.3587 159.792 31.0749 159.686 30.7656C159.581 30.4562 159.541 30.1282 159.57 29.8025L160.92 11.2437C160.975 10.5602 161.283 9.92199 161.782 9.45394C162.281 8.9859 162.937 8.72174 163.62 8.71317H178.465C178.789 8.70809 179.111 8.77151 179.41 8.8993C179.708 9.0271 179.977 9.21643 180.198 9.45501C180.419 9.6936 180.587 9.97612 180.692 10.2842C180.798 10.5924 180.837 10.9193 180.808 11.2437Z" fill="#E0E0E0"/>
<path d="M174.262 20.4811C174.825 17.7804 173.514 15.2198 171.333 14.7619C169.153 14.304 166.928 16.1221 166.365 18.8228C165.802 21.5235 167.113 24.0841 169.293 24.542C171.474 24.9999 173.698 23.1818 174.262 20.4811Z" fill="white"/>
<path d="M176.245 31.0706H162.659C161.795 31.0706 161.201 30.6533 161.179 30.0735C161.147 29.2282 165.553 25.5706 169.733 25.8903H169.83C172.398 25.9816 174.861 26.9357 176.823 28.5997C178.843 30.1927 176.937 31.0706 176.245 31.0706Z" fill="white"/>
<path d="M104.22 31.6721C102.8 31.6665 101.433 31.1316 100.384 30.1713C99.3357 29.211 98.68 27.8938 98.5447 26.4756C98.4801 25.8003 98.5566 25.1189 98.7694 24.4749C98.9821 23.831 99.3264 23.2387 99.7802 22.7358C100.234 22.233 100.787 21.8307 101.405 21.5547C102.023 21.2787 102.691 21.135 103.367 21.1328C104.787 21.1384 106.154 21.6733 107.203 22.6336C108.251 23.5939 108.907 24.9111 109.042 26.3293C109.107 27.0046 109.03 27.686 108.818 28.3299C108.605 28.9739 108.261 29.5662 107.807 30.069C107.353 30.5719 106.8 30.9742 106.182 31.2502C105.564 31.5262 104.896 31.6699 104.22 31.6721ZM103.588 23.9397C103.272 23.9397 102.959 24.0061 102.669 24.1348C102.38 24.2635 102.121 24.4515 101.908 24.6868C101.696 24.9221 101.534 25.1994 101.435 25.501C101.336 25.8025 101.3 26.1216 101.331 26.4377C101.398 27.1018 101.706 27.7179 102.197 28.1679C102.689 28.6179 103.328 28.8701 103.993 28.8761C104.309 28.8753 104.622 28.8083 104.91 28.6793C105.199 28.5503 105.458 28.3621 105.67 28.1269C105.882 27.8917 106.043 27.6146 106.142 27.3135C106.241 27.0123 106.276 26.6937 106.245 26.3781C106.179 25.7167 105.873 25.1028 105.385 24.6532C104.897 24.2036 104.261 23.9496 103.599 23.9397H103.588Z" fill="#E0E0E0"/>
<path d="M104.49 23.5331L102.503 23.5602L101.444 10.7072L103.437 10.6855L104.49 23.5331Z" fill="#E0E0E0"/>
<path d="M105.322 11.2597L101.585 11.3085L101.423 9.30902L105.16 9.26025L105.322 11.2597Z" fill="#E0E0E0"/>
<path d="M105.538 13.8286L102.022 13.8719L101.86 11.8725L105.37 11.8291L105.538 13.8286Z" fill="#E0E0E0"/>
<path d="M105.84 17.4482L102.773 17.4861L102.605 15.492L105.673 15.4541L105.84 17.4482Z" fill="#E0E0E0"/>
<path d="M42.8276 140.885C42.8391 141.046 42.8589 141.207 42.887 141.367C43.0731 142.406 43.5904 143.357 44.3612 144.076C45.2367 144.91 46.3942 145.38 47.6012 145.393H93.2258C94.307 145.411 95.3513 144.999 96.1319 144.248C96.9125 143.498 97.3663 142.468 97.3946 141.383C97.4067 140.741 97.2922 140.102 97.0574 139.504C96.8227 138.906 96.4724 138.36 96.0268 137.898C95.5811 137.436 95.0489 137.068 94.4607 136.813C93.8725 136.558 93.2399 136.423 92.5994 136.414H46.9802C46.4068 136.407 45.8382 136.52 45.3109 136.746C44.7837 136.973 44.3093 137.307 43.9183 137.728C43.5273 138.149 43.2283 138.647 43.0405 139.191C42.8526 139.734 42.7801 140.311 42.8276 140.885Z" fill="#F0F0F0"/>
<path d="M97.4105 141.389C97.4071 141.534 97.3926 141.679 97.3673 141.822C97.2356 140.64 96.6777 139.546 95.7984 138.748C94.9192 137.949 93.7794 137.501 92.5937 137.487L44.0747 137.563C44.8586 136.809 45.9051 136.393 46.9907 136.404H92.6153C93.2597 136.399 93.8984 136.525 94.4927 136.775C95.0871 137.025 95.6246 137.393 96.0729 137.858C96.5212 138.322 96.8709 138.873 97.1008 139.478C97.3308 140.082 97.4361 140.726 97.4105 141.372V141.389Z" fill="#E0E0E0"/>
<path d="M89.6023 138.582L89.7535 140.776L91.8001 140.012L92.2645 141.096L90.1801 141.784L91.6381 143.621L90.7201 144.314L89.2999 142.407L88.1659 144.314L87.1561 143.621L88.3387 141.784L86.1787 141.096L86.4865 140.012L88.6465 140.749L88.4953 138.582H89.6023Z" fill="white"/>
<path d="M77.123 138.582L77.2796 140.776L79.3208 140.012L79.7852 141.096L77.6954 141.784L79.1588 143.621L78.2138 144.314L76.7936 142.407L75.6596 144.314L74.6498 143.621L75.8324 141.784L73.6724 141.096L73.9856 140.012L76.1456 140.749L75.9944 138.582H77.123Z" fill="white"/>
<path d="M64.6489 138.582L64.8001 140.776L66.8467 140.012L67.3111 141.096L65.2213 141.784L66.6793 143.621L65.7343 144.314L64.3141 142.407L63.1801 144.314L62.1703 143.621L63.3529 141.784L61.1929 141.096L61.5061 140.012L63.6661 140.749L63.5149 138.582H64.6489Z" fill="white"/>
<path d="M52.1694 138.582L52.3206 140.776L54.3672 140.012L54.8316 141.096L52.7418 141.784L54.1998 143.621L53.2602 144.314L51.84 142.407L50.7006 144.314L49.68 143.621L50.868 141.784L48.708 141.096L49.0212 140.012L51.1812 140.749L51.03 138.582H52.1694Z" fill="white"/>
<path d="M82.4797 134.837H80.3521L80.3574 134.295H82.485L82.4797 134.837Z" fill="#E0E0E0"/>
<path d="M91.6216 134.837H84.6826L84.6934 134.295H91.6324L91.6216 134.837Z" fill="#E0E0E0"/>
<g opacity="0.8">
<path d="M145.465 132.107L154.073 145.399L182.455 116.918C182.511 116.869 182.545 116.799 182.55 116.724C182.554 116.65 182.529 116.576 182.48 116.52C182.43 116.464 182.361 116.43 182.286 116.425C182.212 116.421 182.139 116.446 182.083 116.496L155.034 137.769L149.926 129.506L145.465 132.107Z" fill="#E0E0E0"/>
</g>
<path opacity="0.1" d="M140.324 37.5078L119.945 113.997H126.797L146.95 37.5078H140.324Z" fill="white"/>
<path opacity="0.1" d="M150.903 37.5078L130.523 113.997H144.121L164.273 37.5078H150.903Z" fill="white"/>
<path d="M224.267 106.52L228.587 45.1265C228.627 44.6548 228.568 44.1799 228.414 43.7325C228.26 43.2851 228.013 42.8753 227.691 42.5295C227.369 42.1837 226.978 41.9096 226.543 41.725C226.109 41.5405 225.641 41.4495 225.169 41.4581L118.389 41.5502C117.396 41.5639 116.443 41.9475 115.716 42.6263C114.989 43.3051 114.538 44.2309 114.453 45.224L110.133 106.623C110.093 107.095 110.153 107.57 110.308 108.017C110.463 108.464 110.71 108.874 111.033 109.22C111.355 109.566 111.747 109.84 112.181 110.024C112.616 110.209 113.085 110.3 113.556 110.291L220.32 110.199C221.316 110.189 222.273 109.806 223.003 109.126C223.733 108.445 224.184 107.516 224.267 106.52Z" fill="#263238"/>
<path d="M222.896 105.181L227.216 43.788C227.26 43.3125 227.204 42.833 227.05 42.3811C226.896 41.9292 226.648 41.5152 226.323 41.1664C225.998 40.8176 225.603 40.5421 225.164 40.3579C224.725 40.1737 224.252 40.0851 223.776 40.0979L116.996 40.19C115.999 40.2033 115.043 40.5903 114.315 41.2752C113.588 41.96 113.142 42.893 113.065 43.8909L108.745 105.29C108.705 105.761 108.764 106.236 108.918 106.684C109.073 107.131 109.319 107.541 109.641 107.887C109.963 108.232 110.354 108.506 110.789 108.691C111.223 108.876 111.692 108.967 112.163 108.958L218.938 108.866C219.937 108.858 220.897 108.476 221.629 107.794C222.362 107.113 222.813 106.18 222.896 105.181Z" fill="#146C94"/>
<path opacity="0.6" d="M220.066 106.092C219.847 106.294 219.559 106.405 219.261 106.4L112.482 106.498C112.31 106.496 112.141 106.459 111.984 106.39C111.828 106.321 111.686 106.22 111.569 106.095C111.452 105.969 111.362 105.821 111.303 105.659C111.245 105.498 111.22 105.326 111.229 105.154L115.549 43.7609C115.566 43.4628 115.697 43.1829 115.916 42.9806C116.134 42.776 116.422 42.6634 116.721 42.6663L223.5 42.5742C223.672 42.5762 223.841 42.6129 223.998 42.6822C224.155 42.7515 224.296 42.852 224.413 42.9776C224.53 43.1032 224.62 43.2512 224.679 43.4129C224.737 43.5745 224.763 43.7464 224.753 43.918L220.433 105.311C220.414 105.609 220.283 105.888 220.066 106.092Z" fill="white"/>
<path d="M184.551 72.3389H147.069C146.739 72.3444 146.422 72.4699 146.176 72.6921C145.931 72.9142 145.774 73.218 145.735 73.5472L145.158 79.0472C145.14 79.1996 145.155 79.354 145.201 79.5003C145.248 79.6465 145.324 79.7812 145.426 79.8954C145.528 80.0096 145.654 80.1008 145.793 80.1629C145.933 80.225 146.085 80.2565 146.238 80.2555H183.719C184.05 80.249 184.367 80.1234 184.613 79.9015C184.859 79.6796 185.017 79.3764 185.058 79.0472L185.631 73.5472C185.648 73.3948 185.633 73.2404 185.587 73.0942C185.541 72.9479 185.464 72.8133 185.362 72.699C185.26 72.5848 185.135 72.4936 184.995 72.4315C184.855 72.3695 184.703 72.3379 184.551 72.3389Z" fill="white"/>
<path d="M151.529 94.8262H145.681C145.35 94.8329 145.032 94.9593 144.786 95.1823C144.54 95.4052 144.382 95.7098 144.342 96.04L143.769 101.54C143.752 101.692 143.767 101.847 143.813 101.993C143.859 102.139 143.936 102.274 144.038 102.388C144.14 102.502 144.265 102.594 144.405 102.656C144.545 102.718 144.696 102.749 144.849 102.748H150.698C151.028 102.742 151.345 102.616 151.591 102.394C151.837 102.172 151.995 101.869 152.037 101.54L152.609 96.04C152.628 95.8871 152.613 95.7321 152.567 95.5852C152.521 95.4383 152.445 95.303 152.343 95.1881C152.24 95.0733 152.115 94.9816 151.975 94.9192C151.835 94.8568 151.683 94.8251 151.529 94.8262Z" fill="white"/>
<path d="M161.627 94.8262H155.779C155.448 94.8329 155.13 94.9593 154.884 95.1823C154.638 95.4052 154.48 95.7098 154.44 96.04L153.868 101.54C153.85 101.692 153.865 101.847 153.911 101.993C153.957 102.139 154.034 102.274 154.136 102.388C154.238 102.502 154.364 102.594 154.503 102.656C154.643 102.718 154.795 102.749 154.948 102.748H160.796C161.126 102.742 161.444 102.616 161.689 102.394C161.935 102.172 162.093 101.869 162.135 101.54L162.707 96.04C162.726 95.8871 162.711 95.7321 162.666 95.5852C162.62 95.4383 162.543 95.303 162.441 95.1881C162.339 95.0733 162.213 94.9816 162.073 94.9192C161.933 94.8568 161.781 94.8251 161.627 94.8262Z" fill="white"/>
<path d="M171.72 94.8262H165.877C165.546 94.8329 165.228 94.9593 164.982 95.1823C164.736 95.4052 164.578 95.7098 164.538 96.04L163.966 101.54C163.948 101.692 163.963 101.847 164.009 101.993C164.056 102.139 164.132 102.274 164.234 102.388C164.337 102.502 164.462 102.594 164.602 102.656C164.741 102.718 164.893 102.749 165.046 102.748H170.894C171.224 102.742 171.542 102.616 171.788 102.394C172.034 102.172 172.192 101.869 172.233 101.54L172.8 96.0129C172.814 95.8621 172.797 95.7101 172.749 95.5665C172.701 95.4229 172.624 95.2909 172.522 95.1791C172.421 95.0673 172.297 94.9781 172.159 94.9173C172.02 94.8565 171.871 94.8255 171.72 94.8262Z" fill="white"/>
<path d="M181.823 94.8262H175.975C175.643 94.8329 175.326 94.9593 175.08 95.1823C174.834 95.4052 174.676 95.7098 174.636 96.04L174.063 101.54C174.046 101.692 174.061 101.847 174.107 101.993C174.153 102.139 174.23 102.274 174.332 102.388C174.434 102.502 174.559 102.594 174.699 102.656C174.839 102.718 174.99 102.749 175.143 102.748H180.992C181.322 102.742 181.639 102.616 181.885 102.394C182.131 102.172 182.289 101.869 182.331 101.54L182.903 96.04C182.922 95.8871 182.907 95.7321 182.861 95.5852C182.815 95.4383 182.739 95.303 182.637 95.1881C182.534 95.0733 182.409 94.9816 182.269 94.9192C182.128 94.8568 181.977 94.8251 181.823 94.8262Z" fill="white"/>
<path d="M151.772 91.0332H175.214C175.777 91.0231 176.318 90.8092 176.736 90.4309C177.155 90.0525 177.423 89.5352 177.492 88.9741L177.779 86.2648C177.812 86.0034 177.789 85.7378 177.711 85.4863C177.632 85.2348 177.501 85.0032 177.325 84.8076C177.149 84.612 176.933 84.4569 176.691 84.353C176.45 84.2491 176.189 84.1988 175.926 84.2057H152.485C151.922 84.2158 151.381 84.4297 150.962 84.808C150.544 85.1864 150.275 85.7037 150.206 86.2648L149.92 88.9741C149.887 89.2353 149.911 89.5005 149.99 89.7516C150.069 90.0028 150.2 90.2339 150.376 90.4293C150.552 90.6248 150.768 90.7799 151.008 90.8841C151.249 90.9883 151.51 91.0391 151.772 91.0332Z" stroke="#146C94" stroke-linecap="round" stroke-linejoin="round"/>
<path d="M185.9 60.8838H148.419C148.088 60.8918 147.772 61.0188 147.527 61.2416C147.282 61.4645 147.125 61.7683 147.085 62.0976L146.507 67.5975C146.49 67.7499 146.504 67.9043 146.551 68.0506C146.597 68.1968 146.674 68.3315 146.776 68.4457C146.878 68.5599 147.003 68.6511 147.143 68.7132C147.283 68.7753 147.434 68.8069 147.587 68.8058H185.063C185.394 68.7994 185.711 68.6737 185.957 68.4518C186.203 68.2299 186.361 67.9267 186.402 67.5975L186.975 62.0976C186.993 61.9452 186.979 61.7906 186.933 61.6441C186.888 61.4976 186.812 61.3625 186.71 61.2478C186.608 61.133 186.484 61.0412 186.344 60.9785C186.204 60.9157 186.053 60.8834 185.9 60.8838Z" fill="white"/>
<path d="M151.626 76.2997C151.649 76.1298 151.635 75.957 151.585 75.7932C151.534 75.6294 151.449 75.4785 151.335 75.3508C151.221 75.2231 151.081 75.1216 150.925 75.0535C150.768 74.9853 150.598 74.952 150.428 74.9559C150.061 74.9646 149.709 75.1049 149.437 75.3515C149.164 75.5981 148.989 75.9345 148.943 76.2997C148.922 76.4694 148.937 76.6417 148.989 76.8049C149.04 76.968 149.126 77.1182 149.24 77.2451C149.354 77.3721 149.494 77.4729 149.651 77.5407C149.807 77.6085 149.976 77.6417 150.147 77.6381C150.512 77.6305 150.863 77.4911 151.135 77.2453C151.407 76.9996 151.581 76.6639 151.626 76.2997Z" fill="#263238"/>
<path d="M155.752 76.2997C155.774 76.1295 155.759 75.9566 155.708 75.7928C155.657 75.629 155.572 75.4782 155.457 75.3506C155.343 75.223 155.202 75.1217 155.046 75.0536C154.889 74.9854 154.719 74.9521 154.548 74.9558C154.181 74.9636 153.83 75.1038 153.558 75.3507C153.286 75.5975 153.112 75.9345 153.068 76.2997C153.047 76.4691 153.061 76.6413 153.112 76.8045C153.163 76.9676 153.248 77.1179 153.362 77.2449C153.475 77.372 153.615 77.4729 153.772 77.5408C153.928 77.6086 154.097 77.6418 154.267 77.6381C154.633 77.6307 154.985 77.4914 155.257 77.2458C155.53 77.0001 155.706 76.6643 155.752 76.2997Z" fill="#263238"/>
<path d="M159.873 76.2997C159.894 76.1295 159.879 75.9566 159.828 75.7928C159.777 75.629 159.692 75.4782 159.578 75.3506C159.463 75.223 159.323 75.1217 159.166 75.0536C159.009 74.9854 158.839 74.9521 158.668 74.9558C158.302 74.9636 157.95 75.1038 157.679 75.3507C157.407 75.5975 157.233 75.9345 157.189 76.2997C157.168 76.4694 157.183 76.6417 157.235 76.8049C157.286 76.968 157.372 77.1181 157.486 77.2451C157.6 77.3721 157.74 77.4729 157.897 77.5407C158.053 77.6085 158.222 77.6417 158.393 77.6381C158.759 77.6305 159.109 77.4911 159.381 77.2453C159.653 76.9996 159.827 76.6639 159.873 76.2997Z" fill="#263238"/>
<path d="M163.993 76.2997C164.015 76.1298 164.001 75.957 163.951 75.7932C163.901 75.6294 163.816 75.4785 163.702 75.3508C163.588 75.2231 163.448 75.1216 163.291 75.0535C163.134 74.9853 162.965 74.952 162.794 74.9559C162.427 74.9636 162.076 75.1038 161.804 75.3507C161.532 75.5975 161.358 75.9345 161.314 76.2997C161.291 76.4693 161.306 76.6419 161.356 76.8054C161.406 76.969 161.491 77.1196 161.605 77.2469C161.719 77.3742 161.86 77.4751 162.016 77.5427C162.173 77.6102 162.343 77.6428 162.513 77.6381C162.879 77.6305 163.229 77.4911 163.501 77.2453C163.773 76.9996 163.947 76.6639 163.993 76.2997Z" fill="#263238"/>
<path d="M168.199 76.2997C168.221 76.1295 168.206 75.9566 168.155 75.7928C168.104 75.629 168.018 75.4782 167.904 75.3506C167.79 75.223 167.649 75.1217 167.492 75.0536C167.335 74.9854 167.166 74.9521 166.995 74.9558C166.628 74.9636 166.277 75.1038 166.005 75.3507C165.733 75.5975 165.559 75.9345 165.515 76.2997C165.493 76.4691 165.508 76.6413 165.559 76.8045C165.609 76.9676 165.695 77.1179 165.808 77.2449C165.922 77.372 166.062 77.4729 166.218 77.5408C166.375 77.6086 166.544 77.6418 166.714 77.6381C167.08 77.6307 167.432 77.4914 167.704 77.2458C167.977 77.0001 168.152 76.6643 168.199 76.2997Z" fill="#263238"/>
<path d="M152.977 64.8447C152.999 64.6751 152.985 64.5025 152.935 64.339C152.884 64.1754 152.799 64.0248 152.685 63.8975C152.571 63.7702 152.431 63.6693 152.274 63.6017C152.118 63.5342 151.948 63.5016 151.778 63.5063C151.412 63.5139 151.061 63.6533 150.79 63.8991C150.518 64.1448 150.343 64.4805 150.298 64.8447C150.275 65.0143 150.29 65.1869 150.34 65.3504C150.39 65.514 150.475 65.6646 150.589 65.7919C150.703 65.9192 150.844 66.0201 151 66.0877C151.157 66.1552 151.326 66.1878 151.497 66.1831C151.863 66.1767 152.214 66.0376 152.486 65.7917C152.758 65.5457 152.932 65.2094 152.977 64.8447Z" fill="#263238"/>
<path d="M157.102 64.845C157.123 64.6753 157.108 64.503 157.056 64.3398C157.005 64.1767 156.919 64.0266 156.805 63.8996C156.691 63.7726 156.551 63.6718 156.394 63.604C156.238 63.5362 156.068 63.503 155.898 63.5066C155.532 63.5142 155.182 63.6536 154.91 63.8994C154.638 64.1451 154.464 64.4808 154.418 64.845C154.397 65.0145 154.412 65.1867 154.462 65.3498C154.513 65.513 154.598 65.6632 154.712 65.7903C154.826 65.9174 154.965 66.0183 155.122 66.0861C155.278 66.154 155.447 66.1872 155.617 66.1834C155.984 66.1771 156.336 66.0383 156.609 65.7924C156.882 65.5465 157.057 65.2101 157.102 64.845Z" fill="#263238"/>
<path d="M161.222 64.845C161.244 64.6756 161.229 64.5034 161.179 64.3402C161.128 64.1771 161.043 64.0269 160.929 63.8998C160.815 63.7727 160.675 63.6718 160.519 63.6039C160.363 63.5361 160.194 63.5029 160.024 63.5066C159.657 63.514 159.306 63.6533 159.033 63.8989C158.761 64.1446 158.585 64.4804 158.539 64.845C158.517 65.015 158.532 65.1876 158.583 65.3512C158.634 65.5147 158.719 65.6652 158.834 65.7924C158.948 65.9196 159.089 66.0204 159.246 66.0879C159.402 66.1554 159.572 66.188 159.743 66.1834C160.109 66.177 160.46 66.038 160.732 65.792C161.004 65.546 161.178 65.2097 161.222 64.845Z" fill="#263238"/>
<path d="M165.343 64.8449C165.365 64.6766 165.351 64.5055 165.302 64.3431C165.253 64.1807 165.169 64.031 165.057 63.9039C164.945 63.7769 164.806 63.6757 164.652 63.6071C164.497 63.5385 164.329 63.5042 164.16 63.5065C163.794 63.514 163.444 63.6535 163.172 63.8992C162.9 64.145 162.726 64.4806 162.68 64.8449C162.658 65.0145 162.672 65.187 162.722 65.3506C162.772 65.5141 162.858 65.6648 162.972 65.7921C163.086 65.9194 163.226 66.0203 163.383 66.0878C163.539 66.1554 163.709 66.1879 163.879 66.1833C164.242 66.173 164.59 66.0322 164.858 65.7866C165.127 65.541 165.299 65.2068 165.343 64.8449Z" fill="#263238"/>
<path d="M169.468 64.845C169.489 64.6753 169.473 64.503 169.422 64.3398C169.371 64.1767 169.285 64.0266 169.171 63.8996C169.057 63.7726 168.916 63.6718 168.76 63.604C168.603 63.5362 168.434 63.503 168.264 63.5066C167.898 63.5142 167.547 63.6536 167.276 63.8994C167.004 64.1451 166.829 64.4808 166.784 64.845C166.762 65.0149 166.777 65.1876 166.828 65.3511C166.879 65.5147 166.965 65.6652 167.079 65.7924C167.194 65.9196 167.334 66.0204 167.491 66.0879C167.648 66.1554 167.818 66.188 167.988 66.1834C168.354 66.177 168.706 66.0379 168.978 65.792C169.25 65.546 169.424 65.2097 169.468 64.845Z" fill="#263238"/>
<path d="M173.588 64.845C173.61 64.6756 173.595 64.5034 173.544 64.3402C173.494 64.1771 173.409 64.0269 173.295 63.8998C173.181 63.7727 173.041 63.6718 172.885 63.6039C172.729 63.5361 172.56 63.5029 172.389 63.5066C172.023 63.514 171.672 63.6533 171.399 63.8989C171.126 64.1446 170.951 64.4804 170.904 64.845C170.882 65.015 170.897 65.1876 170.948 65.3512C170.999 65.5147 171.085 65.6652 171.199 65.7924C171.314 65.9196 171.454 66.0204 171.611 66.0879C171.768 66.1554 171.938 66.188 172.108 66.1834C172.475 66.177 172.826 66.038 173.098 65.792C173.37 65.546 173.544 65.2097 173.588 64.845Z" fill="#263238"/>
<path d="M170.1 48.7678L169.809 51.5476C169.788 51.6685 169.727 51.7789 169.636 51.8606C169.545 51.9423 169.428 51.9905 169.306 51.9973C169.249 51.9994 169.192 51.9889 169.138 51.9664C169.085 51.944 169.038 51.9101 168.999 51.8672C168.961 51.8244 168.932 51.7735 168.915 51.7183C168.898 51.6631 168.893 51.6048 168.901 51.5476L169.182 48.7678C169.208 48.562 169.189 48.353 169.127 48.1552C169.065 47.9573 168.961 47.7751 168.823 47.6209C168.685 47.4667 168.515 47.3442 168.326 47.2616C168.136 47.179 167.931 47.1383 167.724 47.1422H166.725C166.281 47.1528 165.856 47.3226 165.526 47.6208C165.196 47.919 164.984 48.3259 164.927 48.7678L164.7 51.3362H163.793L164.047 48.757C164.132 48.0674 164.463 47.432 164.978 46.9672C165.492 46.5024 166.157 46.2394 166.849 46.2265H167.843C168.165 46.2205 168.485 46.2844 168.78 46.4139C169.075 46.5434 169.339 46.7354 169.553 46.9768C169.768 47.2182 169.928 47.5032 170.022 47.8123C170.116 48.1214 170.143 48.4474 170.1 48.7678Z" fill="#146C94"/>
<path d="M170.1 51.4338L169.533 56.8525C169.511 57.0207 169.43 57.1754 169.304 57.2888C169.178 57.4021 169.016 57.4664 168.847 57.4702H163.447C163.369 57.471 163.292 57.4549 163.221 57.423C163.15 57.3912 163.087 57.3443 163.036 57.2857C162.985 57.227 162.947 57.1579 162.924 57.0832C162.902 57.0084 162.896 56.9297 162.907 56.8525L163.474 51.4338C163.485 51.3224 163.522 51.2152 163.582 51.121C163.642 51.0268 163.723 50.9482 163.82 50.892C163.923 50.8313 164.04 50.7995 164.16 50.7998H169.56C169.67 50.7987 169.779 50.8287 169.873 50.8865C169.96 50.9458 170.027 51.0291 170.068 51.1263C170.108 51.2235 170.119 51.3303 170.1 51.4338Z" fill="#146C94"/>
<path d="M212.388 39.7622L199.19 39.8381" stroke="#263238" stroke-linecap="round" stroke-linejoin="round"/>
<path d="M219.58 39.7241L214.915 39.7458" stroke="#263238" stroke-linecap="round" stroke-linejoin="round"/>
<g opacity="0.3">
<path d="M126.954 42.6499H142.074L126.7 106.498H114.512C114.161 106.491 113.815 106.404 113.502 106.244C113.188 106.084 112.915 105.855 112.702 105.575C112.489 105.294 112.342 104.968 112.272 104.622C112.202 104.276 112.211 103.919 112.298 103.577L126.954 42.6499Z" fill="white"/>
<path d="M148.77 42.6499H155.18L139.822 106.498H133.413L148.77 42.6499Z" fill="white"/>
</g>
<path d="M46.7907 22.7205H49.8579C49.1389 22.7102 48.4256 22.8513 47.7643 23.1349C47.1031 23.4184 46.5084 23.838 46.0188 24.3666C45.5292 24.8951 45.1556 25.5209 44.9221 26.2034C44.6886 26.8859 44.6003 27.61 44.6631 28.3288L51.1701 121.687C51.2922 123.199 51.9717 124.612 53.076 125.649C54.1804 126.686 55.6302 127.273 57.1425 127.295H54.0807C52.5678 127.273 51.1173 126.686 50.0121 125.65C48.9069 124.613 48.2263 123.2 48.1029 121.687L41.5797 28.3288C41.5168 27.6086 41.6054 26.8831 41.8399 26.1995C42.0744 25.5158 42.4495 24.8893 42.9408 24.3605C43.4322 23.8316 44.0288 23.4124 44.6921 23.1299C45.3553 22.8473 46.0703 22.7079 46.7907 22.7205Z" fill="#146C94"/>
<path d="M46.791 22.7203H49.8582C49.1391 22.7099 48.4259 22.8511 47.7646 23.1346C47.1034 23.4182 46.5087 23.8378 46.0191 24.3663C45.5295 24.8949 45.1559 25.5206 44.9224 26.2031C44.6889 26.8856 44.6006 27.6097 44.6634 28.3285L51.1704 121.686C51.2925 123.199 51.972 124.612 53.0763 125.649C54.1807 126.686 55.6305 127.273 57.1428 127.295H54.081C50.9976 127.295 47.8872 124.786 47.6712 121.686L41.1912 28.3285C40.9482 25.2291 43.7076 22.7203 46.791 22.7203Z" fill="#263238"/>
<path d="M54.9936 127.295H92.5237C93.2445 127.308 93.9601 127.169 94.624 126.887C95.2879 126.605 95.8852 126.186 96.3771 125.657C96.8691 125.128 97.2446 124.501 97.4794 123.817C97.7142 123.133 97.803 122.407 97.7401 121.686L91.2115 28.3286C91.0893 26.8149 90.409 25.4014 89.3035 24.3642C88.1981 23.3271 86.7469 22.7409 85.2337 22.7203H47.709C46.99 22.7099 46.2768 22.8511 45.6155 23.1346C44.9542 23.4182 44.3596 23.8378 43.87 24.3663C43.3804 24.8949 43.0068 25.5206 42.7732 26.2031C42.5397 26.8856 42.4515 27.6097 42.5143 28.3286L48.9943 121.686C49.118 123.203 49.8017 124.619 50.9115 125.656C52.0212 126.694 53.477 127.278 54.9936 127.295Z" fill="#146C94"/>
<g opacity="0.6">
<path d="M85.1361 24.5193C86.1875 24.5359 87.1951 24.9446 87.9627 25.6658C88.7303 26.387 89.203 27.369 89.2887 28.4207L95.7957 121.784C95.8401 122.262 95.7831 122.744 95.6284 123.198C95.4738 123.652 95.225 124.068 94.8985 124.419C94.572 124.769 94.1751 125.047 93.7341 125.232C93.2931 125.418 92.8178 125.508 92.3397 125.496H54.8313C53.7793 125.479 52.7711 125.071 52.0026 124.349C51.2341 123.628 50.7603 122.646 50.6733 121.594L44.1933 28.231C44.1491 27.7546 44.2057 27.2741 44.3594 26.8211C44.513 26.3681 44.7604 25.9528 45.0851 25.6024C45.4098 25.252 45.8047 24.9744 46.2438 24.7877C46.6829 24.601 47.1563 24.5096 47.6331 24.5193H85.1361Z" fill="white"/>
</g>
<g opacity="0.3">
<path d="M74.5195 125.496H59.5669L71.9113 24.5195H83.9587C84.4783 24.5185 84.9926 24.6242 85.47 24.8302C85.9473 25.0361 86.3776 25.3379 86.7343 25.7171L74.5195 125.496Z" fill="white"/>
<path d="M56.8833 125.496H53.5137L65.8581 24.5195H69.2277L56.8833 125.496Z" fill="white"/>
</g>
<path d="M55.7168 68.6377H82.9004" stroke="white" stroke-linecap="round" stroke-linejoin="round"/>
<path d="M59.2217 72.6748H80.5139" stroke="white" stroke-linecap="round" stroke-linejoin="round"/>
<path d="M56.527 50.041L56.5648 51.1247H55.8682L55.8304 50.041L54.5938 48.0957H55.3336L56.1868 49.4395L56.9427 48.0957H57.6286L56.527 50.041Z" fill="#146C94"/>
<path d="M57.6557 49.5966C57.6465 49.3836 57.6826 49.1711 57.7617 48.9732C57.8408 48.7753 57.9609 48.5966 58.1142 48.4489C58.2675 48.3013 58.4503 48.1881 58.6506 48.1169C58.8509 48.0457 59.064 48.0182 59.2757 48.0361C59.4898 48.0251 59.7039 48.057 59.9057 48.1297C60.1075 48.2025 60.2928 48.3147 60.451 48.4598C60.6093 48.605 60.7372 48.7802 60.8274 48.9754C60.9177 49.1705 60.9684 49.3817 60.9767 49.5966C60.9867 49.8101 60.9511 50.0232 60.8724 50.2218C60.7937 50.4203 60.6737 50.5997 60.5203 50.748C60.3669 50.8962 60.1838 51.0099 59.9831 51.0814C59.7825 51.1529 59.5689 51.1806 59.3567 51.1626C59.1422 51.1735 58.9276 51.1415 58.7255 51.0684C58.5234 50.9954 58.3378 50.8827 58.1795 50.737C58.0212 50.5912 57.8934 50.4154 57.8034 50.2196C57.7135 50.0238 57.6633 49.8121 57.6557 49.5966ZM60.2477 49.5966C60.2485 49.4684 60.2236 49.3413 60.1745 49.2228C60.1255 49.1044 60.0532 48.9971 59.9621 48.9071C59.871 48.8172 59.7628 48.7465 59.644 48.6993C59.5251 48.6521 59.3981 48.6292 59.2703 48.6321C59.1451 48.6268 59.0202 48.6486 58.9041 48.696C58.788 48.7433 58.6834 48.8152 58.5974 48.9066C58.5113 48.9981 58.4459 49.107 58.4055 49.2261C58.3651 49.3451 58.3506 49.4715 58.3631 49.5966C58.3624 49.7251 58.3872 49.8525 58.4362 49.9712C58.4852 50.0899 58.5573 50.1976 58.6484 50.288C58.7394 50.3783 58.8476 50.4495 58.9664 50.4974C59.0853 50.5452 59.2125 50.5687 59.3405 50.5666C59.4657 50.5702 59.5903 50.5471 59.706 50.4988C59.8217 50.4505 59.9258 50.3781 60.0116 50.2864C60.0973 50.1948 60.1627 50.0859 60.2034 49.967C60.2441 49.848 60.2592 49.7218 60.2477 49.5966Z" fill="#146C94"/>
<path d="M61.4573 49.781L61.4033 48.085H62.0999L62.1539 49.7539C62.1539 50.3283 62.4347 50.5667 62.8559 50.5667C63.2771 50.5667 63.5147 50.3283 63.4985 49.7539L63.4391 48.085H64.1249L64.1843 49.781C64.2127 49.9633 64.1989 50.1497 64.144 50.3258C64.0891 50.5019 63.9946 50.663 63.8677 50.7965C63.7409 50.9301 63.5851 51.0326 63.4125 51.0961C63.2398 51.1596 63.0549 51.1824 62.8721 51.1627C62.6854 51.1795 62.4972 51.1556 62.3206 51.0926C62.1439 51.0296 61.9829 50.9291 61.8485 50.7979C61.7142 50.6667 61.6097 50.5079 61.5421 50.3324C61.4746 50.1568 61.4457 49.9688 61.4573 49.781Z" fill="#146C94"/>
<path d="M66.8409 51.114L66.2307 50.2687H65.5881L65.6205 51.114H64.9239L64.8159 48.085H66.1227C66.9273 48.085 67.4457 48.5076 67.4673 49.1687C67.4848 49.3701 67.4369 49.5718 67.3309 49.7436C67.2248 49.9155 67.0662 50.0483 66.8787 50.1224L67.5915 51.0977L66.8409 51.114ZM66.1011 48.6593H65.5611L65.5989 49.7106H66.1389C66.5655 49.7106 66.7707 49.5155 66.7599 49.1687C66.7491 48.8219 66.5277 48.6593 66.1011 48.6593Z" fill="#146C94"/>
<path d="M69.0656 49.5966C69.0544 49.3869 69.0877 49.1772 69.1633 48.9813C69.2389 48.7854 69.3551 48.6079 69.5041 48.4604C69.6531 48.3129 69.8316 48.1988 70.0279 48.1256C70.2241 48.0525 70.4335 48.022 70.6424 48.0361C70.8788 48.0287 71.114 48.0734 71.3313 48.1671C71.5487 48.2607 71.743 48.4009 71.9006 48.5779L71.4686 48.9897C71.373 48.8784 71.2545 48.7892 71.1211 48.7283C70.9878 48.6675 70.8428 48.6365 70.6964 48.6375C70.5699 48.6309 70.4434 48.6515 70.3255 48.6981C70.2076 48.7446 70.101 48.816 70.013 48.9074C69.9249 48.9989 69.8575 49.1082 69.8151 49.228C69.7728 49.3478 69.7566 49.4754 69.7676 49.6021C69.7668 49.7324 69.7923 49.8616 69.8426 49.9818C69.8929 50.102 69.967 50.2107 70.0604 50.3014C70.1538 50.392 70.2645 50.4628 70.3859 50.5093C70.5072 50.5558 70.6368 50.5771 70.7666 50.572C70.91 50.5749 71.0521 50.5441 71.1815 50.482C71.311 50.4199 71.4241 50.3282 71.5118 50.2144L71.9708 50.6262C71.8239 50.8061 71.6369 50.9489 71.4249 51.043C71.2129 51.1371 70.9819 51.18 70.7504 51.168C70.5367 51.1767 70.3235 51.1429 70.1229 51.0685C69.9223 50.9941 69.7384 50.8805 69.5818 50.7345C69.4252 50.5884 69.2989 50.4126 69.2103 50.2173C69.1217 50.022 69.0725 49.8111 69.0656 49.5966Z" fill="#146C94"/>
<path d="M72.1546 49.597C72.1458 49.3865 72.1813 49.1764 72.2588 48.9806C72.3362 48.7847 72.4539 48.6074 72.6042 48.4602C72.7545 48.3129 72.934 48.1991 73.131 48.1261C73.328 48.0531 73.5381 48.0226 73.7476 48.0365C73.9617 48.0255 74.1759 48.0574 74.3776 48.1301C74.5794 48.2029 74.7648 48.3151 74.923 48.4602C75.0812 48.6054 75.2091 48.7806 75.2994 48.9758C75.3896 49.1709 75.4403 49.3821 75.4486 49.597C75.4582 49.808 75.4233 50.0187 75.3462 50.2152C75.2691 50.4117 75.1515 50.5897 75.0012 50.7375C74.8508 50.8853 74.671 50.9996 74.4737 51.0729C74.2763 51.1463 74.0657 51.177 73.8556 51.163C73.6411 51.1739 73.4265 51.1419 73.2244 51.0688C73.0223 50.9958 72.8367 50.8831 72.6784 50.7373C72.5201 50.5916 72.3923 50.4158 72.3024 50.22C72.2125 50.0242 72.1622 49.8125 72.1546 49.597ZM74.7412 49.597C74.7427 49.469 74.7185 49.3421 74.67 49.2237C74.6216 49.1052 74.5499 48.9978 74.4592 48.9078C74.3685 48.8178 74.2606 48.7471 74.1421 48.6998C74.0236 48.6525 73.8968 48.6296 73.7692 48.6325C73.644 48.6272 73.5191 48.649 73.403 48.6964C73.2869 48.7437 73.1823 48.8156 73.0963 48.907C73.0103 48.9985 72.9448 49.1074 72.9044 49.2265C72.864 49.3455 72.8495 49.4719 72.862 49.597C72.8606 49.7253 72.8848 49.8525 72.9332 49.9712C72.9816 50.0899 73.0532 50.1976 73.1438 50.2881C73.2344 50.3785 73.3422 50.4498 73.4608 50.4977C73.5793 50.5456 73.7062 50.5691 73.834 50.567C73.9595 50.5714 74.0845 50.5489 74.2006 50.5009C74.3167 50.453 74.4212 50.3806 74.5071 50.2887C74.5931 50.1969 74.6584 50.0876 74.6988 49.9683C74.7392 49.849 74.7536 49.7224 74.7412 49.597Z" fill="#146C94"/>
<path d="M75.9238 48.0851H77.29C77.5028 48.0642 77.7176 48.0874 77.9211 48.1533C78.1246 48.2192 78.3125 48.3263 78.473 48.4681C78.6335 48.6098 78.7633 48.7832 78.8542 48.9774C78.9452 49.1715 78.9954 49.3824 79.0018 49.5969C79.0138 49.8087 78.9792 50.0206 78.9004 50.2175C78.8216 50.4145 78.7007 50.5916 78.5461 50.7364C78.3915 50.8812 78.2071 50.99 78.0059 51.0553C77.8047 51.1206 77.5916 51.1407 77.3818 51.1141H76.0102L75.9238 48.0851ZM77.344 50.5343C77.4711 50.5484 77.5997 50.5341 77.7206 50.4923C77.8415 50.4505 77.9516 50.3823 78.043 50.2926C78.1345 50.2029 78.2049 50.094 78.2493 49.9737C78.2937 49.8534 78.311 49.7247 78.2998 49.5969C78.2996 49.4664 78.2723 49.3373 78.2198 49.218C78.1672 49.0986 78.0906 48.9914 77.9946 48.9033C77.8987 48.8152 77.7856 48.748 77.6624 48.706C77.5393 48.6641 77.4088 48.6482 77.2792 48.6595H76.642L76.7068 50.5343H77.344Z" fill="#146C94"/>
<path d="M81.8964 50.5506V51.0925H79.5636L79.4556 48.0635H81.7344V48.6053H80.19V49.261H81.5886V49.8029H80.19V50.5019L81.8964 50.5506Z" fill="#146C94"/>
<path d="M61.7649 62.3579V63.5716H56.1003V62.6125L59.1135 59.6919C59.8479 58.9712 59.9721 58.5215 59.9667 58.0663C59.9667 57.3619 59.4591 56.9501 58.5141 56.9501C58.1729 56.9328 57.8325 56.997 57.5209 57.1373C57.2092 57.2777 56.9352 57.4902 56.7213 57.7574L55.7061 56.9826C56.0551 56.5542 56.5004 56.2149 57.0054 55.9926C57.5104 55.7703 58.0607 55.6713 58.6113 55.7038C60.2853 55.7038 61.3815 56.5545 61.4031 57.9254C61.4031 58.6732 61.2195 59.3614 60.1719 60.3638L58.1469 62.3362L61.7649 62.3579Z" fill="#263238"/>
<path d="M68.04 61.2307C68.04 62.5311 67.1004 63.6582 65.0322 63.6582C63.9905 63.6769 62.9696 63.3639 62.1162 62.7641L62.7156 61.6479C63.3663 62.1518 64.1672 62.4209 64.989 62.4119C66.0096 62.4119 66.609 61.9568 66.609 61.2415C66.609 60.5262 66.069 60.0873 64.9134 60.0873H64.2114V59.1065L65.9286 57.015H62.424V55.812H67.6836V56.7765L65.8476 59.009C67.2732 59.2149 68.04 60.0873 68.04 61.2307Z" fill="#263238"/>
<path d="M75.2433 61.3498C75.2433 62.7857 74.0391 63.6798 72.1221 63.6798C70.2051 63.6798 68.9631 62.7857 68.9415 61.3498C68.9253 60.955 69.0321 60.565 69.2469 60.2338C69.4617 59.9027 69.774 59.6469 70.1403 59.502C69.8414 59.35 69.5905 59.1173 69.416 58.8302C69.2414 58.543 69.1501 58.2128 69.1521 57.8764C69.1521 56.5543 70.2754 55.709 71.9818 55.709C73.6882 55.709 74.8816 56.538 74.9032 57.8764C74.9192 58.2107 74.8378 58.5425 74.6691 58.8312C74.5003 59.1199 74.2514 59.353 73.9527 59.502C74.3282 59.6438 74.6523 59.8961 74.8826 60.2258C75.1129 60.5555 75.2386 60.9472 75.2433 61.3498ZM73.7962 61.3064C73.7962 60.5424 73.1158 60.0656 72.0574 60.0656C70.999 60.0656 70.3671 60.5424 70.3833 61.3064C70.3995 62.0705 71.0422 62.5527 72.1006 62.5527C73.159 62.5527 73.8124 62.0921 73.7962 61.3064ZM70.5562 57.9469C70.5562 58.608 71.0961 59.0306 72.0303 59.0306C72.9645 59.0306 73.4992 58.608 73.483 57.9469C73.4668 57.2858 72.8727 56.8632 71.9871 56.8632C71.1015 56.8632 70.5561 57.2479 70.5669 57.9469H70.5562Z" fill="#263238"/>
<path d="M82.4253 61.3498C82.4253 62.7857 81.2211 63.6798 79.3041 63.6798C77.3871 63.6798 76.1451 62.7857 76.1235 61.3498C76.1081 60.9552 76.2152 60.5655 76.4299 60.2345C76.6446 59.9035 76.9565 59.6476 77.3223 59.502C77.0231 59.3507 76.7724 59.1181 76.5986 58.8307C76.4248 58.5432 76.3351 58.2126 76.3395 57.8764C76.3125 56.5543 77.4573 55.709 79.1637 55.709C80.8701 55.709 82.0635 56.538 82.0851 57.8764C82.1012 58.2107 82.0198 58.5425 81.851 58.8312C81.6823 59.1199 81.4334 59.353 81.1347 59.502C81.5102 59.6438 81.8343 59.8961 82.0646 60.2258C82.2949 60.5555 82.4206 60.9472 82.4253 61.3498ZM80.9781 61.3064C80.9781 60.5424 80.2977 60.0656 79.2393 60.0656C78.1809 60.0656 77.5491 60.5424 77.5653 61.3064C77.5815 62.0705 78.2241 62.5527 79.2825 62.5527C80.3409 62.5527 80.9997 62.0921 80.9997 61.3064H80.9781ZM77.7381 57.9469C77.7381 58.608 78.3051 59.0306 79.2123 59.0306C80.1195 59.0306 80.6811 58.608 80.6703 57.9469C80.6595 57.2858 80.0547 56.8632 79.1745 56.8632C78.2943 56.8632 77.7597 57.2479 77.7597 57.9469H77.7381Z" fill="#263238"/>
<path d="M41.4287 36.2563L42.3845 49.3532" stroke="#146C94" stroke-linecap="round" stroke-linejoin="round"/>
<path d="M40.9912 30.2847L41.245 33.7418" stroke="#146C94" stroke-linecap="round" stroke-linejoin="round"/>
<path d="M66.6196 17.2638V9.29297" stroke="#146C94" stroke-linecap="round" stroke-linejoin="round"/>
<path d="M60.3284 18.9546L56.3594 12.0513" stroke="#146C94" stroke-linecap="round" stroke-linejoin="round"/>
<path d="M76.8796 12.0513L72.9106 18.9546" stroke="#146C94" stroke-linecap="round" stroke-linejoin="round"/>
<path d="M169.501 158.767C166.772 169.76 165.668 181.096 166.223 192.411" stroke="#146C94" stroke-miterlimit="10"/>
<path d="M166.979 158.317C166.979 159.324 167.908 162.906 168.918 162.879C169.927 162.852 170.64 159.238 170.64 158.225C170.628 157.739 170.424 157.278 170.073 156.943C169.722 156.608 169.253 156.427 168.769 156.439C168.285 156.451 167.826 156.656 167.492 157.008C167.158 157.36 166.978 157.831 166.99 158.317H166.979Z" fill="#146C94"/>
<path d="M170.905 169.691C170.905 168.677 169.976 165.101 168.972 165.123C167.967 165.144 167.233 168.764 167.254 169.777C167.26 170.018 167.313 170.255 167.41 170.475C167.507 170.695 167.646 170.894 167.82 171.06C167.993 171.226 168.197 171.356 168.421 171.443C168.645 171.529 168.883 171.571 169.123 171.565C169.362 171.56 169.599 171.507 169.818 171.409C170.037 171.312 170.235 171.172 170.401 170.998C170.566 170.824 170.696 170.619 170.782 170.395C170.869 170.17 170.91 169.931 170.905 169.691Z" fill="#146C94"/>
<path d="M163.274 165.973C164.284 165.946 167.848 165.041 167.821 164.028C167.794 163.015 164.198 162.283 163.188 162.31C162.704 162.322 162.244 162.526 161.91 162.877C161.576 163.229 161.394 163.699 161.406 164.185C161.417 164.671 161.621 165.132 161.971 165.468C162.321 165.803 162.79 165.985 163.274 165.973Z" fill="#146C94"/>
<path d="M174.609 162.018C173.605 162.018 170.035 162.944 170.062 163.958C170.089 164.971 173.691 165.702 174.701 165.681C175.185 165.668 175.644 165.464 175.978 165.112C176.312 164.76 176.492 164.289 176.48 163.803C176.468 163.317 176.264 162.856 175.913 162.522C175.562 162.187 175.093 162.005 174.609 162.018Z" fill="#146C94"/>
<path d="M163.544 161.373C164.279 162.072 167.438 163.957 168.134 163.226C168.831 162.494 166.795 159.433 166.066 158.723C165.716 158.387 165.247 158.205 164.763 158.216C164.279 158.227 163.819 158.431 163.485 158.783C163.15 159.134 162.969 159.604 162.98 160.09C162.991 160.576 163.194 161.037 163.544 161.373Z" fill="#146C94"/>
<path d="M174.339 166.629C173.61 165.93 170.451 164.044 169.754 164.776C169.058 165.507 171.088 168.569 171.817 169.284C171.991 169.45 172.195 169.58 172.419 169.667C172.643 169.754 172.882 169.796 173.122 169.79C173.362 169.784 173.598 169.731 173.818 169.633C174.037 169.536 174.235 169.396 174.401 169.222C174.566 169.047 174.696 168.842 174.783 168.617C174.869 168.393 174.911 168.153 174.905 167.912C174.899 167.672 174.846 167.434 174.749 167.214C174.652 166.994 174.513 166.795 174.339 166.629Z" fill="#146C94"/>
<path d="M166.32 169.414C167.017 168.682 168.896 165.512 168.167 164.813C167.438 164.114 164.387 166.157 163.674 166.889C163.34 167.241 163.16 167.712 163.172 168.197C163.184 168.683 163.388 169.144 163.739 169.479C164.09 169.814 164.559 169.995 165.043 169.983C165.527 169.971 165.986 169.766 166.32 169.414Z" fill="#146C94"/>
<path d="M171.564 158.588C170.867 159.319 168.982 162.489 169.717 163.188C170.451 163.887 173.497 161.85 174.204 161.118C174.37 160.944 174.5 160.739 174.586 160.515C174.673 160.291 174.715 160.051 174.709 159.811C174.704 159.57 174.651 159.333 174.554 159.113C174.457 158.893 174.318 158.694 174.145 158.528C173.971 158.362 173.767 158.232 173.544 158.145C173.32 158.058 173.082 158.016 172.842 158.021C172.602 158.027 172.366 158.08 172.147 158.177C171.927 158.274 171.729 158.414 171.564 158.588Z" fill="#146C94"/>
<path d="M166.779 164.055C166.79 164.483 166.927 164.899 167.173 165.249C167.419 165.599 167.763 165.868 168.161 166.023C168.559 166.177 168.994 166.209 169.411 166.115C169.827 166.022 170.207 165.806 170.501 165.496C170.796 165.186 170.993 164.796 171.066 164.374C171.14 163.952 171.087 163.517 170.914 163.125C170.742 162.733 170.458 162.401 170.098 162.172C169.737 161.942 169.317 161.824 168.89 161.834C168.606 161.84 168.326 161.902 168.066 162.018C167.806 162.133 167.571 162.298 167.375 162.505C167.179 162.711 167.025 162.954 166.923 163.22C166.821 163.486 166.772 163.77 166.779 164.055Z" fill="white"/>
<path d="M166.471 180.181C166.471 180.181 166.844 174.648 169.873 173.776C172.903 172.904 174.01 171.711 174.01 171.711C174.01 171.711 173.702 180.289 166.471 180.181Z" fill="#146C94"/>
<path opacity="0.5" d="M166.471 180.181C166.471 180.181 166.844 174.648 169.873 173.776C172.903 172.904 174.01 171.711 174.01 171.711C174.01 171.711 173.702 180.289 166.471 180.181Z" fill="white"/>
<path d="M166.072 184.418C166.072 184.418 165.699 178.886 162.67 178.008C159.64 177.13 158.533 175.949 158.533 175.949C158.533 175.949 158.841 184.526 166.072 184.418Z" fill="#146C94"/>
<path opacity="0.5" d="M166.072 184.418C166.072 184.418 165.699 178.886 162.67 178.008C159.64 177.13 158.533 175.949 158.533 175.949C158.533 175.949 158.841 184.526 166.072 184.418Z" fill="white"/>
<path d="M177.498 195.944C177.498 200.279 172.373 203.758 166.055 203.758C159.737 203.758 154.613 200.263 154.613 195.944C154.613 193.776 155.925 191.782 158.047 190.368C159.384 189.493 160.871 188.872 162.432 188.537H169.679C171.28 188.882 172.803 189.528 174.166 190.439C176.229 191.853 177.498 193.793 177.498 195.944Z" fill="#146C94"/>
<path opacity="0.8" d="M169.679 188.537C171.28 188.882 172.803 189.528 174.166 190.439C176.229 191.853 177.498 193.793 177.498 195.944C177.498 200.279 172.373 203.758 166.055 203.758C159.737 203.758 154.613 200.263 154.613 195.944C154.613 193.776 155.925 191.782 158.047 190.368C159.384 189.493 160.871 188.872 162.432 188.537H169.679Z" fill="white"/>
<path d="M166.088 189.241V193.104" stroke="#146C94" stroke-miterlimit="10"/>
<path d="M174.668 188.417L174.064 190.314L174.053 190.335H158.053L158.02 190.232L157.442 188.417H174.668Z" fill="#146C94"/>
<path d="M176.148 197.515C175.001 199.11 173.495 200.409 171.752 201.308C169.004 202.771 157.442 203.145 156.119 196.561C156.119 196.475 156.071 196.383 156.054 196.29C155.996 195.883 156.032 195.468 156.158 195.076C156.284 194.685 156.497 194.327 156.781 194.03C157.065 193.734 157.413 193.506 157.798 193.364C158.183 193.222 158.595 193.171 159.003 193.213C160.099 193.287 161.2 193.225 162.281 193.028C166.432 192.398 170.667 192.624 174.728 193.695C175.112 193.797 175.467 193.991 175.762 194.259C176.057 194.527 176.283 194.862 176.422 195.236C176.561 195.611 176.609 196.013 176.561 196.409C176.514 196.806 176.372 197.185 176.148 197.515Z" fill="#263238"/>
<path d="M93.1555 195.326C93.2565 195.286 93.3461 195.222 93.4159 195.139C93.4857 195.055 93.5336 194.956 93.5551 194.849C93.5757 194.785 93.5785 194.716 93.5633 194.65C93.5481 194.584 93.5154 194.524 93.4687 194.475C93.0529 194.042 91.3627 194.351 91.1737 194.383C91.1518 194.387 91.1316 194.398 91.1154 194.413C91.0991 194.428 91.0875 194.448 91.0819 194.47C91.0776 194.491 91.0794 194.513 91.087 194.533C91.0947 194.553 91.1079 194.571 91.1251 194.584C91.4621 194.831 91.8241 195.041 92.2051 195.212C92.4988 195.361 92.8352 195.401 93.1555 195.326ZM93.3067 194.627C93.3266 194.649 93.3401 194.677 93.3458 194.706C93.3515 194.736 93.3492 194.767 93.3391 194.795C93.3266 194.866 93.2963 194.933 93.2509 194.989C93.2056 195.045 93.1467 195.088 93.0799 195.115C92.7721 195.228 92.1835 195.017 91.4599 194.573C92.1619 194.453 93.0853 194.394 93.3067 194.627Z" fill="#146C94"/>
<path d="M91.2063 194.605C91.7463 194.54 92.9127 193.928 93.0153 193.397C93.0332 193.31 93.0203 193.22 92.9789 193.141C92.9375 193.063 92.8701 193.002 92.7885 192.968C92.7129 192.925 92.6286 192.899 92.5417 192.892C92.4548 192.886 92.3675 192.899 92.2863 192.931C91.6383 193.153 91.1091 194.399 91.0875 194.453C91.0797 194.47 91.0757 194.489 91.0757 194.507C91.0757 194.526 91.0797 194.545 91.0875 194.562C91.1001 194.578 91.1168 194.591 91.1361 194.599L91.2063 194.605ZM92.6751 193.164C92.8047 193.234 92.8101 193.304 92.7993 193.353C92.7345 193.678 91.9407 194.177 91.3845 194.339C91.5843 193.933 91.9731 193.256 92.3619 193.136C92.4484 193.101 92.5453 193.101 92.6319 193.136L92.6751 193.164Z" fill="#146C94"/>
<path d="M86.0815 192.421L90.4771 194.204L94.3165 184.012L89.9155 182.229L86.0815 192.421Z" fill="#FFB573"/>
<path d="M91.0332 193.841L86.0976 191.82C86.0136 191.783 85.919 191.778 85.8316 191.806C85.7441 191.834 85.6698 191.893 85.6224 191.972L83.4624 195.602C83.4066 195.696 83.3721 195.802 83.3614 195.911C83.3508 196.02 83.3643 196.131 83.4008 196.234C83.4374 196.338 83.4963 196.432 83.5732 196.51C83.6501 196.588 83.7432 196.648 83.8458 196.686C85.5846 197.358 86.454 197.591 88.6248 198.474C89.964 199.016 91.8648 199.942 93.7008 200.696C95.5368 201.449 96.4008 199.682 95.6934 199.205C92.556 197.076 92.4534 195.846 91.6704 194.415C91.5319 194.155 91.3063 193.951 91.0332 193.841Z" fill="#263238"/>
<path d="M94.2572 189.013L86.6216 185.914L87.3236 183.107L95.5154 186.114L94.2572 189.013Z" fill="#146C94"/>
<path d="M101.903 71.0382C100.354 75.5411 95.769 86.14 92.232 81.7238C91.5953 80.9437 91.075 80.0749 90.6876 79.1445C89.1918 75.4328 88.8192 69.4181 88.6302 68.1013L87.426 63.9777C87.4047 63.9075 87.3938 63.8344 87.3936 63.761V61.4039C87.3936 60.4502 88.1604 59.8812 89.1972 59.9679C89.1972 59.9679 90.8712 59.7729 90.8712 60.7753L91.1952 64.3137C91.3626 65.5437 90.8766 67.256 91.1628 68.3831C92.2428 72.6259 93.7278 72.8155 94.662 77.1992C95.9634 74.0402 98.2908 68.5728 98.2908 68.5728C99.8352 68.7678 102.411 69.5589 101.903 71.0382Z" fill="#FFB573"/>
<path d="M96.3631 83.3387C96.1202 83.7188 95.7889 84.0342 95.3977 84.2576C95.0065 84.481 94.5672 84.6057 94.1173 84.6212C93.6675 84.6366 93.2207 84.5423 92.8152 84.3463C92.4097 84.1503 92.0577 83.8584 91.7893 83.4958C91.1492 82.6423 90.6463 81.6933 90.2989 80.6835C88.8949 76.0614 88.0255 73.2004 87.9067 68.3724C88.4048 67.8668 89.0344 67.5119 89.7237 67.3481C90.4131 67.1843 91.1344 67.2181 91.8055 67.4458L94.1059 75.2649C94.1059 75.2649 98.7877 63.5877 100.683 63.1705C102.913 62.6774 103.842 64.6769 104.787 67.1369C105.462 68.9034 99.4141 78.619 96.3631 83.3387Z" fill="#146C94"/>
<path d="M115.279 51.4771C114.739 54.1864 113.562 60.1035 115.452 61.9134C115.452 61.9134 114.712 64.6606 109.696 64.6606C104.171 64.6606 107.055 61.9134 107.055 61.9134C110.068 61.1927 109.987 58.9494 109.463 56.8415L115.279 51.4771Z" fill="#FFB573"/>
<path d="M106.839 45.094C106.871 45.1012 106.904 45.1012 106.936 45.094C106.961 45.0814 106.984 45.0639 107.002 45.0426C107.02 45.0212 107.034 44.9965 107.042 44.9697C107.051 44.943 107.054 44.9148 107.052 44.8868C107.049 44.8589 107.041 44.8317 107.028 44.8068C106.885 44.4947 106.668 44.2224 106.396 44.0137C106.124 43.805 105.805 43.6661 105.467 43.6093C105.439 43.6055 105.411 43.6075 105.383 43.615C105.356 43.6226 105.331 43.6357 105.308 43.6534C105.286 43.6711 105.268 43.6931 105.254 43.7181C105.241 43.7431 105.233 43.7706 105.23 43.7989C105.226 43.8271 105.228 43.8558 105.236 43.8832C105.243 43.9106 105.256 43.9363 105.274 43.9585C105.291 43.9808 105.313 43.9992 105.338 44.0128C105.363 44.0263 105.391 44.0347 105.419 44.0374C105.682 44.0866 105.93 44.197 106.143 44.3598C106.356 44.5226 106.528 44.7332 106.645 44.9748C106.663 45.0109 106.691 45.0411 106.725 45.0622C106.759 45.0833 106.799 45.0943 106.839 45.094Z" fill="#263238"/>
<path d="M105.192 47.4619C104.765 48.2542 104.23 48.9836 103.604 49.6294C103.774 49.7853 103.975 49.9024 104.194 49.9726C104.414 50.0428 104.645 50.0643 104.873 50.0358L105.192 47.4619Z" fill="#ED893E"/>
<path d="M105.624 46.6707C105.705 47.0283 105.576 47.3643 105.343 47.413C105.111 47.4618 104.852 47.2125 104.776 46.8712C104.701 46.5298 104.825 46.1776 105.063 46.1234C105.3 46.0692 105.549 46.3076 105.624 46.6707Z" fill="#263238"/>
<path d="M105.17 46.107L104.252 46.042C104.252 46.042 104.841 46.6001 105.17 46.107Z" fill="#263238"/>
<path opacity="0.2" d="M101.709 68.7301C102.665 67.8469 103.329 68.1124 103.75 68.8114C104.188 70.838 101.59 75.0862 100.57 76.6955L101.709 68.7301Z" fill="black"/>
<path d="M123.822 71.4012C123.698 73.6337 123.487 76.446 123.147 79.9844C122.791 83.7178 122.283 88.2532 121.586 93.764C114.248 93.764 106.564 93.6502 102.994 93.6502C103.297 86.3296 103.405 78.9115 100.132 64.3462C100.091 64.1656 100.087 63.9786 100.119 63.7962C100.152 63.6139 100.22 63.44 100.321 63.2848C100.422 63.1296 100.552 62.9963 100.706 62.8929C100.859 62.7894 101.031 62.7179 101.212 62.6826C103.34 62.2952 105.49 62.0401 107.649 61.9186C110.444 61.7179 113.25 61.7179 116.046 61.9186C119.648 62.2491 123.741 63.089 123.741 63.089C123.741 63.089 124.2 64.4329 123.822 71.4012Z" fill="#146C94"/>
<path opacity="0.2" d="M123.822 71.4013C123.698 73.6338 123.487 76.446 123.147 79.9844C121.171 77.6869 119.302 69.7757 119.907 67.0718C121.38 68.1651 122.676 69.4813 123.747 70.9732C123.78 71.1144 123.805 71.2573 123.822 71.4013Z" fill="black"/>
<path d="M142.878 81.3175L146.658 79.1934L147.36 83.0569C147.36 83.0569 144.174 84.2869 142.5 83.4253L142.878 81.3175Z" fill="#FFB573"/>
<path d="M149.159 79.654L149.424 80.9165C149.462 81.1101 149.444 81.3109 149.37 81.494C149.296 81.677 149.17 81.8342 149.008 81.946L147.345 83.0786L146.643 79.2151L147.944 78.8899C148.074 78.8572 148.209 78.8511 148.341 78.8721C148.474 78.8931 148.6 78.9407 148.714 79.012C148.827 79.0834 148.925 79.1771 149.002 79.2874C149.078 79.3977 149.132 79.5224 149.159 79.654Z" fill="#FFB573"/>
<path d="M120.204 67.5651C121.408 70.0252 125.826 79.3182 127.764 81.4639L128.147 81.8649L128.337 82.0654C128.401 82.1304 128.455 82.1901 128.558 82.2822C128.906 82.6143 129.29 82.9069 129.703 83.1546C130.439 83.5814 131.232 83.9025 132.057 84.1082C133.504 84.4451 134.99 84.5854 136.474 84.5255C139.24 84.4145 141.981 83.9483 144.628 83.1383L144.148 80.8733C142.9 80.9817 141.593 81.0576 140.33 81.0792C139.078 81.1163 137.824 81.0765 136.577 80.96C135.421 80.874 134.279 80.6503 133.175 80.2935C132.729 80.1432 132.307 79.9297 131.922 79.6595C131.774 79.5555 131.639 79.4356 131.517 79.3019C131.474 79.2577 131.435 79.2106 131.398 79.161L131.258 78.993L130.972 78.6571C129.481 76.7822 125.545 67.7439 124.362 65.4844L120.204 67.5651Z" fill="#FFB573"/>
<path d="M142.819 85.1596C139.709 86.8252 136.068 87.1838 132.694 86.1566C129.479 85.1167 126.765 82.91 125.086 79.9685C123.136 77.0912 117.947 68.9524 118.606 66.85C119.378 64.3357 121.02 62.7751 123.763 63.4525C125.691 63.9185 129.368 73.3144 131.15 77.0695C131.847 78.1153 133.186 79.7788 134.682 80.2882C137.322 81.2039 139.266 80.8301 142.031 80.4128C142.539 80.7163 142.501 81.1877 142.755 81.7133C143.026 82.2449 143.173 82.8316 143.184 83.4289C143.196 84.0261 143.071 84.6181 142.819 85.1596Z" fill="#146C94"/>
<path d="M118.001 47.142C117.174 51.6016 116.921 53.5035 114.372 55.5301C110.549 58.5754 105.273 56.5813 104.76 51.9646C104.295 47.8085 105.726 41.2194 110.327 39.9786C111.34 39.6984 112.407 39.6829 113.428 39.9336C114.448 40.1843 115.388 40.6929 116.157 41.4109C116.926 42.1289 117.499 43.0325 117.822 44.0357C118.145 45.0389 118.206 46.1082 118.001 47.142Z" fill="#FFB573"/>
<path d="M133.758 71.8024C132.91 72.7723 132.646 73.3358 131.463 73.8615C130.28 74.3871 127.721 73.9265 126.905 72.924C127.17 73.7043 128.714 75.0915 129.524 75.2161C128.612 75.7211 127.555 75.8991 126.529 75.7208C125.502 75.5425 124.566 75.0186 123.876 74.2353C123.989 74.724 124.225 75.1755 124.562 75.5464C124.898 75.9174 125.324 76.1955 125.798 76.354C115.452 76.625 119.81 71.7373 113.33 64.7852C106.159 57.0908 107.714 50.7293 107.714 50.7293C107.731 49.1449 107.237 47.5975 106.304 46.3185C105.268 44.9855 105.57 43.1865 105.899 42.1787C106.38 40.6994 107.843 40.1792 109.247 40.0925C109.496 38.6349 112.487 38.9004 112.849 39.1442C113.211 39.3881 113.254 39.3339 113.584 39.1442C114.313 38.6728 116.149 38.1851 118.114 39.7782C119.313 40.7536 120.598 42.4875 120.641 46.2155C120.685 50.079 118.843 54.6686 125.215 60.537C128.968 63.967 127.17 71.396 133.758 71.8024Z" fill="#263238"/>
<path d="M106.861 47.4782C106.358 48.1926 106.15 49.0735 106.277 49.9382C106.461 51.0816 107.568 51.1574 108.373 50.4259C109.177 49.6944 109.879 48.3722 109.285 47.424C108.691 46.4757 107.487 46.6003 106.861 47.4782Z" fill="#FFB573"/>
<path d="M116.883 93.7425C116.883 93.7425 114.675 124.851 112.191 145.366C111.444 151.523 109.573 157.489 106.672 162.966L94.5002 186.044L88.2578 183.578C88.2578 183.578 92.5778 161.654 100.996 149.706C100.996 149.706 94.7 113.981 102.94 93.6504L116.883 93.7425Z" fill="#263238"/>
<path opacity="0.2" d="M108.394 101.291C108.394 101.291 110.252 115.379 111.267 123.767C107.46 118.728 104.506 111.694 108.394 101.291Z" fill="black"/>
<path d="M132.645 198.246C132.718 198.165 132.768 198.067 132.791 197.96C132.814 197.854 132.808 197.743 132.775 197.639C132.763 197.573 132.732 197.511 132.688 197.461C132.643 197.41 132.585 197.372 132.521 197.352C131.943 197.157 130.599 198.214 130.448 198.333C130.431 198.346 130.419 198.364 130.413 198.384C130.406 198.404 130.405 198.426 130.41 198.447C130.415 198.468 130.427 198.487 130.443 198.502C130.46 198.516 130.48 198.525 130.502 198.528C130.921 198.592 131.347 198.608 131.771 198.577C132.092 198.571 132.401 198.455 132.645 198.246ZM132.446 197.563C132.474 197.572 132.5 197.589 132.519 197.612C132.539 197.635 132.551 197.663 132.554 197.693C132.577 197.761 132.583 197.834 132.57 197.904C132.556 197.975 132.525 198.04 132.478 198.094C132.262 198.338 131.646 198.425 130.804 198.338C131.355 197.932 132.143 197.455 132.446 197.563Z" fill="#146C94"/>
<path d="M130.583 198.512C131.009 198.214 131.771 197.125 131.609 196.604C131.582 196.52 131.527 196.447 131.454 196.398C131.38 196.348 131.292 196.326 131.204 196.334C131.118 196.33 131.032 196.345 130.952 196.379C130.873 196.413 130.802 196.464 130.745 196.529C130.275 197.027 130.399 198.371 130.405 198.431C130.408 198.45 130.415 198.468 130.426 198.484C130.438 198.5 130.452 198.513 130.469 198.523C130.489 198.528 130.509 198.528 130.529 198.523C130.547 198.525 130.566 198.521 130.583 198.512ZM131.198 196.556C131.344 196.556 131.382 196.621 131.398 196.67C131.49 196.984 131.031 197.797 130.615 198.192C130.552 197.67 130.654 197.141 130.907 196.68C130.968 196.612 131.053 196.569 131.144 196.561L131.198 196.556Z" fill="#146C94"/>
<path d="M125.021 198.951L129.751 198.495L128.304 187.712L123.574 188.173L125.021 198.951Z" fill="#FFB573"/>
<path d="M130.07 197.916L124.756 198.431C124.665 198.437 124.579 198.477 124.516 198.543C124.452 198.609 124.414 198.696 124.411 198.788L124.216 202.999C124.216 203.105 124.239 203.211 124.283 203.309C124.326 203.406 124.39 203.493 124.469 203.565C124.549 203.636 124.643 203.689 124.744 203.721C124.846 203.754 124.953 203.764 125.059 203.752C126.906 203.54 127.759 203.351 130.124 203.123C131.56 202.982 133.677 202.928 135.664 202.738C137.652 202.549 137.56 200.598 136.744 200.501C132.964 200.072 132.268 199.043 130.918 198.127C130.668 197.96 130.368 197.885 130.07 197.916Z" fill="#263238"/>
<path d="M121.559 93.7423C121.559 93.7423 127.613 130.865 128.774 152.854L128.995 192.248L124.097 193.207C124.097 193.207 117.007 168.075 116.186 153.548C114.026 115.005 101.515 114.945 109.042 93.6719L121.559 93.7423Z" fill="#263238"/>
<path d="M130.621 192.421L122.515 193.532L121.689 190.411L130.356 189.278L130.621 192.421Z" fill="#146C94"/>
<path d="M86.9401 53.9263H87.2479C87.1047 53.9263 86.9673 53.9834 86.8661 54.085C86.7648 54.1866 86.7079 54.3244 86.7079 54.4681L87.2047 63.902C87.2194 64.05 87.2882 64.1874 87.3979 64.2874C87.5076 64.3875 87.6504 64.4432 87.7987 64.4439H87.4801C87.3322 64.4421 87.19 64.3859 87.0806 64.2861C86.9711 64.1862 86.9019 64.0496 86.8861 63.902L86.4001 54.4952C86.3964 54.4218 86.4077 54.3484 86.4332 54.2795C86.4587 54.2106 86.4979 54.1477 86.5484 54.0944C86.5989 54.0412 86.6597 53.9989 86.727 53.97C86.7943 53.941 86.8668 53.9262 86.9401 53.9263Z" fill="#146C94"/>
<path opacity="0.1" d="M86.9401 53.9263H87.2479C87.1047 53.9263 86.9673 53.9834 86.8661 54.085C86.7648 54.1866 86.7079 54.3244 86.7079 54.4681L87.2047 63.902C87.2194 64.05 87.2882 64.1874 87.3979 64.2874C87.5076 64.3875 87.6504 64.4432 87.7987 64.4439H87.4801C87.3322 64.4421 87.19 64.3859 87.0806 64.2861C86.9711 64.1862 86.9019 64.0496 86.8861 63.902L86.4001 54.4952C86.3964 54.4218 86.4077 54.3484 86.4332 54.2795C86.4587 54.2106 86.4979 54.1477 86.5484 54.0944C86.5989 54.0412 86.6597 53.9989 86.727 53.97C86.7943 53.941 86.8668 53.9262 86.9401 53.9263Z" fill="white"/>
<path d="M87.561 64.4819H91.341C91.4842 64.4819 91.6216 64.4249 91.7228 64.3232C91.8241 64.2216 91.881 64.0838 91.881 63.9401L91.3896 54.5062C91.3738 54.3586 91.3046 54.222 91.1951 54.1221C91.0856 54.0223 90.9435 53.9662 90.7956 53.9644H87.0156C86.8724 53.9644 86.735 54.0214 86.6337 54.1231C86.5325 54.2247 86.4756 54.3625 86.4756 54.5062L86.967 63.9401C86.9828 64.0877 87.052 64.2243 87.1615 64.3242C87.2709 64.424 87.4131 64.4801 87.561 64.4819Z" fill="#146C94"/>
<path opacity="0.4" d="M87.561 64.4819H91.341C91.4842 64.4819 91.6216 64.4249 91.7228 64.3232C91.8241 64.2216 91.881 64.0838 91.881 63.9401L91.3896 54.5062C91.3738 54.3586 91.3046 54.222 91.1951 54.1221C91.0856 54.0223 90.9435 53.9662 90.7956 53.9644H87.0156C86.8724 53.9644 86.735 54.0214 86.6337 54.1231C86.5325 54.2247 86.4756 54.3625 86.4756 54.5062L86.967 63.9401C86.9828 64.0877 87.052 64.2243 87.1615 64.3242C87.2709 64.424 87.4131 64.4801 87.561 64.4819Z" fill="white"/>
<path d="M91.6541 63.7341C91.6571 63.7814 91.6504 63.8289 91.6347 63.8736C91.6189 63.9183 91.5943 63.9593 91.5623 63.9942C91.4944 64.0606 91.4033 64.0975 91.3085 64.0972H87.6311C87.5283 64.0959 87.4298 64.0555 87.3556 63.984C87.2813 63.9126 87.237 63.8155 87.2315 63.7124L86.7509 54.5604C86.7474 54.5138 86.7538 54.467 86.7696 54.4232C86.7855 54.3793 86.8104 54.3392 86.8427 54.3057C86.8752 54.2708 86.9145 54.2432 86.9582 54.2245C87.0019 54.2059 87.049 54.1966 87.0965 54.1973H90.7739C90.8768 54.1985 90.9753 54.239 91.0495 54.3104C91.1237 54.3819 91.1681 54.479 91.1735 54.582L91.2059 55.2377L91.6541 63.7341Z" fill="#263238"/>
<g opacity="0.1">
<path d="M91.2058 55.2377L89.9854 64.0972H88.522L89.9044 54.1865H90.7738C90.8766 54.1878 90.9751 54.2282 91.0493 54.2996C91.1236 54.3711 91.1679 54.4682 91.1734 54.5712L91.2058 55.2377Z" fill="white"/>
<path d="M87.993 64.0981H87.6636L89.046 54.1982H89.3754L87.993 64.0981Z" fill="white"/>
</g>
<path d="M101.801 94.8263C99.0515 100.264 97.574 106.259 97.481 112.356C106.661 119.503 115.209 111.131 125.718 112.545C125.35 107.782 123.736 98.9986 121.824 94.5987C114.864 94.875 108.362 94.1815 101.801 94.8263Z" fill="#146C94"/>
<path d="M102.757 92.8757C102.757 92.8757 102.017 94.7831 102.217 94.7831H121.5C121.668 94.7831 121.803 94.7018 121.813 94.5989L121.981 92.9733C121.981 92.8595 121.846 92.7619 121.668 92.7619H103.059C103.003 92.7543 102.947 92.7607 102.894 92.7805C102.841 92.8004 102.794 92.8331 102.757 92.8757Z" fill="white"/>
<path d="M105.473 94.9456H104.976C104.873 94.9456 104.798 94.8968 104.803 94.8318L105.041 92.6914C105.041 92.6264 105.132 92.5776 105.23 92.5776H105.732C105.829 92.5776 105.905 92.6264 105.899 92.6914L105.667 94.8318C105.656 94.8968 105.57 94.9456 105.473 94.9456Z" fill="#146C94"/>
<path d="M117.547 94.9456H117.05C116.953 94.9456 116.878 94.8968 116.883 94.8318L117.115 92.6914C117.115 92.6264 117.207 92.5776 117.31 92.5776H117.806C117.904 92.5776 117.979 92.6264 117.974 92.6914L117.72 94.8264C117.72 94.8968 117.65 94.9456 117.547 94.9456Z" fill="#146C94"/>
</g>
<defs>
<clipPath id="clip0_618_506">
<rect width="270" height="208" fill="white"/>
</clipPath>
</defs>
</svg>
