<svg width="389" height="230" viewBox="0 0 389 230" fill="none" xmlns="http://www.w3.org/2000/svg">
<g clip-path="url(#clip0_1050_434)">
<path d="M94.8092 28.3801C99.5428 28.3801 103.38 24.5366 103.38 19.7954C103.38 15.0542 99.5428 11.2107 94.8092 11.2107C90.0755 11.2107 86.2381 15.0542 86.2381 19.7954C86.2381 24.5366 90.0755 28.3801 94.8092 28.3801Z" fill="#CCE3FF"/>
<path d="M334.358 118.735C339.091 118.735 342.929 114.891 342.929 110.15C342.929 105.409 339.091 101.565 334.358 101.565C329.624 101.565 325.787 105.409 325.787 110.15C325.787 114.891 329.624 118.735 334.358 118.735Z" fill="#CCE3FF"/>
<path d="M375.131 28.3801C379.864 28.3801 383.702 24.5366 383.702 19.7954C383.702 15.0542 379.864 11.2107 375.131 11.2107C370.397 11.2107 366.56 15.0542 366.56 19.7954C366.56 24.5366 370.397 28.3801 375.131 28.3801Z" fill="#DCEEFF"/>
<path d="M8.57105 106.756C13.3047 106.756 17.1421 102.912 17.1421 98.1711C17.1421 93.4299 13.3047 89.5864 8.57105 89.5864C3.83739 89.5864 0 93.4299 0 98.1711C0 102.912 3.83739 106.756 8.57105 106.756Z" fill="#DCEEFF"/>
<path d="M184.593 160.855C184.593 161.266 184.565 161.67 184.509 162.064C183.972 165.888 180.916 168.904 177.075 169.376C176.73 169.418 176.378 169.439 176.022 169.439C171.287 169.439 167.451 165.597 167.451 160.855C167.451 158.849 168.136 157.005 169.285 155.544C170.851 153.557 173.271 152.279 175.994 152.27H176.022C180.757 152.27 184.593 156.113 184.593 160.855Z" fill="#CCE3FF"/>
<path d="M184.509 162.064C183.972 165.888 180.916 168.904 177.075 169.376C176.941 168.881 176.871 168.359 176.871 167.821C176.871 164.514 179.549 161.83 182.853 161.83C183.428 161.83 183.983 161.912 184.509 162.064Z" fill="#DCEEFF"/>
<path d="M176.022 152.74C176.022 153.433 175.844 154.086 175.532 154.652C175.143 155.354 174.547 155.927 173.825 156.284C173.297 156.547 172.701 156.695 172.073 156.695C170.985 156.695 170 156.254 169.285 155.544C170.851 153.557 173.271 152.279 175.994 152.27C176.013 152.423 176.022 152.58 176.022 152.74Z" fill="#DCEEFF"/>
<path d="M175.347 157.698C176.19 157.698 176.873 157.013 176.873 156.169C176.873 155.324 176.19 154.64 175.347 154.64C174.503 154.64 173.82 155.324 173.82 156.169C173.82 157.013 174.503 157.698 175.347 157.698Z" fill="#DCEEFF"/>
<path d="M206.948 125.149L97 81.0142L91.7622 94.104L201.71 138.239L206.948 125.149Z" fill="url(#paint0_linear_1050_434)"/>
<path d="M265.475 116.098L173.934 79.3516L169.652 90.0519L261.194 126.799L265.475 116.098Z" fill="url(#paint1_linear_1050_434)"/>
<path d="M263.325 127.223C266.503 127.223 269.079 124.642 269.079 121.459C269.079 118.276 266.503 115.695 263.325 115.695C260.147 115.695 257.57 118.276 257.57 121.459C257.57 124.642 260.147 127.223 263.325 127.223Z" fill="#DCEEFF"/>
<path d="M204.319 138.753C208.207 138.753 211.359 135.596 211.359 131.702C211.359 127.808 208.207 124.651 204.319 124.651C200.431 124.651 197.28 127.808 197.28 131.702C197.28 135.596 200.431 138.753 204.319 138.753Z" fill="#DCEEFF"/>
<path d="M204.319 135.763C206.559 135.763 208.374 133.945 208.374 131.702C208.374 129.459 206.559 127.641 204.319 127.641C202.08 127.641 200.265 129.459 200.265 131.702C200.265 133.945 202.08 135.763 204.319 135.763Z" fill="#B6D4FF"/>
<path d="M263.325 124.56C265.034 124.56 266.42 123.172 266.42 121.459C266.42 119.747 265.034 118.359 263.325 118.359C261.615 118.359 260.229 119.747 260.229 121.459C260.229 123.172 261.615 124.56 263.325 124.56Z" fill="#B6D4FF"/>
<path d="M95.501 121.555C93.8806 121.555 92.565 125.551 92.565 130.478C92.565 125.551 91.2518 121.555 89.629 121.555C91.2518 121.555 92.565 117.56 92.565 112.632C92.565 117.56 93.8806 121.555 95.501 121.555Z" fill="#DCEEFF"/>
<path d="M40.4188 142.788C41.5883 142.788 42.5363 141.839 42.5363 140.667C42.5363 139.496 41.5883 138.546 40.4188 138.546C39.2493 138.546 38.3012 139.496 38.3012 140.667C38.3012 141.839 39.2493 142.788 40.4188 142.788Z" fill="#CCE3FF"/>
<path d="M136.14 137.884C137.31 137.884 138.258 136.934 138.258 135.763C138.258 134.592 137.31 133.642 136.14 133.642C134.971 133.642 134.023 134.592 134.023 135.763C134.023 136.934 134.971 137.884 136.14 137.884Z" fill="#CCE3FF"/>
<path d="M115.628 70.0072C117.607 70.0072 119.211 68.4003 119.211 66.4183C119.211 64.4362 117.607 62.8293 115.628 62.8293C113.649 62.8293 112.045 64.4362 112.045 66.4183C112.045 68.4003 113.649 70.0072 115.628 70.0072Z" fill="#B6D4FF"/>
<path d="M144.289 15.4289C145.459 15.4289 146.407 14.4793 146.407 13.3079C146.407 12.1366 145.459 11.187 144.289 11.187C143.12 11.187 142.172 12.1366 142.172 13.3079C142.172 14.4793 143.12 15.4289 144.289 15.4289Z" fill="#DCEEFF"/>
<path d="M92.565 36.7629C93.7345 36.7629 94.6826 35.8133 94.6826 34.6419C94.6826 33.4706 93.7345 32.521 92.565 32.521C91.3955 32.521 90.4474 33.4706 90.4474 34.6419C90.4474 35.8133 91.3955 36.7629 92.565 36.7629Z" fill="#DCEEFF"/>
<path d="M4.5892 16.7536C5.7587 16.7536 6.70676 15.804 6.70676 14.6326C6.70676 13.4613 5.7587 12.5117 4.5892 12.5117C3.41971 12.5117 2.47165 13.4613 2.47165 14.6326C2.47165 15.804 3.41971 16.7536 4.5892 16.7536Z" fill="#DCEEFF"/>
<path d="M364.442 10.3908C365.612 10.3908 366.56 9.44121 366.56 8.26986C366.56 7.0985 365.612 6.14893 364.442 6.14893C363.273 6.14893 362.324 7.0985 362.324 8.26986C362.324 9.44121 363.273 10.3908 364.442 10.3908Z" fill="#DCEEFF"/>
<path d="M389.548 46.9423C390.717 46.9423 391.665 45.9927 391.665 44.8214C391.665 43.65 390.717 42.7004 389.548 42.7004C388.378 42.7004 387.43 43.65 387.43 44.8214C387.43 45.9927 388.378 46.9423 389.548 46.9423Z" fill="#DCEEFF"/>
<path d="M279.752 76.0387C280.921 76.0387 281.869 75.0892 281.869 73.9178C281.869 72.7464 280.921 71.7969 279.752 71.7969C278.582 71.7969 277.634 72.7464 277.634 73.9178C277.634 75.0892 278.582 76.0387 279.752 76.0387Z" fill="#DCEEFF"/>
<path d="M286.571 14.6327C287.74 14.6327 288.688 13.6832 288.688 12.5118C288.688 11.3404 287.74 10.3909 286.571 10.3909C285.401 10.3909 284.453 11.3404 284.453 12.5118C284.453 13.6832 285.401 14.6327 286.571 14.6327Z" fill="#DCEEFF"/>
<path d="M377.248 144.63C378.418 144.63 379.366 143.68 379.366 142.509C379.366 141.337 378.418 140.388 377.248 140.388C376.079 140.388 375.131 141.337 375.131 142.509C375.131 143.68 376.079 144.63 377.248 144.63Z" fill="#CCE3FF"/>
<path d="M181.643 14.6328C179.701 14.6328 178.128 19.4172 178.128 25.3173C178.128 19.4172 176.554 14.6328 174.613 14.6328C176.554 14.6328 178.128 9.84833 178.128 3.94824C178.128 9.84833 179.704 14.6328 181.643 14.6328Z" fill="#ECF6FF"/>
<path d="M292.942 144.629C290.593 144.629 288.688 150.417 288.688 157.557C288.688 150.419 286.784 144.629 284.435 144.629C286.784 144.629 288.688 138.842 288.688 131.702C288.688 138.84 290.593 144.629 292.942 144.629Z" fill="#ECF6FF"/>
<path d="M125.112 169.439C122.952 169.439 121.2 174.762 121.2 181.324C121.2 174.762 119.448 169.439 117.289 169.439C119.448 169.439 121.2 164.117 121.2 157.555C121.2 164.117 122.952 169.439 125.112 169.439Z" fill="#DCEEFF"/>
<path d="M389.548 96.891C387.707 96.891 386.213 101.429 386.213 107.026C386.213 101.429 384.719 96.891 382.879 96.891C384.722 96.891 386.213 92.3532 386.213 86.7561C386.213 92.3532 387.707 96.891 389.548 96.891Z" fill="#DCEEFF"/>
<path d="M221.876 178.503C222.878 178.503 223.689 177.691 223.689 176.688C223.689 175.685 222.878 174.872 221.876 174.872C220.875 174.872 220.064 175.685 220.064 176.688C220.064 177.691 220.875 178.503 221.876 178.503Z" fill="#DCEEFF"/>
<path d="M197.291 52.53C198.708 52.53 199.857 51.3795 199.857 49.9604C199.857 48.5413 198.708 47.3909 197.291 47.3909C195.874 47.3909 194.726 48.5413 194.726 49.9604C194.726 51.3795 195.874 52.53 197.291 52.53Z" fill="#DCEEFF"/>
<path d="M158.099 38.6723C158.973 38.6723 159.682 37.9625 159.682 37.0869C159.682 36.2113 158.973 35.5015 158.099 35.5015C157.225 35.5015 156.516 36.2113 156.516 37.0869C156.516 37.9625 157.225 38.6723 158.099 38.6723Z" fill="#CCE3FF"/>
<path d="M221.468 21.7964C224.031 21.7964 226.109 19.7153 226.109 17.1482C226.109 14.5811 224.031 12.5 221.468 12.5C218.905 12.5 216.828 14.5811 216.828 17.1482C216.828 19.7153 218.905 21.7964 221.468 21.7964Z" fill="#DCEEFF"/>
<path d="M345.267 180.843C346.558 180.843 347.605 179.794 347.605 178.501C347.605 177.208 346.558 176.159 345.267 176.159C343.976 176.159 342.929 177.208 342.929 178.501C342.929 179.794 343.976 180.843 345.267 180.843Z" fill="#B6D4FF"/>
<path d="M78.2674 174.875C79.0795 174.875 79.7377 174.215 79.7377 173.402C79.7377 172.589 79.0795 171.929 78.2674 171.929C77.4554 171.929 76.7971 172.589 76.7971 173.402C76.7971 174.215 77.4554 174.875 78.2674 174.875Z" fill="#B6D4FF"/>
<path d="M236.291 82.6809C237.103 82.6809 237.762 82.0216 237.762 81.2083C237.762 80.3949 237.103 79.7356 236.291 79.7356C235.479 79.7356 234.821 80.3949 234.821 81.2083C234.821 82.0216 235.479 82.6809 236.291 82.6809Z" fill="#B6D4FF"/>
<path d="M172 98.3638C172.812 98.3638 173.471 97.7045 173.471 96.8911C173.471 96.0778 172.812 95.4185 172 95.4185C171.188 95.4185 170.53 96.0778 170.53 96.8911C170.53 97.7045 171.188 98.3638 172 98.3638Z" fill="#DCEEFF"/>
<path d="M123.008 73.0464C123.82 73.0464 124.478 72.3871 124.478 71.5738C124.478 70.7604 123.82 70.1011 123.008 70.1011C122.196 70.1011 121.538 70.7604 121.538 71.5738C121.538 72.3871 122.196 73.0464 123.008 73.0464Z" fill="#DCEEFF"/>
<path d="M8.57104 152.841C9.38308 152.841 10.0414 152.182 10.0414 151.368C10.0414 150.555 9.38308 149.896 8.57104 149.896C7.759 149.896 7.10071 150.555 7.10071 151.368C7.10071 152.182 7.759 152.841 8.57104 152.841Z" fill="#DCEEFF"/>
<path d="M107.852 98.3638C108.664 98.3638 109.323 97.7045 109.323 96.8911C109.323 96.0778 108.664 95.4185 107.852 95.4185C107.04 95.4185 106.382 96.0778 106.382 96.8911C106.382 97.7045 107.04 98.3638 107.852 98.3638Z" fill="#DCEEFF"/>
<path d="M44.3209 108.811C45.3065 108.811 46.1054 108.011 46.1054 107.023C46.1054 106.036 45.3065 105.236 44.3209 105.236C43.3353 105.236 42.5363 106.036 42.5363 107.023C42.5363 108.011 43.3353 108.811 44.3209 108.811Z" fill="#DCEEFF"/>
<path d="M45.803 74.5872C66.3656 74.5872 83.0349 57.8913 83.0349 37.2959C83.0349 16.7005 66.3656 0.00463867 45.803 0.00463867C25.2404 0.00463867 8.57111 16.7005 8.57111 37.2959C8.57111 57.8913 25.2404 74.5872 45.803 74.5872Z" fill="#DCEEFF"/>
<path d="M59.7769 21.6061C62.8904 21.6061 65.4144 19.0781 65.4144 15.9597C65.4144 12.8412 62.8904 10.3132 59.7769 10.3132C56.6635 10.3132 54.1395 12.8412 54.1395 15.9597C54.1395 19.0781 56.6635 21.6061 59.7769 21.6061Z" fill="#ECF6FF"/>
<path d="M59.7558 30.2119C60.9966 30.2119 62.0024 29.2045 62.0024 27.9618C62.0024 26.7191 60.9966 25.7117 59.7558 25.7117C58.5151 25.7117 57.5093 26.7191 57.5093 27.9618C57.5093 29.2045 58.5151 30.2119 59.7558 30.2119Z" fill="#ECF6FF"/>
<path d="M34.6125 59.9145C35.8533 59.9145 36.8591 58.9071 36.8591 57.6644C36.8591 56.4217 35.8533 55.4143 34.6125 55.4143C33.3718 55.4143 32.366 56.4217 32.366 57.6644C32.366 58.9071 33.3718 59.9145 34.6125 59.9145Z" fill="#ECF6FF"/>
<path d="M22.4254 43.5107C34.0544 52.9856 43.4415 38.5219 43.4415 38.5219C27.3617 43.452 22.9132 28.0159 41.596 21.8903C53.1827 18.0924 51.8578 7.5864 49.1821 0.157268C29.3198 -1.66537 11.432 12.5775 8.87357 32.5514C8.03639 39.0856 8.94157 45.4414 11.2303 51.1512C12.0112 50.0637 12.6092 49.0044 12.914 48.1518C14.2718 44.3656 13.9107 36.5724 22.4254 43.5107Z" fill="#CCE3FF"/>
<path d="M41.066 74.2841C61.463 76.9053 80.1153 62.4675 82.7323 42.0403C83.464 36.3281 82.8637 30.7522 81.1753 25.6272C79.9605 27.6283 77.5569 29.5261 73.0169 27.02C65.2713 22.7476 63.6884 34.7099 69.9684 38.9047C73.5117 41.2699 76.64 45.6058 72.2618 48.7625C67.4522 52.2316 59.2071 36.9576 51.5764 42.5712C41.331 50.1083 59.2962 61.434 52.4417 64.8139C48.155 66.9278 45.083 60.9995 45.083 60.9995C45.083 60.9995 35.717 69.7346 27.2351 62.4487C24.414 60.0248 20.5025 59.7429 18.446 62.5896C24.1725 68.8092 32.033 73.1238 41.0684 74.2841H41.066Z" fill="#CCE3FF"/>
<path d="M319.272 87.4162C339.925 87.4162 356.668 70.6468 356.668 49.9606C356.668 29.2744 339.925 12.5049 319.272 12.5049C298.619 12.5049 281.876 29.2744 281.876 49.9606C281.876 70.6468 298.619 87.4162 319.272 87.4162Z" fill="#DCEEFF"/>
<path d="M356.664 49.0891C348.637 50.6816 328.702 53.4226 313.063 45.5354C298.383 38.1298 296.919 30.9567 289.835 26.8487C291.01 25.3478 292.295 23.9456 293.676 22.6538C301.105 23.0132 313.391 25.1177 325.787 33.8269C336.311 41.2231 347.621 42.623 355.89 42.3176C356.349 44.5231 356.612 46.7873 356.664 49.0891Z" fill="#ECF6FF"/>
<path d="M307.411 51.903C306.862 52.1215 296.692 56.011 281.869 50.179C281.86 48.0158 282.036 45.8221 282.416 43.6143C282.854 41.0518 283.546 38.5973 284.456 36.2673C289.737 41.9654 301.75 53.9699 307.411 51.903Z" fill="#ECF6FF"/>
<path d="M354.168 63.4425C352.642 67.4213 350.473 71.0337 347.806 74.1787C338.466 70.7143 320.736 65.3216 307.435 68.3726C299.968 70.0848 293.085 70.1976 287.492 69.7043C285.64 66.7167 284.202 63.466 283.246 60.0415C291.263 59.9335 306.541 59.2336 319.272 55.7856C332.334 52.2484 344.946 59.9147 354.168 63.4425Z" fill="#ECF6FF"/>
<path d="M341.405 80.154C339.779 81.3495 338.056 82.4135 336.257 83.3318C327.053 79.6278 315.272 75.6279 308.914 76.7483C309.7 76.5792 322.942 73.911 341.405 80.154Z" fill="#ECF6FF"/>
<path d="M353.355 34.5364C346.191 34.0478 331.415 31.6897 319.493 20.9629C312.929 15.0581 324.783 16.216 341.355 19.7251C346.573 23.5536 350.703 28.6762 353.355 34.5364Z" fill="#ECF6FF"/>
<path d="M323.479 87.1884C320.051 87.5759 316.51 87.4914 312.936 86.876C304.902 85.4926 297.911 81.6383 292.609 76.2244C299.086 76.6448 312.106 78.6037 323.479 87.1884Z" fill="#ECF6FF"/>
<path d="M311.201 19.7744C310.012 19.6663 305.172 19.1191 301.457 17.0287C303.378 15.9835 305.394 15.1051 307.484 14.4075C308.835 16.9982 310.314 19.455 311.201 19.7744Z" fill="#ECF6FF"/>
<path d="M311.475 19.7956C311.393 19.8167 311.304 19.8073 311.205 19.7744C311.379 19.7885 311.475 19.7956 311.475 19.7956Z" fill="#ECF6FF"/>
<path d="M366.215 50.4538C382.391 55.6657 392.378 61.1031 391.684 65.1524C390.465 72.2527 356.856 72.3912 316.615 65.46C276.375 58.5312 244.74 47.1585 245.957 40.0582C246.67 35.8985 258.501 34.1299 276.267 34.7688" stroke="#B6D4FF" stroke-width="28" stroke-miterlimit="10" stroke-linecap="round"/>
<path d="M113.086 153.444H65.4097V137.2L113.959 57.3965H135.763V132.785H150.733V153.442H135.763V180.807H113.086V153.442V153.444ZM116.285 132.787V89.3537L90.1215 132.787H116.285Z" fill="#2F3BB2"/>
<path d="M178.569 175.779C171.738 170.658 166.48 163.243 162.798 153.534C159.114 143.824 157.276 132.378 157.276 119.195C157.276 106.011 159.093 94.42 162.726 84.7666C166.36 75.1179 171.592 67.7005 178.423 62.5215C185.254 57.3425 193.321 54.7542 202.624 54.7542C211.927 54.7542 219.968 57.3448 226.752 62.5215C233.534 67.7029 238.744 75.1179 242.377 84.7666C246.011 94.42 247.826 105.896 247.826 119.195C247.826 132.493 245.986 143.824 242.304 153.534C238.62 163.243 233.388 170.658 226.606 175.779C219.822 180.899 211.828 183.459 202.624 183.459C193.42 183.459 185.4 180.899 178.569 175.779ZM219.487 148.324C223.459 141.381 225.446 131.789 225.446 119.545C225.446 107.301 223.483 97.4758 219.56 90.413C215.634 83.3503 209.99 79.8201 202.626 79.8201C195.263 79.8201 189.616 83.3503 185.693 90.413C181.767 97.4758 179.807 107.186 179.807 119.545C179.807 131.904 181.791 141.379 185.766 148.324C189.738 155.269 195.359 158.741 202.626 158.741C209.893 158.741 215.512 155.269 219.487 148.324Z" fill="#2F3BB2"/>
<path d="M302.046 153.444H254.369V137.2L302.918 57.3965H324.722V132.785H339.693V153.442H324.722V180.807H302.046V153.442V153.444ZM305.244 132.787V89.3537L279.081 132.787H305.244Z" fill="#2F3BB2"/>
<path d="M202.901 54.7495H183.582V183.459H202.901V54.7495Z" fill="#2F3BB2"/>
<path d="M113.086 153.444H65.4097V137.2L113.959 57.3965H135.763V132.785H150.733V153.442H135.763V180.807H113.086V153.442V153.444ZM116.285 132.787V89.3537L90.1215 132.787H116.285Z" fill="#2F3BB2"/>
<path d="M302.046 153.444H254.369V137.2L302.918 57.3965H324.722V132.785H339.693V153.442H324.722V180.807H302.046V153.442V153.444ZM305.244 132.787V89.3537L279.081 132.787H305.244Z" fill="#2F3BB2"/>
<path d="M324.722 153.444H305.997V180.81H324.722V153.444Z" fill="url(#paint2_linear_1050_434)"/>
<path d="M135.76 153.444H117.035V180.81H135.76V153.444Z" fill="url(#paint3_linear_1050_434)"/>
<path d="M247.829 119.192C247.829 132.376 245.988 143.822 242.306 153.531C238.622 163.243 233.388 170.658 226.606 175.779C219.822 180.899 211.828 183.459 202.624 183.459H183.58V178.961C181.845 178.043 180.175 176.981 178.569 175.779C171.735 170.658 166.478 163.243 162.796 153.531C159.112 143.822 157.273 132.376 157.273 119.192C157.273 106.009 159.091 94.4177 162.723 84.7643C166.358 75.1156 171.59 67.6982 178.423 62.5192C180.072 61.2697 181.788 60.1728 183.58 59.2262V54.7495H202.624C211.927 54.7495 219.968 57.3402 226.752 62.5192C233.534 67.6982 238.744 75.1156 242.379 84.7643C246.011 94.4177 247.829 105.894 247.829 119.192Z" fill="url(#paint4_linear_1050_434)"/>
<path d="M206.721 119.545C206.721 131.789 204.732 141.381 200.762 148.324C196.787 155.269 191.168 158.741 183.899 158.741C176.629 158.741 171.011 155.269 167.038 148.324C163.063 141.381 161.079 131.789 161.079 119.545C161.079 107.301 163.042 97.4757 166.965 90.413C170.891 83.3526 176.533 79.8201 183.899 79.8201C191.265 79.8201 196.909 83.3526 200.835 90.413C204.758 97.4757 206.721 107.188 206.721 119.545Z" fill="#101014"/>
<path d="M181.971 88.5435C181.118 88.5435 180.426 90.2463 180.426 92.3438C180.426 90.244 179.734 88.5435 178.88 88.5435C179.734 88.5435 180.426 86.8406 180.426 84.7432C180.426 86.843 181.118 88.5435 181.971 88.5435Z" fill="white"/>
<path d="M193.919 96.231C192.514 96.231 191.377 99.0284 191.377 102.481C191.377 99.0284 190.24 96.231 188.835 96.231C190.24 96.231 191.377 93.4336 191.377 89.981C191.377 93.4336 192.514 96.231 193.919 96.231Z" fill="white"/>
<path d="M178.226 112.019C177.18 112.019 176.334 114.103 176.334 116.67C176.334 114.1 175.487 112.019 174.441 112.019C175.485 112.019 176.334 109.936 176.334 107.369C176.334 109.938 177.18 112.019 178.226 112.019Z" fill="white"/>
<path d="M201.067 112.804C200.431 112.804 199.918 114.07 199.918 115.629C199.918 114.067 199.404 112.804 198.769 112.804C199.404 112.804 199.918 111.538 199.918 109.978C199.918 111.54 200.431 112.804 201.067 112.804Z" fill="white"/>
<path d="M189.229 140.402C187.984 140.402 186.975 142.882 186.975 145.943C186.975 142.882 185.967 140.402 184.722 140.402C185.967 140.402 186.975 137.922 186.975 134.861C186.975 137.922 187.984 140.402 189.229 140.402Z" fill="white"/>
<path d="M170.539 126.955C169.585 126.955 168.813 128.855 168.813 131.202C168.813 128.858 168.039 126.955 167.087 126.955C168.042 126.955 168.813 125.055 168.813 122.708C168.813 125.053 169.587 126.955 170.539 126.955Z" fill="white"/>
<path d="M94.3613 153.444H46.6847V137.2L95.2336 57.3965H117.038V132.785H132.008V153.442H117.038V180.807H94.3613V153.442V153.444ZM97.5599 132.787V89.3537L71.3965 132.787H97.5599Z" fill="#405FD3"/>
<path d="M223.654 84.7643C220.022 75.1156 214.811 67.6982 208.029 62.5192C201.245 57.3402 193.202 54.7495 183.899 54.7495C174.596 54.7495 166.529 57.3402 159.698 62.5192C152.867 67.6982 147.633 75.1156 144.001 84.7643C141.508 91.3831 139.871 98.8592 139.088 107.19C138.729 111.012 138.549 115.012 138.549 119.192C138.549 124.564 138.853 129.647 139.465 134.443C140.354 141.414 141.89 147.777 144.073 153.531C147.755 163.243 153.013 170.658 159.844 175.779C166.675 180.899 174.692 183.459 183.899 183.459C193.105 183.459 201.1 180.899 207.884 175.779C214.666 170.658 219.897 163.243 223.581 153.531C227.263 143.822 229.106 132.376 229.106 119.192C229.106 106.009 227.289 94.4177 223.654 84.7643ZM200.762 148.324C196.787 155.269 191.168 158.741 183.899 158.741C176.629 158.741 171.011 155.269 167.038 148.324C163.063 141.381 161.079 131.789 161.079 119.545C161.079 107.301 163.042 97.4758 166.965 90.4131C170.891 83.3527 176.533 79.8202 183.899 79.8202C191.265 79.8202 196.909 83.3527 200.835 90.4131C204.758 97.4758 206.721 107.188 206.721 119.545C206.721 131.902 204.732 141.381 200.762 148.324Z" fill="#405FD3"/>
<path d="M283.323 153.444H235.646V137.2L284.195 57.3965H305.999V132.785H320.97V153.442H305.999V180.807H283.323V153.442V153.444ZM286.522 132.787V89.3537L260.358 132.787H286.522Z" fill="#405FD3"/>
<path d="M207.501 157.165L208.981 177.716L216.828 171.68L214.776 135.824L207.501 157.165Z" fill="url(#paint5_linear_1050_434)"/>
<path d="M117.066 223.252L119.884 215.797L125.679 219.461L122.56 226.136L117.066 223.252Z" fill="#CF3E83"/>
<path d="M117.396 222.305L114.939 229.392L139.911 229.446C139.911 229.446 135.486 224.558 123.953 223.153L117.396 222.303V222.305Z" fill="#0D0B6D"/>
<path d="M134.682 142.104L132.057 180.915L115.821 220.753L126.758 222.068L144.674 186.583L152.272 146.173L134.682 142.104Z" fill="#1A1A1E"/>
<path d="M147.497 100.774L174.732 95.3057C174.732 95.3057 176.221 95.5006 176.723 97.2551C177.225 99.0097 176.437 100.022 176.437 100.022L148.405 111.554L147.497 100.774Z" fill="#E576C6"/>
<path d="M144.587 108.296L161.532 113.255L165.221 101.33L169.085 102.81L166.576 122.708L142.852 118.819L144.587 108.296Z" fill="#E576C6"/>
<path d="M148.123 100.022L129.86 104.816L151.784 110.267L148.123 100.022Z" fill="#E2791A"/>
<path d="M119.999 78.3123L121.535 82.2441L120.154 83.2775L116.77 80.9593" stroke="#0D0B6D" stroke-width="9" stroke-miterlimit="10"/>
<path d="M142.556 77.7039C142.556 77.7039 150.114 83.416 143.103 87.4324L142.556 77.7039Z" fill="#0D0B6D"/>
<path d="M126.035 92.4377C125.034 90.9603 119.451 90.3097 119.256 94.2979C119.003 99.4417 128.643 99.437 128.643 99.437L130.221 106.403L138.799 105.288L137.139 99.1575C137.139 99.1575 145.262 97.5721 146.683 96.2498C146.683 96.2498 145.799 88.1301 143.077 82.9534L134.916 78.8572L124.593 82.5541L126.035 92.4377Z" fill="#E576C6"/>
<path d="M121.348 91.5264C121.348 91.5264 115.656 90.8594 119.91 83.0309C124.164 75.2025 130.362 76.9359 130.362 76.9359C130.362 76.9359 130.123 70.2278 134.274 69.0981C140.188 67.4868 143.623 76.3769 143.623 76.3769C143.623 76.3769 145.227 70.5802 147.117 70.8221C149.007 71.064 153.613 87.564 127.888 86.028C127.888 86.028 131.166 90.0208 126.038 92.4377C126.038 92.4377 124.563 90.7537 121.348 91.5264Z" fill="#0D0B6D"/>
<path d="M137.702 95.3455C137.367 94.5939 138.359 93.4359 139.848 93.2551C142.054 92.9873 143.532 94.615 142.76 95.8035C142.022 96.9426 140.565 95.7847 139.329 96.0125C138.656 96.137 137.96 95.9162 137.704 95.3431L137.702 95.3455Z" fill="white"/>
<path d="M137.137 99.1575L131.596 99.4839L137.775 101.565L137.137 99.1575Z" fill="#CF3E83"/>
<path d="M141.006 88.0784L144.036 92.0031L141.876 92.6326L141.006 88.0784Z" fill="#405FD3"/>
<path d="M154.08 109.217L148.32 100.572L151.528 110.267L154.08 109.217Z" fill="#CF3E83"/>
<path d="M154.349 120.703L152.553 110.629L152.147 120.343L154.349 120.703Z" fill="#CF3E83"/>
<path d="M138.173 90.2675C138.8 90.2675 139.308 89.7585 139.308 89.1307C139.308 88.5029 138.8 87.9939 138.173 87.9939C137.546 87.9939 137.038 88.5029 137.038 89.1307C137.038 89.7585 137.546 90.2675 138.173 90.2675Z" fill="#0D0B6D"/>
<path d="M143.625 88.9286C144.252 88.9286 144.76 88.4197 144.76 87.7918C144.76 87.164 144.252 86.655 143.625 86.655C142.999 86.655 142.49 87.164 142.49 87.7918C142.49 88.4197 142.999 88.9286 143.625 88.9286Z" fill="#0D0B6D"/>
<path d="M134.513 143.925C134.513 143.925 116.529 117.332 129.86 104.816C132.965 101.901 152.628 108.858 152.628 108.858L151.971 124.51L148.123 123.711L155.538 135.368L159.574 145.71C159.574 145.71 149.242 143.375 137.697 144.012C136.902 144.056 134.513 143.922 134.513 143.922V143.925Z" fill="#FFC000"/>
<path d="M205.989 155.577L201.615 150.83L206.723 145.531L210.245 151.688L205.989 155.577Z" fill="#CF3E83"/>
<path d="M207.501 144.111L186.727 119.989C183.943 116.966 179.211 116.87 176.306 119.773L155.538 135.371C155.538 135.371 152.593 143.474 135.943 144.148C135.943 144.148 142.258 158.729 156.903 153.562C163.5 151.234 182.168 135.228 182.168 135.228L203.168 155.627L207.501 144.113V144.111Z" fill="#313135"/>
<path d="M137.038 85.9036L135.076 87.7051" stroke="#0D0B6D" stroke-width="7" stroke-miterlimit="10"/>
<path d="M142.303 84.708L145.518 85.2271" stroke="#0D0B6D" stroke-width="7" stroke-miterlimit="10"/>
<path d="M205.989 155.577L210.245 160.051L214.776 135.824C214.776 135.824 211.469 140.402 208.517 147.732L205.989 155.577Z" fill="#0D0B6D"/>
<path d="M148.123 123.711L138.896 121.384L150.295 127.124L148.123 123.711Z" fill="#E2791A"/>
<path d="M169.54 95.6156C169.386 95.7964 169.196 96.3625 169.196 96.3625C169.196 96.3625 166.982 98.0888 165.408 100.806C163.835 103.524 168.6 104.574 168.6 104.574C168.6 104.574 170.07 104.839 170.492 104.475C170.915 104.111 171.433 104.292 171.74 104.097C172.047 103.902 172.279 102.878 173.065 102.436C173.85 101.995 173.318 100.423 172.976 100.158C172.633 99.8927 170.56 99.2303 171.051 97.5791C171.489 96.0994 170.368 94.6549 169.54 95.6156Z" fill="#E576C6"/>
<path d="M164.353 105.116L165.523 101.194C165.523 101.194 165.523 98.8145 169.486 96.4141" stroke="#CF3E83" stroke-width="3" stroke-miterlimit="10"/>
<path d="M170.982 96.0571C170.982 96.0571 171.327 96.5856 170.982 97.8962C170.638 99.2092 172.493 99.693 172.973 100.156C173.454 100.618 173.442 101.25 173.442 101.25" stroke="#CF3E83" stroke-width="3" stroke-miterlimit="10"/>
<path d="M168.844 104.745L169.085 102.613" stroke="#CF3E83" stroke-width="3" stroke-miterlimit="10"/>
</g>
<defs>
<linearGradient id="paint0_linear_1050_434" x1="94.3802" y1="87.5612" x2="204.376" y2="131.576" gradientUnits="userSpaceOnUse">
<stop stop-color="#DCEEFF" stop-opacity="0"/>
<stop offset="1" stop-color="#DCEEFF"/>
</linearGradient>
<linearGradient id="paint1_linear_1050_434" x1="171.793" y1="84.7017" x2="263.375" y2="121.348" gradientUnits="userSpaceOnUse">
<stop stop-color="#DCEEFF" stop-opacity="0"/>
<stop offset="1" stop-color="#DCEEFF"/>
</linearGradient>
<linearGradient id="paint2_linear_1050_434" x1="315.741" y1="146.389" x2="315.263" y2="172.256" gradientUnits="userSpaceOnUse">
<stop stop-color="#1C1C82"/>
<stop offset="1" stop-color="#2F3BB2"/>
</linearGradient>
<linearGradient id="paint3_linear_1050_434" x1="126.779" y1="-0.000184803" x2="126.303" y2="-0.000184803" gradientUnits="userSpaceOnUse">
<stop stop-color="#1C1C82"/>
<stop offset="1" stop-color="#2F3BB2"/>
</linearGradient>
<linearGradient id="paint4_linear_1050_434" x1="204.031" y1="176.082" x2="201.998" y2="98.1242" gradientUnits="userSpaceOnUse">
<stop stop-color="#1C1C82"/>
<stop offset="1" stop-color="#2F3BB2"/>
</linearGradient>
<linearGradient id="paint5_linear_1050_434" x1="212.428" y1="175.055" x2="211.906" y2="154.079" gradientUnits="userSpaceOnUse">
<stop stop-color="#171787" stop-opacity="0"/>
<stop offset="0.83" stop-color="#2F3BB2"/>
</linearGradient>
<clipPath id="clip0_1050_434">
<rect width="395" height="230" fill="white"/>
</clipPath>
</defs>
</svg>
