<svg width="24" height="24" viewBox="0 0 24 24" fill="none" xmlns="http://www.w3.org/2000/svg">
<g id="paperclip 1" clip-path="url(#clip0_236_700)">
<g id="Group">
<g id="Group_2">
<path id="Vector" d="M23.012 8.74075C22.6313 8.35126 22.0157 8.35299 21.637 8.74455L9.94967 20.8308C8.43338 22.3905 5.9707 22.3905 4.45158 20.8287C2.9336 19.2666 2.9336 16.7335 4.45176 15.172L16.4851 2.72988C17.4317 1.75621 18.9708 1.75621 19.9202 2.73199C20.8693 3.70823 20.8693 5.29109 19.92 6.26762L9.95149 16.5208C9.95086 16.5215 9.95031 16.5222 9.94967 16.5229C9.5699 16.9114 8.95616 16.9108 8.57716 16.521C8.19753 16.1305 8.19753 15.4977 8.57716 15.1072L13.3889 10.157C13.7685 9.7664 13.7684 9.1332 13.3887 8.74272C13.009 8.35224 12.3934 8.35229 12.0138 8.74286L7.20211 13.693C6.06317 14.8645 6.06317 16.7637 7.2022 17.9352C8.34118 19.1067 10.1877 19.1067 11.3267 17.9352C11.328 17.9339 11.3291 17.9324 11.3303 17.931L21.2949 7.68177C23.0037 5.9242 23.0037 3.07498 21.2949 1.31741C19.5859 -0.439135 16.816 -0.439135 15.1083 1.31741L3.07497 13.7596C0.799281 16.1003 0.79928 19.8994 3.07661 22.243C5.35545 24.5857 9.04904 24.5857 11.3265 22.2432L23.0157 10.155C23.3944 9.7634 23.3927 9.13025 23.012 8.74075Z" fill="#D5D9E2"/>
</g>
</g>
</g>
<defs>
<clipPath id="clip0_236_700">
<rect width="23.3333" height="24" fill="white" transform="translate(0.666748)"/>
</clipPath>
</defs>
</svg>
