<svg width="210" height="149" viewBox="0 0 210 149" fill="none" xmlns="http://www.w3.org/2000/svg">
<g clip-path="url(#clip0_9915_2130)">
<path d="M192.638 119.152C192.641 134.589 185.752 148.849 185.752 148.849H22.7551C22.7551 148.849 -9.90834 80.3181 26.2795 40.9319C27.217 39.9129 28.1608 38.9314 29.1141 37.9876C29.3492 37.7525 29.5875 37.5173 29.8258 37.2884C30.0579 37.0626 30.2899 36.84 30.5219 36.6205C30.5721 36.5703 30.6223 36.5233 30.6724 36.4763C61.3165 7.6414 97.1218 18.5407 111.947 34.7611C114.242 37.2664 116.029 39.8972 117.224 42.5311C126.509 63.0253 134.197 70.3908 171.341 86.0844C184.793 91.7661 190.39 101.562 192.061 111.749C192.064 111.774 192.071 111.799 192.074 111.824C192.111 112.063 192.149 112.304 192.183 112.542C192.196 112.64 192.212 112.734 192.221 112.831C192.252 113.038 192.281 113.248 192.303 113.455C192.318 113.571 192.331 113.687 192.343 113.803C192.437 114.612 192.506 115.421 192.553 116.23C192.56 116.365 192.569 116.496 192.575 116.631C192.588 116.879 192.6 117.127 192.607 117.374C192.616 117.66 192.626 117.945 192.629 118.234C192.635 118.541 192.638 118.845 192.638 119.152Z" fill="#E8F0FF"/>
<path d="M192.638 119.152C192.641 134.589 185.752 148.849 185.752 148.849H22.7551C22.7551 148.849 -9.90834 80.3181 26.2795 40.9319C27.217 39.9129 28.1608 38.9314 29.1141 37.9876C29.3492 37.7525 29.5875 37.5173 29.8258 37.2884C30.0579 37.0626 30.2899 36.84 30.5219 36.6205C30.5721 36.5703 30.6223 36.5233 30.6724 36.4763C61.3165 7.6414 97.1218 18.5407 111.947 34.7611C101.537 31.8858 64.9413 31.6882 44.9613 56.4907C36.5736 66.904 34.9588 81.9203 40.6938 93.9986C46.4319 106.077 57.6699 114.819 69.8485 120.341C89.2421 129.136 111.856 130.607 132.228 124.398C141.967 121.429 151.126 116.804 160.781 113.562C170.435 110.323 180.996 108.504 190.776 111.342C191.205 111.467 191.635 111.602 192.061 111.749C192.064 111.774 192.071 111.799 192.074 111.824C192.111 112.063 192.149 112.304 192.183 112.542C192.196 112.64 192.212 112.734 192.221 112.831C192.252 113.038 192.281 113.248 192.303 113.455C192.318 113.571 192.331 113.687 192.343 113.803C192.437 114.612 192.506 115.421 192.553 116.23C192.56 116.365 192.569 116.496 192.575 116.631C192.588 116.879 192.6 117.127 192.607 117.374C192.616 117.66 192.626 117.945 192.629 118.234C192.635 118.541 192.638 118.845 192.638 119.152Z" fill="#F3FAFF"/>
<path d="M182.567 148.241L182.284 148.103C182.397 147.868 193.551 124.392 186.574 105.895C183.523 97.802 177.449 91.7879 168.519 88.0158C149.687 80.0608 139.575 74.6739 132.444 68.8009C124.819 62.5204 120.802 55.7193 116.44 46.093C111.599 35.4101 97.6299 26.251 82.4662 23.8241C63.3203 20.7575 44.4472 28.1355 29.3211 44.5973C11.4043 64.0976 11.4451 91.1984 14.6308 110.498C18.0863 131.425 25.8845 147.943 25.9629 148.106L25.6807 148.241C25.6023 148.075 17.7852 131.519 14.3236 110.548C12.2886 98.2284 12.1318 86.8149 13.8564 76.6305C16.0136 63.8875 21.1403 53.0415 29.0922 44.3841C44.2904 27.8439 63.2607 20.4314 82.5163 23.5137C97.7772 25.9563 111.843 35.1906 116.726 45.9613C125.606 65.5588 132.642 72.5197 168.638 87.7242C177.65 91.5308 183.78 97.6076 186.866 105.782C193.889 124.407 182.68 148 182.564 148.238L182.567 148.241Z" fill="#FDFFFE"/>
<path d="M102.684 75.7839V84.1089H0V75.7839C0 72.4226 3.39898 69.6978 7.58499 69.6978H95.0961C99.2884 69.6978 102.684 72.4226 102.684 75.7839Z" fill="#146C94"/>
<path d="M102.684 84.2156V143.209C102.684 146.319 99.2853 148.843 95.0961 148.843H7.58499C3.39898 148.843 0 146.319 0 143.209V84.2156H102.684Z" fill="#FDFFFE"/>
<path d="M31.5028 76.6959C31.8268 75.3187 30.9731 73.9395 29.5958 73.6155C28.2186 73.2914 26.8395 74.1452 26.5154 75.5224C26.1914 76.8997 27.0452 78.2788 28.4224 78.6028C29.7996 78.9269 31.1788 78.0731 31.5028 76.6959Z" fill="#F49F98"/>
<path d="M29.0699 64.4678H28.9414C28.0669 64.4678 27.3579 65.1767 27.3579 66.0512V75.6399C27.3579 76.5144 28.0669 77.2233 28.9414 77.2233H29.0699C29.9445 77.2233 30.6534 76.5144 30.6534 75.6399V66.0512C30.6534 65.1767 29.9445 64.4678 29.0699 64.4678Z" fill="#253B3E"/>
<path d="M17.5276 77.9159C18.528 76.9155 18.528 75.2935 17.5276 74.293C16.5272 73.2926 14.9051 73.2926 13.9047 74.293C12.9043 75.2935 12.9043 76.9155 13.9047 77.9159C14.9051 78.9164 16.5272 78.9164 17.5276 77.9159Z" fill="#F49F98"/>
<path d="M15.7814 64.4678H15.6528C14.7783 64.4678 14.0693 65.1767 14.0693 66.0512V75.6399C14.0693 76.5144 14.7783 77.2233 15.6528 77.2233H15.7814C16.6559 77.2233 17.3648 76.5144 17.3648 75.6399V66.0512C17.3648 65.1767 16.6559 64.4678 15.7814 64.4678Z" fill="#253B3E"/>
<path d="M46.0255 76.5079C46.2515 75.1112 45.3024 73.7958 43.9058 73.5699C42.5091 73.3439 41.1937 74.2929 40.9677 75.6896C40.7418 77.0863 41.6908 78.4017 43.0875 78.6276C44.4842 78.8536 45.7996 77.9046 46.0255 76.5079Z" fill="#F49F98"/>
<path d="M43.5597 64.4678H43.4311C42.5566 64.4678 41.8477 65.1767 41.8477 66.0512V75.6399C41.8477 76.5144 42.5566 77.2233 43.4311 77.2233H43.5597C44.4342 77.2233 45.1432 76.5144 45.1432 75.6399V66.0512C45.1432 65.1767 44.4342 64.4678 43.5597 64.4678Z" fill="#253B3E"/>
<path d="M60.5153 76.5057C60.7412 75.109 59.7922 73.7936 58.3955 73.5677C56.9988 73.3417 55.6834 74.2907 55.4575 75.6874C55.2315 77.0841 56.1806 78.3995 57.5772 78.6254C58.9739 78.8514 60.2893 77.9024 60.5153 76.5057Z" fill="#F49F98"/>
<path d="M58.0524 64.4678H57.9238C57.0493 64.4678 56.3403 65.1767 56.3403 66.0512V75.6399C56.3403 76.5144 57.0493 77.2233 57.9238 77.2233H58.0524C58.9269 77.2233 59.6358 76.5144 59.6358 75.6399V66.0512C59.6358 65.1767 58.9269 64.4678 58.0524 64.4678Z" fill="#253B3E"/>
<path d="M74.9789 76.6944C75.3029 75.3172 74.4491 73.938 73.0719 73.614C71.6947 73.29 70.3155 74.1437 69.9915 75.521C69.6675 76.8982 70.5212 78.2773 71.8985 78.6014C73.2757 78.9254 74.6548 78.0716 74.9789 76.6944Z" fill="#F49F98"/>
<path d="M72.5421 64.4678H72.4136C71.539 64.4678 70.8301 65.1767 70.8301 66.0512V75.6399C70.8301 76.5144 71.539 77.2233 72.4136 77.2233H72.5421C73.4166 77.2233 74.1256 76.5144 74.1256 75.6399V66.0512C74.1256 65.1767 73.4166 64.4678 72.5421 64.4678Z" fill="#253B3E"/>
<path d="M89.4948 76.5047C89.7207 75.1081 88.7717 73.7926 87.375 73.5667C85.9783 73.3407 84.6629 74.2898 84.437 75.6864C84.211 77.0831 85.1601 78.3985 86.5567 78.6245C87.9534 78.8504 89.2688 77.9014 89.4948 76.5047Z" fill="#F49F98"/>
<path d="M87.0314 64.4678H86.9028C86.0283 64.4678 85.3193 65.1767 85.3193 66.0512V75.6399C85.3193 76.5144 86.0283 77.2233 86.9028 77.2233H87.0314C87.9059 77.2233 88.6148 76.5144 88.6148 75.6399V66.0512C88.6148 65.1767 87.9059 64.4678 87.0314 64.4678Z" fill="#253B3E"/>
<path d="M15.7188 95.1619H6.11133V102.574H15.7188V95.1619Z" fill="#D1E8E6"/>
<path d="M15.7188 106.936H6.11133V114.349H15.7188V106.936Z" fill="#D1E8E6"/>
<path d="M15.7188 118.71H6.11133V126.123H15.7188V118.71Z" fill="#D1E8E6"/>
<path d="M15.7188 130.487H6.11133V137.9H15.7188V130.487Z" fill="#D1E8E6"/>
<path d="M10.4226 101.668L7.61621 98.125L8.50358 97.4227L10.41 99.8276L13.3136 96.0649L14.2104 96.7548L10.4226 101.668Z" fill="#FDFFFE"/>
<path d="M29.1924 95.1619H19.585V102.574H29.1924V95.1619Z" fill="#146C94"/>
<path d="M29.1924 106.936H19.585V114.349H29.1924V106.936Z" fill="#D1E8E6"/>
<path d="M29.1924 118.71H19.585V126.123H29.1924V118.71Z" fill="#D1E8E6"/>
<path d="M29.1924 130.487H19.585V137.9H29.1924V130.487Z" fill="#146C94"/>
<path d="M23.8965 101.668L21.0933 98.125L21.9806 97.4227L23.8871 99.8276L26.7906 96.0649L27.6874 96.7548L23.8965 101.668Z" fill="#FDFFFE"/>
<path d="M42.669 95.1619H33.0615V102.574H42.669V95.1619Z" fill="#D1E8E6"/>
<path d="M42.669 106.936H33.0615V114.349H42.669V106.936Z" fill="#D1E8E6"/>
<path d="M42.669 118.71H33.0615V126.123H42.669V118.71Z" fill="#D1E8E6"/>
<path d="M42.669 130.487H33.0615V137.9H42.669V130.487Z" fill="#D1E8E6"/>
<path d="M37.373 101.668L34.5698 98.125L35.4572 97.4227L37.3636 99.8276L40.2672 96.0649L41.164 96.7548L37.373 101.668Z" fill="#FDFFFE"/>
<path d="M56.146 95.1619H46.5386V102.574H56.146V95.1619Z" fill="#D1E8E6"/>
<path d="M56.146 106.936H46.5386V114.349H56.146V106.936Z" fill="#146C94"/>
<path d="M56.146 118.71H46.5386V126.123H56.146V118.71Z" fill="#D1E8E6"/>
<path d="M56.146 130.487H46.5386V137.9H56.146V130.487Z" fill="#D1E8E6"/>
<path d="M69.6226 95.1619H60.0151V102.574H69.6226V95.1619Z" fill="#D1E8E6"/>
<path d="M69.6226 106.936H60.0151V114.349H69.6226V106.936Z" fill="#D1E8E6"/>
<path d="M69.6226 118.71H60.0151V126.123H69.6226V118.71Z" fill="#D1E8E6"/>
<path d="M69.6226 130.487H60.0151V137.9H69.6226V130.487Z" fill="#D1E8E6"/>
<path d="M83.0996 95.1619H73.4922V102.574H83.0996V95.1619Z" fill="#F49F98"/>
<path d="M83.0996 106.936H73.4922V114.349H83.0996V106.936Z" fill="#F49F98"/>
<path d="M83.0996 118.71H73.4922V126.123H83.0996V118.71Z" fill="#F49F98"/>
<path d="M83.0996 130.487H73.4922V137.9H83.0996V130.487Z" fill="#F49F98"/>
<path d="M96.5762 95.1619H86.9688V102.574H96.5762V95.1619Z" fill="#F49F98"/>
<path d="M96.5762 106.936H86.9688V114.349H96.5762V106.936Z" fill="#F49F98"/>
<path d="M96.5762 118.71H86.9688V126.123H96.5762V118.71Z" fill="#F49F98"/>
<path d="M96.5762 130.487H86.9688V137.9H96.5762V130.487Z" fill="#F49F98"/>
<path d="M74.1192 149H8.83942C4.57189 149 1.09766 146.401 1.09766 143.205V81.679H1.41122V143.205C1.41122 146.228 4.74435 148.686 8.83942 148.686H74.1192V149Z" fill="#253B3E"/>
<path d="M92.9014 148.687H80.6914V149H92.9014V148.687Z" fill="#253B3E"/>
<path d="M116.986 19.7698L114.298 14.5804L116.082 12.906L117.763 16.2454L120.864 13.3387L122.445 21.2467L119.773 17.1547L116.986 19.7698Z" fill="#146C94"/>
<path d="M133.281 12.8966L135.805 7.62256L138.217 8.03959L136.561 11.3915L140.753 12.1127L135.395 18.1425L137.05 13.5457L133.281 12.8966Z" fill="#146C94"/>
<path d="M121.548 9.2249L121.212 1.11313L124.63 0L124.781 5.02635L130.72 3.09169L127.888 14.5962L126.888 7.48778L121.548 9.2249Z" fill="#146C94"/>
<path d="M121.682 0.169108L121.369 0.182129L121.446 2.05246L121.76 2.03944L121.682 0.169108Z" fill="#253B3E"/>
<path d="M121.714 8.49736L121.539 4.2894L121.852 4.27686L122.012 8.07092L126.211 6.7038L126.308 7.00168L121.714 8.49736Z" fill="#253B3E"/>
<path d="M127.512 7.63146L127.201 7.67505L127.876 12.4849L128.187 12.4413L127.512 7.63146Z" fill="#253B3E"/>
<path d="M159.316 144.72L158.159 134.441L151.706 134.981L153.66 144.557L159.316 144.72Z" fill="#EDA38F"/>
<path d="M119.228 55.3745C119.246 55.3808 123.232 56.1145 126.044 56.1396L125.853 58.692L148.621 55.9264L150.176 55.7382L159.88 54.5561C159.88 54.5561 155.105 44.7323 140.606 43.4656C140.518 43.4562 135.724 44.008 133.266 43.6286C126.813 42.6252 122.2 46.3284 121.09 44.1334C119.667 41.3208 125.583 38.527 125.583 38.527L123.451 34.3755C123.451 34.3755 115.518 36.0468 112.461 40.769C110.376 43.9892 108.247 52.2452 119.224 55.3745H119.228Z" fill="#453854"/>
<path d="M138.465 27.3831C138.465 27.3831 142.462 26.7685 141.729 33.4881C141.211 38.2385 139.424 39.2952 139.424 39.2952L138.941 35.2848L138.276 32.5882L136.938 28.8568L138.465 27.3831Z" fill="#302824"/>
<path d="M133.334 44.3059L133.849 39.6276L138.925 35.1782L140.609 43.6224C140.609 43.6224 135.015 48.6393 133.338 44.3028L133.334 44.3059Z" fill="#EDA38F"/>
<path d="M133.488 42.9106C136.727 42.8385 137.699 39.7625 137.699 39.7625L133.752 40.4899L133.488 42.9106Z" fill="#302824"/>
<path d="M128.603 33.3533C129.553 37.2728 130.462 42.8604 134.441 41.8821C138.797 40.8129 139.339 36.4482 139.135 33.253C139.032 31.6507 137.652 29.0827 133.883 29.4025C129.174 29.8039 128.22 31.7667 128.603 33.3502V33.3533Z" fill="#EDA38F"/>
<path d="M138.254 34.8427C138.101 34.0024 138.913 33.2561 139.706 33.5697C139.951 33.6669 140.176 33.8456 140.343 34.156C141.014 35.4134 140.161 36.6645 138.587 36.6676L138.251 34.8427H138.254Z" fill="#EDA38F"/>
<path d="M138.465 27.3832C134.172 22.5857 127.324 26.9787 127.43 30.6536C127.496 32.9739 128.751 34.0181 128.751 34.0181C128.321 32.6666 129.277 32.1305 129.277 32.1305C130.701 35.5827 136.58 33.7986 136.58 33.7986C137.414 34.8208 137.361 35.7301 137.361 35.7301C138.709 35.2786 138.327 34.225 139.104 33.8017C139.622 33.5195 140.18 33.8111 140.346 34.1498C140.672 34.8082 138.461 27.3832 138.461 27.3832H138.465Z" fill="#302824"/>
<path d="M133.585 34.8772C132.736 34.9619 131.97 34.8584 131.296 34.5605C129.65 33.8331 129.167 32.237 129.148 32.1712L129.409 32.0959C129.409 32.0959 129.879 33.6418 131.412 34.3159C132.742 34.9023 134.463 34.6891 136.523 33.6794L136.642 33.9209C135.529 34.4633 134.51 34.7831 133.588 34.8772H133.585Z" fill="#302824"/>
<path d="M134.937 145.077L134.495 134.727H128.026L129.299 144.889L134.937 145.077Z" fill="#EDA38F"/>
<path d="M124.088 140.145C124.088 140.145 119.573 116.289 119.983 107.635C120.379 99.2601 126.117 72.9588 126.117 72.9588L145.407 72.4038L136.317 111.163L137.935 139.7L124.091 140.145H124.088Z" fill="#817C7C"/>
<path d="M136.185 137.242L135.925 139.534L138.251 139.458L136.633 110.918L138.857 101.446L136.345 98.332L134.103 109.379L136.185 137.242Z" fill="#6D6464"/>
<path d="M130.143 75.5676L131.196 79.4025L131.434 80.2648L147.63 139.179L162.047 138.715L150.59 82.4471L149.95 79.3178L149.013 74.7085L130.143 75.5676Z" fill="#817C7C"/>
<path d="M123.285 137.492C123.285 137.492 133.99 139.436 139.28 136.981L139.374 140.035C134.388 141.518 129.387 141.481 123.379 140.546L123.285 137.492Z" fill="#817C7C"/>
<path d="M147.943 67.2772C147.937 67.2083 147.26 60.2661 143.359 55.2617L143.644 55.0171C147.62 60.1124 148.304 67.1675 148.31 67.2396L147.943 67.2772Z" fill="white"/>
<path d="M126.437 72.7175L127.484 77.9445C127.525 77.9727 127.565 78.0009 127.606 78.0292C128.873 78.9228 130.155 79.6597 131.435 80.2648C141.011 84.8052 150.327 82.0019 150.327 82.0019L150.59 82.4472L149.95 79.3179C150.668 79.1172 151.383 78.8946 152.095 78.6531L151.957 77.007L151.44 70.811L126.437 72.7175Z" fill="#6D6464"/>
<path d="M150.054 80.6411C150.054 80.6411 132.961 83.7642 124.916 76.3579C126.116 63.0285 129.478 50.458 133.272 43.6287C133.955 44.3216 134.686 44.9048 135.498 45.3093C135.777 45.4442 136.066 45.5602 136.367 45.6543C136.367 45.6543 138.838 44.8202 140.615 43.4688L150.054 80.638V80.6411Z" fill="#FDFFFE"/>
<path d="M157.338 82.1084C157.338 82.1084 149.229 86.9592 146.238 82.3216C143.25 77.6966 140.155 44.9611 140.155 44.9611L141.848 43.572L150.656 45.6948L150.935 59.1057L152.296 69.033L157.341 82.1084H157.338Z" fill="#453854"/>
<path d="M133.269 43.6284C133.168 44.0925 133.068 44.5597 132.968 45.0238C127.797 55.6189 125.834 74.7272 125.674 76.9973L124.521 76.3796L126.201 54.0981L133.269 43.6284Z" fill="#453854"/>
<path d="M151.991 78.4556C151.74 78.7566 150.975 79.7537 150.608 79.8948C150.27 80.0265 148.354 80.5094 148.492 80.9076C148.636 81.3246 149.887 80.7195 149.947 81.0675C149.984 81.2807 147.551 82.5099 147.902 82.9081C148.134 83.1684 149.505 82.2245 149.574 82.4033C149.636 82.5695 147.705 83.3816 148.028 83.7861C148.366 84.2094 150.06 82.6165 150.204 82.8203C150.276 82.9206 148.097 84.2533 148.37 84.5762C148.733 85.0089 150.295 83.4349 150.477 83.6199C150.568 83.7108 149.915 84.1655 149.564 84.4884C149.37 84.6672 149.48 84.8522 149.655 84.8083C151.458 84.3505 153.28 81.6664 153.55 81.5002C153.951 81.2556 154.531 81.0205 154.904 80.7696L151.985 78.4587L151.991 78.4556Z" fill="#EDA38F"/>
<path d="M123.683 34.8176L125.176 37.7243C125.59 37.4358 126.104 37.1035 126.358 37.0784C126.721 37.0408 128.697 37.0909 128.669 36.6708C128.644 36.2286 127.276 36.4795 127.308 36.1314C127.33 35.9151 130.001 35.3789 129.769 34.9023C129.619 34.5887 128.042 35.1343 128.023 34.943C128.007 34.7643 130.086 34.4978 129.882 34.0243C129.669 33.5258 127.612 34.6107 127.53 34.3724C127.487 34.2564 129.942 33.5508 129.763 33.1683C129.525 32.6541 127.606 33.7547 127.477 33.5289C127.414 33.4191 128.164 33.1526 128.587 32.9394C128.825 32.8171 128.766 32.6102 128.587 32.607C126.725 32.5663 124.254 34.6671 123.95 34.7549C123.868 34.7769 123.777 34.8019 123.686 34.8208L123.683 34.8176Z" fill="#EDA38F"/>
<path d="M150.167 77.8127C150.167 77.8127 157.996 65.6999 148.784 59.1183L142.208 43.6536C148.335 43.3965 155.873 47.3975 159.627 52.6872C165.904 61.5327 164.631 75.1192 154.083 81.8482L150.17 77.8095L150.167 77.8127Z" fill="#453854"/>
<path d="M125.988 53.4493C125.988 53.4493 118.092 55.2962 112.113 50.7966L112.163 50.9503C113.398 52.7407 115.596 54.3367 119.227 55.3746C119.246 55.3809 123.232 56.1177 126.041 56.1397L125.988 53.4525V53.4493Z" fill="#453854"/>
<path d="M126.041 51.9092L124.361 76.3718L124.68 76.3937L126.36 51.9311L126.041 51.9092Z" fill="#302824"/>
<path d="M147.476 139.223L147.783 139.136L134.335 89.9539L134.024 90.0385L147.476 139.223Z" fill="#302824"/>
<path d="M146.592 137.26C146.592 137.26 157.297 139.204 162.586 136.749L162.68 139.803C157.695 141.286 152.694 141.249 146.686 140.314L146.592 137.26Z" fill="#817C7C"/>
<path d="M155.66 138.16C158.529 138.16 160.567 137.862 162.656 136.893L162.521 136.602C157.335 139.01 146.733 137.119 146.62 137.1L146.567 137.417C146.849 137.464 151.283 138.157 155.663 138.157L155.66 138.16Z" fill="#302824"/>
<path d="M132.043 138.392C134.912 138.392 137.263 138.094 139.348 137.126L139.214 136.834C134.027 139.242 123.426 137.351 123.313 137.333L123.26 137.649C123.542 137.696 127.662 138.389 132.043 138.389V138.392Z" fill="#302824"/>
<path d="M160.056 148.925H145.243C144.729 148.925 144.315 148.489 144.353 147.975C144.353 147.968 144.353 147.962 144.353 147.956C144.362 147.843 144.378 147.727 144.394 147.611C144.444 147.216 144.551 146.824 144.736 146.576C145.438 145.645 146.802 145.219 149.232 144.256C150.756 143.651 152.051 142.845 152.622 142.469C152.807 142.346 153.045 142.375 153.208 142.531C156.137 145.394 157.936 144.786 158.473 143.604C158.883 142.704 159.466 142.892 159.626 143.155C160.119 143.98 160.391 146.401 160.501 147.614C160.514 147.746 160.526 147.865 160.533 147.959C160.548 148.185 160.561 148.323 160.561 148.323C160.614 148.639 160.373 148.928 160.053 148.928L160.056 148.925Z" fill="#253B3E"/>
<path d="M150.075 145.808C149.025 145.297 149.178 144.212 149.181 144.199L149.435 144.237C149.429 144.275 149.31 145.15 150.188 145.573L150.075 145.805V145.808Z" fill="#FDFFFE"/>
<path d="M148.774 146.247C147.805 145.701 147.909 144.758 147.915 144.717L148.169 144.748C148.166 144.783 148.084 145.563 148.899 146.024L148.774 146.247Z" fill="#FDFFFE"/>
<path d="M157.137 145.601C156.146 145.601 155.249 145.149 155.233 145.14L155.349 144.911C155.371 144.924 157.62 146.053 158.773 144.613L158.974 144.773C158.466 145.407 157.779 145.598 157.134 145.598L157.137 145.601Z" fill="#FDFFFE"/>
<path d="M135.943 148.925H121.131C120.616 148.925 120.203 148.489 120.24 147.975C120.24 147.968 120.24 147.962 120.24 147.956C120.25 147.843 120.265 147.727 120.281 147.611C120.331 147.216 120.438 146.824 120.623 146.576C121.325 145.645 122.689 145.219 125.119 144.256C126.643 143.651 127.938 142.845 128.509 142.469C128.694 142.346 128.932 142.375 129.095 142.531C132.024 145.394 133.824 144.786 134.36 143.604C134.77 142.704 135.354 142.892 135.514 143.155C136.006 143.98 136.279 146.401 136.388 147.614C136.401 147.746 136.414 147.865 136.42 147.959C136.435 148.185 136.448 148.323 136.448 148.323C136.501 148.639 136.26 148.928 135.94 148.928L135.943 148.925Z" fill="#253B3E"/>
<path d="M125.959 145.808C124.909 145.297 125.063 144.212 125.066 144.199L125.32 144.237C125.313 144.275 125.194 145.15 126.072 145.573L125.959 145.805V145.808Z" fill="#FDFFFE"/>
<path d="M124.661 146.247C123.692 145.701 123.796 144.758 123.802 144.717L124.056 144.748C124.053 144.783 123.971 145.563 124.787 146.024L124.661 146.247Z" fill="#FDFFFE"/>
<path d="M133.02 145.601C132.03 145.601 131.133 145.149 131.117 145.14L131.233 144.911C131.255 144.924 133.503 146.053 134.657 144.613L134.858 144.773C134.35 145.407 133.663 145.598 133.017 145.598L133.02 145.601Z" fill="#FDFFFE"/>
<path d="M147.868 49.837C148.276 46.6857 150.533 46.1495 150.627 46.1276L150.562 45.8203C150.536 45.8266 147.993 46.4161 147.558 49.7962L147.868 49.837Z" fill="#302824"/>
<path d="M162.01 67.1235C162.028 67.0545 163.678 60.1437 158.67 54.0701L158.429 54.2707C163.333 60.219 161.724 66.9824 161.705 67.0483L162.01 67.1235Z" fill="#302824"/>
<path d="M121.457 45.4252C122.777 45.4252 123.47 45.0113 123.511 44.9863L123.348 44.7197C123.348 44.7197 121.974 45.5256 119.416 44.8107L119.331 45.1117C120.162 45.3437 120.871 45.4252 121.457 45.4252Z" fill="#302824"/>
<path d="M146.896 113.969H146.918L146.909 113.656C146.874 113.656 143.011 113.709 140.424 109.88L140.164 110.056C142.751 113.885 146.579 113.966 146.896 113.966V113.969Z" fill="#302824"/>
<path d="M124.771 112.68L124.862 112.379C124.831 112.37 121.708 111.404 120.369 108.723L120.09 108.864C121.491 111.668 124.643 112.64 124.774 112.68H124.771Z" fill="#302824"/>
<path d="M86.7712 41.3928H68.6475V53.7721H86.7712V41.3928Z" fill="#FDFFFE"/>
<path d="M77.6907 49.768L68.541 41.5089L68.7511 41.2768L77.6907 49.3478L86.6647 41.2737L86.8748 41.5089L77.6907 49.768Z" fill="#253B3E"/>
<path d="M74.6776 46.8164L68.542 52.3545L68.7521 52.5873L74.8877 47.0491L74.6776 46.8164Z" fill="#253B3E"/>
<path d="M80.712 46.8188L80.5024 47.052L86.6646 52.5888L86.8742 52.3555L80.712 46.8188Z" fill="#253B3E"/>
<path d="M86.7684 43.9108C88.159 43.9108 89.2862 42.7835 89.2862 41.3929C89.2862 40.0023 88.159 38.875 86.7684 38.875C85.3778 38.875 84.2505 40.0023 84.2505 41.3929C84.2505 42.7835 85.3778 43.9108 86.7684 43.9108Z" fill="#146C94"/>
<path d="M85.6677 42.1862H85.467V40.8473L85.0625 40.9947V40.8128L85.6394 40.5964H85.6708V42.1862H85.6677Z" fill="#FDFFFE"/>
<path d="M87.2917 42.1862H86.2538V42.042L86.8025 41.4337C86.8841 41.3428 86.9405 41.2675 86.9719 41.2079C87.0032 41.1484 87.0189 41.0919 87.0189 41.0292C87.0189 40.9477 86.9938 40.8787 86.9436 40.8254C86.8935 40.7721 86.8276 40.747 86.743 40.747C86.6426 40.747 86.5642 40.7752 86.5109 40.8317C86.4545 40.8881 86.4263 40.9665 86.4263 41.07H86.2256C86.2256 40.9257 86.2726 40.8066 86.3667 40.7156C86.4608 40.6247 86.5862 40.5808 86.743 40.5808C86.8903 40.5808 87.0064 40.6184 87.091 40.6968C87.1757 40.7752 87.2196 40.8756 87.2196 41.0041C87.2196 41.1609 87.1192 41.3459 86.9217 41.5591L86.4984 42.02H87.2917V42.1831V42.1862Z" fill="#FDFFFE"/>
<path d="M87.7969 41.2957H87.9474C88.0415 41.2957 88.1167 41.2706 88.17 41.2204C88.2233 41.1734 88.2515 41.1076 88.2515 41.0229C88.2515 40.8379 88.1606 40.7438 87.9756 40.7438C87.8878 40.7438 87.8188 40.7689 87.7687 40.8191C87.7154 40.8692 87.6903 40.9351 87.6903 41.0166H87.4896C87.4896 40.8912 87.5366 40.7877 87.6276 40.7031C87.7185 40.6184 87.8345 40.5776 87.9756 40.5776C88.1261 40.5776 88.2421 40.6184 88.3268 40.6968C88.4115 40.7752 88.4554 40.8849 88.4554 41.026C88.4554 41.095 88.4334 41.1609 88.3895 41.2267C88.3456 41.2925 88.2829 41.3396 88.2076 41.3709C88.2954 41.3992 88.3613 41.4431 88.4083 41.5089C88.4554 41.5716 88.4804 41.65 88.4804 41.7441C88.4804 41.8852 88.4334 41.9981 88.3425 42.0827C88.2484 42.1674 88.1292 42.2081 87.9819 42.2081C87.8345 42.2081 87.7122 42.1674 87.6181 42.089C87.5241 42.0075 87.4771 41.9009 87.4771 41.7692H87.6777C87.6777 41.8538 87.7059 41.9197 87.7593 41.9698C87.8126 42.02 87.8878 42.0451 87.9787 42.0451C88.0759 42.0451 88.1512 42.02 88.2014 41.9698C88.2515 41.9197 88.2798 41.8475 88.2798 41.7503C88.2798 41.6531 88.2515 41.5873 88.1951 41.5371C88.1387 41.487 88.0571 41.4619 87.9505 41.4619H87.8V41.2988L87.7969 41.2957Z" fill="#FDFFFE"/>
<path d="M102.819 17.4214H84.6948V29.8007H102.819V17.4214Z" fill="#F4CB75"/>
<path d="M93.738 25.7966L84.5884 17.5375L84.8016 17.3054L93.7412 25.3764L102.715 17.3054L102.925 17.5375L93.738 25.7966Z" fill="#253B3E"/>
<path d="M90.7274 22.8535L84.5918 28.3916L84.8019 28.6244L90.9375 23.0862L90.7274 22.8535Z" fill="#253B3E"/>
<path d="M96.7589 22.8488L96.5493 23.082L102.711 28.6188L102.921 28.3856L96.7589 22.8488Z" fill="#253B3E"/>
<path d="M78.8712 11.1775L78.6416 11.3911L82.3534 15.3813L82.583 15.1677L78.8712 11.1775Z" fill="#302824"/>
<path d="M83.6436 10.9262L83.3574 11.0544L84.9463 14.5997L85.2324 14.4715L83.6436 10.9262Z" fill="#302824"/>
<path d="M78.515 16.2354L78.3916 16.5237L81.5971 17.8956L81.7205 17.6073L78.515 16.2354Z" fill="#302824"/>
<path d="M146.865 27.2295L151.27 27.9821C152.446 29.2332 153.989 30.1613 155.785 30.5846C160.661 31.7323 165.543 28.7095 166.691 23.8368C167.839 18.961 164.816 14.0789 159.943 12.9313C155.067 11.7836 150.185 14.8063 149.038 19.6791C148.727 21.0023 148.721 22.3255 148.978 23.5735L146.865 27.2264V27.2295Z" fill="#D1E8E6"/>
<path d="M153.512 21.9585C154.153 21.9585 154.672 21.4391 154.672 20.7984C154.672 20.1576 154.153 19.6382 153.512 19.6382C152.871 19.6382 152.352 20.1576 152.352 20.7984C152.352 21.4391 152.871 21.9585 153.512 21.9585Z" fill="#FDFFFE"/>
<path d="M159.307 20.7984C159.307 21.438 158.786 21.9585 158.146 21.9585C157.507 21.9585 156.986 21.438 156.986 20.7984C156.986 20.1587 157.507 19.6382 158.146 19.6382C158.786 19.6382 159.307 20.1587 159.307 20.7984Z" fill="#FDFFFE"/>
<path d="M163.944 20.7984C163.944 21.438 163.424 21.9585 162.784 21.9585C162.145 21.9585 161.624 21.438 161.624 20.7984C161.624 20.1587 162.145 19.6382 162.784 19.6382C163.424 19.6382 163.944 20.1587 163.944 20.7984Z" fill="#FDFFFE"/>
<path d="M150.59 16.0134L150.323 15.8472C152.418 12.4922 156.413 10.8491 160.263 11.7522C161.128 11.956 161.959 12.2821 162.724 12.7179L162.568 12.9907C161.828 12.5674 161.028 12.2539 160.191 12.0563C156.469 11.1815 152.609 12.7681 150.587 16.0103L150.59 16.0134Z" fill="#253B3E"/>
<path d="M158.169 29.9606C157.46 29.9606 156.745 29.879 156.036 29.7128C154.284 29.2989 152.71 28.399 151.48 27.104L150.336 26.9065L150.389 26.5961L151.64 26.8093L151.675 26.8469C152.866 28.1168 154.403 29.0011 156.112 29.4024C158.429 29.948 160.821 29.5592 162.844 28.305C164.869 27.0507 166.284 25.0879 166.829 22.7707C167.441 20.1681 166.864 17.4558 165.243 15.3268L165.49 15.1355C167.168 17.3398 167.767 20.1493 167.133 22.8428C166.569 25.2415 165.105 27.2765 163.01 28.5746C161.533 29.4902 159.868 29.9574 158.172 29.9574L158.169 29.9606Z" fill="#253B3E"/>
<path d="M148.984 26.6744L146.902 26.317L149.1 22.5198C148.843 21.2279 148.865 19.9141 149.173 18.616L149.477 18.6881C149.179 19.9611 149.157 21.2499 149.417 22.5166L149.43 22.5762L147.398 26.0881L149.035 26.3671L148.981 26.6776L148.984 26.6744Z" fill="#253B3E"/>
<path d="M186.957 124.028C186.957 124.028 187.267 119.331 191.707 119.124C196.454 118.905 198.988 123.978 199.091 128.211C199.091 128.211 188.248 129.707 186.96 124.028H186.957Z" fill="#49775E"/>
<path d="M185.991 119.83C185.991 119.83 190.566 121.532 194.871 119.086C199.179 116.641 198.646 110.736 198.646 110.206C198.646 109.677 194.764 107.654 191.309 108.93C187.853 110.206 186.097 116.214 185.884 119.62L185.991 119.833V119.83Z" fill="#79A4A5"/>
<path d="M183.921 106.714C183.921 106.714 177.503 107.808 174.427 100.618C172.79 95.9836 179.97 97.6047 181.977 99.9658C184.291 102.691 183.921 106.717 183.921 106.717V106.714Z" fill="#49775E"/>
<path d="M172.68 103.471C172.68 103.471 171.04 104.581 173.317 108.341C175.593 112.097 175.433 114.48 178.133 115.38C180.833 116.28 184.273 114.057 184.273 114.057C184.273 114.057 185.912 108.977 181.996 105.061C178.08 101.145 172.68 103.474 172.68 103.474V103.471Z" fill="#79A4A5"/>
<path d="M186.596 107.068C186.596 107.068 184.645 98.9811 189.064 95.9396C193.482 92.9012 197.552 94.6195 197.552 94.6195C197.552 94.6195 199.618 101.791 186.596 107.065V107.068Z" fill="#79A4A5"/>
<path d="M169.62 120.999C169.62 120.999 174.847 118.058 178.986 120.074C183.125 122.09 183.125 128.788 183.125 128.788C183.125 128.788 178.66 130.475 174.847 129.114C171.034 127.753 169.457 122.689 169.62 120.999Z" fill="#79A4A5"/>
<path d="M185.153 102.038H184.84V140.819H185.153V102.038Z" fill="#253A3D"/>
<path d="M198.681 128.321C198.634 128.274 194.031 123.602 190.077 123.489C190.014 123.489 189.951 123.489 189.888 123.489C186.151 123.489 185.163 126.725 185.122 126.863L184.821 126.775C184.834 126.737 185.953 123.059 190.089 123.178C194.172 123.294 198.718 127.907 198.909 128.104L198.687 128.324L198.681 128.321Z" fill="#253A3D"/>
<path d="M185.179 121.699L184.89 121.576C184.928 121.485 188.857 112.436 198.132 110.21L198.204 110.514C189.086 112.703 185.216 121.608 185.175 121.695L185.179 121.699Z" fill="#253A3D"/>
<path d="M184.887 132.281C180.726 122.677 170.197 121.225 170.09 121.209L170.131 120.899C170.238 120.911 180.943 122.385 185.176 132.156L184.887 132.281Z" fill="#253A3D"/>
<path d="M185.163 111.204L184.865 111.103C185.075 110.489 190.064 96.018 197.006 94.353L197.078 94.6572C190.302 96.2814 185.21 111.053 185.16 111.204H185.163Z" fill="#253A3D"/>
<path d="M185.169 118.88L184.856 118.864C185.32 108.413 172.809 103.876 172.68 103.829L172.784 103.534C172.912 103.578 185.643 108.193 185.166 118.88H185.169Z" fill="#253A3D"/>
<path d="M184.874 108.861C181.688 101.712 175.107 98.8494 175.041 98.8212L175.163 98.5327C175.229 98.5609 181.924 101.468 185.163 108.733L184.877 108.861H184.874Z" fill="#253A3D"/>
<path d="M193.911 140.402C193.911 143.823 192.513 146.862 190.349 148.755H179.767C177.603 146.858 176.205 143.823 176.205 140.402C176.205 139.079 176.412 137.815 176.794 136.652H193.322C193.704 137.812 193.911 139.079 193.911 140.402Z" fill="#146C94"/>
<path d="M191.349 148.288H180.707V147.975H191.23C192.945 146.451 194.115 144.253 194.532 141.779L194.842 141.832C194.413 144.4 193.187 146.68 191.396 148.251L191.352 148.288H191.349Z" fill="#253A3D"/>
<path d="M195.009 139.775H194.695C194.695 139.314 194.67 138.847 194.617 138.392C194.563 137.919 194.482 137.449 194.372 136.991L194.676 136.919C194.789 137.389 194.874 137.872 194.927 138.358C194.98 138.825 195.005 139.302 195.005 139.775H195.009Z" fill="#253A3D"/>
<path d="M189.415 138.214H177.421V138.527H189.415V138.214Z" fill="#253A3D"/>
<path d="M37.135 52.2734C43.6047 52.2734 48.8495 47.0286 48.8495 40.5588C48.8495 34.089 43.6047 28.8442 37.135 28.8442C30.6652 28.8442 25.4204 34.089 25.4204 40.5588C25.4204 47.0286 30.6652 52.2734 37.135 52.2734Z" fill="#F4CB75"/>
<path d="M38.8437 38.8061C39.2921 39.2294 39.3109 39.938 38.8876 40.3864C38.4643 40.8348 37.7557 40.8536 37.3073 40.4303C36.8589 40.007 36.8401 39.2984 37.2634 38.85C37.6867 38.4016 38.3953 38.3828 38.8437 38.8061Z" fill="#FDFFFE"/>
<path d="M38.3139 39.7812C38.1853 39.9192 37.969 39.9255 37.831 39.7938L32.3531 34.6107C32.2152 34.4821 32.2089 34.2657 32.3406 34.1278C32.4691 33.9898 32.6855 33.9835 32.8235 34.1152L38.3013 39.2984C38.4393 39.4269 38.4456 39.6433 38.3139 39.7812Z" fill="#FDFFFE"/>
<path d="M38.2135 39.4113C38.0755 39.2827 38.0692 39.0664 38.2009 38.9284L42.133 34.7706C42.2615 34.6326 42.4779 34.6264 42.6158 34.7581C42.7538 34.8866 42.7601 35.103 42.6284 35.2409L38.6964 39.3987C38.5678 39.5367 38.3514 39.543 38.2135 39.4113Z" fill="#FDFFFE"/>
<path d="M47.3037 39.8565V39.3831H45.5227V39.8565H47.3037Z" fill="#FDFFFE"/>
<path d="M30.6289 39.8565V39.3831H28.8479V39.8565H30.6289Z" fill="#FDFFFE"/>
<path d="M37.8405 48.8462H38.314V47.0652H37.8405V48.8462Z" fill="#FDFFFE"/>
<path d="M37.8405 32.1743H38.314V30.3933H37.8405V32.1743Z" fill="#FDFFFE"/>
<path d="M45.441 48.9309L45.2466 48.6863C48.0341 46.4788 49.6333 43.1739 49.6333 39.6213C49.6333 36.4356 48.2975 33.3595 45.974 31.1803L46.1873 30.9514C48.5766 33.1871 49.9468 36.3478 49.9468 39.6213C49.9468 43.2711 48.3038 46.6638 45.441 48.934V48.9309Z" fill="#253B3E"/>
<path d="M28.7408 32.8014L28.4868 32.6164C30.7162 29.5655 34.3033 27.7468 38.0754 27.7468C40.1669 27.7468 42.2207 28.2987 44.0205 29.3397L43.8637 29.6125C42.1141 28.5966 40.1104 28.0604 38.0754 28.0604C34.4005 28.0604 30.9106 29.832 28.7408 32.8014Z" fill="#253B3E"/>
<path d="M38.0754 51.4927C31.5283 51.4927 26.2041 46.1653 26.2041 39.6213H26.5177C26.5177 45.996 31.7039 51.1791 38.0754 51.1791C39.2732 51.1791 40.4553 50.9973 41.5842 50.6367L41.6782 50.9345C40.5181 51.3045 39.3046 51.4927 38.0723 51.4927H38.0754Z" fill="#253B3E"/>
<path d="M96.3506 149V148.686C100.449 148.686 103.782 146.228 103.782 143.205V88.4863H104.095V143.205C104.095 146.401 100.621 149 96.3506 149Z" fill="#253B3E"/>
<path d="M1.41122 75.784H1.09766C1.09766 72.3411 4.57189 69.541 8.83942 69.541V69.8546C4.74434 69.8546 1.41122 72.5136 1.41122 75.784Z" fill="#253B3E"/>
<path d="M63.593 83.9521H53.8257V84.2657H63.593V83.9521Z" fill="#253B3E"/>
<path d="M96.8143 83.9521H69.5942V84.2657H96.8143V83.9521Z" fill="#253B3E"/>
<path d="M104.095 81.914H103.782V75.784C103.782 72.5136 100.449 69.8546 96.3506 69.8546V69.541C100.621 69.541 104.095 72.3411 104.095 75.784V81.914Z" fill="#253B3E"/>
<path d="M134.194 45.6824H138.828L136.605 48.9779H135.737L134.194 45.6824Z" fill="#146C94"/>
<path d="M135.736 48.9778C135.736 48.9778 133.08 62.5486 133.162 69.2713L135.482 72.1529L137.956 69.2713C136.514 62.1473 136.602 48.9778 136.602 48.9778H135.736Z" fill="#146C94"/>
<path d="M136.364 45.6542C136.364 45.6542 139.512 44.4282 140.315 42.1863C140.315 42.1863 141.327 42.2929 142.049 43.5753C142.049 43.5753 141.327 47.2032 137.646 48.2975L136.364 45.6542Z" fill="#FDFFFE"/>
<path d="M134.655 48.2691C134.655 48.2691 131.773 46.1871 132.259 43.5219L133.372 43.4121C133.372 43.4121 135.241 45.3342 136.361 45.6541L134.652 48.2691H134.655Z" fill="#FDFFFE"/>
<path d="M137.69 48.448L137.599 48.147C141.145 47.0934 141.885 43.5784 141.892 43.5439L142.199 43.6035C142.193 43.6411 141.418 47.338 137.687 48.448H137.69Z" fill="#302824"/>
<path d="M134.564 48.3978C134.442 48.31 131.607 46.2279 132.106 43.4968L132.413 43.5533C131.949 46.09 134.718 48.125 134.746 48.1438L134.561 48.3978H134.564Z" fill="#302824"/>
<path d="M133.319 69.284L133.005 69.2652C133.012 69.1743 133.617 59.8835 135.73 49.0312L136.037 49.0908C133.93 59.9211 133.325 69.1931 133.319 69.284Z" fill="#302824"/>
<path d="M154.343 81.9611L150.213 77.8315L150.286 77.7249C150.317 77.6779 153.399 72.9933 153.459 67.9607H153.772C153.716 72.6609 151.082 77.0508 150.615 77.7908L154.562 81.7385L154.34 81.9611H154.343Z" fill="#302824"/>
<path d="M152.6 64.0915C151.772 61.6081 149.746 60.2378 149.728 60.2222L149.9 59.9619C149.988 60.0184 152.035 61.4106 152.898 63.9911L152.6 64.0915Z" fill="#302824"/>
<path d="M206.952 9.97435C206.952 10.451 206.623 10.8366 206.218 10.8366C205.814 10.8366 205.484 10.451 205.484 9.97435C205.484 9.49774 205.814 9.11206 206.218 9.11206C206.623 9.11206 206.952 9.49774 206.952 9.97435Z" fill="white"/>
<path d="M206.645 60.865H181.036C180.186 60.865 179.497 61.5543 179.497 62.4046V81.3153C179.497 82.1656 180.186 82.8549 181.036 82.8549H206.645C207.495 82.8549 208.184 82.1656 208.184 81.3153V62.4046C208.184 61.5543 207.495 60.865 206.645 60.865Z" fill="#D1E8E6"/>
<path d="M205.694 74.5548C205.635 74.5548 205.575 74.5391 205.525 74.5046L197.667 69.3936L194.212 71.0649C194.086 71.1244 193.933 71.0962 193.839 70.9896L188.326 64.6902L184.015 68.34C183.883 68.4529 183.686 68.4341 183.573 68.3024C183.46 68.1707 183.479 67.9732 183.61 67.8603L188.157 64.0129C188.289 63.9032 188.483 63.9157 188.596 64.0443L194.152 70.3938L197.551 68.7477C197.648 68.7006 197.767 68.7069 197.858 68.7665L205.867 73.9747C206.011 74.0688 206.052 74.2632 205.958 74.4074C205.898 74.4983 205.798 74.5516 205.694 74.5516V74.5548Z" fill="#146C94"/>
<path d="M206.782 74.9686L204.829 74.7961L205.763 73.1907L206.782 74.9686Z" fill="#146C94"/>
<path d="M188.515 65.2766H188.201V65.5902H188.515V65.2766Z" fill="#817C7C"/>
<path d="M188.515 78.0009H188.201V77.3801H188.515V78.0009ZM188.515 76.7592H188.201V76.1384H188.515V76.7592ZM188.515 75.5175H188.201V74.8967H188.515V75.5175ZM188.515 74.2758H188.201V73.655H188.515V74.2758ZM188.515 73.0341H188.201V72.4133H188.515V73.0341ZM188.515 71.7925H188.201V71.1716H188.515V71.7925ZM188.515 70.5508H188.201V69.9299H188.515V70.5508ZM188.515 69.3091H188.201V68.6882H188.515V69.3091ZM188.515 68.0674H188.201V67.4465H188.515V68.0674ZM188.515 66.8257H188.201V66.2048H188.515V66.8257Z" fill="#817C7C"/>
<path d="M188.515 78.6216H188.201V78.9351H188.515V78.6216Z" fill="#817C7C"/>
<path d="M194.199 71.6199H193.886V71.9334H194.199V71.6199Z" fill="#817C7C"/>
<path d="M194.199 78.0133H193.886V77.405H194.199V78.0133ZM194.199 76.7967H193.886V76.1884H194.199V76.7967ZM194.199 75.5801H193.886V74.9718H194.199V75.5801ZM194.199 74.3635H193.886V73.7552H194.199V74.3635ZM194.199 73.1469H193.886V72.5386H194.199V73.1469Z" fill="#817C7C"/>
<path d="M194.199 78.6216H193.886V78.9351H194.199V78.6216Z" fill="#817C7C"/>
<path d="M197.827 69.8733H197.514V70.1868H197.827V69.8733Z" fill="#817C7C"/>
<path d="M197.827 77.9725H197.514V77.3234H197.827V77.9725ZM197.827 76.6744H197.514V76.0253H197.827V76.6744ZM197.827 75.3762H197.514V74.7272H197.827V75.3762ZM197.827 74.0781H197.514V73.429H197.827V74.0781ZM197.827 72.78H197.514V72.1309H197.827V72.78ZM197.827 71.4818H197.514V70.8328H197.827V71.4818Z" fill="#817C7C"/>
<path d="M197.827 78.6216H197.514V78.9351H197.827V78.6216Z" fill="#817C7C"/>
<path d="M206.77 79.208H182.776C182.604 79.208 182.463 79.0669 182.463 78.8944V62.9029C182.463 62.7305 182.604 62.5894 182.776 62.5894C182.949 62.5894 183.09 62.7305 183.09 62.9029V78.5809H206.77C206.942 78.5809 207.084 78.722 207.084 78.8944C207.084 79.0669 206.942 79.208 206.77 79.208Z" fill="white"/>
<path d="M207.585 59.7676H201.257V60.0811H207.585V59.7676Z" fill="#253B3E"/>
<path d="M185.674 82.071H181.974C181.039 82.071 180.277 81.3122 180.277 80.3746V61.4608C180.277 60.5263 181.036 59.7644 181.974 59.7644H196.454V60.078H181.974C181.212 60.078 180.591 60.6988 180.591 61.4608V80.3746C180.591 81.1366 181.212 81.7574 181.974 81.7574H185.674V82.071Z" fill="#253B3E"/>
<path d="M207.585 82.0709H187.703V81.7574H207.585C208.347 81.7574 208.968 81.1365 208.968 80.3746V61.4607H209.282V80.3746C209.282 81.309 208.523 82.0709 207.585 82.0709Z" fill="#253B3E"/>
<path d="M187.784 36.2881H166.242C165.633 36.2881 165.139 36.7822 165.139 37.3918V48.8837C165.139 49.4933 165.633 49.9875 166.242 49.9875H187.784C188.393 49.9875 188.888 49.4933 188.888 48.8837V37.3918C188.888 36.7822 188.393 36.2881 187.784 36.2881Z" fill="#F4CB75"/>
<path d="M169.384 39.1885C168.999 39.1885 168.682 39.5459 168.682 39.9818V46.2937C168.682 46.7327 168.996 47.087 169.384 47.087H182.993C183.379 47.087 183.692 46.7296 183.692 46.2937V39.9818C183.692 39.5428 183.379 39.1885 182.993 39.1885H169.384Z" fill="#FDFFFE"/>
<path d="M182.676 47.3254H169.701C168.961 47.3254 168.356 46.6951 168.356 45.9238V40.355C168.356 39.5805 168.958 38.9534 169.701 38.9534H182.676C183.416 38.9534 184.018 39.5836 184.018 40.355V45.9238C184.018 46.6983 183.416 47.3254 182.676 47.3254ZM169.701 39.2638C169.134 39.2638 168.67 39.7529 168.67 40.3518V45.9206C168.67 46.5195 169.13 47.0087 169.701 47.0087H182.676C183.244 47.0087 183.705 46.5195 183.705 45.9206V40.3518C183.705 39.7498 183.244 39.2638 182.676 39.2638H169.701Z" fill="#253B3E"/>
<path d="M185.52 41.2298V45.0427C185.52 45.5005 185.169 45.8736 184.73 45.8736H183.843V40.3958H184.73C185.169 40.3958 185.52 40.7689 185.52 41.2267V41.2298Z" fill="#253B3E"/>
<path d="M171.661 39.8V46.4789H170.2C169.629 46.4789 169.165 46.09 169.165 45.6134V40.6655C169.165 40.1889 169.629 39.8 170.2 39.8H171.661Z" fill="#146C94"/>
</g>
<defs>
<clipPath id="clip0_9915_2130">
<rect width="209.279" height="149" fill="white"/>
</clipPath>
</defs>
</svg>
