<svg width="323" height="228" viewBox="0 0 323 228" fill="none" xmlns="http://www.w3.org/2000/svg">
<path opacity="0.4" d="M1 199.655L322 200.255" stroke="#D6D9DC" stroke-miterlimit="10" stroke-linecap="square"/>
<path opacity="0.4" d="M1 77.7178L322 78.3178" stroke="#D6D9DC" stroke-miterlimit="10" stroke-linecap="square"/>
<path opacity="0.4" d="M1 138.686L322 139.286" stroke="#D6D9DC" stroke-miterlimit="10" stroke-linecap="square"/>
<path opacity="0.4" d="M1 16.75L322 17.35" stroke="#D6D9DC" stroke-miterlimit="10" stroke-linecap="square"/>
<path d="M234.258 15.6643C237.067 12.8553 237.067 8.30095 234.258 5.49191C231.449 2.68286 226.894 2.68286 224.085 5.49191C221.276 8.30095 221.276 12.8553 224.085 15.6643C226.894 18.4734 231.449 18.4734 234.258 15.6643Z" fill="#F5F5F5"/>
<path d="M231.555 10.5818C231.555 11.0535 231.415 11.5146 231.153 11.9068C230.891 12.299 230.519 12.6047 230.083 12.7852C229.647 12.9657 229.168 13.013 228.705 12.9209C228.242 12.8289 227.817 12.6018 227.484 12.2682C227.15 11.9347 226.923 11.5097 226.831 11.0471C226.739 10.5844 226.786 10.1049 226.967 9.66907C227.147 9.23327 227.453 8.86079 227.845 8.59872C228.237 8.33666 228.698 8.19678 229.17 8.19678C229.803 8.19678 230.409 8.44805 230.857 8.89532C231.304 9.3426 231.555 9.94923 231.555 10.5818Z" fill="#455A64"/>
<path d="M22.2587 141.663C25.0677 138.854 25.0677 134.3 22.2587 131.491C19.4496 128.682 14.8953 128.682 12.0862 131.491C9.27718 134.3 9.27718 138.854 12.0862 141.663C14.8953 144.472 19.4496 144.472 22.2587 141.663Z" fill="#F5F5F5"/>
<path d="M19.5552 136.582C19.5552 137.053 19.4153 137.515 19.1532 137.907C18.8911 138.299 18.5187 138.605 18.0829 138.785C17.6471 138.966 17.1675 139.013 16.7049 138.921C16.2422 138.829 15.8173 138.602 15.4837 138.268C15.1502 137.935 14.923 137.51 14.831 137.047C14.739 136.584 14.7862 136.105 14.9667 135.669C15.1472 135.233 15.4529 134.861 15.8451 134.599C16.2373 134.337 16.6984 134.197 17.1702 134.197C17.8027 134.197 18.4093 134.448 18.8566 134.895C19.3039 135.343 19.5552 135.949 19.5552 136.582Z" fill="#455A64"/>
<path d="M296.172 21H241.172C235.097 21 230.172 25.9249 230.172 32V189C230.172 195.075 235.097 200 241.172 200H296.172C302.247 200 307.172 195.075 307.172 189V32C307.172 25.9249 302.247 21 296.172 21Z" fill="#F4C2AB"/>
<path d="M154.172 141H99.1719C93.0967 141 88.1719 145.925 88.1719 152V189C88.1719 195.075 93.0967 200 99.1719 200H154.172C160.247 200 165.172 195.075 165.172 189V152C165.172 145.925 160.247 141 154.172 141Z" fill="#D7E2F1"/>
<path d="M155.467 80.7703C155.359 80.8362 156.528 88.0311 156.528 88.0311C156.528 88.0311 152.722 96.8859 152.796 99.5272C152.87 102.169 152.684 110.471 152.684 110.471L157.603 110.522L162.289 91.7752C162.805 91.1787 163.169 90.4668 163.352 89.6997C163.444 88.765 164.567 77.8248 164.567 77.8248L160.947 74.8742L155.467 80.7703Z" fill="#455A64"/>
<path d="M162.35 91.4352C162.346 91.4705 162.149 91.4787 161.918 91.4486C161.688 91.4185 161.499 91.3705 161.505 91.3343C161.51 91.2982 161.7 91.2957 161.934 91.3218C162.169 91.3479 162.355 91.3981 162.35 91.4352Z" fill="#263238"/>
<g opacity="0.2">
<path d="M155.465 80.7674L155.549 81.6596L162.095 78.7787L164.37 79.825L164.512 78.4364L162.083 76.7812L155.465 80.7674Z" fill="black"/>
</g>
<path d="M154.343 109.484C154.339 109.436 154.34 109.388 154.346 109.34L154.379 108.93L154.525 107.42L155.051 102.445C155.131 101.714 155.209 101.009 155.281 100.362L155.291 100.383C154.807 99.0328 154.391 97.8638 154.088 97.0181C153.947 96.6119 153.834 96.2843 153.749 96.0396C153.715 95.9337 153.687 95.8476 153.663 95.778C153.651 95.7483 153.644 95.717 153.641 95.6852C153.658 95.7136 153.673 95.7438 153.685 95.7751C153.717 95.8425 153.746 95.9287 153.788 96.0307C153.879 96.2709 154.002 96.5937 154.157 96.9965C154.471 97.8446 154.901 99.0015 155.401 100.348L155.412 100.371L155.165 102.467L154.603 107.438L154.429 108.939L154.37 109.349C154.365 109.395 154.356 109.44 154.343 109.484Z" fill="white"/>
<path d="M158.568 101.009C157.899 101.088 157.223 101.086 156.554 101.004C156.886 100.944 157.224 100.923 157.561 100.944C157.898 100.926 158.236 100.948 158.568 101.01L158.568 101.009Z" fill="white"/>
<path d="M149.308 26.0527L152.819 36.227C153.384 37.9767 154.23 40.5646 156.955 39.5448C159.253 38.482 159.127 36.0106 158.589 34.3829C158.336 33.6092 158.13 32.9622 158.115 32.8793C158.819 32.5749 159.393 32.0336 159.739 31.3494C160.084 30.6652 160.179 29.8815 160.006 29.1347C159.694 27.8506 158.833 25.2625 158.022 22.9333C157.604 21.7256 156.747 20.7194 155.621 20.115C154.495 19.5105 153.182 19.3521 151.945 19.6712L151.688 19.7361C148.985 20.6015 148.358 23.3697 149.308 26.0527Z" fill="#FFCAB3"/>
<path d="M158.122 32.8762C156.902 33.1848 155.62 33.1376 154.426 32.7402C154.912 33.2676 155.552 33.6285 156.254 33.7715C156.957 33.9146 157.687 33.8326 158.34 33.5373L158.122 32.8762Z" fill="#EB996E"/>
<path d="M154.221 25.7976C153.946 25.7688 153.669 25.755 153.392 25.7564C152.937 25.7893 152.608 25.9393 152.555 25.9052C152.502 25.8711 152.583 25.8348 152.728 25.7643C152.939 25.672 153.166 25.6178 153.396 25.6044C153.619 25.5845 153.843 25.6089 154.056 25.6764C154.198 25.7289 154.245 25.7781 154.221 25.7976Z" fill="#263238"/>
<path d="M153.901 26.4853C153.926 26.578 153.915 26.6772 153.868 26.7613C153.821 26.8453 153.743 26.9075 153.65 26.9344C153.606 26.9496 153.559 26.9558 153.512 26.9526C153.465 26.9494 153.42 26.9369 153.378 26.9159C153.336 26.8948 153.299 26.8656 153.268 26.83C153.238 26.7944 153.215 26.753 153.201 26.7084C153.175 26.6156 153.187 26.5165 153.234 26.4324C153.281 26.3483 153.359 26.2861 153.451 26.2593C153.496 26.2441 153.543 26.2379 153.589 26.2411C153.636 26.2443 153.682 26.2567 153.724 26.2778C153.765 26.2988 153.803 26.328 153.833 26.3637C153.864 26.3993 153.887 26.4406 153.901 26.4853Z" fill="#263238"/>
<path d="M156.137 28.0898C156.336 27.9658 156.55 27.8676 156.773 27.7976C156.869 27.7507 156.964 27.7047 156.957 27.6434C156.94 27.5336 156.89 27.4316 156.814 27.3503L156.305 26.6398C155.846 26.045 155.438 25.413 155.084 24.7506C155.588 25.3085 156.046 25.9064 156.453 26.5384C156.627 26.7875 156.795 27.0281 156.954 27.2569C157.051 27.3653 157.106 27.5042 157.112 27.6494C157.106 27.6902 157.091 27.7292 157.069 27.7634C157.046 27.7975 157.015 27.8259 156.979 27.8462C156.926 27.8762 156.869 27.8993 156.81 27.9152C156.594 28.0009 156.367 28.0599 156.137 28.0898Z" fill="#263238"/>
<path d="M153.312 23.8887C153.305 24.0031 152.933 24.0422 152.526 24.2035C152.12 24.3648 151.808 24.5691 151.728 24.4932C151.693 24.4561 151.727 24.346 151.85 24.2113C152 24.0425 152.189 23.9125 152.4 23.8323C152.608 23.7498 152.833 23.7203 153.056 23.7465C153.217 23.7737 153.314 23.8355 153.312 23.8887Z" fill="#263238"/>
<path d="M157.687 23.3131C157.668 23.4059 157.3 23.4316 156.888 23.5566C156.476 23.6816 156.154 23.8496 156.085 23.78C156.054 23.7484 156.096 23.6554 156.217 23.5475C156.383 23.405 156.579 23.301 156.79 23.243C157 23.1792 157.221 23.1598 157.438 23.1862C157.602 23.2066 157.693 23.2612 157.687 23.3131Z" fill="#263238"/>
<path d="M150.036 27.9941C149.984 27.9864 147.983 27.9734 148.579 29.8419C148.636 30.0819 148.752 30.3037 148.917 30.4872C149.082 30.6707 149.29 30.81 149.523 30.8922C149.755 30.9745 150.005 30.9971 150.248 30.9581C150.492 30.919 150.721 30.8196 150.917 30.6687C150.903 30.6163 150.036 27.9941 150.036 27.9941Z" fill="#FFCAB3"/>
<path d="M150.12 30.1448C150.097 30.1721 150.072 30.1973 150.045 30.22C149.979 30.2782 149.892 30.3084 149.804 30.3043C149.659 30.2652 149.528 30.1889 149.422 30.083C149.317 29.9772 149.241 29.8455 149.202 29.701C149.146 29.5439 149.127 29.3764 149.144 29.2107C149.141 29.1457 149.153 29.0808 149.181 29.022C149.209 28.9632 149.251 28.9122 149.304 28.8738C149.338 28.8516 149.378 28.8422 149.419 28.8472C149.459 28.8522 149.496 28.8713 149.524 28.9011C149.548 28.9255 149.563 28.9571 149.568 28.991C149.571 28.9973 149.598 28.9452 149.559 28.8728C149.534 28.8294 149.493 28.7965 149.446 28.78C149.415 28.7685 149.381 28.7634 149.348 28.765C149.314 28.7666 149.282 28.7748 149.251 28.7892C149.179 28.8285 149.118 28.8859 149.074 28.9558C149.03 29.0257 149.005 29.1058 149.001 29.1882C148.972 29.3757 148.989 29.5673 149.05 29.7469C149.095 29.9161 149.188 30.0684 149.318 30.1848C149.449 30.3011 149.611 30.3763 149.784 30.4007C149.839 30.4006 149.893 30.388 149.942 30.3639C149.992 30.3399 150.035 30.305 150.069 30.2619C150.131 30.1905 150.128 30.1462 150.12 30.1448Z" fill="#EB996E"/>
<path d="M156.132 29.455C156.136 29.4041 155.753 29.4171 155.401 29.1738C155.252 29.0657 155.118 28.9384 155.002 28.7953C154.907 28.6839 154.839 28.6157 154.82 28.6249C154.801 28.6341 154.841 28.7261 154.91 28.8404C155.009 29.0158 155.146 29.1667 155.312 29.282C155.479 29.3976 155.675 29.4646 155.878 29.4757C156.041 29.4997 156.132 29.4707 156.132 29.455Z" fill="#263238"/>
<path d="M157.924 24.2078C157.896 24.2625 157.568 24.3401 157.197 24.6033C156.826 24.8665 156.616 25.1631 156.564 25.171C156.511 25.179 156.552 25.0989 156.643 24.9666C156.779 24.7806 156.944 24.6185 157.132 24.4868C157.311 24.3538 157.513 24.2554 157.728 24.1968C157.869 24.1656 157.94 24.1802 157.924 24.2078Z" fill="#263238"/>
<path d="M157.705 25.306C157.731 25.3979 157.72 25.4964 157.675 25.5806C157.63 25.6649 157.554 25.7283 157.463 25.7575C157.419 25.7726 157.372 25.7788 157.325 25.7756C157.278 25.7724 157.233 25.76 157.191 25.7389C157.149 25.7179 157.112 25.6887 157.081 25.653C157.051 25.6174 157.028 25.5761 157.014 25.5314C156.987 25.4386 156.998 25.3391 157.044 25.2542C157.09 25.1694 157.167 25.106 157.26 25.0778C157.304 25.0633 157.351 25.0578 157.397 25.0615C157.443 25.0651 157.488 25.0779 157.53 25.0992C157.571 25.1204 157.608 25.1496 157.638 25.1851C157.668 25.2206 157.691 25.2617 157.705 25.306Z" fill="#263238"/>
<path d="M160.742 19.439C160.675 19.3461 160.576 19.2823 160.464 19.2608C160.226 19.2372 159.986 19.2773 159.768 19.3771C159.203 19.554 158.606 19.6006 158.02 19.5134C158.167 19.3699 158.289 19.2037 158.382 19.0212C158.484 18.8345 158.533 18.6235 158.524 18.411C158.515 18.1985 158.447 17.9926 158.329 17.8157C158.309 17.7807 158.28 17.7509 158.246 17.7289C158.212 17.7069 158.173 17.6932 158.133 17.6889C158.004 17.6916 157.946 17.8368 157.894 17.9553C157.84 18.128 157.739 18.2826 157.603 18.4025C157.468 18.5225 157.302 18.6034 157.124 18.6366C156.883 18.7012 156.631 18.71 156.386 18.6621C156.376 18.6573 156.366 18.6517 156.357 18.6452C156.233 18.5813 156.113 18.5206 155.994 18.4639C155.292 18.0711 154.519 17.8206 153.719 17.7267C152.571 17.704 151.438 17.9875 150.435 18.5481C150.015 18.8036 149.679 19.1758 149.467 19.6193C149.254 20.0628 149.176 20.5584 149.24 21.0457C148.907 20.9429 148.553 20.9309 148.214 21.0109C147.874 21.0909 147.563 21.26 147.311 21.5009L147.298 21.507C147.025 21.7755 146.818 22.1041 146.694 22.4665C146.57 22.829 146.532 23.2154 146.583 23.595C146.587 23.638 146.591 23.6792 146.592 23.7208C146.487 24.1673 146.275 24.5818 145.975 24.9292C145.921 24.989 145.864 25.0613 145.881 25.1388C145.896 25.1761 145.92 25.2088 145.952 25.2338C145.984 25.2587 146.021 25.275 146.061 25.2811C146.266 25.3423 146.481 25.357 146.692 25.3243C146.686 25.5093 146.664 25.6934 146.626 25.8746C146.592 26.0317 146.555 26.2174 146.668 26.3317C146.715 26.3718 146.775 26.3961 146.837 26.4011C146.899 26.4061 146.961 26.3915 147.015 26.3594C147.122 26.2961 147.213 26.2108 147.284 26.109L147.241 26.732C147.503 26.691 147.751 26.5886 147.966 26.4331C148.301 27.0124 148.669 27.5713 149.07 28.1069C149.313 27.9901 149.591 27.9662 149.851 28.0398C150.164 28.1759 150.41 28.5465 150.754 28.2566C150.938 28.1042 150.968 27.6336 150.969 27.3943C150.956 25.8704 150.615 24.3671 149.969 22.9867C150.151 22.5895 150.408 22.231 150.725 21.9309L150.704 21.9669C151.279 21.3924 152.058 21.0671 152.871 21.0612C153.472 21.2335 154.034 21.5169 154.531 21.8967C155.013 22.1823 155.55 22.3645 156.106 22.4317C156.663 22.4989 157.228 22.4496 157.764 22.2869C158.126 23.0303 158.366 24.053 158.658 24.7604L158.927 23.3722C158.949 23.2682 158.961 23.1691 158.971 23.0703L158.977 23.0386C158.995 22.8796 159.009 22.7196 159.045 22.5608C159.155 22.6214 159.284 22.6359 159.405 22.601C159.525 22.5661 159.627 22.4848 159.688 22.3748C159.748 22.2649 159.763 22.1354 159.728 22.0148C159.693 21.8942 159.612 21.7924 159.502 21.7318C159.412 21.668 159.313 21.6184 159.208 21.5848C159.327 21.6421 159.459 21.6672 159.591 21.6576C159.723 21.648 159.85 21.604 159.96 21.5299C160.065 21.4534 160.143 21.3444 160.182 21.2196C160.22 21.0947 160.217 20.9607 160.172 20.838C160.134 20.7581 160.076 20.6895 160.003 20.6391C159.93 20.5887 159.845 20.5582 159.757 20.5506C160.085 20.4676 160.38 20.2891 160.606 20.0378C160.757 19.8775 160.88 19.6497 160.742 19.439Z" fill="#263238"/>
<path d="M150.158 21.078C150.09 21.18 150.031 21.2877 149.981 21.4C149.861 21.7156 149.824 22.0571 149.874 22.3913C149.903 22.6213 149.955 22.8478 150.03 23.0673C150.107 23.3065 150.212 23.5536 150.322 23.815C150.438 24.0893 150.538 24.3705 150.621 24.6571C150.664 24.8117 150.696 24.9695 150.716 25.1291C150.747 25.2934 150.735 25.4629 150.681 25.6211C150.653 25.6869 150.608 25.7443 150.551 25.7875C150.494 25.8307 150.427 25.8582 150.356 25.8673C150.223 25.8886 150.086 25.8637 149.969 25.7967C149.764 25.6517 149.601 25.4541 149.499 25.2248L149.555 25.2128C149.544 25.4334 149.5 25.6512 149.425 25.8591C149.35 26.0533 149.203 26.2112 149.015 26.3003C148.927 26.3422 148.829 26.3575 148.733 26.3444C148.645 26.3304 148.562 26.2913 148.496 26.2319C148.429 26.1725 148.381 26.0951 148.357 26.0091C148.335 25.9331 148.341 25.852 148.372 25.7794L148.406 25.7963C148.312 26.0242 148.171 26.2298 147.992 26.3994C147.931 26.4547 147.878 26.4962 147.843 26.5244C147.825 26.5366 147.805 26.5462 147.784 26.5529C147.798 26.5352 147.815 26.5198 147.834 26.5074C147.887 26.4699 147.934 26.4259 147.975 26.3764C148.145 26.2055 148.279 26.0019 148.368 25.778L148.404 25.7918C148.379 25.8604 148.377 25.9349 148.397 26.0049C148.417 26.0748 148.459 26.1368 148.516 26.1821C148.576 26.2373 148.652 26.2737 148.733 26.2867C148.819 26.2949 148.907 26.2799 148.986 26.2432C149.161 26.1573 149.296 26.0089 149.367 25.8276C149.436 25.624 149.478 25.4118 149.49 25.1969L149.498 25.1018L149.542 25.1917C149.64 25.4103 149.795 25.599 149.99 25.7388C150.095 25.7993 150.218 25.8226 150.338 25.805C150.398 25.7977 150.455 25.7748 150.503 25.7385C150.551 25.7023 150.589 25.654 150.613 25.5985C150.663 25.4498 150.674 25.2912 150.647 25.1369C150.628 24.9826 150.598 24.83 150.557 24.6802C150.475 24.396 150.376 24.1169 150.261 23.8444C150.155 23.5825 150.051 23.3328 149.974 23.0945C149.901 22.8703 149.851 22.6393 149.825 22.4051C149.778 22.0646 149.823 21.718 149.955 21.4006C150.004 21.2823 150.073 21.1733 150.158 21.078Z" fill="#455A64"/>
<path d="M158.982 20.9003L158.968 20.9248L158.918 20.9936C158.893 21.0316 158.864 21.0672 158.832 21.1001C158.792 21.1481 158.749 21.1932 158.703 21.2351C158.41 21.5089 158.053 21.705 157.664 21.8059C157.089 21.9593 156.481 21.9418 155.916 21.7557C155.229 21.5215 154.597 21.1499 154.059 20.6636C153.766 20.4146 153.509 20.1526 153.237 19.9083C152.985 19.6721 152.701 19.4734 152.393 19.3182C152.116 19.1765 151.808 19.1074 151.497 19.1175C151.359 19.1251 151.222 19.1539 151.093 19.2028C150.973 19.2511 150.86 19.3147 150.757 19.3921C150.58 19.5287 150.434 19.7009 150.327 19.8976C150.25 20.0468 150.196 20.207 150.167 20.3727C150.149 20.516 150.148 20.6608 150.165 20.8043L150.153 20.7791L150.137 20.6953C150.125 20.5877 150.125 20.4791 150.137 20.3715C150.162 20.2012 150.215 20.0362 150.293 19.8829C150.399 19.6793 150.547 19.5004 150.727 19.3579C150.833 19.2755 150.95 19.2081 151.074 19.1575C151.21 19.1036 151.352 19.0716 151.498 19.0625C151.817 19.051 152.134 19.1202 152.42 19.2639C152.737 19.4181 153.03 19.6179 153.29 19.8569C153.56 20.0959 153.825 20.375 154.111 20.6105C154.641 21.0915 155.261 21.4615 155.937 21.6987C156.493 21.8838 157.09 21.9052 157.658 21.7602C158.04 21.6654 158.394 21.4788 158.689 21.2167C158.793 21.1174 158.891 21.0117 158.982 20.9003Z" fill="#455A64"/>
<path d="M158.836 19.6888C158.818 19.7223 158.795 19.7533 158.769 19.7811C158.7 19.8645 158.625 19.9422 158.543 20.0136C158.425 20.1195 158.298 20.2151 158.164 20.2995C157.996 20.4023 157.818 20.4888 157.634 20.5579C157.448 20.626 157.257 20.6767 157.062 20.7095C156.902 20.7343 156.74 20.7455 156.578 20.743C156.471 20.7426 156.363 20.7336 156.257 20.716C156.181 20.704 156.136 20.6968 156.14 20.6893C156.145 20.6817 156.309 20.7031 156.58 20.6974C156.738 20.6922 156.895 20.6763 157.05 20.6499C157.24 20.614 157.427 20.5629 157.609 20.4968C157.789 20.4258 157.963 20.3409 158.13 20.2428C158.264 20.1606 158.393 20.0692 158.515 19.9695C158.712 19.8114 158.827 19.6806 158.836 19.6888Z" fill="#455A64"/>
<path d="M156.452 18.6813C155.712 17.9166 154.722 17.4435 153.662 17.3484C152.139 17.1942 150.609 17.5606 149.321 18.3879C148.411 19.1144 147.683 20.0428 147.194 21.0996C146.34 22.7084 145.656 24.4017 145.152 26.1522C144.895 27.144 144.946 28.191 145.3 29.1529C145.629 30.4462 146.396 31.5858 147.469 32.3784C148.937 33.6234 150.028 35.2935 151.813 36.0198C152.56 36.3236 153.539 36.475 154.078 35.8732C154.4 35.5062 156.54 35.9048 156.145 35.6449C155.196 34.9521 154.333 34.1488 153.574 33.2521C152.508 31.868 151.335 30.5607 150.354 29.1177C149.338 27.7187 148.676 26.0954 148.422 24.3856C148.212 22.6548 148.269 22.1241 149.251 21.063C149.251 21.063 149.87 18.4718 151.839 17.941C152.627 17.6927 153.468 17.668 154.269 17.8694C155.022 18.0672 155.753 18.3391 156.452 18.6813Z" fill="#656567"/>
<path d="M146.474 27.1846C146.5 27.2154 146.522 27.25 146.539 27.2872C146.589 27.3931 146.645 27.4958 146.707 27.5949C146.783 27.7137 146.855 27.8987 146.975 28.0815C147.095 28.2644 147.203 28.4891 147.345 28.7124C147.626 29.1773 147.987 29.7146 148.412 30.2905C148.881 30.9112 149.383 31.5071 149.915 32.0757C150.453 32.6371 151.021 33.1697 151.615 33.6711C152.171 34.1268 152.685 34.5194 153.133 34.8227C153.35 34.9761 153.562 35.1085 153.745 35.2275C153.928 35.3466 154.084 35.4439 154.213 35.5177L154.512 35.7059C154.549 35.7242 154.582 35.7481 154.611 35.7767C154.572 35.7653 154.534 35.7489 154.499 35.7277C154.417 35.6821 154.313 35.6292 154.191 35.5622C154.068 35.4952 153.89 35.4026 153.706 35.2799C153.522 35.1572 153.308 35.0432 153.095 34.8881C151.251 33.6708 149.64 32.1328 148.339 30.347C147.964 29.8303 147.616 29.2942 147.298 28.741C147.154 28.5105 147.044 28.2893 146.94 28.0986C146.836 27.9079 146.765 27.739 146.697 27.5997L146.543 27.2832C146.516 27.2532 146.493 27.2201 146.474 27.1846Z" fill="#263238"/>
<g opacity="0.3">
<path d="M153.292 35.0818C150.078 32.9733 147.567 29.9544 146.078 26.4111C146.503 28.3265 147.379 30.1127 148.634 31.621C149.889 33.1292 151.485 34.3158 153.292 35.0818Z" fill="black"/>
</g>
<g opacity="0.3">
<path d="M153.654 35.2283C153.532 35.1846 153.412 35.1315 153.292 35.0811C153.417 35.1624 153.544 35.2464 153.671 35.3269L153.654 35.2283Z" fill="black"/>
</g>
<path d="M149.617 18.4296C149.574 18.4678 149.529 18.503 149.481 18.5346C149.423 18.5693 149.368 18.6098 149.318 18.6555L149.105 18.8367C148.669 19.2398 148.319 19.7277 148.078 20.2707C147.724 21.0783 147.562 21.9568 147.604 22.8375C147.682 23.9132 147.976 24.9622 148.466 25.9226C148.954 26.8877 149.523 27.8102 150.165 28.6803C150.747 29.4913 151.281 30.2111 151.706 30.8439C152.042 31.3382 152.352 31.8503 152.633 32.378L152.847 32.8177C152.872 32.8678 152.893 32.9201 152.91 32.9739C152.876 32.9288 152.847 32.8802 152.824 32.829C152.774 32.7284 152.692 32.5871 152.59 32.4013C152.381 32.0333 152.062 31.5148 151.633 30.8941C151.203 30.2734 150.66 29.5535 150.068 28.7473C149.416 27.8758 148.842 26.9491 148.351 25.9777C147.851 25.002 147.556 23.9346 147.483 22.8408C147.446 21.9441 147.62 21.0512 147.994 20.235C148.245 19.6861 148.61 19.1971 149.066 18.8005L149.289 18.627C149.353 18.578 149.415 18.5447 149.462 18.5139C149.51 18.4791 149.562 18.4507 149.617 18.4296Z" fill="#263238"/>
<path d="M169.84 74.4307C169.84 74.4307 177.114 75.8491 178.037 76.3559C178.205 76.448 178.315 76.9259 178.315 76.9259C178.315 76.9259 176.216 80.2166 176.633 83.1481C177.051 86.0797 177.758 96.3938 177.758 96.3938C177.758 96.3938 182.573 96.9469 182.579 96.6383C182.584 96.3298 185.176 79.5766 185.441 78.1942C185.705 76.8118 186.143 74.8417 185.715 73.484C185.248 72.3779 184.55 71.3847 183.667 70.5712C182.784 69.7576 181.737 69.1426 180.596 68.7674C177.519 67.5971 173.185 65.7952 173.185 65.7952L166.549 70.8305L167.715 73.8686L169.835 74.4374" fill="#455A64"/>
<path d="M180.441 76.6498C180.077 76.5924 179.709 76.5729 179.341 76.5916C178.979 76.6515 178.623 76.75 178.282 76.8853C178.585 76.6508 178.947 76.5047 179.328 76.4632C179.709 76.4217 180.094 76.4863 180.441 76.6498Z" fill="#263238"/>
<path d="M179.701 95.8841C179.691 95.8332 179.684 95.7815 179.682 95.7296L179.651 95.2888C179.628 94.8905 179.597 94.3409 179.56 93.6648C179.491 92.2798 179.401 90.3924 179.303 88.3068L179.192 85.7067L179.204 85.7318C178.454 84.4955 177.809 83.4325 177.344 82.6656C177.125 82.2953 176.949 81.9974 176.819 81.7782L176.681 81.5393C176.664 81.5109 176.649 81.4807 176.637 81.4494C176.663 81.4722 176.684 81.4996 176.7 81.5301L176.85 81.7575C176.986 81.9736 177.174 82.2671 177.404 82.6287C177.879 83.3907 178.546 84.4397 179.302 85.6711L179.315 85.6981C179.35 86.4995 179.392 87.3792 179.434 88.2951C179.52 90.3824 179.598 92.2702 179.653 93.6559C179.677 94.3319 179.695 94.8827 179.707 95.2817L179.715 95.7228C179.717 95.7769 179.713 95.8312 179.701 95.8841Z" fill="white"/>
<path d="M182.98 85.381C182.312 85.459 181.637 85.4572 180.969 85.3755C181.301 85.316 181.64 85.2963 181.977 85.317C182.313 85.2975 182.65 85.3189 182.98 85.381Z" fill="white"/>
<g opacity="0.2">
<path d="M170.955 74.7331L171.103 74.0047L169.653 73.2049L171.97 73.0695L174.609 66.4783L172.841 66.0151L167.585 72.4747L169.941 74.5281L170.955 74.7331Z" fill="black"/>
</g>
<path d="M151.341 68.8052C151.341 68.8052 153.52 72.0653 155.491 73.0395C157.462 74.0138 162.035 75.3377 163.816 75.0295C165.775 74.9234 167.741 75.0315 169.677 75.3519L170.039 74.6262L167.876 72.4907L171.413 72.201L174.357 65.3227C174.357 65.3227 168.163 63.3626 166.477 62.6525C165.109 62.108 163.716 61.633 162.298 61.2275L151.837 67.8385L151.363 69.0702" fill="#263238"/>
<path d="M151.881 69.7733C151.881 69.7733 153.74 73.0944 154.648 73.717L154.832 81.1458L162.096 76.7749C162.096 76.7749 165.08 78.8026 165.155 78.8597C165.229 78.9168 166.713 75.0768 166.713 75.0768L161.414 68.6106L151.881 69.7733Z" fill="#263238"/>
<path d="M169.679 75.3523C169.614 75.3573 169.55 75.3549 169.486 75.345L168.943 75.2956L166.936 75.0987L165.554 74.9638C165.054 74.917 164.525 74.8432 163.966 74.8173C163.685 74.8041 163.4 74.7971 163.106 74.8035C162.812 74.8099 162.518 74.8485 162.211 74.8712C161.577 74.9183 160.941 74.9173 160.307 74.8682C159.078 74.7767 157.873 74.4886 156.736 74.0148C155.811 73.6282 154.947 73.1093 154.171 72.4745C153.647 72.0495 153.169 71.5694 152.747 71.0425C152.601 70.8545 152.489 70.7044 152.42 70.5999C152.396 70.608 152.37 70.6066 152.347 70.596C152.324 70.5854 152.306 70.5665 152.296 70.543C152.286 70.5194 152.286 70.4932 152.295 70.4694C152.304 70.4457 152.322 70.4263 152.345 70.4152C152.368 70.4041 152.394 70.4021 152.418 70.4095C152.442 70.417 152.463 70.4335 152.475 70.4555C152.488 70.4776 152.492 70.5036 152.486 70.5283C152.48 70.553 152.465 70.5745 152.444 70.5885C152.519 70.6899 152.634 70.8298 152.786 71.0156C153.219 71.5263 153.702 71.9929 154.227 72.4084C155.002 73.0262 155.86 73.5324 156.775 73.9123C157.906 74.3707 159.103 74.6479 160.32 74.7337C160.947 74.7814 161.577 74.7831 162.205 74.7388C162.505 74.7168 162.808 74.6783 163.107 74.6751C163.406 74.6719 163.691 74.6785 163.975 74.6971C164.544 74.7235 165.065 74.8067 165.569 74.8561L166.944 75.0183L168.945 75.2571L169.495 75.3227C169.557 75.328 169.618 75.3379 169.679 75.3523Z" fill="#455A64"/>
<path d="M171.576 71.5445C171.518 71.5485 171.46 71.5473 171.403 71.5409L170.912 71.5077C170.483 71.4805 169.869 71.4218 169.108 71.3496C167.585 71.1917 165.486 70.9183 163.186 70.5038C160.886 70.0892 158.825 69.6131 157.343 69.228C156.6 69.0339 156.003 68.8721 155.595 68.7525L155.121 68.6099C155.066 68.5969 155.012 68.5779 154.961 68.5532C155.017 68.5579 155.073 68.5679 155.128 68.5831L155.606 68.7007L157.375 69.1349C158.85 69.5029 160.922 69.9572 163.22 70.3726C165.518 70.788 167.609 71.0734 169.128 71.2532L170.928 71.4573L171.418 71.5147C171.471 71.5189 171.524 71.5289 171.576 71.5445Z" fill="white"/>
<path d="M171.976 70.7341C171.919 70.7374 171.862 70.736 171.805 70.7297L171.316 70.6933C170.893 70.6577 170.288 70.5955 169.538 70.5091C168.042 70.3363 165.976 70.0467 163.712 69.6245C161.449 69.2022 159.418 68.7278 157.958 68.3501C157.228 68.1614 156.639 68.0024 156.238 67.8918L155.773 67.7525C155.718 67.7395 155.664 67.7205 155.613 67.6958C155.669 67.7005 155.725 67.7108 155.778 67.7266C155.902 67.752 156.055 67.7943 156.25 67.8419L157.981 68.2685C159.451 68.624 161.49 69.0765 163.738 69.5062C165.987 69.9359 168.058 70.2305 169.551 70.4283L171.322 70.6522L171.804 70.7135C171.861 70.7136 171.918 70.7205 171.974 70.7341L171.976 70.7341Z" fill="white"/>
<path d="M172.072 49.8276C171.889 49.9463 171.687 50.0323 171.475 50.0817C171.25 50.1495 171.019 50.1993 170.786 50.2307C170.638 50.2644 170.483 50.249 170.344 50.1868C170.269 50.1458 170.206 50.0855 170.162 50.0121C170.118 49.9386 170.094 49.8548 170.094 49.7692C170.094 49.6842 170.116 49.6006 170.158 49.5266C170.2 49.4526 170.26 49.3907 170.333 49.3468C170.458 49.2735 170.596 49.2247 170.74 49.2029C170.97 49.1553 171.202 49.1202 171.435 49.0978C171.649 49.0636 171.867 49.0612 172.082 49.0906C172.089 49.105 171.84 49.1252 171.448 49.1874C171.251 49.2189 171.018 49.2586 170.765 49.3177C170.636 49.3411 170.513 49.3862 170.399 49.4512C170.345 49.4844 170.3 49.531 170.268 49.5866C170.237 49.6422 170.22 49.7049 170.22 49.7687C170.22 49.8317 170.237 49.8937 170.269 49.948C170.301 50.0024 170.347 50.0471 170.402 50.0774C170.517 50.127 170.644 50.1398 170.767 50.1142C170.996 50.0875 171.223 50.0477 171.447 49.9951C171.834 49.9011 172.064 49.8105 172.072 49.8276Z" fill="#EB996E"/>
<path d="M162.574 48.6297L167.612 47.897L167.922 51.4169C167.922 51.4169 162.881 53.6818 161.954 53.9075C161.027 54.1332 160.376 52.7553 160.376 52.7553L162.574 48.6297Z" fill="#656567"/>
<path d="M167.289 48.3307L167.934 46.0621L169.552 45.297C170.097 45.2687 170.638 45.1965 171.171 45.0811C171.205 45.1711 171.213 45.2689 171.194 45.3633C171.176 45.4578 171.131 45.5451 171.065 45.6154C171.065 45.6154 171.635 45.3377 171.855 45.4687C172.074 45.5998 172.045 46.087 171.973 46.3967C172.107 46.5568 172.216 46.7365 172.295 46.9295C172.377 47.1262 172.397 47.3428 172.354 47.5513L172.114 47.883C172.207 47.9123 172.288 47.9687 172.348 48.045C172.408 48.1212 172.443 48.2137 172.45 48.3104C172.436 48.5638 172.355 48.8089 172.215 49.0209C172.215 49.0209 172.571 49.0009 172.604 49.2874C172.631 49.393 172.631 49.5037 172.605 49.6095C172.579 49.7153 172.528 49.8131 172.455 49.8942C171.778 50.4276 171.038 50.8751 170.252 51.2267C169.826 51.3095 167.929 51.4018 167.929 51.4018L167.289 48.3307Z" fill="#FFCAB3"/>
<path d="M172.027 46.4597C172.036 46.4786 171.77 46.5483 171.365 46.6989C171.16 46.775 170.929 46.8697 170.662 47.0002C170.534 47.0624 170.4 47.1277 170.263 47.2099C170.112 47.309 169.93 47.3486 169.752 47.3209C169.704 47.3092 169.658 47.288 169.618 47.2587C169.578 47.2293 169.544 47.1924 169.519 47.1499C169.472 47.0684 169.453 46.9742 169.463 46.881C169.472 46.7979 169.498 46.7175 169.539 46.6446C169.58 46.5718 169.635 46.5079 169.701 46.4568C169.811 46.3701 169.928 46.2925 170.05 46.2247L170.361 46.0423C170.56 45.9136 170.771 45.8025 170.99 45.7102C170.81 45.8643 170.616 46.0013 170.41 46.1193C170.232 46.2427 169.991 46.3703 169.78 46.5453C169.726 46.5882 169.682 46.6415 169.649 46.702C169.616 46.7625 169.596 46.829 169.589 46.8975C169.578 46.9638 169.592 47.0319 169.628 47.0885C169.664 47.1451 169.72 47.1862 169.785 47.2036C169.933 47.2233 170.083 47.1897 170.208 47.1087C170.348 47.0404 170.482 46.9621 170.627 46.9046C170.862 46.7948 171.104 46.7005 171.351 46.6222C171.567 46.5373 171.795 46.4826 172.027 46.4597Z" fill="#EB996E"/>
<path d="M172.063 47.7466C172.071 47.7637 171.872 47.8109 171.565 47.9325C171.169 48.1081 170.754 48.2341 170.327 48.3075C170.203 48.3343 170.078 48.352 169.951 48.3605C169.874 48.3643 169.798 48.3405 169.737 48.2934C169.689 48.2519 169.649 48.2021 169.619 48.1464C169.586 48.0946 169.563 48.0365 169.554 47.9758C169.548 47.9214 169.549 47.8666 169.558 47.8126C169.571 47.7183 169.602 47.6274 169.65 47.5452C169.717 47.4251 169.819 47.3277 169.942 47.2651C170.031 47.2213 170.083 47.2196 170.084 47.2267C169.94 47.3131 169.821 47.4363 169.74 47.5837C169.701 47.658 169.677 47.7392 169.669 47.8227C169.666 47.8686 169.667 47.9149 169.674 47.9605C169.686 48.0037 169.705 48.0443 169.732 48.08C169.757 48.1225 169.789 48.1604 169.826 48.1924C169.864 48.2176 169.909 48.2294 169.954 48.2259C170.071 48.2136 170.188 48.1939 170.303 48.1669C170.722 48.091 171.134 47.9773 171.532 47.8271C171.702 47.7663 171.883 47.739 172.063 47.7466Z" fill="#EB996E"/>
<path d="M172.222 48.9528C171.98 49.0286 171.732 49.0836 171.48 49.1173L170.663 49.2561C170.5 49.2921 170.333 49.3066 170.166 49.2993C170.069 49.2863 169.977 49.2456 169.902 49.1821C169.861 49.1468 169.829 49.1027 169.808 49.0532C169.787 49.0037 169.778 48.9501 169.781 48.8964C169.792 48.7985 169.828 48.7052 169.885 48.6249C169.941 48.5446 170.018 48.4801 170.107 48.4373C170.253 48.3617 170.403 48.2937 170.557 48.2335C170.812 48.1241 171.074 48.0334 171.342 47.962C171.523 47.9156 171.707 47.8846 171.893 47.8693C171.962 47.8578 172.031 47.8588 172.099 47.8723C172.109 47.8912 171.811 47.9118 171.364 48.0495C171.104 48.1306 170.848 48.2264 170.599 48.3363C170.463 48.4025 170.306 48.4635 170.169 48.5457C170.1 48.5789 170.04 48.6286 169.995 48.6905C169.95 48.7523 169.92 48.8244 169.909 48.9004C169.912 48.9726 169.941 49.0413 169.992 49.0926C170.043 49.1438 170.112 49.1736 170.184 49.176C170.34 49.1828 170.497 49.1693 170.649 49.1361L171.466 49.0188C171.715 48.9741 171.967 48.9508 172.22 48.9492L172.222 48.9528Z" fill="#EB996E"/>
<path d="M171.103 45.5958C170.81 45.9027 170.448 46.1337 170.046 46.2688C169.967 46.3029 169.886 46.3325 169.804 46.3575L169.688 46.3908L169.652 46.4083C169.642 46.4101 169.633 46.4147 169.625 46.4214C169.574 46.5451 169.51 46.6632 169.434 46.7737C169.371 46.8829 169.279 46.9727 169.169 47.033C169.225 46.9255 169.289 46.8224 169.361 46.7246C169.425 46.6086 169.482 46.4892 169.532 46.3668C169.545 46.3426 169.565 46.3223 169.589 46.3079L169.656 46.275L169.77 46.2409C169.844 46.2179 169.921 46.1848 169.989 46.1595C170.302 46.025 170.574 45.8748 170.773 45.7776C170.877 45.7066 170.987 45.6457 171.103 45.5958Z" fill="#EB996E"/>
<path d="M169.473 48.1642C169.458 48.1712 169.459 48.0675 169.427 47.9272C169.376 47.7378 169.314 47.5515 169.241 47.3693C169.174 47.1913 169.067 47.0307 168.929 46.8996C168.818 46.8001 168.731 46.7657 168.737 46.734C168.743 46.7023 168.844 46.7261 168.981 46.8143C169.153 46.9386 169.285 47.1107 169.36 47.3093C169.437 47.499 169.489 47.6978 169.516 47.9008C169.535 48.0772 169.495 48.1747 169.473 48.1642Z" fill="#EB996E"/>
<path d="M166.375 48.0763L167.239 51.7177L167.921 51.4144L167.405 47.9272L166.375 48.0763Z" fill="#263238"/>
<path d="M167.378 47.5342L165.797 47.646L165.832 48.1388L167.413 48.0269L167.378 47.5342Z" fill="#263238"/>
<g filter="url(#filter0_d_6092_544)">
<path d="M184.05 96.3194L184.074 96.6949C184.074 96.6949 190.567 98.8556 190.707 100.05L178.118 100.751L178.52 96.5364C179.396 96.9312 180.351 97.1171 181.311 97.0794C182.27 97.0418 183.208 96.7816 184.05 96.3194Z" fill="#263238"/>
</g>
<path d="M177.172 99.6828L177.266 98.6725L189.187 98.3743C189.187 98.3743 189.757 98.5868 189.718 98.9844L177.172 99.6828Z" fill="#E0E0E0"/>
<path d="M183.153 95.6699C183.154 95.7316 182.85 95.7763 182.559 95.9903C182.268 96.2042 182.121 96.4625 182.066 96.453C182.01 96.4435 182.078 96.0734 182.434 95.8199C182.79 95.5664 183.166 95.611 183.153 95.6699Z" fill="#E0E0E0"/>
<path d="M184.493 96.1422C184.52 96.197 184.253 96.3195 184.059 96.5899C183.864 96.8603 183.821 97.1385 183.76 97.1405C183.698 97.1426 183.641 96.7967 183.889 96.4634C184.137 96.13 184.495 96.0814 184.493 96.1422Z" fill="#E0E0E0"/>
<path d="M185.332 97.6749C185.282 97.6995 185.175 97.3888 185.314 97.0428C185.454 96.6967 185.731 96.5497 185.761 96.6028C185.791 96.6559 185.619 96.8433 185.513 97.1253C185.406 97.4073 185.394 97.6626 185.332 97.6749Z" fill="#E0E0E0"/>
<path d="M183.225 95.6346C183.23 95.6072 183.232 95.5793 183.231 95.5515C183.228 95.4694 183.217 95.3878 183.2 95.3074C183.137 95.0187 183.006 94.7492 182.817 94.5217C182.756 94.445 182.688 94.3738 182.615 94.309C182.537 94.2321 182.446 94.1695 182.346 94.1242C182.289 94.0994 182.228 94.0868 182.166 94.087C182.132 94.089 182.098 94.0977 182.068 94.1128C182.037 94.1278 182.009 94.1488 181.986 94.1746C181.947 94.2301 181.922 94.2953 181.916 94.3634C181.91 94.4315 181.923 94.5 181.953 94.5616C182.056 94.8025 182.208 95.0198 182.398 95.1999C182.597 95.4066 182.855 95.5463 183.137 95.5997C183.285 95.6152 183.435 95.5882 183.568 95.5219C183.692 95.4614 183.809 95.387 183.916 95.3C184.125 95.1446 184.31 94.9594 184.465 94.7502C184.503 94.6945 184.527 94.6307 184.535 94.5639C184.544 94.4972 184.536 94.4294 184.514 94.3661C184.488 94.3024 184.441 94.2502 184.38 94.2189C184.321 94.1929 184.256 94.1857 184.194 94.1982C184.082 94.2195 183.98 94.2775 183.904 94.3629C183.829 94.4382 183.771 94.5109 183.711 94.5837C183.529 94.8133 183.381 95.0673 183.27 95.3381C183.231 95.4348 183.209 95.5101 183.192 95.5627C183.176 95.6153 183.174 95.6417 183.178 95.6453C183.182 95.6489 183.223 95.5402 183.311 95.3582C183.434 95.099 183.591 94.8565 183.776 94.6367C183.88 94.4782 184.031 94.3571 184.209 94.2909C184.253 94.2814 184.299 94.2878 184.339 94.3091C184.379 94.3304 184.41 94.3652 184.427 94.4072C184.443 94.4565 184.447 94.5088 184.439 94.56C184.431 94.6111 184.411 94.6597 184.381 94.7019C184.231 94.8982 184.054 95.0719 183.854 95.218C183.761 95.3075 183.651 95.3777 183.531 95.4247C183.411 95.4717 183.282 95.4944 183.153 95.4917C182.896 95.4423 182.66 95.3144 182.478 95.1256C182.298 94.9576 182.154 94.7556 182.053 94.5313C182.015 94.4254 182.005 94.309 182.064 94.2456C182.099 94.2171 182.141 94.1997 182.185 94.1958C182.23 94.1918 182.274 94.2015 182.313 94.2236C182.403 94.2641 182.486 94.3192 182.558 94.3867C182.631 94.4467 182.698 94.5131 182.758 94.5851C182.942 94.8036 183.076 95.0598 183.149 95.3355C183.21 95.5195 183.21 95.6363 183.225 95.6346Z" fill="#E0E0E0"/>
<path d="M178.875 97.0796C178.864 97.1162 179.438 97.267 180.107 97.5319C180.274 97.6003 180.423 97.6778 180.572 97.7433C180.706 97.8105 180.856 97.8356 181.004 97.8153C181.107 97.7985 181.199 97.7443 181.264 97.6632C181.305 97.6042 181.306 97.5626 181.3 97.5603C181.263 97.609 181.217 97.6497 181.165 97.6798C181.112 97.7099 181.053 97.7287 180.993 97.7351C180.864 97.7439 180.736 97.7169 180.621 97.6571C180.478 97.5921 180.325 97.5055 180.157 97.4385C179.866 97.3214 179.568 97.226 179.263 97.1529C179.139 97.1081 179.007 97.0834 178.875 97.0796Z" fill="#E0E0E0"/>
<g filter="url(#filter1_d_6092_544)">
<path d="M159.466 111.179L159.387 111.552C159.387 111.552 165.123 115.286 164.953 116.482L152.595 113.97L153.609 109.893C154.436 110.515 155.387 110.952 156.397 111.174C157.408 111.396 158.454 111.398 159.466 111.179Z" fill="#263238"/>
</g>
<path d="M151.851 112.691L152.09 111.713L163.804 114.471C163.804 114.471 164.308 114.82 164.157 115.196L151.851 112.691Z" fill="#E0E0E0"/>
<path d="M158.662 110.322C158.647 110.382 158.34 110.346 158.005 110.481C157.67 110.615 157.462 110.833 157.411 110.799C157.36 110.765 157.521 110.434 157.938 110.283C158.355 110.132 158.685 110.269 158.662 110.322Z" fill="#E0E0E0"/>
<path d="M159.845 111.116C159.847 111.178 159.566 111.227 159.308 111.441C159.051 111.654 158.941 111.91 158.886 111.905C158.832 111.901 158.858 111.543 159.18 111.285C159.502 111.027 159.854 111.06 159.845 111.116Z" fill="#E0E0E0"/>
<path d="M160.264 112.813C160.205 112.816 160.182 112.498 160.409 112.198C160.636 111.899 160.94 111.828 160.952 111.881C160.965 111.934 160.757 112.077 160.579 112.322C160.4 112.567 160.324 112.817 160.264 112.813Z" fill="#E0E0E0"/>
<path d="M158.742 110.306C158.752 110.28 158.759 110.254 158.766 110.227C158.783 110.148 158.794 110.068 158.799 109.988C158.816 109.692 158.761 109.397 158.639 109.127C158.599 109.037 158.552 108.951 158.498 108.869C158.441 108.775 158.369 108.692 158.284 108.622C158.236 108.584 158.18 108.556 158.12 108.541C158.086 108.533 158.052 108.532 158.017 108.537C157.983 108.543 157.951 108.555 157.921 108.574C157.868 108.617 157.828 108.675 157.804 108.739C157.781 108.804 157.776 108.874 157.789 108.942C157.828 109.201 157.92 109.449 158.059 109.671C158.198 109.921 158.412 110.122 158.671 110.244C158.812 110.299 158.965 110.314 159.113 110.288C159.249 110.26 159.381 110.217 159.507 110.16C159.75 110.063 159.976 109.93 160.178 109.765C160.228 109.721 160.267 109.666 160.292 109.604C160.316 109.542 160.326 109.475 160.32 109.408C160.315 109.339 160.284 109.275 160.233 109.228C160.183 109.187 160.122 109.161 160.057 109.156C159.943 109.151 159.83 109.182 159.735 109.245C159.651 109.295 159.57 109.349 159.492 109.408C159.257 109.583 159.049 109.792 158.875 110.028C158.827 110.091 158.783 110.157 158.742 110.225C158.727 110.248 158.715 110.273 158.706 110.299C158.706 110.299 158.775 110.211 158.91 110.052C159.094 109.833 159.305 109.638 159.539 109.473C159.68 109.344 159.858 109.265 160.048 109.248C160.093 109.25 160.137 109.269 160.17 109.3C160.204 109.331 160.225 109.373 160.23 109.419C160.233 109.472 160.223 109.524 160.201 109.572C160.18 109.62 160.146 109.662 160.105 109.694C159.91 109.846 159.694 109.97 159.465 110.061C159.352 110.124 159.228 110.164 159.099 110.18C158.971 110.195 158.841 110.184 158.716 110.148C158.479 110.036 158.283 109.852 158.156 109.623C158.024 109.416 157.935 109.183 157.896 108.94C157.886 108.834 157.899 108.717 157.978 108.667C158.02 108.648 158.066 108.641 158.111 108.648C158.157 108.655 158.199 108.676 158.233 108.706C158.309 108.769 158.375 108.844 158.428 108.927C158.483 109.005 158.53 109.086 158.571 109.171C158.696 109.428 158.76 109.71 158.759 109.995C158.757 110.192 158.726 110.306 158.742 110.306Z" fill="#E0E0E0"/>
<path d="M154.167 110.601C154.147 110.634 154.664 110.924 155.244 111.352C155.39 111.46 155.515 111.572 155.643 111.676C155.755 111.774 155.894 111.836 156.042 111.855C156.145 111.864 156.247 111.835 156.329 111.772C156.385 111.727 156.397 111.684 156.395 111.68C156.348 111.718 156.293 111.746 156.234 111.762C156.176 111.778 156.115 111.782 156.054 111.773C155.925 111.746 155.805 111.685 155.708 111.595C155.592 111.496 155.462 111.372 155.318 111.267C155.066 111.08 154.801 110.912 154.525 110.763C154.415 110.691 154.294 110.636 154.167 110.601Z" fill="#E0E0E0"/>
<path d="M158.643 34.5733C158.643 34.5733 158.776 36.0658 158.068 36.0169C157.36 35.9681 151.673 34.7946 151.673 34.7946C151.673 34.7946 150.67 35.4547 150.022 35.9981C149.375 36.5416 147.759 38.2701 147.589 38.454C147.171 38.9166 147.426 48.002 147.426 48.002L150.988 59.8956L150.747 60.5961L151.129 62.004C150.943 63.9396 150.903 65.8865 151.009 67.8281C151.271 68.9888 151.319 70.3323 152.543 70.0417C153.768 69.7511 157.812 65.4235 159.379 63.5223C160.484 62.3338 161.992 61.5991 163.609 61.461L163.717 61.2582C163.931 60.8557 164.026 60.4005 163.99 59.9461L163.782 57.2345C163.782 57.2345 163.239 53.2207 162.463 48.5149C161.912 45.2208 161.161 41.9632 160.215 38.7601C159.86 37.5636 158.643 34.5733 158.643 34.5733Z" fill="#656567"/>
<path d="M161.697 44.5636C161.712 44.6042 161.724 44.6461 161.732 44.6887C161.755 44.7887 161.781 44.9061 161.814 45.0536C161.882 45.3732 161.972 45.8343 162.081 46.4044C162.299 47.5475 162.578 49.1278 162.86 50.8781C163.142 52.6284 163.382 54.2168 163.544 55.3693L163.727 56.7321L163.767 57.1037C163.776 57.1469 163.778 57.191 163.775 57.2349C163.758 57.1941 163.748 57.1512 163.744 57.1075C163.725 57.0054 163.705 56.8884 163.676 56.741C163.622 56.4014 163.547 55.9431 163.459 55.3818C163.271 54.2188 163.015 52.6428 162.739 50.897C162.464 49.1512 162.189 47.5817 161.997 46.4187C161.902 45.8609 161.824 45.4003 161.767 45.0634C161.743 44.9138 161.723 44.7924 161.708 44.6925C161.698 44.6504 161.694 44.6069 161.697 44.5636Z" fill="#263238"/>
<path d="M157.762 54.0489C157.797 54.1192 157.823 54.1937 157.839 54.2707C157.868 54.3614 157.892 54.454 157.909 54.5478C157.937 54.6719 157.959 54.7974 157.973 54.9237C158.018 55.251 158.032 55.5817 158.017 55.9117C157.981 56.7243 157.774 57.5203 157.409 58.2476C157.262 58.5444 157.088 58.827 156.889 59.0916C156.816 59.1947 156.737 59.2932 156.652 59.3866C156.59 59.4597 156.524 59.5289 156.454 59.5939C156.403 59.6562 156.342 59.7104 156.273 59.7544C156.264 59.7355 156.505 59.4938 156.823 59.0417C157.006 58.7735 157.168 58.4917 157.309 58.1988C157.654 57.4802 157.857 56.7014 157.906 55.9056C157.925 55.5808 157.92 55.255 157.89 54.9309C157.831 54.3913 157.733 54.0576 157.762 54.0489Z" fill="#263238"/>
<path d="M163.087 52.7381C162.436 52.9417 161.774 53.107 161.103 53.233C160.445 53.3974 159.776 53.5219 159.103 53.606C159.753 53.4013 160.415 53.2355 161.085 53.1093C161.745 52.9468 162.413 52.8229 163.087 52.7381Z" fill="#263238"/>
<g opacity="0.3">
<path d="M152.044 57.7842L157.333 58.4867C157.945 58.5367 158.547 58.6809 159.115 58.9142C159.399 59.0317 159.653 59.212 159.857 59.4415C160.061 59.6711 160.211 59.9439 160.295 60.2395C160.364 60.9314 160.186 61.6254 159.792 62.1986C159.555 62.7517 159.158 63.2208 158.652 63.5452C158.142 63.761 157.576 63.8024 157.04 63.6628C154.598 63.1841 152.664 61.3587 151.001 59.5092L150.857 59.4259L150.489 58.2624L152.044 57.7842Z" fill="black"/>
</g>
<g opacity="0.3">
<path d="M147.394 48.1511L147.421 48.138C148.196 48.2031 148.977 48.0898 149.702 47.8066C150.427 47.5234 151.078 47.0779 151.605 46.5043C152.106 45.9368 152.482 45.2695 152.707 44.5463C152.932 43.8232 153.001 43.0605 152.91 42.3087C151.274 44.4381 149.426 46.3957 147.394 48.1511Z" fill="black"/>
</g>
<path d="M158.389 36.616L158.353 36.5423C158.314 36.4675 158.283 36.3884 158.262 36.3065C158.177 36.0052 158.183 35.6853 158.28 35.3876C158.311 35.2897 158.351 35.1952 158.402 35.1058C158.453 34.9945 158.542 34.9057 158.654 34.8561C158.689 34.8444 158.726 34.8412 158.763 34.8468C158.8 34.8524 158.834 34.8666 158.864 34.8883C158.918 34.9312 158.959 34.9885 158.982 35.0536C159.021 35.1796 159.038 35.3114 159.033 35.4432C159.021 35.7305 158.932 36.0094 158.776 36.2509C158.62 36.4924 158.402 36.6878 158.145 36.817C157.885 36.9377 157.6 36.9961 157.313 36.9874C157.026 36.9787 156.745 36.9032 156.492 36.7669C156.433 36.7358 156.377 36.6977 156.326 36.6534C156.294 36.6268 156.271 36.5924 156.257 36.5536C156.243 36.5148 156.24 36.473 156.247 36.4325C156.268 36.366 156.309 36.3076 156.365 36.2656C156.421 36.2235 156.488 36.1998 156.558 36.1978C156.77 36.1789 156.984 36.1798 157.196 36.2003C157.503 36.2285 157.805 36.2956 158.095 36.4001C158.203 36.4319 158.306 36.4797 158.4 36.5419C158.009 36.4077 157.603 36.3215 157.191 36.2852C156.981 36.2744 156.771 36.2824 156.562 36.3092C156.514 36.3096 156.468 36.3247 156.429 36.3524C156.39 36.3801 156.361 36.419 156.345 36.4639C156.321 36.5478 156.419 36.6168 156.539 36.6699C156.776 36.7952 157.039 36.864 157.307 36.8709C157.576 36.8778 157.842 36.8225 158.085 36.7095C158.324 36.5904 158.527 36.41 158.674 36.1866C158.82 35.9633 158.904 35.7051 158.918 35.4385C158.924 35.3213 158.911 35.2038 158.881 35.0906C158.845 34.9856 158.766 34.9185 158.682 34.9494C158.593 34.9913 158.522 35.0627 158.48 35.1513C158.427 35.2352 158.383 35.325 158.351 35.4188C158.252 35.7017 158.233 36.0061 158.295 36.2993C158.342 36.5041 158.4 36.6107 158.389 36.616Z" fill="white"/>
<path d="M157.327 40.7551C157.318 40.7381 157.464 40.558 157.665 40.23C158.187 39.372 158.425 38.3716 158.346 37.3706C158.316 36.9883 158.261 36.7538 158.28 36.75C158.299 36.7462 158.308 36.8066 158.34 36.9098C158.383 37.0581 158.413 37.2097 158.431 37.3629C158.559 38.3865 158.313 39.422 157.737 40.2781C157.651 40.4064 157.555 40.5276 157.45 40.6406C157.378 40.7203 157.331 40.7641 157.327 40.7551Z" fill="white"/>
<path d="M151.951 59.3766C152.326 59.9717 152.804 60.4954 153.363 60.9234C153.363 60.9234 157.187 62.55 157.359 62.6063C157.531 62.6626 158.035 62.6786 158.18 62.4654C158.222 62.3788 158.245 62.2847 158.248 62.1888C158.252 62.0929 158.236 61.9973 158.201 61.9079C158.201 61.9079 159.034 62.0202 159.248 61.7317C159.306 61.6562 159.336 61.5625 159.333 61.467C159.33 61.3715 159.293 61.2802 159.229 61.2091C159.229 61.2091 159.84 61.223 160.006 60.7761C160.049 60.6276 160.061 60.4716 160.04 60.3184C160.019 60.1651 159.966 60.018 159.884 59.8866C159.884 59.8866 160.461 60.0071 160.577 59.6214C160.639 59.3206 160.619 59.0085 160.52 58.7178L159.859 58.2611C159.859 58.2611 158.18 57.3627 157.682 57.1282C157.027 56.9323 156.334 56.9006 155.664 57.0358C154.775 56.9282 153.907 56.6906 153.088 56.3309L151.951 59.3766Z" fill="#FFCAB3"/>
<path d="M151.259 36.3101C149.921 36.4247 148.68 37.0537 147.796 38.0648C146.387 39.6479 143.998 42.3269 143.649 42.7017C143.158 43.2333 138.108 48.3001 138.602 51.3335C138.6 51.6164 138.664 51.8958 138.788 52.1501C138.911 52.4044 139.092 52.6267 139.316 52.7998C141.884 54.7393 144.619 56.4477 147.489 57.9051L151.858 59.4237L153.153 56.3734C153.153 56.3734 148.898 52.4828 147.266 51.0514C146.778 50.6757 146.318 50.2656 145.889 49.8243C146.673 48.8547 147.544 47.9596 148.493 47.1506C149.629 46.1312 150.67 45.0119 151.606 43.8064C151.606 43.8064 154.053 41.2679 154.207 40.1407C154.361 39.0134 153.75 36.8035 152.389 36.4089C152.021 36.3109 151.638 36.2775 151.259 36.3101Z" fill="#656567"/>
<path d="M151.496 43.8481L151.417 43.9698C151.364 44.048 151.281 44.1629 151.171 44.3121C150.948 44.6099 150.614 45.0474 150.149 45.5888C149.915 45.8529 149.641 46.1444 149.341 46.4419C149.041 46.7393 148.662 47.0319 148.297 47.3788C147.46 48.1508 146.672 48.9744 145.939 49.8448L145.934 49.7826C147.963 51.6117 150.443 53.844 153.201 56.3273L153.231 56.3535L153.216 56.3918L151.937 59.4915L151.915 59.5432L151.862 59.5247L147.368 57.9753C147.13 57.8579 146.872 57.7341 146.615 57.6111C145.002 56.785 143.447 55.8512 141.959 54.8162C141.237 54.3182 140.54 53.8087 139.857 53.3173C139.687 53.1957 139.516 53.0741 139.341 52.9623C139.254 52.9059 139.173 52.8452 139.08 52.7816C138.997 52.7123 138.921 52.6342 138.855 52.5485C138.611 52.2032 138.479 51.7914 138.477 51.3688C138.438 51.067 138.439 50.7616 138.479 50.46C138.521 50.1632 138.588 49.8703 138.678 49.5845C138.86 49.0428 139.093 48.5196 139.374 48.0219C139.896 47.1029 140.492 46.2275 141.155 45.4041C142.392 43.8318 143.666 42.6235 144.609 41.52L146.875 39.0078L147.482 38.3436L147.641 38.1731L147.697 38.1169C147.681 38.1388 147.665 38.1599 147.647 38.1799L147.497 38.3545L146.904 39.0327L144.66 41.5853C143.721 42.6911 142.456 43.9116 141.232 45.4801C140.576 46.3024 139.986 47.1759 139.469 48.0922C139.19 48.5846 138.959 49.1027 138.778 49.6393C138.688 49.9154 138.621 50.1987 138.579 50.4861C138.54 50.7768 138.541 51.0713 138.581 51.3618C138.584 51.7632 138.711 52.1538 138.943 52.4814C139.004 52.5585 139.072 52.6295 139.147 52.6933C139.227 52.75 139.313 52.8068 139.402 52.8649C139.578 52.9817 139.748 53.1033 139.92 53.2245C140.605 53.7173 141.296 54.2226 142.025 54.7185C143.508 55.7492 145.059 56.6788 146.668 57.5012L147.416 57.8653L151.9 59.4115L151.826 59.4474C152.27 58.3781 152.703 57.3351 153.109 56.3496L153.124 56.4123L145.862 49.8445L145.83 49.8155L145.859 49.7836C146.599 48.9151 147.395 48.0948 148.24 47.3277C148.614 46.9894 148.975 46.71 149.289 46.4015C149.603 46.093 149.87 45.818 150.103 45.5601C150.575 45.0341 150.918 44.6065 151.146 44.31L151.402 43.9728C151.429 43.9284 151.461 43.8867 151.496 43.8481Z" fill="#263238"/>
<path d="M142.981 49.541C143.114 49.4754 143.258 49.4351 143.406 49.422C143.759 49.3626 144.118 49.3527 144.473 49.3927C144.828 49.4304 145.176 49.5164 145.508 49.6484C145.649 49.6929 145.781 49.7633 145.897 49.8559C145.429 49.7039 144.949 49.591 144.462 49.5183C143.969 49.4835 143.473 49.4911 142.981 49.541Z" fill="#263238"/>
<path d="M152.288 57.999C152.26 57.9918 152.233 57.9824 152.206 57.9709L151.976 57.8759L151.091 57.5027L147.847 56.1066C147.486 55.9557 147.134 55.7868 146.79 55.6006C146.435 55.4051 146.064 55.1754 145.696 54.9543C144.954 54.494 144.147 54.0103 143.305 53.5007C142.883 53.2424 142.455 52.9795 142.013 52.7119C141.545 52.4484 141.148 52.0747 140.857 51.6231C140.55 51.1519 140.385 50.6025 140.382 50.0403C140.383 49.8947 140.409 49.7504 140.459 49.6135C140.506 49.4791 140.564 49.3486 140.631 49.2235C140.768 48.9723 140.924 48.7325 141.099 48.5064C143.893 44.9201 146.624 41.8344 148.676 39.6609C149.704 38.5739 150.541 37.7153 151.134 37.1284C151.428 36.8317 151.661 36.6123 151.818 36.456L151.994 36.2848C152.013 36.2641 152.035 36.2457 152.058 36.23C152.043 36.2536 152.024 36.2749 152.003 36.2934L151.833 36.4754L151.167 37.1627C150.584 37.7601 149.751 38.6312 148.742 39.7211C146.708 41.9055 143.986 44.9939 141.197 48.5799C141.027 48.8017 140.875 49.0361 140.742 49.281C140.602 49.5128 140.521 49.775 140.504 50.0451C140.509 50.5817 140.666 51.1059 140.958 51.5561C141.239 51.9939 141.623 52.3561 142.076 52.611C142.516 52.8817 142.945 53.1442 143.364 53.4038C144.204 53.9183 145.003 54.4078 145.746 54.8676C146.117 55.0964 146.485 55.3198 146.839 55.5121C147.179 55.7 147.529 55.8704 147.887 56.0229L151.114 57.4538L151.99 57.8461L152.216 57.9504C152.242 57.9629 152.266 57.9792 152.288 57.999Z" fill="white"/>
<path d="M152.748 57.2386C152.748 57.2386 152.722 57.2298 152.673 57.2074L152.456 57.1104L151.638 56.7303C150.928 56.3889 149.896 55.8939 148.636 55.2628C147.376 54.6318 145.871 53.8824 144.235 52.9997C143.826 52.7763 143.408 52.5453 142.991 52.2865C142.776 52.1601 142.569 52.0201 142.372 51.8673C142.172 51.7074 141.992 51.5247 141.834 51.3228C141.664 51.1114 141.569 50.8497 141.563 50.5785C141.591 50.3172 141.643 50.059 141.719 49.8073C141.72 49.7754 141.725 49.7437 141.733 49.7126C141.745 49.6735 141.76 49.6355 141.779 49.599C141.814 49.543 141.848 49.4817 141.889 49.4338C141.966 49.3241 142.041 49.214 142.123 49.1097C142.278 48.8962 142.44 48.6961 142.618 48.4748C143.97 46.795 145.311 45.2439 146.529 43.8337C147.748 42.4235 148.86 41.1666 149.804 40.1127C150.747 39.0589 151.515 38.2188 152.058 37.6452C152.322 37.332 152.617 37.0466 152.939 36.7933C152.919 36.8114 152.899 36.8284 152.878 36.8441C152.842 36.8826 152.782 36.9352 152.702 37.0154C152.559 37.1628 152.35 37.3892 152.084 37.679C151.555 38.2639 150.794 39.1139 149.862 40.1724C148.929 41.2308 147.827 42.4986 146.608 43.9087C145.39 45.3189 144.051 46.879 142.706 48.5531C142.547 48.7576 142.375 48.9737 142.215 49.184C142.133 49.2883 142.058 49.3948 141.984 49.5032C141.947 49.5552 141.913 49.609 141.882 49.6645C141.865 49.6903 141.863 49.7104 141.85 49.7321C141.842 49.7653 141.837 49.799 141.835 49.8331C141.762 50.0784 141.711 50.3296 141.682 50.5838C141.689 50.8245 141.774 51.0564 141.924 51.2446C142.075 51.4396 142.248 51.6165 142.44 51.7718C142.634 51.9212 142.836 52.0589 143.046 52.1842C143.458 52.4393 143.874 52.6708 144.283 52.8964C145.918 53.793 147.423 54.5477 148.672 55.1908C149.921 55.8338 150.945 56.3336 151.656 56.6925L152.469 57.1007L152.678 57.2092C152.702 57.2161 152.726 57.2259 152.748 57.2386Z" fill="white"/>
<path d="M154.757 40.9619C154.771 40.6124 154.762 40.2625 154.732 39.9142C154.637 39.0751 154.303 38.2809 153.77 37.6264C153.236 36.9718 152.526 36.4847 151.723 36.2229C151.387 36.1242 151.047 36.0443 150.702 35.9839C150.797 35.9759 150.892 35.9784 150.986 35.9913C151.244 36.0145 151.499 36.0639 151.748 36.1386C152.579 36.3839 153.317 36.8748 153.864 37.5467C154.412 38.2187 154.744 39.0405 154.816 39.9043C154.841 40.1639 154.84 40.4253 154.812 40.6847C154.806 40.7792 154.788 40.8724 154.757 40.9619Z" fill="#263238"/>
<path d="M228.172 16.75C228.172 16.75 220.299 163.068 17.1719 138.142" stroke="#707070"/>
<path d="M242.897 58.87V54.1H251.207V76H245.867V58.87H242.897ZM254.716 64.75C254.716 61.31 255.376 58.6 256.696 56.62C258.036 54.64 260.186 53.65 263.146 53.65C266.106 53.65 268.246 54.64 269.566 56.62C270.906 58.6 271.576 61.31 271.576 64.75C271.576 68.23 270.906 70.96 269.566 72.94C268.246 74.92 266.106 75.91 263.146 75.91C260.186 75.91 258.036 74.92 256.696 72.94C255.376 70.96 254.716 68.23 254.716 64.75ZM266.536 64.75C266.536 62.73 266.316 61.18 265.876 60.1C265.436 59 264.526 58.45 263.146 58.45C261.766 58.45 260.856 59 260.416 60.1C259.976 61.18 259.756 62.73 259.756 64.75C259.756 66.11 259.836 67.24 259.996 68.14C260.156 69.02 260.476 69.74 260.956 70.3C261.456 70.84 262.186 71.11 263.146 71.11C264.106 71.11 264.826 70.84 265.306 70.3C265.806 69.74 266.136 69.02 266.296 68.14C266.456 67.24 266.536 66.11 266.536 64.75ZM287.697 76L283.407 69.55L279.627 76H273.807L280.557 65.29L273.657 54.94H279.627L283.857 61.3L287.577 54.94H293.397L286.707 65.56L293.667 76H287.697Z" fill="white"/>
<path d="M109.525 168.87V164.1H117.835V186H112.495V168.87H109.525ZM134.754 186L130.464 179.55L126.684 186H120.864L127.614 175.29L120.714 164.94H126.684L130.914 171.3L134.634 164.94H140.454L133.764 175.56L140.724 186H134.754Z" fill="#434343"/>
<path d="M241.295 213.874L238.916 223H236.225L234.769 216.994L233.261 223H230.57L228.256 213.874H230.635L231.948 220.517L233.573 213.874H236.017L237.577 220.517L238.903 213.874H241.295ZM249.248 219.256C249.248 219.464 249.235 219.681 249.209 219.906H244.178C244.212 220.357 244.355 220.703 244.607 220.946C244.867 221.18 245.183 221.297 245.556 221.297C246.11 221.297 246.496 221.063 246.713 220.595H249.079C248.957 221.072 248.736 221.501 248.416 221.882C248.104 222.263 247.709 222.562 247.233 222.779C246.756 222.996 246.223 223.104 245.634 223.104C244.923 223.104 244.29 222.952 243.736 222.649C243.181 222.346 242.748 221.912 242.436 221.349C242.124 220.786 241.968 220.127 241.968 219.373C241.968 218.619 242.119 217.96 242.423 217.397C242.735 216.834 243.168 216.4 243.723 216.097C244.277 215.794 244.914 215.642 245.634 215.642C246.336 215.642 246.96 215.789 247.506 216.084C248.052 216.379 248.476 216.799 248.78 217.345C249.092 217.891 249.248 218.528 249.248 219.256ZM246.973 218.671C246.973 218.29 246.843 217.986 246.583 217.761C246.323 217.536 245.998 217.423 245.608 217.423C245.235 217.423 244.919 217.531 244.659 217.748C244.407 217.965 244.251 218.272 244.191 218.671H246.973ZM251.538 214.992C251.148 214.992 250.828 214.879 250.576 214.654C250.334 214.42 250.212 214.134 250.212 213.796C250.212 213.449 250.334 213.163 250.576 212.938C250.828 212.704 251.148 212.587 251.538 212.587C251.92 212.587 252.232 212.704 252.474 212.938C252.726 213.163 252.851 213.449 252.851 213.796C252.851 214.134 252.726 214.42 252.474 214.654C252.232 214.879 251.92 214.992 251.538 214.992ZM252.643 215.746V223H250.42V215.746H252.643ZM257.01 215.642C257.522 215.642 257.968 215.746 258.349 215.954C258.739 216.162 259.038 216.435 259.246 216.773V215.746H261.469V222.987C261.469 223.654 261.335 224.257 261.066 224.794C260.806 225.34 260.403 225.773 259.857 226.094C259.32 226.415 258.648 226.575 257.842 226.575C256.768 226.575 255.897 226.319 255.229 225.808C254.562 225.305 254.181 224.621 254.085 223.754H256.282C256.352 224.031 256.516 224.248 256.776 224.404C257.036 224.569 257.357 224.651 257.738 224.651C258.198 224.651 258.562 224.517 258.83 224.248C259.108 223.988 259.246 223.568 259.246 222.987V221.96C259.03 222.298 258.731 222.575 258.349 222.792C257.968 223 257.522 223.104 257.01 223.104C256.412 223.104 255.871 222.952 255.385 222.649C254.9 222.337 254.514 221.899 254.228 221.336C253.951 220.764 253.812 220.105 253.812 219.36C253.812 218.615 253.951 217.96 254.228 217.397C254.514 216.834 254.9 216.4 255.385 216.097C255.871 215.794 256.412 215.642 257.01 215.642ZM259.246 219.373C259.246 218.818 259.09 218.381 258.778 218.06C258.475 217.739 258.102 217.579 257.66 217.579C257.218 217.579 256.841 217.739 256.529 218.06C256.226 218.372 256.074 218.805 256.074 219.36C256.074 219.915 256.226 220.357 256.529 220.686C256.841 221.007 257.218 221.167 257.66 221.167C258.102 221.167 258.475 221.007 258.778 220.686C259.09 220.365 259.246 219.928 259.246 219.373ZM267.536 215.668C268.368 215.668 269.036 215.945 269.538 216.5C270.041 217.046 270.292 217.8 270.292 218.762V223H268.082V219.061C268.082 218.576 267.957 218.199 267.705 217.93C267.454 217.661 267.116 217.527 266.691 217.527C266.267 217.527 265.929 217.661 265.677 217.93C265.426 218.199 265.3 218.576 265.3 219.061V223H263.077V213.38H265.3V216.721C265.526 216.4 265.833 216.145 266.223 215.954C266.613 215.763 267.051 215.668 267.536 215.668ZM275.88 221.115V223H274.749C273.943 223 273.315 222.805 272.864 222.415C272.414 222.016 272.188 221.371 272.188 220.478V217.592H271.304V215.746H272.188V213.978H274.411V215.746H275.867V217.592H274.411V220.504C274.411 220.721 274.463 220.877 274.567 220.972C274.671 221.067 274.845 221.115 275.087 221.115H275.88ZM282.096 221.284H285.008V223H279.873V213.874H282.096V221.284ZM289.371 223.104C288.66 223.104 288.019 222.952 287.447 222.649C286.883 222.346 286.437 221.912 286.108 221.349C285.787 220.786 285.627 220.127 285.627 219.373C285.627 218.628 285.791 217.973 286.121 217.41C286.45 216.838 286.901 216.4 287.473 216.097C288.045 215.794 288.686 215.642 289.397 215.642C290.107 215.642 290.749 215.794 291.321 216.097C291.893 216.4 292.343 216.838 292.673 217.41C293.002 217.973 293.167 218.628 293.167 219.373C293.167 220.118 292.998 220.777 292.66 221.349C292.33 221.912 291.875 222.346 291.295 222.649C290.723 222.952 290.081 223.104 289.371 223.104ZM289.371 221.18C289.795 221.18 290.155 221.024 290.45 220.712C290.753 220.4 290.905 219.954 290.905 219.373C290.905 218.792 290.757 218.346 290.463 218.034C290.177 217.722 289.821 217.566 289.397 217.566C288.963 217.566 288.604 217.722 288.318 218.034C288.032 218.337 287.889 218.784 287.889 219.373C287.889 219.954 288.027 220.4 288.305 220.712C288.591 221.024 288.946 221.18 289.371 221.18ZM297.297 223.104C296.664 223.104 296.101 222.996 295.607 222.779C295.113 222.562 294.723 222.268 294.437 221.895C294.151 221.514 293.991 221.089 293.956 220.621H296.153C296.179 220.872 296.296 221.076 296.504 221.232C296.712 221.388 296.968 221.466 297.271 221.466C297.548 221.466 297.761 221.414 297.908 221.31C298.064 221.197 298.142 221.054 298.142 220.881C298.142 220.673 298.034 220.521 297.817 220.426C297.6 220.322 297.249 220.209 296.764 220.088C296.244 219.967 295.811 219.841 295.464 219.711C295.117 219.572 294.818 219.36 294.567 219.074C294.316 218.779 294.19 218.385 294.19 217.891C294.19 217.475 294.303 217.098 294.528 216.76C294.762 216.413 295.1 216.14 295.542 215.941C295.993 215.742 296.526 215.642 297.141 215.642C298.051 215.642 298.766 215.867 299.286 216.318C299.815 216.769 300.118 217.367 300.196 218.112H298.142C298.107 217.861 297.995 217.661 297.804 217.514C297.622 217.367 297.379 217.293 297.076 217.293C296.816 217.293 296.617 217.345 296.478 217.449C296.339 217.544 296.27 217.679 296.27 217.852C296.27 218.06 296.378 218.216 296.595 218.32C296.82 218.424 297.167 218.528 297.635 218.632C298.172 218.771 298.61 218.909 298.948 219.048C299.286 219.178 299.581 219.395 299.832 219.698C300.092 219.993 300.226 220.391 300.235 220.894C300.235 221.319 300.114 221.7 299.871 222.038C299.637 222.367 299.295 222.627 298.844 222.818C298.402 223.009 297.886 223.104 297.297 223.104ZM308.433 219.256C308.433 219.464 308.42 219.681 308.394 219.906H303.363C303.398 220.357 303.541 220.703 303.792 220.946C304.052 221.18 304.368 221.297 304.741 221.297C305.296 221.297 305.681 221.063 305.898 220.595H308.264C308.143 221.072 307.922 221.501 307.601 221.882C307.289 222.263 306.895 222.562 306.418 222.779C305.941 222.996 305.408 223.104 304.819 223.104C304.108 223.104 303.476 222.952 302.921 222.649C302.366 222.346 301.933 221.912 301.621 221.349C301.309 220.786 301.153 220.127 301.153 219.373C301.153 218.619 301.305 217.96 301.608 217.397C301.92 216.834 302.353 216.4 302.908 216.097C303.463 215.794 304.1 215.642 304.819 215.642C305.521 215.642 306.145 215.789 306.691 216.084C307.237 216.379 307.662 216.799 307.965 217.345C308.277 217.891 308.433 218.528 308.433 219.256ZM306.158 218.671C306.158 218.29 306.028 217.986 305.768 217.761C305.508 217.536 305.183 217.423 304.793 217.423C304.42 217.423 304.104 217.531 303.844 217.748C303.593 217.965 303.437 218.272 303.376 218.671H306.158ZM311.829 216.955C312.089 216.556 312.414 216.244 312.804 216.019C313.194 215.785 313.627 215.668 314.104 215.668V218.021H313.493C312.938 218.021 312.522 218.142 312.245 218.385C311.967 218.619 311.829 219.035 311.829 219.633V223H309.606V215.746H311.829V216.955Z" fill="#434343"/>
<path d="M107.112 213.874L103.953 219.984V223H101.73V219.984L98.5715 213.874H101.093L102.861 217.696L104.616 213.874H107.112ZM111.31 223.104C110.599 223.104 109.958 222.952 109.386 222.649C108.823 222.346 108.376 221.912 108.047 221.349C107.726 220.786 107.566 220.127 107.566 219.373C107.566 218.628 107.731 217.973 108.06 217.41C108.389 216.838 108.84 216.4 109.412 216.097C109.984 215.794 110.625 215.642 111.336 215.642C112.047 215.642 112.688 215.794 113.26 216.097C113.832 216.4 114.283 216.838 114.612 217.41C114.941 217.973 115.106 218.628 115.106 219.373C115.106 220.118 114.937 220.777 114.599 221.349C114.27 221.912 113.815 222.346 113.234 222.649C112.662 222.952 112.021 223.104 111.31 223.104ZM111.31 221.18C111.735 221.18 112.094 221.024 112.389 220.712C112.692 220.4 112.844 219.954 112.844 219.373C112.844 218.792 112.697 218.346 112.402 218.034C112.116 217.722 111.761 217.566 111.336 217.566C110.903 217.566 110.543 217.722 110.257 218.034C109.971 218.337 109.828 218.784 109.828 219.373C109.828 219.954 109.967 220.4 110.244 220.712C110.53 221.024 110.885 221.18 111.31 221.18ZM123.448 215.746V223H121.225V222.012C121 222.333 120.692 222.593 120.302 222.792C119.921 222.983 119.496 223.078 119.028 223.078C118.474 223.078 117.984 222.957 117.559 222.714C117.135 222.463 116.805 222.103 116.571 221.635C116.337 221.167 116.22 220.617 116.22 219.984V215.746H118.43V219.685C118.43 220.17 118.556 220.547 118.807 220.816C119.059 221.085 119.397 221.219 119.821 221.219C120.255 221.219 120.597 221.085 120.848 220.816C121.1 220.547 121.225 220.17 121.225 219.685V215.746H123.448ZM127.268 216.955C127.528 216.556 127.853 216.244 128.243 216.019C128.633 215.785 129.067 215.668 129.543 215.668V218.021H128.932C128.378 218.021 127.962 218.142 127.684 218.385C127.407 218.619 127.268 219.035 127.268 219.633V223H125.045V215.746H127.268V216.955ZM137.677 223.091C136.819 223.091 136.03 222.892 135.311 222.493C134.6 222.094 134.032 221.54 133.608 220.829C133.192 220.11 132.984 219.304 132.984 218.411C132.984 217.518 133.192 216.717 133.608 216.006C134.032 215.295 134.6 214.741 135.311 214.342C136.03 213.943 136.819 213.744 137.677 213.744C138.535 213.744 139.319 213.943 140.03 214.342C140.749 214.741 141.312 215.295 141.72 216.006C142.136 216.717 142.344 217.518 142.344 218.411C142.344 219.304 142.136 220.11 141.72 220.829C141.304 221.54 140.74 222.094 140.03 222.493C139.319 222.892 138.535 223.091 137.677 223.091ZM137.677 221.063C138.405 221.063 138.985 220.82 139.419 220.335C139.861 219.85 140.082 219.208 140.082 218.411C140.082 217.605 139.861 216.964 139.419 216.487C138.985 216.002 138.405 215.759 137.677 215.759C136.94 215.759 136.351 215.997 135.909 216.474C135.475 216.951 135.259 217.596 135.259 218.411C135.259 219.217 135.475 219.863 135.909 220.348C136.351 220.825 136.94 221.063 137.677 221.063ZM153.993 215.746L152.03 223H149.573L148.429 218.294L147.246 223H144.802L142.826 215.746H145.049L146.076 220.933L147.298 215.746H149.651L150.886 220.907L151.9 215.746H153.993ZM159.261 215.668C160.11 215.668 160.786 215.945 161.289 216.5C161.8 217.046 162.056 217.8 162.056 218.762V223H159.846V219.061C159.846 218.576 159.72 218.199 159.469 217.93C159.218 217.661 158.88 217.527 158.455 217.527C158.03 217.527 157.692 217.661 157.441 217.93C157.19 218.199 157.064 218.576 157.064 219.061V223H154.841V215.746H157.064V216.708C157.289 216.387 157.593 216.136 157.974 215.954C158.355 215.763 158.784 215.668 159.261 215.668Z" fill="#434343"/>
<defs>
<filter id="filter0_d_6092_544" x="172.106" y="93.3139" width="24.6114" height="16.4537" filterUnits="userSpaceOnUse" color-interpolation-filters="sRGB">
<feFlood flood-opacity="0" result="BackgroundImageFix"/>
<feColorMatrix in="SourceAlpha" type="matrix" values="0 0 0 0 0 0 0 0 0 0 0 0 0 0 0 0 0 0 127 0" result="hardAlpha"/>
<feOffset dy="3.0054"/>
<feGaussianBlur stdDeviation="3.0054"/>
<feColorMatrix type="matrix" values="0 0 0 0 0 0 0 0 0 0 0 0 0 0 0 0 0 0 0.161 0"/>
<feBlend mode="normal" in2="BackgroundImageFix" result="effect1_dropShadow_6092_544"/>
<feBlend mode="normal" in="SourceGraphic" in2="effect1_dropShadow_6092_544" result="shape"/>
</filter>
<filter id="filter1_d_6092_544" x="146.584" y="106.888" width="24.3839" height="18.6109" filterUnits="userSpaceOnUse" color-interpolation-filters="sRGB">
<feFlood flood-opacity="0" result="BackgroundImageFix"/>
<feColorMatrix in="SourceAlpha" type="matrix" values="0 0 0 0 0 0 0 0 0 0 0 0 0 0 0 0 0 0 127 0" result="hardAlpha"/>
<feOffset dy="3.0054"/>
<feGaussianBlur stdDeviation="3.0054"/>
<feColorMatrix type="matrix" values="0 0 0 0 0 0 0 0 0 0 0 0 0 0 0 0 0 0 0.161 0"/>
<feBlend mode="normal" in2="BackgroundImageFix" result="effect1_dropShadow_6092_544"/>
<feBlend mode="normal" in="SourceGraphic" in2="effect1_dropShadow_6092_544" result="shape"/>
</filter>
</defs>
</svg>
