<svg version="1.1" id="Layer_1" xmlns="http://www.w3.org/2000/svg" xmlns:xlink="http://www.w3.org/1999/xlink" x="0px" y="0px"
	 width="100%" viewBox="0 0 1400 700" enable-background="new 0 0 1400 700" xml:space="preserve">
<path fill="#010101" opacity="1.000000" stroke="none" 
	d="
M812.000000,701.000000 
	C541.365417,701.000000 271.230896,701.000000 1.048165,701.000000 
	C1.048165,467.726532 1.048165,234.453018 1.048165,1.089763 
	C467.551331,1.089763 934.102722,1.089763 1400.827026,1.089763 
	C1400.827026,234.333237 1400.827026,467.666595 1400.827026,701.000000 
	C1204.786133,701.000000 1008.643066,701.000000 812.000000,701.000000 
M1019.990295,225.038727 
	C1020.191772,233.342010 1020.280579,241.640305 1024.586792,249.192993 
	C1028.570679,256.180450 1033.099854,259.566681 1040.518799,255.277145 
	C1041.827026,254.520798 1044.394775,254.470764 1045.592163,255.272430 
	C1049.087402,257.612305 1051.897583,257.697571 1054.415039,254.106384 
	C1061.798340,259.675751 1063.799683,251.291046 1068.083130,248.789673 
	C1069.333862,249.960876 1070.442749,250.945663 1071.491577,251.990799 
	C1075.873535,256.357300 1080.825562,256.026825 1084.915283,251.378265 
	C1086.964844,249.048676 1089.269531,246.821091 1091.822510,245.081177 
	C1097.857300,240.968323 1104.398926,238.444992 1111.915405,237.835999 
	C1118.845093,237.274551 1123.019287,231.322601 1128.006714,227.197983 
	C1131.950562,223.936417 1131.230713,220.601410 1128.208252,216.741592 
	C1125.470825,213.245743 1122.851196,209.276947 1121.585938,205.091553 
	C1119.262329,197.405212 1113.697388,194.633911 1106.854736,195.022476 
	C1098.142090,195.517227 1089.513550,197.431549 1080.832397,198.613205 
	C1079.492920,198.795547 1078.065552,198.332413 1076.678833,198.167801 
	C1077.066406,196.701157 1077.077637,194.959213 1077.911621,193.819275 
	C1080.454224,190.344238 1083.592529,187.287750 1085.981689,183.721893 
	C1089.135254,179.015121 1087.869629,172.845352 1083.547852,169.464264 
	C1079.426270,166.239792 1073.739990,166.968048 1069.632446,171.284637 
	C1066.308716,174.777618 1063.198120,178.494537 1059.682495,181.779785 
	C1050.131958,190.704361 1037.989990,190.236435 1025.597900,191.500977 
	C1027.479126,184.950989 1029.099365,179.310028 1031.175659,172.080688 
	C1017.952454,177.765930 1005.433960,175.616974 992.731873,175.316391 
	C991.472168,174.563187 990.281311,173.326584 988.941528,173.135803 
	C980.699341,171.962128 972.406738,170.074097 964.162659,170.219482 
	C949.891541,170.471146 935.548584,171.333969 921.414917,173.257278 
	C909.404968,174.891617 897.468811,177.777496 885.828003,181.219101 
	C873.794250,184.776840 862.041748,189.386673 850.372375,194.051849 
	C834.383179,200.444031 818.697876,207.601242 802.671753,213.894272 
	C792.010254,218.080704 781.026550,221.473099 770.102539,224.955795 
	C761.052612,227.841003 751.879150,230.338425 741.930420,232.983887 
	C740.131836,233.223099 738.306641,233.339157 736.539001,233.721512 
	C725.237549,236.166077 714.106628,239.302185 702.321777,239.116577 
	C691.894958,238.952362 681.320740,238.772552 671.057861,240.278168 
	C661.374695,241.698761 651.651917,244.430847 642.593201,248.157928 
	C628.754028,253.851883 621.141052,266.285492 613.353333,278.296906 
	C611.892395,280.550232 609.507874,282.745209 607.055359,283.708069 
	C601.067139,286.058990 594.656982,287.330505 588.655762,289.654083 
	C576.214478,294.471313 563.828674,299.463135 551.621765,304.841156 
	C545.740540,307.432251 542.249939,312.502411 540.256104,318.979675 
	C533.215088,323.112762 526.035950,327.030701 519.171204,331.438416 
	C512.045776,336.013489 504.799988,339.336243 495.993439,339.119415 
	C487.581940,338.912231 479.136230,339.514343 470.724792,340.058502 
	C463.360443,340.534973 455.966400,341.067780 448.687012,342.218170 
	C438.453522,343.835419 428.256531,345.792603 418.150543,348.076202 
	C408.262909,350.310486 398.497925,353.095123 388.700226,355.717041 
	C382.122162,357.477386 375.580872,359.375183 368.089569,361.091736 
	C304.625366,361.121002 241.161118,361.184113 177.697174,361.074097 
	C174.702072,361.068909 173.117645,361.983917 172.066956,364.457092 
	C166.902237,376.614136 161.842941,388.816772 156.577576,400.929962 
	C149.331512,417.599762 141.874268,434.177795 134.619751,450.843994 
	C128.570328,464.741699 122.744843,478.736847 116.706993,492.639679 
	C109.463326,509.319031 102.096466,525.944824 94.788994,542.596558 
	C89.846199,553.859802 84.943497,565.140869 79.966866,576.389160 
	C76.343506,584.578796 72.628700,592.727905 68.231903,601.275696 
	C67.654297,608.038635 67.076698,614.801514 66.490822,621.661255 
	C489.758514,621.661255 911.781372,621.661255 1334.465088,621.661255 
	C1334.047363,614.512756 1333.650757,607.726562 1332.903809,600.302368 
	C1331.775391,598.558960 1330.410400,596.923706 1329.556030,595.054993 
	C1322.973511,580.656616 1316.516113,566.201233 1309.968506,551.786804 
	C1303.184570,536.852234 1296.358643,521.936646 1289.521606,507.026276 
	C1284.050171,495.093567 1278.500732,483.196442 1273.047363,471.255493 
	C1266.388672,456.675629 1259.773193,442.075928 1253.177002,427.467621 
	C1243.901489,406.926208 1234.478882,386.447327 1225.568359,365.748383 
	C1223.907593,361.890686 1221.991699,361.120575 1218.330322,361.123779 
	C1135.231689,361.196594 1052.133057,361.181854 969.034363,361.167267 
	C967.043335,361.166901 965.052307,360.980438 962.711121,360.171844 
	C962.806641,358.371185 962.939941,356.571564 962.991516,354.769653 
	C963.335754,342.731384 963.616028,330.691071 964.015869,318.654724 
	C964.201050,313.081299 964.516541,307.507599 964.980347,301.951324 
	C965.094666,300.581329 965.751160,299.066986 966.612732,297.978668 
	C974.238647,288.346161 979.422424,277.549194 983.140137,265.854370 
	C986.173218,256.313110 984.283936,245.393372 991.881104,236.701218 
	C993.946594,233.491913 996.012085,230.282623 998.882141,227.002502 
	C1003.581299,225.944229 1008.280457,224.885956 1013.840942,223.985352 
	C1015.867126,224.037460 1017.893311,224.089569 1019.990295,225.038727 
z"/>
<path fill="#EFF1D2" opacity="1.000000" stroke="none" 
	d="
M963.061279,360.880798 
	C965.052307,360.980438 967.043335,361.166901 969.034363,361.167267 
	C1052.133057,361.181854 1135.231689,361.196594 1218.330322,361.123779 
	C1221.991699,361.120575 1223.907593,361.890686 1225.568359,365.748383 
	C1234.478882,386.447327 1243.901489,406.926208 1253.177002,427.467621 
	C1259.773193,442.075928 1266.388672,456.675629 1273.047363,471.255493 
	C1278.500732,483.196442 1284.050171,495.093567 1289.521606,507.026276 
	C1296.358643,521.936646 1303.184570,536.852234 1309.968506,551.786804 
	C1316.516113,566.201233 1322.973511,580.656616 1329.556030,595.054993 
	C1330.410400,596.923706 1331.775391,598.558960 1332.720825,600.803345 
	C1329.675903,601.850281 1326.814209,602.874023 1323.952148,602.874512 
	C908.352295,602.945435 492.752441,602.942139 77.152573,602.941956 
	C75.819458,602.941956 74.416695,603.202087 73.171272,602.871155 
	C71.694954,602.478760 70.354202,601.576355 68.954681,600.895081 
	C72.628700,592.727905 76.343506,584.578796 79.966866,576.389160 
	C84.943497,565.140869 89.846199,553.859802 94.788994,542.596558 
	C102.096466,525.944824 109.463326,509.319031 116.706993,492.639679 
	C122.744843,478.736847 128.570328,464.741699 134.619751,450.843994 
	C141.874268,434.177795 149.331512,417.599762 156.577576,400.929962 
	C161.842941,388.816772 166.902237,376.614136 172.066956,364.457092 
	C173.117645,361.983917 174.702072,361.068909 177.697174,361.074097 
	C241.161118,361.184113 304.625366,361.121002 368.453674,361.476044 
	C367.005707,362.918427 365.298309,364.248474 363.365356,364.992676 
	C342.951721,372.852478 323.010986,381.685608 304.126648,392.816437 
	C300.041962,395.224030 295.579712,396.991058 290.954529,398.812805 
	C289.813538,398.420258 288.924866,397.964142 288.217865,398.160858 
	C275.429321,401.719269 262.644897,405.296631 249.921265,409.077576 
	C248.764694,409.421295 247.238632,411.178406 247.235184,412.283386 
	C247.220581,416.938629 247.053284,421.764252 248.181717,426.213043 
	C249.970047,433.263458 252.750671,440.062195 254.731201,447.010864 
	C246.812668,449.378937 239.397476,451.792969 235.272247,459.471893 
	C228.247559,472.548096 228.154129,486.071594 233.611847,499.415344 
	C235.368011,503.709045 239.193481,508.112915 243.242447,510.305573 
	C250.778717,514.386841 259.048401,517.261536 267.234711,519.967102 
	C292.330139,528.260925 318.542480,530.345337 344.602051,532.837097 
	C365.066895,534.793945 385.625061,535.917480 406.166351,536.893250 
	C427.578857,537.910400 449.016632,538.634338 470.450714,538.906616 
	C514.909485,539.471436 559.373596,539.603455 603.834412,540.023376 
	C615.967468,540.138000 628.098450,540.590332 640.227356,540.982727 
	C659.490906,541.605774 678.751465,542.317627 698.013855,542.975464 
	C717.775879,543.650269 737.541626,544.929688 757.300415,544.835205 
	C795.063538,544.654663 832.832520,544.018921 870.579956,542.916260 
	C891.790833,542.296692 912.975220,540.527527 934.149048,538.970642 
	C948.856750,537.889221 963.605713,536.851685 978.194946,534.793030 
	C1003.294617,531.251343 1028.322144,527.149719 1053.306030,522.853821 
	C1069.376953,520.090515 1083.147095,513.120850 1093.103149,499.451050 
	C1104.185669,484.234924 1105.741943,465.326935 1094.515503,451.877869 
	C1088.972534,445.237488 1080.816895,440.466431 1073.204590,435.918762 
	C1039.417236,415.733948 1002.699829,403.535370 963.975098,396.586670 
	C963.305786,387.150848 962.541260,378.142334 962.096313,369.118073 
	C961.962097,366.394775 962.714844,363.627777 963.061279,360.880798 
z"/>
<path fill="#2E2E2E" opacity="1.000000" stroke="none" 
	d="
M541.005737,318.930786 
	C542.249939,312.502411 545.740540,307.432251 551.621765,304.841156 
	C563.828674,299.463135 576.214478,294.471313 588.655762,289.654083 
	C594.656982,287.330505 601.067139,286.058990 607.055359,283.708069 
	C609.507874,282.745209 611.892395,280.550232 613.353333,278.296906 
	C621.141052,266.285492 628.754028,253.851883 642.593201,248.157928 
	C651.651917,244.430847 661.374695,241.698761 671.057861,240.278168 
	C681.320740,238.772552 691.894958,238.952362 702.321777,239.116577 
	C714.106628,239.302185 725.237549,236.166077 736.539001,233.721512 
	C738.306641,233.339157 740.131836,233.223099 742.411621,233.381882 
	C749.297302,255.123535 755.730164,276.458710 762.096863,297.813629 
	C766.845032,313.739990 771.507568,329.691895 775.974304,345.943237 
	C766.850830,349.130707 757.919800,351.886749 749.088013,354.930603 
	C744.011719,356.680084 739.096130,358.895844 733.741394,360.978394 
	C732.212341,361.285187 731.050110,361.515259 729.494385,361.811371 
	C726.250916,362.712982 723.354675,363.417847 720.559570,364.407867 
	C710.904663,367.827698 701.402832,371.728546 691.626648,374.746155 
	C673.169617,380.443207 654.562500,385.653839 635.630737,390.928680 
	C622.389160,393.923431 609.349304,396.458557 596.735840,400.369141 
	C585.730835,403.780975 575.309021,401.391571 564.671753,399.664337 
	C564.048035,399.563049 563.568726,398.572083 563.365112,397.783325 
	C564.447449,397.241333 565.186890,396.911133 566.064209,396.519348 
	C564.787842,393.938171 563.164734,391.556702 562.380066,388.925201 
	C556.450745,369.043060 550.713501,349.103638 544.773621,329.224731 
	C544.526062,328.396393 542.865906,327.990173 541.823364,327.015411 
	C541.523804,324.072601 541.264771,321.501678 541.005737,318.930786 
z"/>
<path fill="#CDCEA9" opacity="1.000000" stroke="none" 
	d="
M68.593292,601.085388 
	C70.354202,601.576355 71.694954,602.478760 73.171272,602.871155 
	C74.416695,603.202087 75.819458,602.941956 77.152573,602.941956 
	C492.752441,602.942139 908.352295,602.945435 1323.952148,602.874512 
	C1326.814209,602.874023 1329.675903,601.850281 1332.895996,601.122314 
	C1333.650757,607.726562 1334.047363,614.512756 1334.465088,621.661255 
	C911.781372,621.661255 489.758514,621.661255 66.490822,621.661255 
	C67.076698,614.801514 67.654297,608.038635 68.593292,601.085388 
z"/>
<path fill="#0E99FD" opacity="1.000000" stroke="none" 
	d="
M776.208313,345.632416 
	C771.507568,329.691895 766.845032,313.739990 762.096863,297.813629 
	C755.730164,276.458710 749.297302,255.123535 742.826660,233.393768 
	C751.879150,230.338425 761.052612,227.841003 770.102539,224.955795 
	C781.026550,221.473099 792.010254,218.080704 802.671753,213.894272 
	C818.697876,207.601242 834.383179,200.444031 850.372375,194.051849 
	C862.041748,189.386673 873.794250,184.776840 885.828003,181.219101 
	C897.468811,177.777496 909.404968,174.891617 921.414917,173.257278 
	C935.548584,171.333969 949.891541,170.471146 964.162659,170.219482 
	C972.406738,170.074097 980.699341,171.962128 988.941528,173.135803 
	C990.281311,173.326584 991.472168,174.563187 992.788879,176.032867 
	C993.479370,179.142822 994.500732,181.507477 994.681030,183.934616 
	C995.604370,196.365387 996.284607,208.814011 997.121216,221.251617 
	C997.252563,223.204788 997.749634,225.133377 998.077637,227.073334 
	C996.012085,230.282623 993.946594,233.491913 991.517151,236.443604 
	C991.554932,233.904510 991.945862,231.621048 992.360229,229.341858 
	C995.328674,213.013794 981.025635,193.718552 964.918213,192.327240 
	C936.025696,189.831558 915.465271,212.323669 920.187622,240.848633 
	C921.093384,246.319641 921.237000,252.239197 920.180542,257.648773 
	C917.598694,270.869080 914.108643,283.912079 910.647034,297.112671 
	C905.487915,299.693481 900.618164,302.100983 895.859253,304.710571 
	C892.173401,306.731812 888.626038,309.005646 884.652100,311.213318 
	C878.989258,313.477966 873.773376,315.923920 868.376526,317.867249 
	C857.500732,321.783569 846.586731,325.614716 835.577515,329.134003 
	C821.956177,333.488342 808.263000,337.632477 794.517822,341.578278 
	C788.520874,343.299835 782.317810,344.303009 776.208313,345.632416 
z"/>
<path fill="#F9CAAD" opacity="1.000000" stroke="none" 
	d="
M910.984131,297.026428 
	C914.108643,283.912079 917.598694,270.869080 920.180542,257.648773 
	C921.237000,252.239197 921.093384,246.319641 920.187622,240.848633 
	C915.465271,212.323669 936.025696,189.831558 964.918213,192.327240 
	C981.025635,193.718552 995.328674,213.013794 992.360229,229.341858 
	C991.945862,231.621048 991.554932,233.904510 991.214966,236.592041 
	C984.283936,245.393372 986.173218,256.313110 983.140137,265.854370 
	C979.422424,277.549194 974.238647,288.346161 966.612732,297.978668 
	C965.751160,299.066986 965.094666,300.581329 964.980347,301.951324 
	C964.516541,307.507599 964.201050,313.081299 964.015869,318.654724 
	C963.616028,330.691071 963.335754,342.731384 962.991516,354.769653 
	C962.939941,356.571564 962.806641,358.371185 962.886230,360.526306 
	C962.714844,363.627777 961.962097,366.394775 962.096313,369.118073 
	C962.541260,378.142334 963.305786,387.150848 963.972900,397.039612 
	C964.323120,401.538239 964.579346,405.170349 964.984680,408.785767 
	C966.974182,426.531982 969.003235,444.273773 971.019287,462.430725 
	C972.026855,467.590088 973.033447,472.335815 974.117920,477.428833 
	C981.021851,480.170288 987.901611,482.423615 994.658569,484.999176 
	C1001.132141,487.466736 1007.651794,489.934479 1013.779907,493.117065 
	C1015.749084,494.139740 1017.695801,497.483887 1017.605408,499.681793 
	C1017.454529,503.352478 1013.779907,502.893585 1010.933350,503.023407 
	C997.852600,503.620270 984.763306,504.120361 971.701721,505.015442 
	C961.991028,505.680878 957.779541,503.734741 954.563660,496.014771 
	C953.989441,494.636200 953.675415,493.144592 953.054016,491.791168 
	C951.075378,487.481995 949.008423,483.213318 946.986816,478.527069 
	C946.774658,476.662598 946.733032,475.143799 946.300232,473.746094 
	C941.002502,456.636108 935.165222,439.676086 930.433289,422.412537 
	C924.924561,402.314728 919.624390,382.100494 915.645020,361.662018 
	C912.620544,346.127655 911.548340,330.186462 910.137024,314.378998 
	C909.626892,308.665558 910.656921,302.814636 910.984131,297.026428 
z"/>
<path fill="#F8C9AC" opacity="1.000000" stroke="none" 
	d="
M998.479858,227.037918 
	C997.749634,225.133377 997.252563,223.204788 997.121216,221.251617 
	C996.284607,208.814011 995.604370,196.365387 994.681030,183.934616 
	C994.500732,181.507477 993.479370,179.142822 992.964478,176.360077 
	C1005.433960,175.616974 1017.952454,177.765930 1031.175659,172.080688 
	C1029.099365,179.310028 1027.479126,184.950989 1025.597900,191.500977 
	C1037.989990,190.236435 1050.131958,190.704361 1059.682495,181.779785 
	C1063.198120,178.494537 1066.308716,174.777618 1069.632446,171.284637 
	C1073.739990,166.968048 1079.426270,166.239792 1083.547852,169.464264 
	C1087.869629,172.845352 1089.135254,179.015121 1085.981689,183.721893 
	C1083.592529,187.287750 1080.454224,190.344238 1077.911621,193.819275 
	C1077.077637,194.959213 1077.066406,196.701157 1076.678833,198.167801 
	C1078.065552,198.332413 1079.492920,198.795547 1080.832397,198.613205 
	C1089.513550,197.431549 1098.142090,195.517227 1106.854736,195.022476 
	C1113.697388,194.633911 1119.262329,197.405212 1121.585938,205.091553 
	C1122.851196,209.276947 1125.470825,213.245743 1128.208252,216.741592 
	C1131.230713,220.601410 1131.950562,223.936417 1128.006714,227.197983 
	C1123.019287,231.322601 1118.845093,237.274551 1111.915405,237.835999 
	C1104.398926,238.444992 1097.857300,240.968323 1091.822510,245.081177 
	C1089.269531,246.821091 1086.964844,249.048676 1084.915283,251.378265 
	C1080.825562,256.026825 1075.873535,256.357300 1071.491577,251.990799 
	C1070.442749,250.945663 1069.333862,249.960876 1068.083130,248.789673 
	C1063.799683,251.291046 1061.798340,259.675751 1054.415039,254.106384 
	C1051.897583,257.697571 1049.087402,257.612305 1045.592163,255.272430 
	C1044.394775,254.470764 1041.827026,254.520798 1040.518799,255.277145 
	C1033.099854,259.566681 1028.570679,256.180450 1024.586792,249.192993 
	C1020.280579,241.640305 1020.191772,233.342010 1020.116333,224.232941 
	C1021.754456,216.260269 1023.266602,209.093399 1024.890991,201.394470 
	C1017.928101,208.691132 1013.601562,216.981644 1012.979614,223.827682 
	C1008.280457,224.885956 1003.581299,225.944229 998.479858,227.037918 
z"/>
<path fill="#EAB094" opacity="1.000000" stroke="none" 
	d="
M540.630920,318.955231 
	C541.264771,321.501678 541.523804,324.072601 541.657471,327.284912 
	C534.289001,332.305908 527.161072,336.893433 519.762024,340.991364 
	C514.893372,343.687805 509.832367,346.661957 504.499573,347.737854 
	C497.749207,349.099792 490.612183,348.409241 483.683197,349.050140 
	C469.020447,350.406311 454.307556,351.534454 439.755157,353.697571 
	C416.593262,357.140442 393.717926,362.215668 371.913452,370.937347 
	C353.317047,378.375824 334.958405,386.439728 316.708221,394.699005 
	C308.128204,398.582031 300.050293,403.574463 291.435547,407.791290 
	C291.181274,404.696686 291.236328,401.874939 291.291382,399.053162 
	C295.579712,396.991058 300.041962,395.224030 304.126648,392.816437 
	C323.010986,381.685608 342.951721,372.852478 363.365356,364.992676 
	C365.298309,364.248474 367.005707,362.918427 368.920471,361.535919 
	C375.580872,359.375183 382.122162,357.477386 388.700226,355.717041 
	C398.497925,353.095123 408.262909,350.310486 418.150543,348.076202 
	C428.256531,345.792603 438.453522,343.835419 448.687012,342.218170 
	C455.966400,341.067780 463.360443,340.534973 470.724792,340.058502 
	C479.136230,339.514343 487.581940,338.912231 495.993439,339.119415 
	C504.799988,339.336243 512.045776,336.013489 519.171204,331.438416 
	C526.035950,327.030701 533.215088,323.112762 540.630920,318.955231 
z"/>
<path fill="#E1B69C" opacity="1.000000" stroke="none" 
	d="
M1013.410278,223.906525 
	C1013.601562,216.981644 1017.928101,208.691132 1024.890991,201.394470 
	C1023.266602,209.093399 1021.754456,216.260269 1020.080933,223.784393 
	C1017.893311,224.089569 1015.867126,224.037460 1013.410278,223.906525 
z"/>
<path fill="#E0E4AD" opacity="1.000000" stroke="none" 
	d="
M971.018311,462.017120 
	C969.003235,444.273773 966.974182,426.531982 964.984680,408.785767 
	C964.579346,405.170349 964.323120,401.538239 964.000244,397.460876 
	C1002.699829,403.535370 1039.417236,415.733948 1073.204590,435.918762 
	C1080.816895,440.466431 1088.972534,445.237488 1094.515503,451.877869 
	C1105.741943,465.326935 1104.185669,484.234924 1093.103149,499.451050 
	C1083.147095,513.120850 1069.376953,520.090515 1053.306030,522.853821 
	C1028.322144,527.149719 1003.294617,531.251343 978.194946,534.793030 
	C963.605713,536.851685 948.856750,537.889221 934.149048,538.970642 
	C912.975220,540.527527 891.790833,542.296692 870.579956,542.916260 
	C832.832520,544.018921 795.063538,544.654663 757.300415,544.835205 
	C737.541626,544.929688 717.775879,543.650269 698.013855,542.975464 
	C678.751465,542.317627 659.490906,541.605774 640.227356,540.982727 
	C628.098450,540.590332 615.967468,540.138000 603.834412,540.023376 
	C559.373596,539.603455 514.909485,539.471436 470.450714,538.906616 
	C449.016632,538.634338 427.578857,537.910400 406.166351,536.893250 
	C385.625061,535.917480 365.066895,534.793945 344.602051,532.837097 
	C318.542480,530.345337 292.330139,528.260925 267.234711,519.967102 
	C259.048401,517.261536 250.778717,514.386841 243.242447,510.305573 
	C239.193481,508.112915 235.368011,503.709045 233.611847,499.415344 
	C228.154129,486.071594 228.247559,472.548096 235.272247,459.471893 
	C239.397476,451.792969 246.812668,449.378937 254.992432,447.254486 
	C262.804504,467.142395 269.999573,486.821289 277.132996,506.522491 
	C279.766571,513.795898 283.725586,515.396423 290.582489,511.835541 
	C298.652283,507.644897 300.849091,500.421265 300.447937,492.119476 
	C299.713989,476.930359 299.367737,461.838562 305.764496,447.501404 
	C306.197113,446.531708 305.874268,445.224976 306.335266,444.054871 
	C308.085846,443.887360 309.416046,443.809387 310.720245,443.582092 
	C327.040863,440.738220 343.351501,437.836853 359.676941,435.021179 
	C384.169556,430.796875 408.674988,426.647064 433.169037,422.431122 
	C453.256531,418.973633 473.340393,415.494385 493.415985,411.968536 
	C503.691864,410.163788 513.978027,408.393555 524.202148,406.324005 
	C537.172668,403.698486 550.084839,400.784637 563.022217,397.995117 
	C563.568726,398.572083 564.048035,399.563049 564.671753,399.664337 
	C575.309021,401.391571 585.730835,403.780975 596.735840,400.369141 
	C609.349304,396.458557 622.389160,393.923431 635.921448,391.180298 
	C646.659119,391.057770 656.714172,390.401245 666.780029,390.062866 
	C689.508972,389.298798 712.246216,388.043610 734.974609,388.150513 
	C789.330017,388.406189 843.682190,389.333374 898.288696,390.255585 
	C900.070923,396.280365 901.352234,402.118744 903.173767,407.783417 
	C909.815369,428.438477 916.458740,449.096619 923.476501,469.625366 
	C926.418945,478.232758 931.192993,480.457794 940.503845,479.173676 
	C942.631897,478.880188 944.816833,478.999603 946.975586,478.929016 
	C949.008423,483.213318 951.075378,487.481995 953.054016,491.791168 
	C953.675415,493.144592 953.989441,494.636200 954.563660,496.014771 
	C957.779541,503.734741 961.991028,505.680878 971.701721,505.015442 
	C984.763306,504.120361 997.852600,503.620270 1010.933350,503.023407 
	C1013.779907,502.893585 1017.454529,503.352478 1017.605408,499.681793 
	C1017.695801,497.483887 1015.749084,494.139740 1013.779907,493.117065 
	C1007.651794,489.934479 1001.132141,487.466736 994.658569,484.999176 
	C987.901611,482.423615 981.021851,480.170288 974.542969,477.414673 
	C976.685974,477.232239 978.542175,477.183319 980.264526,477.639496 
	C983.474060,478.489624 986.406860,477.606812 987.197266,474.696075 
	C987.677734,472.926849 986.295410,469.528107 984.705566,468.537384 
	C980.443665,465.881683 975.619324,464.128693 971.018311,462.017120 
z"/>
<path fill="#3C3B3B" opacity="1.000000" stroke="none" 
	d="
M305.902832,444.075012 
	C305.874268,445.224976 306.197113,446.531708 305.764496,447.501404 
	C299.367737,461.838562 299.713989,476.930359 300.447937,492.119476 
	C300.849091,500.421265 298.652283,507.644897 290.582489,511.835541 
	C283.725586,515.396423 279.766571,513.795898 277.132996,506.522491 
	C269.999573,486.821289 262.804504,467.142395 255.372650,447.211029 
	C252.750671,440.062195 249.970047,433.263458 248.181717,426.213043 
	C247.053284,421.764252 247.220581,416.938629 247.235184,412.283386 
	C247.238632,411.178406 248.764694,409.421295 249.921265,409.077576 
	C262.644897,405.296631 275.429321,401.719269 288.217865,398.160858 
	C288.924866,397.964142 289.813538,398.420258 290.954529,398.812805 
	C291.236328,401.874939 291.181274,404.696686 291.299957,408.185913 
	C289.080109,414.682709 288.507080,420.549652 290.298492,426.737305 
	C292.725861,435.121613 297.981750,440.743744 305.902832,444.075012 
z"/>
<path fill="#FACAAD" opacity="1.000000" stroke="none" 
	d="
M306.335266,444.054871 
	C297.981750,440.743744 292.725861,435.121613 290.298492,426.737305 
	C288.507080,420.549652 289.080109,414.682709 291.609253,408.458740 
	C300.050293,403.574463 308.128204,398.582031 316.708221,394.699005 
	C334.958405,386.439728 353.317047,378.375824 371.913452,370.937347 
	C393.717926,362.215668 416.593262,357.140442 439.755157,353.697571 
	C454.307556,351.534454 469.020447,350.406311 483.683197,349.050140 
	C490.612183,348.409241 497.749207,349.099792 504.499573,347.737854 
	C509.832367,346.661957 514.893372,343.687805 519.762024,340.991364 
	C527.161072,336.893433 534.289001,332.305908 541.697937,327.656830 
	C542.865906,327.990173 544.526062,328.396393 544.773621,329.224731 
	C550.713501,349.103638 556.450745,369.043060 562.380066,388.925201 
	C563.164734,391.556702 564.787842,393.938171 566.064209,396.519348 
	C565.186890,396.911133 564.447449,397.241333 563.365112,397.783325 
	C550.084839,400.784637 537.172668,403.698486 524.202148,406.324005 
	C513.978027,408.393555 503.691864,410.163788 493.415985,411.968536 
	C473.340393,415.494385 453.256531,418.973633 433.169037,422.431122 
	C408.674988,426.647064 384.169556,430.796875 359.676941,435.021179 
	C343.351501,437.836853 327.040863,440.738220 310.720245,443.582092 
	C309.416046,443.809387 308.085846,443.887360 306.335266,444.054871 
z"/>
<path fill="#EEF0D1" opacity="1.000000" stroke="none" 
	d="
M898.035706,389.989471 
	C843.682190,389.333374 789.330017,388.406189 734.974609,388.150513 
	C712.246216,388.043610 689.508972,389.298798 666.780029,390.062866 
	C656.714172,390.401245 646.659119,391.057770 636.308411,391.318237 
	C654.562500,385.653839 673.169617,380.443207 691.626648,374.746155 
	C701.402832,371.728546 710.904663,367.827698 720.559570,364.407867 
	C723.354675,363.417847 726.250916,362.712982 729.958130,361.890289 
	C771.303772,361.930603 811.792175,361.959686 852.280518,361.984375 
	C863.777405,361.991364 875.276611,362.116577 886.769897,361.913147 
	C890.702454,361.843536 892.733887,362.616699 893.372620,367.089294 
	C894.472046,374.787659 896.435120,382.362671 898.035706,389.989471 
z"/>
<path fill="#E7B094" opacity="1.000000" stroke="none" 
	d="
M898.288696,390.255585 
	C896.435120,382.362671 894.472046,374.787659 893.372620,367.089294 
	C892.733887,362.616699 890.702454,361.843536 886.769897,361.913147 
	C875.276611,362.116577 863.777405,361.991364 852.280518,361.984375 
	C811.792175,361.959686 771.303772,361.930603 730.351685,361.824280 
	C731.050110,361.515259 732.212341,361.285187 734.195374,361.049316 
	C786.924255,361.043549 838.832214,361.043549 890.834045,361.043549 
	C890.908081,359.906036 891.072449,359.242889 890.973938,358.621429 
	C888.595154,343.618256 885.524414,328.694885 885.946960,313.375092 
	C885.967041,312.648224 885.341797,311.903534 885.017090,311.167175 
	C888.626038,309.005646 892.173401,306.731812 895.859253,304.710571 
	C900.618164,302.100983 905.487915,299.693481 910.647034,297.112671 
	C910.656921,302.814636 909.626892,308.665558 910.137024,314.378998 
	C911.548340,330.186462 912.620544,346.127655 915.645020,361.662018 
	C919.624390,382.100494 924.924561,402.314728 930.433289,422.412537 
	C935.165222,439.676086 941.002502,456.636108 946.300232,473.746094 
	C946.733032,475.143799 946.774658,476.662598 946.986816,478.527069 
	C944.816833,478.999603 942.631897,478.880188 940.503845,479.173676 
	C931.192993,480.457794 926.418945,478.232758 923.476501,469.625366 
	C916.458740,449.096619 909.815369,428.438477 903.173767,407.783417 
	C901.352234,402.118744 900.070923,396.280365 898.288696,390.255585 
z"/>
<path fill="#000000" opacity="1.000000" stroke="none" 
	d="
M884.652100,311.213287 
	C885.341797,311.903534 885.967041,312.648224 885.946960,313.375092 
	C885.524414,328.694885 888.595154,343.618256 890.973938,358.621429 
	C891.072449,359.242889 890.908081,359.906036 890.834045,361.043549 
	C838.832214,361.043549 786.924255,361.043549 734.562256,360.972626 
	C739.096130,358.895844 744.011719,356.680084 749.088013,354.930603 
	C757.919800,351.886749 766.850830,349.130707 775.974304,345.943237 
	C782.317810,344.303009 788.520874,343.299835 794.517822,341.578278 
	C808.263000,337.632477 821.956177,333.488342 835.577515,329.134003 
	C846.586731,325.614716 857.500732,321.783569 868.376526,317.867249 
	C873.773376,315.923920 878.989258,313.477966 884.652100,311.213287 
z"/>
<path fill="#EAB294" opacity="1.000000" stroke="none" 
	d="
M971.019287,462.430725 
	C975.619324,464.128693 980.443665,465.881683 984.705566,468.537384 
	C986.295410,469.528107 987.677734,472.926849 987.197266,474.696075 
	C986.406860,477.606812 983.474060,478.489624 980.264526,477.639496 
	C978.542175,477.183319 976.685974,477.232239 974.465088,477.067383 
	C973.033447,472.335815 972.026855,467.590088 971.019287,462.430725 
z"/>
</svg>