<svg width="34" height="39" viewBox="0 0 34 39" fill="none" xmlns="http://www.w3.org/2000/svg">
<g id="Group">
<g id="Layer_2_23_">
<path id="Vector" d="M5.26156 16.6478V23.417C5.26156 24.2742 5.60457 25.0505 6.15897 25.6191C5.51398 34.2491 2.06658 35.4283 3.19671 36.2174C3.47107 36.4091 6.82367 36.5333 11.0894 36.59C12.608 37.5967 14.6243 38.21 16.8372 38.21C16.8387 38.21 16.8402 38.21 16.8417 38.21C16.8432 38.21 16.8447 38.21 16.8462 38.21C19.059 38.21 21.0754 37.5967 22.5939 36.59C26.8599 36.5333 30.2123 36.4091 30.4866 36.2174C31.6168 35.4283 28.1694 34.249 27.5244 25.6191C28.079 25.0505 28.4218 24.2742 28.4218 23.417V16.6478C31.4339 15.9335 33.6835 13.226 33.6835 9.99808C33.6835 6.22589 30.6151 3.15731 26.8429 3.15731C25.9416 3.15731 25.0633 3.33625 24.2416 3.68284C22.5983 1.40325 19.8533 0 16.8448 0C16.8438 0 16.8427 0.000123918 16.8418 0.000123918C16.841 0.000123918 16.8397 0 16.8389 0C13.8306 0 11.0852 1.40312 9.44206 3.68284C8.62036 3.33625 7.74203 3.15731 6.84077 3.15731C3.06858 3.15731 2.04735e-08 6.22589 2.04735e-08 9.99808C-0.000247816 13.226 2.24961 15.9335 5.26156 16.6478Z" fill="#5C89C7"/>
</g>
</g>
</svg>
