<svg width="53" height="44" viewBox="0 0 53 44" fill="none" xmlns="http://www.w3.org/2000/svg">
<path id="Vector" d="M17.6133 13.2539C12.7207 15.4219 8.82422 19.3125 6.65039 24.2051C6.32227 24.9434 6.65625 25.8047 7.39453 26.1328C7.58789 26.2207 7.78711 26.2617 7.98633 26.2617C8.54883 26.2617 9.08203 25.9395 9.32227 25.3945C11.2031 21.1641 14.5664 17.8008 18.7969 15.9258C19.5352 15.5977 19.8691 14.7363 19.541 13.998C19.2188 13.2598 18.3516 12.9258 17.6133 13.2539ZM30.1875 6.89648C30.6094 6.20508 30.8672 5.40234 30.8672 4.53516C30.8672 2.02734 28.834 0 26.332 0C23.8242 0 21.7969 2.0332 21.7969 4.53516C21.7969 5.40234 22.0547 6.21094 22.4766 6.89648C9.7793 8.76562 0.00585929 19.7285 0.00585929 32.9355V36.1055C0.00585929 36.9141 0.662109 37.5703 1.4707 37.5703H51.1992C52.0078 37.5703 52.6641 36.9141 52.6641 36.1055V32.9355C52.6582 19.7285 42.8789 8.77148 30.1875 6.89648ZM49.7344 34.6406H2.92969V32.9355C2.92969 20.0332 13.4297 9.53906 26.332 9.53906C39.2344 9.53906 49.7344 20.0332 49.7344 32.9355V34.6406ZM51.1934 40.5117H1.46484C0.65625 40.5117 0 41.168 0 41.9766C0 42.7852 0.65625 43.4414 1.46484 43.4414H51.1934C52.002 43.4414 52.6582 42.7852 52.6582 41.9766C52.6582 41.168 52.002 40.5117 51.1934 40.5117Z" fill="#5C89C7"/>
</svg>
