<svg width="24" height="24" viewBox="0 0 24 24" fill="none" xmlns="http://www.w3.org/2000/svg">
<g id="Group 43">
<g id="Group 27">
<path id="Vector" d="M14.7889 7.88976C14.7971 7.73357 14.7429 7.58055 14.6382 7.4643L12.5228 5.11614C12.3631 4.93884 12.1125 4.87535 11.8876 4.95499C11.6628 5.03464 11.5081 5.24194 11.4957 5.48016L11.4139 7.04788C10.0247 7.25438 8.76719 8.06922 8.02034 9.25787C7.21908 10.5332 7.05665 12.135 7.58579 13.5426C7.64886 13.7105 7.7661 13.8422 7.91018 13.9254C8.09657 14.033 8.32794 14.0594 8.54517 13.9778C8.93028 13.833 9.12511 13.4035 8.9803 13.0183C8.6139 12.0437 8.72666 10.9342 9.28186 10.0505C9.74451 9.31412 10.4916 8.78598 11.3339 8.58077L11.2627 9.94371C11.2511 10.1663 11.3659 10.3749 11.5566 10.485C11.57 10.4928 11.5838 10.5 11.5978 10.5068C11.8132 10.6094 12.0691 10.5723 12.2463 10.4126L14.5946 8.29722C14.711 8.19254 14.7808 8.04599 14.7889 7.88976Z" fill="#146C94"/>
<path id="Vector_2" d="M12.8267 16.77C13.1757 16.718 13.5215 16.6287 13.8588 16.4992C15.0662 16.0354 16.0207 15.1292 16.5465 13.9475C17.0007 12.9268 17.0878 11.7723 16.7919 10.6967C16.6829 10.3001 16.2727 10.0669 15.876 10.1761C15.4793 10.2852 15.2462 10.6953 15.3554 11.092C15.5602 11.8362 15.4998 12.6351 15.1853 13.3418C14.8213 14.1599 14.1605 14.7873 13.3246 15.1083C13.1871 15.1611 13.0475 15.2039 12.9066 15.2381L12.9778 13.8738C12.9903 13.6356 12.8577 13.4133 12.6427 13.3107C12.4273 13.2081 12.1714 13.2452 11.9942 13.4049L9.64593 15.5202C9.52975 15.6249 9.45987 15.7715 9.45167 15.9277C9.44349 16.0839 9.49772 16.2369 9.60242 16.3532L11.7178 18.7014C11.7599 18.7482 11.8083 18.787 11.861 18.8174C12.0078 18.9022 12.1874 18.9212 12.353 18.8626C12.5778 18.7829 12.7325 18.5756 12.7449 18.3374L12.8267 16.77Z" fill="#146C94"/>
</g>
<circle id="Ellipse 51" cx="12" cy="12" r="11.5" stroke="#146C94"/>
</g>
</svg>
