<svg width="139" height="78" viewBox="0 0 139 78" fill="none" xmlns="http://www.w3.org/2000/svg">
<g id="Frame" clip-path="url(#clip0_9565_891)">
<g id="Group">
<g id="OBJECTS">
<g id="Group_2">
<g id="Vector" style="mix-blend-mode:multiply" opacity="0.35">
<path d="M1.77295 77.3831L125.493 78L135.674 62.828H12.2729L1.77295 77.3831Z" fill="#4E8FB7"/>
</g>
<g id="Group_3">
<g id="Group_4">
<path id="Vector_2" d="M4.85092 75.1652H0V75.4748H4.85092V75.1652Z" fill="#70B2DD"/>
<path id="Vector_3" d="M6.20871 73.2913H1.35779V73.6009H6.20871V73.2913Z" fill="#70B2DD"/>
<path id="Vector_4" d="M7.56881 71.4175H2.7179V71.7271H7.56881V71.4175Z" fill="#70B2DD"/>
<path id="Vector_5" d="M8.92892 69.5436H4.078V69.8532H8.92892V69.5436Z" fill="#70B2DD"/>
<path id="Vector_6" d="M10.2867 67.6697H5.43579V67.9793H10.2867V67.6697Z" fill="#70B2DD"/>
<path id="Vector_7" d="M11.6468 65.7959H6.7959V66.1055H11.6468V65.7959Z" fill="#70B2DD"/>
<path id="Vector_8" d="M13.0046 63.9243H8.15369V64.234H13.0046V63.9243Z" fill="#70B2DD"/>
</g>
<g id="Group_5">
<path id="Vector_9" d="M130.055 75.1652H125.204V75.4748H130.055V75.1652Z" fill="#70B2DD"/>
<path id="Vector_10" d="M131.413 73.2913H126.562V73.6009H131.413V73.2913Z" fill="#70B2DD"/>
<path id="Vector_11" d="M132.773 71.4175H127.922V71.7271H132.773V71.4175Z" fill="#70B2DD"/>
<path id="Vector_12" d="M134.131 69.5436H129.28V69.8532H134.131V69.5436Z" fill="#70B2DD"/>
<path id="Vector_13" d="M135.491 67.6697H130.64V67.9793H135.491V67.6697Z" fill="#70B2DD"/>
<path id="Vector_14" d="M136.849 65.7959H131.998V66.1055H136.849V65.7959Z" fill="#70B2DD"/>
<path id="Vector_15" d="M138.209 63.9243H133.358V64.234H138.209V63.9243Z" fill="#70B2DD"/>
</g>
<path id="Vector_16" d="M135.674 62.828L134.883 63.922L134.661 64.2317L133.53 65.7959L133.307 66.1055L132.181 67.6697L131.959 67.9794L130.828 69.5436L130.606 69.8532L129.477 71.4175L129.255 71.7271L128.124 73.2936L127.901 73.6032L126.771 75.1652L126.548 75.4748L125.174 77.3831H1.77295L3.1491 75.4748L3.37157 75.1652L4.50001 73.6032L4.72478 73.2936L5.85322 71.7271L6.078 71.4175L7.20414 69.8532L7.42662 69.5436L8.55735 67.9794L8.77983 67.6697L9.90827 66.1055L10.1307 65.7959L11.2615 64.2317L11.484 63.922L12.2729 62.828H135.674Z" fill="#ABDAF7"/>
<path id="Vector_17" d="M30.2844 62.828L20.0551 77.3831H12.3945L20.8028 65.4198L22.6239 62.828H30.2844Z" fill="#70B2DD"/>
<path id="Vector_18" d="M48.3739 62.828L43.945 69.1262L38.1445 77.3831H30.4794L37.1674 67.867L40.711 62.828H48.3739Z" fill="#70B2DD"/>
<path id="Vector_19" d="M67.6491 62.828L62.2179 70.5528L57.4175 77.3831H49.7546L54.7959 70.211L59.9863 62.828H67.6491Z" fill="#70B2DD"/>
<path id="Vector_20" d="M87.4564 62.828L82.2752 70.1996L77.227 77.3831H69.5619L74.3555 70.5619L79.7935 62.828H87.4564Z" fill="#70B2DD"/>
<path id="Vector_21" d="M105.544 62.828L102.564 67.062L95.3119 77.3831H87.6514L93.5138 69.0413L97.883 62.828H105.544Z" fill="#70B2DD"/>
<path id="Vector_22" d="M124.817 62.828L121.248 67.9083L114.587 77.3831H106.924L113.658 67.8028L117.154 62.828H124.817Z" fill="#70B2DD"/>
</g>
<g id="Vector_23" style="mix-blend-mode:multiply" opacity="0.35">
<path d="M127.943 62.828H14.3005C13.4771 63.1468 13.0046 63.5206 13.0046 63.9174C13.0046 65.0115 16.562 65.9174 21.2156 66.0849C21.7156 66.1009 22.2225 66.1078 22.7455 66.1078C26.0436 66.1078 28.9588 65.7385 30.7202 65.1743C31.6606 66.1651 33.9129 67.0826 37.1675 67.8693C39.0964 68.3371 41.3785 68.7615 43.945 69.1261C47.156 69.5849 50.8166 69.9518 54.7936 70.2133C57.1629 70.367 59.6446 70.4816 62.2156 70.555C64.2409 70.6147 66.3234 70.6422 68.445 70.6422C70.4542 70.6422 72.4267 70.6147 74.3533 70.5642C77.1033 70.4931 79.7523 70.3693 82.273 70.2018C86.4198 69.9289 90.2111 69.5367 93.5092 69.0436C97.2271 68.4931 100.314 67.8234 102.56 67.0642C103.667 66.6927 104.573 66.3005 105.248 65.8899C106.548 66.7821 109.672 67.4885 113.654 67.8027C115.103 67.9174 116.663 67.9794 118.291 67.9794C119.303 67.9794 120.291 67.9541 121.243 67.9082C127.392 67.6147 131.993 66.4105 131.993 64.9656C131.993 64.1284 130.443 63.3716 127.936 62.8257L127.943 62.828Z" fill="#4E8FB7"/>
</g>
<g id="Group_6">
<g id="Group_7">
<path id="Vector_24" d="M80.9311 14.7339L69.4633 15.2752L69.9036 0.181152L80.9311 14.7339Z" fill="#ABDAF7"/>
<path id="Vector_25" d="M80.9312 0.181152H69.9037V14.7339H80.9312V0.181152Z" fill="white"/>
<path id="Vector_26" d="M79.7615 1.41968H71.0757V13.4449H79.7615V1.41968Z" fill="#CEE8F4"/>
</g>
<g id="Group_8">
<path id="Vector_27" d="M93.3142 6.83028L83.8853 7.32798L84.3004 0L93.3142 6.83028Z" fill="#ABDAF7"/>
<path id="Vector_28" d="M93.3142 6.83028V0L84.3004 0V6.83028L93.3142 6.83028Z" fill="white"/>
<path id="Vector_29" d="M92.3234 5.945V1.02527L85.3234 1.02527V5.945H92.3234Z" fill="#CEE8F4"/>
</g>
<g id="Group_9">
<path id="Vector_30" d="M93.3142 14.9151L83.8853 15.4036L84.3004 8.08484L93.3142 14.9151Z" fill="#ABDAF7"/>
<path id="Vector_31" d="M93.3142 14.9151V8.08484H84.3004V14.9151H93.3142Z" fill="white"/>
<path id="Vector_32" d="M92.3234 14.0298V9.11011H85.3234V14.0298H92.3234Z" fill="#CEE8F4"/>
</g>
<g id="Group_10">
<path id="Vector_33" d="M36.6353 11.5551C39.1434 11.5551 41.1766 9.5219 41.1766 7.01382C41.1766 4.50574 39.1434 2.47253 36.6353 2.47253C34.1272 2.47253 32.094 4.50574 32.094 7.01382C32.094 9.5219 34.1272 11.5551 36.6353 11.5551Z" fill="#CEE8F4"/>
<path id="Vector_34" d="M37.0022 11.1858C39.5103 11.1858 41.5435 9.15264 41.5435 6.64456C41.5435 4.13647 39.5103 2.10327 37.0022 2.10327C34.4941 2.10327 32.4609 4.13647 32.4609 6.64456C32.4609 9.15264 34.4941 11.1858 37.0022 11.1858Z" fill="white"/>
<path id="Vector_35" d="M37.0022 10.2088C38.9707 10.2088 40.5664 8.61301 40.5664 6.64454C40.5664 4.67608 38.9707 3.08032 37.0022 3.08032C35.0337 3.08032 33.438 4.67608 33.438 6.64454C33.438 8.61301 35.0337 10.2088 37.0022 10.2088Z" fill="#CEE8F4"/>
</g>
</g>
<g id="Group_11">
<g id="Group_12">
<path id="Vector_36" d="M21.3394 44.5366C21.1857 44.2522 20.6192 39.3348 19.5343 37.4839C18.4495 35.633 17.805 40.4334 17.805 40.4334C17.805 40.4334 15.8187 31.8532 14.4242 32.1169C13.0297 32.383 15.133 40.8967 15.133 40.8967C15.133 40.8967 13.8554 38.383 13.0297 38.5045C12.2041 38.6261 13.649 44.0963 13.649 44.0963L16.1261 49.8761L21.3371 47.938V44.5366H21.3394Z" fill="#70B2DD"/>
<path id="Vector_37" d="M18.9083 49.8508C18.8326 49.8508 18.7661 49.7958 18.7546 49.7178C18.1881 45.8279 15.2867 36.8027 15.2569 36.7132C15.2317 36.633 15.2752 36.5435 15.3578 36.5183C15.4404 36.4908 15.5275 36.5366 15.5528 36.6169C15.5826 36.7086 18.4908 45.7568 19.0619 49.6719C19.0734 49.7568 19.0161 49.8348 18.9312 49.8485C18.9243 49.8485 18.9151 49.8485 18.9083 49.8485V49.8508Z" fill="#ABDAF7"/>
<path id="Vector_38" d="M18.8119 49.2729C18.8119 49.2729 17.7797 41.1054 19.0183 40.4334C20.2568 39.7614 21.1353 42.9495 21.1353 42.9495C21.1353 42.9495 22.5022 32.4357 23.9609 32.1261C25.4197 31.8164 24.9036 41.6215 24.9036 41.6215C24.9036 41.6215 25.727 39.3508 27.2775 39.8141C28.8256 40.2797 24.8531 48.8967 24.8531 48.8967L23.6651 54.2637H19.9495L18.8142 49.2706L18.8119 49.2729Z" fill="#4E8FB7"/>
<g id="Group_13">
<path id="Vector_39" d="M22.0642 54.4197C22.0642 54.4197 22.0573 54.4197 22.0527 54.4197C21.9678 54.4128 21.9036 54.3394 21.9082 54.2545L22.8669 39.9587C22.8738 39.8738 22.9495 39.805 23.032 39.8142C23.1169 39.8211 23.1811 39.8945 23.1765 39.9793L22.2178 54.2752C22.2132 54.3578 22.1444 54.4197 22.0642 54.4197Z" fill="#70B2DD"/>
</g>
<path id="Vector_40" d="M21.3394 54.266C21.2889 54.0963 22.5275 46.9747 23.727 45.6215C24.9265 44.266 25.4311 48.2156 25.4311 48.2156C25.4311 48.2156 28.0642 42.7958 29.1857 42.9518C30.3073 43.1078 27.6375 49.61 27.6375 49.61C27.6375 49.61 29.0687 48.1399 29.9609 49.0688C30.8509 49.9977 26.0137 54.2683 26.0137 54.2683H21.3417L21.3394 54.266Z" fill="#70B2DD"/>
<g id="Group_14">
<path id="Vector_41" d="M27.2753 46.9747C27.2753 46.9747 25.3533 51.7247 23.9611 54.266L27.2753 46.9747Z" fill="#F0F8FF"/>
<path id="Vector_42" d="M23.961 54.4196C23.9358 54.4196 23.9106 54.4128 23.8876 54.4013C23.8119 54.36 23.7844 54.266 23.8257 54.1903C25.1995 51.6857 27.1124 46.9632 27.133 46.915C27.1651 46.8348 27.2546 46.7981 27.3349 46.8302C27.4151 46.8623 27.4518 46.9517 27.4197 47.032C27.4014 47.0802 25.4794 51.8187 24.0963 54.3394C24.0688 54.3898 24.0161 54.4196 23.961 54.4196Z" fill="#ABDAF7"/>
</g>
<path id="Vector_43" d="M20.555 54.0183C20.555 54.0183 18.6192 46.5481 17.4977 45.1559C16.3761 43.7614 16.2591 47.711 16.2591 47.711C16.2591 47.711 13.4334 40.5894 10.8027 38.7316C8.16968 36.8738 12.7775 47.1307 12.7775 47.1307C12.7775 47.1307 9.75913 44.6146 9.44949 46.0848C9.13986 47.555 16.1834 54.0183 16.1834 54.0183H20.5573H20.555Z" fill="#ABDAF7"/>
<path id="Vector_44" d="M17.9426 53.9472C14.7706 47.9082 12.6284 42.938 12.6055 42.8875C12.571 42.8095 12.4793 42.7729 12.4013 42.8073C12.3233 42.8417 12.2866 42.9311 12.321 43.0114C12.3417 43.0618 14.4885 48.0412 17.6674 54.0917C17.6949 54.1444 17.7499 54.1742 17.805 54.1742C17.8302 54.1742 17.8532 54.1696 17.8761 54.1559C17.9518 54.1169 17.9816 54.0229 17.9403 53.9472H17.9426Z" fill="#CEE6F2"/>
</g>
<path id="Vector_45" d="M27.2752 53.9564L26.9403 56.227L26.0802 62.0596C25.9059 63.2247 24.9953 64.078 23.9288 64.078H18.9426C17.8921 64.078 16.9953 63.2546 16.8004 62.1169L15.7935 56.2247L15.4059 53.9541H27.2752V53.9564Z" fill="#70B2DD"/>
<path id="Vector_46" d="M27.2752 53.9564L26.9403 56.2248H15.7935L15.4059 53.9564H27.2752Z" fill="#ABDAF7"/>
</g>
<g id="Group_15">
<path id="Vector_47" d="M111 11.8188H98.5757L100.897 2.45178H108.406L111 11.8188Z" fill="#CEE8F4"/>
<path id="Vector_48" d="M105.119 11.8187H103.867V63.149H105.119V11.8187Z" fill="#70B2DD"/>
<path id="Vector_49" d="M99.9977 63.149H108.924L105.099 61.7316C104.709 61.5871 104.28 61.5871 103.888 61.7293L99.9977 63.149Z" fill="#ABDAF7"/>
</g>
<g id="Group_16">
<path id="Vector_50" d="M127.624 40.4106V64.078H125.225V60.805H109.821V64.078H107.576V40.4106C107.576 39.5 108.314 38.7615 109.225 38.7615H125.977C126.888 38.7615 127.626 39.5 127.626 40.4106H127.624Z" fill="#70B2DD"/>
<g id="Group_17">
<path id="Vector_51" d="M125.223 41.3051H109.819V45.5895H125.223V41.3051Z" fill="#4E8FB7"/>
<path id="Vector_52" d="M118.172 43.4473C118.172 43.8074 117.881 44.0987 117.521 44.0987C117.161 44.0987 116.869 43.8074 116.869 43.4473C116.869 43.0872 117.161 42.7959 117.521 42.7959C117.881 42.7959 118.172 43.0872 118.172 43.4473Z" fill="#70B2DD"/>
<path id="Vector_53" d="M125.223 47.3074H109.819V51.5918H125.223V47.3074Z" fill="#4E8FB7"/>
<path id="Vector_54" d="M118.172 49.4518C118.172 49.8119 117.881 50.1032 117.521 50.1032C117.161 50.1032 116.869 49.8119 116.869 49.4518C116.869 49.0917 117.161 48.8004 117.521 48.8004C117.881 48.8004 118.172 49.0917 118.172 49.4518Z" fill="#70B2DD"/>
<path id="Vector_55" d="M125.223 53.3119H109.819V57.5963H125.223V53.3119Z" fill="#4E8FB7"/>
<path id="Vector_56" d="M118.172 55.4541C118.172 55.8142 117.881 56.1055 117.521 56.1055C117.161 56.1055 116.869 55.8142 116.869 55.4541C116.869 55.094 117.161 54.8027 117.521 54.8027C117.881 54.8027 118.172 55.094 118.172 55.4541Z" fill="#70B2DD"/>
</g>
</g>
<g id="Group_18">
<g id="Group_19">
<path id="Vector_57" d="M99.7661 37.8028C99.7661 37.8028 91.3647 25.8051 82.7271 29.5963C76.5987 32.2867 72.0115 33.8234 63.8211 28.3051C55.6308 22.7844 43.3418 17.6399 35.656 37.4496V51.0344H91.3647L99.7661 37.8051V37.8028Z" fill="#70B2DD"/>
<path id="Vector_58" d="M93.3441 46.3945H39.4266V64.078H93.3441V46.3945Z" fill="#70B2DD"/>
<path id="Vector_59" d="M95.5734 46.3945H38.7041V51.5941H95.5734V46.3945Z" fill="#4E8FB7"/>
<path id="Vector_60" d="M93.3441 61.3601H39.4266V64.078H93.3441V61.3601Z" fill="#ABDAF7"/>
<path id="Vector_61" d="M42.0183 64.0779H36.6949C34.5046 64.0779 32.7293 62.3027 32.7293 60.1123V56.5252C32.7293 52.711 31.7202 48.9656 29.805 45.6651L28.9243 44.211C27.5711 41.977 28.2018 39.0711 30.3624 37.6009C32.7362 35.9839 35.9839 36.7362 37.4037 39.2339C40.4289 44.5504 42.0183 50.5642 42.0183 56.6811V64.0756V64.0779Z" fill="#ABDAF7"/>
<path id="Vector_62" d="M92.8646 64.0779H98.188C100.378 64.0779 102.154 62.3027 102.154 60.1123V56.5252C102.154 52.711 103.163 48.9656 105.078 45.6651L105.959 44.211C107.312 41.977 106.681 39.0711 104.521 37.6009C102.147 35.9839 98.899 36.7362 97.4793 39.2339C94.4541 44.5504 92.8646 50.5642 92.8646 56.6811V64.0756V64.0779Z" fill="#ABDAF7"/>
<g id="Vector_63" style="mix-blend-mode:multiply" opacity="0.35">
<path d="M54.0459 64.078H56.7546L63.6445 53.4771L76.4863 52.3372H59.5803L54.0459 64.078Z" fill="#4E8FB7"/>
</g>
<g id="Vector_64" style="mix-blend-mode:multiply" opacity="0.35">
<path d="M59.6192 39.7661L48.6238 49.1514C45.6284 49.1514 43.2018 49.5735 43.2018 50.0918C43.2018 50.6101 45.6284 51.0322 48.6238 51.0322C51.6192 51.0322 54.0458 50.6101 54.0458 50.0918C54.0458 49.7638 53.0802 49.4771 51.6169 49.3074L60.5871 43.4909L62.7041 46.3946H69.0252L59.6192 39.7661Z" fill="#4E8FB7"/>
</g>
<path id="Vector_65" d="M72.2018 32.9817L74.3738 41.0528L80.1972 39.7661L72.2018 32.9817Z" stroke="#70B2DD" stroke-width="1.35" stroke-miterlimit="10"/>
</g>
<g id="Group_20">
<path id="Vector_66" d="M85.1629 49.4908C85.1629 49.4908 86.312 51.3486 87.6928 52.1605C89.0735 52.9724 89.3831 54.9472 90.3877 54.0963C91.3923 53.2454 90.4657 51.9266 92.1285 50.4954C93.7937 49.0642 95.4565 44.2568 96.4244 41.6101C97.3923 38.9633 99.0184 36.0986 100.411 35.7889C101.805 35.4793 103.507 35.1697 101.842 34.0481C100.177 32.9266 99.6744 30.3715 96.8097 29.133C93.945 27.8945 90.2295 29.016 89.3006 28.5917C88.3717 28.1651 87.2593 28.0504 87.9496 29.4426C88.6423 30.8371 85.7593 32.9977 84.1813 35.4954C82.6033 37.9931 75.5207 41.2087 85.1584 49.4908H85.1629Z" fill="#CEE8F4"/>
<g id="Group_21">
<path id="Vector_67" d="M53.8716 45.4266L52.2638 47.789H52.2615L51.7638 48.5229C51.7638 48.5229 52.0528 50.3211 51.4336 50.6307C50.8143 50.9404 49.0161 50.2844 46.6927 50.8853C44.3693 51.4863 43.2501 50.0918 43.0551 49.5298C42.8625 48.9702 43.7524 49.0092 45.2409 49.1239C46.734 49.2385 49.2868 47.6537 49.2868 47.6537L49.6996 46.8945L51.1446 44.2294L53.8716 45.4266Z" fill="#F49D8C"/>
<path id="Vector_68" d="M51.7615 48.523C51.7615 48.523 52.0505 50.3211 51.4312 50.6308C50.812 50.9404 49.0138 50.2844 46.6904 50.8854C44.367 51.4863 43.2478 50.0918 43.0528 49.5299C42.8601 48.9702 43.75 49.0092 45.2386 49.1239C46.7317 49.2386 49.2845 47.6537 49.2845 47.6537L49.6973 46.8945C50.1744 47.2844 51.0322 47.789 52.2615 47.789L51.7638 48.523H51.7615Z" fill="#D9E0E8"/>
<path id="Vector_69" d="M72.5895 39.8165C72.5895 39.8165 62.9221 34.4473 60.0826 34.3968C57.2432 34.3463 50.3624 44.4381 50.3624 44.4381L53.9679 46.3945L60.328 41.6101L65.9014 45.5895L74.3143 44.3051L72.5918 39.8165H72.5895Z" fill="#2256B2"/>
</g>
<g id="Group_22">
<path id="Vector_70" d="M54.5666 63.5665L54.1331 64.7684C54.1331 65.5436 54.9061 66.6766 54.1331 67.2707C53.3579 67.8647 52.5597 68.3028 50.8051 69.1032C49.0528 69.9014 48.4588 69.3853 47.5827 69.1032C46.7042 68.8188 46.8579 68.0184 48.046 67.3991C49.2317 66.7798 51.2983 64.6629 51.2983 64.6629L51.6859 62.9702L52.3051 60.2523L55.5276 60.9243L54.5666 63.5688V63.5665Z" fill="#FEB19E"/>
<path id="Vector_71" d="M54.1331 64.7684C54.1331 65.5436 54.9061 66.6766 54.1331 67.2707C53.3579 67.8647 52.5597 68.3028 50.8051 69.1032C49.0528 69.9014 48.4588 69.3854 47.5827 69.1032C46.7042 68.8188 46.8579 68.0184 48.046 67.3991C49.2317 66.7798 51.2983 64.6629 51.2983 64.6629L51.6859 62.9702C52.445 63.25 53.5849 63.5895 54.5689 63.5688L54.1354 64.7707L54.1331 64.7684Z" fill="#D9E0E8"/>
<path id="Vector_72" d="M72.0552 43.9243C72.0552 43.9243 60.4176 45.5046 57.6699 46.8578C54.9222 48.2133 51.1423 61.6422 51.1423 61.6422C51.1423 61.6422 53.5689 62.9335 55.8396 62.2614L60.8969 52.5848L76.5047 52.367L72.0575 43.922L72.0552 43.9243Z" fill="#3471EA"/>
</g>
<g id="Group_23">
<path id="Vector_73" d="M69.1973 30.4679C69.1973 30.4679 70.9197 32.4816 71.984 32.422L73.6881 31.6674L72.9473 27.7913L69.1996 30.4679H69.1973Z" fill="#F49D8C"/>
<g id="Group_24">
<path id="Vector_74" d="M69.1973 25.0298C69.1973 25.0298 70.1445 22.805 72.7386 23.7523L74.8486 28.688C74.8486 28.688 72.5642 28.4747 71.695 30.2752L71.1789 30.5917L70.8119 30.0046L69.1996 25.0321L69.1973 25.0298Z" fill="#4E8FB7"/>
<path id="Vector_75" d="M68.0161 25.5413C68.0161 25.5413 65.4175 24.6353 64.6445 27.5184L67.4702 32.5115C68.4221 31.4152 69.4932 30.7363 70.7546 30.7317L71.1812 30.5895L68.0184 25.5413H68.0161Z" fill="#4E8FB7"/>
<path id="Vector_76" d="M71.3854 30.0023L70.4955 30.3715L68.0367 25.0688L68.8877 24.7592L71.3854 30.0023Z" fill="#BAD4DD"/>
<path id="Vector_77" d="M68.0803 25.1606C68.0803 25.1606 65.4817 24.2546 64.7087 27.1376L67.5344 32.1308C67.5344 32.1308 68.172 30.6606 70.4954 30.3693L68.0803 25.1606Z" fill="#CEE8F4"/>
<path id="Vector_78" d="M68.8877 24.7592C68.8877 24.7592 69.8349 22.5344 72.429 23.4816L74.5391 28.4174C74.5391 28.4174 72.2547 28.2041 71.3854 30.0046L68.89 24.7592H68.8877Z" fill="#CEE8F4"/>
</g>
<path id="Vector_79" d="M72.3326 32.422C72.3326 32.422 71.8487 30.4472 72.7386 29.5963C72.7386 29.5963 72.5459 27.8348 73.1262 27.6605C73.7065 27.4862 74.046 30.4288 73.6882 31.6674L72.3326 32.422Z" fill="#FEB19E"/>
</g>
<g id="Group_25">
<path id="Vector_80" d="M93.4863 42.328C92.8602 44.7409 90.4542 47.5184 87.5253 49.3624C87.023 49.6789 86.5024 49.9702 85.9771 50.2225C84.8005 50.7959 83.234 51.2454 81.6629 51.5918C78.4336 52.3074 76.8005 52.5459 76.8005 52.5459C69.6423 47.9014 72.5895 39.812 72.5895 39.812C74.179 40.2753 76.3395 39.773 76.3395 39.773C73.4726 37.4496 71.7684 32.6101 71.7684 32.6101L74.1721 31.1766C76.7638 34.5826 79.7822 37.4427 79.7822 37.4427C79.7822 37.4427 81.1767 36.984 83.8854 35.6285C86.5941 34.273 89.062 35.3349 89.062 35.3349C93.0001 37.3234 94.218 39.5 93.484 42.3234L93.4863 42.328Z" fill="url(#paint0_linear_9565_891)"/>
<path id="Vector_81" opacity="0.5" d="M88.2202 42.5528C88.2202 42.5528 85.8464 45.6193 79.9381 41.8647L85.5299 47.6583L89.062 46.523L88.2179 42.5528H88.2202Z" fill="#F6613A"/>
<path id="Vector_82" opacity="0.5" d="M87.5253 49.3601C87.023 49.6789 86.5023 49.9702 85.9771 50.2248C84.8005 50.7982 83.234 51.2477 81.6629 51.5941L77.4542 45.156C75.4129 45.3349 74.3739 43.4197 74.3739 43.4197L78.0551 42.578L87.523 49.3624L87.5253 49.3601Z" fill="#F6613A"/>
<path id="Vector_83" opacity="0.5" d="M77.0482 38.9771C77.0482 38.9771 80.3945 38.7592 84.5023 36.5391C84.5023 36.5391 81.4702 39.3051 78.4725 39.8556L77.1514 40.5092L77.0482 38.9771Z" fill="#F6613A"/>
</g>
<g id="Group_26">
<path id="Vector_84" d="M89.4565 31.0023C89.4083 30.8739 89.2088 30.4473 89.4565 29.7775C89.4565 29.7775 88.8785 28.7202 89.1239 27.9587C89.3693 27.1973 89.5505 28.1147 90.8281 28.1262C90.8281 28.1262 90.429 27.6629 90.5322 27.172C90.6354 26.6812 91.2294 27.8693 92.2088 27.5711C93.1882 27.273 97.1492 27.4289 96.4015 31.4794C96.4015 31.4794 96.9427 31.4541 97.1492 32.383C97.3556 33.3119 96.7111 32.539 96.7111 32.539C96.7111 32.539 97.046 34.0619 95.8327 34.8349C94.6193 35.6078 93.1492 35.9656 92.6331 36.7294L89.4565 31.0023Z" fill="url(#paint1_linear_9565_891)"/>
<path id="Vector_85" d="M93.4863 35.3257C92.6537 36.1949 92.2478 37.8807 92.2478 37.8807C91.6698 38.5963 90.0207 39.1193 88.6101 38.4587C87.6629 38.0183 87.461 36.9633 87.9565 36.7225C87.9725 36.7133 87.9909 36.7064 88.0092 36.7018C88.5734 36.5069 88.9565 35.8509 88.9565 35.8509L93.3464 35.344L93.4863 35.328V35.3257Z" fill="#FEB19E"/>
<path id="Vector_86" d="M93.3464 35.3395C93.2593 35.461 93.1446 35.5895 93.0024 35.7363C90.3762 38.4014 88.5941 37.3051 87.9542 36.7202C87.9703 36.711 87.9886 36.7042 88.007 36.6996C88.5712 36.5046 88.9542 35.8487 88.9542 35.8487L93.3441 35.3418L93.3464 35.3395Z" fill="#FF856A"/>
<path id="Vector_87" d="M89.9243 30.1904C89.9243 30.1904 88.273 32.7707 88.2202 34.7569C88.1675 36.7432 91.5482 37.2592 93.484 35.3257C93.484 35.3257 94.4381 35.5849 94.8005 34.7569C95.1629 33.9312 94.3739 33.7753 93.6399 34.2546C93.6399 34.2546 93.039 33.6033 93.8716 32.3831C93.8716 32.3831 93.2523 32.4794 92.2064 31.9955C91.1606 31.5115 92.4771 31.2982 92.4771 31.2982C92.4771 31.2982 90.8716 31.5367 89.922 30.1881L89.9243 30.1904Z" fill="#FEB19E"/>
</g>
<g id="Group_27">
<g id="Group_28">
<path id="Vector_88" d="M74.6951 39.9105C74.6951 39.9105 74.5299 39.9105 74.4198 39.7637C74.296 39.6009 74.2891 39.3302 74.3946 38.961C74.624 38.1651 74.0666 37.6307 74.062 37.6261C74.0299 37.5963 74.0299 37.5481 74.0575 37.516C74.0873 37.4839 74.1354 37.4839 74.1675 37.5114C74.1928 37.5367 74.7983 38.1146 74.5437 39.0023C74.429 39.4013 74.4818 39.5848 74.5437 39.6697C74.6056 39.7523 74.6928 39.7546 74.6951 39.7546C74.7386 39.7546 74.7731 39.789 74.7731 39.8325C74.7731 39.8761 74.7386 39.9105 74.6951 39.9105Z" fill="white"/>
<path id="Vector_89" d="M75.39 38.7018C75.39 38.7018 75.3762 38.7018 75.3693 38.6995C75.3579 38.6972 75.2547 38.6674 75.195 38.5459C75.1308 38.4151 75.1446 38.2316 75.2386 38.0046C75.3166 37.8165 75.1904 37.6353 75.0414 37.4289C74.8533 37.1628 74.6193 36.8326 74.8969 36.4335C75.0276 36.2477 75.0781 36.0688 75.0459 35.9037C75.0024 35.6697 74.8051 35.5367 74.8028 35.5344C74.7661 35.5115 74.7569 35.4633 74.7822 35.4266C74.8051 35.3922 74.8533 35.3807 74.89 35.4037C74.8992 35.4105 75.1423 35.5711 75.1996 35.8715C75.2409 36.078 75.1813 36.2982 75.0253 36.5206C74.8097 36.8303 74.984 37.078 75.1675 37.3394C75.3258 37.5642 75.4909 37.7982 75.3808 38.0642C75.2845 38.2936 75.3028 38.4151 75.3326 38.477C75.3602 38.5344 75.406 38.5504 75.406 38.5504C75.4473 38.5619 75.4725 38.6032 75.4611 38.6445C75.4519 38.6789 75.4198 38.7018 75.3854 38.7018H75.39Z" fill="white"/>
<path id="Vector_90" d="M76.4542 39.7661C76.4542 39.7661 76.4381 39.7661 76.4313 39.7615C76.4244 39.7615 76.257 39.7042 76.179 39.539C76.1193 39.4152 76.1239 39.2684 76.1904 39.0987C76.3487 38.6927 76.2937 38.4954 75.9427 38.2202C75.9083 38.1927 75.9037 38.1445 75.929 38.1124C75.9565 38.078 76.0047 38.0734 76.0368 38.0987C76.4404 38.4175 76.5161 38.6858 76.3326 39.156C76.2845 39.2821 76.2776 39.3876 76.3166 39.4725C76.367 39.578 76.4771 39.617 76.4771 39.617C76.5184 39.6308 76.5391 39.6743 76.5276 39.7156C76.5161 39.7477 76.4863 39.7684 76.4542 39.7684V39.7661Z" fill="white"/>
</g>
<path id="Vector_91" d="M73.5656 39.5155L77.0495 38.9774L77.5368 42.1327C77.6726 43.0121 77.0689 43.8364 76.1894 43.9723L75.8925 44.0181C75.013 44.154 74.1887 43.5502 74.0529 42.6708L73.5656 39.5155Z" fill="#CEE8F4"/>
<path id="Vector_92" d="M79.7019 41.9771L79.0093 41.4152C79.0093 41.4152 78.8556 39.4794 77.6148 39.3257C77.1652 39.2684 77.0895 39.3165 77.0895 39.3165L77.2272 40.1537C77.2272 40.1537 76.4519 40.4863 75.8602 40.3303C75.2661 40.1743 75.1125 40.2271 75.2661 41.234C75.4198 42.2408 76.2203 44.0986 77.7432 43.3509L78.351 43.9266L79.6996 41.9794L79.7019 41.9771Z" fill="#FEB19E"/>
<path id="Vector_93" d="M86.5185 45.9679C84.3878 44.9701 82.1859 43.4679 79.9382 41.633L78.1974 44.149C78.1974 44.149 84.3786 51.3096 87.6928 50.4197C89.9222 49.8211 91.7089 46.4587 92.64 44.3188C93.2043 43.0252 92.6745 41.4885 91.4015 40.8807C91.218 40.7935 91.0322 40.7293 90.8533 40.7041C90.5919 40.6674 90.3304 40.6812 90.0758 40.7293C89.0644 40.9197 88.296 41.7362 88.0552 42.7385C87.8625 43.5435 87.4382 44.711 86.5162 45.9701L86.5185 45.9679Z" fill="url(#paint2_linear_9565_891)"/>
</g>
</g>
</g>
</g>
</g>
</g>
</g>
<defs>
<linearGradient id="paint0_linear_9565_891" x1="84.5368" y1="48.023" x2="78.8602" y2="30.6835" gradientUnits="userSpaceOnUse">
<stop stop-color="#F79239"/>
<stop offset="1" stop-color="#F7C759"/>
</linearGradient>
<linearGradient id="paint1_linear_9565_891" x1="93.0437" y1="32.9106" x2="93.2524" y2="26.883" gradientUnits="userSpaceOnUse">
<stop stop-color="#3F2323"/>
<stop offset="1" stop-color="#5E3434"/>
</linearGradient>
<linearGradient id="paint2_linear_9565_891" x1="86.7777" y1="47.289" x2="81.1011" y2="29.9495" gradientUnits="userSpaceOnUse">
<stop stop-color="#F79239"/>
<stop offset="1" stop-color="#F7C759"/>
</linearGradient>
<clipPath id="clip0_9565_891">
<rect width="138.209" height="78" fill="white"/>
</clipPath>
</defs>
</svg>
