<svg width="26" height="25" viewBox="0 0 26 25" fill="none" xmlns="http://www.w3.org/2000/svg">
<g id="sleep">
<path id="Vector" d="M25.2131 19.9167C25.4575 19.9167 25.6557 19.7185 25.6557 19.4741C25.6557 19.2296 25.4575 19.0315 25.2131 19.0315C24.9686 19.0315 24.7705 19.2296 24.7705 19.4741C24.7705 19.7185 24.9686 19.9167 25.2131 19.9167Z" fill="#146C94"/>
<path id="Vector_2" d="M3.0834 1.77044C3.32784 1.77044 3.52599 1.57228 3.52599 1.32785C3.52599 1.08341 3.32784 0.885254 3.0834 0.885254C2.83896 0.885254 2.64081 1.08341 2.64081 1.32785C2.64081 1.57228 2.83896 1.77044 3.0834 1.77044Z" fill="#146C94"/>
<path id="Vector_3" d="M2.06562 5.07042C1.98262 4.98743 1.87006 4.94081 1.75269 4.94081C1.63532 4.94081 1.52275 4.98743 1.43975 5.07042L1.10037 5.40985L0.760946 5.07042C0.720118 5.02815 0.67128 4.99443 0.617282 4.97124C0.563284 4.94804 0.505207 4.93583 0.446439 4.93532C0.387672 4.93481 0.329392 4.94601 0.274998 4.96826C0.220605 4.99052 0.171189 5.02338 0.129633 5.06494C0.0880763 5.10649 0.0552124 5.15591 0.0329584 5.2103C0.0107044 5.26469 -0.000493961 5.32298 1.67109e-05 5.38174C0.000527382 5.44051 0.0127369 5.49859 0.0359328 5.55258C0.0591286 5.60658 0.0928464 5.65542 0.135119 5.69625L0.474543 6.03576L0.135119 6.37528C0.0929917 6.41614 0.0594122 6.46497 0.0363341 6.51893C0.013256 6.57289 0.00114021 6.6309 0.000691844 6.68959C0.000243474 6.74828 0.0114715 6.80647 0.0337224 6.86077C0.0559733 6.91508 0.0888028 6.96442 0.1303 7.00592C0.171798 7.04742 0.221135 7.08025 0.275441 7.10251C0.329746 7.12476 0.387935 7.136 0.446622 7.13555C0.505309 7.13511 0.563322 7.123 0.617284 7.09992C0.671247 7.07685 0.720081 7.04327 0.760946 7.00115L1.10037 6.66168L1.43975 7.00115C1.48066 7.0431 1.52948 7.07652 1.5834 7.09945C1.63732 7.12239 1.69526 7.13439 1.75385 7.13476C1.81244 7.13513 1.87052 7.12387 1.92473 7.10161C1.97893 7.07936 2.02818 7.04657 2.06961 7.00514C2.11105 6.96371 2.14384 6.91446 2.16609 6.86025C2.18834 6.80605 2.19961 6.74797 2.19924 6.68937C2.19887 6.63078 2.18686 6.57284 2.16393 6.51892C2.14099 6.46501 2.10758 6.41618 2.06562 6.37528L1.72615 6.03576L2.06562 5.6962C2.14858 5.61321 2.19519 5.50066 2.19519 5.38331C2.19519 5.26596 2.14858 5.15342 2.06562 5.07042Z" fill="#146C94"/>
<path id="Vector_4" d="M6.62414 2.65556C6.88675 2.65556 7.14346 2.57769 7.36181 2.43179C7.58016 2.28589 7.75035 2.07852 7.85085 1.8359C7.95134 1.59328 7.97764 1.32631 7.9264 1.06874C7.87517 0.81118 7.74871 0.574592 7.56302 0.388898C7.37733 0.203205 7.14074 0.0767462 6.88317 0.0255135C6.62561 -0.0257192 6.35864 0.000575309 6.11602 0.101072C5.8734 0.201568 5.66603 0.371753 5.52013 0.590106C5.37423 0.808458 5.29636 1.06517 5.29636 1.32778C5.29674 1.67981 5.43676 2.01731 5.68568 2.26624C5.9346 2.51516 6.27211 2.65517 6.62414 2.65556ZM6.62414 0.885187C6.71167 0.885187 6.79724 0.911145 6.87003 0.959778C6.94281 1.00841 6.99954 1.07753 7.03304 1.15841C7.06654 1.23928 7.0753 1.32827 7.05823 1.41413C7.04115 1.49998 6.999 1.57884 6.9371 1.64074C6.8752 1.70264 6.79634 1.74479 6.71048 1.76187C6.62463 1.77895 6.53564 1.77018 6.45476 1.73668C6.37389 1.70318 6.30477 1.64646 6.25613 1.57367C6.2075 1.50089 6.18154 1.41532 6.18154 1.32778C6.1817 1.21044 6.22837 1.09796 6.31134 1.01499C6.39431 0.932019 6.5068 0.88534 6.62414 0.885187Z" fill="#146C94"/>
<path id="Vector_5" d="M13.2631 3.09814C11.1622 3.09814 9.10847 3.72113 7.36165 4.88832C5.61484 6.0555 4.25336 7.71447 3.44938 9.65543C2.64541 11.5964 2.43505 13.7322 2.84492 15.7927C3.25478 17.8532 4.26645 19.7459 5.752 21.2314C7.23754 22.717 9.13025 23.7287 11.1908 24.1385C13.2513 24.5484 15.3871 24.338 17.328 23.5341C19.269 22.7301 20.9279 21.3686 22.0951 19.6218C23.2623 17.875 23.8853 15.8213 23.8853 13.7204C23.8821 10.9042 22.7619 8.20424 20.7706 6.21288C18.7792 4.22153 16.0793 3.10137 13.2631 3.09814ZM13.2631 23.4574C11.3372 23.4574 9.45469 22.8864 7.85344 21.8165C6.25219 20.7465 5.00416 19.2258 4.26719 17.4466C3.53021 15.6674 3.33739 13.7096 3.71309 11.8208C4.0888 9.93198 5.01617 8.197 6.37792 6.83525C7.73967 5.4735 9.47465 4.54613 11.3635 4.17043C13.2523 3.79472 15.2101 3.98755 16.9893 4.72452C18.7685 5.4615 20.2892 6.70952 21.3591 8.31077C22.429 9.91202 23.0001 11.7946 23.0001 13.7204C22.9972 16.3019 21.9704 18.7769 20.145 20.6023C18.3196 22.4277 15.8446 23.4545 13.2631 23.4574Z" fill="#146C94"/>
<path id="Vector_6" d="M11.5126 10.8127C11.5486 10.8882 11.6052 10.952 11.6759 10.9966C11.7466 11.0413 11.8286 11.065 11.9122 11.065H13.7057C13.8231 11.065 13.9357 11.0183 14.0187 10.9353C14.1017 10.8523 14.1483 10.7397 14.1483 10.6224C14.1483 10.505 14.1017 10.3924 14.0187 10.3094C13.9357 10.2264 13.8231 10.1798 13.7057 10.1798H12.8406L14.0495 8.68796C14.1022 8.623 14.1353 8.54447 14.1451 8.46147C14.155 8.37846 14.1411 8.29436 14.1051 8.21891C14.0691 8.14345 14.0125 8.07973 13.9419 8.03511C13.8712 7.9905 13.7893 7.96681 13.7057 7.9668H11.9353C11.8179 7.9668 11.7054 8.01343 11.6224 8.09643C11.5394 8.17943 11.4927 8.29201 11.4927 8.40939C11.4927 8.52677 11.5394 8.63935 11.6224 8.72235C11.7054 8.80535 11.8179 8.85198 11.9353 8.85198H12.7773L11.5684 10.3438C11.5158 10.4087 11.4826 10.4872 11.4727 10.5702C11.4629 10.6531 11.4767 10.7372 11.5126 10.8127Z" fill="#146C94"/>
<path id="Vector_7" d="M17.2464 7.524H16.3813L17.5902 6.0322C17.6428 5.96724 17.676 5.88871 17.6858 5.8057C17.6956 5.72269 17.6818 5.6386 17.6458 5.56314C17.6098 5.48769 17.5532 5.42397 17.4825 5.37935C17.4118 5.33474 17.33 5.31105 17.2464 5.31104H15.476C15.3586 5.31104 15.246 5.35767 15.163 5.44067C15.08 5.52367 15.0334 5.63625 15.0334 5.75363C15.0334 5.87101 15.08 5.98359 15.163 6.06659C15.246 6.14959 15.3586 6.19622 15.476 6.19622H16.3179L15.109 7.68803C15.0564 7.75298 15.0233 7.83151 15.0135 7.91452C15.0036 7.99753 15.0175 8.08163 15.0535 8.15708C15.0894 8.23253 15.146 8.29625 15.2167 8.34087C15.2874 8.38549 15.3693 8.40917 15.4529 8.40919H17.2464C17.3638 8.40919 17.4763 8.36256 17.5593 8.27956C17.6423 8.19655 17.689 8.08398 17.689 7.9666C17.689 7.84921 17.6423 7.73664 17.5593 7.65363C17.4763 7.57063 17.3638 7.524 17.2464 7.524Z" fill="#146C94"/>
<path id="Vector_8" d="M19.4793 4.17376C19.5152 4.24927 19.5719 4.31305 19.6426 4.3577C19.7133 4.40235 19.7953 4.42604 19.8789 4.42603H21.6724C21.7898 4.42603 21.9023 4.3794 21.9853 4.2964C22.0683 4.2134 22.115 4.10082 22.115 3.98344C22.115 3.86606 22.0683 3.75348 21.9853 3.67048C21.9023 3.58748 21.7898 3.54085 21.6724 3.54085H20.8073L22.0162 2.04904C22.0688 1.98409 22.102 1.90556 22.1118 1.82255C22.1216 1.73954 22.1078 1.65544 22.0718 1.57999C22.0358 1.50454 21.9792 1.44082 21.9085 1.3962C21.8378 1.35158 21.756 1.3279 21.6724 1.32788H19.902C19.7846 1.32788 19.672 1.37451 19.589 1.45751C19.506 1.54052 19.4594 1.65309 19.4594 1.77047C19.4594 1.88786 19.506 2.00043 19.589 2.08343C19.672 2.16644 19.7846 2.21307 19.902 2.21307H20.7439L19.535 3.70487C19.4824 3.76979 19.4493 3.84828 19.4394 3.93126C19.4295 4.01423 19.4434 4.09831 19.4793 4.17376Z" fill="#146C94"/>
<path id="Vector_9" d="M11.4731 14.4326C11.5061 14.3209 11.4938 14.2006 11.4388 14.098C11.3837 13.9953 11.2904 13.9184 11.179 13.8841C11.0677 13.8498 10.9473 13.8608 10.844 13.9147C10.7407 13.9686 10.6628 14.061 10.6272 14.172C10.5967 14.2703 10.536 14.3565 10.4537 14.4184C10.3715 14.4803 10.2718 14.5147 10.1689 14.5168C10.0659 14.5188 9.96497 14.4884 9.8803 14.4299C9.79562 14.3713 9.73152 14.2876 9.69711 14.1906C9.65796 14.0799 9.57645 13.9893 9.4705 13.9387C9.36456 13.8881 9.24286 13.8817 9.13218 13.9209C9.0215 13.96 8.9309 14.0415 8.88032 14.1475C8.82974 14.2534 8.82332 14.3751 8.86246 14.4858C8.95896 14.7583 9.13887 14.9935 9.37663 15.1579C9.6144 15.3223 9.89793 15.4077 10.187 15.4018C10.476 15.3959 10.7558 15.2991 10.9867 15.1252C11.2176 14.9512 11.3878 14.7088 11.4731 14.4326Z" fill="#146C94"/>
<path id="Vector_10" d="M17.3767 13.8795C17.3212 13.8623 17.2628 13.8561 17.2049 13.8615C17.147 13.8669 17.0907 13.8836 17.0393 13.9108C16.9879 13.938 16.9424 13.9751 16.9053 14.0199C16.8683 14.0648 16.8405 14.1165 16.8235 14.1721C16.793 14.2704 16.7323 14.3567 16.65 14.4185C16.5678 14.4804 16.4681 14.5148 16.3652 14.5169C16.2622 14.519 16.1613 14.4886 16.0766 14.43C15.9919 14.3715 15.9278 14.2877 15.8934 14.1907C15.8542 14.08 15.7727 13.9894 15.6668 13.9388C15.5608 13.8883 15.4391 13.8818 15.3285 13.921C15.2178 13.9601 15.1272 14.0416 15.0766 14.1476C15.026 14.2535 15.0196 14.3752 15.0588 14.4859C15.1552 14.7584 15.3352 14.9936 15.5729 15.158C15.8107 15.3225 16.0942 15.4078 16.3832 15.4019C16.6723 15.3961 16.9521 15.2993 17.183 15.1253C17.4139 14.9513 17.5841 14.709 17.6694 14.4328C17.704 14.3206 17.6925 14.1993 17.6377 14.0956C17.5828 13.9918 17.4889 13.9141 17.3767 13.8795Z" fill="#146C94"/>
<path id="Vector_11" d="M13.263 18.1462C11.9839 18.1462 10.6075 18.5618 10.6075 19.474C10.6075 20.3862 11.9839 20.8018 13.263 20.8018C14.5421 20.8018 15.9186 20.3862 15.9186 19.474C15.9186 18.5618 14.5421 18.1462 13.263 18.1462Z" fill="#146C94"/>
</g>
</svg>
