<svg width="16" height="16" viewBox="0 0 16 16" fill="none" xmlns="http://www.w3.org/2000/svg">
<g id="Send 1" clip-path="url(#clip0_236_695)">
<g id="layer1">
<path id="path823" d="M10.6259 15.9557C10.567 15.9285 10.4836 15.8677 10.4407 15.8211C10.3956 15.772 9.81894 14.3218 9.07143 12.3778L7.78007 9.01938L10.443 6.35375C13.3346 3.45924 13.1922 3.62184 13.1295 3.28781C13.0965 3.11193 12.8826 2.89792 12.7067 2.86488C12.3726 2.80214 12.5351 2.65979 9.64063 5.55143L6.97503 8.21437L3.61664 6.92446C0.641824 5.78191 0.245226 5.62078 0.144211 5.51337C-0.0568595 5.2997 -0.0568595 4.97464 0.144211 4.75619C0.255329 4.63549 0.457131 4.57101 7.80163 2.30894C13.9778 0.406675 15.3725 -0.0117942 15.4967 0.000249899C15.7675 0.0264546 16.0064 0.282 16.0064 0.545433C16.0064 0.681496 11.4008 15.6471 11.3267 15.7518C11.1725 15.9698 10.8555 16.0621 10.6259 15.956L10.6259 15.9557Z" fill="white"/>
</g>
</g>
<defs>
<clipPath id="clip0_236_695">
<rect width="16" height="16" fill="white"/>
</clipPath>
</defs>
</svg>
