<svg width="22" height="18" viewBox="0 0 22 18" fill="none" xmlns="http://www.w3.org/2000/svg">
<path id="icon" fill-rule="evenodd" clip-rule="evenodd" d="M6.69993 0H4.30013C3.7475 0 3.29969 0.447951 3.29969 1.00023V1.12484H0.999766C0.447694 1.12484 -0.00012207 1.57235 -0.00012207 2.12507V2.37525C-0.00012207 2.92704 0.447694 3.37499 0.999766 3.37499H3.29969V3.50009C3.29969 4.05235 3.7475 4.5003 4.30013 4.5003H6.69993C7.25201 4.5003 7.69982 4.05235 7.69982 3.50009V3.37499V1.12484V1.00023C7.69982 0.447951 7.25201 0 6.69993 0ZM21 1.12484H9.89988V3.37499H21C21.5521 3.37499 21.9999 2.92704 21.9999 2.37525V2.12507C21.9999 1.57235 21.5521 1.12484 21 1.12484ZM0.999766 7.87485H6.60005V10.125H0.999766C0.447694 10.125 -0.00012207 9.67749 -0.00012207 9.12477V8.87506C-0.00012207 8.3228 0.447694 7.87485 0.999766 7.87485ZM15.3997 10.125V7.87485H21C21.5521 7.87485 21.9999 8.3228 21.9999 8.87506V9.12477C21.9999 9.67749 21.5521 10.125 21 10.125H15.3997ZM21 14.6253H18.7001V14.5002C18.7001 13.9475 18.2523 13.5 17.6997 13.5H15.2999C14.7478 13.5 14.3 13.9475 14.3 14.5002V14.6253V16.875V17.0001C14.3 17.5523 14.7478 17.9998 15.2999 17.9998H17.6997C18.2523 17.9998 18.7001 17.5523 18.7001 17.0001V16.875H21C21.5521 16.875 21.9999 16.4275 21.9999 15.8748V15.625C21.9999 15.0728 21.5521 14.6253 21 14.6253ZM0.999766 14.6253H12.0999V16.875H0.999766C0.447694 16.875 -0.00012207 16.4275 -0.00012207 15.8748V15.625C-0.00012207 15.0728 0.447694 14.6253 0.999766 14.6253ZM9.79999 6.74999H12.1998C12.7524 6.74999 13.2002 7.19794 13.2002 7.74976V10.2501C13.2002 10.8023 12.7524 11.2503 12.1998 11.2503H9.79999C9.24792 11.2503 8.80013 10.8023 8.80013 10.2501V7.74976C8.80013 7.19794 9.24792 6.74999 9.79999 6.74999Z" fill="#146C94"/>
</svg>
