<svg width="62" height="62" viewBox="0 0 62 62" fill="none" xmlns="http://www.w3.org/2000/svg">
<g id="mingcute:sleep-line" clip-path="url(#clip0_879_605)">
<g id="Group">
<path id="Vector" fill-rule="evenodd" clip-rule="evenodd" d="M31 10.3333C31 11.0185 31.2722 11.6756 31.7566 12.16C32.2411 12.6445 32.8982 12.9167 33.5833 12.9167H45.4305L31.7569 26.5903C31.3957 26.9515 31.1498 27.4118 31.0502 27.9128C30.9505 28.4139 31.0017 28.9332 31.1972 29.4052C31.3926 29.8772 31.7237 30.2806 32.1484 30.5645C32.5731 30.8483 33.0725 30.9999 33.5833 31H51.6667C52.3518 31 53.0089 30.7278 53.4934 30.2434C53.9778 29.7589 54.25 29.1018 54.25 28.4167C54.25 27.7315 53.9778 27.0744 53.4934 26.59C53.0089 26.1055 52.3518 25.8333 51.6667 25.8333H39.8195L53.4931 12.1597C53.8543 11.7985 54.1002 11.3382 54.1998 10.8372C54.2995 10.3361 54.2483 9.81678 54.0528 9.34481C53.8573 8.87283 53.5263 8.46941 53.1016 8.18555C52.6769 7.90168 52.1775 7.75011 51.6667 7.75H33.5833C32.8982 7.75 32.2411 8.02217 31.7566 8.50664C31.2722 8.99111 31 9.64819 31 10.3333ZM10.3333 25.8333C9.64819 25.8333 8.99111 25.5612 8.50664 25.0767C8.02217 24.5922 7.75 23.9351 7.75 23.25C7.75 22.5649 8.02217 21.9078 8.50664 21.4233C8.99111 20.9388 9.64819 20.6667 10.3333 20.6667H23.25C23.7609 20.6668 24.2602 20.8183 24.6849 21.1022C25.1097 21.3861 25.4407 21.7895 25.6362 22.2615C25.8316 22.7335 25.8828 23.2528 25.7832 23.7538C25.6835 24.2549 25.4376 24.7151 25.0764 25.0764L16.5695 33.5833H23.25C23.9351 33.5833 24.5922 33.8555 25.0767 34.34C25.5612 34.8244 25.8333 35.4815 25.8333 36.1667C25.8333 36.8518 25.5612 37.5089 25.0767 37.9934C24.5922 38.4778 23.9351 38.75 23.25 38.75H10.3333C9.82248 38.7499 9.32312 38.5983 8.8984 38.3145C8.47367 38.0306 8.14265 37.6272 7.94717 37.1552C7.75168 36.6832 7.70053 36.1639 7.80016 35.6628C7.89979 35.1618 8.14574 34.7015 8.50692 34.3403L17.0138 25.8333H10.3333ZM31 43.9167C30.3149 43.9167 29.6578 43.6445 29.1733 43.16C28.6888 42.6756 28.4167 42.0185 28.4167 41.3333C28.4167 40.6482 28.6888 39.9911 29.1733 39.5066C29.6578 39.0222 30.3149 38.75 31 38.75H41.3333C41.8442 38.7501 42.3435 38.9017 42.7683 39.1855C43.193 39.4694 43.524 39.8728 43.7195 40.3448C43.915 40.8168 43.9661 41.3361 43.8665 41.8372C43.7669 42.3382 43.5209 42.7985 43.1598 43.1598L37.2362 49.0833H41.3333C42.0185 49.0833 42.6756 49.3555 43.16 49.84C43.6445 50.3244 43.9167 50.9815 43.9167 51.6667C43.9167 52.3518 43.6445 53.0089 43.16 53.4934C42.6756 53.9778 42.0185 54.25 41.3333 54.25H31C30.4891 54.2499 29.9898 54.0983 29.5651 53.8145C29.1403 53.5306 28.8093 53.1272 28.6138 52.6552C28.4183 52.1832 28.3672 51.6639 28.4668 51.1628C28.5665 50.6618 28.8124 50.2015 29.1736 49.8402L35.0972 43.9167H31Z" fill="#146C94"/>
</g>
</g>
<defs>
<clipPath id="clip0_879_605">
<rect width="62" height="62" fill="white"/>
</clipPath>
</defs>
</svg>
