<svg width="23" height="23" viewBox="0 0 23 23" fill="none" xmlns="http://www.w3.org/2000/svg">
<path d="M1.52301 14.0229C1.31996 13.1973 1.21748 12.3502 1.21777 11.5C1.21777 5.70107 5.91884 1 11.7178 1C17.5167 1 22.2178 5.70107 22.2178 11.5C22.2178 17.2989 17.5167 22 11.7178 22C8.24252 22 5.16138 20.3117 3.25038 17.7101" stroke="#146C94" stroke-linecap="round" stroke-linejoin="round"/>
<path d="M3.17409 5.39526C1.79981 7.45131 3.48372 8.65661 3.64781 9.64215C3.81191 10.6277 0.0748841 14.9004 1.21767 17.0088C2.36047 19.1171 5.89384 16.1053 6.87986 17.2554C7.86588 18.4055 8.12521 19.9942 9.65919 19.9805C11.1932 19.9668 12.2402 19.5854 13.3562 20.6105C14.4721 21.6356 15.3272 21.4925 16.3157 20.9426" stroke="#146C94" stroke-linecap="round" stroke-linejoin="round"/>
<path d="M17.7768 11.6877C17.8833 11.5907 17.9684 11.4726 18.0266 11.3409C18.0848 11.2093 18.115 11.0669 18.1151 10.9229C18.1151 10.7789 18.0852 10.6364 18.0271 10.5047C17.9691 10.3729 17.8841 10.2547 17.7778 10.1576C16.9203 9.37358 15.9799 8.68546 14.9731 8.10548C13.9649 7.52525 12.8974 7.05486 11.7889 6.70239C11.652 6.65949 11.5076 6.64552 11.365 6.66136C11.2224 6.67721 11.0846 6.72252 10.9605 6.79444C10.8363 6.86635 10.7284 6.96328 10.6437 7.0791C10.559 7.19491 10.4993 7.32706 10.4683 7.46718C10.2181 8.60203 10.0925 9.7608 10.0938 10.9229C10.0953 12.0864 10.2217 13.2465 10.4708 14.383C10.5018 14.5227 10.5614 14.6544 10.646 14.7697C10.7306 14.8851 10.8382 14.9817 10.962 15.0533C11.0858 15.1249 11.2232 15.1701 11.3653 15.1858C11.5075 15.2016 11.6514 15.1876 11.7879 15.1449C12.8977 14.794 13.9657 14.3228 14.9731 13.7398C15.9781 13.1578 16.9179 12.4699 17.7763 11.6877H17.7768Z" stroke="#146C94" stroke-linecap="round" stroke-linejoin="round"/>
<path d="M16.4539 12.6706C16.7094 12.4376 16.7099 12.0357 16.4539 11.8023C15.9676 11.3573 15.4341 10.9669 14.8628 10.638C14.2907 10.3092 13.6851 10.0423 13.0563 9.84195C12.9787 9.8174 12.8967 9.80931 12.8158 9.81819C12.7348 9.82708 12.6566 9.85274 12.5861 9.89355C12.5156 9.93435 12.4544 9.98941 12.4064 10.0552C12.3584 10.121 12.3246 10.196 12.3072 10.2756C12.1649 10.9195 12.0935 11.577 12.0942 12.2364C12.0952 12.9915 12.189 13.6571 12.3082 14.1997C12.3257 14.279 12.3595 14.3537 12.4074 14.4192C12.4554 14.4847 12.5164 14.5396 12.5867 14.5802C12.6569 14.6209 12.7349 14.6466 12.8155 14.6555C12.8962 14.6645 12.9779 14.6566 13.0554 14.6324C13.6852 14.4334 14.2913 14.166 14.8628 13.8349C15.433 13.5044 15.9664 13.1141 16.4539 12.6706Z" stroke="#146C94" stroke-linecap="round" stroke-linejoin="round"/>
</svg>
