<svg width="47" height="48" viewBox="0 0 47 48" fill="none" xmlns="http://www.w3.org/2000/svg">
<g id="Button">
<rect id="Rectangle 281" x="0.0544434" y="0.565186" width="46.8696" height="46.8696" rx="15" fill="#146C94"/>
<path id="Icon" d="M31.3261 16.7267C31.0481 16.4453 30.7023 16.2404 30.3219 16.1317C29.9416 16.023 29.5397 16.0143 29.155 16.1063L16.7485 18.7195C16.034 18.8174 15.3611 19.113 14.8055 19.5727C14.2499 20.0325 13.8337 20.6382 13.6038 21.3218C13.3738 22.0053 13.3393 22.7394 13.504 23.4415C13.6688 24.1436 14.0263 24.7858 14.5363 25.2957L15.8684 26.627C15.9405 26.6991 15.9977 26.7847 16.0367 26.8789C16.0757 26.9731 16.0957 27.0741 16.0956 27.176V29.6325C16.0973 29.9779 16.1768 30.3185 16.3282 30.6289L16.322 30.6343L16.3422 30.6545C16.5694 31.1113 16.9405 31.4808 17.3983 31.7059L17.4185 31.7261L17.4239 31.7199C17.7343 31.8713 18.0749 31.9508 18.4203 31.9525H20.8768C21.0823 31.9524 21.2795 32.0338 21.425 32.1789L22.7564 33.5103C23.1135 33.8714 23.5385 34.1582 24.0069 34.3542C24.4754 34.5502 24.978 34.6516 25.4858 34.6525C25.909 34.652 26.3293 34.5828 26.7303 34.4478C27.4076 34.2254 28.0092 33.8182 28.4674 33.272C28.9256 32.7259 29.222 32.0626 29.3233 31.357L31.9403 18.9234C32.0371 18.5354 32.0314 18.1289 31.9237 17.7438C31.816 17.3587 31.6101 17.0082 31.3261 16.7267ZM16.9664 25.5322L15.6335 24.2008C15.3231 23.8979 15.1056 23.5127 15.0064 23.0905C14.9072 22.6683 14.9306 22.2266 15.0736 21.8172C15.2124 21.3972 15.4688 21.0258 15.8124 20.7473C16.1561 20.4688 16.5725 20.2949 17.0122 20.2462L29.2954 17.6602L17.6449 29.3123V27.176C17.6461 26.8708 17.5867 26.5683 17.4702 26.2862C17.3538 26.004 17.1825 25.7477 16.9664 25.5322ZM27.7996 31.0918C27.7401 31.5201 27.5623 31.9233 27.2864 32.2562C27.0104 32.5891 26.6471 32.8385 26.2373 32.9763C25.8274 33.1142 25.3873 33.1351 24.9662 33.0367C24.5452 32.9383 24.1599 32.7245 23.8536 32.4193L22.5199 31.0856C22.3046 30.8692 22.0485 30.6975 21.7665 30.5807C21.4845 30.4638 21.1821 30.404 20.8768 30.4048H18.7405L30.3926 18.7567L27.7996 31.0918Z" fill="white"/>
</g>
</svg>
