<svg width="25" height="25" viewBox="0 0 25 25" fill="none" xmlns="http://www.w3.org/2000/svg">
<g id="material-symbols:rate-review-outline">
<path id="Vector" d="M6.24998 14.5833H9.42706L14.6354 9.37492C14.7916 9.21867 14.909 9.04054 14.9875 8.84054C15.066 8.64054 15.1048 8.44541 15.1041 8.25513C15.1041 8.06416 15.0607 7.8777 14.9739 7.69575C14.8871 7.51381 14.7743 7.34436 14.6354 7.18742L13.6979 6.19784C13.5416 6.04159 13.368 5.92457 13.1771 5.84679C12.9861 5.76902 12.7864 5.72978 12.5781 5.72909C12.3871 5.72909 12.192 5.76832 11.9927 5.84679C11.7934 5.92527 11.6153 6.04228 11.4583 6.19784L6.24998 11.4062V14.5833ZM7.81248 13.0208V12.0312L10.4427 9.40096L10.9635 9.86971L11.4323 10.3905L8.80206 13.0208H7.81248ZM10.9635 9.86971L11.4323 10.3905L10.4427 9.40096L10.9635 9.86971ZM11.6406 14.5833H18.75V12.4999H13.7239L11.6406 14.5833ZM2.08331 22.9166V4.16659C2.08331 3.59367 2.28748 3.10339 2.69581 2.69575C3.10415 2.28811 3.59442 2.08395 4.16665 2.08325H20.8333C21.4062 2.08325 21.8969 2.28742 22.3052 2.69575C22.7135 3.10409 22.9173 3.59436 22.9166 4.16659V16.6666C22.9166 17.2395 22.7128 17.7301 22.3052 18.1385C21.8976 18.5468 21.4069 18.7506 20.8333 18.7499H6.24998L2.08331 22.9166ZM5.36456 16.6666H20.8333V4.16659H4.16665V17.8385L5.36456 16.6666Z" fill="#146C94"/>
</g>
</svg>
