<svg width="243" height="153" viewBox="0 0 243 153" fill="none" xmlns="http://www.w3.org/2000/svg">
<g clip-path="url(#clip0_9957_537)">
<path d="M220.496 128.525C230.479 110.147 239.732 70.5157 217.344 56.1645C194.956 41.8173 166.917 62.2393 141.107 37.6889C112.275 10.2658 63.6254 9.24945 64.6458 51.6594C64.6693 52.668 60.2662 72.8467 38.2195 76.9908C12.7233 81.7863 11.0202 100.183 12.374 113.577C13.1511 121.249 16.4435 137.81 34.6288 151.812H202.452C211.411 143.936 216.764 135.396 220.496 128.529V128.525Z" fill="#EFF2F4"/>
<path d="M30.8751 56.0903H20.1774C19.628 56.0903 19.1846 56.5416 19.1846 57.095V63.1109C19.1846 63.6682 19.628 64.1155 20.1774 64.1155H24.5373L28.2026 66.7487V64.2647L30.8947 64.2097C31.4362 64.1979 31.8679 63.7506 31.8679 63.2051V57.095C31.8679 56.5377 31.4245 56.0903 30.8751 56.0903Z" stroke="#EBEFF2" stroke-width="0.604343" stroke-linecap="round" stroke-linejoin="round"/>
<path d="M5.35938 113.856C5.35938 115.104 4.35868 116.116 3.13037 116.116C1.90206 116.116 0.901367 115.104 0.901367 113.856C0.901367 112.608 1.89814 111.595 3.13037 111.595C4.3626 111.595 5.35938 112.608 5.35938 113.856Z" stroke="#EBEFF2" stroke-width="0.604343" stroke-linecap="round" stroke-linejoin="round"/>
<path d="M239.683 45.5691C241.333 45.5691 242.67 44.2128 242.67 42.5396C242.67 40.8664 241.333 39.51 239.683 39.51C238.034 39.51 236.697 40.8664 236.697 42.5396C236.697 44.2128 238.034 45.5691 239.683 45.5691Z" stroke="#EBEFF2" stroke-width="0.604343" stroke-linecap="round" stroke-linejoin="round"/>
<path d="M137.184 1.95045C137.184 2.86089 136.458 3.59866 135.56 3.59866C134.661 3.59866 133.935 2.86089 133.935 1.95045C133.935 1.04002 134.661 0.302246 135.56 0.302246C136.458 0.302246 137.184 1.04002 137.184 1.95045Z" stroke="#EBEFF2" stroke-width="0.604343" stroke-linecap="round" stroke-linejoin="round"/>
<path d="M239.683 120.178C239.683 121.088 238.957 121.826 238.059 121.826C237.16 121.826 236.434 121.088 236.434 120.178C236.434 119.268 237.16 118.53 238.059 118.53C238.957 118.53 239.683 119.268 239.683 120.178Z" stroke="#EBEFF2" stroke-width="0.604343" stroke-linecap="round" stroke-linejoin="round"/>
<path d="M12.1054 16.0032H8.73047V19.4252H12.1054V16.0032Z" stroke="#EBEFF2" stroke-width="0.604343" stroke-linecap="round" stroke-linejoin="round"/>
<path d="M34.3756 24.5073H50.4456C51.8034 24.5073 52.9022 25.6101 52.9022 26.9639V42.8221C52.9022 44.1799 51.7995 45.2787 50.4456 45.2787H35.0663C33.3278 45.2787 31.915 43.8659 31.915 42.1274V26.9639C31.915 25.6061 33.0178 24.5073 34.3717 24.5073H34.3756Z" fill="#3792E3"/>
<path d="M40.9998 38.6428C42.7579 38.6742 44.5356 38.6977 46.1524 38.5839C46.6626 38.5486 47.106 37.7363 46.486 37.4812C46.7489 37.3478 47.0118 37.2183 47.1256 36.9239C47.2355 36.6453 47.1021 36.2686 46.8156 36.1979C47.4239 36.3471 47.6672 35.3817 47.1884 35.0677C47.4396 34.8519 47.6476 34.5694 47.7025 34.2436C47.7575 33.9179 47.6201 33.549 47.3336 33.3921C47.1453 33.29 46.9176 33.2861 46.7018 33.2822C45.9719 33.2783 45.242 33.2704 44.5081 33.2665C44.7043 32.1245 44.7671 30.8766 44.1863 29.872C44.0097 29.5698 43.5427 29.2048 43.166 29.4403C42.8168 29.6601 42.9149 30.2016 42.9306 30.543C43.0051 31.9636 42.1928 33.396 40.937 34.067C40.937 34.067 41.0194 37.0966 41.0037 38.6428H40.9998Z" fill="#FEFEFE"/>
<path d="M40.3638 34.0667H37.707V38.6385H40.3638V34.0667Z" fill="#FEFEFE"/>
<path d="M186.341 12.4207H205.472C206.339 12.4207 207.045 13.1231 207.045 13.9943V27.5685C207.045 28.4357 206.343 29.1421 205.472 29.1421H184.771V13.9943C184.771 13.127 185.473 12.4207 186.345 12.4207H186.341Z" fill="#FFB64D"/>
<path d="M184.778 24.1187L184.755 31.9673L191.454 24.1422L184.778 24.1187Z" fill="#FFB64D"/>
<path d="M188.887 20.8772H203.336" stroke="white" stroke-width="0.396355" stroke-miterlimit="10"/>
<path d="M188.887 17.5415H203.336" stroke="white" stroke-width="0.396355" stroke-miterlimit="10"/>
<path d="M188.887 23.7458H193.965" stroke="white" stroke-width="0.396355" stroke-miterlimit="10"/>
<path d="M219.607 78.9531H207.088C205.416 78.9531 204.062 77.5992 204.062 75.9275C204.062 74.2557 205.416 72.9019 207.088 72.9019H219.607C221.278 72.9019 222.632 74.2557 222.632 75.9275C222.632 77.5992 221.278 78.9531 219.607 78.9531Z" fill="#3792E3"/>
<path d="M210.694 75.9353C210.694 76.3827 210.337 76.7437 209.89 76.7437C209.443 76.7437 209.082 76.3866 209.082 75.9393C209.082 75.4919 209.439 75.1309 209.886 75.1309C210.333 75.1309 210.694 75.488 210.694 75.9353Z" fill="white"/>
<path d="M214.156 75.9273C214.156 76.3747 213.799 76.7357 213.351 76.7357C212.904 76.7357 212.543 76.3786 212.543 75.9312C212.543 75.4838 212.9 75.1228 213.347 75.1228C213.795 75.1228 214.156 75.4799 214.156 75.9273Z" fill="white"/>
<path d="M217.621 75.9156C217.621 76.3629 217.264 76.724 216.817 76.724C216.369 76.724 216.008 76.3669 216.008 75.9195C216.008 75.4721 216.365 75.1111 216.813 75.1111C217.26 75.1111 217.621 75.4682 217.621 75.9156Z" fill="white"/>
<path d="M154.389 46.0039L140.826 57.3373C138.743 59.0797 138.393 62.1446 140.03 64.3108C141.599 66.3868 144.48 66.944 146.709 65.6058L160.876 57.1058L154.389 46V46.0039Z" fill="#F49A82"/>
<path d="M176.07 59.0491L170.733 63.6798L180.65 76.1355L184.57 73.1491C185.783 72.2269 186.172 70.5748 185.504 69.2091L181.035 60.0616C180.112 58.1779 177.66 57.6756 176.074 59.053L176.07 59.0491Z" fill="#098245"/>
<path d="M166.212 72.5799L144.327 66.0969L143.707 72.3052L162.531 82.0649C165.047 83.2147 168.022 82.1434 169.23 79.6554C170.584 76.8691 169.156 73.5296 166.209 72.5799H166.212Z" fill="#F49A82"/>
<path d="M145.242 65.2454C144.304 63.8405 143.138 62.1884 142.632 61.5212C142.342 61.1406 141.835 60.9993 141.388 61.168C140.846 61.376 140.568 61.9686 140.748 62.518L141.431 64.127L135.945 61.6978C135.545 61.5212 135.058 61.6311 134.819 61.9921C134.54 62.416 134.674 62.9732 135.093 63.2283L135.918 63.8562L135.05 63.4716C134.674 63.3029 134.207 63.4167 133.995 63.7699C133.747 64.178 133.9 64.696 134.309 64.9118L134.858 65.2218C134.348 65.057 133.865 65.1787 133.712 65.524C133.528 65.9086 133.685 66.3677 134.061 66.56L134.846 66.9093C134.061 66.56 133.767 66.8583 133.649 67.1251C133.484 67.4901 133.638 67.9218 133.991 68.1062L137.393 70.4726C138.131 70.9866 138.939 71.3791 139.799 71.6342C140.976 71.9834 142.64 72.3955 143.715 72.3052L145.599 68.7773C145.599 68.7773 146.764 67.5097 145.25 65.2454H145.242Z" fill="#FFAB91"/>
<path d="M156.998 141.055V28.4982C156.998 23.2632 152.752 19.0132 147.513 19.0132H98.2004C92.9614 19.0132 88.7153 23.2632 88.7153 28.4982V142.633C88.7153 147.872 92.9614 152.118 98.2004 152.118H147.513C151.426 152.118 154.781 149.751 156.229 146.373C156.724 145.227 156.998 143.963 156.998 142.637V141.059V141.055Z" fill="#36474F"/>
<path d="M113.517 25.3627C113.517 25.8219 113.145 26.1947 112.685 26.1947C112.226 26.1947 111.854 25.8219 111.854 25.3627C111.854 24.9036 112.226 24.5308 112.685 24.5308C113.145 24.5308 113.517 24.9036 113.517 25.3627Z" fill="white"/>
<path d="M131.346 26.1358H115.931C115.487 26.1358 115.126 25.7748 115.126 25.3313C115.126 24.8879 115.487 24.5269 115.931 24.5269H131.346C131.789 24.5269 132.15 24.8879 132.15 25.3313C132.15 25.7748 131.789 26.1358 131.346 26.1358Z" fill="white"/>
<path d="M122.857 148.578C124.664 148.578 126.13 147.113 126.13 145.305C126.13 143.498 124.664 142.032 122.857 142.032C121.049 142.032 119.584 143.498 119.584 145.305C119.584 147.113 121.049 148.578 122.857 148.578Z" fill="white"/>
<path d="M153.486 30.8882H92.2275V138.61H153.486V30.8882Z" fill="white"/>
<path d="M104.083 63.5657L105.444 66.3205L108.486 66.7601L106.284 68.9067L106.806 71.9362L104.083 70.5038L101.363 71.9362L101.885 68.9067L99.6836 66.7601L102.725 66.3205L104.083 63.5657Z" fill="#FFB64D"/>
<path d="M116.303 63.5657L117.665 66.3205L120.707 66.7601L118.505 68.9067L119.023 71.9362L116.303 70.5038L113.584 71.9362L114.102 68.9067L111.9 66.7601L114.942 66.3205L116.303 63.5657Z" fill="#FFB64D"/>
<path d="M128.524 63.5657L129.881 66.3205L132.923 66.7601L130.721 68.9067L131.243 71.9362L128.524 70.5038L125.8 71.9362L126.322 68.9067L124.121 66.7601L127.162 66.3205L128.524 63.5657Z" fill="#FFB64D"/>
<path d="M140.74 63.5657L142.102 66.3205L145.143 66.7601L142.942 68.9067L143.46 71.9362L140.74 70.5038L138.02 71.9362L138.538 68.9067L136.337 66.7601L139.378 66.3205L140.74 63.5657Z" fill="#DEE7EC"/>
<path d="M129.144 83.3246H100.092C98.648 83.3246 97.4785 82.1551 97.4785 80.711C97.4785 79.2669 98.648 78.0974 100.092 78.0974H129.144C130.588 78.0974 131.757 79.2669 131.757 80.711C131.757 82.1551 130.588 83.3246 129.144 83.3246Z" stroke="#DEE7EC" stroke-width="0.584721" stroke-miterlimit="10"/>
<path d="M145.061 116.202H100.339C98.8136 116.202 97.5767 117.439 97.5767 118.965V125.413C97.5767 126.939 98.8136 128.175 100.339 128.175H145.061C146.587 128.175 147.823 126.939 147.823 125.413V118.965C147.823 117.439 146.587 116.202 145.061 116.202Z" stroke="#DEE7EC" stroke-width="0.623964" stroke-miterlimit="10"/>
<path d="M100.661 35.1266C100.661 35.8682 100.057 36.4726 99.3153 36.4726C98.5736 36.4726 97.9692 35.8682 97.9692 35.1266C97.9692 34.3849 98.5736 33.7805 99.3153 33.7805C100.057 33.7805 100.661 34.3849 100.661 35.1266Z" fill="#FFB64D"/>
<path d="M105.139 35.1266C105.139 35.8682 104.535 36.4726 103.793 36.4726C103.051 36.4726 102.447 35.8682 102.447 35.1266C102.447 34.3849 103.051 33.7805 103.793 33.7805C104.535 33.7805 105.139 34.3849 105.139 35.1266Z" fill="#FFB64D"/>
<path d="M109.616 35.1266C109.616 35.8682 109.012 36.4726 108.27 36.4726C107.529 36.4726 106.924 35.8682 106.924 35.1266C106.924 34.3849 107.529 33.7805 108.27 33.7805C109.012 33.7805 109.616 34.3849 109.616 35.1266Z" fill="#79BBDA"/>
<path d="M92.2275 39.0154H153.615" stroke="#DEE7EC" stroke-width="0.584721" stroke-miterlimit="10"/>
<path d="M118.501 46.6404H143.036" stroke="#DEE7EC" stroke-width="0.584721" stroke-miterlimit="10"/>
<path d="M118.501 51.5183H143.036" stroke="#DEE7EC" stroke-width="0.584721" stroke-miterlimit="10"/>
<path d="M118.501 56.396H126.876" stroke="#DEE7EC" stroke-width="0.584721" stroke-miterlimit="10"/>
<path d="M145.28 89.0698H100.559C99.0333 89.0698 97.7964 90.3067 97.7964 91.8325V108.122C97.7964 109.648 99.0333 110.885 100.559 110.885H145.28C146.806 110.885 148.043 109.648 148.043 108.122V91.8325C148.043 90.3067 146.806 89.0698 145.28 89.0698Z" fill="#FFB64D"/>
<path d="M107.823 105.057C110.564 105.057 112.787 102.835 112.787 100.093C112.787 97.3515 110.564 95.1289 107.823 95.1289C105.081 95.1289 102.858 97.3515 102.858 100.093C102.858 102.835 105.081 105.057 107.823 105.057Z" fill="white"/>
<path d="M115.856 96.012H142.624" stroke="#FDFEFF" stroke-width="0.584721" stroke-linecap="round" stroke-linejoin="round"/>
<path d="M115.856 99.7637H142.624" stroke="#FDFEFF" stroke-width="0.584721" stroke-linecap="round" stroke-linejoin="round"/>
<path d="M115.856 103.511H120.828" stroke="#FDFEFF" stroke-width="0.584721" stroke-linecap="round" stroke-linejoin="round"/>
<path d="M176.938 136.691L177.299 142.534H184.084L183.742 136.381L176.938 136.691Z" fill="#FFAB91"/>
<path d="M177.039 138.379L183.883 138.924L183.817 137.731L176.996 137.692L177.039 138.379Z" fill="#F49A82"/>
<path d="M177.039 138.379L183.883 138.924L183.817 137.731L176.996 137.692L177.039 138.379Z" fill="#F49A82"/>
<path d="M175.235 141.785H185.544L186.972 151.902H168.324C167.276 151.902 166.907 150.513 167.818 149.991L175.455 145.639L175.235 141.785Z" fill="#79BBDA"/>
<path d="M167.598 150.12H186.513" stroke="black" stroke-width="0.333566" stroke-miterlimit="10"/>
<path d="M172.656 147.236L175.078 148.162" stroke="black" stroke-width="0.333566" stroke-miterlimit="10"/>
<path d="M174.411 146.31L176.832 147.236" stroke="black" stroke-width="0.333566" stroke-miterlimit="10"/>
<path d="M183.468 146.44C183.468 147.209 182.844 147.829 182.079 147.829C181.313 147.829 180.689 147.205 180.689 146.44C180.689 145.674 181.313 145.05 182.079 145.05C182.844 145.05 183.468 145.674 183.468 146.44Z" stroke="black" stroke-width="0.333566" stroke-miterlimit="10"/>
<path d="M172.437 86.719L174.725 137.676L186.141 137.747L184.524 88.0611L172.437 86.719Z" fill="#736356"/>
<path d="M190.288 136.597L191.01 142.44H197.795L197.097 136.287L190.288 136.597Z" fill="#FFAB91"/>
<path d="M190.508 138.363L197.391 138.897L197.258 137.711H190.426L190.508 138.363Z" fill="#F49A82"/>
<path d="M190.508 138.363L197.391 138.897L197.258 137.711H190.426L190.508 138.363Z" fill="#F49A82"/>
<path d="M188.946 141.691H199.255L201.041 151.808H182.392C181.345 151.808 180.976 150.418 181.886 149.896L189.523 145.544L188.946 141.691Z" fill="#79BBDA"/>
<path d="M181.671 150.026H200.586" stroke="black" stroke-width="0.333566" stroke-miterlimit="10"/>
<path d="M186.729 147.142L189.147 148.068" stroke="black" stroke-width="0.333566" stroke-miterlimit="10"/>
<path d="M188.479 146.216L190.9 147.142" stroke="black" stroke-width="0.333566" stroke-miterlimit="10"/>
<path d="M197.541 146.345C197.541 147.114 196.917 147.734 196.151 147.734C195.386 147.734 194.762 147.11 194.762 146.345C194.762 145.58 195.386 144.956 196.151 144.956C196.917 144.956 197.541 145.58 197.541 146.345Z" stroke="black" stroke-width="0.333566" stroke-miterlimit="10"/>
<path d="M194.22 86.1855L199.404 137.712H187.792L178.641 85.4438L194.22 86.1855Z" fill="#736356"/>
<path d="M187.906 137.712L179.936 95.9099L176.577 93.0962" stroke="#554647" stroke-width="0.404203" stroke-miterlimit="10"/>
<path d="M180.218 57.1573C180.218 57.1573 174.084 56.7688 173.731 65.414C173.374 74.0593 172.197 87.1194 172.197 87.1194L195.272 88.7676L194.22 68.9695C194.22 68.9695 193.769 54.2612 180.218 57.1534V57.1573Z" fill="#79BBDA"/>
<path d="M150.19 50.7371L152.403 55.2147L157.348 55.9328L153.769 59.4215L154.613 64.3466L150.19 62.0194L145.771 64.3466L146.615 59.4215L143.036 55.9328L147.981 55.2147L150.19 50.7371Z" fill="#FFB64D"/>
<path d="M174.748 79.3257L156.257 65.9399L153.612 71.5909L168.128 87.0527C170.121 88.9717 173.28 88.9521 175.246 87.0056C177.448 84.8276 177.213 81.2016 174.744 79.3297L174.748 79.3257Z" fill="#FFAB91"/>
<path d="M157.406 65.4414C156.986 63.805 156.437 61.8585 156.178 61.0619C156.029 60.6067 155.601 60.3045 155.122 60.3163C154.545 60.332 154.082 60.799 154.071 61.3758L154.18 63.1182L149.813 59.0056C149.495 58.7073 149 58.6484 148.651 58.9114C148.247 59.2175 148.188 59.7865 148.498 60.1672L149.067 61.0305L148.376 60.3791C148.074 60.0965 147.599 60.0455 147.282 60.3084C146.913 60.6106 146.885 61.1522 147.199 61.4896L147.615 61.9645C147.187 61.6388 146.697 61.5917 146.434 61.8703C146.136 62.1725 146.128 62.6552 146.418 62.9652L147.042 63.5538C146.418 62.9652 146.041 63.1496 145.841 63.3576C145.567 63.648 145.563 64.1032 145.841 64.3976L148.263 67.7607C148.788 68.4906 149.42 69.1303 150.146 69.6561C151.139 70.3782 152.571 71.3161 153.619 71.5869L156.566 68.883C156.566 68.883 158.085 68.0746 157.41 65.4375L157.406 65.4414Z" fill="#FFAB91"/>
<path d="M179.316 66.3794L168.186 80.1066C166.475 82.214 166.723 85.2946 168.744 87.1037C170.682 88.8382 173.618 88.8343 175.548 87.0919L187.82 76.0293L179.32 66.3755L179.316 66.3794Z" fill="#FFAB91"/>
<path d="M176.632 69.6877L184.371 79.0943L185.968 77.6973L176.632 69.6877Z" fill="#F49A82"/>
<path d="M179.752 63.0712L175.404 68.6398L187.526 78.9607L190.799 75.2758C191.811 74.1377 191.878 72.4424 190.956 71.2298L184.814 63.1104C183.551 61.4387 181.043 61.419 179.752 63.0712Z" fill="#79BBDA"/>
<path d="M176.682 69.6249L175.674 68.8518L179.932 63.3342" stroke="#098245" stroke-width="0.494462" stroke-miterlimit="10"/>
<path d="M185.968 77.6972C185.968 77.6972 193.035 71.8185 193.338 65.9399" stroke="#098245" stroke-width="0.494462" stroke-miterlimit="10"/>
<path d="M184.516 56.8159C184.504 56.6354 184.468 56.4549 184.402 56.2861L181.965 49.866L175.623 51.7575L176.871 58.1973C177.801 61.3014 184.492 56.8316 184.516 56.8159Z" fill="#FFAB91"/>
<path d="M182.117 46.295C182.117 46.295 184.272 39.6394 179.951 40.071C177.373 40.33 176.459 39.7296 173.15 39.4235C169.324 39.0703 165.463 44.219 171.659 46.8208L179.374 43.0064L182.113 46.2911L182.117 46.295Z" fill="#4D2D3C"/>
<path d="M174.936 48.8693C175.152 49.8975 174.493 50.906 173.464 51.1179C172.436 51.3338 171.428 50.6745 171.216 49.6463C171 48.6182 171.659 47.6096 172.687 47.3977C173.716 47.1858 174.724 47.8411 174.936 48.8693Z" fill="#F49A82"/>
<path d="M176.486 56.2392L180.874 52.3816L175.925 53.3509L176.486 56.2392Z" fill="#4D2D3C"/>
<path d="M179.277 53.759L177.299 54.171C175.003 54.6498 172.766 53.135 172.362 50.8236L171.522 46.0202C171.091 43.5558 172.692 41.1934 175.145 40.6832C177.652 40.1613 180.548 41.676 181.074 44.1837L181.969 49.8661C182.251 51.6712 181.07 53.3862 179.281 53.759H179.277Z" fill="#FFAB91"/>
<path d="M180.619 47.8842L182.24 50.5959L182.004 47.3191L180.619 47.8842Z" fill="#4D2D3C"/>
<path d="M174.623 49.5129L174.674 50.5176L175.27 50.392" stroke="#4D2D3C" stroke-width="0.247231" stroke-linecap="round" stroke-linejoin="round"/>
<path d="M176.675 46.3382C176.675 46.3382 175.639 46.397 175.729 46.9386C175.729 46.9386 175.796 47.3035 176.699 47.2329C177.597 47.1583 177.813 47.0367 177.833 46.6796C177.852 46.3225 177.158 46.2636 176.679 46.3382H176.675Z" fill="#4D2D3C"/>
<path d="M172.825 47.1111C172.825 47.1111 173.642 46.86 173.806 47.3584C173.806 47.3584 173.908 47.6959 173.19 47.896C172.472 48.0961 172.209 48.0098 172.088 47.7469C171.95 47.4447 172.429 47.1896 172.825 47.1151V47.1111Z" fill="#4D2D3C"/>
<path d="M174.682 51.271L177.495 50.6824C177.495 50.6824 177.707 51.6635 176.075 52.0088C174.992 52.2364 174.686 51.271 174.686 51.271H174.682Z" fill="white"/>
<path d="M173.716 48.7358C173.751 48.9516 173.602 49.1557 173.386 49.1871C173.17 49.2224 172.966 49.0733 172.935 48.8574C172.9 48.6416 173.049 48.4375 173.265 48.4061C173.48 48.3747 173.684 48.5199 173.716 48.7358Z" fill="#4D2D3C"/>
<path d="M176.879 48.1864C176.914 48.4022 176.765 48.6063 176.549 48.6377C176.333 48.673 176.129 48.5239 176.098 48.308C176.063 48.0922 176.212 47.8881 176.428 47.8567C176.643 47.8214 176.847 47.9705 176.879 48.1864Z" fill="#4D2D3C"/>
<path d="M181.262 47.3191C181.262 47.3191 177.746 46.5146 178.138 43.6342C178.138 43.6342 172.954 42.3784 171.373 45.3059L169.995 40.5771L176.816 40.2632L181.737 41.0166L182.117 46.2948L181.262 47.3191Z" fill="#4D2D3C"/>
<path d="M183.982 46.9816C184.198 48.0098 183.538 49.0183 182.51 49.2302C181.482 49.4422 180.474 48.7868 180.262 47.7586C180.046 46.7305 180.705 45.7219 181.733 45.51C182.761 45.2981 183.77 45.9534 183.982 46.9816Z" fill="#FFAB91"/>
<path d="M181.584 48.0568C181.584 48.0568 181.302 46.7068 182.636 46.6519" stroke="#4D2D3C" stroke-width="0.247231" stroke-linecap="round" stroke-linejoin="round"/>
<path d="M78.3317 141.691H68.8034L67.7988 151.808H83.3195C84.3672 151.808 84.7361 150.419 83.8257 149.897L78.1433 145.545L78.3317 141.691Z" fill="#79BBDA"/>
<path d="M84.0453 150.026H68.2617" stroke="black" stroke-width="0.333566" stroke-miterlimit="10"/>
<path d="M80.7253 147.526L79.3047 148.068" stroke="black" stroke-width="0.333566" stroke-miterlimit="10"/>
<path d="M79.3049 146.471L77.5547 147.142" stroke="black" stroke-width="0.333566" stroke-miterlimit="10"/>
<path d="M70.915 146.345C70.915 147.114 71.539 147.734 72.3042 147.734C73.0695 147.734 73.6934 147.11 73.6934 146.345C73.6934 145.58 73.0695 144.956 72.3042 144.956C71.539 144.956 70.915 145.58 70.915 146.345Z" stroke="black" stroke-width="0.333566" stroke-miterlimit="10"/>
<path d="M77.1074 136.597L76.7778 142.44H69.9966L70.3027 136.287L77.1074 136.597Z" fill="#FFAB91"/>
<path d="M70.1812 138.728L76.9584 139.254L77.0448 138.084H70.2125L70.1812 138.728Z" fill="#F49A82"/>
<path d="M73.8858 87.3277L79.6898 110.709C80.2903 112.977 80.3687 113.73 80.2392 116.073L78.8304 138.081H68.0935V115.3L60.394 90.1571L73.8858 87.3237V87.3277Z" fill="#736356"/>
<path d="M44.2098 136.597L42.9775 142.44H49.7627L51.0184 136.287L44.2098 136.597Z" fill="#FFAB91"/>
<path d="M43.7588 138.76L50.4105 139.262L50.6459 138.108H43.8961L43.7588 138.76Z" fill="#F49A82"/>
<path d="M42.2047 141.691H50.952L49.6098 151.808H35.2626C34.2148 151.808 33.8459 150.419 34.7563 149.897L40.8272 145.545L42.2047 141.691Z" fill="#79BBDA"/>
<path d="M34.5366 150.026H49.8493" stroke="black" stroke-width="0.333566" stroke-miterlimit="10"/>
<path d="M37.9976 147.577L39.2808 148.068" stroke="black" stroke-width="0.333566" stroke-miterlimit="10"/>
<path d="M39.4502 146.538L41.0317 147.142" stroke="black" stroke-width="0.333566" stroke-miterlimit="10"/>
<path d="M47.6715 146.345C47.6715 147.114 47.0475 147.734 46.2823 147.734C45.517 147.734 44.8931 147.11 44.8931 146.345C44.8931 145.58 45.517 144.956 46.2823 144.956C47.0475 144.956 47.6715 145.58 47.6715 146.345Z" stroke="black" stroke-width="0.333566" stroke-miterlimit="10"/>
<path d="M54.0756 87.3274L42.3066 138.108H53.4948L70.6597 87.3274H54.0756Z" fill="#736356"/>
<path d="M64.7969 104.536L66.5628 99.6145L70.3458 97.2795" stroke="#554647" stroke-width="0.404203" stroke-miterlimit="10"/>
<path d="M88.7707 74.7853L94.4374 57.7695L98.7149 60.1634L96.5369 76.6807C96.1444 78.8195 94.1195 80.2558 91.969 79.9144C89.5673 79.5337 88.0565 77.1124 88.7707 74.7853Z" fill="#FFAB91"/>
<path d="M93.8131 55.6663C93.9387 54.1319 94.1349 52.2953 94.2448 51.5379C94.3076 51.1063 94.649 50.7688 95.0807 50.706C95.6026 50.6314 96.0932 50.9807 96.1913 51.4987L96.36 53.0841L99.6604 48.7124C99.8997 48.3946 100.339 48.2651 100.692 48.4495C101.105 48.6654 101.246 49.1677 101.022 49.5562L100.641 50.4195L101.163 49.7249C101.391 49.4227 101.811 49.305 102.137 49.4934C102.517 49.7092 102.623 50.1919 102.392 50.5451L102.09 51.0356C102.423 50.6785 102.863 50.5608 103.137 50.7688C103.451 50.9925 103.534 51.4281 103.322 51.7499L102.851 52.3777C103.322 51.7499 103.691 51.8597 103.903 52.0167C104.197 52.2365 104.267 52.6446 104.063 52.9507L102.4 56.3491C102.038 57.083 101.568 57.758 100.995 58.3427C100.21 59.1432 99.0639 60.2067 98.1652 60.6149L95.0964 58.6331C95.0964 58.6331 93.6052 58.1386 93.8092 55.6585L93.8131 55.6663Z" fill="#FFAB91"/>
<path d="M79.9212 68.6126L93.3149 72.27C95.3712 72.8312 96.627 74.9111 96.1678 76.991C95.7283 78.9884 93.8525 80.3305 91.8197 80.1029L76.562 77.9132L79.9212 68.6086V68.6126Z" fill="#FFAB91"/>
<path d="M75.302 66.2933L76.342 66.6779L83.9276 68.3732L82.3618 80.0911L74.3092 78.804C73.1437 78.541 72.3235 77.4893 72.3549 76.2924L72.555 68.2947C72.5982 66.6465 73.7205 65.8302 75.302 66.2933Z" fill="#79BBDA"/>
<path d="M83.7549 69.6604L84.9047 69.9743L82.4834 78.7687" fill="#F49A82"/>
<path d="M97.9763 41.4917H110.734C111.809 41.4917 112.685 42.3668 112.685 43.4421V56.0273C112.685 57.1026 111.809 57.9777 110.734 57.9777H98.5257C97.1443 57.9777 96.0259 56.8593 96.0259 55.4779V43.4421C96.0259 42.3668 96.901 41.4917 97.9763 41.4917Z" fill="#79BBDA"/>
<path d="M107.529 47.5233C106.779 46.7895 105.578 46.8013 104.845 47.5508L104.362 48.0453L103.864 47.5547C103.118 46.817 101.913 46.8287 101.179 47.5744C100.445 48.32 100.453 49.5247 101.199 50.2586L103.047 52.0795C103.047 52.0795 103.055 52.0873 103.059 52.0912C103.353 52.3816 103.718 52.5543 104.099 52.6092C104.684 52.6995 105.3 52.5151 105.747 52.0598L107.564 50.2036C108.298 49.4541 108.286 48.2533 107.537 47.5194L107.529 47.5233Z" fill="white"/>
<path d="M78.3043 73.8867L75.7025 92.2328L54.0757 87.3274C54.0757 87.3274 58.412 67.698 65.9938 64.7705L67.2221 64.9667L73.0301 65.9988C76.2402 66.7876 78.2769 70.5824 78.3043 73.8867Z" fill="#79BBDA"/>
<path d="M77.2251 69.6406C77.2251 69.6406 78.4573 72.8115 77.5351 79.318" stroke="#098245" stroke-width="0.494462" stroke-miterlimit="10"/>
<path d="M59.8875 75.4681L43.9627 79.7377C41.9064 80.295 39.7716 79.1412 39.1123 77.1124C38.4805 75.1698 39.4144 73.0625 41.2824 72.2266L58.0667 65.7437L59.8875 75.4642V75.4681Z" fill="#FFAB91"/>
<path d="M52.6548 67.7922L54.8759 76.7946L56.2808 76.3982L52.6548 67.7922Z" fill="#F49A82"/>
<path d="M46.7882 75.0285L53.3261 88.1396L49.4411 91.4046L39.6538 78.3249C39.0927 77.5714 38.7905 76.6375 38.8965 75.7035C39.0691 74.2044 40.007 72.7877 41.4276 72.2305C43.692 71.3396 46.2231 72.6621 46.7843 75.0285H46.7882Z" fill="#FFAB91"/>
<path d="M56.7126 87.5747C54.4679 88.1673 52.3173 89.1444 50.3081 90.4081C50.7672 90.9418 51.3245 91.4755 51.7876 91.8914C52.3527 92.3977 52.9923 92.8058 53.6869 93.108L56.8892 94.505C57.1796 94.6777 57.5563 94.5953 57.7447 94.3167C57.882 94.1126 57.9683 93.7712 57.3719 93.3591L57.9683 93.7712C58.2744 93.9556 58.6747 93.8614 58.867 93.5632C59.0475 93.3003 58.922 92.9 58.5766 92.6057L59.0397 92.8647C59.3732 93.0648 59.8167 92.9471 60.0011 92.586C60.1581 92.276 60.0365 91.8914 59.7461 91.6952L59.0868 91.2439L59.8991 91.5579C60.268 91.7462 60.7271 91.5971 60.9077 91.2086C61.0646 90.875 60.9273 90.4748 60.6212 90.2668L56.7086 87.5747H56.7126Z" fill="#FFAB91"/>
<path d="M54.3973 92.3663C54.3973 92.3663 52.7962 95.1447 49.4448 91.401L52.9375 87.7435L56.3477 85.7774C56.6655 85.593 57.0658 85.6558 57.3131 85.9226C57.5524 86.1816 57.5917 86.5701 57.4072 86.8684L56.8029 87.8495" fill="#FFAB91"/>
<path d="M56.7126 87.5747C54.4679 88.1673 52.3173 89.1444 50.3081 90.4081C50.7672 90.9418 51.3245 91.4755 51.7876 91.8914C52.3527 92.3977 52.9923 92.8058 53.6869 93.108L56.8892 94.505C57.1796 94.6777 57.5563 94.5953 57.7447 94.3167C57.882 94.1126 57.9683 93.7712 57.3719 93.3591L57.9683 93.7712C58.2744 93.9556 58.6747 93.8614 58.867 93.5632C59.0475 93.3003 58.922 92.9 58.5766 92.6057L59.0397 92.8647C59.3732 93.0648 59.8167 92.9471 60.0011 92.586C60.1581 92.276 60.0365 91.8914 59.7461 91.6952L59.0868 91.2439L59.8991 91.5579C60.268 91.7462 60.7271 91.5971 60.9077 91.2086C61.0646 90.875 60.9273 90.4748 60.6212 90.2668L56.7086 87.5747H56.7126Z" fill="#FFAB91"/>
<path d="M54.3973 92.3663C54.3973 92.3663 52.7962 95.1447 49.4448 91.401L52.9375 87.7435L56.3477 85.7774C56.6655 85.593 57.0658 85.6558 57.3131 85.9226C57.5524 86.1816 57.5917 86.5701 57.4072 86.8684L56.8029 87.8495" fill="#FFAB91"/>
<path d="M52.3374 66.9364L57.074 78.1835L65.217 75.1343C68.4584 73.9217 69.9693 70.1936 68.4938 67.0659C67.2184 64.3621 64.1221 63.0357 61.2809 63.9736L52.3374 66.9364Z" fill="#79BBDA"/>
<path d="M56.9282 77.8421L65.3027 74.5378" stroke="#098245" stroke-width="0.494462" stroke-miterlimit="10"/>
<path d="M79.8936 49.7681C79.509 49.6465 72.7906 46.7189 69.7257 50.1919C67.2181 53.0371 67.6459 58.6096 71.4564 61.1447C75.0863 63.5581 76.711 50.4039 76.711 50.4039L79.8936 49.7681Z" fill="#4D2D3C"/>
<path d="M75.5221 66.3481L76.4953 62.9182L72.571 59.5708L69.0823 65.2061L67.2222 64.9667C67.2222 64.9667 67.1751 69.201 72.6063 69.9545C77.0957 70.5785 76.3423 66.6738 76.3423 66.6738L75.526 66.3481H75.5221Z" fill="#FFAB91"/>
<path d="M70.1888 58.0053C69.6041 60.5679 67.0533 62.1729 64.4907 61.5882C61.9281 61.0035 60.3231 58.4527 60.9078 55.8901C61.4925 53.3275 64.0433 51.7225 66.6059 52.3072C69.1685 52.8919 70.7735 55.4427 70.1888 58.0053Z" fill="#4D2D3C"/>
<path d="M78.2968 57.6403C77.9789 58.688 78.5715 59.7947 79.6193 60.1086C80.667 60.4265 81.7737 59.8339 82.0876 58.7862C82.4055 57.7384 81.8129 56.6317 80.7652 56.3178C79.7174 55.9999 78.6107 56.5925 78.2968 57.6403Z" fill="#F49A82"/>
<path d="M75.6906 65.7712L72.1431 60.0417L76.6325 62.4984L75.6906 65.7712Z" fill="#4D2D3C"/>
<path d="M75.063 63.3068C77.5431 63.8797 80.039 62.3924 80.5766 60.3832L81.8128 55.6348C82.4838 53.1154 81.0397 50.5175 78.5438 49.764C75.9891 48.9909 72.8457 50.3016 72.0727 52.8564L71.1191 56.6865C70.3813 59.6493 72.1433 62.4238 75.0669 63.3107L75.063 63.3068Z" fill="#FFAB91"/>
<path d="M78.4456 58.2917L78.3279 59.4455L77.7393 59.3356" stroke="#4D2D3C" stroke-width="0.243307" stroke-linecap="round" stroke-linejoin="round"/>
<path d="M76.4206 55.4033C76.4206 55.4033 77.4292 55.5485 77.3467 55.9527C77.3467 55.9527 77.284 56.2274 76.4088 56.0822C75.5337 55.9409 75.3218 55.8232 75.3022 55.5485C75.2826 55.2738 75.9575 55.2974 76.4206 55.3994V55.4033Z" fill="#4D2D3C"/>
<path d="M80.3841 56.4199C80.3841 56.4199 79.5874 56.1491 79.4344 56.5141C79.4344 56.5141 79.3363 56.7613 80.0387 56.9811C80.7412 57.2008 80.9962 57.1655 81.11 56.9732C81.2395 56.7574 80.7726 56.5141 80.3841 56.4199Z" fill="#4D2D3C"/>
<path d="M79.4187 58.0602C79.3598 58.2878 79.4932 58.5193 79.7208 58.5821C79.9485 58.641 80.18 58.5076 80.2428 58.28C80.3016 58.0524 80.1682 57.8208 79.9406 57.758C79.713 57.6992 79.4815 57.8326 79.4187 58.0602Z" fill="#4D2D3C"/>
<path d="M75.9533 57.1498C75.8945 57.3774 76.0279 57.6089 76.2555 57.6717C76.4831 57.7345 76.7147 57.5972 76.7774 57.3696C76.8363 57.142 76.7029 56.9104 76.4753 56.8476C76.2477 56.7888 76.0161 56.9222 75.9533 57.1498Z" fill="#4D2D3C"/>
<path d="M78.5008 60.1951L75.6988 59.5554C75.6988 59.5554 75.4673 60.5326 77.0959 60.9093C78.1751 61.1565 78.5008 60.1951 78.5008 60.1951Z" fill="white"/>
<path d="M75.5026 53.1468C74.4392 55.988 72.2847 56.3373 72.2847 56.3373L70.3657 52.6916C70.3657 52.6916 76.052 51.6791 75.5026 53.1508V53.1468Z" fill="#4D2D3C"/>
<path d="M68.9252 55.6073C68.6073 56.6551 69.1999 57.7617 70.2477 58.0757C71.2955 58.3936 72.4021 57.801 72.7161 56.7532C73.0339 55.7054 72.4414 54.5987 71.3936 54.2848C70.3458 53.9669 69.2391 54.5595 68.9252 55.6073Z" fill="#FFAB91"/>
<path d="M71.3155 56.9456C71.3155 56.9456 71.7315 55.5721 70.3501 55.3877" stroke="#4D2D3C" stroke-width="0.259004" stroke-linecap="round" stroke-linejoin="round"/>
<path d="M80.8712 50.2823C77.9123 49.5524 75.7461 48.2417 72.1514 50.3569L71.6099 52.7232C71.6099 52.7232 79.9019 56.1374 82.2447 55.8587L82.9864 53.8063C83.2886 53.1588 82.9158 52.5741 82.6685 51.903L83.0728 51.7461C82.7627 50.9102 81.7306 50.4981 80.8673 50.2862L80.8712 50.2823Z" fill="#4D2D3C"/>
<path d="M74.4189 48.5317C74.4189 48.5317 87.0434 48.6573 82.244 55.8584L76.3379 51.6319L74.4189 48.5317Z" fill="#4D2D3C"/>
</g>
<defs>
<clipPath id="clip0_9957_537">
<rect width="242.377" height="152.118" fill="white" transform="translate(0.626465)"/>
</clipPath>
</defs>
</svg>
