<svg width="81" height="15" viewBox="0 0 81 15" fill="none" xmlns="http://www.w3.org/2000/svg">
<g clip-path="url(#clip0_1920_690)">
<path d="M35.5938 0.351617H23.4062C23.1297 0.348802 22.8634 0.455802 22.6656 0.649136C22.4679 0.84247 22.355 1.10635 22.3516 1.38287V13.6196C22.3556 13.8957 22.4688 14.159 22.6665 14.3518C22.8641 14.5446 23.1301 14.6513 23.4062 14.6485H35.5938C35.8703 14.6507 36.1365 14.5433 36.3341 14.3499C36.5317 14.1564 36.6447 13.8926 36.6484 13.6161V1.37935C36.6435 1.10364 36.53 0.841023 36.3325 0.648576C36.135 0.45613 35.8695 0.349411 35.5938 0.351617Z" fill="#0076B2"/>
<path d="M24.4681 5.71094H26.5903V12.5395H24.4681V5.71094ZM25.5298 2.3125C25.7732 2.3125 26.0111 2.3847 26.2135 2.51995C26.4159 2.65521 26.5736 2.84745 26.6667 3.07236C26.7598 3.29727 26.7841 3.54473 26.7365 3.78345C26.689 4.02217 26.5716 4.24142 26.3994 4.41346C26.2272 4.58549 26.0079 4.70259 25.7691 4.74994C25.5304 4.79728 25.2829 4.77275 25.0581 4.67944C24.8333 4.58613 24.6412 4.42823 24.5061 4.22573C24.3711 4.02322 24.2991 3.78521 24.2993 3.5418C24.2996 3.21566 24.4294 2.90299 24.6601 2.67248C24.8909 2.44198 25.2036 2.3125 25.5298 2.3125ZM27.9216 5.71094H29.956V6.64844H29.9841C30.2677 6.11172 30.9591 5.5457 31.9915 5.5457C34.1407 5.54102 34.5392 6.95547 34.5392 8.78945V12.5395H32.4169V9.21719C32.4169 8.42617 32.4028 7.40781 31.3142 7.40781C30.2255 7.40781 30.0403 8.27031 30.0403 9.16563V12.5395H27.9216V5.71094Z" fill="white"/>
</g>
<g clip-path="url(#clip1_1920_690)">
<path d="M55.4844 0H47.5156C45.574 0 44 1.574 44 3.51562V11.4844C44 13.426 45.574 15 47.5156 15H55.4844C57.426 15 59 13.426 59 11.4844V3.51562C59 1.574 57.426 0 55.4844 0Z" fill="white"/>
<path d="M55.4844 0H47.5156C45.574 0 44 1.574 44 3.51562V11.4844C44 13.426 45.574 15 47.5156 15H55.4844C57.426 15 59 13.426 59 11.4844V3.51562C59 1.574 57.426 0 55.4844 0Z" fill="#1D9BF0"/>
<path d="M55.6937 5.35611C55.7001 5.4491 55.7001 5.54209 55.7001 5.63595C55.7001 8.49515 53.5235 11.7927 49.5434 11.7927V11.7909C48.3676 11.7926 47.2162 11.4559 46.2266 10.8209C46.3975 10.8415 46.5693 10.8517 46.7416 10.8521C47.7161 10.8529 48.6626 10.526 49.4289 9.92408C48.9774 9.91554 48.5398 9.76612 48.1774 9.4967C47.815 9.22729 47.5458 8.85135 47.4075 8.42144C47.7316 8.48395 48.0659 8.4712 48.3843 8.38418C47.3749 8.18021 46.6486 7.29328 46.6486 6.2632V6.23578C46.9495 6.40339 47.2863 6.49627 47.6306 6.5066C46.6799 5.87115 46.3868 4.60629 46.9609 3.61734C47.5042 4.28584 48.1819 4.83258 48.9503 5.22205C49.7186 5.61152 50.5602 5.83501 51.4205 5.87801C51.3348 5.50877 51.3474 5.12349 51.4573 4.76068C51.5671 4.39788 51.7703 4.07028 52.0465 3.81064C52.918 2.99138 54.2887 3.0334 55.108 3.90445C55.5925 3.80878 56.0572 3.63113 56.482 3.37916C56.3205 3.88017 55.9825 4.30545 55.5308 4.57588C55.9598 4.52534 56.3787 4.41052 56.7734 4.23527C56.4831 4.67015 56.1174 5.04967 55.6937 5.35611Z" fill="white"/>
</g>
<g clip-path="url(#clip2_1920_690)">
<path d="M77.4844 0H69.5156C67.574 0 66 1.574 66 3.51562V11.4844C66 13.426 67.574 15 69.5156 15H77.4844C79.426 15 81 13.426 81 11.4844V3.51562C81 1.574 79.426 0 77.4844 0Z" fill="url(#paint0_radial_1920_690)"/>
<path d="M77.4844 0H69.5156C67.574 0 66 1.574 66 3.51562V11.4844C66 13.426 67.574 15 69.5156 15H77.4844C79.426 15 81 13.426 81 11.4844V3.51562C81 1.574 79.426 0 77.4844 0Z" fill="url(#paint1_radial_1920_690)"/>
<path d="M73.5005 1.64062C71.9092 1.64062 71.7095 1.6476 71.0845 1.67602C70.4607 1.70461 70.0349 1.80334 69.6624 1.94824C69.277 2.09789 68.9501 2.29811 68.6244 2.62389C68.2985 2.94961 68.0982 3.2765 67.9481 3.66176C67.8028 4.03441 67.704 4.46039 67.6759 5.08389C67.6479 5.70891 67.6406 5.90871 67.6406 7.50006C67.6406 9.09141 67.6477 9.29051 67.676 9.91547C67.7047 10.5393 67.8035 10.9651 67.9482 11.3376C68.098 11.723 68.2982 12.0499 68.624 12.3756C68.9496 12.7015 69.2765 12.9022 69.6616 13.0519C70.0345 13.1968 70.4603 13.2955 71.084 13.3241C71.709 13.3525 71.9086 13.3595 73.4998 13.3595C75.0913 13.3595 75.2904 13.3525 75.9154 13.3241C76.5391 13.2955 76.9654 13.1968 77.3382 13.0519C77.7235 12.9022 78.0499 12.7015 78.3755 12.3756C78.7014 12.0499 78.9016 11.723 79.0518 11.3378C79.1958 10.9651 79.2947 10.5391 79.324 9.91559C79.3521 9.29062 79.3594 9.09141 79.3594 7.50006C79.3594 5.90871 79.3521 5.70902 79.324 5.084C79.2947 4.46021 79.1958 4.03447 79.0518 3.66193C78.9016 3.2765 78.7014 2.94961 78.3755 2.62389C78.0496 2.29799 77.7236 2.09777 77.3379 1.9483C76.9644 1.80334 76.5383 1.70455 75.9145 1.67602C75.2895 1.6476 75.0905 1.64062 73.4987 1.64062H73.5005ZM72.9749 2.69654C73.1309 2.69631 73.305 2.69654 73.5005 2.69654C75.065 2.69654 75.2504 2.70217 75.8682 2.73023C76.4395 2.75637 76.7496 2.85182 76.9562 2.93203C77.2296 3.0382 77.4246 3.16518 77.6295 3.37031C77.8346 3.57539 77.9615 3.77068 78.068 4.04414C78.1482 4.25039 78.2438 4.56047 78.2698 5.13176C78.2978 5.74945 78.3039 5.93496 78.3039 7.49871C78.3039 9.06246 78.2978 9.24803 78.2698 9.86566C78.2436 10.437 78.1482 10.747 78.068 10.9533C77.9618 11.2268 77.8346 11.4215 77.6295 11.6265C77.4244 11.8315 77.2297 11.9585 76.9562 12.0647C76.7498 12.1453 76.4395 12.2405 75.8682 12.2666C75.2505 12.2947 75.065 12.3008 73.5005 12.3008C71.936 12.3008 71.7505 12.2947 71.1329 12.2666C70.5616 12.2402 70.2515 12.1448 70.0448 12.0646C69.7714 11.9583 69.576 11.8314 69.371 11.6263C69.1659 11.4213 69.039 11.2264 68.9325 10.9529C68.8523 10.7466 68.7567 10.4365 68.7307 9.8652C68.7026 9.2475 68.697 9.06199 68.697 7.49725C68.697 5.93256 68.7026 5.74799 68.7307 5.13029C68.7568 4.559 68.8523 4.24893 68.9325 4.04238C69.0387 3.76893 69.1659 3.57363 69.371 3.36855C69.5761 3.16348 69.7714 3.0365 70.0448 2.9301C70.2514 2.84953 70.5616 2.75432 71.1329 2.72807C71.6734 2.70363 71.8829 2.69631 72.9749 2.69508V2.69654ZM76.6283 3.66943C76.2401 3.66943 75.9251 3.98408 75.9251 4.37232C75.9251 4.76051 76.2401 5.07545 76.6283 5.07545C77.0164 5.07545 77.3314 4.76051 77.3314 4.37232C77.3314 3.98414 77.0164 3.6692 76.6283 3.6692V3.66943ZM73.5005 4.49098C71.8388 4.49098 70.4915 5.83828 70.4915 7.50006C70.4915 9.16184 71.8388 10.5085 73.5005 10.5085C75.1623 10.5085 76.5091 9.16184 76.5091 7.50006C76.5091 5.83834 75.1622 4.49098 73.5004 4.49098H73.5005ZM73.5005 5.54689C74.5792 5.54689 75.4537 6.42129 75.4537 7.50006C75.4537 8.57871 74.5792 9.45322 73.5005 9.45322C72.4218 9.45322 71.5474 8.57871 71.5474 7.50006C71.5474 6.42129 72.4218 5.54689 73.5005 5.54689Z" fill="white"/>
</g>
<g clip-path="url(#clip3_1920_690)">
<path d="M13.6698 0.566406H1.33115C0.908525 0.566406 0.565918 0.909013 0.565918 1.33164V13.6703C0.565918 14.0929 0.908525 14.4355 1.33115 14.4355H13.6698C14.0925 14.4355 14.4351 14.0929 14.4351 13.6703V1.33164C14.4351 0.909013 14.0925 0.566406 13.6698 0.566406Z" fill="#3D5A98"/>
<path d="M10.1345 14.4342V9.06349H11.9368L12.2063 6.97052H10.1345V5.63458C10.1345 5.02872 10.3032 4.61505 11.1716 4.61505H12.2802V2.74005C11.7434 2.6841 11.2039 2.6575 10.6642 2.66036C9.06807 2.66036 7.96885 3.63302 7.96885 5.42716V6.97052H6.1665V9.06349H7.96885V14.4342H10.1345Z" fill="white"/>
</g>
<defs>
<radialGradient id="paint0_radial_1920_690" cx="0" cy="0" r="1" gradientUnits="userSpaceOnUse" gradientTransform="translate(69.9844 16.1553) rotate(-90) scale(14.8661 13.8267)">
<stop stop-color="#FFDD55"/>
<stop offset="0.1" stop-color="#FFDD55"/>
<stop offset="0.5" stop-color="#FF543E"/>
<stop offset="1" stop-color="#C837AB"/>
</radialGradient>
<radialGradient id="paint1_radial_1920_690" cx="0" cy="0" r="1" gradientUnits="userSpaceOnUse" gradientTransform="translate(63.4874 1.08053) rotate(78.681) scale(6.64523 27.3919)">
<stop stop-color="#3771C8"/>
<stop offset="0.128" stop-color="#3771C8"/>
<stop offset="1" stop-color="#6600FF" stop-opacity="0"/>
</radialGradient>
<clipPath id="clip0_1920_690">
<rect width="15" height="15" fill="white" transform="translate(22)"/>
</clipPath>
<clipPath id="clip1_1920_690">
<rect width="15" height="15" fill="white" transform="translate(44)"/>
</clipPath>
<clipPath id="clip2_1920_690">
<rect width="15" height="15" fill="white" transform="translate(66)"/>
</clipPath>
<clipPath id="clip3_1920_690">
<rect width="15" height="15" fill="white"/>
</clipPath>
</defs>
</svg>
