<svg width="25" height="25" viewBox="0 0 25 25" fill="none" xmlns="http://www.w3.org/2000/svg">
<g id="carbon:white-paper">
<path id="Vector" d="M17.1875 21.2344L15.1641 19.2109L14.0625 20.3125L17.1875 23.4375L23.4375 17.1875L22.3359 16.0859L17.1875 21.2344ZM7.03125 13.2812H12.5V14.8438H7.03125V13.2812ZM7.03125 9.375H16.4062V10.9375H7.03125V9.375ZM7.03125 5.46875H16.4062V7.03125H7.03125V5.46875Z" fill="#146C94"/>
<path id="Vector_2" d="M12.5 23.4375H4.6875C3.82578 23.4375 3.125 22.7367 3.125 21.875V3.125C3.125 2.26328 3.82578 1.5625 4.6875 1.5625H18.75C19.6117 1.5625 20.3125 2.26328 20.3125 3.125V14.8438H18.75V3.125H4.6875V21.875H12.5V23.4375Z" fill="#146C94"/>
</g>
</svg>
