<svg width="223" height="150" viewBox="0 0 223 150" fill="none" xmlns="http://www.w3.org/2000/svg">
<g clip-path="url(#clip0_9913_1688)">
<path d="M166.548 133.041C184.828 134.332 207.678 127.084 217.759 111.189C221.933 104.608 224.705 96.1631 221.799 88.881C219.599 83.3665 210.29 77.1349 208.28 71.5425C206.241 65.872 206.531 59.4846 207.578 53.5243C210.583 36.3946 193.871 9.65108 158.574 6.79561C131.812 4.63218 119.704 25.4341 96.9255 28.274C73.9415 31.1388 46.9891 13.9468 30.5452 28.274C10.1267 46.0677 19.7094 63.877 22.1939 72.2096C25.386 82.9145 9.78068 95.1313 13.0009 110.892C20.1957 146.131 72.4919 122.367 87.8198 120.88C103.388 119.368 118.834 123.801 134.09 127.358C149.346 130.915 165.504 133.59 180.414 128.708L166.548 133.041Z" fill="#F3FAFF"/>
<path d="M110.464 149.884C171.163 149.884 220.369 147.54 220.369 144.647C220.369 141.755 171.163 139.41 110.464 139.41C49.7659 139.41 0.560059 141.755 0.560059 144.647C0.560059 147.54 49.7659 149.884 110.464 149.884Z" fill="#E9ECF2"/>
<path d="M14.7997 54.9336L14.4662 54.9711C13.7243 48.4403 15.7256 42.0965 20.7601 35.0015L21.0313 35.1947C16.0467 42.2181 14.0672 48.487 14.7966 54.9336H14.7997Z" fill="#2E4882"/>
<path d="M12.6959 59.3071L12.3779 59.4069C8.55605 47.2337 15.1118 37.3736 22.0291 29.3372L22.2816 29.5554C15.4266 37.5233 8.9239 47.2898 12.6959 59.3071Z" fill="#2E4882"/>
<path d="M173.952 7.46585C166.283 3.54737 159.793 2.4906 153.521 4.14278L153.437 3.81858C159.793 2.14457 166.358 3.20758 174.105 7.16658L173.952 7.46273V7.46585Z" fill="#2E4882"/>
<path d="M179.713 7.88675C170.841 2.25062 160.239 -2.77451 148.892 2.69017L148.749 2.38778C160.245 -3.14859 170.944 1.91707 179.897 7.60307L179.716 7.88363L179.713 7.88675Z" fill="#2E4882"/>
<path d="M82.2871 41.2767L81.8008 41.2642C81.807 41.0179 81.8195 40.7717 81.8382 40.5254L82.3214 40.5597C82.3058 40.7966 82.2933 41.0366 82.2871 41.2767Z" fill="#3F5A9F"/>
<path d="M115.425 37.2115C115.294 36.7377 115.141 36.267 114.966 35.8087L115.421 35.6373C115.599 36.108 115.758 36.5943 115.892 37.0806L115.425 37.2115ZM82.4869 39.0944L82.0068 39.0165C82.0848 38.5177 82.1876 38.0189 82.3123 37.5295L82.7831 37.6479C82.6646 38.1249 82.5648 38.6112 82.4869 39.0944ZM114.387 34.4527C114.175 34.01 113.941 33.5736 113.691 33.1528L114.109 32.9034C114.368 33.3367 114.608 33.7887 114.826 34.2407L114.387 34.4496V34.4527ZM83.2039 36.2327L82.7457 36.0737C82.9109 35.5967 83.0979 35.1229 83.3068 34.6615L83.7494 34.8611C83.5499 35.31 83.366 35.7713 83.2039 36.2327ZM112.884 31.9152C112.597 31.5193 112.292 31.1265 111.971 30.7555L112.338 30.4376C112.669 30.821 112.984 31.2231 113.277 31.6315L112.881 31.9152H112.884ZM84.4134 33.5424L83.9895 33.3055C84.2357 32.866 84.5038 32.4295 84.7875 32.0118L85.1896 32.2861C84.9153 32.6914 84.6534 33.1154 84.4134 33.5424ZM110.961 29.6801C110.608 29.3372 110.24 29.0067 109.86 28.695L110.169 28.3178C110.558 28.6358 110.939 28.9787 111.3 29.3309L110.961 29.6801ZM86.0687 31.1016L85.6915 30.7961C86.0095 30.4064 86.3493 30.023 86.7015 29.6614L87.0507 29.998C86.7109 30.3503 86.3804 30.7212 86.0687 31.1016ZM108.679 27.8128C108.273 27.5353 107.853 27.2735 107.426 27.0335L107.662 26.6095C108.102 26.8558 108.535 27.127 108.953 27.4106L108.679 27.8128ZM88.123 28.9849L87.8051 28.6171C88.1885 28.2866 88.5875 27.9686 88.9959 27.6756L89.2796 28.0684C88.8837 28.3552 88.494 28.6638 88.123 28.9849ZM106.107 26.3695C105.661 26.1668 105.2 25.9829 104.735 25.8208L104.897 25.3626C105.374 25.5309 105.848 25.7179 106.306 25.9268L106.107 26.3695ZM90.5109 27.2579L90.2615 26.8402C90.6948 26.5814 91.1437 26.3383 91.5989 26.1201L91.8108 26.5565C91.3713 26.7685 90.9317 27.0054 90.5109 27.2579ZM103.323 25.3937C102.846 25.2722 102.363 25.1724 101.877 25.0914L101.955 24.6113C102.453 24.6923 102.952 24.7952 103.442 24.9199L103.323 25.3906V25.3937ZM93.1637 25.9736L92.9923 25.5184C93.463 25.3407 93.9493 25.1786 94.4356 25.0446L94.5665 25.5122C94.0958 25.6462 93.622 25.799 93.1637 25.9736ZM100.412 24.9199C99.9221 24.8856 99.4264 24.87 98.937 24.8763L98.9308 24.39C99.4358 24.3837 99.9439 24.3962 100.449 24.4336L100.415 24.9168L100.412 24.9199ZM96.0005 25.1755L95.9101 24.6986C96.4058 24.6051 96.9139 24.5302 97.4127 24.4804L97.4625 24.9635C96.9762 25.0134 96.4837 25.0851 96.0005 25.1755Z" fill="#3F5A9F"/>
<path d="M116.36 39.3095L115.879 39.3781C115.845 39.1412 115.808 38.9043 115.764 38.6674L116.241 38.5801C116.285 38.8201 116.325 39.0633 116.36 39.3095Z" fill="#3F5A9F"/>
<path d="M83.7715 41.4324L82.0071 42.2772L80.1772 41.5914L82.1599 45.7748L83.7715 41.4324Z" fill="#3F5A9F"/>
<path d="M67.2024 65.4826C67.1307 64.3759 67.5827 63.076 67.8758 63.2038C68.1719 63.3316 67.8945 64.3666 68.1002 64.6783C68.3714 65.0867 68.6052 65.4701 68.4026 66.4365L67.1993 65.4826H67.2024Z" fill="#FCB47E"/>
<path d="M57.2269 142.73L56.3447 135.597H61.5725L61.8032 142.73H57.2269Z" fill="#FCB47E"/>
<path d="M61.7031 139.647C59.7267 140.164 56.7933 139.223 56.7933 139.223L56.5845 137.53L61.647 137.957L61.7031 139.647Z" fill="#FCA377"/>
<path d="M32.2915 142.73L32.7747 135.597H38.0024L36.8677 142.73H32.2915Z" fill="#FCB47E"/>
<path d="M37.7593 137.122L37.4008 139.373C34.988 139.516 33.2734 138.621 32.6001 138.194L32.7466 136.006L37.7562 137.125L37.7593 137.122Z" fill="#FCA377"/>
<path d="M68.3498 138.26C68.3498 138.26 64.8584 94.4083 55.4285 73.092L46.6626 73.5316C46.6626 73.5316 47.4108 104.406 53.9852 138.26C53.9852 138.26 62.2118 140.211 68.3467 138.26H68.3498Z" fill="#3F5A9F"/>
<path d="M43.5108 138.26C43.5108 138.26 34.8851 139.653 29.9629 136.308C29.9629 136.308 32.5814 88.7628 40.6054 73.1731H50.0385C50.0385 73.1731 49.7299 98.8006 43.5077 138.26H43.5108Z" fill="#3F5A9F"/>
<path d="M40.8204 50.6004C41.0511 49.7712 41.4906 48.7113 41.4906 48.7113C41.3379 49.5062 41.3347 50.3853 41.3503 50.8591C43.3984 51.7975 47.6754 53.0226 54.3215 51.3984C54.2374 50.7157 54.1999 50.0673 54.1999 50.0673C54.3184 50.5006 54.4867 50.9371 54.652 51.3143C54.8889 51.255 55.1258 51.1927 55.3689 51.1241C55.1694 50.2793 55.0853 48.8142 55.0853 48.8142C55.3159 49.6964 55.7773 50.5942 55.9706 50.9527C56.3758 50.8311 56.7873 50.7002 57.2082 50.5568C57.2082 50.5568 55.8833 48.5367 55.0167 43.2778C54.3028 38.9541 52.0833 36.9122 48.7134 37.0026C41.7836 37.1897 39.9351 50.0486 39.9351 50.0486C39.9351 50.0486 40.2312 50.2824 40.8266 50.6004H40.8204Z" fill="#374263"/>
<path d="M64.7772 65.8535C64.7772 65.8535 61.9997 53.353 50.9581 52.7046C33.9624 51.7102 28.7378 62.7642 28.7378 62.7642L64.7772 65.8535Z" fill="white"/>
<path d="M47.1797 40.1729C49.0563 39.1005 52.3513 39.0537 53.1026 41.5944C53.7978 43.9386 53.6855 51.0024 50.5495 50.8684C47.2701 50.7281 46.2382 48.2374 45.9452 46.713C45.8392 46.1644 45.303 41.2452 47.1797 40.1729Z" fill="#FCB47E"/>
<path d="M46.0264 46.5886C46.0264 46.5886 44.5613 47.0406 44.287 45.7219C44.0407 44.5342 45.4497 44.0698 45.9049 44.5904L46.0264 46.5886Z" fill="#FCB47E"/>
<path d="M66.3139 80.9102C68.4149 76.7953 70.0578 67.1877 70.0578 67.1877C70.3009 66.8105 71.3203 65.174 71.3858 63.927C71.4138 63.3721 71.1333 63.0448 70.7592 63.2256C70.6251 62.7767 70.357 62.6926 69.9954 62.9575C69.7928 62.5648 69.5465 62.5803 69.3034 62.7705C68.7672 61.8696 67.6948 64.7219 67.7011 65.0773C67.7042 65.3173 67.7759 66.1933 67.8133 66.4521C67.8601 66.795 61.5132 77.6152 61.5132 77.6152L66.317 80.9133L66.3139 80.9102Z" fill="#FCB47E"/>
<path d="M31.6805 137.078L31.3999 137.059C31.4311 136.586 34.6263 89.3363 42.7345 73.9866L42.9839 74.1175C34.9007 89.4173 31.7116 136.604 31.6805 137.078Z" fill="white"/>
<path d="M38.5574 65.5573L35.5835 82.5686C43.3456 84.9003 52.1053 82.8055 59.2689 78.0516L56.3012 61.2741L50.7805 52.8667C50.7805 52.8667 48.0902 55.9372 45.1225 52.7981L37.3947 56.0401L38.5574 65.5573Z" fill="white"/>
<path d="M66.8162 69.2452L65.2482 65.3579C65.2482 65.3579 61.3266 57.3838 58.0971 55.3232L56.0303 69.2764L66.8131 69.2452H66.8162Z" fill="white"/>
<path d="M48.4858 100.038L48.2114 100.013C48.6572 95.2498 49.0282 90.5894 49.315 86.1628L49.5924 86.1815C49.3056 90.6081 48.9346 95.2717 48.4889 100.038H48.4858Z" fill="#47393D"/>
<path d="M56.0798 138.356C56.0206 138.076 50.2036 110.163 48.5483 96.0978L48.8289 96.0635C50.4811 110.116 56.298 138.016 56.3572 138.297L56.0798 138.356Z" fill="white"/>
<path d="M56.4396 61.2521L56.1694 61.2998L59.1307 78.0767L59.4008 78.029L56.4396 61.2521Z" fill="#3F5A9F"/>
<path d="M44.8291 44.3286C44.8291 44.3286 45.3528 44.0262 45.8734 44.5811C45.8734 44.5811 46.0106 43.4713 46.3846 42.773L46.6184 44.0106C46.9988 44.0698 48.2083 44.2693 49.5331 44.2943C49.9072 44.3005 50.9578 44.2943 50.9578 44.2943L51.1978 42.2275L51.6467 44.2538C51.9553 44.2288 52.1953 44.1977 52.4416 44.1634L52.6162 42.9476L52.956 44.0917C53.2864 44.0356 53.5171 43.9857 53.6262 43.9607C53.6948 43.091 53.7228 40.7499 52.1735 39.3939C50.3966 37.8383 46.6372 38.6925 45.7643 40.5566C44.8946 42.4208 44.8291 44.3317 44.8291 44.3317V44.3286Z" fill="#374263"/>
<path d="M48.3391 54.229C49.8947 54.229 50.8205 52.8699 50.8205 52.8699L50.4308 48.3684L46.1476 45.8247L45.0659 52.8013C45.0659 52.8013 46.4064 54.229 48.336 54.229H48.3391Z" fill="#FCB47E"/>
<path d="M50.4064 51.1211L50.4189 50.8468C48.4706 50.7626 47.2237 49.2725 46.5191 48.0381L46.2822 48.1721C47.021 49.4658 48.3334 51.0307 50.4064 51.118V51.1211Z" fill="#374263"/>
<path d="M56.0333 146.084L69.2476 146.134C69.709 146.134 70.0768 145.748 70.0425 145.289C70.0425 145.283 70.0425 145.277 70.0425 145.274C70.0332 145.174 70.0207 145.068 70.0082 144.965C69.9646 144.613 69.8711 144.261 69.7058 144.043C69.0824 143.21 67.8666 142.827 65.7032 141.957C64.344 141.411 63.1906 140.688 62.6856 140.352C62.5204 140.242 62.3084 140.267 62.1619 140.405C59.5403 142.951 57.9348 142.4 57.461 141.343C57.0963 140.539 56.5757 140.704 56.4323 140.938C55.9896 141.673 55.7402 143.831 55.6374 144.912C55.6249 145.028 55.6155 145.137 55.6093 145.221C55.5937 145.423 55.5844 145.545 55.5844 145.545C55.5345 145.826 55.7496 146.087 56.0333 146.087V146.084Z" fill="#374263"/>
<path d="M64.9486 143.338C65.89 142.886 65.7528 141.917 65.7497 141.907L65.5222 141.942C65.5284 141.976 65.6313 142.755 64.8457 143.132L64.9455 143.338H64.9486Z" fill="white"/>
<path d="M66.1054 143.731C66.9689 143.248 66.8816 142.406 66.8785 142.369L66.6509 142.394C66.654 142.422 66.7226 143.12 65.9932 143.528L66.1054 143.728V143.731Z" fill="white"/>
<path d="M58.648 143.129C59.5333 143.132 60.3345 142.733 60.347 142.727L60.2441 142.521C60.2223 142.53 58.2147 143.531 57.1891 142.244L57.0083 142.387C57.4603 142.954 58.0713 143.126 58.648 143.129Z" fill="white"/>
<path d="M57.2172 145.054L57.2163 145.284L64.916 145.312L64.9169 145.082L57.2172 145.054Z" fill="white"/>
<path d="M65.9047 145.086L65.9038 145.317L67.7243 145.324L67.7252 145.093L65.9047 145.086Z" fill="white"/>
<path d="M31.2847 146.084L44.4991 146.134C44.9604 146.134 45.3283 145.748 45.294 145.289C45.294 145.283 45.294 145.277 45.294 145.274C45.2846 145.174 45.2722 145.068 45.2597 144.965C45.2161 144.613 45.1225 144.261 44.9573 144.043C44.3338 143.21 43.1181 142.827 40.9547 141.957C39.5955 141.411 38.4421 140.688 37.9371 140.352C37.7719 140.242 37.5599 140.267 37.4134 140.405C34.7917 142.951 33.1863 142.4 32.7125 141.343C32.3477 140.539 31.8271 140.704 31.6837 140.938C31.2411 141.673 30.9917 143.831 30.8888 144.912C30.8764 145.028 30.867 145.137 30.8608 145.221C30.8452 145.423 30.8358 145.545 30.8358 145.545C30.786 145.826 31.001 146.087 31.2847 146.087V146.084Z" fill="#374263"/>
<path d="M40.2 143.338C41.1415 142.886 41.0043 141.917 41.0012 141.907L40.7736 141.942C40.7799 141.976 40.8827 142.755 40.0972 143.132L40.1969 143.338H40.2Z" fill="white"/>
<path d="M41.3598 143.731C42.2233 143.248 42.136 142.406 42.1329 142.369L41.9053 142.394C41.9084 142.422 41.977 143.12 41.2476 143.528L41.3598 143.728V143.731Z" fill="white"/>
<path d="M33.9029 143.129C34.7882 143.132 35.5894 142.733 35.6018 142.727L35.499 142.521C35.4771 142.53 33.4696 143.531 32.444 142.244L32.2632 142.387C32.7152 142.954 33.3262 143.126 33.9029 143.129Z" fill="white"/>
<path d="M32.4715 145.057L32.4707 145.287L40.1704 145.316L40.1713 145.085L32.4715 145.057Z" fill="white"/>
<path d="M41.1595 145.083L41.1587 145.314L42.9792 145.32L42.98 145.09L41.1595 145.083Z" fill="white"/>
<path d="M39.1366 101.659L83.2748 94.689C84.182 94.5457 84.8086 93.6853 84.6652 92.775L80.1793 64.3668C80.0359 63.4597 79.1756 62.8331 78.2653 62.9765L34.1271 69.9468C33.2199 70.0902 32.5934 70.9506 32.7368 71.8609L37.2226 100.269C37.366 101.176 38.2264 101.803 39.1366 101.659Z" fill="#6D92F0"/>
<path d="M47.4735 87.7082L39.5261 88.9627C39.2795 89.0016 39.1111 89.2331 39.1501 89.4797L39.3916 91.0101C39.4306 91.2566 39.662 91.425 39.9086 91.3861L47.856 90.1316C48.1026 90.0927 48.2709 89.8612 48.232 89.6146L47.9905 88.0843C47.9515 87.8377 47.7201 87.6693 47.4735 87.7082Z" fill="white"/>
<path d="M57.9789 86.0508L50.0314 87.3053C49.7849 87.3442 49.6165 87.5756 49.6554 87.8222L49.897 89.3526C49.9359 89.5992 50.1674 89.7675 50.414 89.7286L58.3614 88.4741C58.608 88.4352 58.7763 88.2037 58.7374 87.9571L58.4958 86.4268C58.4569 86.1802 58.2254 86.0119 57.9789 86.0508Z" fill="white"/>
<path d="M68.4803 84.3931L60.5329 85.6475C60.2863 85.6865 60.118 85.9179 60.1569 86.1645L60.3985 87.6949C60.4374 87.9414 60.6688 88.1098 60.9154 88.0709L68.8628 86.8164C69.1094 86.7775 69.2778 86.546 69.2389 86.2994L68.9973 84.7691C68.9584 84.5225 68.7269 84.3541 68.4803 84.3931Z" fill="white"/>
<path d="M78.9857 82.7349L71.0383 83.9893C70.7917 84.0283 70.6233 84.2597 70.6623 84.5063L70.9038 86.0367C70.9428 86.2832 71.1742 86.4516 71.4208 86.4127L79.3682 85.1582C79.6148 85.1193 79.7831 84.8878 79.7442 84.6412L79.5027 83.1109C79.4637 82.8643 79.2323 82.6959 78.9857 82.7349Z" fill="white"/>
<path d="M79.6376 87.4894L69.1837 89.1396C68.8827 89.1871 68.6772 89.4696 68.7247 89.7706L68.9352 91.1039C68.9827 91.4049 69.2652 91.6104 69.5662 91.5629L80.0201 89.9128C80.3211 89.8653 80.5266 89.5827 80.4791 89.2817L80.2686 87.9484C80.2211 87.6474 79.9386 87.4419 79.6376 87.4894Z" fill="white"/>
<path d="M39.5174 78.6875L39.0155 75.5078C38.9064 74.8126 39.3834 74.158 40.0786 74.0489L46.2571 73.0732C46.9523 72.9641 47.6069 73.441 47.716 74.1362L48.2179 77.3158C48.327 78.011 47.85 78.6656 47.1549 78.7747L40.9763 79.7505C40.2812 79.8596 39.6265 79.3826 39.5174 78.6875ZM40.1315 74.3856C39.6234 74.4666 39.2743 74.9436 39.3553 75.4548L39.8572 78.6345C39.9383 79.1426 40.4152 79.4917 40.9265 79.4107L47.105 78.435C47.6131 78.3539 47.9623 77.877 47.8812 77.3657L47.3793 74.186C47.2983 73.6779 46.8213 73.3288 46.3101 73.4098L40.1315 74.3856Z" fill="white"/>
<path d="M80.6649 66.4392L80.3569 66.4878L81.4311 73.2928L81.739 73.2442L80.6649 66.4392Z" fill="#2E4882"/>
<path d="M58.274 98.7941L58.2241 98.4855L83.25 94.5359C83.649 94.4735 83.9982 94.2584 84.2382 93.928C84.4782 93.6007 84.5749 93.1985 84.5125 92.7995L82.3366 79.0272L82.6453 78.9773L84.8211 92.7496C84.896 93.2297 84.7806 93.7129 84.4938 94.1088C84.207 94.5047 83.7831 94.7634 83.303 94.8414L58.2771 98.791L58.274 98.7941Z" fill="#2E4882"/>
<path d="M53.9195 99.1689L44.6514 100.634L44.7 100.941L53.9682 99.4768L53.9195 99.1689Z" fill="#2E4882"/>
<path d="M71.043 63.2007C71.2363 63.2599 71.3329 63.475 71.2487 63.6589C71.0929 63.9894 70.8404 64.3323 70.6596 64.3448C70.3447 64.3666 70.5037 63.8242 70.6253 63.422C70.6783 63.2443 70.8653 63.1446 71.043 63.2007Z" fill="#FCB47E"/>
<path d="M70.501 63.1914C70.6319 63.2787 70.6849 63.4439 70.6288 63.5904C70.4885 63.9582 70.1924 64.4851 69.8931 64.4383C69.703 64.4071 69.8277 63.8367 69.9524 63.3691C70.0116 63.1446 70.3077 63.0573 70.501 63.1914Z" fill="#FCB47E"/>
<path d="M69.7155 62.9979C69.8963 63.0353 70.0116 63.2099 69.9774 63.3907C69.8994 63.7772 69.703 64.2885 69.3009 64.435C68.9549 64.5597 69.1513 63.7398 69.276 63.2379C69.3196 63.0602 69.4942 62.9511 69.6719 62.9885L69.7186 62.9979H69.7155Z" fill="#FCB47E"/>
<path d="M69.0728 62.5646C69.4001 62.6207 69.4469 62.948 69.3627 63.1631C69.2069 63.5559 68.9388 64.0048 68.6925 64.064C68.4275 64.1295 68.574 63.4686 68.6613 62.9668C68.6987 62.7392 68.8733 62.5272 69.0759 62.5646H69.0728Z" fill="#FCB47E"/>
<path d="M35.4491 80.3709C35.4491 80.3709 30.2837 72.8083 38.2796 67.4153L42.859 54.5377V54.4504C37.4972 54.4223 31.7332 57.7049 28.6128 62.3029C23.3944 69.9902 23.9181 79.1864 32.6559 83.9247L35.4491 80.3678V80.3709Z" fill="white"/>
<path d="M38.068 69.03L37.7905 68.9739L38.573 65.0149L38.8473 65.0679L38.068 69.03Z" fill="#3F5A9F"/>
<path d="M34.5643 84.0524C30.7986 82.0105 28.3421 79.0117 27.4599 75.3831C26.453 71.2433 27.5223 66.5704 30.4713 62.2249L30.7051 62.3838C27.7997 66.6639 26.746 71.2557 27.7342 75.3145C28.5977 78.862 31.0074 81.7985 34.6983 83.803L34.5643 84.0524Z" fill="#3F5A9F"/>
<path d="M34.9601 80.9944C35.2219 81.2032 36.0387 81.9078 36.3691 81.9639C36.6746 82.0169 38.3704 82.0886 38.3206 82.4439C38.2707 82.818 37.1142 82.5281 37.1266 82.8305C37.1329 83.0175 39.3898 83.6254 39.1622 84.0213C39.0126 84.28 37.6971 83.7252 37.6722 83.8904C37.6472 84.04 39.4116 84.386 39.209 84.7819C38.997 85.1965 37.3012 84.1522 37.2139 84.3486C37.1703 84.4453 39.2308 85.1872 39.0594 85.5052C38.8287 85.9291 37.2451 84.8817 37.1235 85.0687C37.0643 85.1591 37.6877 85.4303 38.04 85.6392C38.2364 85.7545 38.1741 85.9291 38.0182 85.9229C36.4252 85.8512 34.427 83.9153 34.1745 83.8249C33.7942 83.6909 33.4264 83.5475 33.0679 83.401L34.957 81.0006L34.9601 80.9944Z" fill="#FCB47E"/>
<path d="M35.0127 70.947L34.7695 70.8036C35.527 69.5006 36.6805 68.3222 38.2017 67.2966L38.3607 67.5304C36.8768 68.5311 35.7515 69.6783 35.0158 70.9439L35.0127 70.947Z" fill="#3F5A9F"/>
<path d="M203.345 55.1672C203.345 55.2763 203.352 55.3823 203.355 55.4914C203.744 68.7494 202.382 79.0833 200.081 87.1353L193.251 91.3843L198.869 90.5145L199.028 90.4896C195.979 99.3397 191.764 105.057 187.784 108.732C185.308 111.027 182.921 112.526 180.96 113.499C180.832 113.564 180.704 113.626 180.576 113.686C180.261 113.838 179.956 113.972 179.663 114.097L175.907 114.293C175.854 114.119 175.807 113.947 175.76 113.77C175.729 113.661 175.698 113.552 175.673 113.439C175.632 113.296 175.595 113.149 175.557 113.006C171.115 95.8919 176.714 82.2443 184.024 72.512C184.043 72.4777 184.068 72.4496 184.096 72.4153C186.64 69.0393 189.392 66.1339 191.995 63.7242L193.657 67.9544L193.897 62.0284C198.429 58.113 202.201 55.8281 203.127 55.2888C203.27 55.2046 203.345 55.1641 203.345 55.1641V55.1672Z" fill="#9AADE5"/>
<path d="M203.479 55.2294L203.355 55.4913L195.636 71.6484L195.499 71.9352L193.395 76.34L193.323 76.4865L186.614 90.5331L186.605 90.5518L175.673 113.442L175.507 113.785L175.249 114.328L174.921 114.346L175.177 113.801L175.557 113.006L186.346 90.4209L186.546 90.0001L203.127 55.2949L203.217 55.1047L203.479 55.2294Z" fill="white"/>
<path d="M202.847 69.8534L193.279 76.4338L193.422 76.6419L202.99 70.0614L202.847 69.8534Z" fill="white"/>
<path d="M202.908 66.6424L195.408 71.8008L195.551 72.0088L203.051 66.8505L202.908 66.6424Z" fill="white"/>
<path d="M184.267 72.3872L184.017 72.4197L186.371 90.5757L186.622 90.5432L184.267 72.3872Z" fill="white"/>
<path d="M174.398 117.23C174.398 117.23 183.304 121.439 195.976 113.882L191.867 111.931L198.576 112.199C203.523 108.739 208.95 103.464 214.587 95.5305L213.018 94.7886L215.051 94.8696C216.002 93.5136 216.956 92.0796 217.916 90.5646C217.916 90.5646 214.194 90.2342 208.876 90.8483L206.145 94.5454L206.918 91.1101C196.042 92.7623 180.206 98.4608 174.398 117.227V117.23Z" fill="#BAC8F3"/>
<path d="M217.843 90.4233L173.651 116.258L173.794 116.502L217.986 90.6682L217.843 90.4233Z" fill="white"/>
<path d="M206.44 97.2713L206.413 97.5349L212.739 98.1875L212.766 97.9239L206.44 97.2713Z" fill="white"/>
<path d="M203.393 98.9679L203.347 99.2288L210.725 100.543L210.771 100.282L203.393 98.9679Z" fill="white"/>
<path d="M184.81 100.986L184.588 100.737C188.298 97.4384 192.815 94.8697 198.012 93.0959L198.121 93.4139C192.965 95.1721 188.488 97.7221 184.813 100.989L184.81 100.986Z" fill="#2E4882"/>
<path d="M96.3054 79.8816C96.321 79.9876 96.3366 80.0936 96.3491 80.2027C98.1789 93.3391 101.246 103.299 104.862 110.855L112.307 113.901L106.621 113.982H106.459C110.941 122.199 116.051 127.134 120.593 130.095C123.417 131.944 126.023 133.026 128.115 133.655C128.252 133.699 128.389 133.74 128.523 133.777C128.86 133.874 129.184 133.958 129.489 134.03L133.227 133.596C133.249 133.415 133.268 133.238 133.283 133.057C133.296 132.945 133.308 132.829 133.314 132.717C133.333 132.568 133.342 132.418 133.355 132.268C134.876 114.655 127.077 102.13 118.242 93.7599C118.217 93.7319 118.189 93.7038 118.155 93.6758C115.081 90.7704 111.886 88.367 108.915 86.428L107.983 90.8764L106.758 85.0751C101.633 81.9733 97.5337 80.3492 96.5299 79.972C96.374 79.9128 96.293 79.8847 96.293 79.8847L96.3054 79.8816Z" fill="#9AADE5"/>
<path d="M96.1841 79.9657L96.3493 80.2026L106.658 94.8447L106.842 95.1034L109.651 99.0967L109.748 99.2308L118.707 111.956L118.719 111.974L133.321 132.714L133.542 133.026L133.888 133.518L134.215 133.481L133.869 132.988L133.364 132.268L118.953 111.8L118.685 111.42L96.5426 79.9688L96.421 79.7974L96.1841 79.9657Z" fill="white"/>
<path d="M99.2464 94.2568L99.1401 94.4858L109.673 99.3749L109.779 99.1459L99.2464 94.2568Z" fill="white"/>
<path d="M98.6473 91.1147L98.541 91.3438L106.797 95.1763L106.904 94.9472L98.6473 91.1147Z" fill="white"/>
<path d="M118.25 93.6689L117.998 93.6787L118.71 111.973L118.962 111.963L118.25 93.6689Z" fill="white"/>
<path d="M135.213 136.237C135.213 136.237 127.132 141.873 113.379 136.542L117.104 133.933L110.536 135.32C105.081 132.736 98.849 128.443 91.9659 121.56L93.3874 120.566L91.3955 120.984C90.2327 119.805 89.0512 118.552 87.8511 117.218C87.8511 117.218 91.4641 116.27 96.8134 115.99L100.124 119.179L98.7867 115.921C109.788 115.731 126.353 118.705 135.213 136.237Z" fill="#BAC8F3"/>
<path d="M87.8995 117.085L87.7993 117.35L135.687 135.436L135.788 135.171L87.8995 117.085Z" fill="white"/>
<path d="M100.297 121.906L94.1689 123.605L94.2398 123.86L100.368 122.161L100.297 121.906Z" fill="white"/>
<path d="M103.566 123.081L96.5112 125.61L96.6006 125.859L103.655 123.331L103.566 123.081Z" fill="white"/>
<path d="M122.232 121.959L122.41 121.676C118.201 119.045 113.32 117.265 107.899 116.382L107.846 116.713C113.223 117.586 118.061 119.35 122.232 121.959Z" fill="#2E4882"/>
<path d="M136.987 144.404H127.974C125.041 144.404 122.628 142.122 122.507 139.229L117.422 50.5348C117.294 47.4674 119.779 44.9143 122.89 44.9143H133.283L136.987 144.404Z" fill="#446BD0"/>
<path d="M181.502 50.5348L178.84 139.229C178.719 142.122 176.309 144.404 173.372 144.404H133.524C130.59 144.404 127.133 142.122 127.011 139.229L124.352 50.5348C124.225 47.4674 126.709 44.9143 129.82 44.9143H176.038C179.149 44.9143 181.633 47.4674 181.505 50.5348H181.502Z" fill="#DCE8FF"/>
<path d="M135.353 51.0461H133.217C132.921 51.0461 132.656 51.1646 132.466 51.361C132.27 51.5574 132.151 51.8192 132.151 52.1154C132.151 52.7046 132.628 53.1815 133.217 53.1815H172.337C172.633 53.1815 172.898 53.0631 173.088 52.8667C173.284 52.6765 173.403 52.4115 173.403 52.1154C173.403 51.5262 172.926 51.0461 172.337 51.0461H135.35H135.353Z" fill="#3F5A9F"/>
<path d="M171.901 85.9541H133.954C133.23 85.9541 132.635 85.3805 132.607 84.6573L131.665 59.968C131.637 59.2043 132.248 58.5684 133.012 58.5684H172.842C173.606 58.5684 174.22 59.2043 174.189 59.968L173.247 84.6573C173.219 85.3805 172.624 85.9541 171.901 85.9541Z" fill="white"/>
<path d="M143.412 96.2224H137.545C136.514 96.2224 135.678 97.0584 135.678 98.0897V100.758C135.678 101.789 136.514 102.625 137.545 102.625H143.412C144.443 102.625 145.279 101.789 145.279 100.758V98.0897C145.279 97.0584 144.443 96.2224 143.412 96.2224Z" fill="#647CE2"/>
<path d="M143.412 106.668H137.545C136.514 106.668 135.678 107.504 135.678 108.536V111.204C135.678 112.235 136.514 113.071 137.545 113.071H143.412C144.443 113.071 145.279 112.235 145.279 111.204V108.536C145.279 107.504 144.443 106.668 143.412 106.668Z" fill="#647CE2"/>
<path d="M137.545 117.118H143.412C144.444 117.118 145.279 117.953 145.279 118.985V121.654C145.279 122.685 144.444 123.521 143.412 123.521H137.545C136.513 123.521 135.678 122.685 135.678 121.654V118.985C135.678 117.953 136.513 117.118 137.545 117.118Z" fill="#647CE2"/>
<path d="M143.412 127.564H137.545C136.514 127.564 135.678 128.4 135.678 129.431V132.1C135.678 133.131 136.514 133.967 137.545 133.967H143.412C144.443 133.967 145.279 133.131 145.279 132.1V129.431C145.279 128.4 144.443 127.564 143.412 127.564Z" fill="#3F5A9F"/>
<path d="M155.6 96.2224H149.733C148.702 96.2224 147.866 97.0584 147.866 98.0897V100.758C147.866 101.789 148.702 102.625 149.733 102.625H155.6C156.632 102.625 157.468 101.789 157.468 100.758V98.0897C157.468 97.0584 156.632 96.2224 155.6 96.2224Z" fill="#647CE2"/>
<path d="M155.6 106.668H149.733C148.702 106.668 147.866 107.504 147.866 108.536V111.204C147.866 112.235 148.702 113.071 149.733 113.071H155.6C156.632 113.071 157.468 112.235 157.468 111.204V108.536C157.468 107.504 156.632 106.668 155.6 106.668Z" fill="#647CE2"/>
<path d="M149.733 117.118H155.6C156.632 117.118 157.468 117.953 157.468 118.985V121.654C157.468 122.685 156.632 123.521 155.6 123.521H149.733C148.702 123.521 147.866 122.685 147.866 121.654V118.985C147.866 117.953 148.702 117.118 149.733 117.118Z" fill="#647CE2"/>
<path d="M155.6 127.564H149.733C148.702 127.564 147.866 128.4 147.866 129.431V132.1C147.866 133.131 148.702 133.967 149.733 133.967H155.6C156.632 133.967 157.468 133.131 157.468 132.1V129.431C157.468 128.4 156.632 127.564 155.6 127.564Z" fill="#647CE2"/>
<path d="M167.786 96.2224H161.919C160.888 96.2224 160.052 97.0584 160.052 98.0897V100.758C160.052 101.789 160.888 102.625 161.919 102.625H167.786C168.817 102.625 169.653 101.789 169.653 100.758V98.0897C169.653 97.0584 168.817 96.2224 167.786 96.2224Z" fill="#647CE2"/>
<path d="M167.786 106.668H161.919C160.888 106.668 160.052 107.504 160.052 108.536V111.204C160.052 112.235 160.888 113.071 161.919 113.071H167.786C168.817 113.071 169.653 112.235 169.653 111.204V108.536C169.653 107.504 168.817 106.668 167.786 106.668Z" fill="#647CE2"/>
<path d="M161.919 117.118H167.786C168.818 117.118 169.653 117.953 169.653 118.985V121.654C169.653 122.685 168.818 123.521 167.786 123.521H161.919C160.887 123.521 160.052 122.685 160.052 121.654V118.985C160.052 117.953 160.887 117.118 161.919 117.118Z" fill="#647CE2"/>
<path d="M167.786 127.564H161.919C160.888 127.564 160.052 128.4 160.052 129.431V132.1C160.052 133.131 160.888 133.967 161.919 133.967H167.786C168.817 133.967 169.653 133.131 169.653 132.1V129.431C169.653 128.4 168.817 127.564 167.786 127.564Z" fill="#3F5A9F"/>
<path d="M145.151 96.2224H139.284C138.253 96.2224 137.417 97.0584 137.417 98.0897V100.758C137.417 101.789 138.253 102.625 139.284 102.625H145.151C146.182 102.625 147.018 101.789 147.018 100.758V98.0897C147.018 97.0584 146.182 96.2224 145.151 96.2224Z" fill="#6D92F0"/>
<path d="M145.151 106.668H139.284C138.253 106.668 137.417 107.504 137.417 108.536V111.204C137.417 112.235 138.253 113.071 139.284 113.071H145.151C146.182 113.071 147.018 112.235 147.018 111.204V108.536C147.018 107.504 146.182 106.668 145.151 106.668Z" fill="#6D92F0"/>
<path d="M139.284 117.118H145.151C146.183 117.118 147.018 117.953 147.018 118.985V121.654C147.018 122.685 146.183 123.521 145.151 123.521H139.284C138.252 123.521 137.417 122.685 137.417 121.654V118.985C137.417 117.953 138.252 117.118 139.284 117.118Z" fill="#6D92F0"/>
<path d="M145.151 127.564H139.284C138.253 127.564 137.417 128.4 137.417 129.431V132.1C137.417 133.131 138.253 133.967 139.284 133.967H145.151C146.182 133.967 147.018 133.131 147.018 132.1V129.431C147.018 128.4 146.182 127.564 145.151 127.564Z" fill="#3F5A9F"/>
<path d="M151.473 96.2224H157.34C158.372 96.2224 159.207 97.0579 159.207 98.0897V100.758C159.207 101.79 158.372 102.625 157.34 102.625H151.473C150.441 102.625 149.606 101.79 149.606 100.758V98.0897C149.606 97.0579 150.441 96.2224 151.473 96.2224Z" fill="#6D92F0"/>
<path d="M157.34 106.668H151.473C150.442 106.668 149.606 107.504 149.606 108.536V111.204C149.606 112.235 150.442 113.071 151.473 113.071H157.34C158.371 113.071 159.207 112.235 159.207 111.204V108.536C159.207 107.504 158.371 106.668 157.34 106.668Z" fill="#6D92F0"/>
<path d="M151.473 117.118H157.34C158.372 117.118 159.207 117.953 159.207 118.985V121.654C159.207 122.685 158.372 123.521 157.34 123.521H151.473C150.441 123.521 149.606 122.685 149.606 121.654V118.985C149.606 117.953 150.441 117.118 151.473 117.118Z" fill="#6D92F0"/>
<path d="M157.34 127.564H151.473C150.442 127.564 149.606 128.4 149.606 129.431V132.1C149.606 133.131 150.442 133.967 151.473 133.967H157.34C158.371 133.967 159.207 133.131 159.207 132.1V129.431C159.207 128.4 158.371 127.564 157.34 127.564Z" fill="#6D92F0"/>
<path d="M163.662 96.2224H169.529C170.56 96.2224 171.396 97.0579 171.396 98.0897V100.758C171.396 101.79 170.56 102.625 169.529 102.625H163.662C162.63 102.625 161.794 101.79 161.794 100.758V98.0897C161.794 97.0579 162.63 96.2224 163.662 96.2224Z" fill="#6D92F0"/>
<path d="M163.662 106.668H169.529C170.56 106.668 171.396 107.504 171.396 108.536V111.204C171.396 112.236 170.56 113.071 169.529 113.071H163.662C162.63 113.071 161.794 112.236 161.794 111.204V108.536C161.794 107.504 162.63 106.668 163.662 106.668Z" fill="#6D92F0"/>
<path d="M163.662 117.118H169.529C170.56 117.118 171.396 117.953 171.396 118.985V121.654C171.396 122.685 170.56 123.521 169.529 123.521H163.662C162.63 123.521 161.794 122.685 161.794 121.654V118.985C161.794 117.953 162.63 117.118 163.662 117.118Z" fill="#6D92F0"/>
<path d="M163.662 127.564H169.529C170.56 127.564 171.396 128.4 171.396 129.431V132.1C171.396 133.132 170.56 133.967 169.529 133.967H163.662C162.63 133.967 161.794 133.132 161.794 132.1V129.431C161.794 128.4 162.63 127.564 163.662 127.564Z" fill="#3F5A9F"/>
<path d="M145.154 102.8H139.287C138.162 102.8 137.245 101.883 137.245 100.758V98.0897C137.245 96.9644 138.162 96.0479 139.287 96.0479H145.154C146.279 96.0479 147.196 96.9644 147.196 98.0897V100.758C147.196 101.883 146.279 102.8 145.154 102.8ZM139.287 96.397C138.355 96.397 137.594 97.1576 137.594 98.0897V100.758C137.594 101.69 138.355 102.451 139.287 102.451H145.154C146.086 102.451 146.846 101.69 146.846 100.758V98.0897C146.846 97.1576 146.086 96.397 145.154 96.397H139.287Z" fill="white"/>
<path d="M145.154 113.246H139.287C138.162 113.246 137.245 112.33 137.245 111.204V108.536C137.245 107.411 138.162 106.494 139.287 106.494H145.154C146.279 106.494 147.196 107.411 147.196 108.536V111.204C147.196 112.33 146.279 113.246 145.154 113.246ZM139.287 106.843C138.355 106.843 137.594 107.604 137.594 108.536V111.204C137.594 112.137 138.355 112.897 139.287 112.897H145.154C146.086 112.897 146.846 112.137 146.846 111.204V108.536C146.846 107.604 146.086 106.843 145.154 106.843H139.287Z" fill="white"/>
<path d="M145.154 123.692H139.287C138.162 123.692 137.245 122.776 137.245 121.65V118.982C137.245 117.857 138.162 116.94 139.287 116.94H145.154C146.279 116.94 147.196 117.857 147.196 118.982V121.65C147.196 122.776 146.279 123.692 145.154 123.692ZM139.287 117.289C138.355 117.289 137.594 118.05 137.594 118.982V121.65C137.594 122.583 138.355 123.343 139.287 123.343H145.154C146.086 123.343 146.846 122.583 146.846 121.65V118.982C146.846 118.05 146.086 117.289 145.154 117.289H139.287Z" fill="white"/>
<path d="M145.154 134.138H139.287C138.162 134.138 137.245 133.222 137.245 132.097V129.428C137.245 128.303 138.162 127.386 139.287 127.386H145.154C146.279 127.386 147.196 128.303 147.196 129.428V132.097C147.196 133.222 146.279 134.138 145.154 134.138ZM139.287 127.735C138.355 127.735 137.594 128.496 137.594 129.428V132.097C137.594 133.029 138.355 133.789 139.287 133.789H145.154C146.086 133.789 146.846 133.029 146.846 132.097V129.428C146.846 128.496 146.086 127.735 145.154 127.735H139.287Z" fill="white"/>
<path d="M157.343 102.8H151.476C150.351 102.8 149.435 101.883 149.435 100.758V98.0897C149.435 96.9644 150.351 96.0479 151.476 96.0479H157.343C158.469 96.0479 159.385 96.9644 159.385 98.0897V100.758C159.385 101.883 158.469 102.8 157.343 102.8ZM151.476 96.397C150.544 96.397 149.784 97.1576 149.784 98.0897V100.758C149.784 101.69 150.544 102.451 151.476 102.451H157.343C158.275 102.451 159.036 101.69 159.036 100.758V98.0897C159.036 97.1576 158.275 96.397 157.343 96.397H151.476Z" fill="white"/>
<path d="M157.343 113.246H151.476C150.351 113.246 149.435 112.33 149.435 111.204V108.536C149.435 107.411 150.351 106.494 151.476 106.494H157.343C158.469 106.494 159.385 107.411 159.385 108.536V111.204C159.385 112.33 158.469 113.246 157.343 113.246ZM151.476 106.843C150.544 106.843 149.784 107.604 149.784 108.536V111.204C149.784 112.137 150.544 112.897 151.476 112.897H157.343C158.275 112.897 159.036 112.137 159.036 111.204V108.536C159.036 107.604 158.275 106.843 157.343 106.843H151.476Z" fill="white"/>
<path d="M157.343 123.692H151.476C150.351 123.692 149.435 122.776 149.435 121.65V118.982C149.435 117.857 150.351 116.94 151.476 116.94H157.343C158.469 116.94 159.385 117.857 159.385 118.982V121.65C159.385 122.776 158.469 123.692 157.343 123.692ZM151.476 117.289C150.544 117.289 149.784 118.05 149.784 118.982V121.65C149.784 122.583 150.544 123.343 151.476 123.343H157.343C158.275 123.343 159.036 122.583 159.036 121.65V118.982C159.036 118.05 158.275 117.289 157.343 117.289H151.476Z" fill="white"/>
<path d="M157.343 134.138H151.476C150.351 134.138 149.435 133.222 149.435 132.097V129.428C149.435 128.303 150.351 127.386 151.476 127.386H157.343C158.469 127.386 159.385 128.303 159.385 129.428V132.097C159.385 133.222 158.469 134.138 157.343 134.138ZM151.476 127.735C150.544 127.735 149.784 128.496 149.784 129.428V132.097C149.784 133.029 150.544 133.789 151.476 133.789H157.343C158.275 133.789 159.036 133.029 159.036 132.097V129.428C159.036 128.496 158.275 127.735 157.343 127.735H151.476Z" fill="white"/>
<path d="M169.528 102.8H163.661C162.536 102.8 161.62 101.883 161.62 100.758V98.0897C161.62 96.9644 162.536 96.0479 163.661 96.0479H169.528C170.654 96.0479 171.57 96.9644 171.57 98.0897V100.758C171.57 101.883 170.654 102.8 169.528 102.8ZM163.661 96.397C162.729 96.397 161.969 97.1576 161.969 98.0897V100.758C161.969 101.69 162.729 102.451 163.661 102.451H169.528C170.46 102.451 171.221 101.69 171.221 100.758V98.0897C171.221 97.1576 170.46 96.397 169.528 96.397H163.661Z" fill="white"/>
<path d="M169.528 113.246H163.661C162.536 113.246 161.62 112.33 161.62 111.204V108.536C161.62 107.411 162.536 106.494 163.661 106.494H169.528C170.654 106.494 171.57 107.411 171.57 108.536V111.204C171.57 112.33 170.654 113.246 169.528 113.246ZM163.661 106.843C162.729 106.843 161.969 107.604 161.969 108.536V111.204C161.969 112.137 162.729 112.897 163.661 112.897H169.528C170.46 112.897 171.221 112.137 171.221 111.204V108.536C171.221 107.604 170.46 106.843 169.528 106.843H163.661Z" fill="white"/>
<path d="M169.528 123.692H163.661C162.536 123.692 161.62 122.776 161.62 121.65V118.982C161.62 117.857 162.536 116.94 163.661 116.94H169.528C170.654 116.94 171.57 117.857 171.57 118.982V121.65C171.57 122.776 170.654 123.692 169.528 123.692ZM163.661 117.289C162.729 117.289 161.969 118.05 161.969 118.982V121.65C161.969 122.583 162.729 123.343 163.661 123.343H169.528C170.46 123.343 171.221 122.583 171.221 121.65V118.982C171.221 118.05 170.46 117.289 169.528 117.289H163.661Z" fill="white"/>
<path d="M169.528 134.138H163.661C162.536 134.138 161.62 133.222 161.62 132.097V129.428C161.62 128.303 162.536 127.386 163.661 127.386H169.528C170.654 127.386 171.57 128.303 171.57 129.428V132.097C171.57 133.222 170.654 134.138 169.528 134.138ZM163.661 127.735C162.729 127.735 161.969 128.496 161.969 129.428V132.097C161.969 133.029 162.729 133.789 163.661 133.789H169.528C170.46 133.789 171.221 133.029 171.221 132.097V129.428C171.221 128.496 170.46 127.735 169.528 127.735H163.661Z" fill="white"/>
<path d="M168.531 144.638H133.521C130.506 144.638 126.902 142.278 126.775 139.238L124.116 50.5412C124.05 49.0106 124.605 47.5548 125.671 46.442C126.759 45.3072 128.23 44.6807 129.814 44.6807H176.031C177.615 44.6807 179.086 45.3041 180.174 46.442C181.244 47.5548 181.795 49.0137 181.73 50.5444L181.587 55.3824L181.119 55.37L181.265 50.5288C181.325 49.1229 180.817 47.7855 179.838 46.7662C178.837 45.725 177.487 45.1514 176.031 45.1514H129.814C128.358 45.1514 127.008 45.725 126.008 46.7662C125.029 47.7855 124.521 49.1229 124.58 50.5256L127.239 139.223C127.354 142.01 130.709 144.17 133.517 144.17H168.528V144.638H168.531Z" fill="#3F5A9F"/>
<path d="M180.697 68.9813L179.158 120.553L179.625 120.567L181.165 68.9953L180.697 68.9813Z" fill="#3F5A9F"/>
<path d="M170.189 33.9855V53.1788H135.397V33.9855C135.313 32.6637 134.708 31.4791 133.792 30.625C132.872 29.7708 131.638 29.2502 130.294 29.2502H165.086C166.43 29.2502 167.664 29.774 168.584 30.625C169.504 31.476 170.105 32.6606 170.189 33.9855Z" fill="white"/>
<path d="M135.4 33.9855H125.194C125.278 32.6637 125.883 31.4791 126.802 30.625C127.722 29.7708 128.956 29.2502 130.3 29.2502C131.644 29.2502 132.878 29.774 133.798 30.625C134.714 31.4791 135.319 32.6606 135.403 33.9855H135.4Z" fill="#2E4882"/>
<path d="M170.345 53.3343H135.241V33.9851C135.163 32.7569 134.611 31.6003 133.685 30.7399C132.76 29.8796 131.556 29.4057 130.297 29.4057V29.094H165.089C166.427 29.094 167.708 29.5959 168.69 30.5124C169.675 31.4258 170.261 32.6571 170.345 33.9788V33.9882V53.3374V53.3343ZM135.553 53.0226H170.033V33.9882C169.952 32.7475 169.401 31.5941 168.478 30.7368C167.552 29.8764 166.346 29.4026 165.089 29.4026H132.086C132.75 29.6426 133.367 30.0167 133.897 30.5093C134.882 31.4258 135.469 32.6571 135.553 33.9757V53.0257V53.0226Z" fill="#2E4882"/>
<path d="M172.34 53.3375H133.221C132.548 53.3375 131.999 52.7888 131.999 52.1155C131.999 51.7882 132.127 51.4827 132.358 51.2489C132.585 51.0182 132.891 50.8904 133.221 50.8904H135.356V51.2021H133.221C132.978 51.2021 132.75 51.2956 132.579 51.4702C132.404 51.6448 132.311 51.8723 132.311 52.1155C132.311 52.6174 132.719 53.0258 133.221 53.0258H172.34C172.583 53.0258 172.811 52.9322 172.982 52.7577C173.157 52.5862 173.251 52.3586 173.251 52.1155C173.251 51.6105 172.842 51.2021 172.34 51.2021H170.205V50.8904H172.34C173.014 50.8904 173.562 51.439 173.562 52.1155C173.562 52.4428 173.435 52.7514 173.201 52.979C172.973 53.2097 172.668 53.3375 172.34 53.3375Z" fill="#2E4882"/>
<path d="M173.821 145.754C173.821 146.617 180.155 147.318 187.964 147.318C195.773 147.318 202.107 146.617 202.107 145.754C202.107 145.738 202.104 145.722 202.101 145.707V141.48H173.83V145.697C173.824 145.716 173.821 145.735 173.821 145.754Z" fill="#F49B51"/>
<path d="M187.968 143.082C195.779 143.082 202.111 142.381 202.111 141.517C202.111 140.653 195.779 139.952 187.968 139.952C180.156 139.952 173.824 140.653 173.824 141.517C173.824 142.381 180.156 143.082 187.968 143.082Z" fill="#FCC659"/>
<path d="M170.479 140.653C170.479 141.517 176.813 142.218 184.622 142.218C192.431 142.218 198.766 141.517 198.766 140.653C198.766 140.638 198.762 140.622 198.759 140.607V136.38H170.488V140.597C170.482 140.616 170.479 140.635 170.479 140.653Z" fill="#F49B51"/>
<path d="M184.622 137.982C192.433 137.982 198.766 137.281 198.766 136.417C198.766 135.553 192.433 134.852 184.622 134.852C176.811 134.852 170.479 135.553 170.479 136.417C170.479 137.281 176.811 137.982 184.622 137.982Z" fill="#FCC659"/>
<path d="M173.821 135.553C173.821 136.417 180.155 137.118 187.964 137.118C195.773 137.118 202.107 136.417 202.107 135.553C202.107 135.538 202.104 135.522 202.101 135.507V131.28H173.83V135.497C173.824 135.516 173.821 135.535 173.821 135.553Z" fill="#F49B51"/>
<path d="M187.968 132.882C195.779 132.882 202.111 132.181 202.111 131.317C202.111 130.453 195.779 129.752 187.968 129.752C180.156 129.752 173.824 130.453 173.824 131.317C173.824 132.181 180.156 132.882 187.968 132.882Z" fill="#FCC659"/>
<path d="M187.964 147.483C193.715 147.483 202.276 147.022 202.276 145.753H201.942C201.942 146.239 197.141 147.15 187.964 147.15C187.63 147.15 187.3 147.15 186.973 147.147V147.48C187.297 147.48 187.63 147.483 187.964 147.483Z" fill="#2E4882"/>
<path d="M182.356 147.356L182.371 147.022C180.94 146.954 179.625 146.86 178.468 146.742L178.434 147.075C179.597 147.194 180.915 147.287 182.356 147.356Z" fill="#2E4882"/>
<path d="M193.548 142.006C198.863 141.523 198.863 140.853 198.863 140.632H198.529C198.529 140.794 197.628 141.299 193.52 141.673L193.551 142.006H193.548Z" fill="#2E4882"/>
<path d="M184.551 142.365C186.141 142.365 187.702 142.337 189.192 142.278L189.18 141.944C186.521 142.047 183.578 142.059 180.838 141.975L180.829 142.309C182.041 142.346 183.294 142.365 184.554 142.365H184.551Z" fill="#2E4882"/>
<path d="M177.316 142.143L177.338 141.81C175.829 141.71 174.513 141.582 173.429 141.429L173.382 141.76C174.476 141.916 175.801 142.044 177.316 142.143Z" fill="#2E4882"/>
<path d="M197.476 132.648C202.189 132.168 202.189 131.56 202.189 131.333H201.856C201.856 131.333 201.734 131.878 197.441 132.318L197.476 132.651V132.648Z" fill="#2E4882"/>
<path d="M187.88 133.063C189.508 133.063 191.097 133.032 192.606 132.972L192.594 132.639C191.088 132.698 189.501 132.729 187.88 132.729C184.978 132.729 182.191 132.633 179.819 132.449L179.794 132.782C182.172 132.966 184.969 133.063 187.88 133.063Z" fill="#2E4882"/>
<path d="M168.808 130.451C168.808 131.314 175.143 132.016 182.951 132.016C190.76 132.016 197.095 131.314 197.095 130.451C197.095 130.435 197.092 130.419 197.088 130.404V126.177H168.817V130.394C168.811 130.413 168.808 130.432 168.808 130.451Z" fill="#F49B51"/>
<path d="M182.951 127.782C190.763 127.782 197.095 127.082 197.095 126.217C197.095 125.353 190.763 124.652 182.951 124.652C175.14 124.652 168.808 125.353 168.808 126.217C168.808 127.082 175.14 127.782 182.951 127.782Z" fill="#FCC659"/>
<path d="M171.433 126.217C171.433 126.797 176.592 127.268 182.952 127.268C189.311 127.268 194.47 126.797 194.47 126.217C194.47 125.637 189.311 125.167 182.952 125.167C176.592 125.167 171.433 125.637 171.433 126.217Z" fill="#F49B51"/>
<path d="M166.473 37.6853H158.914V38.6205H166.473V37.6853Z" fill="#E1EAFF"/>
<path d="M155.413 37.6853H140.21V38.6205H155.413V37.6853Z" fill="#E1EAFF"/>
<path d="M166.473 41.7378H148.963V42.673H166.473V41.7378Z" fill="#E1EAFF"/>
<path d="M146.816 41.7378H140.21V42.673H146.816V41.7378Z" fill="#E1EAFF"/>
<path d="M163.21 46.1021H156.046V47.0372H163.21V46.1021Z" fill="#E1EAFF"/>
<path d="M153.025 46.1021H140.21V47.0372H153.025V46.1021Z" fill="#E1EAFF"/>
<path d="M152.49 85.7202H143.01V86.1878H152.49V85.7202Z" fill="#3F5A9F"/>
<path d="M171.901 86.1878H156.168V85.7202H171.901C172.503 85.7202 172.992 85.2495 173.014 84.6479L173.837 63.0386L174.305 63.0573L173.482 84.6666C173.45 85.5207 172.755 86.1878 171.901 86.1878Z" fill="#3F5A9F"/>
<path d="M84.2166 53.2005C79.0231 52.1655 73.9761 55.5353 72.9412 60.7288C71.9062 65.9223 75.2761 70.9692 80.4695 72.0042C85.663 73.0391 90.7099 69.6693 91.7449 64.4758C92.7799 59.2824 89.41 54.2354 84.2166 53.2005ZM89.9119 64.1111C89.5098 66.1311 88.3439 67.8768 86.6262 69.0209C84.9117 70.165 82.8574 70.5764 80.8343 70.1712C76.6633 69.3389 73.9419 65.2676 74.7773 61.0935C75.1794 59.0735 76.3453 57.3278 78.0598 56.1837C79.712 55.0802 81.6884 54.6594 83.6399 54.9929C83.7116 55.0054 83.7801 55.0179 83.8518 55.0335C87.9573 55.8502 90.6507 59.803 89.9493 63.9022C89.9369 63.9708 89.9244 64.0394 89.9119 64.1111Z" fill="#FCC659"/>
<path d="M89.9489 63.9021C89.9365 63.9706 89.924 64.0392 89.9115 64.1109C89.5094 66.1309 88.3435 67.8767 86.6259 69.0207C84.9113 70.1648 82.857 70.5763 80.8339 70.171C76.6629 69.3387 73.9415 65.2674 74.7738 61.0933C75.1759 59.0733 76.3418 57.3276 78.0563 56.1836C79.7085 55.08 81.6849 54.6592 83.6363 54.9927C83.708 55.0052 83.7766 55.0177 83.8483 55.0333C87.9538 55.85 90.6472 59.8028 89.9458 63.9021H89.9489Z" fill="#F49B51"/>
<path d="M80.8651 68.3382L81.1113 66.9074C80.2915 66.7515 79.4841 66.3525 79.0508 65.913L79.5527 65.0214C80.0047 65.4485 80.6967 65.8444 81.4885 65.9784C82.4954 66.1499 83.2748 65.6854 83.4119 64.878C83.546 64.0987 83.0753 63.522 82.0995 62.9172C80.7497 62.1036 79.9704 61.2993 80.1824 60.0649C80.385 58.8896 81.3732 58.1384 82.7136 58.1508L82.9599 56.72L83.839 56.8696L83.6052 58.2443C84.45 58.4189 84.9924 58.7431 85.3634 59.0548L84.849 59.9308C84.5809 59.7095 84.0541 59.298 83.1469 59.1421C82.0559 58.9551 81.5322 59.538 81.4355 60.1023C81.3108 60.838 81.7722 61.2962 82.9163 62.0194C84.2723 62.8642 84.8833 63.7277 84.6682 64.9871C84.478 66.1062 83.5179 67.0227 82.0185 67.0134L81.766 68.4879L80.8744 68.3351L80.8651 68.3382Z" fill="#FCC659"/>
<path d="M89.9616 61.9475C89.9554 61.8821 89.9492 61.8197 89.9429 61.7543C89.6967 59.5659 88.5214 57.5989 86.7134 56.3426L86.8318 56.1711C88.6866 57.4617 89.8962 59.4817 90.1487 61.72C90.158 61.801 90.1643 61.8665 90.1705 61.932L89.9616 61.9507V61.9475Z" fill="#2E4882"/>
<path d="M86.7136 56.3426C85.2609 55.3326 83.4934 54.8588 81.7321 55.0084L81.7134 54.7995C83.5214 54.6437 85.3419 55.13 86.832 56.168L86.7136 56.3395V56.3426Z" fill="#2E4882"/>
<path d="M88.3567 67.6336L88.1978 67.4995C88.8493 66.7264 89.3356 65.8504 89.638 64.8997L89.8375 64.962C89.5257 65.9408 89.0301 66.8386 88.3567 67.6336Z" fill="#2E4882"/>
<path d="M89.6967 56.6264C89.0764 55.8626 88.3438 55.2017 87.5239 54.6656L87.6455 54.4785C88.4872 55.0272 89.2353 55.7036 89.8713 56.4861L89.6967 56.6264Z" fill="#2E4882"/>
<path d="M86.3176 71.4523L86.2241 71.2466C89.0141 69.9903 91.0373 67.4528 91.6327 64.4539C92.0036 62.5929 91.8135 60.6851 91.0809 58.9425L91.2867 58.8552C92.0348 60.6415 92.2312 62.5898 91.8509 64.4976C91.2399 67.565 89.17 70.1649 86.3145 71.4492L86.3176 71.4523Z" fill="#2E4882"/>
<path d="M152.521 81.0148C157.433 80.8192 161.256 76.6792 161.06 71.7678C160.865 66.8564 156.725 63.0334 151.813 63.2289C146.902 63.4245 143.079 67.5645 143.274 72.4759C143.47 77.3873 147.61 81.2103 152.521 81.0148Z" fill="#6D92F0"/>
<path d="M151.838 76.6519L147.754 72.4528L148.203 72.0195L151.663 75.5795L156.115 66.3491L156.676 66.6203L151.838 76.6519Z" fill="white"/>
<path d="M76.1274 57.3712C77.0034 57.817 77.6051 58.4966 78.0165 59.3539C78.428 58.4997 79.0328 57.8139 79.9088 57.3681C79.0328 56.9223 78.428 56.2428 78.0165 55.3855C77.6051 56.2396 77.0034 56.9255 76.1274 57.3712Z" fill="#FFE6A6"/>
<path d="M83.7988 69.5694C84.307 69.8282 84.6561 70.2241 84.8961 70.7197C85.1362 70.2241 85.4853 69.825 85.9934 69.5663C85.4853 69.3076 85.133 68.9117 84.8961 68.416C84.6561 68.9117 84.307 69.3107 83.7988 69.5694Z" fill="#FFE6A6"/>
</g>
<defs>
<clipPath id="clip0_9913_1688">
<rect width="222.44" height="149.884" fill="white" transform="translate(0.560059)"/>
</clipPath>
</defs>
</svg>
