<svg width="118" height="222" viewBox="0 0 118 222" fill="none" xmlns="http://www.w3.org/2000/svg">
<g id="Group">
<path id="Vector" d="M35.6421 35.6421H81.8316V12.5474C81.8316 9.48482 80.615 6.5477 78.4494 4.38215C76.2839 2.21659 73.3467 1 70.2842 1H47.1895C44.1269 1 41.1898 2.21659 39.0242 4.38215C36.8587 6.5477 35.6421 9.48482 35.6421 12.5474V35.6421Z" stroke="#146C94" stroke-width="2" stroke-linecap="round" stroke-linejoin="round"/>
<path id="Vector_2" d="M81.8316 18.321C81.8316 37.0971 87.6861 55.4112 98.5753 70.7115L99.1526 71.5198C110.42 87.3477 116.475 106.294 116.474 125.723V197.305C116.474 203.43 114.04 209.305 109.709 213.636C105.378 217.967 99.5041 220.4 93.379 220.4H24.0947C17.9696 220.4 12.0954 217.967 7.76429 213.636C3.43319 209.305 1 203.43 1 197.305V125.712C1 106.289 7.05082 87.3512 18.3211 71.5198L18.8984 70.7115C29.7896 55.4129 35.6422 37.1004 35.6421 18.321" stroke="#146C94" stroke-width="2" stroke-linecap="round" stroke-linejoin="round"/>
<path id="Vector_3" d="M1 148.841C5.61898 146.855 9.61064 143.649 12.5474 139.568C15.1706 135.914 18.6441 132.953 22.6678 130.941C26.6915 128.929 31.1445 127.927 35.6421 128.021C40.1398 127.927 44.5927 128.929 48.6165 130.941C52.6402 132.953 56.1136 135.914 58.7368 139.568C61.3601 143.223 64.8335 146.184 68.8572 148.196C72.8809 150.208 77.3339 151.21 81.8316 151.116C86.3292 151.21 90.7822 150.208 94.8059 148.196C98.8296 146.184 102.303 143.223 104.926 139.568C107.86 135.479 111.852 132.265 116.474 130.273" stroke="#146C94" stroke-width="2" stroke-linecap="round" stroke-linejoin="round"/>
</g>
</svg>
