<svg width="22" height="22" viewBox="0 0 22 22" fill="none" xmlns="http://www.w3.org/2000/svg">
<g id="Group 86">
<path id="secondary" d="M21.9122 3.98196C21.8297 3.78108 21.6896 3.60912 21.5095 3.48775C21.3294 3.36638 21.1174 3.30104 20.9002 3.29996H18.7002V1.09996C18.6991 0.88279 18.6338 0.670802 18.5124 0.49071C18.3911 0.310618 18.2191 0.17048 18.0182 0.0879581C17.8179 0.00372071 17.5971 -0.0192942 17.3837 0.0218173C17.1703 0.0629288 16.9739 0.166325 16.8192 0.318958L13.5192 3.61896C13.4173 3.72174 13.3366 3.84364 13.2819 3.97766C13.2271 4.11168 13.1994 4.25519 13.2002 4.39996V7.24896L10.7692 9.66896C10.6661 9.77122 10.5843 9.89288 10.5284 10.0269C10.4726 10.161 10.4438 10.3047 10.4438 10.45C10.4438 10.5952 10.4726 10.7389 10.5284 10.873C10.5843 11.007 10.6661 11.1287 10.7692 11.231C10.8715 11.3341 10.9931 11.4159 11.1272 11.4717C11.2612 11.5276 11.405 11.5563 11.5502 11.5563C11.6954 11.5563 11.8392 11.5276 11.9733 11.4717C12.1073 11.4159 12.229 11.3341 12.3312 11.231L14.7512 8.79996H17.6002C17.745 8.80079 17.8885 8.77305 18.0225 8.71831C18.1565 8.66356 18.2784 8.58291 18.3812 8.48096L21.6812 5.18096C21.8339 5.02627 21.9373 4.82984 21.9784 4.61645C22.0195 4.40306 21.9965 4.18228 21.9122 3.98196Z" fill="#AFD3E2"/>
<path id="primary" d="M11 22C8.08262 22 5.28473 20.8411 3.22183 18.7782C1.15893 16.7153 0 13.9174 0 11C0 8.08262 1.15893 5.28473 3.22183 3.22183C5.28473 1.15893 8.08262 0 11 0H11.462C11.6065 0.0130009 11.7469 0.0543269 11.8754 0.121618C12.0039 0.18891 12.1179 0.280849 12.2108 0.392186C12.3038 0.503524 12.3739 0.632079 12.4172 0.770512C12.4604 0.908946 12.476 1.05455 12.463 1.199C12.45 1.34345 12.4087 1.48393 12.3414 1.61242C12.2741 1.7409 12.1822 1.85487 12.0708 1.94782C11.9595 2.04077 11.8309 2.11088 11.6925 2.15415C11.5541 2.19742 11.4085 2.213 11.264 2.2H11C9.25952 2.2 7.55813 2.71611 6.11098 3.68307C4.66383 4.65002 3.53591 6.0244 2.86986 7.63239C2.20381 9.24038 2.02954 11.0098 2.36909 12.7168C2.70864 14.4238 3.54676 15.9918 4.77746 17.2225C6.00816 18.4532 7.57617 19.2914 9.28321 19.6309C10.9902 19.9705 12.7596 19.7962 14.3676 19.1301C15.9756 18.4641 17.35 17.3362 18.3169 15.889C19.2839 14.4419 19.8 12.7405 19.8 11C19.8055 10.9121 19.8055 10.8239 19.8 10.736C19.7864 10.5914 19.8016 10.4456 19.8446 10.3069C19.8876 10.1682 19.9577 10.0395 20.0508 9.928C20.1438 9.81653 20.258 9.7246 20.3868 9.65749C20.5156 9.59038 20.6563 9.54943 20.801 9.537C20.9456 9.5234 21.0914 9.53855 21.2301 9.58159C21.3688 9.62463 21.4975 9.6947 21.609 9.78776C21.7205 9.88081 21.8124 9.99502 21.8795 10.1238C21.9466 10.2526 21.9876 10.3933 22 10.538C22 10.692 22 10.846 22 11C22 13.9174 20.8411 16.7153 18.7782 18.7782C16.7153 20.8411 13.9174 22 11 22ZM17.468 12.32C17.5263 12.0283 17.4664 11.7253 17.3014 11.4777C17.1364 11.2302 16.8797 11.0583 16.588 11C16.2963 10.9417 15.9933 11.0016 15.7457 11.1666C15.4982 11.3317 15.3263 11.5883 15.268 11.88C15.11 12.6614 14.7427 13.3852 14.2053 13.974C13.6679 14.5629 12.9806 14.9946 12.2169 15.2232C11.4532 15.4518 10.6417 15.4686 9.86918 15.2718C9.09665 15.0751 8.39209 14.6721 7.83079 14.106C7.26949 13.5399 6.87254 12.8319 6.68234 12.0578C6.49214 11.2836 6.51585 10.4723 6.75092 9.71052C6.986 8.94877 7.42362 8.26519 8.01702 7.73284C8.61041 7.20048 9.3373 6.83934 10.12 6.688C10.4117 6.62965 10.6683 6.4578 10.8334 6.21025C10.9984 5.96271 11.0583 5.65974 11 5.368C10.9417 5.07626 10.7698 4.81965 10.5223 4.65462C10.2747 4.48959 9.97174 4.42965 9.68 4.488C8.51192 4.72675 7.43032 5.27745 6.55011 6.08159C5.6699 6.88573 5.02394 7.91328 4.68086 9.05508C4.33778 10.1969 4.31039 11.4103 4.6016 12.5664C4.89282 13.7225 5.49175 14.7782 6.33479 15.6212C7.17782 16.4642 8.23347 17.0632 9.38959 17.3544C10.5457 17.6456 11.7591 17.6182 12.9009 17.2751C14.0427 16.9321 15.0703 16.2861 15.8744 15.4059C16.6786 14.5257 17.2292 13.4441 17.468 12.276V12.32Z" fill="#146C94"/>
</g>
</svg>
