<svg width="36" height="37" viewBox="0 0 36 37" fill="none" xmlns="http://www.w3.org/2000/svg">
<path d="M34.2085 27.9525C33.5665 27.4219 32.7219 27.1368 31.8845 26.6928C32.5275 23.354 31.2524 20.6511 28.7036 18.3843C27.4382 17.2581 26.295 15.9928 25.1276 14.7609C24.0654 13.6389 23.0455 12.4766 21.8543 11.1638L18.2521 15.1002C18.4676 15.2642 18.761 15.4379 18.9936 15.672C21.3634 18.0548 23.7204 20.452 26.0887 22.8368C26.9669 23.7212 27.2948 24.7715 26.8849 25.9369C26.4796 27.0888 25.6015 27.9066 24.3629 27.87C23.4719 27.8442 22.5932 27.3925 21.7007 27.1285L18.3624 30.4131C20.6024 32.7299 23.3414 33.3131 26.4729 32.617C26.9133 34.6161 28.2776 35.6788 29.9818 36.4162H32.3806C32.5476 36.3296 32.7095 36.229 32.8833 36.1578C36.3701 34.7337 37.1028 30.3471 34.2085 27.9525Z" fill="#146C94"/>
<path d="M21.3005 19.1625C21.1505 19.3744 20.9782 19.7121 20.722 19.9664C18.3346 22.3342 15.9415 24.6963 13.5324 27.0419C12.3351 28.2078 10.8202 28.2496 9.58727 27.2018C8.39769 26.1901 8.21257 24.5782 9.13918 23.2561C9.2851 23.0483 9.44856 22.8524 9.52333 22.7554L6.0536 19.2527C3.85852 21.3405 3.21243 23.9481 3.75488 26.9533C1.55517 27.5777 0.446027 29.1143 0 31.2191V32.2184C0.483669 34.3259 1.731 35.7413 3.79768 36.4163H5.99636C7.36641 35.8439 8.66324 35.14 9.19538 33.6514C9.463 32.9032 9.81157 32.7284 10.5721 32.829C13.0261 33.1538 15.2041 32.434 16.9506 30.6999C19.618 28.0505 22.2044 25.3192 24.9739 22.4703L21.3005 19.1625ZM10.7536 14.878L14.1244 18.1565C15.6027 16.6668 17.048 15.1957 18.5109 13.7421C19.6907 12.57 20.8679 11.3944 22.0889 10.2656C23.1496 9.28541 24.4253 9.15908 25.5752 9.82735C26.6709 10.4642 27.285 11.7337 26.9555 12.9748C26.7915 13.592 26.3785 14.1432 26.0929 14.696L29.5219 18.1348C31.7711 15.9593 32.4254 13.2893 31.7963 10.2641C34.9015 8.92653 36.1952 7.27649 35.9498 5.00252C35.7142 2.82085 34.158 0.927945 32.1413 0.701579C31.1317 0.588139 30.0076 0.752628 29.0485 1.10171C27.4706 1.67614 26.7431 3.09775 26.3347 4.65807C26.0434 4.63487 25.8423 4.64106 25.6515 4.60032C23.2873 4.10067 21.0226 4.53123 19.305 6.14157C16.3519 8.91158 13.6242 11.9203 10.7536 14.878Z" fill="#146C94"/>
<path d="M3.85344 10.1543C3.00006 13.6921 4.15406 16.4776 6.71627 18.8186C7.944 19.9406 9.09078 21.1529 10.2535 22.344C11.4106 23.5295 12.542 24.7397 13.6841 25.938L17.2513 22.4116C16.9801 22.1259 16.7356 21.8624 16.4835 21.6056C14.1281 19.2084 11.7582 16.8236 9.41925 14.4099C8.29206 13.2466 8.26267 11.6043 9.28002 10.4421C10.3397 9.23185 11.9799 9.08438 13.3077 10.0785C13.483 10.21 13.6635 10.3343 13.6341 10.3131L17.1332 6.80423C15.1444 4.82933 12.6544 4.06103 9.77968 4.58698C8.37301 1.45035 6.96738 0.419075 4.41085 0.626362C2.46792 0.783632 0.660092 2.20783 0.276457 4.126C-0.322715 7.12908 1.03393 9.10655 3.85344 10.1543Z" fill="#146C94"/>
</svg>
