<svg width="22" height="23" viewBox="0 0 22 23" fill="none" xmlns="http://www.w3.org/2000/svg">
<g id="Group">
<path id="Vector" d="M0.288295 18.395L1.25167 17.4316C1.27674 17.4065 1.3036 17.3833 1.33046 17.36L0.639264 16.6688C0.62852 16.658 0.619566 16.6473 0.610613 16.6366C0.43871 16.4485 0.352759 16.2104 0.352759 15.974C0.352759 15.7233 0.449454 15.4726 0.641054 15.281L1.60443 14.3177C1.6295 14.2926 1.65635 14.2693 1.68321 14.246L0.992022 13.5548C0.800422 13.3632 0.705518 13.1108 0.705518 12.8601C0.705518 12.6094 0.802213 12.3587 0.992022 12.1671L1.95539 11.2037C2.14699 11.0121 2.39948 10.9172 2.65017 10.9172C2.90265 10.9172 3.15334 11.0121 3.34494 11.2037L11.7986 19.6574C11.9902 19.849 12.0851 20.1015 12.0851 20.3522C12.0851 20.6047 11.9902 20.8553 11.7986 21.0469L10.8352 22.0103C10.8245 22.0211 10.8138 22.03 10.803 22.039C10.615 22.2109 10.3768 22.2968 10.1405 22.2968C9.88978 22.2968 9.63909 22.2001 9.44749 22.0103L8.86195 21.4248C8.84046 21.4516 8.81718 21.4785 8.79211 21.5036L7.82874 22.4669C7.818 22.4777 7.80725 22.4866 7.79651 22.4956C7.61028 22.6657 7.37212 22.7516 7.13397 22.7516C6.88148 22.7516 6.63079 22.6567 6.44098 22.4651L5.64235 21.6665C5.62086 21.6934 5.59758 21.7202 5.57072 21.7453L4.60735 22.7087C4.41575 22.9003 4.16327 22.9952 3.91258 22.9952C3.66189 22.9952 3.40941 22.9003 3.21781 22.7087L0.288295 19.7863C0.0966953 19.5947 0 19.3422 0 19.0915C0 18.8391 0.0966953 18.5884 0.288295 18.395ZM11.7915 2.60142L10.8281 3.56479L10.8191 3.57374C10.8048 3.59344 10.7976 3.61672 10.7976 3.63999C10.7976 3.66685 10.8084 3.6955 10.8281 3.7152L19.2818 12.1689C19.3015 12.1886 19.3283 12.1993 19.357 12.1993C19.3838 12.1993 19.4125 12.1886 19.4322 12.1689L20.3955 11.2055L20.4045 11.1966C20.4188 11.1786 20.426 11.1536 20.426 11.1303C20.426 11.1016 20.417 11.0748 20.3973 11.0551L19.1206 9.77836L13.3243 3.98559L11.9419 2.60321C11.9222 2.58351 11.8953 2.57276 11.8667 2.57276C11.838 2.57097 11.8112 2.58172 11.7915 2.60142ZM12.7978 9.46499C13.0378 9.22504 13.4281 9.22504 13.6699 9.46499C13.9098 9.70494 13.9098 10.0953 13.6699 10.337L9.44391 14.5594C9.20396 14.7994 8.8136 14.7994 8.57186 14.5594C8.33191 14.3195 8.33191 13.9291 8.57186 13.6874L12.7978 9.46499ZM18.0229 1.90127L17.0596 2.86464C17.0381 2.88613 17.0273 2.91299 17.0273 2.93985C17.0273 2.96313 17.0345 2.98462 17.0488 3.00431L17.0596 3.01506L19.9819 5.9374L19.9909 5.94636C20.0088 5.96068 20.032 5.96605 20.0553 5.96605C20.0822 5.96605 20.1108 5.95531 20.1305 5.93561L21.0939 4.97224C21.1154 4.95075 21.1261 4.92389 21.1261 4.89703C21.1261 4.87017 21.1154 4.84152 21.0957 4.82183L18.1733 1.90127C18.1537 1.88157 18.1268 1.87083 18.0981 1.87083C18.0695 1.87083 18.0426 1.88157 18.0229 1.90127ZM16.44 2.24328L17.4034 1.27991C17.595 1.08831 17.8474 0.993408 18.0981 0.993408C18.3488 0.993408 18.6013 1.08831 18.7929 1.27991L21.7153 4.20226C21.9051 4.39207 22.0018 4.64455 22 4.89524C22 5.14773 21.9051 5.40021 21.7153 5.59002L20.7519 6.55339C20.7268 6.57846 20.7 6.60174 20.6731 6.62501L21.4717 7.42365C21.6633 7.61525 21.7582 7.86773 21.7582 8.11842C21.7582 8.3709 21.6615 8.62159 21.4717 8.81319L20.5084 9.77657C20.4833 9.80163 20.4564 9.82491 20.4296 9.8464L21.0151 10.4319C21.2067 10.6235 21.3016 10.8742 21.3016 11.1249C21.3016 11.3631 21.2157 11.6012 21.0438 11.7875C21.0348 11.7982 21.0259 11.809 21.0151 11.8197L20.0517 12.7831C19.8601 12.9747 19.6077 13.0696 19.357 13.0696C19.1045 13.0696 18.8538 12.9729 18.6622 12.7831L10.2085 4.33477C10.0169 4.14317 9.92022 3.89069 9.92022 3.63999C9.92022 3.40184 10.0062 3.16368 10.1781 2.97745C10.187 2.96671 10.196 2.95596 10.2067 2.94522L11.1701 1.98185C11.3617 1.79025 11.6124 1.69534 11.8631 1.69534C12.1156 1.69534 12.3663 1.79204 12.5579 1.98185L13.249 2.67304C13.2705 2.64618 13.2938 2.61932 13.3207 2.59425L14.284 1.63088C14.4756 1.43928 14.7281 1.34259 14.9788 1.34259C15.2313 1.34259 15.482 1.43928 15.6736 1.63088L16.3648 2.32207C16.3916 2.29521 16.4149 2.26835 16.44 2.24328ZM14.9072 2.25224L13.9438 3.21561C13.9241 3.23531 13.9134 3.26217 13.9134 3.29082C13.9134 3.31768 13.9223 3.34454 13.942 3.36423L13.9438 3.36602L19.7384 9.16058C19.7581 9.18028 19.7849 9.19102 19.8136 9.19102C19.8422 9.19102 19.8691 9.18207 19.8888 9.16237L20.8522 8.199C20.8719 8.1793 20.8826 8.15244 20.8826 8.12379C20.8826 8.09693 20.8719 8.06828 20.8522 8.04858L19.3641 6.56055L15.0576 2.25224C15.0379 2.23254 15.0093 2.2218 14.9824 2.2218C14.9538 2.2218 14.9269 2.23075 14.9072 2.25224ZM2.99218 14.3177L8.78674 20.1122L10.0599 21.3854C10.0796 21.4051 10.1082 21.414 10.1351 21.414C10.1584 21.414 10.1817 21.4069 10.2014 21.3925L10.2103 21.3836L11.1737 20.4202C11.1934 20.4005 11.2041 20.3737 11.2041 20.345C11.2041 20.3181 11.1934 20.2895 11.1737 20.2698L2.72179 11.8215C2.7021 11.8018 2.67524 11.7911 2.64659 11.7911C2.61973 11.7911 2.59108 11.8018 2.57138 11.8215L1.60801 12.7849C1.58831 12.8046 1.57936 12.8332 1.57936 12.8601C1.57936 12.8869 1.5901 12.9156 1.6098 12.9353L2.99218 14.3177ZM8.17613 20.7425L8.16717 20.7336L2.37083 14.9372L2.36008 14.9265C2.34038 14.9122 2.3189 14.905 2.29562 14.905C2.26876 14.905 2.2419 14.9157 2.22041 14.9372L1.25704 15.9006C1.23734 15.9203 1.22839 15.9489 1.22839 15.9758C1.22839 15.9991 1.23555 16.0224 1.24988 16.0421L1.25883 16.051L2.64121 17.4334L5.56356 20.3557L7.05339 21.8456C7.07487 21.8671 7.10173 21.876 7.12859 21.876C7.15187 21.876 7.17515 21.8689 7.19485 21.8545L7.2038 21.8456L8.16717 20.8822C8.18687 20.8625 8.19582 20.8339 8.19582 20.807C8.19582 20.7837 8.18866 20.7604 8.17613 20.7425ZM1.87123 18.053L0.907862 19.0163C0.888164 19.036 0.87742 19.0629 0.87742 19.0915C0.87742 19.1202 0.888164 19.1471 0.907862 19.1668L3.83021 22.0891C3.84991 22.1088 3.87677 22.1195 3.90542 22.1195C3.93228 22.1195 3.96093 22.1088 3.98062 22.0891L4.944 21.1257C4.96369 21.106 4.97444 21.0792 4.97444 21.0505C4.97444 21.0219 4.96369 20.995 4.944 20.9753L2.01986 18.053L2.01807 18.0512C1.99837 18.0315 1.97151 18.0225 1.94465 18.0225C1.91779 18.0225 1.89093 18.0333 1.87123 18.053Z" fill="#146C94"/>
</g>
</svg>
